<?xml version="1.0" encoding="UTF-8" standalone="no"?>
<svg
   xmlns:dc="http://purl.org/dc/elements/1.1/"
   xmlns:cc="http://creativecommons.org/ns#"
   xmlns:rdf="http://www.w3.org/1999/02/22-rdf-syntax-ns#"
   xmlns:svg="http://www.w3.org/2000/svg"
   xmlns="http://www.w3.org/2000/svg"
   xmlns:sodipodi="http://sodipodi.sourceforge.net/DTD/sodipodi-0.dtd"
   xmlns:inkscape="http://www.inkscape.org/namespaces/inkscape"
   sodipodi:docname="review-h-features.svg"
   inkscape:version="1.0 (4035a4fb49, 2020-05-01)"
   id="svg862"
   version="1.1"
   viewBox="0 0 6.6145832 6.6145835"
   height="25"
   width="25">
  <defs
     id="defs856" />
  <sodipodi:namedview
     inkscape:window-maximized="0"
     inkscape:window-y="0"
     inkscape:window-x="7"
     inkscape:window-height="1030"
     inkscape:window-width="1895"
     units="px"
     showgrid="false"
     inkscape:document-rotation="0"
     inkscape:current-layer="layer1"
     inkscape:document-units="mm"
     inkscape:cy="16.931384"
     inkscape:cx="8.2393913"
     inkscape:zoom="15.839192"
     inkscape:pageshadow="2"
     inkscape:pageopacity="0.0"
     borderopacity="1.0"
     bordercolor="#666666"
     pagecolor="#ffffff"
     id="base" />
  <metadata
     id="metadata859">
    <rdf:RDF>
      <cc:Work
         rdf:about="">
        <dc:format>image/svg+xml</dc:format>
        <dc:type
           rdf:resource="http://purl.org/dc/dcmitype/StillImage" />
        <dc:title></dc:title>
      </cc:Work>
    </rdf:RDF>
  </metadata>
  <g
     id="layer1"
     inkscape:groupmode="layer"
     inkscape:label="Слой 1">
    <path
       style="opacity:1;fill:#ffffff;fill-rule:nonzero;stroke:none;stroke-width:0.275606;stroke-linecap:butt;stroke-linejoin:miter;stroke-miterlimit:4;stroke-dasharray:none;stroke-dashoffset:0;fill-opacity:1"
       d="m 6.3389817,3.0316867 h -1.37804 c -0.15222,0 -0.27561,0.12339 -0.27561,0.27561 v 2.48047 c 0,0.15221 0.12339,0.2756 0.27561,0.2756 h 1.37804 c 0.15221,0 0.2756,-0.12339 0.2756,-0.2756 v -2.48047 c 0,-0.15222 -0.12339,-0.27561 -0.2756,-0.27561 m 0,2.48047 h -1.37804 v -1.92926 h 1.37804 v 1.92926 M 5.5121517,0.55121667 H 0.55122167 c -0.30593,0 -0.5512200033333,0.24529 -0.5512200033333,0.55122003 v 3.30729 c 0,0.30442 0.2467900033333,0.55121 0.5512200033333,0.55121 H 2.4804717 v 0.55122 h -0.55122 v 0.55121 h 2.20486 v -0.55121 h -0.55121 v -0.55122 h 0.55121 v -0.55121 H 0.55122167 v -3.30729 H 5.5121517 v 1.37803 h 0.55122 v -1.37803 c 0,-0.30593003 -0.24805,-0.55122003 -0.55122,-0.55122003 m -2.21313,1.92925003 -0.26734,-0.82682 -0.26734,0.82682 h -0.83509 l 0.68075,0.48507 -0.25907,0.80202 0.68075,-0.49609 0.68076,0.49609 -0.25908,-0.80202 0.68075,-0.48507 z"
       stroke-linecap="round"
       id="path1465" />
  </g>
</svg>
