<?xml version="1.0" encoding="UTF-8" standalone="no"?>
<svg
   xmlns:dc="http://purl.org/dc/elements/1.1/"
   xmlns:cc="http://creativecommons.org/ns#"
   xmlns:rdf="http://www.w3.org/1999/02/22-rdf-syntax-ns#"
   xmlns:svg="http://www.w3.org/2000/svg"
   xmlns="http://www.w3.org/2000/svg"
   xmlns:sodipodi="http://sodipodi.sourceforge.net/DTD/sodipodi-0.dtd"
   xmlns:inkscape="http://www.inkscape.org/namespaces/inkscape"
   sodipodi:docname="review-h-e-sports.svg"
   inkscape:version="1.0 (4035a4fb49, 2020-05-01)"
   id="svg858"
   version="1.1"
   viewBox="0 0 6.6145832 6.6145835"
   height="25"
   width="25">
  <defs
     id="defs852" />
  <sodipodi:namedview
     inkscape:window-maximized="0"
     inkscape:window-y="135"
     inkscape:window-x="160"
     inkscape:window-height="1208"
     inkscape:window-width="1895"
     units="px"
     showgrid="false"
     inkscape:document-rotation="0"
     inkscape:current-layer="layer1"
     inkscape:document-units="mm"
     inkscape:cy="26.13265"
     inkscape:cx="8.5220917"
     inkscape:zoom="15.839192"
     inkscape:pageshadow="2"
     inkscape:pageopacity="0.0"
     borderopacity="1.0"
     bordercolor="#666666"
     pagecolor="#ffffff"
     id="base" />
  <metadata
     id="metadata855">
    <rdf:RDF>
      <cc:Work
         rdf:about="">
        <dc:format>image/svg+xml</dc:format>
        <dc:type
           rdf:resource="http://purl.org/dc/dcmitype/StillImage" />
        <dc:title></dc:title>
      </cc:Work>
    </rdf:RDF>
  </metadata>
  <g
     id="layer1"
     inkscape:groupmode="layer"
     inkscape:label="Слой 1">
    <path
       style="opacity:1;fill:#ffffff;fill-rule:nonzero;stroke:none;stroke-width:0.0103343;stroke-linecap:butt;stroke-linejoin:miter;stroke-miterlimit:4;stroke-dasharray:none;stroke-dashoffset:0;fill-opacity:1"
       d="M 4.961507,1.6537781 H 1.6538 c -0.75045897,-1.06e-4 -1.40687897,0.505199 -1.59876397,1.230711 -0.191884,0.725513 0.128893,1.489269 0.781279,1.860188 C 1.488701,5.1155951 2.309072,5.0006491 2.834393,4.4647141 H 3.78019 c 0.525258,0.535871 1.345507,0.650861 1.997869,0.280082 C 6.430421,4.3740171 6.751321,3.6104371 6.55967,2.8849551 6.368021,2.1594741 5.711876,1.6539991 4.961507,1.6537781 Z m -2.398286,1.777503 c 0,0.06849 -0.05552,0.124012 -0.124012,0.124012 H 1.901824 v 0.537385 c 0,0.06849 -0.05552,0.124012 -0.124012,0.124012 H 1.529788 c -0.06849,0 -0.124012,-0.05552 -0.124012,-0.124012 V 3.5552931 H 0.86839203 c -0.06849,0 -0.124012,-0.05552 -0.124012,-0.124012 v -0.248023 c 0,-0.06849 0.05552,-0.124012 0.124012,-0.124012 H 1.405776 v -0.537384 c 0,-0.06849 0.05552,-0.124012 0.124012,-0.124012 h 0.248024 c 0.06849,0 0.124012,0.05552 0.124012,0.124012 v 0.537384 h 0.537385 c 0.06849,0 0.124012,0.05552 0.124012,0.124012 z m 2.232213,0.785409 c -0.228299,0 -0.413373,-0.185073 -0.413373,-0.413373 0,-0.228299 0.185074,-0.413373 0.413373,-0.413373 0.2283,0 0.413373,0.185074 0.413373,0.413373 0,0.2283 -0.185073,0.413373 -0.413373,0.413373 z m 0.661397,-0.992095 c -0.2283,0 -0.413373,-0.185073 -0.413373,-0.413372 0,-0.2283 0.185073,-0.413373 0.413373,-0.413373 0.228299,0 0.413373,0.185073 0.413373,0.413373 0,0.228299 -0.185074,0.413372 -0.413373,0.413372 z"
       stroke-linecap="round"
       id="path10" />
  </g>
</svg>
