<?xml version="1.0" encoding="UTF-8" standalone="no"?>
<svg
   xmlns:dc="http://purl.org/dc/elements/1.1/"
   xmlns:cc="http://creativecommons.org/ns#"
   xmlns:rdf="http://www.w3.org/1999/02/22-rdf-syntax-ns#"
   xmlns:svg="http://www.w3.org/2000/svg"
   xmlns="http://www.w3.org/2000/svg"
   xmlns:sodipodi="http://sodipodi.sourceforge.net/DTD/sodipodi-0.dtd"
   xmlns:inkscape="http://www.inkscape.org/namespaces/inkscape"
   inkscape:version="1.0 (4035a4fb49, 2020-05-01)"
   height="25"
   width="25"
   sodipodi:docname="review-cricket.svg"
   id="svg4"
   version="1.1"
   viewBox="1.9475 2 25.000001 25">
  <metadata
     id="metadata10">
    <rdf:RDF>
      <cc:Work
         rdf:about="">
        <dc:format>image/svg+xml</dc:format>
        <dc:type
           rdf:resource="http://purl.org/dc/dcmitype/StillImage" />
        <dc:title></dc:title>
      </cc:Work>
    </rdf:RDF>
  </metadata>
  <defs
     id="defs8" />
  <sodipodi:namedview
     inkscape:current-layer="svg4"
     inkscape:window-maximized="1"
     inkscape:window-y="-9"
     inkscape:window-x="-9"
     inkscape:cy="10"
     inkscape:cx="10.025"
     inkscape:zoom="52.2"
     showgrid="false"
     id="namedview6"
     inkscape:window-height="1361"
     inkscape:window-width="3440"
     inkscape:pageshadow="2"
     inkscape:pageopacity="0"
     guidetolerance="10"
     gridtolerance="10"
     objecttolerance="10"
     borderopacity="1"
     bordercolor="#666666"
     pagecolor="#ffffff" />
  <path
     style="stroke-width:1.24673;fill:#ffffff;fill-opacity:1"
     id="path2"
     fill="#5997e3ff"
     d="m 17.397569,21.693617 1.757885,-1.757885 5.298591,5.261189 -1.795287,1.770353 -5.261189,-5.273657 M 22.583954,2.0327265 A 4.3635457,4.3635457 0 0 1 26.9475,6.3962722 4.3635457,4.3635457 0 0 1 22.583954,10.759818 4.3635457,4.3635457 0 0 1 18.220409,6.3962722 4.3635457,4.3635457 0 0 1 22.583954,2.0327265 M 2.3121677,8.4035032 5.8404061,4.8752648 c 0.4862237,-0.4862236 1.2716619,-0.4862236 1.7828201,0 L 18.183007,15.45998 c 0.486223,0.486224 0.486223,1.271662 0,1.757886 l -3.528239,3.515771 c -0.486223,0.498691 -1.271661,0.498691 -1.770352,0 L 2.3121677,10.173857 c -0.4862236,-0.4986919 -0.4862236,-1.2841301 0,-1.7703538 z" />
</svg>
