<?xml version="1.0" encoding="UTF-8" standalone="no"?>
<svg
   xmlns:dc="http://purl.org/dc/elements/1.1/"
   xmlns:cc="http://creativecommons.org/ns#"
   xmlns:rdf="http://www.w3.org/1999/02/22-rdf-syntax-ns#"
   xmlns:svg="http://www.w3.org/2000/svg"
   xmlns="http://www.w3.org/2000/svg"
   xmlns:sodipodi="http://sodipodi.sourceforge.net/DTD/sodipodi-0.dtd"
   xmlns:inkscape="http://www.inkscape.org/namespaces/inkscape"
   inkscape:version="1.0 (4035a4fb49, 2020-05-01)"
   height="25"
   width="25"
   sodipodi:docname="review-volleyball.svg"
   id="svg4"
   version="1.1"
   viewBox="8.00169 8.00077 25 25">
  <metadata
     id="metadata10">
    <rdf:RDF>
      <cc:Work
         rdf:about="">
        <dc:format>image/svg+xml</dc:format>
        <dc:type
           rdf:resource="http://purl.org/dc/dcmitype/StillImage" />
        <dc:title></dc:title>
      </cc:Work>
    </rdf:RDF>
  </metadata>
  <defs
     id="defs8" />
  <sodipodi:namedview
     inkscape:current-layer="svg4"
     inkscape:window-maximized="1"
     inkscape:window-y="-9"
     inkscape:window-x="-9"
     inkscape:cy="17.919217"
     inkscape:cx="36.962847"
     inkscape:zoom="23.398236"
     showgrid="false"
     id="namedview6"
     inkscape:window-height="1361"
     inkscape:window-width="3440"
     inkscape:pageshadow="2"
     inkscape:pageopacity="0"
     guidetolerance="10"
     gridtolerance="10"
     objecttolerance="10"
     borderopacity="1"
     bordercolor="#666666"
     pagecolor="#ffffff" />
  <path
     style="stroke-width:0.0503952;fill:#ffffff;fill-opacity:1"
     id="path2"
     fill="#5997e3ff"
     d="M 19.261672,19.867799 A 14.390862,14.390862 0 0 0 18.117701,14.541024 C 13.541814,16.677782 10.180451,20.7094 9.0314403,25.46671 a 12.548412,12.548412 0 0 0 2.8674887,4.087053 16.825455,16.825455 0 0 1 7.362743,-9.685964 z M 17.402088,13.094681 A 14.323836,14.323836 0 0 0 14.509402,9.531738 C 9.923436,12.041421 7.2121725,17.237169 8.2099981,22.745367 9.8931988,18.557523 13.168889,15.085292 17.402088,13.094681 Z m 9.454145,8.320252 C 27.289632,16.385489 25.480444,11.461875 21.942698,8.0904344 21.201889,8.0047625 19.342304,7.8132606 16.95861,8.5187938 a 16.825455,16.825455 0 0 1 4.711954,11.2240252 14.36264,14.36264 0 0 0 5.185669,1.672114 z m -6.284285,0.478755 a 14.429666,14.429666 0 0 0 -4.041697,3.658693 c 4.132409,2.887647 9.297919,3.784682 13.984676,2.408892 a 12.455181,12.455181 0 0 0 2.126678,-4.530531 16.937837,16.937837 0 0 1 -4.076973,0.52411 c -2.75158,-0.005 -5.488041,-0.710572 -7.992684,-2.061164 z m -4.953851,5.024404 c -0.766007,1.310276 -1.295158,2.7415 -1.617687,4.243279 A 12.45115,12.45115 0 0 0 28.564632,30.047636 C 22.875011,30.858999 18.319281,28.797834 15.618097,26.918092 Z m 9.08626,-18.1725196 c 2.786856,3.5478246 4.157606,8.1237116 3.759484,12.7802306 a 14.442769,14.442769 0 0 0 4.520452,-0.715613 c 0,-0.10079 0.01512,-0.201581 0.01512,-0.302372 0,-5.432605 -3.462153,-10.03369 -8.295055,-11.7622456 z" />
</svg>
