<?xml version="1.0" encoding="UTF-8" standalone="no"?>
<svg
   xmlns:dc="http://purl.org/dc/elements/1.1/"
   xmlns:cc="http://creativecommons.org/ns#"
   xmlns:rdf="http://www.w3.org/1999/02/22-rdf-syntax-ns#"
   xmlns:svg="http://www.w3.org/2000/svg"
   xmlns="http://www.w3.org/2000/svg"
   xmlns:sodipodi="http://sodipodi.sourceforge.net/DTD/sodipodi-0.dtd"
   xmlns:inkscape="http://www.inkscape.org/namespaces/inkscape"
   sodipodi:docname="review-mma.svg"
   inkscape:version="1.0 (4035a4fb49, 2020-05-01)"
   id="svg876"
   version="1.1"
   viewBox="0 0 6.6145832 6.6145835"
   height="25"
   width="25">
  <defs
     id="defs870" />
  <sodipodi:namedview
     inkscape:window-maximized="0"
     inkscape:window-y="135"
     inkscape:window-x="288"
     inkscape:window-height="1208"
     inkscape:window-width="1895"
     units="px"
     showgrid="false"
     inkscape:document-rotation="0"
     inkscape:current-layer="layer1"
     inkscape:document-units="mm"
     inkscape:cy="10.810158"
     inkscape:cx="0.47045709"
     inkscape:zoom="15.839192"
     inkscape:pageshadow="2"
     inkscape:pageopacity="0.0"
     borderopacity="1.0"
     bordercolor="#666666"
     pagecolor="#ffffff"
     id="base" />
  <metadata
     id="metadata873">
    <rdf:RDF>
      <cc:Work
         rdf:about="">
        <dc:format>image/svg+xml</dc:format>
        <dc:type
           rdf:resource="http://purl.org/dc/dcmitype/StillImage" />
        <dc:title></dc:title>
      </cc:Work>
    </rdf:RDF>
  </metadata>
  <g
     id="layer1"
     inkscape:groupmode="layer"
     inkscape:label="Слой 1">
    <path
       stroke="#accbf1"
       stroke-width="0.0693917"
       fill="none"
       stroke-linecap="butt"
       vector-effect="non-scaling-stroke"
       d="m 3.7388962,3.2001148 0.06349,0.0173 a 0.03365493,0.03434885 31.4 0 0 0.03192,-0.008 q 0.0968,-0.0902 0.113803,-0.22378 a 0.03538972,0.03573668 25 0 0 -0.01111,-0.0309 l -0.07425,-0.0677 a 0.03608364,0.03643059 20.8 0 1 -0.01145,-0.0257 c -0.0035,-0.20471 -0.06592,-0.49303 -0.252586,-0.61134 -0.204011,-0.12942 -0.509334,-0.12456 -0.710223,-0.0139 -0.179377,0.0985 -0.199847,0.27861 -0.244952,0.46145 -0.03053,0.12317 -0.09333,0.2564 -0.08362,0.41809 a 0.03018535,0.03087927 5.4 0 0 0.02255,0.0277 q 0.05066,0.0142 0.09784,-0.002 0.04441,-0.0153 0.04094,0.0312 l -0.03296,0.4566 q -0.0014,0.0212 -0.01596,0.0364 -0.07182,0.0746 -0.17452,0.0965 -0.01735,0.004 -0.03088,-0.008 c -0.085,-0.0746 -0.161336,-0.1596 -0.261954,-0.20887 q -0.215461,-0.10513 -0.440983,-0.14885 -0.03851,-0.008 -0.05447,-0.0437 -0.195684,-0.44376 -0.633198,-0.62869 -0.09888,-0.042 -0.18978598,-0.0958 a 0.04232888,0.04232888 0 0 1 -0.01388,-0.0597 q 0.23558498,-0.35806 0.31469098,-0.78308 0.0031,-0.0166 0.017,-0.026 0.135314,-0.0933 0.197073,-0.23871 c 0.04684,-0.11103 0.09507,-0.22205 0.179377,-0.25189 q 0.310527,-0.10964 0.557561,-0.32891998 c 0.202277,-0.17937 0.148845,-0.50066 -0.06766,-0.64256 q -0.268893,-0.17626 -0.575951,-0.27479 c -0.120047,-0.0385 -0.205052,-0.0357 -0.284158,0.0746 -0.128722,0.17868 -0.1825,0.40317 -0.26576998,0.6613 -0.02151,0.067 0.01596,0.093 -0.03851,0.15336 q -0.114496,0.12732998 -0.338978,0.41842998 -0.08639,0.11242 3.54e-4,0.19222 0.01388,0.0125 0.0035,0.0281 c -0.217196,0.32336 -0.326141,0.64569 -0.495109,0.98744 q -0.0076,0.0153 0,0.0305 c 0.07945,0.15995 0.155437,0.31227 0.25085,0.46944 0.148151,0.24495 0.281383,0.53535 0.454862,0.74908 0.161683,0.19915 0.36326498,0.3303 0.55652098,0.4795 0.05933,0.0458 0.115884,0.10825 0.126987,0.17486 q 0.08778,0.53501 0.239748,1.0551 c 0.04996,0.17175 0.153008,0.31643 0.16307,0.49685 q 0.01075,0.19221 -0.02047,0.38859 -0.0052,0.0323 0.02637,0.0402 0.461107,0.11727 0.930541,0.17625 0.21789,0.0271 0.960727,0.009 0.04129,-0.001 0.112414,-0.0212 c 0.107905,-0.0305 0.30567,0.0454 0.279302,-0.14989 -0.02394,-0.17799 -0.03643,-0.55895 0.08709,-0.71265 q 0.09507,-0.11796 0.146416,-0.25952 c 0.106863,-0.29457 0.236626,-0.5763 0.365348,-0.86254 q 0.0073,-0.0163 0.02359,-0.0236 c 0.244259,-0.10756 0.535356,-0.21408 0.73104,-0.35217 0.364307,-0.25709 0.680733,-0.66373 0.984321,-0.99299 q 0.02359,-0.0257 0.04476,-0.0774 a 0.0346958,0.03434885 41 0 0 -0.0024,-0.0316 c -0.02845,-0.0472 -0.05308,-0.0899 -0.0687,-0.14398 -0.1197,-0.41427 -0.279648,-0.69045 -0.466312,-1.02769 -0.1825,-0.32927 -0.304976,-0.66477 -0.364653,-1.01450998 -0.04753,-0.27895 -0.235932,-0.39414 -0.512803,-0.35667 -0.217543,0.0291 -0.64569,0.1884 -0.647771,0.46734998 -0.0035,0.40108 0.283464,0.58185 0.63632,0.70537 a 0.03538972,0.03504276 1.3 0 1 0.02221,0.0229 c 0.03608,0.11068 0.192908,0.49129 0.293874,0.54195 q 0.02429,0.0121 0.03643,-0.006 a 0.01804182,0.01769486 65.4 0 1 0.03261,0.0122 q -0.04302,0.35459 0.08986,0.68489 a 0.08778038,0.08778038 0 0 1 -0.05933,0.11762 q -0.450698,0.11762 -0.745612,0.48088 -0.01111,0.0142 -0.02914,0.0149 c -0.269239,0.0128 -0.63424,0.0448 -0.83374,0.24842 -0.08015,0.0819 -0.217196,-0.009 -0.272015,-0.0704 a 0.03851234,0.03851234 0 0 1 -0.009,-0.0305 l 0.07598,-0.55513 q 0.0031,-0.0212 0.02359,-0.0153"
       id="path847"
       style="display:inline;fill:#ffffff;fill-opacity:1;stroke:none" />
  </g>
</svg>
