<?xml version="1.0" encoding="UTF-8" standalone="no"?>
<svg
   xmlns:dc="http://purl.org/dc/elements/1.1/"
   xmlns:cc="http://creativecommons.org/ns#"
   xmlns:rdf="http://www.w3.org/1999/02/22-rdf-syntax-ns#"
   xmlns:svg="http://www.w3.org/2000/svg"
   xmlns="http://www.w3.org/2000/svg"
   xmlns:sodipodi="http://sodipodi.sourceforge.net/DTD/sodipodi-0.dtd"
   xmlns:inkscape="http://www.inkscape.org/namespaces/inkscape"
   sodipodi:docname="review-h-tennis.svg"
   inkscape:version="1.0 (4035a4fb49, 2020-05-01)"
   id="svg862"
   version="1.1"
   viewBox="0 0 6.6145832 6.6145835"
   height="25"
   width="25">
  <defs
     id="defs856" />
  <sodipodi:namedview
     inkscape:window-maximized="0"
     inkscape:window-y="0"
     inkscape:window-x="7"
     inkscape:window-height="1030"
     inkscape:window-width="1895"
     units="px"
     showgrid="false"
     inkscape:document-rotation="0"
     inkscape:current-layer="layer1"
     inkscape:document-units="mm"
     inkscape:cy="16.931384"
     inkscape:cx="8.2393913"
     inkscape:zoom="15.839192"
     inkscape:pageshadow="2"
     inkscape:pageopacity="0.0"
     borderopacity="1.0"
     bordercolor="#666666"
     pagecolor="#ffffff"
     id="base" />
  <metadata
     id="metadata859">
    <rdf:RDF>
      <cc:Work
         rdf:about="">
        <dc:format>image/svg+xml</dc:format>
        <dc:type
           rdf:resource="http://purl.org/dc/dcmitype/StillImage" />
        <dc:title></dc:title>
      </cc:Work>
    </rdf:RDF>
  </metadata>
  <g
     id="layer1"
     inkscape:groupmode="layer"
     inkscape:label="Слой 1">
    <path
       style="opacity:1;fill:#ffffff;fill-rule:nonzero;stroke:none;stroke-width:0.330728;stroke-linecap:butt;stroke-linejoin:miter;stroke-miterlimit:4;stroke-dasharray:none;stroke-dashoffset:0;fill-opacity:1"
       d="m 3.3072917,1.6666667e-6 c 0.82682,0 1.57097,0.2976600033333 2.14974,0.7937500033333 -0.70776,0.60523003 -1.15755,1.50813003 -1.15755,2.51354003 0,1.00542 0.44979,1.90831 1.15755,2.51354 -0.57877,0.4961 -1.32292,0.79375 -2.14974,0.79375 -0.82682,0 -1.57096,-0.29765 -2.14974,-0.79375 0.70776,-0.60523 1.15755,-1.50812 1.15755,-2.51354 0,-1.00541 -0.44979,-1.90831 -1.15755,-2.51354003 0.57878,-0.49609 1.32292,-0.7937500033333 2.14974,-0.7937500033333 M 6.6145817,3.3072917 c 0,0.76729 -0.26127,1.47175 -0.70114,2.03399 -0.58209,-0.48618 -0.9525,-1.21709 -0.9525,-2.03399 0,-0.8169 0.37041,-1.54781 0.9525,-2.03398 0.43987,0.56224 0.70114,1.26669 0.70114,2.03398 m -6.6145800333333,0 c 0,-0.76729 0.2612800033333,-1.47174 0.7011500033333,-2.03398 0.58208003,0.48617 0.95250003,1.21708 0.95250003,2.03398 0,0.8169 -0.37042,1.54781 -0.95250003,2.03399 -0.43987,-0.56224 -0.7011500033333,-1.2667 -0.7011500033333,-2.03399 z"
       stroke-linecap="round"
       id="path2705" />
  </g>
</svg>
