<?xml version="1.0" encoding="UTF-8" standalone="no"?>
<svg
   xmlns:dc="http://purl.org/dc/elements/1.1/"
   xmlns:cc="http://creativecommons.org/ns#"
   xmlns:rdf="http://www.w3.org/1999/02/22-rdf-syntax-ns#"
   xmlns:svg="http://www.w3.org/2000/svg"
   xmlns="http://www.w3.org/2000/svg"
   xmlns:sodipodi="http://sodipodi.sourceforge.net/DTD/sodipodi-0.dtd"
   xmlns:inkscape="http://www.inkscape.org/namespaces/inkscape"
   sodipodi:docname="review-h-basketball.svg"
   inkscape:version="1.0 (4035a4fb49, 2020-05-01)"
   id="svg862"
   version="1.1"
   viewBox="0 0 6.6145832 6.6145835"
   height="25"
   width="25">
  <defs
     id="defs856" />
  <sodipodi:namedview
     inkscape:window-maximized="0"
     inkscape:window-y="0"
     inkscape:window-x="7"
     inkscape:window-height="1030"
     inkscape:window-width="1895"
     units="px"
     showgrid="false"
     inkscape:document-rotation="0"
     inkscape:current-layer="layer1"
     inkscape:document-units="mm"
     inkscape:cy="16.931384"
     inkscape:cx="8.2393913"
     inkscape:zoom="15.839192"
     inkscape:pageshadow="2"
     inkscape:pageopacity="0.0"
     borderopacity="1.0"
     bordercolor="#666666"
     pagecolor="#ffffff"
     id="base" />
  <metadata
     id="metadata859">
    <rdf:RDF>
      <cc:Work
         rdf:about="">
        <dc:format>image/svg+xml</dc:format>
        <dc:type
           rdf:resource="http://purl.org/dc/dcmitype/StillImage" />
        <dc:title></dc:title>
      </cc:Work>
    </rdf:RDF>
  </metadata>
  <g
     id="layer1"
     inkscape:groupmode="layer"
     inkscape:label="Слой 1">
    <path
       style="opacity:1;fill:#ffffff;fill-rule:nonzero;stroke:none;stroke-width:0.0133359;stroke-linecap:butt;stroke-linejoin:miter;stroke-miterlimit:4;stroke-dasharray:none;stroke-dashoffset:0;fill-opacity:1"
       d="m 2.8312017,0.03067167 c -0.58411,0.084 -1.14955,0.3214 -1.62964,0.71747 l 1.0322,1.03220003 c 0.37073,-0.47743 0.57744,-1.08287003 0.59744,-1.74967003 z m 0.47609,2.82320003 2.10573,-2.10573003 c -0.56544,-0.46675 -1.24823,-0.71347 -1.94036,-0.7481400033333 C 3.4566617,0.85216167 3.1859417,1.6309717 2.6898417,2.2364217 Z m -2.55915003,-1.65231 c -0.39607,0.48009 -0.63345,1.04553 -0.71747,1.62964 0.6668,-0.02 1.27358003,-0.22671 1.74967003,-0.59744 z m 3.63002003,2.72318 c 0.60411,-0.49476 1.38293,-0.76548 2.23642,-0.78281 -0.0347,-0.69213 -0.28138,-1.37493 -0.74814,-1.94037 l -2.10573,2.10573 z m -1.07087,-0.16403 -2.10573,2.10573 c 0.56544,0.46542 1.24824,0.71347 1.94037,0.74814 0.0173,-0.85349 0.28805,-1.63231 0.78281,-2.23642 z m 2.55915,1.65231 c 0.39608,-0.48009 0.63345,-1.04553 0.71747,-1.62964 -0.66813,0.0213 -1.27357,0.22804 -1.74966,0.59745 z m -3.63002,-2.72318 c -0.60545,0.4961 -1.38426003,0.76815 -2.2364200333333,0.78282 C 0.03470167,4.1647917 0.28139167,4.8475817 0.74814167,5.4130217 l 2.10573003,-2.10573 z m 1.54696,3.89407 c 0.58411,-0.084 1.14955,-0.32139 1.62964,-0.71747 l -1.03219,-1.03219 c -0.36941,0.47609 -0.57611,1.08287 -0.59745,1.74966 z"
       stroke-linecap="round"
       id="path3325" />
  </g>
</svg>
