<?xml version="1.0" encoding="UTF-8" standalone="no"?>
<svg
   xmlns:dc="http://purl.org/dc/elements/1.1/"
   xmlns:cc="http://creativecommons.org/ns#"
   xmlns:rdf="http://www.w3.org/1999/02/22-rdf-syntax-ns#"
   xmlns:svg="http://www.w3.org/2000/svg"
   xmlns="http://www.w3.org/2000/svg"
   xmlns:sodipodi="http://sodipodi.sourceforge.net/DTD/sodipodi-0.dtd"
   xmlns:inkscape="http://www.inkscape.org/namespaces/inkscape"
   width="25"
   height="25"
   viewBox="0 0 6.6145832 6.6145835"
   version="1.1"
   id="svg862"
   inkscape:version="1.0 (4035a4fb49, 2020-05-01)"
   sodipodi:docname="review-horceracing.svg">
  <defs
     id="defs856" />
  <sodipodi:namedview
     id="base"
     pagecolor="#ffffff"
     bordercolor="#666666"
     borderopacity="1.0"
     inkscape:pageopacity="0.0"
     inkscape:pageshadow="2"
     inkscape:zoom="15.839192"
     inkscape:cx="8.2393913"
     inkscape:cy="16.931384"
     inkscape:document-units="mm"
     inkscape:current-layer="layer1"
     inkscape:document-rotation="0"
     showgrid="false"
     units="px"
     inkscape:window-width="1895"
     inkscape:window-height="1030"
     inkscape:window-x="7"
     inkscape:window-y="0"
     inkscape:window-maximized="0" />
  <metadata
     id="metadata859">
    <rdf:RDF>
      <cc:Work
         rdf:about="">
        <dc:format>image/svg+xml</dc:format>
        <dc:type
           rdf:resource="http://purl.org/dc/dcmitype/StillImage" />
        <dc:title></dc:title>
      </cc:Work>
    </rdf:RDF>
  </metadata>
  <g
     inkscape:label="Слой 1"
     inkscape:groupmode="layer"
     id="layer1">
    <path
       style="opacity:1;fill:#ffffff;fill-rule:nonzero;stroke:none;stroke-width:0.0129195;stroke-linecap:butt;stroke-linejoin:miter;stroke-miterlimit:4;stroke-dasharray:none;stroke-dashoffset:0;fill-opacity:1"
       d="m 6.5863442,4.2952215 -0.90307,-2.12267 c -0.1925,-0.53229 -0.65114,-0.91729 -1.20151,-1.02323 0.23255,-0.13694 0.59817,-0.46381002 0.44184,-1.06327002 -0.0168,-0.0646 -0.0917,-0.10206 -0.15503,-0.0788 l -2.61232,0.97801 C 0.46380422,1.5937615 -5.7823582e-6,3.0859615 -5.7823582e-6,5.1517915 v 1.04906 c 0,0.22868 0.1847500023582,0.41342 0.4134200023582,0.41342 H 3.4649942 c 0.30749,0 0.50774,-0.32298 0.3695,-0.59817 l -0.52711,-1.05552 v -0.009 c -0.58913,-0.0452 -1.09299,-0.39663 -1.34751,-0.8992 -0.0207,-0.0401 -0.0116,-0.0891 0.0207,-0.12015 l 0.15632,-0.15633 c 0.0504,-0.0504 0.13695,-0.0349 0.16666,0.031 0.19121,0.43539 0.62272,0.74158 1.12917,0.74158 0.22221,0 0.42634,-0.0659 0.60463,-0.17054 l 0.59429,0.82556 c 0.0775,0.10852 0.20284,0.17183 0.33591,0.17183 h 0.64985 c 0.10981,0 0.21446,-0.0439 0.29198,-0.12145 l 0.58525,-0.51419 c 0.11499,-0.11757 0.15116,-0.29198 0.0917,-0.44443 z m -2.34876,-1.40177 c -0.17183,0 -0.31007,-0.13823 -0.31007,-0.31006 0,-0.17183 0.13824,-0.31007 0.31007,-0.31007 0.17183,0 0.31007,0.13824 0.31007,0.31007 0,0.17183 -0.13824,0.31006 -0.31007,0.31006 z"
       stroke-linecap="round"
       id="path857" />
  </g>
</svg>
