<?xml version="1.0" encoding="UTF-8" standalone="no"?>
<svg
   xmlns:dc="http://purl.org/dc/elements/1.1/"
   xmlns:cc="http://creativecommons.org/ns#"
   xmlns:rdf="http://www.w3.org/1999/02/22-rdf-syntax-ns#"
   xmlns:svg="http://www.w3.org/2000/svg"
   xmlns="http://www.w3.org/2000/svg"
   xmlns:sodipodi="http://sodipodi.sourceforge.net/DTD/sodipodi-0.dtd"
   xmlns:inkscape="http://www.inkscape.org/namespaces/inkscape"
   width="25"
   height="25"
   viewBox="0 0 6.6145832 6.6145835"
   version="1.1"
   id="svg862"
   inkscape:version="1.0 (4035a4fb49, 2020-05-01)"
   sodipodi:docname="review-deposit.svg">
  <defs
     id="defs856" />
  <sodipodi:namedview
     id="base"
     pagecolor="#ffffff"
     bordercolor="#666666"
     borderopacity="1.0"
     inkscape:pageopacity="0.0"
     inkscape:pageshadow="2"
     inkscape:zoom="15.839192"
     inkscape:cx="8.2393913"
     inkscape:cy="16.931384"
     inkscape:document-units="mm"
     inkscape:current-layer="layer1"
     inkscape:document-rotation="0"
     showgrid="false"
     units="px"
     inkscape:window-width="1895"
     inkscape:window-height="1030"
     inkscape:window-x="7"
     inkscape:window-y="0"
     inkscape:window-maximized="0" />
  <metadata
     id="metadata859">
    <rdf:RDF>
      <cc:Work
         rdf:about="">
        <dc:format>image/svg+xml</dc:format>
        <dc:type
           rdf:resource="http://purl.org/dc/dcmitype/StillImage" />
        <dc:title></dc:title>
      </cc:Work>
    </rdf:RDF>
  </metadata>
  <g
     inkscape:label="Слой 1"
     inkscape:groupmode="layer"
     id="layer1">
    <path
       style="opacity:1;fill:#ffffff;fill-rule:nonzero;stroke:none;stroke-width:0.330728;stroke-linecap:butt;stroke-linejoin:miter;stroke-miterlimit:4;stroke-dasharray:none;stroke-dashoffset:0;fill-opacity:1"
       d="m 3.9687517,3.9687527 v 0.661459 h 0.99219 v 0.992187 h 0.66146 v -0.992187 h 0.99218 v -0.661459 h -0.99218 v -0.992187 h -0.66146 v 0.992187 m -1.00211,-1.121171 c -0.0397,-0.43987 -0.45641,-0.873125 -0.98227,-0.863204 -0.56224,0.0099 -0.99219,0.429948 -0.99219,0.992188 0,0.56224 0.42995,0.972344 0.99219,0.992187 0.12568,0 0.25466,-0.02646 0.37703,-0.07607 0.0893,-0.363802 0.23813,-0.707761 0.60524,-1.045104 m -0.65154,1.451901 h -1.98437 c 0,-0.363803 -0.29435,-0.661459 -0.66146003,-0.661459 v -1.322916 c 0.36711003,0 0.66146003,-0.294349 0.66146003,-0.661459 h 3.30729 c 0,0.36711 0.29765,0.661459 0.66146,0.661459 v 0.01984 c 0.22159,0 0.44317,0.03969 0.66145,0.112448 V 0.99218467 H 1.6666667e-6 V 4.9609347 H 3.4131217 c -0.0728,-0.221589 -0.10583,-0.443177 -0.10583,-0.661458 z"
       stroke-linecap="round"
       id="path1469" />
  </g>
</svg>
