<?xml version="1.0" encoding="UTF-8"?>
<svg xmlns="http://www.w3.org/2000/svg" width="16" height="16" viewBox="0 0 16 16" fill="none">
  <rect width="16" height="16" rx="4" fill="white"/>
  <path d="M2.92847 11.066V5.91622H4.2782V6.5807H4.31973C4.5343 6.36613 4.76272 6.1827 5.00498 6.03042C5.24723 5.87123 5.53795 5.79163 5.87711 5.79163C6.24396 5.79163 6.53813 5.86776 6.75962 6.02004C6.98804 6.1654 7.168 6.37651 7.29952 6.65338C7.52793 6.41804 7.77019 6.21731 8.02629 6.05119C8.2824 5.87815 8.58003 5.79163 8.91919 5.79163C9.47293 5.79163 9.87785 5.97851 10.134 6.35228C10.397 6.71913 10.5285 7.22442 10.5285 7.86813V11.066H9.00225V8.0654C9.00225 7.69163 8.95034 7.43553 8.84652 7.29709C8.74961 7.15866 8.59041 7.08944 8.36892 7.08944C8.11282 7.08944 7.81864 7.25556 7.4864 7.58781V11.066H5.96017V8.0654C5.96017 7.69163 5.90826 7.43553 5.80443 7.29709C5.70753 7.15866 5.54833 7.08944 5.32683 7.08944C5.07073 7.08944 4.78002 7.25556 4.4547 7.58781V11.066H2.92847Z" fill="#0A0A0A"/>
  <path d="M12.7863 11.049C12.5087 11.049 12.2749 10.954 12.0849 10.7641C11.9023 10.5668 11.811 10.3257 11.811 10.0407C11.811 9.7485 11.9023 9.50739 12.0849 9.31743C12.2749 9.12016 12.5087 9.02153 12.7863 9.02153C13.064 9.02153 13.2941 9.12016 13.4768 9.31743C13.6667 9.50739 13.7617 9.7485 13.7617 10.0407C13.7617 10.3257 13.6667 10.5668 13.4768 10.7641C13.2941 10.954 13.064 11.049 12.7863 11.049Z" fill="#0A0A0A"/>
</svg>