<?xml version="1.0" encoding="UTF-8" standalone="no"?>
<svg
   xmlns:dc="http://purl.org/dc/elements/1.1/"
   xmlns:cc="http://creativecommons.org/ns#"
   xmlns:rdf="http://www.w3.org/1999/02/22-rdf-syntax-ns#"
   xmlns:svg="http://www.w3.org/2000/svg"
   xmlns="http://www.w3.org/2000/svg"
   xmlns:sodipodi="http://sodipodi.sourceforge.net/DTD/sodipodi-0.dtd"
   xmlns:inkscape="http://www.inkscape.org/namespaces/inkscape"
   width="1200"
   height="630"
   viewBox="0 0 1200 630"
   fill="none"
   version="1.1"
   id="svg26"
   sodipodi:docname="preview-default.svg"
   inkscape:version="1.0 (4035a4fb49, 2020-05-01)">
  <metadata
     id="metadata32">
    <rdf:RDF>
      <cc:Work
         rdf:about="">
        <dc:format>image/svg+xml</dc:format>
        <dc:type
           rdf:resource="http://purl.org/dc/dcmitype/StillImage" />
        <dc:title></dc:title>
      </cc:Work>
    </rdf:RDF>
  </metadata>
  <defs
     id="defs30" />
  <sodipodi:namedview
     inkscape:document-rotation="0"
     pagecolor="#ffffff"
     bordercolor="#666666"
     borderopacity="1"
     objecttolerance="10"
     gridtolerance="10"
     guidetolerance="10"
     inkscape:pageopacity="0"
     inkscape:pageshadow="2"
     inkscape:window-width="3440"
     inkscape:window-height="1361"
     id="namedview28"
     showgrid="false"
     inkscape:zoom="0.97006212"
     inkscape:cx="202.5343"
     inkscape:cy="193.84777"
     inkscape:window-x="-9"
     inkscape:window-y="-9"
     inkscape:window-maximized="1"
     inkscape:current-layer="svg26" />
  <g
     id="g883"
     transform="matrix(3.8636364,0,0,3.8636364,424.20454,216.47727)">
    <path
       id="path2"
       fill="#000000"
       d="M 0.894497,24.9908 V 9.78474 H 4.90431 V 11.7468 H 5.02769 C 5.66515,11.1132 6.34373,10.5716 7.06344,10.122 7.78315,9.65189 8.6468,9.41685 9.6544,9.41685 c 1.0898,0 1.9638,0.22482 2.6218,0.67445 0.6786,0.4292 1.2132,1.0526 1.6039,1.8701 0.6786,-0.6949 1.3983,-1.2876 2.1592,-1.7781 0.7608,-0.51097 1.645,-0.76645 2.6526,-0.76645 1.6451,0 2.848,0.55184 3.6088,1.65545 0.7814,1.0833 1.1721,2.5753 1.1721,4.476 v 9.4425 h -4.5341 v -8.86 c 0,-1.1037 -0.1543,-1.8599 -0.4627,-2.2686 -0.2879,-0.4088 -0.7609,-0.6132 -1.4189,-0.6132 -0.7608,0 -1.6347,0.4905 -2.6218,1.4716 V 24.9908 H 9.90116 v -8.86 c 0,-1.1037 -0.15423,-1.8599 -0.46268,-2.2686 C 9.1506,13.4534 8.67765,13.249 8.01963,13.249 c -0.76084,0 -1.62449,0.4905 -2.59096,1.4716 v 10.2702 z" />
    <path
       id="path4"
       fill="#000000"
       d="m 32.1841,25.3586 c -1.8919,0 -3.4135,-0.7051 -4.5651,-2.1153 -1.1309,-1.4307 -1.6964,-3.3825 -1.6964,-5.8556 0,-1.6554 0.3084,-3.0759 0.9253,-4.2613 0.6169,-1.2059 1.4086,-2.1256 2.3751,-2.7592 0.987,-0.63355 2.0357,-0.95035 3.1461,-0.95035 1.4806,0 2.8069,0.62335 3.979,1.87005 h 0.1234 l 0.0503,-1.50216 h 3.8669 V 24.9908 h -4.0098 v -1.5023 h -0.1233 c -0.5347,0.5314 -1.1619,0.9811 -1.8816,1.349 -0.7197,0.3474 -1.4497,0.5211 -2.1899,0.5211 z m 1.1721,-3.6788 c 0.4935,0 0.9356,-0.1022 1.3263,-0.3066 0.4112,-0.2044 0.8019,-0.5621 1.1721,-1.073 v -6.2234 c -0.3907,-0.3679 -0.8123,-0.6234 -1.2647,-0.7665 -0.4318,-0.143 -0.8533,-0.2146 -1.2646,-0.2146 -0.7197,0 -1.3572,0.3475 -1.9124,1.0424 -0.5552,0.6744 -0.8328,1.7372 -0.8328,3.1883 0,1.492 0.2365,2.5957 0.7095,3.311 0.4935,0.6949 1.1823,1.0424 2.0666,1.0424 z" />
    <path
       id="path6"
       fill="#000000"
       d="m 49.6805,25.3586 c -1.8918,0 -3.249,-0.5416 -4.0715,-1.6248 -0.802,-1.0832 -1.203,-2.5037 -1.203,-4.2614 V 13.3103 H 42.3086 V 9.96869 l 2.3442,-0.18395 0.0511,-4.04676 h 4.2363 v 4.04676 h 3.6705 v 3.52556 h -3.6705 v 6.1008 c 0,0.8584 0.1748,1.4818 0.5244,1.8701 0.3701,0.3679 0.8533,0.5519 1.4497,0.5519 0.2467,0 0.4935,-0.0307 0.7402,-0.092 0.2674,-0.0613 0.5038,-0.1329 0.7095,-0.2146 l 0.7094,3.2803 c -0.3907,0.1226 -0.8739,0.2453 -1.4497,0.3679 -0.5552,0.1226 -1.203,0.1839 -1.9432,0.1839 z" />
    <path
       id="path8"
       fill="#000000"
       d="m 61.1003,25.3586 c -1.4189,0 -2.7041,-0.3065 -3.8556,-0.9197 -1.131,-0.6336 -2.0358,-1.5431 -2.7144,-2.7285 -0.658,-1.2058 -0.987,-2.6467 -0.987,-4.3227 0,-1.6963 0.3701,-3.1372 1.1104,-4.3226 0.7403,-1.1854 1.717,-2.0847 2.9303,-2.6979 1.2132,-0.63355 2.5189,-0.95035 3.9172,-0.95035 0.9459,0 1.7787,0.15329 2.4985,0.45986 0.7402,0.30659 1.3982,0.69489 1.974,1.16499 l -2.1283,2.9124 c -0.7197,-0.5927 -1.4085,-0.889 -2.0666,-0.889 -1.0898,0 -1.9637,0.3883 -2.6218,1.1649 -0.6374,0.7767 -0.9561,1.8293 -0.9561,3.1577 0,1.3081 0.3187,2.3607 0.9561,3.1577 0.6581,0.7767 1.4806,1.165 2.4676,1.165 0.4935,0 0.9768,-0.1022 1.4497,-0.3065 0.473,-0.2249 0.9048,-0.4906 1.2955,-0.7971 l 1.789,2.9431 c -0.7608,0.654 -1.5834,1.1241 -2.4676,1.4102 -0.8842,0.2657 -1.7479,0.3985 -2.5909,0.3985 z" />
    <path
       id="path10"
       fill="#000000"
       d="M 68.2191,24.9908 V 3.5 h 4.5342 v 5.27305 2.29925 c 0.5758,-0.5109 1.0281,-0.5518 1.789,-0.981 0.7814,-0.44963 1.6862,-0.67445 2.7143,-0.67445 1.6656,0 2.8686,0.55184 3.6088,1.65545 0.7609,1.0833 1.1413,2.5753 1.1413,4.476 v 9.4425 h -4.5342 v -8.86 c 0,-1.1037 -0.1542,-1.8599 -0.4626,-2.2686 C 76.722,13.4534 76.249,13.249 75.591,13.249 c -0.5758,0 -1.0693,0.1329 -1.4805,0.3986 -0.4113,0.2452 -0.8637,0.6029 -1.3572,1.073 v 10.2702 z" />
    <path
       id="path12"
       fill="#000000"
       d="m 88.1023,25.3791 c -0.8248,0 -1.5194,-0.2805 -2.0837,-0.8414 -0.5427,-0.5825 -0.814,-1.2944 -0.814,-2.1358 0,-0.8629 0.2713,-1.5749 0.814,-2.1358 0.5643,-0.5825 1.2589,-0.8737 2.0837,-0.8737 0.8248,0 1.5086,0.2912 2.0512,0.8737 C 90.7178,20.827 91,21.539 91,22.4019 c 0,0.8414 -0.2822,1.5533 -0.8465,2.1358 -0.5426,0.5609 -1.2264,0.8414 -2.0512,0.8414 z" />
    <path
       id="path14"
       fill="#000000"
       d="M 7.55696,47.5 C 6.1381,47.5 4.8529,47.1934 3.70137,46.5803 2.57039,45.9467 1.66561,45.0372 0.987031,43.8518 0.32901,42.6459 0,41.205 0,39.5291 0,37.8327 0.370137,36.3918 1.11041,35.2064 1.85068,34.021 2.82743,33.1217 4.04066,32.5086 5.25388,31.875 6.55964,31.5582 7.95794,31.5582 c 0.9459,0 1.77871,0.1533 2.49846,0.4599 0.7402,0.3066 1.3983,0.6949 1.974,1.165 l -2.1283,2.9124 C 9.58242,35.5028 8.89356,35.2064 8.23554,35.2064 c -1.08985,0 -1.96378,0.3884 -2.6218,1.165 -0.63746,0.7767 -0.95619,1.8292 -0.95619,3.1577 0,1.3081 0.31873,2.3606 0.95619,3.1577 0.65802,0.7767 1.48055,1.165 2.46758,1.165 0.49351,0 0.97675,-0.1022 1.4497,-0.3066 0.47298,-0.2248 0.90478,-0.4905 1.29548,-0.7971 l 1.789,2.9431 c -0.7608,0.654 -1.5834,1.1241 -2.4676,1.4103 C 9.2637,47.3672 8.40005,47.5 7.55696,47.5 Z" />
    <path
       id="path16"
       fill="#000000"
       d="m 20.6498,47.5 c -1.46,0 -2.776,-0.3168 -3.9481,-0.9504 -1.1721,-0.6336 -2.0975,-1.5431 -2.776,-2.7285 -0.6786,-1.1854 -1.0179,-2.6161 -1.0179,-4.292 0,-1.6555 0.3393,-3.0759 1.0179,-4.2614 0.6991,-1.1854 1.6039,-2.0949 2.7143,-2.7284 1.1104,-0.6541 2.2722,-0.9811 3.4855,-0.9811 1.4599,0 2.6629,0.327 3.6088,0.9811 0.9665,0.6335 1.6862,1.5022 2.1591,2.6058 0.4935,1.0832 0.7403,2.3198 0.7403,3.7096 0,0.3883 -0.0206,0.7766 -0.0617,1.1649 -0.0411,0.3679 -0.0822,0.6438 -0.1234,0.8278 h -9.1609 c 0.2057,1.1036 0.6683,1.9212 1.3881,2.4526 0.7197,0.5109 1.5833,0.7664 2.5909,0.7664 1.0899,0 2.19,-0.3372 3.3004,-1.0117 l 1.5114,2.7285 c -0.7814,0.5314 -1.6553,0.9504 -2.6218,1.2569 C 22.4902,47.3467 21.5546,47.5 20.6498,47.5 Z m -3.3929,-9.6264 h 5.5212 c 0,-0.8379 -0.2056,-1.5226 -0.6169,-2.054 -0.3907,-0.5519 -1.0384,-0.8278 -1.9432,-0.8278 -0.6992,0 -1.3263,0.2453 -1.8815,0.7358 -0.5552,0.4701 -0.9151,1.1854 -1.0796,2.146 z" />
    <path
       id="path18"
       fill="#000000"
       d="m 29.1499,47.1321 v -15.206 h 4.0099 v 1.9314 h 0.1233 c 0.6581,-0.6131 1.3778,-1.1445 2.1592,-1.5942 0.8019,-0.47 1.717,-0.7051 2.7452,-0.7051 1.6656,0 2.8685,0.5519 3.6088,1.6555 0.7608,1.0832 1.1412,2.5752 1.1412,4.476 v 9.4424 h -4.5341 v -8.8599 c 0,-1.1037 -0.1543,-1.8599 -0.4627,-2.2687 -0.2879,-0.4087 -0.7608,-0.6131 -1.4189,-0.6131 -0.5757,0 -1.0693,0.1328 -1.4805,0.3985 -0.4113,0.2453 -0.8637,0.603 -1.3572,1.073 v 10.2702 z" />
    <path
       id="path20"
       fill="#000000"
       d="m 52.0758,47.5 c -1.8918,0 -3.249,-0.5416 -4.0715,-1.6248 -0.802,-1.0833 -1.203,-2.5037 -1.203,-4.2614 v -6.1621 h -2.0974 v -3.3416 l 2.3442,-0.184 v -4.0468 h 4.2874 v 4.0468 h 3.6705 v 3.5256 h -3.6705 v 6.1008 c 0,0.8584 0.1748,1.4818 0.5244,1.8701 0.3701,0.3679 0.8533,0.5518 1.4497,0.5518 0.2467,0 0.4935,-0.0306 0.7402,-0.092 0.2673,-0.0613 0.5038,-0.1328 0.7095,-0.2146 l 0.7094,3.2804 C 55.078,47.0708 54.5947,47.1934 54.019,47.3161 53.4638,47.4387 52.816,47.5 52.0758,47.5 Z" />
    <path
       id="path22"
       fill="#000000"
       d="m 64.2228,47.5 c -1.46,0 -2.776,-0.3168 -3.9481,-0.9504 -1.1721,-0.6336 -2.0975,-1.5431 -2.7761,-2.7285 -0.6785,-1.1854 -1.0178,-2.6161 -1.0178,-4.292 0,-1.6555 0.3393,-3.0759 1.0178,-4.2614 0.6992,-1.1854 1.604,-2.0949 2.7144,-2.7284 1.1104,-0.6541 2.2722,-0.9811 3.4854,-0.9811 1.46,0 2.663,0.327 3.6089,0.9811 0.9664,0.6335 1.6861,1.5022 2.1591,2.6058 0.4935,1.0832 0.7403,2.3198 0.7403,3.7096 0,0.3883 -0.0206,0.7766 -0.0617,1.1649 -0.0411,0.3679 -0.0823,0.6438 -0.1234,0.8278 h -9.1609 c 0.2057,1.1036 0.6683,1.9212 1.388,2.4526 0.7197,0.5109 1.5834,0.7664 2.591,0.7664 1.0898,0 2.19,-0.3372 3.3004,-1.0117 l 1.5114,2.7285 c -0.7814,0.5314 -1.6554,0.9504 -2.6218,1.2569 C 66.0632,47.3467 65.1276,47.5 64.2228,47.5 Z m -3.3929,-9.6264 h 5.5212 c 0,-0.8379 -0.2057,-1.5226 -0.6169,-2.054 -0.3907,-0.5519 -1.0384,-0.8278 -1.9432,-0.8278 -0.6992,0 -1.3264,0.2453 -1.8816,0.7358 -0.5552,0.4701 -0.915,1.1854 -1.0795,2.146 z" />
    <path
       id="path24"
       fill="#000000"
       d="m 72.7229,47.1321 v -15.206 h 4.0098 v 2.6672 h 0.1234 c 0.5552,-1.0219 1.2235,-1.7781 2.0049,-2.2686 0.7814,-0.511 1.5628,-0.7665 2.3442,-0.7665 0.4318,0 0.7917,0.0307 1.0796,0.092 0.2879,0.0409 0.5346,0.1124 0.7403,0.2146 l -0.7403,3.8935 c -0.2673,-0.0818 -0.5347,-0.1431 -0.802,-0.184 -0.2467,-0.0409 -0.5346,-0.0613 -0.8636,-0.0613 -0.5758,0 -1.1824,0.2146 -1.8199,0.6438 -0.6169,0.4088 -1.1309,1.1241 -1.5422,2.146 v 8.8293 z" />
  </g>
</svg>
