<svg width="24" height="24" viewBox="0 0 24 24" fill="none" xmlns="http://www.w3.org/2000/svg">
<path d="M10.5683 2.48791C10.7887 1.89788 11.3694 1.49414 11.9999 1.49414C12.6304 1.49414 13.2111 1.89787 13.4316 2.48788L15.4907 7.67322L15.4964 7.68806L15.4978 7.69003C15.4999 7.69272 15.5033 7.69635 15.5081 7.69991C15.5129 7.70346 15.5174 7.70571 15.5206 7.70689C15.5217 7.70728 15.5224 7.7075 15.5228 7.70761C15.6827 7.71696 17.066 7.80606 18.4052 7.89254L21.0568 8.06403L21.0579 8.0641C22.4936 8.15732 22.9839 9.95425 21.9394 10.8231L21.9385 10.8239L17.6997 14.3593C17.697 14.3615 17.6878 14.3712 17.6816 14.3901C17.6756 14.4081 17.6769 14.421 17.6777 14.4251L19.0455 19.8026C19.3767 21.1098 17.9652 22.287 16.7373 21.5125L16.7354 21.5113L12.0104 18.5113C12.0065 18.5088 12.0025 18.5065 11.9994 18.5048L11.9887 18.5118L7.59321 21.2953L7.59226 21.2959C6.24528 22.152 4.68966 20.8499 5.05752 19.4086L6.322 14.4257C6.32287 14.4216 6.32424 14.4082 6.31826 14.3901C6.31203 14.3712 6.30286 14.3615 6.30013 14.3593L6.29767 14.3572L2.06138 10.8239L2.06042 10.8231C1.01592 9.95425 1.50628 8.15732 2.94195 8.0641L8.49747 7.70415L10.5683 2.48791Z" fill="#EDFF6A"/>
<path d="M10.5683 2.48791C10.7887 1.89788 11.3694 1.49414 11.9999 1.49414C12.6304 1.49414 13.2111 1.89787 13.4316 2.48788L15.4907 7.67322L15.4964 7.68806L15.4978 7.69003C15.4999 7.69272 15.5033 7.69635 15.5081 7.69991C15.5129 7.70346 15.5174 7.70571 15.5206 7.70689C15.5236 7.70803 15.5241 7.70768 15.5216 7.70754C15.6757 7.7165 17.0626 7.80584 18.4052 7.89254L21.0568 8.06403L21.0579 8.0641C22.4936 8.15732 22.9839 9.95425 21.9394 10.8231L21.9385 10.8239L17.6997 14.3593C17.697 14.3615 17.6878 14.3712 17.6816 14.3901C17.6756 14.4081 17.6769 14.421 17.6777 14.4251L19.0455 19.8026C19.3767 21.1098 17.9652 22.287 16.7373 21.5125L16.7354 21.5113L12.0104 18.5113C12.0065 18.5088 12.0025 18.5065 11.9994 18.5048L11.9887 18.5118L7.59321 21.2953L7.59226 21.2959C6.24528 22.152 4.68966 20.8499 5.05752 19.4086L6.322 14.4257C6.32287 14.4216 6.32424 14.4082 6.31826 14.3901C6.31203 14.3712 6.30286 14.3615 6.30013 14.3593L6.29767 14.3572L2.06138 10.8239L2.06042 10.8231C1.01592 9.95425 1.50628 8.15732 2.94195 8.0641L8.49747 7.70415L10.5683 2.48791ZM20.9607 9.56095L18.3085 9.38942C16.9609 9.30239 15.5822 9.2136 15.4345 9.20501C14.8388 9.17034 14.3051 8.77788 14.094 8.22021L12.0341 3.03308C12.0314 3.02631 12.0289 3.0195 12.0264 3.01265C12.0274 3.01561 12.0285 3.01536 12.0264 3.01265C12.0241 3.00981 12.0196 3.00581 12.0141 3.00196C12.0087 2.99812 12.0036 2.99583 12.0002 2.9947C11.9967 2.99582 11.9912 2.99812 11.9857 3.00196C11.9802 3.00581 11.9763 3.00977 11.9741 3.01262C11.972 3.01532 11.973 3.01558 11.9741 3.01262C11.9716 3.01944 11.9684 3.02626 11.9658 3.03301L9.89162 8.25762C9.67778 8.79627 9.17278 9.16354 8.59445 9.20101L3.03915 9.56095C3.02813 9.56167 3.02364 9.56359 3.02364 9.56359L3.02206 9.56463C3.01934 9.56693 3.01011 9.57669 3.00389 9.59679C2.99766 9.61694 2.99859 9.63438 3.00125 9.6445C3.00243 9.64894 3.00392 9.65216 3.00566 9.65492C3.00724 9.65742 3.01095 9.66264 3.01973 9.66993L3.02094 9.67094L7.25598 13.2033L7.25747 13.2045C7.71556 13.5843 7.92117 14.2093 7.77785 14.7869L7.7769 14.7907L6.51095 19.7795C6.48385 19.8855 6.52123 19.9677 6.58974 20.0197C6.6248 20.0464 6.66022 20.0578 6.6882 20.0598C6.71135 20.0614 6.7434 20.0581 6.7879 20.0298L6.7893 20.0289L11.1785 17.2494C11.7403 16.8768 12.3614 16.9569 12.8149 17.2453L17.5376 20.2438C17.5461 20.2491 17.5532 20.2517 17.5532 20.2517C17.5552 20.2513 17.5617 20.2495 17.5706 20.2427C17.582 20.2341 17.5892 20.2234 17.5925 20.2146C17.594 20.2107 17.595 20.2064 17.5953 20.2011C17.5955 20.196 17.5954 20.1867 17.5918 20.1721L16.222 14.7869C16.0787 14.2093 16.2843 13.5843 16.7424 13.2045L16.7439 13.2033L20.9789 9.67094L20.9801 9.66993C20.9889 9.66264 20.9926 9.65742 20.9942 9.65491C20.9959 9.65216 20.9974 9.64894 20.9986 9.64449C21.0013 9.63438 21.0022 9.61694 20.996 9.59678C20.9897 9.57669 20.9805 9.56693 20.9778 9.56463L20.9762 9.56359C20.9762 9.56359 20.9718 9.56167 20.9607 9.56095Z" fill="#0A0A0A"/>
</svg>
