<?xml version="1.0" encoding="UTF-8" standalone="no"?>
<svg
   xmlns:dc="http://purl.org/dc/elements/1.1/"
   xmlns:cc="http://creativecommons.org/ns#"
   xmlns:rdf="http://www.w3.org/1999/02/22-rdf-syntax-ns#"
   xmlns:svg="http://www.w3.org/2000/svg"
   xmlns="http://www.w3.org/2000/svg"
   xmlns:sodipodi="http://sodipodi.sourceforge.net/DTD/sodipodi-0.dtd"
   xmlns:inkscape="http://www.inkscape.org/namespaces/inkscape"
   sodipodi:docname="close.svg"
   inkscape:version="1.0 (4035a4fb49, 2020-05-01)"
   id="svg858"
   version="1.1"
   viewBox="0 0 5.8208334 5.8208335"
   height="22"
   width="22">
  <defs
     id="defs852" />
  <sodipodi:namedview
     inkscape:window-maximized="0"
     inkscape:window-y="0"
     inkscape:window-x="7"
     inkscape:window-height="1030"
     inkscape:window-width="1895"
     units="px"
     showgrid="false"
     inkscape:document-rotation="0"
     inkscape:current-layer="layer1"
     inkscape:document-units="mm"
     inkscape:cy="19.204687"
     inkscape:cx="32.583842"
     inkscape:zoom="7.9195959"
     inkscape:pageshadow="2"
     inkscape:pageopacity="0.0"
     borderopacity="1.0"
     bordercolor="#666666"
     pagecolor="#ffffff"
     id="base" />
  <metadata
     id="metadata855">
    <rdf:RDF>
      <cc:Work
         rdf:about="">
        <dc:format>image/svg+xml</dc:format>
        <dc:type
           rdf:resource="http://purl.org/dc/dcmitype/StillImage" />
        <dc:title></dc:title>
      </cc:Work>
    </rdf:RDF>
  </metadata>
  <g
     id="layer1"
     inkscape:groupmode="layer"
     inkscape:label="Слой 1">
    <path
       style="opacity:1;fill:#ffffff;fill-rule:nonzero;stroke:none;stroke-width:0.330728;stroke-linecap:butt;stroke-linejoin:miter;stroke-miterlimit:4;stroke-dasharray:none;stroke-dashoffset:0;fill-opacity:1"
       d="M 3.3734377,2.910417 5.7216146,0.56224004 c 0.1322917,-0.132292 0.1322917,-0.33073 0,-0.463021 -0.1322917,-0.132292 -0.3307292,-0.132292 -0.4630208,0 L 2.9104168,2.447396 0.56223957,0.09921904 c -0.1322917,-0.132292 -0.3307292,-0.132292 -0.4630208,0 -0.1322917,0.132291 -0.1322917,0.330729 0,0.463021 L 2.4473959,2.910417 0.09921877,5.258594 c -0.1322917,0.132291 -0.1322917,0.330729 0,0.463021 0.1322916,0.132291 0.3307291,0.132291 0.4630208,0 L 2.9104168,3.373438 5.2585938,5.721615 c 0.1322916,0.132291 0.3307291,0.132291 0.4630208,0 0.1322917,-0.132292 0.1322917,-0.33073 0,-0.463021 z"
       stroke-linecap="round"
       id="path10" />
  </g>
</svg>
