<svg width="91" height="45" viewBox="0 0 91 45" fill="none" xmlns="http://www.w3.org/2000/svg">
<path d="M0.894497 21.9908V6.78474H4.90431V8.74681H5.02769C5.66515 8.11322 6.34373 7.57161 7.06344 7.12197C7.78315 6.65189 8.6468 6.41685 9.6544 6.41685C10.7442 6.41685 11.6182 6.64167 12.2762 7.09131C12.9548 7.52051 13.4894 8.14388 13.8801 8.96141C14.5587 8.26651 15.2784 7.6738 16.0393 7.18329C16.8001 6.67233 17.6843 6.41685 18.6919 6.41685C20.337 6.41685 21.5399 6.96869 22.3007 8.07235C23.0821 9.15557 23.4728 10.6476 23.4728 12.5483V21.9908H18.9387V13.1308C18.9387 12.0271 18.7844 11.2709 18.476 10.8622C18.1881 10.4534 17.7151 10.249 17.0571 10.249C16.2963 10.249 15.4224 10.7395 14.4353 11.7206V21.9908H9.90116V13.1308C9.90116 12.0271 9.74693 11.2709 9.43848 10.8622C9.1506 10.4534 8.67765 10.249 8.01963 10.249C7.25879 10.249 6.39514 10.7395 5.42867 11.7206V21.9908H0.894497Z" fill="black"/>
<path d="M32.1841 22.3586C30.2922 22.3586 28.7706 21.6535 27.619 20.2433C26.4881 18.8126 25.9226 16.8608 25.9226 14.3877C25.9226 12.7323 26.231 11.3118 26.8479 10.1264C27.4648 8.92053 28.2565 8.00081 29.223 7.36723C30.21 6.73365 31.2587 6.41685 32.3691 6.41685C33.8497 6.41685 35.176 7.04022 36.3481 8.28695H36.4715L36.5218 6.78474H40.3887V21.9908H36.3789V20.4885H36.2556C35.7209 21.0199 35.0937 21.4696 34.374 21.8375C33.6543 22.1849 32.9243 22.3586 32.1841 22.3586ZM33.3562 18.6798C33.8497 18.6798 34.2918 18.5776 34.6825 18.3732C35.0937 18.1688 35.4844 17.8111 35.8546 17.3002V11.0768C35.4639 10.7089 35.0423 10.4534 34.5899 10.3103C34.1581 10.1673 33.7366 10.0957 33.3253 10.0957C32.6056 10.0957 31.9681 10.4432 31.4129 11.1381C30.8577 11.8125 30.5801 12.8753 30.5801 14.3264C30.5801 15.8184 30.8166 16.9221 31.2896 17.6374C31.7831 18.3323 32.4719 18.6798 33.3562 18.6798Z" fill="black"/>
<path d="M49.6805 22.3586C47.7887 22.3586 46.4315 21.817 45.609 20.7338C44.807 19.6506 44.406 18.2301 44.406 16.4724V10.3103H42.3086V6.96869L44.6528 6.78474L44.7039 2.73798H48.9402V6.78474H52.6107V10.3103H48.9402V16.4111C48.9402 17.2695 49.115 17.8929 49.4646 18.2812C49.8347 18.6491 50.3179 18.8331 50.9143 18.8331C51.161 18.8331 51.4078 18.8024 51.6545 18.7411C51.9219 18.6798 52.1583 18.6082 52.364 18.5265L53.0734 21.8068C52.6827 21.9294 52.1995 22.0521 51.6237 22.1747C51.0685 22.2973 50.4207 22.3586 49.6805 22.3586Z" fill="black"/>
<path d="M61.1003 22.3586C59.6814 22.3586 58.3962 22.0521 57.2447 21.4389C56.1137 20.8053 55.2089 19.8958 54.5303 18.7104C53.8723 17.5046 53.5433 16.0637 53.5433 14.3877C53.5433 12.6914 53.9134 11.2505 54.6537 10.0651C55.394 8.87966 56.3707 7.98037 57.584 7.36723C58.7972 6.73365 60.1029 6.41685 61.5012 6.41685C62.4471 6.41685 63.2799 6.57014 63.9997 6.87671C64.7399 7.18329 65.3979 7.57161 65.9737 8.04169L63.8454 10.9541C63.1257 10.3614 62.4369 10.0651 61.7788 10.0651C60.689 10.0651 59.8151 10.4534 59.157 11.23C58.5196 12.0067 58.2009 13.0593 58.2009 14.3877C58.2009 15.6958 58.5196 16.7484 59.157 17.5454C59.8151 18.3221 60.6376 18.7104 61.6246 18.7104C62.1181 18.7104 62.6014 18.6082 63.0743 18.4039C63.5473 18.179 63.9791 17.9133 64.3698 17.6068L66.1588 20.5499C65.398 21.2039 64.5754 21.674 63.6912 21.9601C62.807 22.2258 61.9433 22.3586 61.1003 22.3586Z" fill="black"/>
<path d="M68.2191 21.9908V0.5H72.7533V5.77305V8.07235C73.3291 7.56139 73.7814 7.52051 74.5423 7.09131C75.3237 6.64167 76.2285 6.41685 77.2566 6.41685C78.9222 6.41685 80.1252 6.96869 80.8654 8.07235C81.6263 9.15557 82.0067 10.6476 82.0067 12.5483V21.9908H77.4725V13.1308C77.4725 12.0271 77.3183 11.2709 77.0099 10.8622C76.722 10.4534 76.249 10.249 75.591 10.249C75.0152 10.249 74.5217 10.3819 74.1105 10.6476C73.6992 10.8928 73.2468 11.2505 72.7533 11.7206V21.9908H68.2191Z" fill="black"/>
<path d="M88.1023 22.3791C87.2775 22.3791 86.5829 22.0986 86.0186 21.5377C85.4759 20.9552 85.2046 20.2433 85.2046 19.4019C85.2046 18.539 85.4759 17.827 86.0186 17.2661C86.5829 16.6836 87.2775 16.3924 88.1023 16.3924C88.9271 16.3924 89.6109 16.6836 90.1535 17.2661C90.7178 17.827 91 18.539 91 19.4019C91 20.2433 90.7178 20.9552 90.1535 21.5377C89.6109 22.0986 88.9271 22.3791 88.1023 22.3791Z" fill="black"/>
<path d="M7.55696 44.5C6.1381 44.5 4.8529 44.1934 3.70137 43.5803C2.57039 42.9467 1.66561 42.0372 0.987031 40.8518C0.32901 39.6459 0 38.205 0 36.5291C0 34.8327 0.370137 33.3918 1.11041 32.2064C1.85068 31.021 2.82743 30.1217 4.04066 29.5086C5.25388 28.875 6.55964 28.5582 7.95794 28.5582C8.90384 28.5582 9.73665 28.7115 10.4564 29.0181C11.1966 29.3247 11.8547 29.713 12.4304 30.1831L10.3021 33.0955C9.58242 32.5028 8.89356 32.2064 8.23554 32.2064C7.14569 32.2064 6.27176 32.5948 5.61374 33.3714C4.97628 34.1481 4.65755 35.2006 4.65755 36.5291C4.65755 37.8372 4.97628 38.8897 5.61374 39.6868C6.27176 40.4635 7.09429 40.8518 8.08132 40.8518C8.57483 40.8518 9.05807 40.7496 9.53102 40.5452C10.004 40.3204 10.4358 40.0547 10.8265 39.7481L12.6155 42.6912C11.8547 43.3452 11.0321 43.8153 10.1479 44.1015C9.2637 44.3672 8.40005 44.5 7.55696 44.5Z" fill="black"/>
<path d="M20.6498 44.5C19.1898 44.5 17.8738 44.1832 16.7017 43.5496C15.5296 42.916 14.6042 42.0065 13.9257 40.8211C13.2471 39.6357 12.9078 38.205 12.9078 36.5291C12.9078 34.8736 13.2471 33.4532 13.9257 32.2677C14.6248 31.0823 15.5296 30.1728 16.64 29.5393C17.7504 28.8852 18.9122 28.5582 20.1255 28.5582C21.5854 28.5582 22.7884 28.8852 23.7343 29.5393C24.7008 30.1728 25.4205 31.0415 25.8934 32.1451C26.3869 33.2283 26.6337 34.4649 26.6337 35.8547C26.6337 36.243 26.6131 36.6313 26.572 37.0196C26.5309 37.3875 26.4898 37.6634 26.4486 37.8474H17.2877C17.4934 38.951 17.956 39.7686 18.6758 40.3C19.3955 40.8109 20.2591 41.0664 21.2667 41.0664C22.3566 41.0664 23.4567 40.7292 24.5671 40.0547L26.0785 42.7832C25.2971 43.3146 24.4232 43.7336 23.4567 44.0401C22.4902 44.3467 21.5546 44.5 20.6498 44.5ZM17.2569 34.8736H22.7781C22.7781 34.0357 22.5725 33.351 22.1612 32.8196C21.7705 32.2677 21.1228 31.9918 20.218 31.9918C19.5188 31.9918 18.8917 32.2371 18.3365 32.7276C17.7813 33.1977 17.4214 33.913 17.2569 34.8736Z" fill="black"/>
<path d="M29.1499 44.1321V28.9261H33.1598V30.8575H33.2831C33.9412 30.2444 34.6609 29.713 35.4423 29.2633C36.2442 28.7933 37.1593 28.5582 38.1875 28.5582C39.8531 28.5582 41.056 29.1101 41.7963 30.2137C42.5571 31.2969 42.9375 32.7889 42.9375 34.6897V44.1321H38.4034V35.2722C38.4034 34.1685 38.2491 33.4123 37.9407 33.0035C37.6528 32.5948 37.1799 32.3904 36.5218 32.3904C35.9461 32.3904 35.4525 32.5232 35.0413 32.7889C34.63 33.0342 34.1776 33.3919 33.6841 33.8619V44.1321H29.1499Z" fill="black"/>
<path d="M52.0758 44.5C50.184 44.5 48.8268 43.9584 48.0043 42.8752C47.2023 41.7919 46.8013 40.3715 46.8013 38.6138V32.4517H44.7039V29.1101L47.0481 28.9261V24.8793H51.3355V28.9261H55.006V32.4517H51.3355V38.5525C51.3355 39.4109 51.5103 40.0343 51.8599 40.4226C52.23 40.7905 52.7132 40.9744 53.3096 40.9744C53.5563 40.9744 53.8031 40.9438 54.0498 40.8824C54.3171 40.8211 54.5536 40.7496 54.7593 40.6678L55.4687 43.9482C55.078 44.0708 54.5947 44.1934 54.019 44.3161C53.4638 44.4387 52.816 44.5 52.0758 44.5Z" fill="black"/>
<path d="M64.2228 44.5C62.7628 44.5 61.4468 44.1832 60.2747 43.5496C59.1026 42.916 58.1772 42.0065 57.4986 40.8211C56.8201 39.6357 56.4808 38.205 56.4808 36.5291C56.4808 34.8736 56.8201 33.4532 57.4986 32.2677C58.1978 31.0823 59.1026 30.1728 60.213 29.5393C61.3234 28.8852 62.4852 28.5582 63.6984 28.5582C65.1584 28.5582 66.3614 28.8852 67.3073 29.5393C68.2737 30.1728 68.9934 31.0415 69.4664 32.1451C69.9599 33.2283 70.2067 34.4649 70.2067 35.8547C70.2067 36.243 70.1861 36.6313 70.145 37.0196C70.1039 37.3875 70.0627 37.6634 70.0216 37.8474H60.8607C61.0664 38.951 61.529 39.7686 62.2487 40.3C62.9684 40.8109 63.8321 41.0664 64.8397 41.0664C65.9295 41.0664 67.0297 40.7292 68.1401 40.0547L69.6515 42.7832C68.8701 43.3146 67.9961 43.7336 67.0297 44.0401C66.0632 44.3467 65.1276 44.5 64.2228 44.5ZM60.8299 34.8736H66.3511C66.3511 34.0357 66.1454 33.351 65.7342 32.8196C65.3435 32.2677 64.6958 31.9918 63.791 31.9918C63.0918 31.9918 62.4646 32.2371 61.9094 32.7276C61.3542 33.1977 60.9944 33.913 60.8299 34.8736Z" fill="black"/>
<path d="M72.7229 44.1321V28.9261H76.7327V31.5933H76.8561C77.4113 30.5714 78.0796 29.8152 78.861 29.3247C79.6424 28.8137 80.4238 28.5582 81.2052 28.5582C81.637 28.5582 81.9969 28.5889 82.2848 28.6502C82.5727 28.6911 82.8194 28.7626 83.0251 28.8648L82.2848 32.7583C82.0175 32.6765 81.7501 32.6152 81.4828 32.5743C81.2361 32.5334 80.9482 32.513 80.6192 32.513C80.0434 32.513 79.4368 32.7276 78.7993 33.1568C78.1824 33.5656 77.6684 34.2809 77.2571 35.3028V44.1321H72.7229Z" fill="black"/>
</svg>
