<svg width="26" height="26" viewBox="0 0 26 26" fill="none" xmlns="http://www.w3.org/2000/svg">
<path d="M13 2.00037C6.92487 2.00037 2 6.92523 2 13.0004C2 19.0755 6.92487 24.0004 13 24.0004C19.0751 24.0004 24 19.0755 24 13.0004C24 6.92523 19.0751 2.00037 13 2.00037ZM0 13.0004C0 5.82066 5.8203 0.000366211 13 0.000366211C20.1797 0.000366211 26 5.82066 26 13.0004C26 20.1801 20.1797 26.0004 13 26.0004C5.8203 26.0004 0 20.1801 0 13.0004ZM8.29289 8.29326C8.68342 7.90274 9.31658 7.90274 9.70711 8.29326L13 11.5862L16.2929 8.29326C16.6834 7.90274 17.3166 7.90274 17.7071 8.29326C18.0976 8.68378 18.0976 9.31695 17.7071 9.70747L14.4142 13.0004L17.7071 16.2933C18.0976 16.6838 18.0976 17.3169 17.7071 17.7075C17.3166 18.098 16.6834 18.098 16.2929 17.7075L13 14.4146L9.70711 17.7075C9.31658 18.098 8.68342 18.098 8.29289 17.7075C7.90237 17.3169 7.90237 16.6838 8.29289 16.2933L11.5858 13.0004L8.29289 9.70747C7.90237 9.31695 7.90237 8.68378 8.29289 8.29326Z" fill="#0A0A0A"/>
</svg>
