<svg width="48" height="48" viewBox="0 0 48 48" fill="none" xmlns="http://www.w3.org/2000/svg">
<path d="M4 33.4744V14.46H8.98362V16.9135H9.13696C9.92923 16.1212 10.7726 15.444 11.6671 14.8817C12.5616 14.2939 13.635 14 14.8873 14C16.2418 14 17.328 14.2811 18.1458 14.8434C18.9892 15.3801 19.6537 16.1596 20.1393 17.1818C20.9826 16.3129 21.8771 15.5718 22.8228 14.9584C23.7684 14.3195 24.8673 14 26.1196 14C28.1642 14 29.6593 14.69 30.6049 16.0701C31.576 17.4246 32.0616 19.2903 32.0616 21.6671V33.4744H26.4263V22.3955C26.4263 21.0154 26.2346 20.0698 25.8513 19.5587C25.4935 19.0475 24.9056 18.7919 24.0878 18.7919C23.1422 18.7919 22.056 19.4053 20.8293 20.632V33.4744H15.194V22.3955C15.194 21.0154 15.0023 20.0698 14.6189 19.5587C14.2611 19.0475 13.6733 18.7919 12.8555 18.7919C11.9099 18.7919 10.8365 19.4053 9.63532 20.632V33.4744H4Z" fill="black"/>
<path d="M40.3983 33.4119C39.3732 33.4119 38.5099 33.0612 37.8085 32.3598C37.1341 31.6314 36.7969 30.7411 36.7969 29.6891C36.7969 28.61 37.1341 27.7197 37.8085 27.0183C38.5099 26.29 39.3732 25.9258 40.3983 25.9258C41.4234 25.9258 42.2732 26.29 42.9476 27.0183C43.649 27.7197 43.9997 28.61 43.9997 29.6891C43.9997 30.7411 43.649 31.6314 42.9476 32.3598C42.2732 33.0612 41.4234 33.4119 40.3983 33.4119Z" fill="black"/>
</svg>
