<?xml version="1.0" encoding="UTF-8" standalone="no"?>
<svg
   xmlns:dc="http://purl.org/dc/elements/1.1/"
   xmlns:cc="http://creativecommons.org/ns#"
   xmlns:rdf="http://www.w3.org/1999/02/22-rdf-syntax-ns#"
   xmlns:svg="http://www.w3.org/2000/svg"
   xmlns="http://www.w3.org/2000/svg"
   xmlns:sodipodi="http://sodipodi.sourceforge.net/DTD/sodipodi-0.dtd"
   xmlns:inkscape="http://www.inkscape.org/namespaces/inkscape"
   sodipodi:docname="open.svg"
   inkscape:version="1.0 (4035a4fb49, 2020-05-01)"
   id="svg880"
   version="1.1"
   viewBox="0 0 5.8208332 5.8208335"
   height="22"
   width="22">
  <defs
     id="defs874" />
  <sodipodi:namedview
     inkscape:window-maximized="0"
     inkscape:window-y="0"
     inkscape:window-x="7"
     inkscape:window-height="1030"
     inkscape:window-width="1895"
     units="px"
     showgrid="false"
     inkscape:document-rotation="0"
     inkscape:current-layer="layer1"
     inkscape:document-units="mm"
     inkscape:cy="19.760314"
     inkscape:cx="43.305993"
     inkscape:zoom="5.6"
     inkscape:pageshadow="2"
     inkscape:pageopacity="0.0"
     borderopacity="1.0"
     bordercolor="#666666"
     pagecolor="#ffffff"
     id="base" />
  <metadata
     id="metadata877">
    <rdf:RDF>
      <cc:Work
         rdf:about="">
        <dc:format>image/svg+xml</dc:format>
        <dc:type
           rdf:resource="http://purl.org/dc/dcmitype/StillImage" />
        <dc:title></dc:title>
      </cc:Work>
    </rdf:RDF>
  </metadata>
  <g
     id="layer1"
     inkscape:groupmode="layer"
     inkscape:label="Слой 1">
    <g
       style="fill:#ffffff;fill-opacity:1"
       transform="matrix(0.24252868,0,0,0.24252868,2.9104167,2.9104167)"
       id="g26">
      <g
         style="fill:#ffffff;fill-opacity:1"
         id="g16">
        <path
           style="opacity:1;fill:#ffffff;fill-rule:nonzero;stroke:none;stroke-width:1;stroke-linecap:butt;stroke-linejoin:miter;stroke-miterlimit:4;stroke-dasharray:none;stroke-dashoffset:0;fill-opacity:1"
           vector-effect="non-scaling-stroke"
           transform="translate(-12,-12)"
           d="M 23,13 H 1 C 0.4,13 0,12.6 0,12 0,11.4 0.4,11 1,11 h 22 c 0.6,0 1,0.4 1,1 0,0.6 -0.4,1 -1,1 z"
           stroke-linecap="round"
           id="path14" />
      </g>
      <g
         style="fill:#ffffff;fill-opacity:1"
         transform="translate(0,-6.3)"
         id="g20">
        <path
           style="opacity:1;fill:#ffffff;fill-rule:nonzero;stroke:none;stroke-width:1;stroke-linecap:butt;stroke-linejoin:miter;stroke-miterlimit:4;stroke-dasharray:none;stroke-dashoffset:0;fill-opacity:1"
           vector-effect="non-scaling-stroke"
           transform="translate(-12,-5.7)"
           d="M 23,6.7 H 1 c -0.6,0 -1,-0.4 -1,-1 0,-0.6 0.4,-1 1,-1 h 22 c 0.6,0 1,0.4 1,1 0,0.6 -0.4,1 -1,1 z"
           stroke-linecap="round"
           id="path18" />
      </g>
      <g
         style="fill:#ffffff;fill-opacity:1"
         transform="translate(0,6.3)"
         id="g24">
        <path
           style="opacity:1;fill:#ffffff;fill-rule:nonzero;stroke:none;stroke-width:1;stroke-linecap:butt;stroke-linejoin:miter;stroke-miterlimit:4;stroke-dasharray:none;stroke-dashoffset:0;fill-opacity:1"
           vector-effect="non-scaling-stroke"
           transform="translate(-12,-18.3)"
           d="M 23,19.3 H 1 c -0.6,0 -1,-0.4 -1,-1 0,-0.6 0.4,-1 1,-1 h 22 c 0.6,0 1,0.4 1,1 0,0.6 -0.4,1 -1,1 z"
           stroke-linecap="round"
           id="path22" />
      </g>
    </g>
  </g>
</svg>
