<?xml version="1.0" encoding="UTF-8" standalone="no"?>
<svg
   width="16"
   height="16"
   viewBox="0 0 16 16"
   fill="none"
   version="1.1"
   id="svg1"
   sodipodi:docname="twitter.svg"
   inkscape:version="1.3.2 (091e20e, 2023-11-25, custom)"
   xmlns:inkscape="http://www.inkscape.org/namespaces/inkscape"
   xmlns:sodipodi="http://sodipodi.sourceforge.net/DTD/sodipodi-0.dtd"
   xmlns="http://www.w3.org/2000/svg"
   xmlns:svg="http://www.w3.org/2000/svg">
  <defs
     id="defs1" />
  <sodipodi:namedview
     id="namedview1"
     pagecolor="#ffffff"
     bordercolor="#000000"
     borderopacity="0.25"
     inkscape:showpageshadow="2"
     inkscape:pageopacity="0.0"
     inkscape:pagecheckerboard="0"
     inkscape:deskcolor="#d1d1d1"
     inkscape:zoom="10.6875"
     inkscape:cx="35.134503"
     inkscape:cy="11.181287"
     inkscape:window-width="1920"
     inkscape:window-height="1111"
     inkscape:window-x="-9"
     inkscape:window-y="-9"
     inkscape:window-maximized="1"
     inkscape:current-layer="svg1" />
  <path
     d="m 5.03344,14.499686 c 6.03624,0 9.33872,-5.0021594 9.33872,-9.3387594 0,-0.140624 -0.0031,-0.284376 -0.0094,-0.425 0.64248,-0.4646 1.19688,-1.040072 1.6372,-1.699376 -0.59832,0.2662 -1.2336,0.440056 -1.88408,0.515624 0.68496,-0.410552 1.19776,-1.055504 1.44344,-1.815312 -0.64432,0.381864 -1.34896,0.651232 -2.08376,0.796568 -0.49504,-0.52604 -1.1496,-0.874336 -1.86248,-0.99104 -0.71288,-0.116712 -1.44432,0.00466 -2.08128,0.34536 -0.63696,0.340696 -1.144,0.881736 -1.44264,1.53948 -0.2986,0.657736 -0.372248,1.395536 -0.209512,2.09932 C 6.574992,5.4610786 5.298624,5.1221586 4.13332,4.5317506 2.968016,3.9413506 1.939792,3.1126466 1.115312,2.0993666 0.6962664,2.8218466 0.5680376,3.6767826 0.7566872,4.4904146 0.945336,5.3040466 1.436712,6.0153186 2.130936,6.4796786 1.609752,6.4631266 1.099984,6.3228066 0.6437504,6.0703026 v 0.040624 c -4.672e-4,0.758192 0.2616496,1.493152 0.7417856,2.07996 0.480144,0.5868 1.14868,0.9892 1.89196,1.1388 -0.482792,0.13208 -0.989504,0.15136 -1.480936,0.05624 0.209744,0.6520794 0.617824,1.2223194 1.167288,1.6312794 0.549464,0.40896 1.212896,0.63624 1.897712,0.65 -1.162608,0.9132 -2.598776,1.40856 -4.0771848,1.40624 -0.262184,-4e-4 -0.5241088,-0.01648 -0.7843752,-0.04816 1.501904,0.9636 3.249024,1.47536 5.03344,1.4744 z"
     fill="#c8c8c8"
     id="path1"
     style="stroke-width:0.8" />
</svg>
