<?xml version="1.0" encoding="UTF-8" standalone="no"?>
<svg
   xmlns:dc="http://purl.org/dc/elements/1.1/"
   xmlns:cc="http://creativecommons.org/ns#"
   xmlns:rdf="http://www.w3.org/1999/02/22-rdf-syntax-ns#"
   xmlns:svg="http://www.w3.org/2000/svg"
   xmlns="http://www.w3.org/2000/svg"
   xmlns:sodipodi="http://sodipodi.sourceforge.net/DTD/sodipodi-0.dtd"
   xmlns:inkscape="http://www.inkscape.org/namespaces/inkscape"
   inkscape:version="1.0 (4035a4fb49, 2020-05-01)"
   height="25"
   width="25"
   sodipodi:docname="link-twitter.svg"
   id="svg4"
   version="1.1"
   viewBox="0 48.082 25 25.000001">
  <metadata
     id="metadata10">
    <rdf:RDF>
      <cc:Work
         rdf:about="">
        <dc:format>image/svg+xml</dc:format>
        <dc:type
           rdf:resource="http://purl.org/dc/dcmitype/StillImage" />
        <dc:title></dc:title>
      </cc:Work>
    </rdf:RDF>
  </metadata>
  <defs
     id="defs8" />
  <sodipodi:namedview
     inkscape:current-layer="svg4"
     inkscape:window-maximized="1"
     inkscape:window-y="-9"
     inkscape:window-x="-9"
     inkscape:cy="32.946078"
     inkscape:cx="44.275569"
     inkscape:zoom="13.958472"
     showgrid="false"
     id="namedview6"
     inkscape:window-height="1361"
     inkscape:window-width="3440"
     inkscape:pageshadow="2"
     inkscape:pageopacity="0"
     guidetolerance="10"
     gridtolerance="10"
     objecttolerance="10"
     borderopacity="1"
     bordercolor="#666666"
     pagecolor="#ffffff" />
  <path
     style="fill:#1d9bf0;fill-opacity:1;stroke-width:0.0488283"
     id="path2"
     fill="#5997e3ff"
     d="m 22.430264,55.489965 c 0.01587,0.222071 0.01587,0.444191 0.01587,0.666263 0,6.773463 -5.15544,14.578084 -14.5780852,14.578084 -2.902942,0 -5.5996322,-0.840775 -7.8680493,-2.300107 0.41245279,0.04756 0.80898755,0.06343 1.2373096,0.06343 2.395273,0 4.6002621,-0.808988 6.36106,-2.189071 -2.2525479,-0.04761 -4.1402506,-1.522858 -4.7906437,-3.553334 0.3172864,0.04756 0.6345239,0.07929 0.9676795,0.07929 0.4600116,0 0.920072,-0.06348 1.3483452,-0.174463 C 2.7760368,62.184132 1.01519,60.121965 1.01519,57.631477 v -0.06343 c 0.6820828,0.380714 1.4752988,0.618655 2.3159759,0.650344 -1.3800835,-0.920071 -2.2842375,-2.490488 -2.2842375,-4.267155 0,-0.951763 0.2537608,-1.824227 0.6979519,-2.585656 2.5222268,3.109144 6.3135014,5.139572 10.5647397,5.361692 -0.07929,-0.380715 -0.126906,-0.77725 -0.126906,-1.173833 0,-2.823644 2.284286,-5.123751 5.123752,-5.123751 1.475248,0 2.807724,0.618655 3.743666,1.618024 1.157963,-0.222072 2.268368,-0.650393 3.251916,-1.23731 -0.380763,1.189751 -1.189751,2.18912 -2.252547,2.823596 C 23.080609,53.523012 24.079977,53.237414 25,52.84088 c -0.697854,1.015189 -1.570366,1.919344 -2.569736,2.649083 z" />
</svg>
