<?xml version="1.0" encoding="UTF-8" standalone="no"?>
<svg
   width="16"
   height="16"
   viewBox="0 0 16 16"
   fill="none"
   version="1.1"
   id="svg1"
   sodipodi:docname="facebook.svg"
   inkscape:version="1.3.2 (091e20e, 2023-11-25, custom)"
   xmlns:inkscape="http://www.inkscape.org/namespaces/inkscape"
   xmlns:sodipodi="http://sodipodi.sourceforge.net/DTD/sodipodi-0.dtd"
   xmlns="http://www.w3.org/2000/svg"
   xmlns:svg="http://www.w3.org/2000/svg">
  <sodipodi:namedview
     id="namedview1"
     pagecolor="#ffffff"
     bordercolor="#000000"
     borderopacity="0.25"
     inkscape:showpageshadow="2"
     inkscape:pageopacity="0.0"
     inkscape:pagecheckerboard="0"
     inkscape:deskcolor="#d1d1d1"
     inkscape:zoom="21.375"
     inkscape:cx="3.0175439"
     inkscape:cy="13.169591"
     inkscape:window-width="1920"
     inkscape:window-height="1111"
     inkscape:window-x="-9"
     inkscape:window-y="-9"
     inkscape:window-maximized="1"
     inkscape:current-layer="svg1" />
  <g
     clip-path="url(#clip0_5987_458)"
     id="g1"
     transform="scale(0.8)">
    <path
       d="M 20,10 C 20,4.47715 15.5229,0 10,0 4.47715,0 0,4.47715 0,10 c 0,4.9912 3.65684,9.1283 8.4375,9.8785 V 12.8906 H 5.89844 V 10 H 8.4375 V 7.79688 c 0,-2.50625 1.49297,-3.89063 3.7771,-3.89063 1.0938,0 2.2385,0.19531 2.2385,0.19531 V 6.5625 h -1.2609 c -1.2422,0 -1.6297,0.7709 -1.6297,1.5625 V 10 h 2.7734 l -0.4433,2.8906 h -2.3301 v 6.9879 C 16.3432,19.1283 20,14.9912 20,10 Z"
       fill="#c8c8c8"
       id="path1" />
  </g>
 
</svg>
