<svg width="512" height="474" viewBox="0 0 512 474" fill="none" xmlns="http://www.w3.org/2000/svg">
<mask id="path-1-inside-1_4760_5769" fill="white">
<path fill-rule="evenodd" clip-rule="evenodd" d="M140.433 113.227L72.7864 67.4198C70.5799 65.9257 68.0187 68.7437 69.7163 70.7978L114.847 125.405H73.9361C71.5502 125.405 70.7354 128.586 72.8274 129.733L120.238 155.732C119.353 158.568 118.876 161.585 118.876 164.713C118.876 168.599 119.611 172.313 120.951 175.723C105.862 179.884 94.7808 193.708 94.7808 210.12C94.7808 212.812 95.0789 215.434 95.644 217.956C85.2888 222.719 78.0995 233.186 78.0995 245.331C78.0995 254.839 82.5055 263.318 89.3871 268.838C84.1222 274.261 80.8807 281.659 80.8807 289.814C80.8807 306.448 94.3647 319.932 110.998 319.932C112.319 319.932 113.621 319.847 114.897 319.682L68.0512 372.137C66.2427 374.163 68.8114 377.104 71.0614 375.584L125.687 338.692L119.979 384.851C119.696 387.139 122.575 388.38 124.044 386.604L150.945 354.078L153.552 372.984C153.848 375.125 156.662 375.72 157.798 373.881L170.728 352.948C174.906 364.417 185.857 372.631 198.743 372.753C198.628 373.819 198.57 374.901 198.57 375.996C198.57 392.629 212.054 406.113 228.687 406.113C242.097 406.113 253.459 397.35 257.36 385.238C265.253 387.905 274.335 389.423 284 389.423C298.72 389.423 312.09 385.901 321.961 380.164C327.649 377.527 332.376 373.168 335.471 367.755C337.113 365.107 338.219 362.3 338.711 359.381C339.179 357.271 339.426 355.077 339.426 352.826C339.426 347.577 338.083 342.642 335.723 338.345C340.846 333.823 344.418 327.584 345.54 320.529C349.305 321.758 353.325 322.423 357.5 322.423C378.763 322.423 396 305.186 396 283.923C396 274.985 392.954 266.758 387.843 260.224C392.324 254.966 395.028 248.149 395.028 240.7C395.028 232.071 391.4 224.29 385.585 218.799C387.779 213.958 389 208.583 389 202.923C389 196.607 387.479 190.647 384.784 185.388L409.507 181.562C411.768 181.213 412.194 178.14 410.115 177.188L387.54 166.849L428.583 144.575C430.92 143.306 429.608 139.742 427.006 140.293L369.815 152.391C369.943 151.264 370.008 150.118 370.008 148.957C370.008 134.204 359.4 121.929 345.396 119.342C345.737 117.528 345.915 115.656 345.915 113.743C345.915 97.1092 332.431 83.6252 315.798 83.6252C305.121 83.6252 295.742 89.1807 290.394 97.5585C278.67 88.794 262.875 83.4231 245.5 83.4231C231.444 83.4231 218.423 86.9379 207.754 92.9208C202.404 84.5464 193.027 78.9937 182.354 78.9937C165.78 78.9937 152.333 92.3813 152.237 108.932C147.947 109.527 143.947 111.024 140.433 113.227Z"/>
</mask>
<path fill-rule="evenodd" clip-rule="evenodd" d="M140.433 113.227L72.7864 67.4198C70.5799 65.9257 68.0187 68.7437 69.7163 70.7978L114.847 125.405H73.9361C71.5502 125.405 70.7354 128.586 72.8274 129.733L120.238 155.732C119.353 158.568 118.876 161.585 118.876 164.713C118.876 168.599 119.611 172.313 120.951 175.723C105.862 179.884 94.7808 193.708 94.7808 210.12C94.7808 212.812 95.0789 215.434 95.644 217.956C85.2888 222.719 78.0995 233.186 78.0995 245.331C78.0995 254.839 82.5055 263.318 89.3871 268.838C84.1222 274.261 80.8807 281.659 80.8807 289.814C80.8807 306.448 94.3647 319.932 110.998 319.932C112.319 319.932 113.621 319.847 114.897 319.682L68.0512 372.137C66.2427 374.163 68.8114 377.104 71.0614 375.584L125.687 338.692L119.979 384.851C119.696 387.139 122.575 388.38 124.044 386.604L150.945 354.078L153.552 372.984C153.848 375.125 156.662 375.72 157.798 373.881L170.728 352.948C174.906 364.417 185.857 372.631 198.743 372.753C198.628 373.819 198.57 374.901 198.57 375.996C198.57 392.629 212.054 406.113 228.687 406.113C242.097 406.113 253.459 397.35 257.36 385.238C265.253 387.905 274.335 389.423 284 389.423C298.72 389.423 312.09 385.901 321.961 380.164C327.649 377.527 332.376 373.168 335.471 367.755C337.113 365.107 338.219 362.3 338.711 359.381C339.179 357.271 339.426 355.077 339.426 352.826C339.426 347.577 338.083 342.642 335.723 338.345C340.846 333.823 344.418 327.584 345.54 320.529C349.305 321.758 353.325 322.423 357.5 322.423C378.763 322.423 396 305.186 396 283.923C396 274.985 392.954 266.758 387.843 260.224C392.324 254.966 395.028 248.149 395.028 240.7C395.028 232.071 391.4 224.29 385.585 218.799C387.779 213.958 389 208.583 389 202.923C389 196.607 387.479 190.647 384.784 185.388L409.507 181.562C411.768 181.213 412.194 178.14 410.115 177.188L387.54 166.849L428.583 144.575C430.92 143.306 429.608 139.742 427.006 140.293L369.815 152.391C369.943 151.264 370.008 150.118 370.008 148.957C370.008 134.204 359.4 121.929 345.396 119.342C345.737 117.528 345.915 115.656 345.915 113.743C345.915 97.1092 332.431 83.6252 315.798 83.6252C305.121 83.6252 295.742 89.1807 290.394 97.5585C278.67 88.794 262.875 83.4231 245.5 83.4231C231.444 83.4231 218.423 86.9379 207.754 92.9208C202.404 84.5464 193.027 78.9937 182.354 78.9937C165.78 78.9937 152.333 92.3813 152.237 108.932C147.947 109.527 143.947 111.024 140.433 113.227Z" fill="#ACE2FF"/>
<path d="M72.7864 67.4198L75.372 63.6015V63.6015L72.7864 67.4198ZM140.433 113.227L137.847 117.045C139.36 118.069 141.334 118.104 142.882 117.134L140.433 113.227ZM69.7163 70.7978L66.1618 73.7355L66.1618 73.7355L69.7163 70.7978ZM114.847 125.405V130.017C116.633 130.017 118.258 128.986 119.019 127.37C119.78 125.754 119.539 123.844 118.401 122.468L114.847 125.405ZM72.8274 129.733L70.6101 133.776H70.6101L72.8274 129.733ZM120.238 155.732L124.64 157.105C125.293 155.01 124.38 152.744 122.455 151.689L120.238 155.732ZM120.951 175.723L122.177 180.168C123.438 179.821 124.491 178.955 125.076 177.785C125.661 176.616 125.721 175.253 125.243 174.036L120.951 175.723ZM95.644 217.956L97.5712 222.145C99.5473 221.236 100.619 219.07 100.144 216.947L95.644 217.956ZM89.3871 268.838L92.6957 272.05C93.6004 271.118 94.0702 269.848 93.9896 268.551C93.909 267.255 93.2855 266.053 92.2724 265.24L89.3871 268.838ZM114.897 319.682L118.336 322.753C119.619 321.317 119.874 319.235 118.976 317.531C118.078 315.827 116.216 314.861 114.306 315.108L114.897 319.682ZM68.0512 372.137L71.4907 375.209H71.4907L68.0512 372.137ZM71.0614 375.584L73.6423 379.406L73.6423 379.406L71.0614 375.584ZM125.687 338.692L130.264 339.258C130.486 337.463 129.639 335.705 128.097 334.76C126.556 333.815 124.605 333.858 123.106 334.87L125.687 338.692ZM119.979 384.851L124.556 385.417L119.979 384.851ZM124.044 386.604L127.598 389.542H127.598L124.044 386.604ZM150.945 354.078L155.513 353.448C155.263 351.636 153.965 350.143 152.206 349.643C150.446 349.143 148.557 349.73 147.391 351.139L150.945 354.078ZM153.552 372.984L148.984 373.614L153.552 372.984ZM157.798 373.881L161.721 376.304L157.798 373.881ZM170.728 352.948L175.06 351.369C174.456 349.709 172.955 348.54 171.197 348.36C169.439 348.181 167.733 349.021 166.804 350.525L170.728 352.948ZM198.743 372.753L203.328 373.244C203.466 371.951 203.052 370.659 202.187 369.687C201.322 368.716 200.087 368.154 198.786 368.142L198.743 372.753ZM257.36 385.238L258.836 380.869C257.667 380.474 256.388 380.565 255.285 381.12C254.183 381.675 253.349 382.65 252.971 383.824L257.36 385.238ZM321.961 380.164L320.022 375.981C319.893 376.04 319.767 376.106 319.644 376.177L321.961 380.164ZM335.471 367.755L331.552 365.326C331.523 365.372 331.495 365.419 331.468 365.466L335.471 367.755ZM338.711 359.381L334.209 358.382C334.192 358.459 334.176 358.537 334.163 358.615L338.711 359.381ZM335.723 338.345L332.671 334.888C331.054 336.316 330.643 338.675 331.681 340.566L335.723 338.345ZM345.54 320.529L346.971 316.146C345.688 315.727 344.286 315.891 343.135 316.595C341.983 317.299 341.198 318.472 340.986 319.805L345.54 320.529ZM387.843 260.224L384.334 257.233C382.912 258.901 382.861 261.339 384.211 263.065L387.843 260.224ZM385.585 218.799L381.385 216.895C380.572 218.688 380.987 220.8 382.419 222.151L385.585 218.799ZM384.784 185.388L384.079 180.83C382.615 181.057 381.349 181.972 380.676 183.292C380.003 184.611 380.005 186.173 380.68 187.491L384.784 185.388ZM409.507 181.562L410.212 186.12L409.507 181.562ZM410.115 177.188L408.195 181.38H408.195L410.115 177.188ZM387.54 166.849L385.34 162.796C383.805 163.63 382.872 165.26 382.931 167.006C382.99 168.752 384.031 170.315 385.62 171.042L387.54 166.849ZM428.583 144.575L426.383 140.522L426.383 140.522L428.583 144.575ZM427.006 140.293L427.96 144.804L427.006 140.293ZM369.815 152.391L365.233 151.871C365.066 153.343 365.617 154.807 366.713 155.803C367.81 156.8 369.319 157.209 370.769 156.902L369.815 152.391ZM345.396 119.342L340.864 118.49C340.637 119.694 340.9 120.939 341.593 121.95C342.286 122.961 343.353 123.654 344.558 123.877L345.396 119.342ZM290.394 97.5585L287.633 101.252C288.66 102.02 289.96 102.325 291.221 102.095C292.482 101.865 293.591 101.12 294.281 100.04L290.394 97.5585ZM207.754 92.9208L203.867 95.4031C205.183 97.4629 207.877 98.1384 210.009 96.9429L207.754 92.9208ZM152.237 108.932L152.869 113.5C155.14 113.186 156.835 111.251 156.848 108.959L152.237 108.932ZM70.2008 71.2381L137.847 117.045L143.018 109.408L75.372 63.6015L70.2008 71.2381ZM73.2709 67.8601C73.5846 68.2397 73.8156 68.8367 73.7704 69.5048C73.7298 70.1043 73.4827 70.5685 73.1999 70.8797C72.9171 71.1908 72.4786 71.4811 71.8856 71.5786C71.2248 71.6873 70.6086 71.5142 70.2008 71.2381L75.372 63.6015C68.7524 59.119 61.0691 67.5733 66.1618 73.7355L73.2709 67.8601ZM118.401 122.468L73.2709 67.8601L66.1618 73.7355L111.292 128.343L118.401 122.468ZM73.9361 130.017H114.847V120.794H73.9361V130.017ZM75.0447 125.689C77.1368 126.837 76.322 130.017 73.9361 130.017V120.794C66.7783 120.794 64.3341 130.334 70.6101 133.776L75.0447 125.689ZM122.455 151.689L75.0447 125.689L70.6101 133.776L118.02 159.775L122.455 151.689ZM123.487 164.713C123.487 162.056 123.892 159.502 124.64 157.105L115.835 154.358C114.813 157.634 114.264 161.114 114.264 164.713H123.487ZM125.243 174.036C124.111 171.155 123.487 168.012 123.487 164.713H114.264C114.264 169.185 115.112 173.471 116.659 177.409L125.243 174.036ZM99.3922 210.12C99.3922 195.836 109.037 183.792 122.177 180.168L119.725 171.277C102.688 175.976 90.1694 191.58 90.1694 210.12H99.3922ZM100.144 216.947C99.6524 214.754 99.3922 212.47 99.3922 210.12H90.1694C90.1694 213.153 90.5055 216.114 91.1442 218.964L100.144 216.947ZM82.7109 245.331C82.7109 235.052 88.7913 226.184 97.5712 222.145L93.7168 213.766C81.7864 219.255 73.4882 231.319 73.4882 245.331H82.7109ZM92.2724 265.24C86.435 260.558 82.7109 253.381 82.7109 245.331H73.4882C73.4882 256.297 78.576 266.078 86.5018 272.435L92.2724 265.24ZM85.492 289.814C85.492 282.906 88.2325 276.647 92.6957 272.05L86.0785 265.625C80.0119 271.874 76.2693 280.412 76.2693 289.814H85.492ZM110.998 315.32C96.9115 315.32 85.492 303.901 85.492 289.814H76.2693C76.2693 308.995 91.8179 324.543 110.998 324.543V315.32ZM114.306 315.108C113.225 315.248 112.121 315.32 110.998 315.32V324.543C112.517 324.543 114.016 324.445 115.488 324.255L114.306 315.108ZM71.4907 375.209L118.336 322.753L111.457 316.61L64.6117 369.066L71.4907 375.209ZM68.4805 371.763C68.8891 371.487 69.5168 371.311 70.1916 371.431C70.794 371.537 71.2313 371.84 71.5075 372.157C71.7838 372.473 72.0251 372.947 72.0498 373.558C72.0774 374.243 71.8191 374.841 71.4907 375.209L64.6117 369.066C59.1862 375.141 66.8923 383.964 73.6423 379.406L68.4805 371.763ZM123.106 334.87L68.4805 371.763L73.6423 379.406L128.268 342.513L123.106 334.87ZM124.556 385.417L130.264 339.258L121.111 338.126L115.403 384.285L124.556 385.417ZM120.491 383.665C121.96 381.888 124.839 383.129 124.556 385.417L115.403 384.285C114.554 391.148 123.19 394.872 127.598 389.542L120.491 383.665ZM147.391 351.139L120.491 383.665L127.598 389.542L154.498 357.017L147.391 351.139ZM158.121 372.354L155.513 353.448L146.377 354.709L148.984 373.614L158.121 372.354ZM153.875 371.457C155.011 369.618 157.825 370.213 158.121 372.354L148.984 373.614C149.87 380.038 158.314 381.821 161.721 376.304L153.875 371.457ZM166.804 350.525L153.875 371.457L161.721 376.304L174.651 355.371L166.804 350.525ZM198.786 368.142C187.882 368.039 178.602 361.089 175.06 351.369L166.395 354.526C171.211 367.745 183.832 377.224 198.699 377.365L198.786 368.142ZM203.181 375.996C203.181 375.065 203.231 374.147 203.328 373.244L194.157 372.262C194.026 373.491 193.959 374.736 193.959 375.996H203.181ZM228.687 401.502C214.601 401.502 203.181 390.083 203.181 375.996H193.959C193.959 395.176 209.507 410.725 228.687 410.725V401.502ZM252.971 383.824C249.666 394.087 240.036 401.502 228.687 401.502V410.725C244.157 410.725 257.253 400.614 261.749 386.652L252.971 383.824ZM284 384.812C274.808 384.812 266.226 383.366 258.836 380.869L255.884 389.607C264.279 392.443 273.862 394.034 284 394.034V384.812ZM319.644 376.177C310.579 381.446 298.033 384.812 284 384.812V394.034C299.408 394.034 313.602 390.356 324.278 384.151L319.644 376.177ZM331.468 365.466C328.845 370.053 324.837 373.748 320.022 375.981L323.901 384.348C330.461 381.307 335.906 376.283 339.474 370.045L331.468 365.466ZM334.163 358.615C333.781 360.885 332.911 363.133 331.552 365.326L339.39 370.185C341.314 367.082 342.657 363.715 343.258 360.146L334.163 358.615ZM334.815 352.826C334.815 354.739 334.605 356.597 334.209 358.382L343.212 360.38C343.753 357.944 344.037 355.415 344.037 352.826H334.815ZM331.681 340.566C333.677 344.199 334.815 348.373 334.815 352.826H344.037C344.037 346.781 342.489 341.085 339.765 336.125L331.681 340.566ZM340.986 319.805C340.037 325.768 337.017 331.051 332.671 334.888L338.775 341.802C344.674 336.594 348.798 329.4 350.094 321.254L340.986 319.805ZM357.5 317.812C353.817 317.812 350.28 317.226 346.971 316.146L344.109 324.913C348.33 326.291 352.833 327.034 357.5 327.034V317.812ZM391.389 283.923C391.389 302.639 376.216 317.812 357.5 317.812V327.034C381.31 327.034 400.611 307.733 400.611 283.923H391.389ZM384.211 263.065C388.71 268.817 391.389 276.051 391.389 283.923H400.611C400.611 273.919 397.198 264.699 391.476 257.383L384.211 263.065ZM390.417 240.7C390.417 247.012 388.13 252.778 384.334 257.233L391.353 263.215C396.518 257.154 399.64 249.286 399.64 240.7H390.417ZM382.419 222.151C387.349 226.807 390.417 233.392 390.417 240.7H399.64C399.64 230.75 395.45 221.772 388.751 215.446L382.419 222.151ZM384.389 202.923C384.389 207.914 383.313 212.641 381.385 216.895L389.785 220.702C392.244 215.276 393.611 209.253 393.611 202.923H384.389ZM380.68 187.491C383.05 192.114 384.389 197.356 384.389 202.923H393.611C393.611 195.859 391.909 189.179 388.888 183.284L380.68 187.491ZM408.802 177.005L384.079 180.83L385.489 189.945L410.212 186.12L408.802 177.005ZM408.195 181.38C406.115 180.428 406.542 177.355 408.802 177.005L410.212 186.12C416.994 185.07 418.274 175.852 412.035 172.995L408.195 181.38ZM385.62 171.042L408.195 181.38L412.035 172.995L389.46 162.657L385.62 171.042ZM426.383 140.522L385.34 162.796L389.739 170.902L430.782 148.628L426.383 140.522ZM427.96 144.804C427.478 144.906 426.843 144.834 426.273 144.486C425.762 144.173 425.464 143.74 425.319 143.345C425.174 142.951 425.119 142.428 425.306 141.858C425.514 141.223 425.95 140.757 426.383 140.522L430.782 148.628C437.795 144.822 433.857 134.13 426.051 135.781L427.96 144.804ZM370.769 156.902L427.96 144.804L426.051 135.781L368.86 147.879L370.769 156.902ZM365.397 148.957C365.397 149.944 365.341 150.916 365.233 151.871L374.397 152.911C374.544 151.612 374.62 150.292 374.62 148.957H365.397ZM344.558 123.877C356.416 126.067 365.397 136.468 365.397 148.957H374.62C374.62 131.94 362.385 117.79 346.233 114.807L344.558 123.877ZM341.304 113.743C341.304 115.369 341.152 116.955 340.864 118.49L349.928 120.194C350.321 118.1 350.527 115.943 350.527 113.743H341.304ZM315.798 88.2366C329.885 88.2366 341.304 99.656 341.304 113.743H350.527C350.527 94.5624 334.978 79.0138 315.798 79.0138V88.2366ZM294.281 100.04C298.818 92.9329 306.761 88.2366 315.798 88.2366V79.0138C303.482 79.0138 292.667 85.4284 286.507 95.0772L294.281 100.04ZM245.5 88.0345C261.945 88.0345 276.757 93.1215 287.633 101.252L293.155 93.8651C280.583 84.4665 263.805 78.8117 245.5 78.8117V88.0345ZM210.009 96.9429C219.964 91.3606 232.205 88.0345 245.5 88.0345V78.8117C230.684 78.8117 216.882 82.5152 205.498 88.8987L210.009 96.9429ZM182.354 83.6051C191.388 83.6051 199.33 88.299 203.867 95.4031L211.64 90.4385C205.479 80.7937 194.667 74.3823 182.354 74.3823V83.6051ZM156.848 108.959C156.929 94.9429 168.318 83.6051 182.354 83.6051V74.3823C163.242 74.3823 147.736 89.8197 147.625 108.906L156.848 108.959ZM142.882 117.134C145.857 115.269 149.241 114.003 152.869 113.5L151.604 104.365C146.654 105.05 142.036 106.779 137.984 109.319L142.882 117.134Z" fill="black" mask="url(#path-1-inside-1_4760_5769)"/>
<path d="M156.373 304.436L143.13 332.589" stroke="black" stroke-width="4.61137" stroke-linecap="round"/>
<path d="M172.369 312.566L169.583 331.197" stroke="black" stroke-width="4.61137" stroke-linecap="round"/>
<path d="M137.383 296.719L127.202 309.043" stroke="black" stroke-width="4.61137" stroke-linecap="round"/>
<rect x="3.61236" y="1.10441" width="144.576" height="56.8956" rx="28.4478" transform="matrix(0.951057 -0.309017 0.615662 0.788011 41.4969 187.581)" fill="black" stroke="black" stroke-width="4.61137"/>
<rect x="3.61236" y="1.10441" width="144.576" height="56.8956" rx="28.4478" transform="matrix(0.951057 -0.309017 0.615662 0.788011 43.4593 177.108)" fill="#CFFABB" stroke="black" stroke-width="4.61137"/>
<path fill-rule="evenodd" clip-rule="evenodd" d="M221.739 348.43C223.162 350.797 226.431 351.987 229.042 351.088L311.622 322.654C325.086 318.017 335.445 311.973 342.7 304.521C349.954 297.068 354.053 288.853 354.998 279.873C356.003 270.873 353.742 261.775 348.217 252.58C343.448 244.643 337.372 238.411 329.989 233.885C322.572 229.304 314.601 226.467 306.074 225.373C297.514 224.225 289.166 224.886 281.032 227.357L280.045 225.715C286.441 221.927 291.306 217.411 294.641 212.167C297.942 206.868 299.543 201.164 299.443 195.055C299.403 188.925 297.525 182.768 293.809 176.582C288.678 168.043 281.746 161.479 273.013 156.889C264.34 152.278 254.137 149.912 242.405 149.79C230.732 149.647 217.832 152.008 203.704 156.873L140.502 178.635L134.123 166.276L125.123 185.698L125.325 185.64C125.055 186.641 125.208 187.775 125.855 188.851L221.739 348.43ZM276.314 290.814L252.766 298.923L231.454 263.453L255.726 255.096C260.858 253.329 265.663 252.533 270.141 252.709C274.679 252.864 278.767 253.966 282.404 256.017C286.041 258.068 289.043 261.064 291.411 265.005C294.799 270.643 295.251 275.64 292.767 279.996C290.251 284.298 284.767 287.904 276.314 290.814ZM235.133 228.099L214.483 235.209L195.145 203.024L216.518 195.665C222.798 193.502 228.829 193.11 234.612 194.488C240.362 195.811 244.8 199.073 247.924 204.273C249.996 207.721 250.79 210.982 250.305 214.056C249.847 217.054 248.306 219.765 245.681 222.188C243.056 224.611 239.54 226.581 235.133 228.099Z" fill="black"/>
<path d="M304.128 195.964L304.131 195.959L304.135 195.953C307.488 190.572 309.126 184.754 309.025 178.519C308.983 172.238 307.054 165.947 303.283 159.671C298.104 151.051 291.051 144.345 282.115 139.647C273.228 134.924 262.868 132.554 251.137 132.432C239.436 132.289 226.627 134.655 212.731 139.44L139.242 164.744C135.587 166.002 134.237 169.709 136.229 173.023L229.34 327.986C231.331 331.3 235.908 332.966 239.564 331.707L319.746 304.098C333.049 299.518 343.39 293.51 350.673 286.027C357.932 278.571 362.088 270.289 363.046 261.188C364.064 252.058 361.761 242.841 356.198 233.582C351.405 225.606 345.242 219.254 337.676 214.615C330.148 209.966 322.032 207.075 313.362 205.962C306.853 205.089 300.474 205.25 294.237 206.432C298.345 203.352 301.648 199.864 304.128 195.964ZM278.568 236.191L278.581 236.191C282.62 236.329 286.165 237.302 289.29 239.064C292.385 240.809 295.027 243.403 297.17 246.968C300.203 252.016 300.504 256.256 298.421 259.916C296.252 263.618 291.384 266.937 283.348 269.704L262.337 276.938L243.67 245.872L265.385 238.395C270.192 236.739 274.58 236.034 278.568 236.191ZM256.947 196.285L256.946 196.293C256.559 198.833 255.251 201.181 252.915 203.337C250.571 205.501 247.387 207.302 243.297 208.71L225.105 214.974L208.358 187.101L227.254 180.595C233.045 178.601 238.442 178.291 243.51 179.498L243.52 179.501L243.53 179.503C248.352 180.613 252.118 183.313 254.876 187.903C256.709 190.954 257.351 193.727 256.947 196.285Z" fill="#FFC700" stroke="black" stroke-width="4"/>
<rect x="3.61236" y="1.10441" width="144.576" height="56.8956" rx="28.4478" transform="matrix(0.951057 -0.309017 0.615662 0.788011 288.52 246.938)" fill="black" stroke="black" stroke-width="4.61137"/>
<rect x="3.61236" y="1.10441" width="144.576" height="56.8956" rx="28.4478" transform="matrix(0.951057 -0.309017 0.615662 0.788011 290.482 236.464)" fill="#CFFABB" stroke="black" stroke-width="4.61137"/>
<path d="M268.377 157.669C266.664 158.019 265.808 158.194 265.404 158.649C265.051 159.046 264.888 159.576 264.958 160.103C265.037 160.707 265.648 161.332 266.869 162.582L304.977 201.594C306.112 202.756 306.679 203.337 307.257 203.44C307.762 203.529 308.28 203.403 308.688 203.093C309.154 202.736 309.393 201.96 309.869 200.408L314.495 185.335L336.429 192.067C337.409 192.367 337.898 192.518 338.331 192.442C338.711 192.375 339.061 192.19 339.33 191.912C339.635 191.597 339.785 191.107 340.086 190.127L344.441 175.938C344.741 174.958 344.892 174.468 344.816 174.036C344.749 173.655 344.564 173.306 344.286 173.037C343.971 172.732 343.481 172.581 342.501 172.281L320.567 165.549L325.193 150.477C325.669 148.924 325.907 148.148 325.721 147.591C325.558 147.106 325.199 146.71 324.731 146.502C324.195 146.263 323.4 146.425 321.808 146.75L268.377 157.669Z" fill="black" stroke="black" stroke-width="4.61137" stroke-linecap="round" stroke-linejoin="round"/>
<path d="M266.907 147.451C265.195 147.801 264.339 147.976 263.934 148.431C263.581 148.828 263.419 149.359 263.488 149.885C263.567 150.489 264.178 151.114 265.399 152.364L303.507 191.376C304.642 192.538 305.21 193.119 305.787 193.222C306.292 193.311 306.811 193.186 307.218 192.875C307.685 192.519 307.923 191.742 308.399 190.19L313.025 175.117L334.959 181.849C335.939 182.15 336.429 182.3 336.861 182.224C337.242 182.157 337.591 181.972 337.86 181.694C338.165 181.379 338.316 180.889 338.616 179.91L342.971 165.72C343.272 164.74 343.422 164.251 343.346 163.818C343.279 163.438 343.094 163.088 342.816 162.819C342.501 162.514 342.011 162.363 341.032 162.063L319.097 155.331L323.723 140.259C324.199 138.706 324.438 137.93 324.251 137.373C324.088 136.888 323.729 136.492 323.262 136.284C322.725 136.045 321.93 136.207 320.339 136.532L266.907 147.451Z" fill="white" stroke="black" stroke-width="4.61137" stroke-linecap="round" stroke-linejoin="round"/>
</svg>
