<svg width="512" height="474" viewBox="0 0 512 474" fill="none" xmlns="http://www.w3.org/2000/svg">
<ellipse cx="254.775" cy="386.32" rx="107.847" ry="33.153" fill="black"/>
<path fill-rule="evenodd" clip-rule="evenodd" d="M189.95 55.7492L190.193 55.6973L190.222 55.8377L247.532 74.4589L246.841 87.6517C255.135 87.3248 265.736 89.8015 277.17 98.6934C284.114 104.093 289.315 108.521 293.555 112.131C305.183 122.03 309.58 125.773 322.847 126.516C327.354 126.769 332.068 126.246 336.62 125.294L337.984 121.204L360.352 116.411L359.589 116.914C359.899 116.746 360.191 116.583 360.466 116.427L392.342 186.419C366.958 201.43 312.947 238.756 299.98 267.97C283.771 304.489 283.883 361.32 300.337 393.847L222.461 368.543C220.647 341.72 221.151 280.004 237.679 247.728C254.206 215.451 287.053 185.339 301.411 174.318C296.27 176.569 282.919 177.721 270.64 164.32C261.399 154.234 250.555 154.672 243.19 157.325L241.261 194.125L240.772 193.966L219.751 203.088L218.385 186.692L183.519 175.363L188.848 73.679L165.827 60.89L189.785 55.7841L189.79 55.6973L189.95 55.7492Z" fill="black"/>
<path d="M300.037 393.618L280.065 403.204L266.484 389.623V374.844L300.037 393.618Z" fill="black"/>
<path fill-rule="evenodd" clip-rule="evenodd" d="M224.768 81.6483L167.025 62.8867L160.754 182.553L218.496 201.314L220.425 164.514C227.79 161.862 238.634 161.423 247.876 171.509C260.156 184.911 273.506 183.759 278.647 181.507C264.289 192.528 231.443 222.64 214.915 254.917C198.388 287.194 197.883 348.909 199.697 375.733L277.573 401.036C261.12 368.509 261.007 311.678 277.216 275.16C290.183 245.945 344.194 208.619 369.578 193.608L337.702 123.616C331.198 127.318 314.568 134.517 300.083 133.706C286.816 132.962 282.419 129.219 270.791 119.32C266.551 115.71 261.35 111.282 254.407 105.883C242.972 96.9906 232.37 94.514 224.076 94.841L224.768 81.6483Z" fill="#C7BFFF"/>
<path d="M167.025 62.8867L167.13 60.8895L165.228 60.2714L165.123 62.2687L167.025 62.8867ZM224.768 81.6483L226.67 82.2664L226.775 80.2691L224.872 79.6511L224.768 81.6483ZM160.754 182.553L158.852 181.934L158.747 183.932L160.649 184.55L160.754 182.553ZM218.496 201.314L218.392 203.311L220.294 203.929L220.398 201.932L218.496 201.314ZM220.425 164.514L219.459 162.509L218.579 162.826L218.523 163.896L220.425 164.514ZM247.876 171.509L246.709 172.802L246.709 172.802L247.876 171.509ZM278.647 181.507L279.974 183.316L277.596 179.536L278.647 181.507ZM214.915 254.917L216.633 256.252L214.915 254.917ZM199.697 375.733L197.797 375.375L197.92 377.186L199.593 377.73L199.697 375.733ZM277.573 401.036L277.469 403.033L281.127 404.222L279.191 400.395L277.573 401.036ZM277.216 275.16L278.971 276.417L277.216 275.16ZM369.578 193.608L370.773 195.506L372.019 194.77L371.246 193.073L369.578 193.608ZM337.702 123.616L339.37 123.081L338.288 120.705L336.526 121.708L337.702 123.616ZM300.083 133.706L299.714 131.618L299.714 131.618L300.083 133.706ZM270.791 119.32L269.874 120.853L270.791 119.32ZM254.407 105.883L253.582 107.491L254.407 105.883ZM224.076 94.841L222.174 94.223L222.027 97.0321L224.602 96.9305L224.076 94.841ZM166.921 64.884L224.663 83.6456L224.872 79.6511L167.13 60.8895L166.921 64.884ZM162.656 183.171L168.928 63.5048L165.123 62.2687L158.852 181.934L162.656 183.171ZM218.601 199.317L160.859 180.555L160.649 184.55L218.392 203.311L218.601 199.317ZM218.523 163.896L216.594 200.696L220.398 201.932L222.327 165.132L218.523 163.896ZM221.391 166.52C228.533 163.948 238.411 163.745 246.709 172.802L249.043 170.217C238.858 159.1 227.048 159.776 219.459 162.509L221.391 166.52ZM246.709 172.802C259.861 187.156 274.153 185.907 279.698 183.479L277.596 179.536C272.86 181.61 260.45 182.666 249.043 170.217L246.709 172.802ZM277.32 179.699C262.903 190.766 229.869 221.025 213.198 253.582L216.633 256.252C233.016 224.256 265.676 194.291 279.974 183.316L277.32 179.699ZM213.198 253.582C204.785 270.011 200.503 293.791 198.531 316.683C196.556 339.614 196.883 361.859 197.797 375.375L201.597 376.09C200.697 362.783 200.37 340.758 202.326 318.056C204.284 295.316 208.517 272.1 216.633 256.252L213.198 253.582ZM199.593 377.73L277.469 403.033L277.678 399.039L199.802 373.735L199.593 377.73ZM279.191 400.395C271.227 384.652 267.109 362.748 267.051 340.097C266.993 317.49 270.98 294.419 278.971 276.417L275.461 273.903C267.243 292.419 263.182 316.023 263.241 339.093C263.3 362.119 267.466 384.894 275.956 401.677L279.191 400.395ZM278.971 276.417C285.296 262.166 301.792 245.71 320.096 230.844C338.334 216.032 358.127 202.984 370.773 195.506L368.383 191.711C355.645 199.243 335.741 212.364 317.385 227.272C299.097 242.125 282.103 258.939 275.461 273.903L278.971 276.417ZM371.246 193.073L339.37 123.081L336.034 124.152L367.91 194.144L371.246 193.073ZM336.526 121.708C333.354 123.513 327.657 126.2 320.968 128.332C314.262 130.469 306.68 132.008 299.714 131.618L300.453 135.794C307.971 136.215 315.946 134.56 322.803 132.375C329.676 130.185 335.546 127.422 338.878 125.525L336.526 121.708ZM299.714 131.618C293.234 131.255 289.128 130.17 285.294 128.107C281.366 125.993 277.589 122.793 271.709 117.787L269.874 120.853C275.622 125.746 279.857 129.367 284.351 131.786C288.939 134.255 293.666 135.414 300.453 135.794L299.714 131.618ZM271.709 117.787C267.465 114.174 262.225 109.713 255.231 104.274L253.582 107.491C260.475 112.852 265.638 117.247 269.874 120.853L271.709 117.787ZM255.231 104.274C243.319 95.0102 232.229 92.4094 223.55 92.7516L224.602 96.9305C232.512 96.6186 242.625 98.971 253.582 107.491L255.231 104.274ZM222.866 81.0303L222.174 94.223L225.978 95.4591L226.67 82.2664L222.866 81.0303Z" fill="black"/>
<path d="M359.427 234.935C366.217 234.935 377.801 243.722 371.01 256.904" stroke="white" stroke-width="11" stroke-linecap="round"/>
<path d="M372.634 84.0822L378.301 96.8386L378.614 97.542L379.317 97.8544L392.074 103.521L379.317 109.188L378.614 109.501L378.301 110.204L372.634 122.96L366.968 110.204L366.655 109.501L365.952 109.188L353.195 103.521L365.952 97.8544L366.655 97.542L366.968 96.8386L372.634 84.0822Z" fill="#FFC700" stroke="black" stroke-width="4"/>
<mask id="path-8-outside-1_4766_10201" maskUnits="userSpaceOnUse" x="115.028" y="198.872" width="142.354" height="145.772" fill="black">
<rect fill="white" x="115.028" y="198.872" width="142.354" height="145.772"/>
<path fill-rule="evenodd" clip-rule="evenodd" d="M219.247 260.57C216.658 264.501 212.998 267.303 208.907 268.846C210.15 269.361 211.363 270 212.528 270.768C222.434 277.294 225.173 290.615 218.647 300.521C212.121 310.427 198.8 313.166 188.894 306.64C181.481 301.756 178.081 293.065 179.576 284.849C173.059 294.282 168.363 305.25 166.333 313.607C165.993 315.004 164.366 315.697 163.166 314.906L155.9 310.119C154.708 309.334 154.699 307.584 155.848 306.737C165.313 299.751 172.132 291.106 176.871 282.87C169.896 287.58 160.489 287.925 153.022 283.006C143.117 276.48 140.377 263.159 146.903 253.253C153.43 243.348 166.75 240.608 176.656 247.134C177.822 247.902 178.888 248.764 179.852 249.704C179.655 245.336 180.786 240.867 183.375 236.937C189.902 227.031 203.222 224.291 213.128 230.818C223.034 237.344 225.774 250.665 219.247 260.57Z"/>
</mask>
<path fill-rule="evenodd" clip-rule="evenodd" d="M219.247 260.57C216.658 264.501 212.998 267.303 208.907 268.846C210.15 269.361 211.363 270 212.528 270.768C222.434 277.294 225.173 290.615 218.647 300.521C212.121 310.427 198.8 313.166 188.894 306.64C181.481 301.756 178.081 293.065 179.576 284.849C173.059 294.282 168.363 305.25 166.333 313.607C165.993 315.004 164.366 315.697 163.166 314.906L155.9 310.119C154.708 309.334 154.699 307.584 155.848 306.737C165.313 299.751 172.132 291.106 176.871 282.87C169.896 287.58 160.489 287.925 153.022 283.006C143.117 276.48 140.377 263.159 146.903 253.253C153.43 243.348 166.75 240.608 176.656 247.134C177.822 247.902 178.888 248.764 179.852 249.704C179.655 245.336 180.786 240.867 183.375 236.937C189.902 227.031 203.222 224.291 213.128 230.818C223.034 237.344 225.774 250.665 219.247 260.57Z" fill="black"/>
<path d="M208.907 268.846L206.923 263.584L193.616 268.602L206.756 274.042L208.907 268.846ZM179.576 284.849L185.108 285.855L174.949 281.653L179.576 284.849ZM166.333 313.607L160.869 312.279L166.333 313.607ZM155.848 306.737L159.187 311.262L159.187 311.262L155.848 306.737ZM176.871 282.87L181.745 285.674L173.724 278.209L176.871 282.87ZM179.852 249.704L175.927 253.731L186.111 263.659L185.47 249.451L179.852 249.704ZM210.89 274.108C216.055 272.16 220.679 268.618 223.943 263.664L214.552 257.476C212.636 260.384 209.941 262.446 206.923 263.584L210.89 274.108ZM215.622 266.072C214.157 265.107 212.629 264.301 211.057 263.65L206.756 274.042C207.671 274.421 208.568 274.893 209.434 275.464L215.622 266.072ZM223.343 303.615C231.578 291.116 228.121 274.307 215.622 266.072L209.434 275.464C216.747 280.282 218.769 290.115 213.951 297.427L223.343 303.615ZM185.801 311.336C198.3 319.571 215.108 316.114 223.343 303.615L213.951 297.427C209.134 304.739 199.3 306.762 191.988 301.944L185.801 311.336ZM174.043 283.842C172.159 294.198 176.439 305.168 185.801 311.336L191.988 301.944C186.523 298.343 184.003 291.933 185.108 285.855L174.043 283.842ZM174.949 281.653C168.053 291.635 163.066 303.233 160.869 312.279L171.797 314.935C173.66 307.266 178.065 296.929 184.202 288.045L174.949 281.653ZM160.869 312.279C161.39 310.135 164.007 308.726 166.26 310.21L160.072 319.602C164.726 322.668 170.597 319.873 171.797 314.935L160.869 312.279ZM166.26 310.21L158.993 305.423L152.806 314.815L160.072 319.602L166.26 310.21ZM158.993 305.423C161.228 306.895 161.029 309.902 159.187 311.262L152.508 302.212C148.37 305.267 148.188 311.772 152.806 314.815L158.993 305.423ZM159.187 311.262C169.397 303.726 176.7 294.441 181.745 285.674L171.997 280.065C167.563 287.77 161.229 295.776 152.508 302.212L159.187 311.262ZM149.929 287.702C159.358 293.914 171.227 293.467 180.018 287.53L173.724 278.209C168.565 281.693 161.621 281.937 156.116 278.31L149.929 287.702ZM142.208 250.16C133.973 262.659 137.43 279.467 149.929 287.702L156.116 278.31C148.804 273.493 146.782 263.659 151.599 256.347L142.208 250.16ZM179.75 242.438C167.251 234.204 150.443 237.66 142.208 250.16L151.599 256.347C156.417 249.035 166.25 247.012 173.562 251.83L179.75 242.438ZM183.778 245.677C182.56 244.49 181.215 243.404 179.75 242.438L173.562 251.83C174.429 252.401 175.217 253.039 175.927 253.731L183.778 245.677ZM178.68 233.843C175.416 238.797 173.986 244.444 174.235 249.958L185.47 249.451C185.324 246.228 186.156 242.938 188.071 240.03L178.68 233.843ZM216.222 226.122C203.723 217.887 186.915 221.344 178.68 233.843L188.071 240.03C192.889 232.718 202.722 230.696 210.034 235.513L216.222 226.122ZM223.943 263.664C232.178 251.165 228.721 234.357 216.222 226.122L210.034 235.513C217.347 240.331 219.369 250.164 214.552 257.476L223.943 263.664Z" fill="black" mask="url(#path-8-outside-1_4766_10201)"/>
<mask id="path-10-outside-2_4766_10201" maskUnits="userSpaceOnUse" x="127.181" y="201.162" width="134.622" height="138.935" fill="black">
<rect fill="white" x="127.181" y="201.162" width="134.622" height="138.935"/>
<path fill-rule="evenodd" clip-rule="evenodd" d="M226.88 257.67C224.507 261.735 221.004 264.732 217.001 266.494C218.271 266.94 219.517 267.513 220.722 268.217C230.967 274.198 234.423 287.351 228.442 297.595C222.461 307.84 209.308 311.296 199.064 305.315C191.397 300.839 187.532 292.346 188.58 284.061C182.583 293.833 178.488 305.038 176.912 313.493C176.649 314.906 175.062 315.686 173.82 314.961L166.306 310.574C165.073 309.855 164.97 308.109 166.071 307.2C175.145 299.713 181.486 290.71 185.772 282.23C179.063 287.311 169.688 288.165 161.966 283.657C151.722 277.676 148.265 264.523 154.246 254.279C160.227 244.034 173.38 240.578 183.624 246.559C184.83 247.263 185.942 248.066 186.955 248.952C186.521 244.601 187.409 240.077 189.782 236.012C195.763 225.767 208.916 222.311 219.16 228.292C229.405 234.273 232.861 247.426 226.88 257.67Z"/>
</mask>
<path fill-rule="evenodd" clip-rule="evenodd" d="M226.88 257.67C224.507 261.735 221.004 264.732 217.001 266.494C218.271 266.94 219.517 267.513 220.722 268.217C230.967 274.198 234.423 287.351 228.442 297.595C222.461 307.84 209.308 311.296 199.064 305.315C191.397 300.839 187.532 292.346 188.58 284.061C182.583 293.833 178.488 305.038 176.912 313.493C176.649 314.906 175.062 315.686 173.82 314.961L166.306 310.574C165.073 309.855 164.97 308.109 166.071 307.2C175.145 299.713 181.486 290.71 185.772 282.23C179.063 287.311 169.688 288.165 161.966 283.657C151.722 277.676 148.265 264.523 154.246 254.279C160.227 244.034 173.38 240.578 183.624 246.559C184.83 247.263 185.942 248.066 186.955 248.952C186.521 244.601 187.409 240.077 189.782 236.012C195.763 225.767 208.916 222.311 219.16 228.292C229.405 234.273 232.861 247.426 226.88 257.67Z" fill="#CFFABB"/>
<path d="M217.001 266.494L215.39 262.833L206.13 266.909L215.674 270.267L217.001 266.494ZM188.58 284.061L192.548 284.563L185.171 281.969L188.58 284.061ZM176.912 313.493L180.845 314.226L180.845 314.226L176.912 313.493ZM173.82 314.961L175.837 311.507L173.82 314.961ZM166.306 310.574L164.289 314.029L166.306 310.574ZM166.071 307.2L168.617 310.286L168.617 310.286L166.071 307.2ZM185.772 282.23L189.342 284.034L183.358 279.041L185.772 282.23ZM186.955 248.952L184.322 251.963L191.938 258.624L190.935 248.556L186.955 248.952ZM218.613 270.155C223.362 268.064 227.521 264.505 230.334 259.687L223.426 255.653C221.492 258.966 218.646 261.399 215.39 262.833L218.613 270.155ZM222.739 264.763C221.313 263.931 219.837 263.251 218.329 262.72L215.674 270.267C216.705 270.63 217.72 271.096 218.706 271.672L222.739 264.763ZM231.896 299.612C238.991 287.46 234.891 271.858 222.739 264.763L218.706 271.672C227.042 276.539 229.855 287.242 224.988 295.579L231.896 299.612ZM197.047 308.769C209.199 315.864 224.802 311.764 231.896 299.612L224.988 295.579C220.121 303.915 209.417 306.728 201.081 301.861L197.047 308.769ZM184.612 283.559C183.37 293.378 187.947 303.457 197.047 308.769L201.081 301.861C194.847 298.221 191.695 291.313 192.548 284.563L184.612 283.559ZM185.171 281.969C178.926 292.146 174.648 303.81 172.98 312.76L180.845 314.226C182.328 306.267 186.241 295.521 191.989 286.153L185.171 281.969ZM172.98 312.76C173.192 311.625 174.538 310.749 175.837 311.507L171.803 318.416C175.585 320.624 180.106 318.187 180.845 314.226L172.98 312.76ZM175.837 311.507L168.322 307.12L164.289 314.029L171.803 318.416L175.837 311.507ZM168.322 307.12C169.611 307.872 169.555 309.511 168.617 310.286L163.525 304.115C160.385 306.706 160.536 311.837 164.289 314.029L168.322 307.12ZM168.617 310.286C178.199 302.379 184.859 292.904 189.342 284.034L182.203 280.425C178.113 288.517 172.091 297.046 163.525 304.115L168.617 310.286ZM159.949 287.111C169.115 292.462 180.235 291.441 188.187 285.419L183.358 279.041C177.891 283.181 170.261 283.868 163.983 280.202L159.949 287.111ZM150.792 252.262C143.697 264.414 147.797 280.016 159.949 287.111L163.983 280.202C155.646 275.335 152.834 264.632 157.701 256.295L150.792 252.262ZM185.641 243.105C173.489 236.01 157.886 240.11 150.792 252.262L157.701 256.295C162.568 247.959 173.271 245.146 181.608 250.013L185.641 243.105ZM189.588 245.941C188.385 244.889 187.067 243.937 185.641 243.105L181.608 250.013C182.593 250.589 183.498 251.243 184.322 251.963L189.588 245.941ZM186.328 233.995C183.515 238.813 182.46 244.186 182.975 249.349L190.935 248.556C190.583 245.016 191.303 241.341 193.237 238.028L186.328 233.995ZM221.177 224.838C209.025 217.743 193.422 221.843 186.328 233.995L193.237 238.028C198.104 229.692 208.807 226.879 217.144 231.746L221.177 224.838ZM230.334 259.687C237.429 247.535 233.329 231.932 221.177 224.838L217.144 231.746C225.48 236.613 228.293 247.317 223.426 255.653L230.334 259.687Z" fill="black" mask="url(#path-10-outside-2_4766_10201)"/>
<path d="M185.7 215.895L190.875 227.545L191.188 228.249L191.891 228.561L203.541 233.737L191.891 238.912L191.188 239.224L190.875 239.928L185.7 251.578L180.524 239.928L180.212 239.224L179.509 238.912L167.859 233.737L179.509 228.561L180.212 228.249L180.524 227.545L185.7 215.895Z" fill="#FFC700" stroke="black" stroke-width="4"/>
</svg>
