<?xml version="1.0" encoding="UTF-8" standalone="no"?>
<svg
   xmlns:dc="http://purl.org/dc/elements/1.1/"
   xmlns:cc="http://creativecommons.org/ns#"
   xmlns:rdf="http://www.w3.org/1999/02/22-rdf-syntax-ns#"
   xmlns:svg="http://www.w3.org/2000/svg"
   xmlns="http://www.w3.org/2000/svg"
   xmlns:sodipodi="http://sodipodi.sourceforge.net/DTD/sodipodi-0.dtd"
   xmlns:inkscape="http://www.inkscape.org/namespaces/inkscape"
   inkscape:version="1.0 (4035a4fb49, 2020-05-01)"
   sodipodi:docname="list-boat-racing.svg"
   viewBox="0 0 24 24"
   height="24"
   width="24"
   id="svg4964"
   version="1.1">
  <metadata
     id="metadata4970">
    <rdf:RDF>
      <cc:Work
         rdf:about="">
        <dc:format>image/svg+xml</dc:format>
        <dc:type
           rdf:resource="http://purl.org/dc/dcmitype/StillImage" />
        <dc:title></dc:title>
      </cc:Work>
    </rdf:RDF>
  </metadata>
  <defs
     id="defs4968" />
  <sodipodi:namedview
     inkscape:current-layer="svg4964"
     inkscape:window-maximized="0"
     inkscape:window-y="0"
     inkscape:window-x="-8"
     inkscape:cy="28.890988"
     inkscape:cx="0.51214032"
     inkscape:zoom="9.0997783"
     showgrid="false"
     id="namedview4966"
     inkscape:window-height="1351"
     inkscape:window-width="1718"
     inkscape:pageshadow="2"
     inkscape:pageopacity="0"
     guidetolerance="10"
     gridtolerance="10"
     objecttolerance="10"
     borderopacity="1"
     bordercolor="#666666"
     pagecolor="#ffffff" />
  <path
     style="fill:#5997e3;stroke-width:0.0244898;fill-opacity:1"
     d="m 0.48987,23.015532 c -0.19531,-0.009 -0.38541,-0.0171 -0.42245,-0.0188 l -0.0674,-0.003 v -0.85761 -0.85761 l 0.0551,0.0122 c 0.14033,0.0311 0.55938,0.0622 0.83878,0.0622 0.94652,0 1.94643,-0.27447 2.59747,-0.713 l 0.19748,-0.13301 0.16987,0.11628 c 0.76756,0.52543 2.0454,0.81846 3.08416,0.70726 0.86566,-0.0927 1.69667,-0.38226 2.19327,-0.76431 l 0.0871,-0.067 0.15775,0.11067 c 0.63383,0.44466 1.68578,0.74316 2.61897,0.74316 0.91607,0 1.93831,-0.2847 2.58079,-0.71877 0.0927,-0.0626 0.17801,-0.11388 0.18956,-0.11388 0.0116,0 0.0955,0.0513 0.18656,0.11402 0.49649,0.34197 1.29234,0.60851 2.06866,0.69281 1.06582,0.11574 2.31445,-0.16636 3.10695,-0.70195 l 0.17679,-0.11948 0.19841,0.13356 c 0.52606,0.35413 1.28517,0.60586 2.08412,0.69114 0.3849,0.0411 0.89679,0.0165 1.18163,-0.0567 l 0.22653,-0.0582 v 0.8392 0.83921 l -0.098,0.0254 c -0.35858,0.0931 -0.45379,0.10415 -0.88163,0.10233 -0.92819,-0.004 -1.86178,-0.27066 -2.55142,-0.72891 l -0.16366,-0.10875 -0.18758,0.12602 c -0.91808,0.61674 -2.32914,0.86129 -3.57489,0.61954 -0.60398,-0.1172 -1.13659,-0.32473 -1.57187,-0.61247 l -0.20045,-0.1325 -0.20982,0.13677 c -1.00563,0.65551 -2.48731,0.874 -3.78521,0.55818 -0.51489,-0.12529 -1.00058,-0.32984 -1.36812,-0.57621 l -0.18037,-0.1209 -0.138,0.0964 c -0.92944,0.64942 -2.38776,0.90179 -3.68902,0.6384 -0.5369,-0.10868 -1.20082,-0.37689 -1.5513,-0.62671 l -0.15538,-0.11075 -0.0773,0.0573 c -0.45694,0.33875 -0.83311,0.52924 -1.25597,0.63604 -0.50027,0.12634 -1.13714,0.17485 -1.87028,0.14246 z M 0.14089,20.234022 7e-5,20.223922 v -0.85787 -0.85786 l 0.0674,0.0137 c 0.14861,0.0302 0.58964,0.0637 0.84011,0.0637 0.43864,0 1.06106,-0.0984 1.50257,-0.23746 l 0.1937,-0.061 -0.16699,-0.0969 c -0.99866,-0.57936 -1.76961,-1.34284 -2.13088,-2.11023 -0.23348,-0.49595 -0.29243,-0.78009 -0.29311,-1.41279 -4.5e-4,-0.4297 0.004,-0.48721 0.0485,-0.57393 0.0269,-0.053 0.0801,-0.11913 0.11811,-0.14694 0.0683,-0.05 0.0948,-0.0507 2.25006,-0.0628 l 2.18093,-0.0122 2.15962,-3.51628 c 1.1878,-1.9339603 2.21224,-3.5846603 2.27655,-3.6682403 0.35404,-0.4601 0.74874,-0.76958 1.1652,-0.91363 0.22469,-0.0777 0.34423,-0.0969 0.60056,-0.0964 0.2941,5.4e-4 0.54224,0.0495 0.80727,0.15926 0.10824,0.0448 0.80844,0.37355 1.55599,0.73048 0.74755,0.35694 2.54939,1.21383 4.00408,1.9042 3.19028,1.51405 3.16803,1.50292 3.3477,1.6742303 0.16343,0.15583 0.31704,0.38369 0.37929,0.56266 0.0617,0.17737 0.06,0.51999 -0.003,0.71397 -0.0684,0.20896 -0.22125,0.42374 -0.38001,0.53401 -0.19909,0.13828 -0.35248,0.17716 -0.68636,0.17398 -0.3387,-0.003 -0.47459,-0.0409 -1.08979,-0.30242 -0.43659,-0.18557 -1.14931,-0.47708 -2.62041,-1.07179 -2.13065,-0.8613403 -2.00429,-0.8135703 -2.03505,-0.7693303 -0.0155,0.0222 -0.57403,0.9082703 -1.24125,1.9689403 l -1.21313,1.92849 3.86874,0.006 3.86875,0.006 -3.27467,2.95102 c -1.80106,1.62306 -3.38881,3.05296 -3.52832,3.17755 l -0.25367,0.22653 -0.361,-2.4e-4 c -0.59169,-2.5e-4 -1.27152,-0.12603 -1.79716,-0.33266 -0.30422,-0.1196 -0.43074,-0.1843 -0.69823,-0.35707 L 9.238,19.415812 9.0336,19.548542 c -0.48471,0.31477 -1.00464,0.50791 -1.73501,0.64451 -0.3411,0.0638 -1.30606,0.0634 -1.66531,-7.3e-4 -0.70681,-0.12612 -1.33959,-0.36705 -1.79228,-0.6824 -0.0891,-0.062 -0.15083,-0.0899 -0.17143,-0.0774 -0.0177,0.0108 -0.11992,0.0845 -0.22713,0.16385 -0.2563,0.18962 -0.72484,0.41697 -1.01732,0.49364 -0.46704,0.12241 -0.65165,0.14163 -1.42041,0.14786 -0.39735,0.003 -0.78581,0.001 -0.86326,-0.004 z m 16.80612,-0.008 c -0.30678,-0.0421 -0.67615,-0.12683 -0.9761,-0.22397 -0.28395,-0.0919 -0.85334,-0.35697 -0.97768,-0.45505 l -0.0558,-0.044 3.12301,-2.81066 3.123,-2.81066 1.18179,0.008 c 1.31955,0.009 1.33789,0.0109 1.48615,0.17979 0.11175,0.12728 0.13722,0.25571 0.0892,0.45011 -0.10366,0.42005 -0.63243,1.21306 -1.21683,1.82491 -0.45364,0.47496 -1.1751,1.06421 -1.77022,1.44583 -0.29979,0.19224 -0.3026,0.17057 0.0428,0.33017 0.92472,0.42722 2.10354,0.57954 2.84473,0.36758 l 0.15892,-0.0454 v 0.84222 0.84223 l -0.10099,0.0272 c -0.26727,0.072 -0.48838,0.0971 -0.85014,0.0967 -0.9278,-10e-4 -1.88176,-0.26455 -2.53076,-0.69895 -0.10949,-0.0733 -0.2034,-0.13325 -0.20868,-0.13325 -0.005,0 -0.0891,0.0536 -0.18624,0.11919 -0.45002,0.30367 -1.03032,0.52111 -1.7436,0.65333 -0.25552,0.0474 -1.17808,0.0699 -1.43265,0.0349 z M 14.01979,5.5563017 c -0.40387,-0.0528 -0.8721,-0.25663 -1.18208,-0.51455 -1.04057,-0.86581 -1.11145,-2.44496 -0.15277,-3.40364 0.43975,-0.43974 0.98244,-0.66237998 1.61717,-0.66341998 0.48796,-8e-4 0.87566,0.11224998 1.26529,0.36892998 0.37215,0.24517 0.69314,0.62789 0.86391,1.03003 0.11991,0.28238 0.15296,0.44123 0.16609,0.79832 0.0149,0.40389 -0.0223,0.63928 -0.15089,0.95635 -0.39316,0.96932 -1.40064,1.56216 -2.42672,1.42798 z"
     id="path5537" />
</svg>
