<?xml version="1.0" encoding="UTF-8" standalone="no"?>
<svg
   xmlns:dc="http://purl.org/dc/elements/1.1/"
   xmlns:cc="http://creativecommons.org/ns#"
   xmlns:rdf="http://www.w3.org/1999/02/22-rdf-syntax-ns#"
   xmlns:svg="http://www.w3.org/2000/svg"
   xmlns="http://www.w3.org/2000/svg"
   xmlns:sodipodi="http://sodipodi.sourceforge.net/DTD/sodipodi-0.dtd"
   xmlns:inkscape="http://www.inkscape.org/namespaces/inkscape"
   inkscape:version="1.0 (4035a4fb49, 2020-05-01)"
   height="24"
   width="24"
   sodipodi:docname="list-counter-strike.svg"
   id="svg4"
   version="1.1"
   viewBox="0.92 4 24 24">
  <metadata
     id="metadata10">
    <rdf:RDF>
      <cc:Work
         rdf:about="">
        <dc:format>image/svg+xml</dc:format>
        <dc:type
           rdf:resource="http://purl.org/dc/dcmitype/StillImage" />
        <dc:title></dc:title>
      </cc:Work>
    </rdf:RDF>
  </metadata>
  <defs
     id="defs8" />
  <sodipodi:namedview
     inkscape:current-layer="svg4"
     inkscape:window-maximized="1"
     inkscape:window-y="-9"
     inkscape:window-x="-9"
     inkscape:cy="11.288081"
     inkscape:cx="11.33427"
     inkscape:zoom="16.03125"
     showgrid="false"
     id="namedview6"
     inkscape:window-height="1361"
     inkscape:window-width="3440"
     inkscape:pageshadow="2"
     inkscape:pageopacity="0"
     guidetolerance="10"
     gridtolerance="10"
     objecttolerance="10"
     borderopacity="1"
     bordercolor="#666666"
     pagecolor="#ffffff" />
  <path
     style="stroke-width:1.08696;fill:#5997e3;fill-opacity:1"
     id="path2"
     fill="#5997e3ff"
     d="M 7.5286957,8.3913045 H 24.92 v 4.3478265 h -1.086957 v 1.086956 h -6.521739 a 1.0869565,1.0869565 0 0 0 -1.086956,1.086957 V 16 a 2.173913,2.173913 0 0 1 -2.173913,2.173913 h -3.673913 c -0.4130438,0 -0.7934785,0.239131 -0.9782611,0.608696 L 6.7352174,24.097826 C 6.5504348,24.467391 6.1808696,24.695652 5.7678261,24.695652 H 2.093913 c 0,0 -3.2608695,0 1.0869566,-6.521739 0,0 3.2608696,-4.347826 -1.0869566,-4.347826 V 8.3913045 H 3.1808696 L 3.7243478,7.304348 H 6.9852174 L 7.5286957,8.3913045 M 15.137391,16 v -1.086956 a 1.0869565,1.0869565 0 0 0 -1.086956,-1.086957 h -1.086957 c 0,0 -1.086956,1.086957 0,2.173913 A 2.173913,2.173913 0 0 1 10.789565,13.826087 1.0869565,1.0869565 0 0 0 9.7026087,14.913044 V 16 a 1.0869565,1.0869565 0 0 0 1.0869563,1.086957 h 3.26087 A 1.0869565,1.0869565 0 0 0 15.137391,16 Z" />
</svg>
