<?xml version="1.0" encoding="UTF-8" standalone="no"?>
<svg
   xmlns:dc="http://purl.org/dc/elements/1.1/"
   xmlns:cc="http://creativecommons.org/ns#"
   xmlns:rdf="http://www.w3.org/1999/02/22-rdf-syntax-ns#"
   xmlns:svg="http://www.w3.org/2000/svg"
   xmlns="http://www.w3.org/2000/svg"
   xmlns:sodipodi="http://sodipodi.sourceforge.net/DTD/sodipodi-0.dtd"
   xmlns:inkscape="http://www.inkscape.org/namespaces/inkscape"
   inkscape:version="1.0 (4035a4fb49, 2020-05-01)"
   height="32"
   width="32"
   sodipodi:docname="list-basketball.svg"
   id="svg4"
   version="1.1"
   viewBox="0 8 32 32">
  <metadata
     id="metadata10">
    <rdf:RDF>
      <cc:Work
         rdf:about="">
        <dc:format>image/svg+xml</dc:format>
        <dc:type
           rdf:resource="http://purl.org/dc/dcmitype/StillImage" />
        <dc:title></dc:title>
      </cc:Work>
    </rdf:RDF>
  </metadata>
  <defs
     id="defs8" />
  <sodipodi:namedview
     inkscape:current-layer="svg4"
     inkscape:window-maximized="1"
     inkscape:window-y="-9"
     inkscape:window-x="-9"
     inkscape:cy="248"
     inkscape:cx="248"
     inkscape:zoom="2.0322581"
     showgrid="false"
     id="namedview6"
     inkscape:window-height="1361"
     inkscape:window-width="3440"
     inkscape:pageshadow="2"
     inkscape:pageopacity="0"
     guidetolerance="10"
     gridtolerance="10"
     objecttolerance="10"
     borderopacity="1"
     bordercolor="#666666"
     pagecolor="#ffffff" />
  <path
     style="stroke-width:0.0645161;fill:#5997e3;fill-opacity:1"
     id="path2"
     fill="#000000"
     d="M 13.696774,8.1483871 C 10.870968,8.5548387 8.1354839,9.7032258 5.8129032,11.619355 l 4.9935488,4.993548 C 12.6,14.303226 13.6,11.374194 13.696774,8.1483871 Z M 16,21.806452 26.187097,11.619355 C 23.451613,9.3612903 20.148387,8.1677419 16.8,8 16.72258,12.122581 15.412903,15.890323 13.012903,18.819355 Z M 3.6193548,13.812903 C 1.7032258,16.135484 0.55483871,18.870968 0.1483871,21.696774 3.3741935,21.6 6.3096774,20.6 8.6129032,18.806452 Z M 21.180645,26.987097 C 24.103226,24.593548 27.870968,23.283871 32,23.2 31.832258,19.851613 30.63871,16.548387 28.380645,13.812903 L 18.193548,24 Z M 16,26.193548 5.8129032,36.380645 C 8.5483871,38.632258 11.851613,39.832258 15.2,40 c 0.08387,-4.129032 1.393548,-7.896774 3.787097,-10.819355 z m 12.380645,7.993549 c 1.916129,-2.322581 3.064516,-5.058065 3.470968,-7.883871 -3.232258,0.103226 -6.16129,1.103226 -8.464516,2.890322 z M 10.819355,21.012903 C 7.8903226,23.412903 4.1225806,24.729032 0,24.8 c 0.16774194,3.348387 1.3612903,6.651613 3.6193548,9.387097 L 13.806452,24 Z m 7.483871,18.83871 c 2.825806,-0.406452 5.56129,-1.554839 7.883871,-3.470968 l -4.993549,-4.993548 c -1.787096,2.303226 -2.787096,5.238709 -2.890322,8.464516 z" />
</svg>
