<?xml version="1.0" encoding="UTF-8" standalone="no"?>
<svg
   xmlns:dc="http://purl.org/dc/elements/1.1/"
   xmlns:cc="http://creativecommons.org/ns#"
   xmlns:rdf="http://www.w3.org/1999/02/22-rdf-syntax-ns#"
   xmlns:svg="http://www.w3.org/2000/svg"
   xmlns="http://www.w3.org/2000/svg"
   xmlns:sodipodi="http://sodipodi.sourceforge.net/DTD/sodipodi-0.dtd"
   xmlns:inkscape="http://www.inkscape.org/namespaces/inkscape"
   inkscape:version="1.0 (4035a4fb49, 2020-05-01)"
   sodipodi:docname="list-bowls.svg"
   viewBox="0 0 24 24"
   height="24"
   width="24"
   id="svg1404"
   version="1.1">
  <metadata
     id="metadata1410">
    <rdf:RDF>
      <cc:Work
         rdf:about="">
        <dc:format>image/svg+xml</dc:format>
        <dc:type
           rdf:resource="http://purl.org/dc/dcmitype/StillImage" />
        <dc:title></dc:title>
      </cc:Work>
    </rdf:RDF>
  </metadata>
  <defs
     id="defs1408" />
  <sodipodi:namedview
     inkscape:current-layer="svg1404"
     inkscape:window-maximized="0"
     inkscape:window-y="0"
     inkscape:window-x="-8"
     inkscape:cy="28.3388"
     inkscape:cx="22.293731"
     inkscape:zoom="11.988281"
     showgrid="false"
     id="namedview1406"
     inkscape:window-height="1351"
     inkscape:window-width="1718"
     inkscape:pageshadow="2"
     inkscape:pageopacity="0"
     guidetolerance="10"
     gridtolerance="10"
     objecttolerance="10"
     borderopacity="1"
     bordercolor="#666666"
     pagecolor="#ffffff" />
  <path
     style="fill:#5997e3;stroke-width:0.0548377;fill-opacity:1"
     d="M 11.171562,23.947161 C 6.9521919,23.661366 3.2141819,21.175379 1.2890919,17.374756 c -0.88701,-1.751174 -1.26223,-3.348969 -1.2629,-5.377795 -4.1e-4,-1.247846 0.0808,-1.933979 0.35482,-2.9965968 1.01026,-3.918169 3.97607,-7.107262 7.79033,-8.37682604 4.2379301,-1.410581 8.8383301,-0.390802 12.1051801,2.68337704 0.56161,0.528488 1.21603,1.306065 1.66911,1.98322 0.18759,0.280353 0.37191,0.509827 0.40961,0.50994 0.0377,1.23e-4 0.0686,0.05926 0.0686,0.131433 0,0.07218 0.037,0.145432 0.0823,0.162793 0.0452,0.01736 0.0823,0.08231 0.0823,0.144331 0,0.06202 0.0894,0.290285 0.19867,0.507253 0.31085,0.617271 0.65087,1.543005 0.83399,2.270616 0.26914,1.0693838 0.35364,1.7440738 0.3527,2.8159468 -0.002,2.006239 -0.38718,3.723106 -1.21255,5.401531 -0.65781,1.337691 -1.37956,2.328856 -2.45707,3.374242 -1.74888,1.69675 -3.9011,2.790662 -6.30195,3.203106 -0.42533,0.07307 -1.96916,0.207867 -2.13459,0.186381 -0.0302,-0.0039 -0.34334,-0.02666 -0.69594,-0.05055 z m 4.28782,-1.784164 c 3.61396,-0.546833 6.66663,-3.242836 7.93353,-7.00659 0.21765,-0.646621 0.2211,-0.691741 0.0528,-0.691741 -0.1115,0 -0.14681,0.05192 -0.25176,0.370156 -0.18085,0.548418 -0.66742,1.541147 -1.02196,2.085086 -1.32526,2.033205 -3.27428,3.369075 -5.5904,3.831691 -0.67574,0.134969 -2.16007,0.134315 -2.84759,-0.0013 -2.70631,-0.533645 -4.9520901,-2.316581 -6.1914201,-4.915388 -0.37131,-0.778616 -0.59558,-1.448423 -0.78656,-2.349157 -0.13326,-0.628518 -0.14736,-0.807033 -0.15001,-1.900123 -0.003,-1.297549 0.0327,-1.6103028 0.30377,-2.6472168 0.8955,-3.426084 3.5210301,-5.975785 6.8242201,-6.627126 0.68752,-0.13557 2.17185,-0.136224 2.84759,-0.0013 1.44932,0.289483 2.77734,0.931358 3.88892,1.879633 0.5322,0.454017 0.51225,0.4429 0.61338,0.341776 0.0807,-0.08067 0.0559,-0.123563 -0.30042,-0.52003 -0.8927,-0.993321 -2.38954,-2.127868 -3.43337,-2.60236 C 16.134862,0.85659916 14.050882,0.64496216 12.488412,0.91528416 8.2848319,1.6425442 5.0337719,5.1113032 4.2352719,9.7210982 c -0.13389,0.7729338 -0.13389,2.8463668 0,3.6192998 0.53416,3.08376 2.16981,5.711627 4.5444,7.30116 2.0246701,1.355303 4.3208601,1.878272 6.6797301,1.521348 z m 1.80075,-3.004836 c 1.37027,-0.298403 2.53123,-0.957651 3.54323,-2.012014 2.06197,-2.148277 2.73947,-5.352632 1.75713,-8.3106618 -0.84637,-2.548593 -2.86629,-4.409436 -5.35916,-4.937117 -0.62153,-0.131562 -1.87751,-0.131076 -2.50159,9.66e-4 -2.12137,0.448843 -3.90695,1.863638 -4.9315701,3.907495 -1.52896,3.0498928 -0.99489,6.8935668 1.2917101,9.2963968 1.0652,1.119336 2.39884,1.859286 3.74145,2.075871 0.2262,0.03649 0.4483,0.07524 0.49354,0.08611 0.20164,0.04845 1.60131,-0.02779 1.96526,-0.107047 z m -1.87213,-1.490389 c -2.31574,-0.418541 -4.23404,-2.452828 -4.67524,-4.957918 -0.0917,-0.520457 -0.10772,-1.730679 -0.0291,-2.193515 0.42873,-2.5240768 2.08035,-4.4293408 4.38383,-5.0570708 0.60362,-0.164495 1.93572,-0.164281 2.54019,3.7e-4 2.23938,0.610121 3.88689,2.431538 4.35789,4.8179048 0.12879,0.652525 0.12918,1.852099 8.1e-4,2.502186 -0.57656,2.919839 -2.95134,4.998639 -5.67791,4.970251 -0.25995,-0.0027 -0.66517,-0.03972 -0.90048,-0.08225 z m 2.49934,-3.845234 c 0.47765,-0.22623 0.85253,-0.610184 1.11573,-1.142746 0.18549,-0.375306 0.20563,-0.461314 0.22852,-0.976069 0.0279,-0.626129 -0.0507,-1.008128 -0.30353,-1.475211 -0.19203,-0.3548528 -0.71125,-0.8368978 -1.09523,-1.0168228 -0.27845,-0.130474 -0.38377,-0.148554 -0.86541,-0.148554 -0.48099,0 -0.58714,0.01817 -0.86384,0.147837 -0.36082,0.169092 -0.86799,0.624046 -1.05899,0.9499488 -0.60371,1.030155 -0.44797,2.393838 0.36638,3.208192 0.47869,0.478693 0.93112,0.658905 1.61129,0.641806 0.42693,-0.01073 0.54368,-0.03616 0.86508,-0.188381 z"
     id="path1416" />
</svg>
