<?xml version="1.0" encoding="UTF-8" standalone="no"?>
<svg
   xmlns:dc="http://purl.org/dc/elements/1.1/"
   xmlns:cc="http://creativecommons.org/ns#"
   xmlns:rdf="http://www.w3.org/1999/02/22-rdf-syntax-ns#"
   xmlns:svg="http://www.w3.org/2000/svg"
   xmlns="http://www.w3.org/2000/svg"
   xmlns:sodipodi="http://sodipodi.sourceforge.net/DTD/sodipodi-0.dtd"
   xmlns:inkscape="http://www.inkscape.org/namespaces/inkscape"
   inkscape:version="1.0 (4035a4fb49, 2020-05-01)"
   height="24"
   width="24"
   sodipodi:docname="list-boxing.svg"
   id="svg4"
   version="1.1"
   viewBox="2 4 24 24">
  <metadata
     id="metadata10">
    <rdf:RDF>
      <cc:Work
         rdf:about="">
        <dc:format>image/svg+xml</dc:format>
        <dc:type
           rdf:resource="http://purl.org/dc/dcmitype/StillImage" />
        <dc:title></dc:title>
      </cc:Work>
    </rdf:RDF>
  </metadata>
  <defs
     id="defs8" />
  <sodipodi:namedview
     inkscape:current-layer="svg4"
     inkscape:window-maximized="1"
     inkscape:window-y="-9"
     inkscape:window-x="-9"
     inkscape:cy="0.83334926"
     inkscape:cx="0.88274107"
     inkscape:zoom="15.75"
     showgrid="false"
     id="namedview6"
     inkscape:window-height="1361"
     inkscape:window-width="3440"
     inkscape:pageshadow="2"
     inkscape:pageopacity="0"
     guidetolerance="10"
     gridtolerance="10"
     objecttolerance="10"
     borderopacity="1"
     bordercolor="#666666"
     pagecolor="#ffffff" />
  <path
     style="stroke-width:1.2;fill:#5997e3;fill-opacity:1"
     id="path2"
     fill="#5997e3ff"
     d="M 22.4,20.8 V 8.8 H 26 v 12 H 22.4 M 14,6.4 c -4.8,0 -6,0 -6,0 0,0 -6,0 -6,4.8 v 7.2 c 0,2.124 1.2,3.312 2.484,3.972 C 4.88,20.116 6.836,18.4 9.2,18.4 h 3.6 v 2.4 H 9.2 a 2.4,2.4 0 0 0 -2.4,2.4 c 0,1.332 1.08,2.4 2.4,2.4 h 6 c 4.8,0 4.8,-4.8 4.8,-4.8 v -12 c 0,0 -1.2,-2.4 -6,-2.4 z" />
</svg>
