<?xml version="1.0" encoding="UTF-8" standalone="no"?>
<svg
   xmlns:dc="http://purl.org/dc/elements/1.1/"
   xmlns:cc="http://creativecommons.org/ns#"
   xmlns:rdf="http://www.w3.org/1999/02/22-rdf-syntax-ns#"
   xmlns:svg="http://www.w3.org/2000/svg"
   xmlns="http://www.w3.org/2000/svg"
   xmlns:sodipodi="http://sodipodi.sourceforge.net/DTD/sodipodi-0.dtd"
   xmlns:inkscape="http://www.inkscape.org/namespaces/inkscape"
   inkscape:version="1.0 (4035a4fb49, 2020-05-01)"
   height="24"
   width="24"
   sodipodi:docname="list-table-tennis.svg"
   id="svg4"
   version="1.1"
   viewBox="-0.0751257 0.0250015 24.000001 24.000001">
  <metadata
     id="metadata10">
    <rdf:RDF>
      <cc:Work
         rdf:about="">
        <dc:format>image/svg+xml</dc:format>
        <dc:type
           rdf:resource="http://purl.org/dc/dcmitype/StillImage" />
        <dc:title></dc:title>
      </cc:Work>
    </rdf:RDF>
  </metadata>
  <defs
     id="defs8" />
  <sodipodi:namedview
     inkscape:current-layer="svg4"
     inkscape:window-maximized="0"
     inkscape:window-y="0"
     inkscape:window-x="-8"
     inkscape:cy="40.676877"
     inkscape:cx="33.52883"
     inkscape:zoom="8.0140601"
     showgrid="false"
     id="namedview6"
     inkscape:window-height="1351"
     inkscape:window-width="1718"
     inkscape:pageshadow="2"
     inkscape:pageopacity="0"
     guidetolerance="10"
     gridtolerance="10"
     objecttolerance="10"
     borderopacity="1"
     bordercolor="#666666"
     pagecolor="#ffffff" />
  <path
     style="stroke-width:0.0468681;fill:#5997e3;fill-opacity:1"
     id="path2"
     fill="#5997e3ff"
     d="m 23.184357,13.920814 c 1.476346,-3.64634 0.740517,-7.9816412 -2.212175,-10.9390197 -3.932236,-3.94160922 -10.310987,-3.94160922 -14.243222,0 L 4.1043451,5.611096 14.016952,15.523704 c 2.160621,-2.910511 6.163159,-3.627593 9.167405,-1.60289 z M 12.971793,17.656203 2.6420597,7.3311561 C 1.3625599,9.4542821 1.6250214,12.252309 3.4528782,14.084852 l 1.6169503,1.621637 -4.82741673,4.19001 c -0.40306586,0.351511 -0.42649992,0.970171 -0.0468681,1.349802 l 2.50275773,2.507445 c 0.374945,0.379632 0.9936042,0.356198 1.3451152,-0.04687 l 4.1853233,-4.841477 1.673192,1.673192 c 0.9233011,0.923302 2.0903181,1.429478 3.2948281,1.560708 -0.332763,-0.796758 -0.515549,-1.668505 -0.515549,-2.582433 -0.0047,-0.64678 0.11717,-1.26544 0.290582,-1.860665 z m 6.453741,-2.633988 c -2.484011,0 -4.49934,2.015329 -4.49934,4.499339 0,2.484011 2.015329,4.49934 4.49934,4.49934 2.48401,0 4.49934,-2.015329 4.49934,-4.49934 0,-2.48401 -2.01533,-4.499339 -4.49934,-4.499339 z" />
</svg>
