<?xml version="1.0" encoding="UTF-8" standalone="no"?>
<svg
   xmlns:dc="http://purl.org/dc/elements/1.1/"
   xmlns:cc="http://creativecommons.org/ns#"
   xmlns:rdf="http://www.w3.org/1999/02/22-rdf-syntax-ns#"
   xmlns:svg="http://www.w3.org/2000/svg"
   xmlns="http://www.w3.org/2000/svg"
   xmlns:sodipodi="http://sodipodi.sourceforge.net/DTD/sodipodi-0.dtd"
   xmlns:inkscape="http://www.inkscape.org/namespaces/inkscape"
   inkscape:version="1.0 (4035a4fb49, 2020-05-01)"
   height="24"
   width="24"
   sodipodi:docname="list-gaelic-hurling.svg"
   id="svg4"
   version="1.1"
   viewBox="2 2 24 24">
  <metadata
     id="metadata10">
    <rdf:RDF>
      <cc:Work
         rdf:about="">
        <dc:format>image/svg+xml</dc:format>
        <dc:type
           rdf:resource="http://purl.org/dc/dcmitype/StillImage" />
        <dc:title></dc:title>
      </cc:Work>
    </rdf:RDF>
  </metadata>
  <defs
     id="defs8" />
  <sodipodi:namedview
     inkscape:current-layer="svg4"
     inkscape:window-maximized="1"
     inkscape:window-y="-9"
     inkscape:window-x="-9"
     inkscape:cy="20.710542"
     inkscape:cx="14.670937"
     inkscape:zoom="18.137289"
     showgrid="false"
     id="namedview6"
     inkscape:window-height="1361"
     inkscape:window-width="3440"
     inkscape:pageshadow="2"
     inkscape:pageopacity="0"
     guidetolerance="10"
     gridtolerance="10"
     objecttolerance="10"
     borderopacity="1"
     bordercolor="#666666"
     pagecolor="#ffffff" />
  <path
     style="stroke-width:1.2;fill:#5997e3;fill-opacity:1"
     id="path2"
     fill="#5997e3ff"
     d="M 14,2 C 11,2 8.3,3.08 6.2,4.88 6.8,5.372 7.292,5.924 7.76,6.512 l 1.308,-0.756 1.2,2.088 -1.2,0.684 c 0.672,1.308 1.116,2.748 1.272,4.272 h 1.26 v 1.2 1.2 h -1.26 c -0.156,1.524 -0.6,2.964 -1.272,4.272 l 1.2,0.684 -1.2,2.088 L 7.76,21.488 C 7.292,22.076 6.8,22.628 6.2,23.12 8.3,24.92 11,26 14,26 c 3,0 5.7,-1.08 7.8,-2.88 -0.6,-0.492 -1.092,-1.044 -1.572,-1.632 l -1.296,0.756 -1.2,-2.088 1.2,-0.696 C 18.26,18.164 17.816,16.724 17.66,15.2 H 16.4 v -2.4 h 1.26 c 0.156,-1.524 0.6,-2.964 1.272,-4.26 l -1.2,-0.696 1.2,-2.088 1.296,0.756 C 20.708,5.924 21.2,5.372 21.8,4.88 19.7,3.08 17,2 14,2 M 4.544,6.62 C 2.948,8.66 2,11.216 2,14 c 0,2.784 0.948,5.34 2.544,7.38 0.408,-0.336 0.768,-0.72 1.116,-1.116 l -0.744,-0.42 1.2,-2.088 0.876,0.516 C 7.46,17.324 7.784,16.292 7.916,15.2 H 6.8 V 14 12.8 H 7.916 C 7.784,11.708 7.46,10.676 6.992,9.728 L 6.116,10.244 4.916,8.156 5.66,7.736 C 5.312,7.34 4.952,6.956 4.544,6.62 m 18.912,0 C 23.048,6.956 22.688,7.34 22.34,7.736 l 0.744,0.42 -1.2,2.088 -0.876,-0.516 c -0.468,0.948 -0.792,1.98 -0.924,3.072 H 21.2 v 2.4 h -1.116 c 0.132,1.092 0.456,2.124 0.924,3.072 l 0.876,-0.516 1.2,2.088 -0.744,0.42 c 0.348,0.396 0.708,0.78 1.116,1.116 C 25.052,19.34 26,16.784 26,14 26,11.216 25.052,8.66 23.456,6.62 Z" />
</svg>
