<?xml version="1.0" encoding="UTF-8" standalone="no"?>
<svg
   xmlns:dc="http://purl.org/dc/elements/1.1/"
   xmlns:cc="http://creativecommons.org/ns#"
   xmlns:rdf="http://www.w3.org/1999/02/22-rdf-syntax-ns#"
   xmlns:svg="http://www.w3.org/2000/svg"
   xmlns="http://www.w3.org/2000/svg"
   xmlns:sodipodi="http://sodipodi.sourceforge.net/DTD/sodipodi-0.dtd"
   xmlns:inkscape="http://www.inkscape.org/namespaces/inkscape"
   inkscape:version="1.0 (4035a4fb49, 2020-05-01)"
   sodipodi:docname="list-hurting.svg"
   viewBox="0 0 24.000001 24.000001"
   height="24"
   width="24"
   id="svg2014"
   version="1.1">
  <metadata
     id="metadata2020">
    <rdf:RDF>
      <cc:Work
         rdf:about="">
        <dc:format>image/svg+xml</dc:format>
        <dc:type
           rdf:resource="http://purl.org/dc/dcmitype/StillImage" />
        <dc:title></dc:title>
      </cc:Work>
    </rdf:RDF>
  </metadata>
  <defs
     id="defs2018" />
  <sodipodi:namedview
     inkscape:current-layer="svg2014"
     inkscape:window-maximized="0"
     inkscape:window-y="0"
     inkscape:window-x="-8"
     inkscape:cy="23.67338"
     inkscape:cx="9.4001403"
     inkscape:zoom="12.023438"
     showgrid="false"
     id="namedview2016"
     inkscape:window-height="1351"
     inkscape:window-width="1718"
     inkscape:pageshadow="2"
     inkscape:pageopacity="0"
     guidetolerance="10"
     gridtolerance="10"
     objecttolerance="10"
     borderopacity="1"
     bordercolor="#666666"
     pagecolor="#ffffff" />
  <path
     style="fill:#5997e3;stroke-width:0.0246988;fill-opacity:1"
     d="m 6.8485059,23.975867 c -0.17425,-0.04049 -0.5381,-0.235222 -0.68397,-0.366056 -0.28073,-0.251801 -0.49368,-0.675523 -0.52851,-1.051595 -0.0282,-0.304241 0.0163,-0.472775 0.3843,-1.456253 0.63369,-1.69351 1.09032,-2.784802 1.58134,-3.779224 0.46183,-0.93532 0.83352,-1.512776 1.20244,-1.868087 0.38461,-0.370426 0.58053,-0.436 1.6133801,-0.539977 0.4722,-0.04753 2.00066,-0.178462 2.47607,-0.212097 0.13245,-0.0094 0.24081,-0.02385 0.2408,-0.03218 -10e-6,-0.0083 -0.0389,-0.29856 -0.0864,-0.644962 -0.0475,-0.346401 -0.0864,-0.631156 -0.0864,-0.632789 -10e-6,-0.0016 -0.14172,0.03502 -0.31492,0.08144 -0.1732,0.04642 -0.78655,0.200585 -1.363,0.342577 -1.2882501,0.317328 -1.4150101,0.326517 -1.8223801,0.1321 -0.17956,-0.0857 -0.41467,-0.293537 -0.52173,-0.461211 -0.33753,-0.528665 -0.26797,-1.197833 0.17027,-1.63792 0.23828,-0.23928 0.35647,-0.287667 1.2583701,-0.515167 0.71078,-0.179293 2.22641,-0.586379 2.23551,-0.600442 0.002,-0.0032 -0.0615,-0.48937 -0.1414,-1.0802904 -0.15898,-1.176328 -0.16417,-1.300445 -0.0697,-1.665842 0.0684,-0.264504 0.22035,-0.57049 0.36101,-0.726939 0.49383,-0.549254 1.45989,-0.795561 2.99135,-0.762678 0.54967,0.0118 0.64481,0.02968 0.85969,0.161521 0.61352,0.376421 0.98283,1.565769 1.28243,4.1300864 0.16756,1.434141 0.37505,4.019708 0.35083,4.371702 -0.0333,0.48297 -0.1712,1.060229 -0.75555,3.161458 -0.3696,1.329032 -0.61837,2.260711 -0.61837,2.31587 0,0.021 0.51274,0.03054 1.98209,0.03686 2.17578,0.0094 2.05649,0.0013 2.4029,0.163363 0.87528,0.409591 1.18,1.471333 0.64979,2.26406 -0.15559,0.232635 -0.35311,0.408665 -0.59424,0.529587 -0.36631,0.183697 -0.20801,0.175935 -3.42788,0.168077 l -2.87742,-0.007 -0.19759,-0.06729 c -0.65197,-0.222027 -1.08772,-0.74069 -1.20963,-1.439766 -0.1244,-0.71336 0.0572,-1.802049 0.67732,-4.059948 0.0686,-0.249885 0.12477,-0.461614 0.12477,-0.470509 0,-0.01707 -3.59916,0.278439 -3.6139,0.296725 -0.005,0.0059 -0.0648,0.116235 -0.13341,0.245286 -0.35132,0.660382 -1.1055701,2.425761 -1.6725501,3.914773 -0.31198,0.81932 -0.33892,0.883258 -0.43924,1.04262 -0.20985,0.33335 -0.6094,0.621925 -0.98249,0.709594 -0.17557,0.04126 -0.54774,0.04683 -0.70391,0.01054 z m -2.95776,-6.961473 c -0.0343,-0.02695 -0.0693,-0.07689 -0.0779,-0.110966 -0.009,-0.03457 0.0296,-0.30825 0.0865,-0.61918 0.0561,-0.306473 0.096,-0.56329 0.0885,-0.570705 -0.007,-0.0074 -0.43694,0.08209 -0.9545,0.198909 -0.51756,0.116815 -0.96362,0.212391 -0.99124,0.212391 -0.0771,0 -0.14147,-0.04352 -0.18294,-0.123712 -0.0351,-0.06777 -0.03,-0.118868 0.0729,-0.733143 0.12028,-0.717945 0.13922,-0.770946 0.28767,-0.804788 0.0462,-0.01054 0.75984,-0.08591 1.58577,-0.167476 1.6368,-0.161653 1.57441,-0.161009 1.68072,-0.01736 l 0.0501,0.06769 -0.10542,0.607494 c -0.058,0.334122 -0.099,0.613934 -0.0911,0.621803 0.008,0.0079 0.35608,-0.0053 0.77381,-0.02922 1.06457,-0.06101 1.00381,-0.0614 1.07647,0.0068 0.0339,0.03185 0.0684,0.08455 0.0766,0.117111 0.0237,0.09434 -0.0466,0.229384 -0.13946,0.268146 -0.35765,0.149222 -3.05083,1.125207 -3.10495,1.125207 -0.0381,0 -0.0973,-0.02205 -0.13156,-0.04901 z m 2.24787,-3.132733 c -0.81156,-0.375999 -1.49757,-0.702716 -1.52448,-0.726037 -0.0623,-0.05398 -0.0883,-0.156787 -0.06,-0.23669 0.0146,-0.04101 0.17742,-0.173385 0.4779,-0.388404 0.2507,-0.179404 0.45907,-0.336014 0.46303,-0.348023 0.004,-0.01201 -0.37003,-0.259503 -0.8311,-0.549987 -0.46108,-0.290484 -0.8445,-0.544248 -0.85205,-0.563919 -0.0346,-0.09029 -0.012,-0.205654 0.0542,-0.276376 0.0374,-0.03989 0.29497,-0.234573 0.57249,-0.43262 0.35497,-0.253323 0.52464,-0.3600844 0.57226,-0.3600844 0.0522,0 0.33761,0.2179074 1.24905,0.9537254 0.64975,0.524548 1.21817,0.989453 1.26316,1.033121 0.089,0.08638 0.10985,0.193858 0.0567,0.292362 -0.0163,0.03016 -0.2507,0.210439 -0.52095,0.400621 -0.27026,0.190181 -0.49127,0.351341 -0.49113,0.358133 1.5e-4,0.0068 0.22313,0.206853 0.49554,0.44458 0.80961,0.706538 0.85964,0.756376 0.85964,0.856451 0,0.118009 -0.11201,0.230993 -0.22657,0.228541 -0.0529,-0.0011 -0.60749,-0.245145 -1.55772,-0.685394 z M 13.822536,5.7742356 c -1.87357,-0.275194 -2.99309,-2.215111 -2.29159,-3.970917 0.0816,-0.20433 0.19989,-0.414986 0.3557,-0.633648 0.1316,-0.184684 0.49549,-0.537407 0.69204,-0.670805 0.33536,-0.227605 0.76025,-0.399369 1.16042,-0.4691 0.29921,-0.05214 0.88049,-0.0334 1.16343,0.03749 1.16592,0.29215 2.01979,1.228539 2.19475,2.406845 0.0807,0.543318 0.0153,1.044656 -0.20537,1.573834 -0.23615,0.566391 -0.76213,1.131075 -1.32758,1.425252 -0.51468,0.267767 -1.18251,0.383193 -1.7418,0.301045 z"
     id="path2587" />
</svg>
