<?xml version="1.0" encoding="UTF-8" standalone="no"?>
<svg
   xmlns:dc="http://purl.org/dc/elements/1.1/"
   xmlns:cc="http://creativecommons.org/ns#"
   xmlns:rdf="http://www.w3.org/1999/02/22-rdf-syntax-ns#"
   xmlns:svg="http://www.w3.org/2000/svg"
   xmlns="http://www.w3.org/2000/svg"
   xmlns:sodipodi="http://sodipodi.sourceforge.net/DTD/sodipodi-0.dtd"
   xmlns:inkscape="http://www.inkscape.org/namespaces/inkscape"
   inkscape:version="1.0 (4035a4fb49, 2020-05-01)"
   height="24"
   width="24"
   sodipodi:docname="list-darts.svg"
   id="svg4"
   version="1.1"
   viewBox="2 2 24 24">
  <metadata
     id="metadata10">
    <rdf:RDF>
      <cc:Work
         rdf:about="">
        <dc:format>image/svg+xml</dc:format>
        <dc:type
           rdf:resource="http://purl.org/dc/dcmitype/StillImage" />
        <dc:title></dc:title>
      </cc:Work>
    </rdf:RDF>
  </metadata>
  <defs
     id="defs8" />
  <sodipodi:namedview
     inkscape:current-layer="svg4"
     inkscape:window-maximized="1"
     inkscape:window-y="-9"
     inkscape:window-x="-9"
     inkscape:cy="10"
     inkscape:cx="10"
     inkscape:zoom="50.4"
     showgrid="false"
     id="namedview6"
     inkscape:window-height="1361"
     inkscape:window-width="3440"
     inkscape:pageshadow="2"
     inkscape:pageopacity="0"
     guidetolerance="10"
     gridtolerance="10"
     objecttolerance="10"
     borderopacity="1"
     bordercolor="#666666"
     pagecolor="#ffffff" />
  <path
     style="stroke-width:1.2;fill:#5997e3;fill-opacity:1"
     id="path2"
     fill="#5997e3ff"
     d="M 22.484,5.516 20.792,7.208 C 22.52,8.948 23.6,11.348 23.6,14 A 9.6,9.6 0 0 1 14,23.6 9.6,9.6 0 0 1 4.4,14 C 4.4,9.104 8.06,5.072 12.8,4.484 V 6.908 C 9.392,7.484 6.8,10.436 6.8,14 A 7.2,7.2 0 0 0 14,21.2 7.2,7.2 0 0 0 21.2,14 c 0,-1.992 -0.804,-3.792 -2.112,-5.088 l -1.692,1.692 C 18.26,11.48 18.8,12.68 18.8,14 A 4.8,4.8 0 0 1 14,18.8 4.8,4.8 0 0 1 9.2,14 c 0,-2.232 1.536,-4.092 3.6,-4.632 v 2.568 C 12.08,12.356 11.6,13.112 11.6,14 A 2.4,2.4 0 0 0 14,16.4 2.4,2.4 0 0 0 16.4,14 c 0,-0.888 -0.48,-1.656 -1.2,-2.064 V 2 H 14 A 12,12 0 0 0 2,14 12,12 0 0 0 14,26 12,12 0 0 0 26,14 C 26,10.688 24.656,7.688 22.484,5.516 Z" />
</svg>
