<?xml version="1.0" encoding="UTF-8" standalone="no"?>
<svg
   xmlns:dc="http://purl.org/dc/elements/1.1/"
   xmlns:cc="http://creativecommons.org/ns#"
   xmlns:rdf="http://www.w3.org/1999/02/22-rdf-syntax-ns#"
   xmlns:svg="http://www.w3.org/2000/svg"
   xmlns="http://www.w3.org/2000/svg"
   xmlns:sodipodi="http://sodipodi.sourceforge.net/DTD/sodipodi-0.dtd"
   xmlns:inkscape="http://www.inkscape.org/namespaces/inkscape"
   inkscape:version="1.0 (4035a4fb49, 2020-05-01)"
   sodipodi:docname="list-floorball.svg"
   viewBox="0 0 24 24"
   height="24"
   width="24"
   id="svg1438"
   version="1.1">
  <metadata
     id="metadata1444">
    <rdf:RDF>
      <cc:Work
         rdf:about="">
        <dc:format>image/svg+xml</dc:format>
        <dc:type
           rdf:resource="http://purl.org/dc/dcmitype/StillImage" />
        <dc:title></dc:title>
      </cc:Work>
    </rdf:RDF>
  </metadata>
  <defs
     id="defs1442" />
  <sodipodi:namedview
     inkscape:current-layer="svg1438"
     inkscape:window-maximized="0"
     inkscape:window-y="0"
     inkscape:window-x="-8"
     inkscape:cy="25.664905"
     inkscape:cx="17.769817"
     inkscape:zoom="14.509831"
     showgrid="false"
     id="namedview1440"
     inkscape:window-height="1351"
     inkscape:window-width="1718"
     inkscape:pageshadow="2"
     inkscape:pageopacity="0"
     guidetolerance="10"
     gridtolerance="10"
     objecttolerance="10"
     borderopacity="1"
     bordercolor="#666666"
     pagecolor="#ffffff" />
  <path
     style="fill:#5997e3;stroke-width:0.0300133;fill-opacity:1"
     d="m 11.412041,23.992485 c -0.68585,-0.0525 -0.99105,-0.0859 -1.38061,-0.15116 -2.0328097,-0.34029 -3.9506497,-1.19906 -5.5499397,-2.48514 -0.95829,-0.77062 -1.77365,-1.66612 -2.46137,-2.7033 -0.39808,-0.60035 -0.57989,-0.91607 -0.84108,-1.46056 -0.68977005,-1.43793 -1.06363005,-2.91421 -1.16024005,-4.58146 -0.11645,-2.00971 0.31008,-4.07691 1.22169005,-5.92108 1.50184,-3.03816 4.24288,-5.32193 7.48536,-6.23664004 3.6118297,-1.0189 7.5025297,-0.29258 10.4896497,1.95822004 0.70264,0.52944 1.58979,1.38886 2.12672,2.06025 1.19295,1.49169 1.99255,3.16648 2.38581,4.99721 0.45729,2.12872 0.33724,4.27502 -0.35504,6.34781 -1.18712,3.5544 -3.96778,6.34327 -7.53575,7.558 -0.79255,0.26983 -1.85637,0.49803 -2.68443,0.57584 -0.35507,0.0334 -1.49458,0.0609 -1.74077,0.042 z m -1.8847797,-1.18925 c 0.12987,-0.0638 0.15152,-0.12711 0.0854,-0.24986 -0.22635,-0.42033 -1.68326,-1.0042 -2.50571,-1.0042 -0.71658,0 -0.60891,0.36197 0.23553,0.79181 0.79961,0.40703 1.84626,0.62847 2.18477,0.46225 z m 6.0763197,-0.27962 c 0.92575,-0.19474 2.06469,-0.81896 2.03108,-1.11319 -0.008,-0.0708 -0.0316,-0.0936 -0.12992,-0.1263 -0.10197,-0.0339 -0.16708,-0.0328 -0.43233,0.008 -0.81733,0.12461 -1.99029,0.68835 -2.17883,1.04718 l -0.06,0.11424 0.0709,0.0582 c 0.0895,0.0735 0.38333,0.0786 0.69917,0.0122 z m -2.62545,-1.69306 c 0.32603,-0.0794 0.60177,-0.21337 0.79275,-0.38508 0.46037,-0.41392 0.31581,-0.93564 -0.34693,-1.25209 -0.32422,-0.1548 -0.52422,-0.19773 -1.00646,-0.21602 -0.50345,-0.0191 -0.7771,0.0206 -1.15653,0.16762 -0.74841,0.29007 -0.9563,0.85242 -0.47706,1.29042 0.24962,0.22814 0.6059,0.3766 1.08777,0.45324 0.25468,0.0405 0.82453,0.0106 1.10646,-0.0581 z m -7.4036697,-2.07069 c 0.28477,-0.19961 0.28424,-0.73549 -0.001,-1.34685 -0.37126,-0.79476 -1.07825,-1.45294 -1.63437,-1.52151 -0.20248,-0.025 -0.39062,0.0695 -0.47848,0.24027 -0.087,0.1692 -0.0828,0.52342 0.01,0.82388 0.34535,1.12044 1.57543,2.17503 2.10444,1.80421 z m 13.9468797,-0.59099 c 0.8174,-0.40388 1.5859,-1.79823 1.38665,-2.51591 -0.0427,-0.15376 -0.19598,-0.30616 -0.334,-0.33205 -0.26343,-0.0494 -0.70234,0.18276 -1.05781,0.55958 -0.72578,0.76937 -1.07129,1.92119 -0.68445,2.28177 0.10536,0.0982 0.13937,0.11017 0.3215,0.11309 0.1126,0.002 0.20032,-0.0236 0.36811,-0.10648 z M 9.2811013,17.121885 c 0.58047,-0.12241 1.0624097,-0.56349 1.2369597,-1.13207 0.0657,-0.2139 0.0639,-0.61914 -0.004,-0.84848 -0.1552,-0.52696 -0.6127297,-0.96568 -1.1585497,-1.11093 -0.21719,-0.0578 -0.6207,-0.0564 -0.85082,0.003 -0.29798,0.0769 -0.56658,0.23577 -0.77692,0.45961 -0.31612,0.3364 -0.44295,0.6491 -0.44295,1.09203 0,1.00402 0.9723,1.7527 1.99588,1.53684 z m 6.1661597,-2.31588 c 0.42966,-0.11816 0.86064,-0.46806 1.04721,-0.85019 0.10136,-0.2076 0.18386,-0.53756 0.18386,-0.73533 0,-0.19777 -0.0825,-0.52773 -0.18386,-0.73533 -0.13188,-0.27011 -0.45177,-0.5858 -0.73763,-0.72794 -0.2852,-0.14182 -0.49157,-0.18167 -0.86097,-0.16626 -0.24329,0.0101 -0.3435,0.0293 -0.51251,0.0977 -0.39274,0.15909 -0.68472,0.41711 -0.86911,0.768 -0.67268,1.28012 0.52554,2.73642 1.93301,2.34933 z m 4.8744,-2.22664 c 0.32552,-0.16061 0.5796,-0.4907 0.73092,-0.94958 0.0698,-0.21165 0.0792,-0.28813 0.0792,-0.64529 0,-0.35716 -0.009,-0.43364 -0.0792,-0.64529 -0.153,-0.46398 -0.40522,-0.78889 -0.74097,-0.95453 -0.40824,-0.2014 -0.86191,-0.0985 -1.20592,0.27361 -0.31486,0.34054 -0.45656,0.75049 -0.4584,1.32621 -9.9e-4,0.31104 0.0108,0.41346 0.0687,0.59921 0.2817,0.90254 0.95197,1.31818 1.60564,0.99566 z M 1.4019313,12.245785 c 0.26675,-0.28556 0.42837,-1.11645 0.36357,-1.86923 -0.0492,-0.57165 -0.18422,-0.9802 -0.36778,-1.11289 -0.45296005,-0.32742 -0.84539005,1.20951 -0.60746005,2.37907 0.11918,0.5858 0.38394005,0.84683 0.61167005,0.60305 z m 4.68616,-0.42088 c 0.56731,-0.10519 1.08291,-0.61261 1.23959,-1.21991 0.0613,-0.23755 0.0613,-0.68419 0,-0.92175 -0.20936,-0.81148 -0.97479,-1.35256 -1.7331,-1.22511 -0.91648,0.15404 -1.52606,1.16173 -1.28142,2.1183 0.21957,0.8585 0.9828,1.39535 1.77493,1.24847 z m 16.7379197,-0.69072 c 0.0958,-0.10279 0.13225,-0.26971 0.14778,-0.67608 0.0458,-1.19723 -0.50173,-2.70639 -0.84444,-2.32771 -0.2943,0.3252 -0.15317,1.89156 0.24301,2.69711 0.16187,0.32913 0.32806,0.44148 0.45365,0.30668 z m -10.3635,-3.01629 c 0.65346,-0.1378 1.14159,-0.64768 1.17906,-1.2316 0.0525,-0.8175 -0.62488,-1.46022 -1.5369,-1.45835 -0.81301,0.002 -1.47064,0.55355 -1.51205,1.26891 -0.0237,0.40882 0.10176,0.72828 0.39742,1.01218 0.39413,0.37847 0.9218,0.52499 1.47247,0.40886 z M 3.7854213,7.190945 c 0.74842,-0.37479 1.4446,-1.39904 1.48113,-2.17909 0.0104,-0.22249 0.003,-0.27216 -0.0577,-0.38842 -0.1054,-0.20183 -0.20021,-0.25704 -0.43958,-0.256 -0.15447,6.7e-4 -0.24148,0.0199 -0.38037,0.0842 -0.73401,0.33978 -1.48649,1.39935 -1.53817,2.1659 -0.0429,0.63661 0.3397,0.87133 0.93466,0.57338 z M 18.778691,6.612935 c 0.38116,-0.15571 0.55423,-0.5745 0.45371,-1.09788 -0.0826,-0.43011 -0.42871,-0.96429 -0.81783,-1.26225 -0.66898,-0.51226 -1.38151,-0.49767 -1.65118,0.0338 -0.10458,0.20611 -0.13081,0.38913 -0.0932,0.65019 0.078,0.54088 0.45581,1.11903 0.94301,1.44292 0.43134,0.28676 0.83612,0.36775 1.16547,0.2332 z M 9.4201913,3.142355 c 0.6684397,-0.17603 1.2106097,-0.51173 1.3915397,-0.86163 0.063,-0.12184 0.0646,-0.34096 0.003,-0.43473 -0.38716,-0.59087 -2.2025397,-0.41502 -3.0046897,0.29106 -0.4193,0.36908 -0.42485,0.75219 -0.0139,0.96147 0.2353,0.11984 0.37748,0.14069 0.88456,0.12972 0.36403,-0.008 0.50555,-0.0243 0.73936,-0.0859 z m 6.5560597,-1.22867 c 0.14839,-0.0793 0.17644,-0.12811 0.13336,-0.23213 -0.13583,-0.32793 -1.28673,-0.72799004 -2.22147,-0.77220004 -0.68884,-0.0326 -1.0103,0.11992004 -0.79419,0.37675004 0.20127,0.2392 0.85368,0.4959 1.61955,0.63724 0.39046,0.072 1.12026,0.0665 1.26275,-0.01 z"
     id="path2011" />
</svg>
