<?xml version="1.0" encoding="UTF-8" standalone="no"?>
<svg
   xmlns:dc="http://purl.org/dc/elements/1.1/"
   xmlns:cc="http://creativecommons.org/ns#"
   xmlns:rdf="http://www.w3.org/1999/02/22-rdf-syntax-ns#"
   xmlns:svg="http://www.w3.org/2000/svg"
   xmlns="http://www.w3.org/2000/svg"
   xmlns:sodipodi="http://sodipodi.sourceforge.net/DTD/sodipodi-0.dtd"
   xmlns:inkscape="http://www.inkscape.org/namespaces/inkscape"
   inkscape:version="1.0 (4035a4fb49, 2020-05-01)"
   sodipodi:docname="list-football.svg"
   id="svg14"
   xml:space="preserve"
   viewBox="0 0 32 32"
   height="32"
   width="32"
   version="1.1"><metadata
   id="metadata18"><rdf:RDF><cc:Work
       rdf:about=""><dc:format>image/svg+xml</dc:format><dc:type
         rdf:resource="http://purl.org/dc/dcmitype/StillImage" /><dc:title></dc:title></cc:Work></rdf:RDF></metadata><sodipodi:namedview
   inkscape:current-layer="svg14"
   inkscape:window-maximized="1"
   inkscape:window-y="-9"
   inkscape:window-x="-9"
   inkscape:cy="19.452832"
   inkscape:cx="60.287145"
   inkscape:zoom="10.559461"
   showgrid="false"
   id="namedview16"
   inkscape:window-height="1361"
   inkscape:window-width="3440"
   inkscape:pageshadow="2"
   inkscape:pageopacity="0"
   guidetolerance="10"
   gridtolerance="10"
   objecttolerance="10"
   borderopacity="1"
   bordercolor="#666666"
   pagecolor="#ffffff" />
<desc
   id="desc2">Created with Fabric.js 5.2.4</desc>
<defs
   id="defs4">
</defs>



<path
   style="opacity:1;fill:#5997e3;fill-rule:nonzero;stroke:none;stroke-width:1.6;stroke-linecap:butt;stroke-linejoin:miter;stroke-miterlimit:4;stroke-dasharray:none;stroke-dashoffset:0;fill-opacity:1"
   d="M 16,0 C 7.163444,0 0,7.163444 0,16 0,24.83656 7.163444,32 16,32 24.83656,32 32,24.83656 32,16 32,7.163444 24.83656,0 16,0 m 0,1.6 c 2.816,0 5.44,0.848 7.648,2.256 L 23.2,4.8 H 17.6 16 L 13.248,3.456 13.808,1.808 C 14.528,1.68 15.248,1.6 16,1.6 m -3.952,0.608 -0.544,1.648 -4.096,2.048 -2,0.4 C 7.2,4.368 9.472,2.944 12.048,2.208 M 17.6,6.4 h 4.8 l 4.304,5.744 -2,4.112 -4.208,0.992 L 15.248,11.104 17.6,6.4 M 6.656,7.456 8,12.8 6.048,17.696 1.952,19.104 C 1.728,18.096 1.6,17.072 1.6,16 1.6,12.96 2.544,10.176 4.144,7.856 l 2.512,-0.4 m 23.04,4.096 C 30.16,12.944 30.4,14.448 30.4,16 c 0,2.304 -0.592,4.464 -1.552,6.4 H 27.2 l -1.344,-5.344 2.4,-4.8 1.44,-0.704 M 9.6,12.8 h 4.8 L 18.896,18.048 16,22.4 10.944,23.648 7.248,18.704 9.6,12.8 M 16,24 l 4.8,3.2 -1.392,2.752 C 18.304,30.208 17.168,30.4 16,30.4 13.2,30.4 10.608,29.6 8.4,28.208 L 10.256,25.456 16,24 m 11.2,0 H 28 c -1.6,2.4 -4,4.272 -6.704,5.344 L 22.4,27.2 Z"
   stroke-linecap="round"
   id="path10" /></svg>
