<?xml version="1.0" encoding="UTF-8" standalone="no"?>
<svg
   xmlns:dc="http://purl.org/dc/elements/1.1/"
   xmlns:cc="http://creativecommons.org/ns#"
   xmlns:rdf="http://www.w3.org/1999/02/22-rdf-syntax-ns#"
   xmlns:svg="http://www.w3.org/2000/svg"
   xmlns="http://www.w3.org/2000/svg"
   xmlns:sodipodi="http://sodipodi.sourceforge.net/DTD/sodipodi-0.dtd"
   xmlns:inkscape="http://www.inkscape.org/namespaces/inkscape"
   inkscape:version="1.0 (4035a4fb49, 2020-05-01)"
   sodipodi:docname="list-horse-racing.svg"
   viewBox="0 0 24.000001 24.000001"
   height="24"
   width="24"
   id="svg834"
   version="1.1">
  <metadata
     id="metadata840">
    <rdf:RDF>
      <cc:Work
         rdf:about="">
        <dc:format>image/svg+xml</dc:format>
        <dc:type
           rdf:resource="http://purl.org/dc/dcmitype/StillImage" />
        <dc:title></dc:title>
      </cc:Work>
    </rdf:RDF>
  </metadata>
  <defs
     id="defs838" />
  <sodipodi:namedview
     inkscape:current-layer="svg834"
     inkscape:window-maximized="0"
     inkscape:window-y="0"
     inkscape:window-x="-8"
     inkscape:cy="10.723567"
     inkscape:cx="7.7600566"
     inkscape:zoom="24.046876"
     showgrid="false"
     id="namedview836"
     inkscape:window-height="1351"
     inkscape:window-width="1718"
     inkscape:pageshadow="2"
     inkscape:pageopacity="0"
     guidetolerance="10"
     gridtolerance="10"
     objecttolerance="10"
     borderopacity="1"
     bordercolor="#666666"
     pagecolor="#ffffff" />
  <path
     style="fill:#5997e3;stroke-width:0.0234705;fill-opacity:1"
     d="m 11.071729,18.406681 c -0.20963,-0.0976 -0.3159,-0.26908 -0.3159,-0.50968 0,-0.2289 0.12983,-0.4249 0.34459,-0.52025 0.0489,-0.0217 0.37714,-0.0324 1.26006,-0.0411 l 1.19391,-0.0117 0.46662,-1.32218 c 0.25665,-0.7272 0.46663,-1.33499 0.46663,-1.35064 0,-0.017 -0.0684,-0.0401 -0.17016,-0.0575 -0.47735,-0.0814 -1.28002,-0.28976 -1.82736,-0.47426 -0.71878,-0.24227 -1.47566,-0.58399 -2.01325,-0.90893 l -0.26721,-0.16151 -0.7775705,0.47111 c -0.42765,0.2591 -1.17039,0.70874 -1.65054,0.99918 -0.48014,0.29046 -0.872576,0.53337 -0.872076,0.53983 5e-4,0.006 0.554506,0.5187 1.231126,1.13832 1.45675,1.33403 1.45587,1.33318 1.5166,1.45223 0.0595,0.11653 0.0637,0.3203 0.009,0.44888 -0.0515,0.12184 -0.16586,0.24104 -0.28375,0.29573 -0.11215,0.0521 -0.33223,0.0584 -0.44146,0.0128 -0.0995,-0.0416 -0.0712,-0.0162 -1.997336,-1.78698 -1.078823,-0.99178 -1.655889,-1.5378 -1.649562,-1.56079 0.0054,-0.0195 0.380225,-0.61524 0.833052,-1.32398 l 0.82332,-1.2886 -0.105714,-0.13739 c -0.151982,-0.19751 -0.301526,-0.49189 -0.373662,-0.73556 -0.07668,-0.259 -0.102994,-0.6906 -0.05882,-0.96445 0.01576,-0.0977 0.02293,-0.1834 0.01593,-0.1904 -0.02648,-0.0265 -0.468748,0.066 -0.650097,0.13592 -0.444731,0.17151 -0.699366,0.4521 -1.069074,1.17806 -0.198499,0.38978 -0.274914,0.51623 -0.372078,0.61576 -0.193991,0.1987 -0.208299,0.20085 -1.289856,0.19355 l -0.911469,-0.006 0.390973,-0.17424 c 0.215035,-0.0958 0.382772,-0.18162 0.37275,-0.19066 -0.01002,-0.009 -0.666417,-0.16826 -1.458654,-0.35385 l -1.44043,-0.33742 1.428695,-0.0117 c 1.395949,-0.0115 1.431174,-0.0129 1.536893,-0.0618 0.06597,-0.0305 0.230849,-0.16697 0.422469,-0.34968 0.373296,-0.35592 0.560626,-0.49371 0.882551,-0.64914 0.43788,-0.2114 0.99,-0.31386 1.833601,-0.34027 l 0.4773,-0.0149 0.02213,-0.0582 c 0.04549,-0.11963 0.280688,-0.45232 0.414119,-0.58575 0.362749,-0.36275 0.885349,-0.61533 1.354499,-0.65466 0.23617,-0.0198 1.51161,0.0334 3.2513705,0.13548 l 0.48115,0.0282 0.50461,-0.36014 c 1.12841,-0.80531 1.80367,-1.21549 2.08621,-1.26724 0.48161,-0.0882 0.930509,0.10069 1.11784,0.47038 0.058,0.11451 0.12156,0.44713 0.283659,1.48506 0.008,0.0491 0.0214,0.086 0.0306,0.0821 0.009,-0.004 0.637739,-0.39717 1.396829,-0.87397 l 1.38015,-0.8669 -0.192509,-0.0525 c -0.197281,-0.0539 -0.25402,-0.0797 -0.17455,-0.0794 0.10767,3.3e-4 0.690969,-0.10345 0.66285,-0.11794 -0.0171,-0.009 -0.17632,-0.0565 -0.35381,-0.10594 -0.1775,-0.0495 -0.3227,-0.0959 -0.32266,-0.10324 0,-0.007 0.42251,-0.0818 0.93882,-0.16544 0.8826,-0.143 0.93876,-0.15499 0.93876,-0.20039 0,-0.0266 -0.0158,-0.17463 -0.035,-0.32905 -0.0193,-0.15441 -0.0351,-0.29117 -0.0352,-0.3039 -1.8e-4,-0.0127 0.14517,0.12192 0.32283,0.29924 0.3014,0.30082 0.32899,0.32241 0.41208,0.32241 0.23724,0 0.24972,0.009 0.86313,0.62979 0.31469,0.31841 0.90919,0.91885 1.32111,1.33428 l 0.74895,0.75535 -0.014,0.13546 c -0.0316,0.30598 -0.26847,0.6272196 -0.51695,0.7010096 -0.21982,0.0653 -0.34955,0.0457 -0.70817,-0.10686 -0.24345,-0.10357 -0.51756,-0.1629 -1.07963,-0.2336696 -0.66006,-0.0831 -1.03353,-0.17497 -1.24663,-0.30668 l -0.0777,-0.048 -0.40773,0.5118496 c -0.40173,0.5043 -0.9703,1.25807 -1.21001,1.60416 -0.10732,0.15494 -0.12833,0.20513 -0.16878,0.40316 -0.22634,1.10796 -0.89586,1.94041 -1.88837,2.34793 -0.10327,0.0424 -0.19927,0.0844 -0.21333,0.0933 -0.0141,0.009 -0.52038,0.88796 -1.12517,1.95346 l -1.09959,1.93726 -1.52701,-2.2e-4 -1.527,-2.3e-4 z m 5.54517,-0.3893 c -0.67079,-0.2015 -0.73396,-0.23445 -0.83828,-0.43717 -0.18842,-0.3662 0.0849,-0.80712 0.50063,-0.80773 0.0495,-7e-5 0.24052,0.0437 0.42448,0.0972 l 0.33448,0.0973 0.42549,-0.32615 c 0.23401,-0.1794 0.42586,-0.33502 0.42632,-0.34583 4.6e-4,-0.0108 -0.23756,-0.30057 -0.52894,-0.64391 l -0.5298,-0.62427 0.27432,-0.13652 c 0.15086,-0.0751 0.37238,-0.20444 0.49226,-0.28744 l 0.21794,-0.15089 0.83862,0.98704 c 0.46124,0.54288 0.83987,1.00031 0.84139,1.01652 0.003,0.0327 -2.2086,1.74997 -2.24869,1.74604 -0.0138,-0.001 -0.29744,-0.0843 -0.63022,-0.18421 z m -7.2617605,-1.68278 c -0.64596,-0.46552 -1.21039,-0.89049 -1.32971,-1.00115 l -0.20732,-0.19229 0.66499,-0.40133 c 0.36576,-0.22074 0.90289,-0.54563 1.19366,-0.722 l 0.5286605,-0.32066 0.2248,0.1235 c 0.12365,0.0679 0.33198,0.17587 0.46297,0.2399 0.131,0.064 0.238,0.12212 0.23779,0.12909 -2.1e-4,0.007 -0.34253,0.21863 -0.7607,0.47035 -0.7021205,0.42265 -0.7573205,0.46055 -0.7213305,0.49531 0.0214,0.0207 0.4772905,0.35268 1.0130005,0.73775 0.53572,0.38507 1.03211,0.74308 1.10311,0.79558 l 0.12909,0.0954 -0.42247,0.0129 c -0.49056,0.015 -0.59398,0.0436 -0.84521,0.23375 l -0.14895,0.11274 z M 16.635199,7.6328414 c -0.30213,-0.096 -0.53234,-0.29474 -0.66512,-0.57432 -0.19988,-0.42091 -0.0901,-0.95833 0.25646,-1.25497 0.23607,-0.20208 0.58352,-0.30337 0.86947,-0.25346 0.58208,0.1016 0.99044,0.66383 0.89007,1.22547 -0.0726,0.40628 -0.34996,0.72717 -0.73106,0.84577 -0.16638,0.0518 -0.47497,0.0575 -0.61982,0.0115 z"
     id="path1407" />
</svg>
