<?xml version="1.0" encoding="UTF-8" standalone="no"?>
<svg
   xmlns:dc="http://purl.org/dc/elements/1.1/"
   xmlns:cc="http://creativecommons.org/ns#"
   xmlns:rdf="http://www.w3.org/1999/02/22-rdf-syntax-ns#"
   xmlns:svg="http://www.w3.org/2000/svg"
   xmlns="http://www.w3.org/2000/svg"
   xmlns:sodipodi="http://sodipodi.sourceforge.net/DTD/sodipodi-0.dtd"
   xmlns:inkscape="http://www.inkscape.org/namespaces/inkscape"
   inkscape:version="1.0 (4035a4fb49, 2020-05-01)"
   height="24"
   width="24"
   sodipodi:docname="list-biathlon.svg"
   id="svg4"
   version="1.1"
   viewBox="3 2.04 24 24.000001">
  <metadata
     id="metadata10">
    <rdf:RDF>
      <cc:Work
         rdf:about="">
        <dc:format>image/svg+xml</dc:format>
        <dc:type
           rdf:resource="http://purl.org/dc/dcmitype/StillImage" />
        <dc:title></dc:title>
      </cc:Work>
    </rdf:RDF>
  </metadata>
  <defs
     id="defs8" />
  <sodipodi:namedview
     inkscape:current-layer="svg4"
     inkscape:window-maximized="0"
     inkscape:window-y="-9"
     inkscape:window-x="-9"
     inkscape:cy="16.672157"
     inkscape:cx="8.6068623"
     inkscape:zoom="12.850702"
     showgrid="false"
     id="namedview6"
     inkscape:window-height="1361"
     inkscape:window-width="1720"
     inkscape:pageshadow="2"
     inkscape:pageopacity="0"
     guidetolerance="10"
     gridtolerance="10"
     objecttolerance="10"
     borderopacity="1"
     bordercolor="#666666"
     pagecolor="#ffffff" />
  <path
     style="stroke-width:1.2024;fill:#5997e3;fill-opacity:1"
     id="path2"
     fill="#5997e3ff"
     d="m 16.358718,3.9638477 c 0.925851,0 1.683366,0.757515 1.683366,1.6833667 0,0.9258517 -0.757515,1.6833668 -1.683366,1.6833668 -0.925852,0 -1.659319,-0.7575151 -1.659319,-1.6833668 0,-0.9258517 0.733467,-1.6833667 1.659319,-1.6833667 m 2.549098,11.2545093 h 1.803607 v 7.214429 h -1.803607 v -7.214429 m 0,-5.4108219 h 1.803607 V 11.611142 H 18.907816 V 9.8075351 M 12.943888,2.7133467 10.490982,2.04 8.1583167,9.9037275 5.5611223,13.318557 9.4929861,14.460842 12.943888,2.7133467 M 24.523046,21.891703 c -0.432866,0.456914 -0.9499,1.142285 -1.527054,1.382766 -0.589178,0.264529 -1.034068,0.360721 -1.683367,0.360721 h -4.208416 l -0.08417,-3.607214 c -0.01202,-0.204409 -0.07214,-0.396794 -0.180361,-0.601202 l -2.88577,-5.122245 1.058116,-3.294589 c 0.697395,1.262525 1.490982,2.681363 1.563126,2.801603 0.180361,0.204409 0.468938,0.360722 0.757515,0.360722 h 2.657315 a 0.9739479,0.9739479 0 0 0 0.973948,-0.973948 c 0,-0.50501 -0.396794,-0.913828 -0.901804,-0.9499 L 18.054108,12.092104 15.781563,8.0039279 c 0,0 -0.480962,-0.6973948 -1.51503,-0.6973948 -1.046092,0 -1.370741,0.50501 -1.57515,1.2024048 L 8.0861724,23.63519 H 4.478958 V 26.04 h 16.833667 c 1.647295,0 3.042085,-0.793587 4.208417,-1.95992 L 24.523046,21.891703 M 12.59519,16.889699 14.843687,20.496914 15,23.63519 h -4.809619 z" />
</svg>
