<?xml version="1.0" encoding="UTF-8" standalone="no"?>
<svg
   xmlns:dc="http://purl.org/dc/elements/1.1/"
   xmlns:cc="http://creativecommons.org/ns#"
   xmlns:rdf="http://www.w3.org/1999/02/22-rdf-syntax-ns#"
   xmlns:svg="http://www.w3.org/2000/svg"
   xmlns="http://www.w3.org/2000/svg"
   xmlns:sodipodi="http://sodipodi.sourceforge.net/DTD/sodipodi-0.dtd"
   xmlns:inkscape="http://www.inkscape.org/namespaces/inkscape"
   inkscape:version="1.0 (4035a4fb49, 2020-05-01)"
   height="24"
   width="24"
   sodipodi:docname="list-speedway.svg"
   id="svg4"
   version="1.1"
   viewBox="-0.0323809 64 24.000001 24">
  <metadata
     id="metadata10">
    <rdf:RDF>
      <cc:Work
         rdf:about="">
        <dc:format>image/svg+xml</dc:format>
        <dc:type
           rdf:resource="http://purl.org/dc/dcmitype/StillImage" />
        <dc:title></dc:title>
      </cc:Work>
    </rdf:RDF>
  </metadata>
  <defs
     id="defs8" />
  <sodipodi:namedview
     inkscape:current-layer="svg4"
     inkscape:window-maximized="1"
     inkscape:window-y="-9"
     inkscape:window-x="-9"
     inkscape:cy="192"
     inkscape:cx="320.04999"
     inkscape:zoom="2.6089674"
     showgrid="false"
     id="namedview6"
     inkscape:window-height="1361"
     inkscape:window-width="3440"
     inkscape:pageshadow="2"
     inkscape:pageopacity="0"
     guidetolerance="10"
     gridtolerance="10"
     objecttolerance="10"
     borderopacity="1"
     bordercolor="#666666"
     pagecolor="#ffffff" />
  <path
     style="stroke-width:0.037492;fill:#5997e3;fill-opacity:1"
     id="path2"
     fill="#5997e3ff"
     d="m 19.198467,73.600396 c -0.55863,-0.0037 -1.091016,0.08623 -1.589659,0.258695 l -1.233486,-2.05831 h 3.089338 c 0.498644,0 0.899808,-0.401164 0.899808,-0.899807 V 69.70123 c 0,-0.498643 -0.401164,-0.899807 -0.899808,-0.899807 h -1.698386 c -0.254945,0 -0.498643,0.108727 -0.667357,0.296187 l -1.405949,1.563415 -0.854817,-1.424695 c -0.164965,-0.269942 -0.457402,-0.434907 -0.772335,-0.434907 h -2.999358 c -0.329929,0 -0.599872,0.269942 -0.599872,0.599872 v 0.599871 c 0,0.32993 0.269943,0.599872 0.599872,0.599872 h 2.489467 l 0.719846,1.199743 H 8.5132542 C 7.8496462,70.934716 6.8298645,70.301102 4.7678058,70.301102 H 2.6870012 c -0.5061417,0 -0.929801,0.412412 -0.9185534,0.918553 0.0075,0.487396 0.4086625,0.881062 0.8998074,0.881062 h 2.0995506 c 0.9185534,0 1.4509395,0.408662 1.7921165,0.929801 L 6.136263,73.799103 C 5.6488673,73.652885 5.1277288,73.585399 4.5878444,73.604145 c -2.52321,0.08998 -4.55902423,2.155789 -4.61901139,4.682748 -0.05998717,2.703171 2.11079819,4.911449 4.79897279,4.911449 2.2345218,0 4.1128698,-1.529673 4.649005,-3.59923 h 3.1568242 c 0.51364,0 0.922303,-0.427409 0.899808,-0.941049 -0.07873,-1.765872 0.656109,-3.512998 2.107049,-4.686497 l 0.46865,0.779834 c -1.034779,0.888559 -1.690889,2.208277 -1.679641,3.681712 0.01875,2.609441 2.144541,4.742734 4.753983,4.76523 2.684425,0.02624 4.866458,-2.155789 4.843963,-4.840214 -0.02624,-2.609442 -2.159538,-4.738986 -4.76898,-4.757732 z M 4.7678058,81.398727 c -1.6533961,0 -2.999358,-1.345962 -2.999358,-2.999358 0,-1.653396 1.3459619,-2.999358 2.999358,-2.999358 0.1574663,0 0.3149326,0.01125 0.4686497,0.03749 L 3.6805386,78.264396 C 3.3506092,78.864267 3.7855161,79.59911 4.46787,79.59911 H 7.5159677 C 7.0510672,80.656386 5.9937934,81.398727 4.7678058,81.398727 Z M 22.160334,78.564333 c -0.08248,1.522175 -1.31222,2.751911 -2.830645,2.830645 -1.72838,0.09373 -3.164322,-1.285975 -3.164322,-2.995609 0,-0.802329 0.314932,-1.529673 0.828572,-2.065808 l 1.852104,3.089339 c 0.168714,0.284939 0.539884,0.374919 0.824823,0.206206 l 0.51364,-0.307435 c 0.284939,-0.168714 0.37492,-0.539884 0.206206,-0.824823 l -1.82211,-3.033101 c 0.194959,-0.04124 0.393666,-0.05999 0.596123,-0.05999 1.709634,-0.0037 3.085589,1.432193 2.995609,3.160573 z" />
</svg>
