<?xml version="1.0" encoding="UTF-8" standalone="no"?>
<svg
   xmlns:dc="http://purl.org/dc/elements/1.1/"
   xmlns:cc="http://creativecommons.org/ns#"
   xmlns:rdf="http://www.w3.org/1999/02/22-rdf-syntax-ns#"
   xmlns:svg="http://www.w3.org/2000/svg"
   xmlns="http://www.w3.org/2000/svg"
   xmlns:sodipodi="http://sodipodi.sourceforge.net/DTD/sodipodi-0.dtd"
   xmlns:inkscape="http://www.inkscape.org/namespaces/inkscape"
   inkscape:version="1.0 (4035a4fb49, 2020-05-01)"
   sodipodi:docname="list-football.svg"
   id="svg14"
   xml:space="preserve"
   viewBox="0 0 24 24"
   height="24"
   width="24"
   version="1.1"><metadata
   id="metadata18"><rdf:RDF><cc:Work
       rdf:about=""><dc:format>image/svg+xml</dc:format><dc:type
         rdf:resource="http://purl.org/dc/dcmitype/StillImage" /><dc:title></dc:title></cc:Work></rdf:RDF></metadata><sodipodi:namedview
   inkscape:current-layer="svg14"
   inkscape:window-maximized="1"
   inkscape:window-y="-9"
   inkscape:window-x="-9"
   inkscape:cy="19.452832"
   inkscape:cx="60.287145"
   inkscape:zoom="10.559461"
   showgrid="false"
   id="namedview16"
   inkscape:window-height="1361"
   inkscape:window-width="3440"
   inkscape:pageshadow="2"
   inkscape:pageopacity="0"
   guidetolerance="10"
   gridtolerance="10"
   objecttolerance="10"
   borderopacity="1"
   bordercolor="#666666"
   pagecolor="#ffffff" />
<desc
   id="desc2">Created with Fabric.js 5.2.4</desc>
<defs
   id="defs4">
</defs>



<path
   style="opacity:1;fill:#5997e3;fill-opacity:1;fill-rule:nonzero;stroke:none;stroke-width:1.2;stroke-linecap:butt;stroke-linejoin:miter;stroke-miterlimit:4;stroke-dasharray:none;stroke-dashoffset:0"
   d="M 12,0 C 5.372583,0 0,5.372583 0,12 0,18.62742 5.372583,24 12,24 18.62742,24 24,18.62742 24,12 24,5.372583 18.62742,0 12,0 m 0,1.2 c 2.112,0 4.08,0.636 5.736,1.692 L 17.4,3.6 H 13.2 12 L 9.936,2.592 10.356,1.356 C 10.896,1.26 11.436,1.2 12,1.2 M 9.036,1.656 8.628,2.892 5.556,4.428 l -1.5,0.3 C 5.4,3.276 7.104,2.208 9.036,1.656 M 13.2,4.8 h 3.6 l 3.228,4.308 -1.5,3.084 -3.156,0.744 L 11.436,8.328 13.2,4.8 M 4.992,5.592 6,9.6 4.536,13.272 1.464,14.328 C 1.296,13.572 1.2,12.804 1.2,12 1.2,9.72 1.908,7.632 3.108,5.892 l 1.884,-0.3 m 17.28,3.072 C 22.62,9.708 22.8,10.836 22.8,12 c 0,1.728 -0.444,3.348 -1.164,4.8 H 20.4 l -1.008,-4.008 1.8,-3.6 1.08,-0.528 M 7.2,9.6 h 3.6 L 14.172,13.536 12,16.8 8.208,17.736 5.436,14.028 7.2,9.6 m 4.8,8.4 3.6,2.4 -1.044,2.064 C 13.728,22.656 12.876,22.8 12,22.8 9.9,22.8 7.956,22.2 6.3,21.156 L 7.692,19.092 12,18 m 8.4,0 H 21 c -1.2,1.8 -3,3.204 -5.028,4.008 L 16.8,20.4 Z"
   stroke-linecap="round"
   id="path10" /></svg>
