<?xml version="1.0" encoding="UTF-8" standalone="no"?>
<svg
   xmlns:dc="http://purl.org/dc/elements/1.1/"
   xmlns:cc="http://creativecommons.org/ns#"
   xmlns:rdf="http://www.w3.org/1999/02/22-rdf-syntax-ns#"
   xmlns:svg="http://www.w3.org/2000/svg"
   xmlns="http://www.w3.org/2000/svg"
   xmlns:sodipodi="http://sodipodi.sourceforge.net/DTD/sodipodi-0.dtd"
   xmlns:inkscape="http://www.inkscape.org/namespaces/inkscape"
   inkscape:version="1.0 (4035a4fb49, 2020-05-01)"
   height="24"
   width="24"
   sodipodi:docname="list-aussie-rules.svg"
   id="svg4"
   version="1.1"
   viewBox="3.92249 3.92249 24 24">
  <metadata
     id="metadata10">
    <rdf:RDF>
      <cc:Work
         rdf:about="">
        <dc:format>image/svg+xml</dc:format>
        <dc:type
           rdf:resource="http://purl.org/dc/dcmitype/StillImage" />
        <dc:title></dc:title>
      </cc:Work>
    </rdf:RDF>
  </metadata>
  <defs
     id="defs8" />
  <sodipodi:namedview
     inkscape:current-layer="svg4"
     inkscape:window-maximized="1"
     inkscape:window-y="-9"
     inkscape:window-x="-9"
     inkscape:cy="8.0799999"
     inkscape:cx="8.0799999"
     inkscape:zoom="62.376238"
     showgrid="false"
     id="namedview6"
     inkscape:window-height="1361"
     inkscape:window-width="3440"
     inkscape:pageshadow="2"
     inkscape:pageopacity="0"
     guidetolerance="10"
     gridtolerance="10"
     objecttolerance="10"
     borderopacity="1"
     bordercolor="#666666"
     pagecolor="#ffffff" />
  <path
     style="stroke-width:1.48561;fill:#5997e3;fill-opacity:1"
     id="path2"
     fill="#5997e3ff"
     d="M 9.2372621,9.2372621 C 11.718225,6.815724 14.86771,5.0627087 17.957771,4.3050495 c 6.878356,-1.7530153 11.335175,2.7038033 9.58216,9.5821605 -0.75766,3.090061 -2.510675,6.239546 -4.932213,8.720508 -2.480962,2.421538 -5.630447,4.174553 -8.720508,4.932213 C 7.0088528,29.292946 2.5520342,24.836127 4.3050495,17.957771 5.0627087,14.86771 6.815724,11.718225 9.2372621,9.2372621 m 4.6350919,5.5858799 -0.534819,0.534818 3.149486,3.149485 0.534818,-0.534818 -3.149485,-3.149485 m 1.485606,-1.485607 -0.534818,0.534819 3.149485,3.149485 0.534818,-0.534818 -3.149485,-3.149486 m -2.971213,2.971213 -0.534818,0.534818 3.149485,3.149485 0.534819,-0.534818 -3.149486,-3.149485 m 4.471675,-4.427107 -0.519962,0.519963 3.149485,3.149485 0.519962,-0.519963 -3.149485,-3.149485 m -5.942425,5.942425 -0.519962,0.519962 3.149485,3.149485 0.519962,-0.519962 -3.149485,-3.149485 m 7.428031,-7.428031 -0.519962,0.519962 3.149485,3.149485 0.519962,-0.519962 z" />
</svg>
