<?xml version="1.0" encoding="UTF-8" standalone="no"?>
<svg
   xmlns:dc="http://purl.org/dc/elements/1.1/"
   xmlns:cc="http://creativecommons.org/ns#"
   xmlns:rdf="http://www.w3.org/1999/02/22-rdf-syntax-ns#"
   xmlns:svg="http://www.w3.org/2000/svg"
   xmlns="http://www.w3.org/2000/svg"
   xmlns:sodipodi="http://sodipodi.sourceforge.net/DTD/sodipodi-0.dtd"
   xmlns:inkscape="http://www.inkscape.org/namespaces/inkscape"
   inkscape:version="1.0 (4035a4fb49, 2020-05-01)"
   height="24"
   width="24"
   sodipodi:docname="list-chess.svg"
   id="svg4"
   version="1.1"
   viewBox="3.86067e-07 0 24 24">
  <metadata
     id="metadata10">
    <rdf:RDF>
      <cc:Work
         rdf:about="">
        <dc:format>image/svg+xml</dc:format>
        <dc:type
           rdf:resource="http://purl.org/dc/dcmitype/StillImage" />
        <dc:title></dc:title>
      </cc:Work>
    </rdf:RDF>
  </metadata>
  <defs
     id="defs8" />
  <sodipodi:namedview
     inkscape:current-layer="svg4"
     inkscape:window-maximized="1"
     inkscape:window-y="-9"
     inkscape:window-x="-9"
     inkscape:cy="256"
     inkscape:cx="256"
     inkscape:zoom="1.96875"
     showgrid="false"
     id="namedview6"
     inkscape:window-height="1361"
     inkscape:window-width="3440"
     inkscape:pageshadow="2"
     inkscape:pageopacity="0"
     guidetolerance="10"
     gridtolerance="10"
     objecttolerance="10"
     borderopacity="1"
     bordercolor="#666666"
     pagecolor="#ffffff" />
  <path
     style="stroke-width:0.046875;fill:#5997e3;fill-opacity:1"
     id="path2"
     fill="#5997e3ff"
     d="m 3.4687504,9.75 h -0.46875 a 0.75,0.75 0 0 0 -0.75,0.75 v 0.75 a 0.75,0.75 0 0 0 0.75,0.75 h 0.7471875 a 25.114687,25.114687 0 0 1 -0.7471875,6 h 6 A 25.114687,25.114687 0 0 1 8.2528129,12 h 0.7471875 a 0.75,0.75 0 0 0 0.75,-0.75 V 10.5 a 0.75,0.75 0 0 0 -0.75,-0.75 h -0.46875 L 10.119844,5.5134375 A 0.75,0.75 0 0 0 9.4167191,4.5 H 6.7500004 V 3 h 1.125 a 0.375,0.375 0 0 0 0.375,-0.375 v -0.75 a 0.375,0.375 0 0 0 -0.375,-0.375 h -1.125 V 0.375 A 0.375,0.375 0 0 0 6.3750004,0 h -0.75 a 0.375,0.375 0 0 0 -0.375,0.375 V 1.5 h -1.125 a 0.375,0.375 0 0 0 -0.375,0.375 v 0.75 a 0.375,0.375 0 0 0 0.375,0.375 h 1.125 V 4.5 H 2.5823441 A 0.75,0.75 0 0 0 1.8792191,5.5134375 Z M 11.585625,21.542812 10.5,21 V 20.25 A 0.75,0.75 0 0 0 9.7500004,19.5 h -7.5 a 0.75,0.75 0 0 0 -0.75,0.75 V 21 L 0.41484413,21.542812 A 0.75,0.75 0 0 0 3.8447771e-7,22.213594 V 23.25 A 0.75,0.75 0 0 0 0.75000038,24 H 11.25 A 0.75,0.75 0 0 0 12,23.25 V 22.213594 A 0.75,0.75 0 0 0 11.585625,21.542812 Z M 15.934219,14.146875 15.78,18 h 5.94 l -0.154219,-3.853594 1.153125,-0.974531 A 1.5,1.5 0 0 0 23.25,12.025312 V 9.28125 A 0.28125,0.28125 0 0 0 22.96875,9 h -1.236563 a 0.28125,0.28125 0 0 0 -0.28125,0.28125 V 10.5 H 20.292656 V 9.28125 A 0.28125,0.28125 0 0 0 20.011406,9 h -2.522344 a 0.28125,0.28125 0 0 0 -0.28125,0.28125 V 10.5 H 16.049531 V 9.28125 A 0.28125,0.28125 0 0 0 15.768281,9 H 14.53125 A 0.28125,0.28125 0 0 0 14.25,9.28125 v 2.746875 a 1.5,1.5 0 0 0 0.5325,1.14375 z M 18,14.25 a 0.75,0.75 0 0 1 1.5,0 v 1.5 H 18 Z M 23.585625,21.542812 22.5,21 V 20.25 A 0.75,0.75 0 0 0 21.75,19.5 h -6 A 0.75,0.75 0 0 0 15,20.25 V 21 l -1.085156,0.542812 A 0.75,0.75 0 0 0 13.5,22.213594 V 23.25 A 0.75,0.75 0 0 0 14.25,24 h 9 A 0.75,0.75 0 0 0 24,23.25 v -1.036406 a 0.75,0.75 0 0 0 -0.414375,-0.670782 z" />
</svg>
