<?xml version="1.0" encoding="UTF-8" standalone="no"?>
<svg
   xmlns:dc="http://purl.org/dc/elements/1.1/"
   xmlns:cc="http://creativecommons.org/ns#"
   xmlns:rdf="http://www.w3.org/1999/02/22-rdf-syntax-ns#"
   xmlns:svg="http://www.w3.org/2000/svg"
   xmlns="http://www.w3.org/2000/svg"
   xmlns:sodipodi="http://sodipodi.sourceforge.net/DTD/sodipodi-0.dtd"
   xmlns:inkscape="http://www.inkscape.org/namespaces/inkscape"
   inkscape:version="1.0 (4035a4fb49, 2020-05-01)"
   height="24"
   width="24"
   sodipodi:docname="list-waterpolo.svg"
   id="svg4"
   version="1.1"
   viewBox="2 2.00849 24 24">
  <metadata
     id="metadata10">
    <rdf:RDF>
      <cc:Work
         rdf:about="">
        <dc:format>image/svg+xml</dc:format>
        <dc:type
           rdf:resource="http://purl.org/dc/dcmitype/StillImage" />
        <dc:title></dc:title>
      </cc:Work>
    </rdf:RDF>
  </metadata>
  <defs
     id="defs8" />
  <sodipodi:namedview
     inkscape:current-layer="svg4"
     inkscape:window-maximized="1"
     inkscape:window-y="-9"
     inkscape:window-x="-9"
     inkscape:cy="9.9949999"
     inkscape:cx="10"
     inkscape:zoom="50.425213"
     showgrid="false"
     id="namedview6"
     inkscape:window-height="1361"
     inkscape:window-width="3440"
     inkscape:pageshadow="2"
     inkscape:pageopacity="0"
     guidetolerance="10"
     gridtolerance="10"
     objecttolerance="10"
     borderopacity="1"
     bordercolor="#666666"
     pagecolor="#ffffff" />
  <path
     style="stroke-width:1.2;fill:#5997e3;fill-opacity:1"
     id="path2"
     fill="#5997e3ff"
     d="M 23.6,18.803398 H 26 v 2.4 h -2.4 c -1.68,0 -3.36,-0.48 -4.8,-1.2 -3,1.56 -6.6,1.56 -9.6,0 -1.44,0.72 -3.12,1.2 -4.8,1.2 H 2 v -2.4 h 2.4 c 1.68,0 3.36,-0.6 4.8,-1.56 2.88,2.04 6.72,2.04 9.6,0 1.44,0.96 3.12,1.56 4.8,1.56 m -8.4,-6.48 c 0.72,-0.36 1.56,-0.72 2.4,-0.84 v 0.36 c 0.36,1.2 0.36,2.28 0.24,3.48 -1.08,0.6 -2.4,0.96 -3.6,0.96 0.6,-1.2 0.96,-2.64 0.96,-3.96 M 15.08,3.9233978 c -1.68,0.48 -3.12,1.32 -4.32,2.52 -0.48,-1.2 -0.72,-2.4 -0.72,-3.6 2.64,-1.2 5.64,-1.08 8.28,0.24 0.36,0.12 0.72,0.24 0.96,0.48 -1.44,-0.12 -2.88,0 -4.2,0.36 M 7.76,15.563398 c -0.72,0.36 -1.44,0.6 -2.16,0.72 -0.84,-1.56 -1.2,-3.24 -1.2,-4.92 0.6,1.2 1.44,2.4 2.4,3.36 0.36,0.24 0.6,0.6 0.96,0.84 m 14.64,0.72 c -0.72,-0.12 -1.44,-0.36 -2.04,-0.6 0.24,-1.44 0.12,-2.88 -0.24,-4.32 1.32,0.12 2.52,0.48 3.6,1.2 -0.12,1.2 -0.48,2.28 -1.08,3.36 l -0.24,0.36 m -13.92,-3.24 C 7.04,11.723398 6.2,9.8033978 5.84,7.8833978 l -0.12,-1.08 c 0.6,-0.96 1.2,-1.68 2.04,-2.4 0.12,1.68 0.72,3.24 1.68,4.56 0.84,1.3200002 2.04,2.5200002 3.36,3.2400002 0,0.96 -0.24,1.92 -0.6,2.88 -1.44,-0.36 -2.64,-1.08 -3.72,-2.04 M 15.8,6.2033978 c 1.8,-0.48 3.84,-0.36 5.64,0.24 l 0.96,0.48 c 0.48,0.84 0.72,1.8 0.96,2.76 -3,-1.32 -6.48,-1.08 -9.36,0.4800002 C 13.16,9.8033978 12.56,9.2033978 11.96,8.4833978 l 0.12,-0.12 c 1.08,-0.96 2.28,-1.8 3.72,-2.16 m 3,15.8400002 c 1.44,0.96 3.12,1.56 4.8,1.56 H 26 v 2.4 h -2.4 c -1.68,0 -3.36,-0.48 -4.8,-1.2 -3,1.56 -6.6,1.56 -9.6,0 -1.44,0.72 -3.12,1.2 -4.8,1.2 H 2 v -2.4 h 2.4 c 1.68,0 3.36,-0.6 4.8,-1.56 2.88,2.04 6.72,2.04 9.6,0 z" />
</svg>
