<?xml version="1.0" encoding="UTF-8" standalone="no"?>
<svg
   xmlns:dc="http://purl.org/dc/elements/1.1/"
   xmlns:cc="http://creativecommons.org/ns#"
   xmlns:rdf="http://www.w3.org/1999/02/22-rdf-syntax-ns#"
   xmlns:svg="http://www.w3.org/2000/svg"
   xmlns="http://www.w3.org/2000/svg"
   xmlns:sodipodi="http://sodipodi.sourceforge.net/DTD/sodipodi-0.dtd"
   xmlns:inkscape="http://www.inkscape.org/namespaces/inkscape"
   inkscape:version="1.0 (4035a4fb49, 2020-05-01)"
   sodipodi:docname="list-lottery.svg"
   viewBox="0 0 24 24"
   height="24"
   width="24"
   id="svg1424"
   version="1.1">
  <metadata
     id="metadata1430">
    <rdf:RDF>
      <cc:Work
         rdf:about="">
        <dc:format>image/svg+xml</dc:format>
        <dc:type
           rdf:resource="http://purl.org/dc/dcmitype/StillImage" />
        <dc:title></dc:title>
      </cc:Work>
    </rdf:RDF>
  </metadata>
  <defs
     id="defs1428" />
  <sodipodi:namedview
     inkscape:current-layer="svg1424"
     inkscape:window-maximized="0"
     inkscape:window-y="0"
     inkscape:window-x="-8"
     inkscape:cy="18.337595"
     inkscape:cx="9.9334885"
     inkscape:zoom="22.671611"
     showgrid="false"
     id="namedview1426"
     inkscape:window-height="1351"
     inkscape:window-width="1718"
     inkscape:pageshadow="2"
     inkscape:pageopacity="0"
     guidetolerance="10"
     gridtolerance="10"
     objecttolerance="10"
     borderopacity="1"
     bordercolor="#666666"
     pagecolor="#ffffff" />
  <path
     style="fill:#5997e3;stroke-width:0.046907;fill-opacity:1"
     d="m 0.73747864,23.946557 c -0.26332,-0.0944 -0.4516,-0.25003 -0.59249,-0.48971 -0.10811,-0.18389 -0.12918,-0.27391 -0.12918,-0.55177 0,-0.28771 0.019,-0.36268 0.14196,-0.56165 0.088,-0.14224 0.2293,-0.28363 0.3715,-0.37157 l 0.22953,-0.14196 2.27202996,-0.0235 2.27202,-0.0234 0.36862,-0.6981 c 0.20274,-0.38396 0.40428,-0.73752 0.44788,-0.78569 0.17958,-0.19844 0.58071,-0.0467 0.58071,0.21972 0,0.0658 -0.13902,0.38244 -0.30893,0.7036 l -0.30893,0.58392 h 5.9152704 5.91528 l -0.10114,-0.19935 c -0.26423,-0.52079 -1.37075,-2.59628 -1.40299,-2.63158 -0.0201,-0.022 -0.29908,0.0668 -0.62,0.1974 -0.71338,0.29021 -1.3861,0.48259 -2.17866,0.62305 -0.86565,0.1534 -2.35316,0.1534 -3.2188,0 -0.7890204,-0.13983 -1.4648104,-0.33265 -2.1669104,-0.61826 -0.31446,-0.12793 -0.58516,-0.23259 -0.60156,-0.23259 -0.0164,0 -0.0825,0.10407 -0.14701,0.23127 -0.19433,0.3835 -0.44172,0.48215 -0.66048,0.26339 -0.1492,-0.14919 -0.14514,-0.2376 0.0256,-0.55753 0.0774,-0.14504 0.14072,-0.27308 0.14072,-0.28454 0,-0.0115 -0.2058,-0.15577 -0.45734,-0.3207 -2.02027,-1.32464 -3.56984,-3.47922 -4.15813,-5.7816 -0.2161,-0.84576 -0.27383,-1.27947 -0.29762,-2.23595 -0.0445,-1.7899202 0.23614,-3.1028702 0.99602,-4.6593902 0.52649,-1.07846 1.10486,-1.89111 1.91682,-2.69324 0.32535,-0.32141 0.42622,-0.3948 0.54264,-0.3948 0.19783,0 0.33185,0.13383 0.33185,0.3314 0,0.14002 -0.0624,0.2252 -0.48878,0.66757 -0.71254,0.73919 -1.24293,1.48744 -1.68032,2.37051 -1.23665,2.49677 -1.25468,5.5471302 -0.0475,8.0445602 l 0.26074,0.53943 0.0403,-0.25232 c 0.0222,-0.13878 0.0811,-0.3446 0.131,-0.45738 0.1288,-0.29118 0.53089,-0.69727 0.84133,-0.84973 0.23643,-0.11611 0.31309,-0.12922 0.75565,-0.12922 0.44256,0 0.51921,0.0131 0.75565,0.12922 0.31419,0.1543 0.70988,0.55647 0.85354,0.86752 0.0853,0.18463 0.10291,0.3073 0.10291,0.71536 0,0.44767 -0.012,0.51603 -0.13202,0.75052 -0.17311,0.33826 -0.4936,0.66058 -0.82261,0.82732 -0.24303,0.12316 -0.30694,0.13427 -0.77253,0.13427 h -0.50757 l 0.43721,0.42429 c 0.40248,0.39057 1.11893,0.97354 1.15372,0.93876 0.008,-0.008 -0.0102,-0.11392 -0.0407,-0.23509 -0.13262,-0.5267 0.0637,-1.17988 0.48251,-1.60541 0.34209,-0.34758 0.69982,-0.49933 1.2074,-0.51218 l 0.39563,-0.01 0.11038,-0.21719 0.11038,-0.2172 -0.16027,-0.19767 c -0.22528,-0.27782 -0.34333,-0.53152 -0.40462,-0.86949 -0.13415,-0.73979 0.27987,-1.52995 0.98175,-1.8737 0.23008,-0.11268 0.31396,-0.12728 0.7337304,-0.1277 l 0.47395,-4.7e-4 0.22048,-0.41002 0.22048,-0.41001 -0.14141,-0.17632 c -0.32479,-0.40497 -0.38095,-0.9795502 -0.14241,-1.4569002 0.15218,-0.30455 0.31141,-0.46569 0.62506,-0.63257 0.15507,-0.0825 0.27159,-0.10274 0.5918,-0.10274 0.3202,0 0.43673,0.0202 0.5918,0.10274 0.31364,0.16688 0.47287,0.32802 0.62506,0.63257 0.23853,0.47735 0.18237,1.0519302 -0.14241,1.4569002 l -0.14142,0.17632 0.22048,0.41001 0.22048,0.41002 0.47395,4.7e-4 c 0.41978,4.2e-4 0.50365,0.015 0.73374,0.1277 0.70188,0.34375 1.11589,1.13391 0.98174,1.8737 -0.0612,0.33756 -0.17932,0.59164 -0.40364,0.86831 l -0.1593,0.19648 0.1009,0.20768 0.1009,0.20769 0.36892,0.0253 c 0.68295,0.0468 1.22643,0.41187 1.50951,1.01398 0.17436,0.37084 0.21707,0.84651 0.10767,1.19917 -0.0396,0.12779 -0.0668,0.2376 -0.0604,0.24404 0.0327,0.0327 0.86028,-0.62759 1.24156,-0.99054 1.52871,-1.45523 2.48791,-3.30415 2.8003,-5.39774 0.10147,-0.68008 0.10136,-1.9404702 -2.4e-4,-2.6235902 -0.70035,-4.70863 -4.78952,-8.11761 -9.52143,-7.93763 -1.53683,0.0584 -2.9457004,0.46501 -4.3032704,1.2418 -0.65332,0.37383 -0.76291,0.39516 -0.90622,0.17644 -0.20314,-0.31003 0.0373,-0.54054 1.12858,-1.08216 3.3960704,-1.68546 7.3605604,-1.32132 10.4259604,0.95762 0.54738,0.40696 1.56039,1.424 1.96724,1.97508 0.82042,1.11127 1.35311,2.22008 1.68078,3.49858 0.21552,0.84089 0.30303,1.55767 0.30303,2.48207 0,2.2110502 -0.65563,4.1874402 -1.98293,5.9775202 -0.6308,0.85074 -1.58199,1.745 -2.4879,2.33898 -0.25316,0.16599 -0.45042,0.32574 -0.43836,0.355 0.0121,0.0293 0.39113,0.74977 0.84238,1.60114 l 0.82045,1.54793 0.47827,0.0234 c 0.43129,0.0212 0.48707,0.0343 0.56777,0.13419 0.12176,0.15066 0.11242,0.31623 -0.0256,0.45428 l -0.11514,0.11514 h -9.28752 c -6.7067304,0 -9.31928036,0.0145 -9.40182036,0.0521 -0.113,0.0515 -0.21846,0.21882 -0.21846,0.34663 0,0.12781 0.10546,0.29514 0.21846,0.34663 0.16290996,0.0742 22.00936036,0.0742 22.17227036,0 0.113,-0.0515 0.21846,-0.21882 0.21846,-0.34663 0,-0.12781 -0.10546,-0.29515 -0.21846,-0.34663 -0.0727,-0.0331 -0.4901,-0.0521 -1.14713,-0.0521 -0.58401,0 -1.07012,-0.02 -1.11863,-0.0459 -0.22288,-0.11928 -0.18138,-0.57571 0.0578,-0.63574 0.0618,-0.0155 0.619,-0.0215 1.2381,-0.0134 l 1.12565,0.0149 0.22946,0.14196 c 0.14207,0.0879 0.28351,0.2294 0.37141,0.37157 0.12353,0.19981 0.1418,0.27274 0.14073,0.56165 -8.2e-4,0.22075 -0.0279,0.38145 -0.0807,0.4795 -0.10115,0.18768 -0.33145,0.41853 -0.52109,0.52232 -0.13818,0.0756 -0.85061,0.0813 -11.31134,0.0906 -9.0440204,0.008 -11.19607036,-0.002 -11.33344036,-0.0509 z m 9.83359036,-5.0466 c -0.23972,-0.35622 -0.31844,-0.64544 -0.29808,-1.09514 0.0217,-0.47853 0.17084,-0.82558 0.49336,-1.14776 0.68889,-0.6882 1.77953,-0.6882 2.46842,0 0.32251,0.32218 0.47169,0.66923 0.49335,1.14776 0.0204,0.45104 -0.0584,0.73892 -0.3008,1.09919 l -0.15938,0.23683 0.19891,-0.0311 c 0.29803,-0.0466 0.94508,-0.20039 1.31195,-0.31182 l 0.32486,-0.0987 -0.32378,-0.15662 c -0.53544,-0.25899 -0.87982,-0.69412 -0.99641,-1.25897 -0.1177,-0.57024 0.0568,-1.12445 0.49073,-1.55877 l 0.28831,-0.28854 -0.0966,-0.16924 c -0.0865,-0.1516 -0.11123,-0.16598 -0.23729,-0.13804 -0.27265,0.0605 -0.7514,0.0237 -1.02498,-0.0787 -0.37407,-0.13996 -0.77361,-0.51858 -0.94976,-0.90004 -0.11993,-0.25972 -0.13607,-0.34753 -0.13607,-0.74029 0,-0.38451 0.0171,-0.48212 0.12479,-0.71182 0.0686,-0.14641 0.21016,-0.35882 0.31451,-0.47202 l 0.18972,-0.20582 -0.21154,-0.40749 -0.21154,-0.40748 h -0.32321 -0.32321 l -0.21154,0.40748 -0.21154,0.40749 0.18972,0.20582 c 0.10434,0.1132 0.24587,0.32561 0.31451,0.47202 0.10768,0.2297 0.12479,0.32731 0.12479,0.71182 0,0.39276 -0.0161,0.48057 -0.13607,0.74029 -0.17616,0.38146 -0.5757,0.76008 -0.94976,0.90004 -0.27373,0.10241 -0.75269,0.13912 -1.0249904,0.0786 -0.12824,-0.0285 -0.15038,-0.0143 -0.2497,0.16042 l -0.10899,0.19172 0.2328,0.24615 c 0.5444004,0.57562 0.6679704,1.3052 0.33586,1.98288 -0.16679,0.34035 -0.54871,0.71265 -0.86411,0.84237 -0.11731,0.0482 -0.21336,0.10061 -0.21346,0.11637 -4.2e-4,0.069 1.3627604,0.42663 1.7439404,0.45748 0.062,0.005 0.0454,-0.0435 -0.0777,-0.22639 z m 1.90158,-0.0838 c 0.76474,-0.38779 0.7662,-1.45186 0.003,-1.85079 -0.33572,-0.17539 -0.61356,-0.17539 -0.94928,0 -0.76366,0.39894 -0.7622,1.463 0.003,1.85079 0.16891,0.0856 0.32753,0.12899 0.47209,0.12899 0.14457,0 0.30319,-0.0433 0.4721,-0.12899 z m -3.5175604,-0.97006 c 0.40249,-0.26636 0.58601,-0.71581 0.46976,-1.15046 -0.0603,-0.22562 -0.26498,-0.5327 -0.33862,-0.50815 -0.0865,0.0288 -0.96338,1.74768 -0.91155,1.78677 0.10316,0.0778 0.58995,-0.002 0.78041,-0.12816 z m 6.8389304,0.11871 c 0.0354,-0.0224 0.0565,-0.059 0.0469,-0.0814 -0.01,-0.0223 -0.22682,-0.44035 -0.48272,-0.92893 l -0.46529,-0.88833 -0.1712,0.19293 c -0.39203,0.44176 -0.37161,1.00331 0.052,1.42869 0.1206,0.12112 0.29005,0.24059 0.37655,0.26548 0.20114,0.0579 0.56044,0.0643 0.64379,0.0115 z m -7.8084204,-1.25507 c 0.22171,-0.41681 0.40312,-0.77037 0.40312,-0.78569 0,-0.11637 -0.46696,0.0621 -0.6826,0.26085 -0.26027,0.23991 -0.37112,0.51929 -0.33691,0.84918 0.0282,0.27154 0.1253,0.52675 0.17888,0.46995 0.0189,-0.02 0.2158,-0.37748 0.43751,-0.79429 z m 8.5617904,0.24186 c 0.001,-0.30143 -0.12048,-0.56531 -0.36145,-0.78257 -0.16812,-0.15156 -0.51065,-0.30445 -0.56357,-0.25154 -0.0175,0.0175 0.33672,0.70743 0.66243,1.29017 l 0.14311,0.25606 0.0592,-0.13879 c 0.0326,-0.0763 0.0597,-0.24433 0.0603,-0.37333 z M 6.1273186,15.431417 c 0.36947,-0.19004 0.57699,-0.52695 0.57897,-0.9399 0.005,-0.94807 -1.1534,-1.41392 -1.79507,-0.72216 -0.20041,0.21605 -0.28445,0.42849 -0.28445,0.71904 0,0.40896 0.21579,0.75478 0.59572,0.95473 0.20304,0.10685 0.68651,0.10059 0.90483,-0.0117 z m 4.5118304,-1.08333 c 0.36157,-0.18606 0.56399,-0.52793 0.56399,-0.95254 0,-0.25087 -0.15189,-0.63803 -0.26511,-0.67577 -0.0592,-0.0197 -0.9597804,1.67576 -0.92229,1.73643 0.037,0.0599 0.42896,-0.008 0.62341,-0.10812 z m 3.349,0.10362 c 0.0356,-0.0577 -0.86865,-1.75073 -0.92506,-1.73193 -0.0274,0.009 -0.0983,0.1082 -0.15749,0.22014 -0.25636,0.48479 -0.0533,1.14177 0.43181,1.39693 0.23867,0.12554 0.60426,0.19007 0.65074,0.11486 z m -4.1501504,-1.25267 0.4231104,-0.79742 -0.18256,-0.0143 c -0.5582804,-0.0436 -1.0881504,0.65847 -0.9413804,1.24739 0.065,0.26084 0.18215,0.45861 0.23807,0.40192 0.0218,-0.0221 0.23004,-0.39904 0.46276,-0.83762 z m 5.0065704,0.5018 c 0.0627,-0.21573 0.0663,-0.30132 0.021,-0.50373 -0.0991,-0.44256 -0.53266,-0.81894 -0.94348,-0.81894 h -0.19304 l 0.31454,0.59806 c 0.55148,1.04861 0.58483,1.1012 0.65917,1.03951 0.0365,-0.0303 0.10027,-0.17196 0.14182,-0.3149 z m -2.50186,-3.27817 c 0.43181,-0.21762 0.41078,-0.9480702 -0.0334,-1.1588302 -0.46024,-0.21839 -0.96549,0.0838 -0.96549,0.57749 0,0.3321002 0.14022,0.5283102 0.4569,0.6393002 0.18638,0.0653 0.32719,0.0503 0.54195,-0.058 z m 4.70035,5.09957 c -1.22651,-0.40694 -1.60458,-1.98757 -0.69335,-2.8988 0.84122,-0.84122 2.26253,-0.61055 2.80239,0.45482 0.43855,0.86543 0.044,1.97247 -0.84862,2.38113 -0.35888,0.16431 -0.8768,0.19013 -1.26042,0.0628 z m 0.87143,-0.66463 c 0.60802,-0.18217 0.91532,-0.95449 0.59635,-1.49878 -0.15429,-0.26326 -0.2445,-0.34339 -0.52763,-0.46863 -0.46749,-0.20679 -1.02785,-0.0163 -1.29436,0.43997 -0.12889,0.22066 -0.14119,0.27653 -0.12796,0.58125 0.0124,0.28545 0.0362,0.36781 0.15539,0.53739 0.2639,0.37549 0.75273,0.54227 1.19821,0.4088 z M 6.6099586,12.866147 c -0.45782,-0.16506 -0.81502,-0.49153 -1.02149,-0.9336 -0.11501,-0.24626 -0.13144,-0.33714 -0.13144,-0.72706 0,-0.38451 0.0171,-0.48212 0.12479,-0.71182 0.16676,-0.35574 0.44528,-0.6480602 0.80152,-0.8412502 0.2804,-0.15206 0.31488,-0.15903 0.78579,-0.15903 0.44442,0 0.51863,0.0128 0.75985,0.13127 1.31482,0.6456602 1.31594,2.5154702 0.002,3.1607402 -0.22545,0.11071 -0.33784,0.13409 -0.69138,0.14386 -0.2938,0.008 -0.48522,-0.0111 -0.62953,-0.0631 z m 1.02196,-0.71255 c 0.426,-0.19622 0.67557,-0.70208 0.57284,-1.16112 -0.10885,-0.48637 -0.52941,-0.81894 -1.03563,-0.81894 -0.60271,0 -1.03195,0.42924 -1.03195,1.03195 0,0.78378 0.77889,1.27783 1.49474,0.94811 z m -3.08958,-2.2778002 c -0.56737,-0.12583 -0.97804,-0.46133 -1.23387,-1.00803 -0.26292,-0.56184 -0.18141,-1.25381 0.20732,-1.76019 0.37061,-0.48276 0.86402,-0.70846 1.47941,-0.67672 0.6805,0.0351 1.21522,0.39654 1.51207,1.02207 0.10533,0.22196 0.12243,0.32036 0.12243,0.70459 0,0.40974 -0.0127,0.47235 -0.15358,0.75857 -0.3619,0.73513 -1.16012,1.1312802 -1.93378,0.95971 z m 0.83275,-0.77595 c 0.97078,-0.49931 0.63426,-1.97527 -0.45036,-1.97527 -0.83732,0 -1.33931,0.86322 -0.91904,1.58036 0.27672,0.47219 0.88057,0.64633 1.3694,0.39491 z"
     id="path1997" />
</svg>
