<?xml version="1.0" encoding="UTF-8" standalone="no"?>
<svg
   xmlns:dc="http://purl.org/dc/elements/1.1/"
   xmlns:cc="http://creativecommons.org/ns#"
   xmlns:rdf="http://www.w3.org/1999/02/22-rdf-syntax-ns#"
   xmlns:svg="http://www.w3.org/2000/svg"
   xmlns="http://www.w3.org/2000/svg"
   xmlns:sodipodi="http://sodipodi.sourceforge.net/DTD/sodipodi-0.dtd"
   xmlns:inkscape="http://www.inkscape.org/namespaces/inkscape"
   inkscape:version="1.0 (4035a4fb49, 2020-05-01)"
   height="24"
   width="24"
   sodipodi:docname="list-auto-racing.svg"
   id="svg4"
   version="1.1"
   viewBox="1 2 24 24">
  <metadata
     id="metadata10">
    <rdf:RDF>
      <cc:Work
         rdf:about="">
        <dc:format>image/svg+xml</dc:format>
        <dc:type
           rdf:resource="http://purl.org/dc/dcmitype/StillImage" />
        <dc:title></dc:title>
      </cc:Work>
    </rdf:RDF>
  </metadata>
  <defs
     id="defs8" />
  <sodipodi:namedview
     inkscape:object-nodes="false"
     inkscape:current-layer="svg4"
     inkscape:window-maximized="1"
     inkscape:window-y="-9"
     inkscape:window-x="-9"
     inkscape:cy="10.271107"
     inkscape:cx="12.381235"
     inkscape:zoom="18.756938"
     showgrid="false"
     id="namedview6"
     inkscape:window-height="1361"
     inkscape:window-width="3440"
     inkscape:pageshadow="2"
     inkscape:pageopacity="0"
     guidetolerance="10"
     gridtolerance="10"
     objecttolerance="10"
     borderopacity="1"
     bordercolor="#666666"
     pagecolor="#ffffff" />
  <path
     style="fill:#5997e3;fill-opacity:1;stroke-width:1.14286"
     id="path2"
     fill="#5997e3ff"
     d="M 9,13.428571 10.714286,8.2857141 H 21 l 1.714286,5.1428569 M 21,19.142857 A 1.7142857,1.7142857 0 0 1 19.285714,17.428571 1.7142857,1.7142857 0 0 1 21,15.714286 1.7142857,1.7142857 0 0 1 22.714286,17.428571 1.7142857,1.7142857 0 0 1 21,19.142857 m -10.285714,0 A 1.7142857,1.7142857 0 0 1 9,17.428571 a 1.7142857,1.7142857 0 0 1 1.714286,-1.714285 1.7142857,1.7142857 0 0 1 1.714285,1.714285 1.7142857,1.7142857 0 0 1 -1.714285,1.714286 M 22.622857,7.7142856 C 22.382857,7.0285713 21.731429,6.5714284 21,6.5714284 H 10.714286 c -0.7314289,0 -1.3828574,0.4571429 -1.6228574,1.1428572 L 6.7142857,14.571428 v 9.142858 a 1.1428571,1.1428571 0 0 0 1.1428572,1.142857 H 9 a 1.1428571,1.1428571 0 0 0 1.142857,-1.142857 v -1.142858 h 11.428572 v 1.142858 a 1.1428571,1.1428571 0 0 0 1.142857,1.142857 h 1.142857 A 1.1428571,1.1428571 0 0 0 25,23.714286 V 14.571428 L 22.622857,7.7142856 M 16.908571,4.2857141 C 16.668571,3.5999999 16.017143,3.142857 15.285714,3.142857 H 5 c -0.7314286,0 -1.3828571,0.4571429 -1.6228571,1.1428571 L 1,11.142857 v 9.142857 a 1.1428571,1.1428571 0 0 0 1.1428571,1.142857 H 3.2857143 A 1.1428571,1.1428571 0 0 0 4.4285714,20.285714 V 15.611428 C 3.5371429,15.291428 3.08,14.308571 3.4,13.428571 3.6514286,12.742857 4.28,12.285714 5,12.285714 H 5.08 L 5.88,9.9999999 H 3.2857143 L 5,4.8571427 h 12.102857 z" />
</svg>
