<?xml version="1.0" encoding="UTF-8" standalone="no"?>
<svg
   xmlns:dc="http://purl.org/dc/elements/1.1/"
   xmlns:cc="http://creativecommons.org/ns#"
   xmlns:rdf="http://www.w3.org/1999/02/22-rdf-syntax-ns#"
   xmlns:svg="http://www.w3.org/2000/svg"
   xmlns="http://www.w3.org/2000/svg"
   xmlns:sodipodi="http://sodipodi.sourceforge.net/DTD/sodipodi-0.dtd"
   xmlns:inkscape="http://www.inkscape.org/namespaces/inkscape"
   inkscape:version="1.0 (4035a4fb49, 2020-05-01)"
   sodipodi:docname="list-sepak-takraw.svg"
   viewBox="0 0 24.000001 24.000001"
   height="24"
   width="24"
   id="svg2604"
   version="1.1">
  <metadata
     id="metadata2610">
    <rdf:RDF>
      <cc:Work
         rdf:about="">
        <dc:format>image/svg+xml</dc:format>
        <dc:type
           rdf:resource="http://purl.org/dc/dcmitype/StillImage" />
        <dc:title></dc:title>
      </cc:Work>
    </rdf:RDF>
  </metadata>
  <defs
     id="defs2608" />
  <sodipodi:namedview
     inkscape:current-layer="svg2604"
     inkscape:window-maximized="0"
     inkscape:window-y="0"
     inkscape:window-x="-8"
     inkscape:cy="45.698381"
     inkscape:cx="34.31796"
     inkscape:zoom="8.5018547"
     showgrid="false"
     id="namedview2606"
     inkscape:window-height="1351"
     inkscape:window-width="1718"
     inkscape:pageshadow="2"
     inkscape:pageopacity="0"
     guidetolerance="10"
     gridtolerance="10"
     objecttolerance="10"
     borderopacity="1"
     bordercolor="#666666"
     pagecolor="#ffffff" />
  <path
     style="fill:#5997e3;stroke-width:0.0267887;fill-opacity:1"
     d="m 11.183483,23.97282 c -1.0066,-0.0709 -1.9672232,-0.26168 -2.9819462,-0.59227 -0.137218,-0.0447 -0.244239,-0.0865 -0.237824,-0.093 0.0064,-0.006 0.215837,-0.0347 0.465382,-0.063 1.7399182,-0.1967 3.5006842,-0.58744 5.1507972,-1.14305 0.531539,-0.17898 1.391305,-0.50102 1.729065,-0.64766 0.16897,-0.0733 0.1894,-0.0769 0.20648,-0.0362 0.052,0.12407 0.43011,1.90893 0.4089,1.93014 -0.0264,0.0264 -0.59227,0.19843 -0.97703,0.29697 -1.221599,0.31285 -2.536267,0.43439 -3.763824,0.34795 z m 5.183634,-0.81612 c 0,-0.0625 -0.27453,-1.29936 -0.40171,-1.8099 -0.23649,-0.94929 -0.62051,-2.25358 -0.90831,-3.08498 -0.0293,-0.0847 -0.0445,-0.15404 -0.0336,-0.15404 0.2208,0 2.2723,-0.20783 2.54028,-0.25735 l 0.0849,-0.0157 0.0984,0.30395 c 0.25934,0.80134 0.61149,2.11945 0.82911,3.10337 0.0668,0.30205 0.12781,0.57648 0.13555,0.60985 0.0122,0.0525 -0.021,0.0834 -0.24771,0.23048 -0.50149,0.32527 -1.2725,0.74055 -1.74858,0.94181 -0.0958,0.0405 -0.2133,0.0902 -0.26119,0.1105 -0.0479,0.0203 -0.0871,0.0302 -0.0871,0.022 z M 6.5222318,22.66708 c -2.173639,-1.12933 -3.909838,-2.82609 -5.076458,-4.96113 -0.149044,-0.27277 -0.48492304,-0.97027 -0.47306204,-0.98238 0.0025,-0.003 0.18526304,0.043 0.40620004,0.10123 0.318018,0.0838 1.389068,0.34499 1.691369,0.4125 0.03156,0.007 0.175391,0.15455 0.319624,0.32779 0.561881,0.67489 1.502911,1.55825 2.248297,2.11053 1.689791,1.252 3.665631,2.09546 5.7060142,2.43581 0.430518,0.0718 0.427503,0.0699 0.200916,0.12494 -1.354794,0.32881 -2.8239382,0.54951 -4.3397852,0.65193 l -0.227705,0.0154 z M 19.045757,21.38272 c -0.26155,-1.17349 -0.5507,-2.29028 -0.81325,-3.14099 -0.0796,-0.25784 -0.14236,-0.47153 -0.13952,-0.47485 0.003,-0.003 0.22747,-0.0438 0.49918,-0.0899 0.27171,-0.0461 0.83758,-0.15352 1.25749,-0.23868 0.41992,-0.0852 0.76847,-0.15023 0.77456,-0.14459 0.0219,0.0202 0.31795,1.05461 0.48389,1.69063 l 0.16929,0.64887 -0.18327,0.20838 c -0.44212,0.50269 -1.13187,1.13836 -1.77538,1.63617 l -0.21477,0.16615 z M 7.8616718,20.51324 c -0.206274,-0.10363 -0.50162,-0.2608 -0.656325,-0.34928 -0.290859,-0.16634 -1.05613,-0.66736 -1.184863,-0.77573 l -0.07313,-0.0616 0.08986,-0.30807 c 0.933335,-3.19974 2.216794,-6.161884 3.868119,-8.927365 0.1561622,-0.2615262 0.2921632,-0.4755012 0.3022242,-0.4755012 0.03959,0 0.949484,1.3835002 1.386594,2.1083242 l 0.16481,0.273291 -0.242164,0.436612 c -1.284078,2.315129 -2.3711322,4.999719 -3.1048072,7.667619 -0.08866,0.32239 -0.164366,0.5893 -0.168238,0.59312 -0.0039,0.004 -0.17581,-0.0778 -0.382084,-0.18146 z M 21.578907,19.12076 c -0.006,-0.0193 -0.0788,-0.29026 -0.16078,-0.60202 -0.082,-0.31176 -0.20868,-0.76741 -0.28147,-1.01255 l -0.13235,-0.44571 0.0889,-0.23313 c 0.37177,-0.97512 0.66039,-2.20705 0.77951,-3.32724 0.0597,-0.561202 0.0797,-1.584575 0.042,-2.143104 -0.0846,-1.25227 -0.29363,-2.3116912 -0.68176,-3.4557552 -0.10747,-0.316778 -0.20526,-0.600069 -0.21731,-0.629537 -0.0327,-0.07984 0.15446,0.104264 0.55814,0.54917 0.84036,0.92617 1.58237,1.870159 2.23514,2.8435602 l 0.13739,0.204862 0.0276,0.384491 c 0.10105,1.409573 -0.0936,2.983578 -0.53942,4.362623 -0.25428,0.78652 -0.67642,1.72891 -1.07999,2.411 -0.19119,0.32314 -0.70049,1.08936 -0.74054,1.11411 -0.0128,0.008 -0.0286,-0.001 -0.035,-0.0208 z M 5.2095808,18.76999 c -0.441062,-0.37604 -1.042753,-0.979 -1.414072,-1.41707 l -0.287886,-0.33963 0.190934,-0.57119 c 0.900177,-2.692918 2.151353,-5.413345 3.626246,-7.8845242 0.440078,-0.737351 0.898636,-1.459989 0.926451,-1.459989 0.04052,0 0.89792,1.05802 1.381945,1.705303 l 0.303633,0.406047 -0.343827,0.571744 c -1.623832,2.7002462 -2.914462,5.6141892 -3.835324,8.6592592 -0.10203,0.33739 -0.188736,0.61648 -0.192678,0.6202 -0.0039,0.004 -0.163882,-0.12685 -0.355422,-0.29015 z m 4.9054772,-1.03877 c -0.2634892,-0.0129 -0.4826812,-0.0271 -0.4870922,-0.0315 -0.02132,-0.0213 0.6349392,-1.6758 0.8944102,-2.25489 l 0.106893,-0.23856 1.375448,-0.006 c 1.540636,-0.007 2.517748,-0.0547 3.82662,-0.18846 1.70265,-0.17402 3.75294,-0.528847 5.24473,-0.907652 0.14226,-0.03612 0.26224,-0.06209 0.26663,-0.0577 0.0165,0.01654 -0.13265,0.769902 -0.23659,1.194772 -0.0595,0.24311 -0.19357,0.69919 -0.29798,1.01351 -0.16068,0.48373 -0.19939,0.57512 -0.25207,0.59515 -0.10189,0.0387 -1.26135,0.26113 -1.95208,0.37442 -1.4545,0.23857 -2.61849,0.36869 -4.326387,0.48364 -0.543358,0.0366 -3.547544,0.0532 -4.162532,0.0231 z M 2.9593218,16.78936 c -0.05894,-0.0149 -0.372364,-0.0914 -0.696509,-0.17018 -0.875956,-0.21278 -1.46472304,-0.3779 -1.49050704,-0.418 -0.04305,-0.067 -0.314152,-0.91925 -0.39477,-1.24108 -0.13464,-0.537491 -0.321708,-1.579167 -0.289395,-1.611479 0.0052,-0.0052 0.07978,0.01484 0.165814,0.04444 0.642484,0.221047 2.15455204,0.634635 3.08041004,0.842568 0.309411,0.06949 0.582144,0.134345 0.606074,0.144126 0.03736,0.01527 0.01364,0.09536 -0.167936,0.566945 -0.116295,0.30205 -0.315667,0.84754 -0.44305,1.2122 -0.127382,0.36466 -0.238662,0.66177 -0.24729,0.66025 -0.0086,-0.002 -0.06391,-0.0149 -0.122841,-0.0298 z m 8.4705062,-2.03001 -0.610896,-0.0136 0.465893,-0.924215 c 0.25624,-0.508317 0.551143,-1.0749 0.65534,-1.259073 l 0.189447,-0.33486 0.169867,-0.0059 c 2.043899,-0.07094 2.819328,-0.125415 4.134608,-0.290447 1.46115,-0.183333 3.00258,-0.47923 4.43719,-0.851773 l 0.55281,-0.143556 0.0161,0.123454 c 0.0596,0.456096 0.0426,1.884241 -0.0286,2.407146 -0.0181,0.132931 0.0542,0.105067 -0.7851,0.30263 -2.42976,0.571949 -5.14963,0.928214 -7.460683,0.977234 -0.353612,0.007 -0.751425,0.0165 -0.88403,0.0201 -0.132605,0.004 -0.516003,3.2e-4 -0.851996,-0.007 z M 3.9371128,13.937528 c -1.288069,-0.294385 -2.490981,-0.62146 -3.53890504,-0.962239 l -0.364432,-0.118511 -0.01731,-0.204758 c -0.04894,-0.578995 0.01551,-1.734007 0.132989,-2.383333 l 0.01515,-0.08374 0.714243,0.236548 c 1.28460504,0.425444 2.47441704,0.752317 3.69595504,1.015376 0.343364,0.07394 0.629214,0.134443 0.635223,0.134443 0.006,0 -0.05615,0.141646 -0.138131,0.314768 -0.21054,0.444607 -0.5511,1.209127 -0.748522,1.680352 -0.09244,0.220653 -0.177991,0.403369 -0.190107,0.406037 -0.01211,0.0027 -0.100385,-0.01306 -0.196155,-0.03494 z M 11.826088,11.313966 C 10.357694,8.8968198 8.8849718,6.9879268 6.8620748,4.8797768 c -0.281958,-0.293841 -0.485294,-0.526273 -0.471411,-0.538867 0.197847,-0.179479 1.124901,-0.732864 1.738896,-1.037996 l 0.508987,-0.252947 0.348255,0.356947 c 2.1141332,2.166908 4.1898062,4.97194 5.7540752,7.7759642 l 0.25406,0.45541 -0.11088,0.0182 c -0.18098,0.02971 -1.428149,0.09958 -2.121938,0.11888 l -0.644836,0.01794 z m 3.387359,-0.163979 C 13.616425,8.2542208 11.576986,5.4645048 9.4052728,3.2050728 c -0.194238,-0.202083 -0.295519,-0.326446 -0.279172,-0.342793 0.03173,-0.03173 0.458611,-0.187122 0.851886,-0.310107 0.3917662,-0.122513 1.0644422,-0.286118 1.5269622,-0.371381 l 0.375043,-0.06914 0.157566,0.169038 c 0.08666,0.09297 0.334005,0.373972 0.549652,0.624447 2.101267,2.440631 3.789977,4.937477 5.356477,7.9198302 0.18549,0.353136 0.18989,0.365875 0.13143,0.379931 -0.27111,0.06518 -1.73356,0.288327 -2.47571,0.377746 l -0.13816,0.01665 z M 1.8074028,10.268454 C 1.1539868,10.062996 0.27848476,9.7747838 0.24757876,9.7549648 c -0.02515,-0.01613 -0.01155,-0.115112 0.05792,-0.421709 0.463591,-2.045761 1.40738804,-3.851509 2.85764104,-5.467465 0.248842,-0.277275 1.041634,-1.036776 1.061491,-1.016918 0.0043,0.0043 -0.09321,0.241757 -0.216715,0.527649 -0.927954,2.147978 -1.506238,4.292943 -1.853625,6.8754462 -0.0084,0.06262 -0.02362,0.112793 -0.03377,0.111497 -0.01015,-0.0013 -0.151054,-0.04405 -0.313127,-0.09501 z M 23.395167,9.3408248 c -0.92512,-1.235861 -1.93106,-2.35824 -2.99004,-3.336139 -0.65406,-0.603982 -1.00434,-0.899747 -1.94932,-1.645968 l -0.0929,-0.07338 0.27204,-0.263719 c 0.14963,-0.145045 0.48425,-0.453812 0.74361,-0.686149 l 0.47156,-0.42243 0.26098,0.240796 c 1.71676,1.584018 2.94998,3.652155 3.51158,5.888988 0.0898,0.357492 0.1945,0.841654 0.18184,0.840477 -0.002,-1.81e-4 -0.18611,-0.244291 -0.40932,-0.542474 z M 3.3754458,6.5780928 c -0.0026,-0.06886 0.338468,-1.145954 0.535314,-1.690582 0.29394,-0.813265 0.582183,-1.504664 0.950397,-2.279685 0.189505,-0.398873 0.182569,-0.392236 0.830622,-0.794807 2.138958,-1.32872003 4.6072472,-1.95018103 7.0990322,-1.78738203 0.221008,0.01444 0.447158,0.03341 0.502557,0.04217 l 0.100723,0.01591 -0.597281,0.62044 C 12.468305,1.0453988 12.11682,1.4117818 12.015732,1.5183408 c -0.143297,0.151053 -0.205063,0.19722 -0.280317,0.209523 -2.8158292,0.460351 -5.3460412,1.745707 -7.3250352,3.721141 -0.287248,0.286732 -0.725013,0.769893 -0.94787,1.046168 -0.04739,0.05875 -0.08657,0.09606 -0.08706,0.08292 z M 15.359247,5.7246008 c -0.22281,-0.313061 -0.56924,-0.783803 -0.76983,-1.046093 l -0.364713,-0.476891 0.301028,-0.326516 c 0.679155,-0.736664 1.671705,-1.718112 2.451035,-2.423647 l 0.27416,-0.248189 0.18668,0.09401 c 0.31857,0.16043 0.87289,0.486915 1.21456,0.715358 0.38912,0.260168 0.84924,0.604327 0.84924,0.635216 0,0.01212 -0.17752,0.177436 -0.39448,0.367367 -1.00723,0.881747 -2.23599,2.082495 -2.97824,2.910358 -0.18164,0.20259 -0.33792,0.368319 -0.34729,0.368286 -0.009,-2e-5 -0.19933,-0.256201 -0.42215,-0.569262 z m -1.726609,-2.263594 c -0.337519,-0.407424 -0.766854,-0.900491 -1.130699,-1.298547 l -0.238094,-0.260481 0.209319,-0.221717 c 0.600571,-0.636144 1.295145,-1.34846503 1.393842,-1.42945503 l 0.111798,-0.09174 0.408771,0.0829 c 0.417472,0.08467 0.935652,0.223433 1.390192,0.372288 0.32858,0.107606 1.01797,0.381519 1.01797,0.40446603 0,0.0097 -0.21371,0.215145 -0.47491,0.456465 -0.70522,0.651557 -1.28843,1.227076 -1.846868,1.822526 -0.274225,0.292401 -0.507047,0.531638 -0.517383,0.531638 -0.01033,0 -0.156107,-0.165756 -0.323938,-0.368346 z"
     id="path3177" />
</svg>
