<?xml version="1.0" encoding="UTF-8" standalone="no"?>
<svg
   xmlns:dc="http://purl.org/dc/elements/1.1/"
   xmlns:cc="http://creativecommons.org/ns#"
   xmlns:rdf="http://www.w3.org/1999/02/22-rdf-syntax-ns#"
   xmlns:svg="http://www.w3.org/2000/svg"
   xmlns="http://www.w3.org/2000/svg"
   xmlns:sodipodi="http://sodipodi.sourceforge.net/DTD/sodipodi-0.dtd"
   xmlns:inkscape="http://www.inkscape.org/namespaces/inkscape"
   inkscape:version="1.0 (4035a4fb49, 2020-05-01)"
   sodipodi:docname="list-trotting.svg"
   viewBox="0 0 24 24"
   height="24"
   width="24"
   id="svg3194"
   version="1.1">
  <metadata
     id="metadata3200">
    <rdf:RDF>
      <cc:Work
         rdf:about="">
        <dc:format>image/svg+xml</dc:format>
        <dc:type
           rdf:resource="http://purl.org/dc/dcmitype/StillImage" />
        <dc:title></dc:title>
      </cc:Work>
    </rdf:RDF>
  </metadata>
  <defs
     id="defs3198" />
  <sodipodi:namedview
     inkscape:current-layer="svg3194"
     inkscape:window-maximized="0"
     inkscape:window-y="0"
     inkscape:window-x="-8"
     inkscape:cy="20.593785"
     inkscape:cx="17.473254"
     inkscape:zoom="17.003708"
     showgrid="false"
     id="namedview3196"
     inkscape:window-height="1351"
     inkscape:window-width="1718"
     inkscape:pageshadow="2"
     inkscape:pageopacity="0"
     guidetolerance="10"
     gridtolerance="10"
     objecttolerance="10"
     borderopacity="1"
     bordercolor="#666666"
     pagecolor="#ffffff" />
  <path
     style="fill:#5997e3;stroke-width:0.0468749;fill-opacity:1"
     d="m 5.3640254,23.954803 c -0.955088,-0.10931 -1.904714,-0.4605 -2.731291,-1.0101 -0.454784,-0.30239 -1.2741267,-1.12112 -1.5708797,-1.5697 -0.47116915,-0.71223 -0.82706605,-1.59457 -0.96427455,-2.39062 -0.077922,-0.45209 -0.077922,-1.51667 0,-1.96875 0.1373206,-0.79671 0.4936762,-1.67984 0.96465035,-2.39063 0.299275,-0.45166 1.1188409,-1.27123 1.5705039,-1.5705 0.710338,-0.47068 1.592157,-0.82662 2.390625,-0.964969 0.494964,-0.0858 1.572892,-0.0754 2.064521,0.0198 0.649825,0.12586 1.476877,0.43135 1.912758,0.70651 0.110812,0.0699 0.220472,0.12067 0.24369,0.1127 0.07472,-0.0256 4.2603346,-5.8254905 4.2261076,-5.8559705 -0.01816,-0.0162 -0.349421,-0.14283 -0.73614,-0.28146 l -0.703125,-0.25205 -0.874127,-0.0234 c -0.774082,-0.0208 -0.885405,-0.0337 -0.972656,-0.11274 -0.147897,-0.13403 -0.134933,-0.41432 0.02498,-0.54011 0.114362,-0.09 0.184822,-0.0971 0.95144,-0.0971 h 0.827931 l 1.075904,0.37819 c 0.591746,0.20801 1.360669,0.48033 1.708716,0.60517 1.786277,0.6407 2.30292,0.81059 2.343018,0.77045 0.02356,-0.0236 0.211248,-0.34686 0.417086,-0.71839 l 0.374249,-0.67552 -0.137921,-0.27322 c -0.175519,-0.3477 -0.276107,-0.77415 -0.276989,-1.17432 -8.3e-4,-0.37612 0.05951,-0.527719 0.239762,-0.602382 0.288163,-0.11936 0.54961,0.13972 0.485556,0.481162 -0.04217,0.22476 0.04742,0.66688 0.197453,0.97448 0.215492,0.4418 0.708307,0.8561 1.14374,0.96151 0.111237,0.0269 0.194872,-0.0517 0.956884,-0.89959 0.459246,-0.51101 0.897447,-0.9961 0.97378,-1.07797 l 0.138785,-0.14887 -0.41172,-0.601134 c -0.375587,-0.548454 -0.748261,-1.052138 -1.348675,-1.822866 -0.220791,-0.283421 -0.221439,-0.285327 -0.251192,-0.738281 l -0.02983,-0.454127 h -0.301087 c -0.300205,0 -0.304401,0.0019 -1.434004,0.640243 -1.236819,0.69896 -1.639939,0.870521 -2.295187,0.976792 -0.528351,0.08569 -2.218761,0.09805 -2.395521,0.01751 -0.171606,-0.07819 -0.251978,-0.301123 -0.164652,-0.456705 0.119803,-0.213444 0.237577,-0.239197 0.955543,-0.208943 0.834508,0.03516 1.562392,-0.04025 2.071255,-0.214609 0.231987,-0.07949 0.862033,-0.40212 1.596991,-0.817783 L 18.834529,6.5e-6 h 0.57406 c 0.757551,0 0.891748,0.07102 0.89453,0.473396 8.19e-4,0.118572 0.0149,0.374269 0.0313,0.568216 0.02959,0.349987 0.03227,0.355755 0.357944,0.768792 0.468371,0.594012 1.159287,1.575063 1.628742,2.312691 0.790429,1.241952 1.639756,2.811622 1.639756,3.030482 0,0.10497 -0.120487,0.28897 -0.503907,0.76953 -0.578455,0.72502 -0.57867,0.72512 -1.147734,0.56507 -0.283637,-0.0798 -0.363662,-0.1253 -0.478871,-0.27245 -0.07608,-0.0972 -0.265923,-0.30634 -0.421875,-0.46483 -0.342801,-0.34837 -0.58826,-0.4384 -1.195344,-0.4384 -0.598477,0 -1.218727,-0.19063 -1.634254,-0.50227 -0.08548,-0.0641 -0.160743,-0.10917 -0.167245,-0.10012 -0.0065,0.009 -0.387179,0.69866 -0.845947,1.53247 l -0.834124,1.51602 0.0531,0.8906795 0.0531,0.890691 -0.14157,0.24744 c -0.07786,0.136089 -0.141571,0.2592 -0.141571,0.27357 0,0.0144 0.121289,0.0605 0.269531,0.1026 0.974674,0.27656 4.000695,1.1841 4.710937,1.41287 l 0.222657,0.0717 v 2.03349 2.03348 l -0.63212,0.411969 c -0.347667,0.22658 -0.917147,0.597121 -1.265512,0.82341 l -0.633391,0.41145 0.464311,0.690111 c 0.40358,0.59985 0.572175,0.797349 1.288949,1.509929 l 0.824638,0.819811 v 0.8091 0.80909 l -1.300781,-0.001 -1.300782,-10e-4 -0.372509,-0.77539 -0.372509,-0.77539 -0.431934,-0.313 -0.431934,-0.313 -0.947337,-1.80421 -0.947337,-1.80421 -0.985958,-1.26631 c -0.542276,-0.69647 -1.002106,-1.28468 -1.021844,-1.30713 -0.02512,-0.0286 -1.810114,0.6637 -1.902494,0.73784 -0.0042,0.003 0.02985,0.18565 0.07562,0.4051 0.329904,1.58159 0.0034,3.22433 -0.912382,4.5903 -0.852038,1.27091 -2.3522437,2.2494 -3.8489037,2.5104 -0.508984,0.0888 -1.306118,0.121881 -1.739499,0.0723 z m 15.7374586,-0.95144 v -0.29352 l -0.755945,-0.74945 -0.755946,-0.74945 -1.244151,-1.875 -1.244151,-1.875 -1.257716,-2.64705 c -0.833998,-1.75527 -1.257716,-2.69769 -1.257716,-2.79738 0,-0.10657 0.03595,-0.17861 0.123509,-0.24748 0.250335,-0.19691 0.430846,-0.10998 0.642224,0.30931 l 0.155851,0.30915 0.296145,-0.50667 0.296145,-0.50666 -0.05337,-0.89257 -0.05337,-0.8925695 0.374563,-0.67731 c 0.20601,-0.37253 0.36896,-0.68292 0.362111,-0.68977 -0.0068,-0.007 -0.559202,-0.20643 -1.227452,-0.4435 -0.796783,-0.28268 -1.236484,-0.41689 -1.277414,-0.3899 -0.03433,0.0226 -1.031791,1.37862 -2.216586,3.0133195 l -2.1541717,2.97216 0.4323117,0.45098 c 0.467745,0.48794 0.835828,1.00469 1.091806,1.53277 l 0.16206,0.33433 0.774162,-0.32067 c 0.425789,-0.17638 0.794295,-0.33312 0.818901,-0.34833 0.08652,-0.0535 -0.299699,-0.49302 -0.562853,-0.64056 -0.350702,-0.19663 -0.81995,-0.58164 -0.886254,-0.72716 -0.1044,-0.22913 0.05769,-0.4835 0.308091,-0.4835 0.121095,0 0.236074,0.0623 0.497359,0.26953 0.186919,0.14824 0.442106,0.32226 0.567084,0.38672 0.200164,0.10322 0.407681,0.3476 1.742011,2.05138 l 1.514778,1.93419 0.921584,1.75753 0.921586,1.75753 0.437805,0.31609 0.437806,0.31609 0.291991,0.60937 c 0.160595,0.33516 0.312342,0.63575 0.337214,0.66797 0.03259,0.0422 0.24007,0.0586 0.742609,0.0586 h 0.697386 z m -14.1918656,0.17714 c 0.749965,-0.13078 1.615808,-0.49726 2.191866,-0.92774 2.2892736,-1.71074 2.8381936,-4.80923 1.2724196,-7.18245 -0.207866,-0.31505 -0.8712126,-1.05468 -0.9459116,-1.05468 -0.01983,0 -0.132477,0.12975 -0.250328,0.28834 l -0.214275,0.28835 0.277861,0.29704 c 1.6927756,1.80958 1.6639626,4.54808 -0.06606,6.2781 -1.755069,1.75507 -4.579851,1.75507 -6.334921,0 -1.7542807,-1.75428 -1.7542807,-4.58064 0,-6.33492 0.737372,-0.73737 1.627732,-1.16343 2.689153,-1.28683 0.832115,-0.0967 1.741286,0.0682 2.51194,0.45578 0.362307,0.18219 0.322143,0.19563 0.606983,-0.20311 l 0.171932,-0.24069 -0.105493,-0.0691 c -0.420915,-0.27552 -1.193146,-0.56241 -1.797561,-0.66781 -3.216869,-0.56098 -6.15949325,1.91331 -6.15949325,5.17917 0,2.54796 1.81904225,4.72534 4.32798825,5.18056 0.461335,0.0837 1.343716,0.0837 1.823896,-3e-5 z m 0.152803,-1.57037 c 1.254033,-0.39695 2.167714,-1.31663 2.562046,-2.57888 0.09398,-0.30081 0.109829,-0.44967 0.109829,-1.03125 0,-0.77919 -0.07631,-1.10633 -0.40669,-1.74353 -0.19697,-0.37989 -0.681476,-0.99866 -0.781971,-0.99866 -0.03254,0 -0.548321,0.67421 -1.146186,1.49823 -0.597865,0.82402 -1.142141,1.52915 -1.209501,1.56694 -0.101701,0.0571 -0.146735,0.0587 -0.26551,0.009 -0.160364,-0.0664 -0.26961,-0.27429 -0.222376,-0.42311 0.01703,-0.0537 0.478433,-0.71439 1.025339,-1.4683 0.546907,-0.7539 1.042035,-1.43853 1.100286,-1.5214 l 0.105911,-0.15066 -0.273178,-0.1379 c -0.561013,-0.2832 -0.905054,-0.35765 -1.652686,-0.35765 -0.58217,0 -0.729891,0.0158 -1.029599,0.10987 -1.295592,0.40683 -2.180258,1.2915 -2.587088,2.58709 -0.09411,0.29971 -0.109876,0.44743 -0.109876,1.0296 0,0.58158 0.01585,0.73044 0.10983,1.03125 0.431482,1.38117 1.519073,2.37687 2.917132,2.67068 0.372218,0.0782 1.384503,0.0252 1.754288,-0.0918 z m 12.9023436,-3.59952 1.042969,-0.67755 v -1.58841 c 0,-0.87362 -0.0095,-1.5884 -0.02116,-1.5884 -0.01163,0 -0.744643,-0.21927 -1.628907,-0.48726 -2.182714,-0.66151 -3.130125,-0.92959 -3.194413,-0.90388 -0.02968,0.0119 -0.104684,0.11591 -0.166677,0.23121 l -0.112714,0.20964 0.262286,0.54546 c 0.242274,0.50384 0.272335,0.54549 0.393965,0.54593 0.104774,3.7e-4 2.109009,0.40661 3.471521,0.70365 l 0.246094,0.0537 v 0.8328 0.8328 l -1.009887,0.55162 c -0.555439,0.30339 -1.003681,0.56629 -0.996094,0.584221 0.07843,0.185339 0.580378,0.88302 0.619359,0.86087 0.02788,-0.0158 0.52002,-0.3337 1.093653,-0.70635 z m -1.276324,-1.25931 0.819293,-0.45182 v -0.33339 -0.3334 l -1.347657,-0.28487 c -0.74121,-0.15668 -1.355392,-0.279 -1.364848,-0.27181 -0.01542,0.0117 0.334246,0.76819 0.815309,1.76384 0.09654,0.1998 0.194219,0.36328 0.217067,0.36328 0.02285,0 0.410224,-0.20332 0.860836,-0.45183 z m 4.214345,-9.2866695 0.277864,-0.35933 -0.245786,-0.47522 c -0.135182,-0.26136 -0.394968,-0.73332 -0.577301,-1.04878 -0.316419,-0.54746 -0.335136,-0.56966 -0.411049,-0.48759 -0.480743,0.51971 -1.322094,1.47512 -1.308183,1.48553 0.0098,0.007 0.129659,0.0381 0.266327,0.0684 0.458579,0.10149 0.744446,0.28065 1.150727,0.7212 0.326577,0.35412 0.423445,0.43426 0.546099,0.45182 0.01289,0.002 0.148476,-0.15835 0.301302,-0.35598 z m -17.0154666,1.4273 c -0.09308,-0.0801 -0.129585,-0.15527 -0.129585,-0.26693 0,-0.11166 0.03651,-0.18686 0.129585,-0.26692 l 0.129583,-0.11147 1.663663,0.0134 1.663662,0.0134 0.08957,0.11066 c 0.04926,0.0609 0.08957,0.16927 0.08957,0.2409 0,0.0716 -0.04031,0.18004 -0.08957,0.2409 l -0.08957,0.11066 -1.663662,0.0134 -1.663663,0.0134 z m -4.2850826,-0.11256 c -0.2370102,-0.30131 0.1335606,-0.67188 0.4348696,-0.43487 0.239891,0.1887 0.108505,0.56175 -0.197845,0.56175 -0.09333,0 -0.169143,-0.0406 -0.2370246,-0.12688 z m 1.4999996,0 c -0.23701,-0.30131 0.133561,-0.67188 0.43487,-0.43487 0.239891,0.1887 0.108505,0.56175 -0.197845,0.56175 -0.09333,0 -0.169143,-0.0406 -0.237025,-0.12688 z m 1.50265,0.003 c -0.127583,-0.1622 -0.122656,-0.27713 0.0179,-0.41769 0.140561,-0.14056 0.25549,-0.14549 0.417684,-0.0179 0.236716,0.1862 0.102514,0.5591 -0.201213,0.5591 -0.09241,0 -0.168948,-0.0403 -0.234375,-0.12351 z m 4.543473,-1.04837 c -0.130305,-0.13031 -0.120737,-0.35228 0.02131,-0.49432 0.113183,-0.11318 0.128104,-0.11506 0.9161926,-0.11506 0.788089,0 0.80301,0.002 0.916193,0.11506 0.142044,0.14204 0.151611,0.36401 0.02131,0.49432 -0.08681,0.0868 -0.15625,0.0937 -0.9375,0.0937 -0.7812496,0 -0.8506946,-0.007 -0.9374996,-0.0937 z m 2.0619866,-2.71205 c -0.15216,-0.15216 -0.167796,-0.22278 -0.08807,-0.39777 0.08548,-0.18761 0.229189,-0.21831 1.021965,-0.21831 0.67915,0 0.751854,0.008 0.864982,0.0972 0.159916,0.12579 0.172877,0.40607 0.02497,0.54011 -0.08717,0.079 -0.18996,0.091 -0.891138,0.10411 l -0.792604,0.0148 z m 8.813013,-1.037952 c -0.136232,-0.136232 -0.121349,-0.346486 0.03313,-0.467997 0.30131,-0.237011 0.67188,0.13356 0.43487,0.43487 -0.121511,0.154476 -0.331765,0.169359 -0.467997,0.03313 z m -8.126491,-0.284272 c -0.159915,-0.125789 -0.172877,-0.406077 -0.02498,-0.540114 0.08681,-0.07867 0.189569,-0.09106 0.863508,-0.104122 0.627374,-0.01216 0.790812,-0.0015 0.908603,0.05945 0.162548,0.08406 0.226911,0.25873 0.162658,0.441434 -0.07283,0.207091 -0.210276,0.239065 -1.030884,0.239816 -0.693824,6.36e-4 -0.765465,-0.0072 -0.878906,-0.09646 z"
     id="path3767" />
</svg>
