<?xml version="1.0" encoding="UTF-8" standalone="no"?>
<svg
   xmlns:dc="http://purl.org/dc/elements/1.1/"
   xmlns:cc="http://creativecommons.org/ns#"
   xmlns:rdf="http://www.w3.org/1999/02/22-rdf-syntax-ns#"
   xmlns:svg="http://www.w3.org/2000/svg"
   xmlns="http://www.w3.org/2000/svg"
   xmlns:sodipodi="http://sodipodi.sourceforge.net/DTD/sodipodi-0.dtd"
   xmlns:inkscape="http://www.inkscape.org/namespaces/inkscape"
   inkscape:version="1.0 (4035a4fb49, 2020-05-01)"
   height="24"
   width="24"
   sodipodi:docname="list-motorbikes.svg"
   id="svg4"
   version="1.1"
   viewBox="0 5 24 24">
  <metadata
     id="metadata10">
    <rdf:RDF>
      <cc:Work
         rdf:about="">
        <dc:format>image/svg+xml</dc:format>
        <dc:type
           rdf:resource="http://purl.org/dc/dcmitype/StillImage" />
        <dc:title></dc:title>
      </cc:Work>
    </rdf:RDF>
  </metadata>
  <defs
     id="defs8" />
  <sodipodi:namedview
     inkscape:current-layer="svg4"
     inkscape:window-maximized="1"
     inkscape:window-y="-9"
     inkscape:window-x="-9"
     inkscape:cy="7"
     inkscape:cx="12"
     inkscape:zoom="69.583333"
     showgrid="false"
     id="namedview6"
     inkscape:window-height="1361"
     inkscape:window-width="3440"
     inkscape:pageshadow="2"
     inkscape:pageopacity="0"
     guidetolerance="10"
     gridtolerance="10"
     objecttolerance="10"
     borderopacity="1"
     bordercolor="#666666"
     pagecolor="#ffffff" />
  <path
     style="fill:#5997e3;fill-opacity:1"
     id="path2"
     fill="#5997e3ff"
     d="M 19.44,14.03 15.41,10 H 11 v 2 h 3.59 l 2,2 H 5 c -2.8,0 -5,2.2 -5,5 0,2.8 2.2,5 5,5 2.46,0 4.45,-1.69 4.9,-4 h 1.65 l 2.77,-2.77 C 14.11,17.77 14,18.37 14,19 c 0,2.8 2.2,5 5,5 2.8,0 5,-2.2 5,-5 0,-2.65 -1.97,-4.77 -4.56,-4.97 z M 7.82,20 C 7.4,21.15 6.28,22 5,22 3.37,22 2,20.63 2,19 c 0,-1.63 1.37,-3 3,-3 1.28,0 2.4,0.85 2.82,2 H 5 v 2 z m 2.9,-2 H 9.95 L 9.7,17.31 C 9.52,16.83 9.28,16.39 8.98,16 h 3.74 z M 19,22 c -1.66,0 -3,-1.34 -3,-3 0,-1.66 1.34,-3 3,-3 1.66,0 3,1.34 3,3 0,1.66 -1.34,3 -3,3 z" />
</svg>
