<?xml version="1.0" encoding="UTF-8" standalone="no"?>
<svg
   xmlns:dc="http://purl.org/dc/elements/1.1/"
   xmlns:cc="http://creativecommons.org/ns#"
   xmlns:rdf="http://www.w3.org/1999/02/22-rdf-syntax-ns#"
   xmlns:svg="http://www.w3.org/2000/svg"
   xmlns="http://www.w3.org/2000/svg"
   xmlns:sodipodi="http://sodipodi.sourceforge.net/DTD/sodipodi-0.dtd"
   xmlns:inkscape="http://www.inkscape.org/namespaces/inkscape"
   inkscape:version="1.0 (4035a4fb49, 2020-05-01)"
   height="24"
   width="24"
   sodipodi:docname="list-ski-jumping.svg"
   id="svg4"
   version="1.1"
   viewBox="0.00449872 0 24 24">
  <metadata
     id="metadata10">
    <rdf:RDF>
      <cc:Work
         rdf:about="">
        <dc:format>image/svg+xml</dc:format>
        <dc:type
           rdf:resource="http://purl.org/dc/dcmitype/StillImage" />
        <dc:title></dc:title>
      </cc:Work>
    </rdf:RDF>
  </metadata>
  <defs
     id="defs8" />
  <sodipodi:namedview
     inkscape:current-layer="svg4"
     inkscape:window-maximized="0"
     inkscape:window-y="0"
     inkscape:window-x="-8"
     inkscape:cy="51.713959"
     inkscape:cx="28.311417"
     inkscape:zoom="8.0171909"
     showgrid="false"
     id="namedview6"
     inkscape:window-height="1351"
     inkscape:window-width="1718"
     inkscape:pageshadow="2"
     inkscape:pageopacity="0"
     guidetolerance="10"
     gridtolerance="10"
     objecttolerance="10"
     borderopacity="1"
     bordercolor="#666666"
     pagecolor="#ffffff" />
  <path
     style="stroke-width:0.0468777;fill:#5997e3;fill-opacity:1"
     id="path2"
     fill="#5997e3ff"
     d="m 20.255455,4.5019118 c 1.242259,0 2.25013,-1.0078706 2.25013,-2.2501297 0,-1.242259 -1.007871,-2.2501296 -2.25013,-2.2501296 -1.242259,0 -2.25013,1.0078706 -2.25013,2.2501296 0,1.2422591 1.007871,2.2501297 2.25013,2.2501297 z m 3.422072,16.6931502 c -0.44065,-0.440652 -1.153191,-0.440652 -1.589154,0 -0.56722,0.567219 -1.42977,0.721916 -2.114184,0.407835 l -6.365992,-3.290814 2.306383,-3.459574 c 0.595347,-0.890677 0.478152,-2.086058 -0.281266,-2.840789 L 13.739455,10.113173 8.7235401,7.6239666 C 8.5875948,8.5568329 8.8829243,9.4990747 9.5532754,10.174114 l 3.5205156,3.525203 -2.151686,3.225186 -9.2770977,-4.795589 c -0.5484691,-0.281266 -1.22819576,-0.07032 -1.51414974,0.482841 -0.28595397,0.553156 -0.07031655,1.232883 0.48284032,1.514149 L 18.985069,23.618639 c 0.557845,0.257827 1.148504,0.379709 1.739163,0.379709 1.087563,0 2.156374,-0.4219 2.953295,-1.218821 0.435963,-0.435963 0.435963,-1.148504 0,-1.584465 z M 5.6296119,4.2956499 5.0905183,5.3503982 c 0.6750389,0.3422072 1.4625843,0.2297007 2.0063656,-0.225013 l 2.2126275,1.0969382 c -0.00469,0.00469 -0.00469,0.00938 -0.00938,0.014063 l 5.3674976,2.6626534 1.518837,-0.6094101 0.300017,0.8953641 c 0.187512,0.5672202 0.590659,1.0313102 1.125065,1.2985132 l 2.723594,1.359453 c 0.745355,0.370334 1.64072,0.07032 2.011053,-0.670351 0.370334,-0.740668 0.07032,-1.6407202 -0.670351,-2.0110541 L 19.233521,7.9380472 18.431912,5.537909 C 18.052203,4.4034686 16.514614,2.8846311 14.470747,3.7003031 L 10.664277,5.2238284 7.7344207,3.7706196 C 7.748484,3.090893 7.3969012,2.4299174 6.7546767,2.1017735 L 6.2343342,3.1190196 h -0.00938 L 4.6123658,2.7908757 c -0.08438,-0.018751 -0.1734475,0.00938 -0.2343885,0.079692 -0.089068,0.1031309 -0.079692,0.2578273 0.023439,0.346895 z" />
</svg>
