<?xml version="1.0" encoding="UTF-8" standalone="no"?>
<svg
   xmlns:dc="http://purl.org/dc/elements/1.1/"
   xmlns:cc="http://creativecommons.org/ns#"
   xmlns:rdf="http://www.w3.org/1999/02/22-rdf-syntax-ns#"
   xmlns:svg="http://www.w3.org/2000/svg"
   xmlns="http://www.w3.org/2000/svg"
   xmlns:sodipodi="http://sodipodi.sourceforge.net/DTD/sodipodi-0.dtd"
   xmlns:inkscape="http://www.inkscape.org/namespaces/inkscape"
   inkscape:version="1.0 (4035a4fb49, 2020-05-01)"
   sodipodi:docname="list-ufc.svg"
   viewBox="0 0 24 24"
   height="24"
   width="24"
   id="svg3784"
   version="1.1">
  <metadata
     id="metadata3790">
    <rdf:RDF>
      <cc:Work
         rdf:about="">
        <dc:format>image/svg+xml</dc:format>
        <dc:type
           rdf:resource="http://purl.org/dc/dcmitype/StillImage" />
        <dc:title></dc:title>
      </cc:Work>
    </rdf:RDF>
  </metadata>
  <defs
     id="defs3788" />
  <sodipodi:namedview
     inkscape:current-layer="svg3784"
     inkscape:window-maximized="0"
     inkscape:window-y="0"
     inkscape:window-x="-8"
     inkscape:cy="8.5582056"
     inkscape:cx="-1.1057469"
     inkscape:zoom="12.897628"
     showgrid="false"
     id="namedview3786"
     inkscape:window-height="1351"
     inkscape:window-width="1718"
     inkscape:pageshadow="2"
     inkscape:pageopacity="0"
     guidetolerance="10"
     gridtolerance="10"
     objecttolerance="10"
     borderopacity="1"
     bordercolor="#666666"
     pagecolor="#ffffff" />
  <path
     style="fill:#5997e3;stroke-width:0.0275269;fill-opacity:1"
     d="m 12.165927,23.991646 c -0.49422,-0.0325 -1.51994,-0.15975 -2.09204,-0.25945 -1.3147697,-0.22913 -1.6011097,-0.27545 -1.9511697,-0.31566 -0.43652,-0.0501 -0.63924,-0.11794 -0.74158,-0.24804 -0.0506,-0.0644 -0.0599,-0.11169 -0.0599,-0.30438 0,-0.24634 5e-5,-0.24664 0.16908,-1.00311 0.0626,-0.28009 0.12218,-0.5588 0.13243,-0.61936 0.0219,-0.12907 0.0787,-0.32129 0.22375,-0.75699 0.23127,-0.69458 0.24591,-0.92334 0.0958,-1.49665 -0.0599,-0.22889 -0.10024,-0.4573 -0.10993,-0.62292 -0.008,-0.14383 -0.0276,-0.35441 -0.0427,-0.46796 -0.0559,-0.42181 -0.0809,-0.74212 -0.0946,-1.21194 -0.0158,-0.53939 -0.0252,-0.57915 -0.23386,-0.98931 -0.0734,-0.14432 -0.14214,-0.30266 -0.15269,-0.35186 -0.0206,-0.0961 -0.084,-0.1201 -0.10899,-0.0413 -0.0319,0.10043 -0.4254,0.47031 -0.62505,0.58751 -0.11161,0.0655 -0.29987,0.18633 -0.41836,0.26849 -0.11849,0.0822 -0.3382,0.20266 -0.48826,0.26779 -0.15005,0.0651 -0.43091,0.20393 -0.62414,0.30844 -0.19322,0.10451 -0.41944,0.22265 -0.50271,0.26255 -0.17773,0.0851 -0.57208,0.1503 -1.05838,0.17484 -0.80197,0.0405 -0.95093,-0.12926 -0.99666,-1.13569 -0.0136,-0.29944 -0.008,-0.4461 0.0263,-0.634 0.0745,-0.41396 0.0984,-0.63668 0.12999,-1.20789 0.0414,-0.74928 0.12591,-1.04189 0.42147,-1.45893 0.0644,-0.0908 0.19819,-0.28284 0.29736,-0.42666 0.0992,-0.14383 0.31852,-0.45935 0.48744,-0.70116 0.16892,-0.24181 0.30713,-0.45931 0.30713,-0.48334 0,-0.024 -0.0182,-0.0677 -0.0404,-0.0971 -0.0677,-0.0895 -0.0478,-0.28597 0.0801,-0.78887 0.14928,-0.5871597 0.19012,-0.6821997 0.29313,-0.6821997 h 0.0749 l -0.0152,-0.27661 c -0.017,-0.30898 0.006,-0.44212 0.14531,-0.85267 0.18068,-0.53123 0.40673,-0.92745 0.64436,-1.12947 0.069,-0.0586 0.21778,-0.18493 0.3307,-0.28066 0.11292,-0.0957 0.25209,-0.24153 0.30927,-0.324 0.0864,-0.12466 0.12781,-0.15804 0.24546,-0.19803 0.0778,-0.0264 0.15543,-0.0586 0.17245,-0.0714 0.017,-0.0128 0.0917,-0.0458 0.16601,-0.0732 0.11209,-0.0415 0.18287,-0.047 0.41618,-0.0328 0.59446,0.0364 0.92145,0.15254 0.92145,0.32736 0,0.0197 0.031,0.0815 0.0688,0.13715 0.0379,0.0557 0.0688,0.1267 0.0688,0.15778 0,0.0402 0.0179,0.0566 0.0619,0.0566 0.0966,1.7e-4 0.2377,0.10057 0.27996,0.19928 0.0211,0.0493 0.0524,0.14222 0.0695,0.20648 0.0216,0.0811 0.054,0.12877 0.10577,0.15582 0.20879,0.10907 0.3498,0.39137 0.2762,0.55292 -0.0438,0.0962 -0.12548,0.14202 -0.32212,0.18071 -0.11641,0.0229 -0.18368,0.0521 -0.21161,0.0917 -0.0364,0.0517 -0.0362,0.0591 0.002,0.0671 0.0234,0.005 0.12835,-0.0105 0.23328,-0.0344 0.35664,-0.0811 0.77737,-0.0437 1.05847,0.0941 0.19098,0.0936 0.18858,0.0421 -0.0121,-0.26133 -0.43102,-0.65152 -0.55716,-0.90028 -0.68396,-1.34882 -0.0766,-0.27085 -0.14553,-0.70747 -0.14072,-0.89091 0.006,-0.22383 0.008,-0.21831 -0.0899,-0.26861 -0.0492,-0.0254 -0.10804,-0.072 -0.13075,-0.10369 -0.0821,-0.11456 -0.21782,-0.45629 -0.25974,-0.65414 -0.10275,-0.48492 -0.12403,-0.56679 -0.17774,-0.68394 -0.0331,-0.0722 -0.0571,-0.182 -0.0574,-0.26323 -5e-4,-0.11693 0.0116,-0.15078 0.0751,-0.21024 0.0416,-0.039 0.10357,-0.0793 0.13763,-0.0896 0.0341,-0.0103 0.0642,-0.0334 0.0669,-0.0513 0.003,-0.0179 0.006,-0.38558 0.008,-0.81706 0.002,-0.71591 0.008,-0.80589 0.0642,-1.02888 0.0715,-0.28359 0.23974,-0.65853 0.36961,-0.82357 0.3737,-0.4749 0.92994,-0.77287 1.6544997,-0.88629 0.15416,-0.0241 0.31915,-0.0631 0.36666,-0.0866 0.10322,-0.0511 0.25594,-0.0548 0.64308,-0.0155 0.15897,0.0161 0.32208,0.0227 0.36246,0.0147 0.0613,-0.0122 0.0749,-0.004 0.0826,0.0501 0.007,0.0522 0.0277,0.066 0.1055,0.0714 0.19389,0.0135 0.23583,0.0241 0.33032,0.0837 0.053,0.0334 0.12112,0.0608 0.1514,0.0609 0.12189,3.3e-4 0.65432,0.36189 0.81947,0.55649 0.2126,0.25049 0.30066,0.46268 0.40313,0.97132 0.0921,0.45706 0.13649,0.83045 0.15385,1.29376 0.022,0.58644 0.0404,0.65667 0.21325,0.81373 l 0.13819,0.12556 -0.10366,0.15613 -0.10366,0.15613 0.0586,0.13632 c 0.0644,0.14959 0.0713,0.28899 0.0305,0.60783 -0.0315,0.24575 -0.13544,0.46761 -0.33419,0.71324 l -0.1377,0.17017 -0.0152,0.25398 c -0.008,0.13969 -0.006,0.41265 0.005,0.60657 l 0.0203,0.35259 0.12785,0.16919 c 0.13485,0.17844 0.16232,0.19672 0.70633,0.47009 0.40261,0.20232 0.49968,0.23391 0.81969,0.26675 0.42015,0.0431 0.5717,0.12701 1.12477,0.6227 0.4609,0.41308 0.7412,0.57706 1.06932,0.62561 0.55343,0.0819 0.85732,0.2645 1.32898,0.7986297 0.39569,0.44811 0.62899,0.78535 0.8141,1.17681 0.19132,0.40462 0.22423,0.56924 0.22423,1.12162 0,0.27953 0.0184,0.62363 0.0439,0.82127 0.0433,0.33604 0.0464,0.34504 0.25154,0.74439 0.548,1.06668 0.72448,1.42736 0.82981,1.69588 0.17698,0.45121 0.24654,0.73282 0.24949,1.01002 10e-4,0.10717 0.0174,0.17471 0.053,0.22022 0.0903,0.11532 0.21597,0.39116 0.24888,0.54611 0.0241,0.11348 0.0242,0.21656 2.8e-4,0.42215 -0.0293,0.25208 -0.0245,0.50024 0.0186,0.95901 0.0248,0.26384 -0.0164,0.40743 -0.26508,0.92463 -0.23541,0.48956 -0.37092,0.67105 -0.58288,0.7807 -0.15569,0.0805 -0.37138,0.0591 -0.58604,-0.0583 -0.0454,-0.0248 -0.17765,-0.0973 -0.29384,-0.16103 -0.1162,-0.0637 -0.28962,-0.1391 -0.38538,-0.1675 -0.0958,-0.0284 -0.32588,-0.0961 -0.51137,-0.15054 -0.22289,-0.0654 -0.40803,-0.14077 -0.54594,-0.2223 -0.11477,-0.0679 -0.22313,-0.12367 -0.2408,-0.12404 -0.0177,-3.6e-4 -0.0879,-0.0435 -0.15601,-0.0958 -0.0681,-0.0523 -0.17961,-0.1344 -0.24774,-0.1824 -0.0681,-0.048 -0.19514,-0.14824 -0.28225,-0.22275 -0.10711,-0.0916 -0.16268,-0.12369 -0.17166,-0.0991 -0.0167,0.0457 -0.20059,0.92455 -0.23228,1.10994 -0.032,0.18706 -0.0761,0.52198 -0.11247,0.85333 -0.0166,0.1514 -0.0731,0.54159 -0.1255,0.8671 -0.0524,0.3255 -0.0959,0.64137 -0.0966,0.70193 -7.2e-4,0.0606 -0.016,0.20716 -0.0339,0.32577 l -0.0326,0.21566 -0.1514,0.0545 c -0.33042,0.11905 -0.74677,0.24971 -1.08731,0.34122 -0.19682,0.0529 -0.39501,0.10767 -0.44043,0.12172 -0.12079,0.0374 -0.74756,0.16202 -1.1286,0.22446 -0.32045,0.0525 -1.25154,0.0882 -1.63785,0.0628 z m 3.38818,-8.15983 c 0.25237,-0.085 0.6724,-0.34832 0.87696,-0.54974 0.18797,-0.18508 0.25825,-0.32511 0.40068,-0.79828 0.0251,-0.0833 0.0694,-0.19236 0.0985,-0.24243 0.0291,-0.0501 0.0527,-0.10582 0.0525,-0.12388 -1.9e-4,-0.018 -0.0619,-0.10096 -0.13704,-0.18423 -0.0913,-0.10112 -0.13169,-0.16739 -0.12165,-0.19957 0.0315,-0.101 -0.0308,-0.16191 -0.43716,-0.42707 -0.51952,-0.33903 -0.65764,-0.41938 -0.72098,-0.41938 -0.0274,0 -0.10938,-0.0557 -0.18221,-0.12387 -0.0728,-0.0681 -0.15126,-0.12387 -0.17428,-0.12387 -0.023,0 -0.12803,-0.12697 -0.23335,-0.28215 -0.32547,-0.47955 -0.42862,-0.62191 -0.56561,-0.78058 -0.0727,-0.0842 -0.18752,-0.2605 -0.2551,-0.39167 -0.0676,-0.13118 -0.16194,-0.27988 -0.20971,-0.33046 -0.0991,-0.10496 -0.33415,-0.23159 -0.57949,-0.31222 -0.2181,-0.0717 -0.82447,-0.0995 -1.11201,-0.051 -0.33031,0.0557 -0.859,0.34616 -0.859,0.4719 0,0.032 -0.0283,0.0642 -0.0705,0.0802 -0.0749,0.0285 -0.0755,0.0374 -0.0242,0.37352 0.01,0.0649 -0.006,0.10912 -0.0672,0.18601 -0.0674,0.0848 -0.0833,0.13591 -0.0996,0.32018 -0.0169,0.19053 -0.0119,0.23477 0.0377,0.33726 0.0504,0.10413 0.0552,0.15024 0.0406,0.39298 -0.0186,0.31027 0.006,0.40342 0.15222,0.56967 0.077,0.0877 0.086,0.11628 0.086,0.27253 v 0.17456 l 0.16705,0.15896 c 0.0919,0.0874 0.22275,0.1916 0.29083,0.2315 0.10624,0.0623 0.14498,0.0704 0.27347,0.0571 0.0823,-0.008 0.21746,-0.0486 0.30029,-0.0891 l 0.15059,-0.0737 0.10394,0.0808 c 0.0572,0.0444 0.17207,0.11925 0.25534,0.16628 0.0833,0.047 0.24086,0.15337 0.3502,0.23631 0.22036,0.16716 0.30597,0.19706 0.44702,0.15614 0.0866,-0.0251 0.10293,-0.0203 0.17942,0.0539 0.0463,0.0448 0.12169,0.0946 0.16762,0.11065 0.0459,0.016 0.10648,0.068 0.13457,0.11556 0.0281,0.0475 0.24853,0.27945 0.48987,0.51534 0.36243,0.35424 0.49805,0.46263 0.62012,0.49562 0.004,10e-4 0.0824,-0.023 0.17355,-0.0538 z"
     id="path4357" />
</svg>
