<?xml version="1.0" encoding="UTF-8" standalone="no"?>
<svg
   xmlns:dc="http://purl.org/dc/elements/1.1/"
   xmlns:cc="http://creativecommons.org/ns#"
   xmlns:rdf="http://www.w3.org/1999/02/22-rdf-syntax-ns#"
   xmlns:svg="http://www.w3.org/2000/svg"
   xmlns="http://www.w3.org/2000/svg"
   xmlns:sodipodi="http://sodipodi.sourceforge.net/DTD/sodipodi-0.dtd"
   xmlns:inkscape="http://www.inkscape.org/namespaces/inkscape"
   inkscape:version="1.0 (4035a4fb49, 2020-05-01)"
   sodipodi:docname="list-martial-arts.svg"
   viewBox="0 0 24.000001 24.000001"
   height="24"
   width="24"
   id="svg4374"
   version="1.1">
  <metadata
     id="metadata4380">
    <rdf:RDF>
      <cc:Work
         rdf:about="">
        <dc:format>image/svg+xml</dc:format>
        <dc:type
           rdf:resource="http://purl.org/dc/dcmitype/StillImage" />
        <dc:title></dc:title>
      </cc:Work>
    </rdf:RDF>
  </metadata>
  <defs
     id="defs4378" />
  <sodipodi:namedview
     inkscape:current-layer="svg4374"
     inkscape:window-maximized="0"
     inkscape:window-y="0"
     inkscape:window-x="-8"
     inkscape:cy="12.944527"
     inkscape:cx="2.8684834"
     inkscape:zoom="17.003709"
     showgrid="false"
     id="namedview4376"
     inkscape:window-height="1351"
     inkscape:window-width="1718"
     inkscape:pageshadow="2"
     inkscape:pageopacity="0"
     guidetolerance="10"
     gridtolerance="10"
     objecttolerance="10"
     borderopacity="1"
     bordercolor="#666666"
     pagecolor="#ffffff" />
  <path
     style="fill:#5997e3;stroke-width:0.0235386;fill-opacity:1"
     d="m 9.3308568,23.935793 c -0.40702,-0.13862 -0.70792,-0.45613 -0.81556,-0.86056 -0.0347,-0.13052 -0.0464,-0.56576 -0.0188,-0.70364 l 0.0154,-0.0771 0.3608,0.0156 c 0.59028,0.0255 1.3332102,0.10937 1.9153902,0.21636 l 0.20889,0.0384 -0.0118,0.12138 c -0.0303,0.31057 -0.0645,0.45059 -0.15346,0.62836 -0.2748,0.54903 -0.9239102,0.8177 -1.5008402,0.6212 z m 4.4961702,0.0233 c -0.29355,-0.0789 -0.58979,-0.30698 -0.74989,-0.57724 -0.0846,-0.14285 -0.16022,-0.42073 -0.17944,-0.65964 l -0.0126,-0.15599 0.0753,-0.0133 c 0.82241,-0.14517 1.41493,-0.2155 2.04423,-0.24263 l 0.36592,-0.0158 0.0152,0.0918 c 0.0292,0.17697 0.0169,0.56173 -0.0223,0.69361 -0.16639,0.56048 -0.63751,0.91906 -1.20198,0.91485 -0.11423,-8.5e-4 -0.26477,-0.0169 -0.33451,-0.0357 z m -2.35072,-1.5887 c -0.10522,-0.0404 -0.82522,-0.18476 -1.15919,-0.23247 -0.5148502,-0.0735 -1.0027102,-0.1152 -1.7139202,-0.14634 -0.63108,-0.0276 -0.64271,-0.029 -0.63182,-0.0768 0.006,-0.0268 0.18319,-1.52633 0.39353,-3.33234 0.21034,-1.806 0.38879,-3.29111 0.39655,-3.30024 0.0145,-0.0171 1.14843,0.13114 1.17024,0.15296 0.007,0.007 -0.015,0.13347 -0.0483,0.28173 -0.07,0.31228 -0.16246,0.84137 -0.14927,0.85456 0.01,0.01 0.4988902,0.0808 0.5581002,0.0808 0.0298,0 0.0484,-0.0641 0.0902,-0.31189 0.029,-0.17153 0.0801,-0.42575 0.11349,-0.56492 0.0527,-0.2194 0.0672,-0.25304 0.10893,-0.25304 0.0719,0 1.27591,0.16732 1.28767,0.17895 0.015,0.0148 -0.33234,6.65639 -0.34901,6.67423 -0.008,0.008 -0.0381,0.006 -0.0673,-0.005 z m 0.84245,-0.0261 c 4.7e-4,-0.03 -0.0758,-1.5292 -0.16945,-3.33155 -0.0937,-1.80235 -0.16453,-3.28278 -0.15747,-3.28984 0.0205,-0.0205 1.4062,-0.20658 1.44038,-0.19346 0.0326,0.0125 0.12738,0.41173 0.20105,0.84667 0.0236,0.13942 0.0495,0.26008 0.0576,0.26813 0.0168,0.0168 0.55383,-0.0514 0.57546,-0.073 0.0194,-0.0194 -0.0514,-0.45237 -0.13488,-0.82487 -0.0377,-0.16809 -0.0649,-0.30918 -0.0606,-0.31352 0.0208,-0.0208 1.03377,-0.14584 1.04827,-0.1294 0.009,0.0104 0.18792,1.4912 0.39728,3.29073 0.20935,1.79954 0.38547,3.29418 0.39138,3.32143 0.0105,0.0486 0.002,0.0498 -0.44197,0.0657 -1.27534,0.0454 -2.35594,0.18645 -3.1067,0.40557 -0.031,0.009 -0.041,-0.001 -0.0403,-0.0425 z m -1.04641,-7.00719 c -0.35952,-0.0505 -0.61372,-0.0966 -0.61893,-0.1122 -0.0306,-0.0918 0.38683,-1.17567 0.68773,-1.7857 0.24779,-0.50235 0.62085,-1.14162 0.66621,-1.14162 0.0292,0 0.43302,0.68608 0.61282,1.04114 0.09,0.17777 0.23449,0.49007 0.32104,0.69401 0.18021,0.42461 0.44365,1.18651 0.41792,1.20864 -0.0239,0.0205 -1.29253,0.18849 -1.39431,0.18458 -0.0453,-0.002 -0.35693,-0.0417 -0.69248,-0.0888 z m -1.8788702,-0.25704 -0.58233,-0.083 0.1072,-0.1146 c 0.12869,-0.13758 0.23857,-0.36237 0.26924,-0.55082 0.0362,-0.22228 -0.005,-0.40026 -0.17795,-0.76977 -0.0836,-0.1785 -0.15192,-0.33614 -0.15192,-0.35032 0,-0.0142 0.0751,-0.26006 0.16678,-0.5464 0.13916,-0.43438 0.17912,-0.53299 0.24127,-0.59536 l 0.0745,-0.0748 0.35308,0.0567 c 0.3699102,0.0594 1.0266402,0.13934 1.3914402,0.16931 l 0.21451,0.0176 -0.15125,0.25892 c -0.20061,0.34342 -0.56042,1.07875 -0.71411,1.4594 -0.0679,0.1683 -0.18971,0.50687 -0.27058,0.75237 -0.0809,0.24551 -0.15615,0.448 -0.1672902,0.44999 -0.0111,0.002 -0.2823,-0.0337 -0.60258,-0.0794 z m 4.5007202,-0.2221 c -0.25704,-0.8153 -0.63137,-1.66947 -1.03017,-2.35072 -0.0803,-0.13713 -0.14597,-0.2563 -0.14597,-0.26481 0,-0.009 0.041,-0.0155 0.0911,-0.0155 0.15714,0 0.77113,-0.0694 1.29767,-0.14662 0.27835,-0.0408 0.54195,-0.0749 0.5858,-0.0756 l 0.0797,-0.001 0.19359,0.60616 0.19359,0.60615 -0.14748,0.31365 c -0.0811,0.1725 -0.15902,0.35521 -0.17313,0.40601 -0.0403,0.14517 -0.031,0.38881 0.0214,0.55841 0.0476,0.15392 0.21617,0.41406 0.29813,0.45993 0.0234,0.0131 0.0371,0.0293 0.0304,0.0359 -0.007,0.007 -0.2555,0.0448 -0.55296,0.0846 -0.29747,0.0399 -0.56396,0.0776 -0.5922,0.0839 -0.0473,0.0104 -0.0591,-0.0134 -0.14953,-0.30011 z m -5.9068402,0.10983 c -0.16515,-0.0457 -0.30412,-0.12753 -0.398,-0.23445 -0.17835,-0.20313 -0.65998,-1.31008 -0.82315,-1.89189 l -0.0488,-0.17406 0.27573,0.0163 c 0.53126,0.0314 0.92609,0.0961 1.32707,0.21744 l 0.20394,0.0617 0.0405,0.10872 c 0.0223,0.0598 0.11366,0.26214 0.20304,0.44966 0.20393,0.42786 0.24167,0.55315 0.22233,0.73819 -0.0515,0.49233 -0.53881,0.83663 -1.00269,0.70838 z m 7.6814002,0.0132 c -0.32518,-0.0676 -0.58961,-0.34236 -0.63805,-0.66295 -0.0309,-0.20451 9.9e-4,-0.3462 0.14853,-0.65975 0.075,-0.15936 0.17514,-0.37978 0.22259,-0.48982 l 0.0863,-0.20008 0.16265,-0.0552 c 0.33561,-0.11382 0.83509,-0.19823 1.35785,-0.22949 0.15179,-0.009 0.27598,-0.008 0.27598,0.002 0,0.0559 -0.16576,0.54528 -0.29824,0.88047 -0.23562,0.59615 -0.45484,1.03832 -0.58235,1.17464 -0.18066,0.19314 -0.48427,0.29231 -0.73522,0.24013 z m -7.4460302,-2.42912 c -0.21367,-0.0584 -0.66533,-0.13042 -1.01272,-0.16145 -0.31934,-0.0285 -1.48747,-0.0351 -1.65936,-0.009 -0.0583,0.009 -0.10604,0.01 -0.10604,0.002 0,-0.007 0.0213,-0.18077 0.0474,-0.38517 0.26345,-2.0655305 0.91412,-3.7852305 1.91292,-5.0558305 0.18233,-0.23196 0.53553,-0.61649 0.70427,-0.76675 0.373,-0.33217 0.73714,-0.62209 0.91743,-0.73045 0.33381,-0.20063 0.72533,-0.3258 1.0216902,-0.32664 l 0.14313,-4.1e-4 0.20481,0.61789 c 0.22927,0.69168 0.58051,1.58661 0.83838,2.13613 0.0942,0.20067 0.17164,0.37587 0.17216,0.38934 0.002,0.0487 -0.52624,0.8123 -0.99236,1.43491 -0.32625,0.4357805 -0.8886702,1.1423205 -1.0586602,1.3299405 l -0.096,0.10592 -0.002,-1.2240105 -0.002,-1.22401 -0.0802,0.1563 c -0.1839,0.35818 -0.41318,1.1776805 -0.55228,1.9739505 -0.12286,0.70327 -0.14035,0.82204 -0.19065,1.29463 -0.0269,0.25245 -0.0507,0.4647 -0.053,0.47166 -0.002,0.007 -0.0728,-0.006 -0.15661,-0.029 z m 7.4036502,-0.001 c -0.005,-0.0162 -0.0363,-0.27305 -0.0696,-0.57082 -0.14563,-1.3012 -0.41951,-2.5019605 -0.70601,-3.0953305 l -0.0966,-0.20008 -0.0118,1.3409305 -0.0118,1.34094 -0.24716,0.0419 c -0.44485,0.0754 -1.08615,0.15725 -1.54178,0.19682 -0.54817,0.0476 -1.64811,0.0351 -2.17733,-0.0247 -0.4433,-0.0501 -0.9144302,-0.11867 -0.9312802,-0.13551 -0.007,-0.007 0.0942,-0.14412 0.2255202,-0.30404 1.00187,-1.2199205 1.9334,-2.5624905 2.65973,-3.8333505 0.28419,-0.49723 0.74626,-1.41646 0.91995,-1.83013 l 0.15073,-0.35896 h 0.19522 c 0.37982,0 0.76644,0.11923 1.15006,0.35467 0.35739,0.21934 1.26638,1.17169 1.69474,1.77558 0.79075,1.11478 1.34286,2.5691 1.61742,4.2605005 0.0644,0.39693 0.12098,0.85624 0.10681,0.86747 -0.005,0.004 -0.20003,7.4e-4 -0.43306,-0.007 -0.83944,-0.0294 -1.65412,0.0278 -2.19707,0.15427 -0.28243,0.0658 -0.28488,0.066 -0.29674,0.0273 z m -3.85836,-4.9784405 c -0.16979,-0.3306 -0.5483,-1.29562 -0.78245,-1.9949 l -0.14976,-0.44723 1.13313,-0.006 c 0.62322,-0.003 1.13779,-10e-4 1.14349,0.004 0.0135,0.0135 -0.2192,0.53285 -0.41007,0.91499 -0.2438,0.4881 -0.86278,1.59375 -0.89223,1.59375 -0.005,0 -0.0238,-0.0291 -0.0421,-0.0647 z m -0.1092,-3.05706 c -0.18883,-0.0362 -0.44726,-0.11322 -0.577,-0.17205 -0.81659,-0.37026 -1.3521602,-1.19102 -1.3526802,-2.07297 -1.8e-4,-0.29102 0.031,-0.47764 0.127,-0.75942 0.2393902,-0.70295996 0.8363502,-1.25766996 1.5688702,-1.45781996 0.17235,-0.0471 0.25122,-0.054099998 0.59866,-0.052899998 0.3671,9.9999801e-4 0.41754,0.006999998 0.61056,0.065899998 0.82492,0.25294 1.42366,0.90415 1.60456,1.74515996 0.0734,0.34124 0.0386,0.84586 -0.0823,1.19416 -0.19235,0.5541 -0.61636,1.03207 -1.14421,1.28984 -0.35749,0.17457 -0.52374,0.21401 -0.94155,0.22338 -0.19419,0.004 -0.37956,0.003 -0.41193,-0.003 z"
     id="path4947" />
</svg>
