<?xml version="1.0" encoding="UTF-8" standalone="no"?>
<svg
   xmlns:dc="http://purl.org/dc/elements/1.1/"
   xmlns:cc="http://creativecommons.org/ns#"
   xmlns:rdf="http://www.w3.org/1999/02/22-rdf-syntax-ns#"
   xmlns:svg="http://www.w3.org/2000/svg"
   xmlns="http://www.w3.org/2000/svg"
   xmlns:sodipodi="http://sodipodi.sourceforge.net/DTD/sodipodi-0.dtd"
   xmlns:inkscape="http://www.inkscape.org/namespaces/inkscape"
   inkscape:version="1.0 (4035a4fb49, 2020-05-01)"
   height="24"
   width="24"
   sodipodi:docname="list-netball.svg"
   id="svg4"
   version="1.1"
   viewBox="2 2 24 24">
  <metadata
     id="metadata10">
    <rdf:RDF>
      <cc:Work
         rdf:about="">
        <dc:format>image/svg+xml</dc:format>
        <dc:type
           rdf:resource="http://purl.org/dc/dcmitype/StillImage" />
        <dc:title></dc:title>
      </cc:Work>
    </rdf:RDF>
  </metadata>
  <defs
     id="defs8" />
  <sodipodi:namedview
     inkscape:current-layer="svg4"
     inkscape:window-maximized="1"
     inkscape:window-y="-9"
     inkscape:window-x="-9"
     inkscape:cy="10"
     inkscape:cx="10"
     inkscape:zoom="50.4"
     showgrid="false"
     id="namedview6"
     inkscape:window-height="1361"
     inkscape:window-width="3440"
     inkscape:pageshadow="2"
     inkscape:pageopacity="0"
     guidetolerance="10"
     gridtolerance="10"
     objecttolerance="10"
     borderopacity="1"
     bordercolor="#666666"
     pagecolor="#ffffff" />
  <path
     style="stroke-width:1.2;fill:#5997e3;fill-opacity:1"
     id="path2"
     fill="#5997e3ff"
     d="M 14,2 A 12,12 0 0 1 26,14 12,12 0 0 1 14,26 12,12 0 0 1 2,14 12,12 0 0 1 14,2 m 1.92,22.02 c 2.832,-2.772 4.908,-6.324 5.88,-10.308 -0.792,-0.168 -1.584,-0.264 -2.4,-0.312 -1.128,4.332 -3.708,8.064 -7.2,10.644 0.6,0.096 1.2,0.156 1.8,0.156 0.66,0 1.296,-0.06 1.92,-0.18 M 10.676,23.648 C 14.276,21.284 17,17.66 18.152,13.4 c -0.9,0.06 -1.788,0.18 -2.628,0.372 -1.308,3.696 -3.96,6.756 -7.368,8.592 0.768,0.54 1.644,0.972 2.52,1.284 M 24.2,14.444 C 23.792,14.276 23.372,14.132 22.952,14 c -0.84,3.48 -2.484,6.636 -4.704,9.276 3.384,-1.548 5.772,-4.908 5.952,-8.832 M 3.872,12.848 C 3.8,13.22 3.8,13.616 3.8,14 c 0,3 1.284,5.676 3.324,7.536 0.708,-0.336 1.368,-0.744 2.004,-1.188 -2.232,-2.1 -4.032,-4.656 -5.256,-7.5 M 5.996,7.688 C 5.276,8.6 4.712,9.62 4.34,10.736 c 1.164,3.42 3.156,6.456 5.748,8.868 0.612,-0.516 1.176,-1.08 1.692,-1.692 C 8.888,15.236 6.8,11.696 5.996,7.688 M 9.248,5 C 8.432,5.42 7.676,5.96 7.016,6.584 c 0.636,4.068 2.628,7.692 5.508,10.38 0.48,-0.672 0.876,-1.38 1.26,-2.124 C 11.216,12.272 9.536,8.828 9.248,5 m 14.304,5.436 C 22.04,10.016 20.444,9.8 18.8,9.8 c -2.28,0 -4.464,0.42 -6.468,1.2 0.42,0.72 0.888,1.404 1.428,2.04 1.584,-0.54 3.276,-0.84 5.04,-0.84 1.884,0 3.696,0.336 5.364,0.948 C 24.08,12.2 23.876,11.288 23.552,10.436 M 20.648,6.284 C 20.036,6.2 19.4,6.2 18.8,6.2 c -2.772,0 -5.436,0.528 -7.872,1.476 0.216,0.78 0.504,1.524 0.84,2.256 C 13.952,9.068 16.316,8.6 18.8,8.6 c 1.416,0 2.784,0.156 4.104,0.444 C 22.316,8 21.548,7.052 20.648,6.284 M 18.8,5 C 17.348,4.244 15.728,3.8 14,3.8 12.74,3.8 11.528,4.04 10.4,4.46 10.448,5.156 10.532,5.84 10.652,6.5 13.172,5.54 15.92,5 18.8,5 Z" />
</svg>
