<?xml version="1.0" encoding="UTF-8" standalone="no"?>
<svg
   xmlns:dc="http://purl.org/dc/elements/1.1/"
   xmlns:cc="http://creativecommons.org/ns#"
   xmlns:rdf="http://www.w3.org/1999/02/22-rdf-syntax-ns#"
   xmlns:svg="http://www.w3.org/2000/svg"
   xmlns="http://www.w3.org/2000/svg"
   xmlns:sodipodi="http://sodipodi.sourceforge.net/DTD/sodipodi-0.dtd"
   xmlns:inkscape="http://www.inkscape.org/namespaces/inkscape"
   inkscape:version="1.0 (4035a4fb49, 2020-05-01)"
   height="24"
   width="24"
   sodipodi:docname="list-badminton.svg"
   id="svg4"
   version="1.1"
   viewBox="2 1.99849 24 24">
  <metadata
     id="metadata10">
    <rdf:RDF>
      <cc:Work
         rdf:about="">
        <dc:format>image/svg+xml</dc:format>
        <dc:type
           rdf:resource="http://purl.org/dc/dcmitype/StillImage" />
        <dc:title></dc:title>
      </cc:Work>
    </rdf:RDF>
  </metadata>
  <defs
     id="defs8" />
  <sodipodi:namedview
     inkscape:current-layer="svg4"
     inkscape:window-maximized="1"
     inkscape:window-y="-9"
     inkscape:window-x="-9"
     inkscape:cy="18.619288"
     inkscape:cx="16.482472"
     inkscape:zoom="17.819091"
     showgrid="false"
     id="namedview6"
     inkscape:window-height="1361"
     inkscape:window-width="3440"
     inkscape:pageshadow="2"
     inkscape:pageopacity="0"
     guidetolerance="10"
     gridtolerance="10"
     objecttolerance="10"
     borderopacity="1"
     bordercolor="#666666"
     pagecolor="#ffffff" />
  <path
     style="stroke-width:1.19996;fill:#5997e3;fill-opacity:1"
     id="path2"
     fill="#5997e3ff"
     d="m 14.360541,2.0002988 c -1.163966,0.035999 -2.06394,1.0079703 -2.027941,2.1599364 0.012,0.2879915 0.072,0.5639833 0.191995,0.8399752 l 0.347989,0.7679773 v 0 c 0.048,0.1559954 -0.036,0.3239905 -0.203994,0.3719891 -0.107996,0.059998 -0.227993,0 -0.31199,-0.095997 L 11.852615,5.3841991 C 11.456626,4.8802139 10.856644,4.5682231 10.220663,4.5562235 9.0566963,4.5322242 8.0967246,5.4561969 8.0727253,6.608163 c -0.012,0.5039851 0.1559954,0.983971 0.4679862,1.3919589 l 0.5039851,0.5999823 h 0.012 c 0.095997,0.1559954 0.059998,0.3479898 -0.071998,0.443987 -0.1079968,0.083997 -0.2519926,0.083997 -0.3479898,0 L 8.0007274,8.540106 C 7.5927394,8.2281152 7.1007539,8.0601202 6.6087684,8.0721198 c -1.151966,0.023999 -2.0759388,0.983971 -2.0519395,2.1479372 0.012,0.635981 0.3239905,1.235964 0.8279756,1.631952 l 0.6839799,0.527984 c 0.1319961,0.119997 0.1319961,0.311991 -0.012,0.419988 -0.083998,0.084 -0.203994,0.107997 -0.3119908,0.06 h -0.012 L 5.0008158,12.523989 C 4.724824,12.415992 4.4488321,12.343994 4.1608406,12.331995 c -1.151966,-0.036 -2.1239374,0.875974 -2.1599363,2.03994 0,0.863974 0.4799858,1.655951 1.2719625,1.991941 L 16.940465,22.447697 22.448302,16.939859 16.364481,3.2722613 C 16.028491,2.468285 15.200516,1.9642999 14.360541,2.0002988 m 0.99597,4.919855 c 0.503985,-0.012 0.959972,0.2759918 1.151966,0.7319784 L 20.168369,15.859891 15.428509,11.13203 14.312542,8.6001042 C 13.952553,7.8441265 14.504536,6.9441531 15.356511,6.9201538 m -3.935884,3.2999032 c 0.323991,0 0.623982,0.119997 0.851975,0.359989 l 5.77183,5.77183 c 0.479986,0.455987 0.491985,1.211965 0.036,1.69195 -0.479986,0.479986 -1.223964,0.491986 -1.727949,0 l -5.77183,-5.771829 c -0.479986,-0.455987 -0.491985,-1.223964 -0.024,-1.691951 0.227993,-0.239992 0.539984,-0.359989 0.863974,-0.359989 M 8.1567228,14.20394 c 0.1559954,0 0.3239904,0.048 0.4439869,0.107996 l 2.5559253,1.127967 4.727861,4.727861 -8.2317583,-3.659892 C 6.4287737,15.979887 6.8367617,14.167941 8.1567228,14.20394 m 15.7795352,4.643863 -5.08785,5.08785 1.01997,1.01997 c 0.911973,0.899973 2.231934,1.247963 3.467898,0.923972 1.235963,-0.33599 2.207935,-1.307961 2.543925,-2.543925 0.32399,-1.235963 -0.024,-2.555924 -0.923973,-3.467897 z" />
</svg>
