<?xml version="1.0" encoding="UTF-8" standalone="no"?>
<svg
   xmlns:dc="http://purl.org/dc/elements/1.1/"
   xmlns:cc="http://creativecommons.org/ns#"
   xmlns:rdf="http://www.w3.org/1999/02/22-rdf-syntax-ns#"
   xmlns:svg="http://www.w3.org/2000/svg"
   xmlns="http://www.w3.org/2000/svg"
   xmlns:sodipodi="http://sodipodi.sourceforge.net/DTD/sodipodi-0.dtd"
   xmlns:inkscape="http://www.inkscape.org/namespaces/inkscape"
   inkscape:version="1.0 (4035a4fb49, 2020-05-01)"
   sodipodi:docname="list-greyhound-racing.svg"
   xml:space="preserve"
   viewBox="0 0 14.685 14.685"
   id="Capa_1"
   version="1.1"
   width="24"
   height="24"
   fill="#000000"><metadata
   id="metadata9"><rdf:RDF><cc:Work
       rdf:about=""><dc:format>image/svg+xml</dc:format><dc:type
         rdf:resource="http://purl.org/dc/dcmitype/StillImage" /><dc:title></dc:title></cc:Work></rdf:RDF></metadata><defs
   id="defs7" /><sodipodi:namedview
   inkscape:current-layer="Capa_1"
   inkscape:window-maximized="0"
   inkscape:window-y="0"
   inkscape:window-x="-8"
   inkscape:cy="18.074778"
   inkscape:cx="12.042503"
   inkscape:zoom="20.52"
   showgrid="false"
   id="namedview5"
   inkscape:window-height="1351"
   inkscape:window-width="1718"
   inkscape:pageshadow="2"
   inkscape:pageopacity="0"
   guidetolerance="10"
   gridtolerance="10"
   objecttolerance="10"
   borderopacity="1"
   bordercolor="#666666"
   pagecolor="#ffffff" />
<path
   style="stroke-width:0.03;fill:#5997e3;fill-opacity:1"
   id="path2"
   d="m 14.672762,2.8627145 c -0.0222,-0.06453 -0.07251,-0.1155 -0.13674,-0.13857 l -1.09104,-0.39165 -0.18333,-0.32592 c -0.06084,-0.10809 -0.16533,-0.18459 -0.28674,-0.20988 l -1.046941,-0.21813 c -0.27438,-0.05715 -0.55137,0.05706 -0.70572,0.291 l -1.5288607,2.317171 c -0.1079101,0.16356 -0.2809801,0.27492 -0.4748102,0.30549 -0.7379403,0.1164 -2.1742809,0.30699 -3.5007314,0.27561 -0.6380403,-0.01506 -1.2584405,0.08049 -1.8449108,0.2841 -0.1823701,0.06333 -0.3531901,0.13404 -0.5123402,0.21174 -0.2956501,-0.01719 -2.0355608,-0.06843 -2.2973409,1.076821 -0.24420012,1.06845 0.5242502,2.151961 0.6548702,2.326141 -3.3e-4,0.01143 -6.6e-4,0.02313 -9.6e-4,0.03429 -0.01848,0.66 -0.0213,0.76143 -0.4809301,1.03086 -0.88533041,0.5190295 -1.1108405,0.8108405 -1.13364051,0.8424305 -0.02646001,0.03663 -0.04128001,0.0804 -0.04251001,0.12558 l -0.06000002316,2.19 C -0.00159365,12.950518 0.02135636,13.009319 0.06374638,13.052879 c 0.04239002,0.04356 0.10053004,0.0681 0.16125006,0.0681 H 1.1699968 c 0.07233,0 0.1402501,-0.03477 0.1825201,-0.09345 0.04227,-0.05868 0.05379,-0.134101 0.0309,-0.202711 l -0.02325,-0.06972 c -0.06441,-0.19323 -0.2042701,-0.34989 -0.38283015,-0.43758 0.01992,-0.46062 0.15729005,-1.32144 0.65025025,-1.5588 0.2302501,-0.11085 0.5271602,-0.267631 0.8375104,-0.467611 0.04836,0.22446 0.0573,0.433711 0.02559,0.623821 -0.02043,0.12258 0.06237,0.2385 0.18495,0.25893 0.01251,0.0021 0.02499,0.0031 0.03726,0.0031 0.108,0 0.20334,-0.078 0.22167,-0.18804 0.0498,-0.29874 0.02463,-0.625801 -0.07455,-0.972991 0.06501,-0.049139 0.1296601,-0.1000795 0.1934401,-0.1528495 0.5649302,-0.4677 0.9322504,-0.96945 1.0917004,-1.49133 0.04224,-0.13827 0.1561201,-0.468181 0.1762201,-0.506551 0.09399,-0.17946 0.2503501,-0.31902 0.4432202,-0.39192 0.2076301,-0.07845 0.4422902,-0.07008 0.6438002,0.02289 l 2.2186809,1.023991 c 0.5559003,0.25656 1.1675405,0.39519 1.7799908,0.40533 0.2805001,1.3173295 0.14109,2.3157005 0.07404,2.6611205 -0.03381,0.17409 -0.00903,0.35676 0.06978,0.51435 l 0.4178402,0.83565 c 0.038131,0.07623 0.1160107,0.124381 0.2012407,0.124381 h 0.9 c 0.08058,0 0.15498,-0.04308 0.19509,-0.112951 0.04014,-0.06987 0.03984,-0.15585 -7.5e-4,-0.22545 l -0.08814,-0.15108 c -0.0855,-0.14658 -0.2217,-0.25749 -0.37962,-0.31353 l -0.12954,-0.41016 0.18276,-3.0810905 c 0.01182,-0.19911 0.0732,-0.38967 0.17751,-0.55104 0.22896,-0.354241 0.49767,-0.970471 0.4776,-1.894621 -0.02373,-1.092091 0.70119,-2.325481 0.92973,-2.686261 l 1.212631,0.07029 c 0.3525,0.02052 0.68934,-0.15249 0.8781,-0.45132 l 0.12483,-0.197641 c 0.03651,-0.05775 0.04479,-0.12885 0.02259,-0.19341 z M 1.501917,6.4408165 c 0.10437,-0.4566 0.6477002,-0.6312 1.1208604,-0.69549 -0.4310102,0.37761 -0.6943203,0.8448 -0.7753203,1.38738 -0.04137,0.27726 -0.06864,0.52113 -0.08724,0.73731 -0.1915501,-0.38514 -0.3742502,-0.92193 -0.2583001,-1.4292 z m 12.171425,-3.184981 -1.342741,-0.07785 c -0.12051,-0.007 -0.23373,-0.06438 -0.31062,-0.157471 l -0.22512,-0.27252 c -0.07917,-0.09579 -0.22095,-0.10932 -0.31677,-0.03015 -0.09579,0.07914 -0.10932,0.22098 -0.03015,0.31677 l 0.22512,0.272491 c 0.0804,0.09735 0.18045,0.17529 0.2919,0.23016 -0.30957,0.51264 -0.93396,1.68795 -0.9099,2.793541 0.01851,0.85275 -0.24621,1.39389 -0.40563,1.64058 -0.14634,0.226441 -0.23238,0.492241 -0.24879,0.768661 l -0.18522,3.1225505 c -0.0016,0.02742 0.0018,0.0549 0.01005,0.08109 l 0.18,0.57 c 0.012,0.03801 0.03351,0.07125 0.06159,0.09726 h -0.15798 l -0.3556506,-0.71127 c -0.03468,-0.06936 -0.04551,-0.15009 -0.03051,-0.22734 0.1264206,-0.65136 0.3184506,-2.3974205 -0.6270903,-4.5373215 -0.05022,-0.11367 -0.18309,-0.165 -0.2967601,-0.11487 -0.11367,0.05022 -0.1650901,0.18309 -0.11487,0.29676 0.17703,0.40065 0.3113101,0.787621 0.4122601,1.154881 -0.5103602,-0.02376 -1.0171804,-0.14628 -1.4808006,-0.36021 L 5.5969786,7.0875865 c -0.3103501,-0.14325 -0.6717002,-0.15609 -0.9914704,-0.03525 0,0 -3e-5,0 -3e-5,0 0.07887,-0.19554 0.1267501,-0.29778 0.1278901,-0.30012 0.05313,-0.11229 0.00519,-0.24636 -0.1070701,-0.29955 -0.11229,-0.05322 -0.2464501,-0.0053 -0.2996401,0.10701 -0.01131,0.02388 -0.2808301,0.5973 -0.6118502,1.680571 -0.1092301,0.35751 -0.5502903,1.27905 -2.282431,2.1130495 -0.92949034,0.447511 -0.90870034,2.058751 -0.90735033,2.127121 0.00159,0.08061 0.04578,0.15207 0.11265004,0.19059 H 0.45623654 l 0.05139,-1.87563 c 0.09306,-0.09255 0.35547014,-0.323131 0.95616036,-0.675241 0.6748803,-0.3956395 0.6837603,-0.7124095 0.7031703,-1.4064895 0.00978,-0.34956 0.02316,-0.828331 0.1255801,-1.514401 0.11721,-0.78525 0.6985803,-1.36464 1.7280007,-1.722061 0.5354402,-0.18588 1.1028304,-0.27315 1.6866607,-0.25932 1.3621805,0.03228 2.8286111,-0.16221 3.5815214,-0.28098 0.3184802,-0.05025 0.6028803,-0.23328 0.7803009,-0.50217 l 1.52886,-2.317171 c 0.04866,-0.07377 0.13353,-0.11163 0.21999,-0.10068 l -0.0429,0.04632 c -0.08445,0.09117 -0.07899,0.23352 0.01215,0.31797 0.04329,0.04011 0.09813,0.05994 0.15285,0.05994 0.06048,0 0.12078,-0.02424 0.16512,-0.07209 l 0.22803,-0.24618 0.540931,0.11271 0.0621,0.11037 c -0.08826,0.03978 -0.14394,0.13389 -0.1305,0.23478 0.01506,0.1131 0.11169,0.1953 0.22275,0.1953 0.0099,0 0.01992,-6.6e-4 0.03,-0.002 l 0.20709,-0.0276 0.85245,0.306 c -0.10461,0.136321 -0.27105,0.213511 -0.4446,0.203461 z" />
</svg>
