<?xml version="1.0" encoding="UTF-8" standalone="no"?>
<svg
   xmlns:dc="http://purl.org/dc/elements/1.1/"
   xmlns:cc="http://creativecommons.org/ns#"
   xmlns:rdf="http://www.w3.org/1999/02/22-rdf-syntax-ns#"
   xmlns:svg="http://www.w3.org/2000/svg"
   xmlns="http://www.w3.org/2000/svg"
   xmlns:sodipodi="http://sodipodi.sourceforge.net/DTD/sodipodi-0.dtd"
   xmlns:inkscape="http://www.inkscape.org/namespaces/inkscape"
   inkscape:version="1.0 (4035a4fb49, 2020-05-01)"
   height="24"
   width="24"
   sodipodi:docname="list-snooker.svg"
   id="svg4"
   version="1.1"
   viewBox="3.19589 4.97589 24 24.000001">
  <metadata
     id="metadata10">
    <rdf:RDF>
      <cc:Work
         rdf:about="">
        <dc:format>image/svg+xml</dc:format>
        <dc:type
           rdf:resource="http://purl.org/dc/dcmitype/StillImage" />
        <dc:title></dc:title>
      </cc:Work>
    </rdf:RDF>
  </metadata>
  <defs
     id="defs8" />
  <sodipodi:namedview
     inkscape:current-layer="svg4"
     inkscape:window-maximized="1"
     inkscape:window-y="-9"
     inkscape:window-x="-9"
     inkscape:cy="7.9699998"
     inkscape:cx="8.7550001"
     inkscape:zoom="63.237141"
     showgrid="false"
     id="namedview6"
     inkscape:window-height="1361"
     inkscape:window-width="3440"
     inkscape:pageshadow="2"
     inkscape:pageopacity="0"
     guidetolerance="10"
     gridtolerance="10"
     objecttolerance="10"
     borderopacity="1"
     bordercolor="#666666"
     pagecolor="#ffffff" />
  <path
     style="stroke-width:1.37035;fill:#5997e3;fill-opacity:1"
     id="path2"
     fill="#5997e3ff"
     d="M 26.647936,21.761226 18.741021,8.0988451 C 17.617336,6.1392458 15.109597,5.4677748 13.149997,6.6051646 12.519637,6.9614553 12.012607,7.454781 11.642613,8.0988451 L 3.7494025,21.761226 C 2.6120127,23.720825 3.2834837,26.21486 5.243083,27.324843 5.8597401,27.708541 6.5586181,27.90039 7.2849032,27.90039 H 23.112436 c 2.261075,-0.0137 4.097343,-1.849971 4.08364,-4.111048 0,-0.712581 -0.191849,-1.41146 -0.54814,-2.028116 M 6.1749203,23.117872 14.040725,9.4691942 c 0.369994,-0.6440642 1.21961,-0.8907269 1.84997,-0.5070292 0.219257,0.1096279 0.397402,0.2877733 0.520733,0.5070292 l 7.865804,13.6486778 c 0.369994,0.657767 0.150738,1.466273 -0.507029,1.863674 -0.205552,0.123331 -0.438511,0.191848 -0.671472,0.191848 H 7.3260136 c -0.753692,-0.0137 -1.3703492,-0.630359 -1.3566457,-1.384052 0,-0.232959 0.054814,-0.465918 0.1781454,-0.67147 h 0.027407 m 9.0443037,-5.453991 c -1.507383,0 -2.699587,-1.21961 -2.699587,-2.726994 0,-1.521087 1.192204,-2.740698 2.699587,-2.740698 a 2.7406982,2.7406982 0 0 1 2.740698,2.740698 c 0,1.507384 -1.233314,2.726994 -2.768104,2.726994 h 0.02741 m -3.439576,6.139164 c -1.507384,0 -2.7269946,-1.21961 -2.7269946,-2.726994 0,-1.507384 1.2196106,-2.726995 2.7269946,-2.726995 1.507384,0 2.740698,1.219611 2.740698,2.726995 0,1.507384 -1.233314,2.726994 -2.740698,2.726994 m 6.824338,0 a 2.7406982,2.7406982 0 0 1 -2.726994,-2.726994 2.7406982,2.7406982 0 0 1 2.726994,-2.726995 c 1.507385,0 2.740699,1.219611 2.740699,2.726995 0,1.507384 -1.233314,2.726994 -2.740699,2.726994 z" />
</svg>
