<?xml version="1.0" encoding="UTF-8" standalone="no"?>
<svg
   xmlns:dc="http://purl.org/dc/elements/1.1/"
   xmlns:cc="http://creativecommons.org/ns#"
   xmlns:rdf="http://www.w3.org/1999/02/22-rdf-syntax-ns#"
   xmlns:svg="http://www.w3.org/2000/svg"
   xmlns="http://www.w3.org/2000/svg"
   xmlns:sodipodi="http://sodipodi.sourceforge.net/DTD/sodipodi-0.dtd"
   xmlns:inkscape="http://www.inkscape.org/namespaces/inkscape"
   inkscape:version="1.0 (4035a4fb49, 2020-05-01)"
   height="24"
   width="24"
   sodipodi:docname="list-surfing.svg"
   id="svg4"
   version="1.1"
   viewBox="2 4.67 24 24">
  <metadata
     id="metadata10">
    <rdf:RDF>
      <cc:Work
         rdf:about="">
        <dc:format>image/svg+xml</dc:format>
        <dc:type
           rdf:resource="http://purl.org/dc/dcmitype/StillImage" />
        <dc:title></dc:title>
      </cc:Work>
    </rdf:RDF>
  </metadata>
  <defs
     id="defs8" />
  <sodipodi:namedview
     inkscape:current-layer="svg4"
     inkscape:window-maximized="1"
     inkscape:window-y="-9"
     inkscape:window-x="-9"
     inkscape:cy="6.99133"
     inkscape:cx="-0.51704782"
     inkscape:zoom="32.876713"
     showgrid="false"
     id="namedview6"
     inkscape:window-height="1361"
     inkscape:window-width="3440"
     inkscape:pageshadow="2"
     inkscape:pageopacity="0"
     guidetolerance="10"
     gridtolerance="10"
     objecttolerance="10"
     borderopacity="1"
     bordercolor="#666666"
     pagecolor="#ffffff" />
  <path
     style="stroke-width:1.2;fill:#5997e3;fill-opacity:1"
     id="path2"
     fill="#5997e3ff"
     d="M 23.6,16.268 H 26 v 2.4 h -2.4 c -1.656,0 -3.288,-0.42 -4.8,-1.2 -3,1.56 -6.6,1.56 -9.6,0 -1.512,0.78 -3.156,1.2 -4.8,1.2 H 2 v -2.4 h 2.4 c 1.668,0 3.336,-0.564 4.8,-1.596 2.928,2.052 6.672,2.052 9.6,0 1.464,1.032 3.132,1.596 4.8,1.596 m 0,-7.2 H 26 v 2.4 h -2.4 c -1.656,0 -3.288,-0.42 -4.8,-1.2 -3,1.56 -6.6,1.56 -9.6,0 -1.512,0.78 -3.156,1.2 -4.8,1.2 H 2 v -2.4 h 2.4 c 1.668,0 3.336,-0.564 4.8,-1.596 2.928,2.052 6.672,2.052 9.6,0 1.464,1.032 3.132,1.596 4.8,1.596 m 0,14.4 H 26 v 2.4 h -2.4 c -1.656,0 -3.288,-0.42 -4.8,-1.2 -3,1.56 -6.6,1.56 -9.6,0 -1.512,0.78 -3.156,1.2 -4.8,1.2 H 2 v -2.4 h 2.4 c 1.668,0 3.336,-0.564 4.8,-1.596 2.928,2.052 6.672,2.052 9.6,0 1.464,1.032 3.132,1.596 4.8,1.596 z" />
</svg>
