<?xml version="1.0" encoding="UTF-8" standalone="no"?>
<svg
   xmlns:dc="http://purl.org/dc/elements/1.1/"
   xmlns:cc="http://creativecommons.org/ns#"
   xmlns:rdf="http://www.w3.org/1999/02/22-rdf-syntax-ns#"
   xmlns:svg="http://www.w3.org/2000/svg"
   xmlns="http://www.w3.org/2000/svg"
   xmlns:sodipodi="http://sodipodi.sourceforge.net/DTD/sodipodi-0.dtd"
   xmlns:inkscape="http://www.inkscape.org/namespaces/inkscape"
   inkscape:version="1.0 (4035a4fb49, 2020-05-01)"
   sodipodi:docname="billet-spoiler-open.svg"
   id="svg14"
   xml:space="preserve"
   viewBox="0 0 12 12"
   height="12"
   width="12"
   version="1.1"><metadata
   id="metadata18"><rdf:RDF><cc:Work
       rdf:about=""><dc:format>image/svg+xml</dc:format><dc:type
         rdf:resource="http://purl.org/dc/dcmitype/StillImage" /><dc:title></dc:title></cc:Work></rdf:RDF></metadata><sodipodi:namedview
   inkscape:current-layer="svg14"
   inkscape:window-maximized="1"
   inkscape:window-y="-9"
   inkscape:window-x="-9"
   inkscape:cy="24.474931"
   inkscape:cx="10.677079"
   inkscape:zoom="12.296296"
   showgrid="false"
   id="namedview16"
   inkscape:window-height="1001"
   inkscape:window-width="1920"
   inkscape:pageshadow="2"
   inkscape:pageopacity="0"
   guidetolerance="10"
   gridtolerance="10"
   objecttolerance="10"
   borderopacity="1"
   bordercolor="#666666"
   pagecolor="#ffffff" />
<desc
   id="desc2">Created with Fabric.js 5.2.4</desc>
<defs
   id="defs4">
</defs>


<g
   transform="scale(0.01111111)"
   id="g848"><g
     transform="translate(540,540)"
     id="e40a9879-ef5e-49bd-a121-07e855897248">
<rect
   style="visibility:hidden;opacity:1;fill:#ffffff;fill-rule:nonzero;stroke:none;stroke-width:1;stroke-linecap:butt;stroke-linejoin:miter;stroke-miterlimit:4;stroke-dasharray:none;stroke-dashoffset:0"
   vector-effect="non-scaling-stroke"
   x="-540"
   y="-540"
   rx="0"
   ry="0"
   width="1080"
   height="1080"
   id="rect6" />
</g><g
     transform="translate(540,540)"
     id="d7e293de-6627-4e64-9bad-3c57245a701f">
</g><g
     transform="matrix(2.11,0,0,2.11,540,540)"
     id="g12">
<path
   style="opacity:1;fill:#5997e3;fill-opacity:1;fill-rule:nonzero;stroke:none;stroke-width:1;stroke-linecap:butt;stroke-linejoin:miter;stroke-miterlimit:4;stroke-dasharray:none;stroke-dashoffset:0"
   transform="translate(-256,-256)"
   d="M 504,256 C 504,393 393,504 256,504 119,504 8,393 8,256 8,119 119,8 256,8 393,8 504,119 504,256 Z M 273,369.9 408.5,234.4 c 9.4,-9.4 9.4,-24.6 0,-33.9 l -17,-17 c -9.4,-9.4 -24.6,-9.4 -33.9,0 L 256,285.1 154.4,183.5 c -9.4,-9.4 -24.6,-9.4 -33.9,0 l -17,17 c -9.4,9.4 -9.4,24.6 0,33.9 L 239,369.9 c 9.4,9.4 24.6,9.4 34,0 z"
   stroke-linecap="round"
   id="path10"
   inkscape:label="path10" />
</g></g>
</svg>
