<svg width="19" height="18" viewBox="0 0 19 18" fill="none" xmlns="http://www.w3.org/2000/svg">
<path d="M14.2252 17.6029C14.0066 17.6029 13.7891 17.5358 13.6018 17.4022L9.1996 14.2451L4.79739 17.4022C4.42237 17.6706 3.91911 17.6706 3.54626 17.3978C3.17341 17.1278 3.01648 16.6483 3.15609 16.2106L4.79793 10.9117L0.435212 7.83741C0.0645274 7.56413 -0.0896991 7.08359 0.052081 6.64527C0.194943 6.20802 0.601885 5.91093 1.06186 5.90768L6.4652 5.89957L8.1855 0.73217C8.33052 0.294383 8.73909 0 9.1996 0C9.66012 0 10.0687 0.294924 10.2143 0.73217L11.9053 5.89957L17.3363 5.90768C17.7979 5.91093 18.2053 6.20856 18.3466 6.64527C18.4889 7.08359 18.3347 7.56413 17.9635 7.83741L13.6007 10.9117L15.2426 16.2106C15.3833 16.6483 15.2247 17.1278 14.853 17.3978C14.6652 17.5353 14.4455 17.6029 14.2252 17.6029Z" fill="#FFD964"/>
</svg>
