<?xml version="1.0" encoding="UTF-8" standalone="no"?>
<svg
   xmlns:dc="http://purl.org/dc/elements/1.1/"
   xmlns:cc="http://creativecommons.org/ns#"
   xmlns:rdf="http://www.w3.org/1999/02/22-rdf-syntax-ns#"
   xmlns:svg="http://www.w3.org/2000/svg"
   xmlns="http://www.w3.org/2000/svg"
   xmlns:sodipodi="http://sodipodi.sourceforge.net/DTD/sodipodi-0.dtd"
   xmlns:inkscape="http://www.inkscape.org/namespaces/inkscape"
   width="24"
   height="24"
   viewBox="0 0 6.3499999 6.3499999"
   version="1.1"
   id="svg1499"
   inkscape:version="1.0 (4035a4fb49, 2020-05-01)"
   sodipodi:docname="tool-tinymce-header-month-year.svg">
  <defs
     id="defs1493" />
  <sodipodi:namedview
     units="px"
     id="base"
     pagecolor="#ffffff"
     bordercolor="#666666"
     borderopacity="1.0"
     inkscape:pageopacity="0.0"
     inkscape:pageshadow="2"
     inkscape:zoom="7.9195959"
     inkscape:cx="35.272577"
     inkscape:cy="56.513948"
     inkscape:document-units="mm"
     inkscape:current-layer="layer1"
     inkscape:document-rotation="0"
     showgrid="false"
     inkscape:window-width="1895"
     inkscape:window-height="1208"
     inkscape:window-x="160"
     inkscape:window-y="135"
     inkscape:window-maximized="0" />
  <metadata
     id="metadata1496">
    <rdf:RDF>
      <cc:Work
         rdf:about="">
        <dc:format>image/svg+xml</dc:format>
        <dc:type
           rdf:resource="http://purl.org/dc/dcmitype/StillImage" />
        <dc:title></dc:title>
      </cc:Work>
    </rdf:RDF>
  </metadata>
  <g
     inkscape:label="Слой 1"
     inkscape:groupmode="layer"
     id="layer1">
    <g
       transform="scale(0.26458332)"
       id="g2101">
      <path
         sodipodi:nodetypes="ssscsssssssscscssssscccccsssscssscsssssssssssssssss"
         id="path1515"
         d="M 2.1731216,23.983395 C 1.9588239,23.953583 1.6422338,23.85465 1.4254108,23.749739 0.77025807,23.432742 0.3032042,22.866935 0.09544446,22.138566 L 0.03680499,21.932986 0.02988105,12.097783 C 0.0231562,2.5452634 0.0244067,2.2555233 0.07339755,2.0170399 0.17681756,1.5135998 0.39551299,1.0971882 0.73980229,0.7481584 1.172512,0.30949075 1.6928653,0.07335669 2.3432752,0.02050931 2.5683276,0.00222325 5.8648619,-0.0038255 12.253865,0.00232454 c 8.795938,0.00846694 9.587465,0.01279902 9.746945,0.05334574 0.536807,0.13647962 0.917129,0.34840914 1.270193,0.70779852 0.280276,0.2852984 0.51006,0.6910282 0.63139,1.1148464 l 0.06116,0.2136317 0.0076,9.7602951 c 0.0055,6.986574 -7.57e-4,9.824802 -0.02177,9.98728 -0.137145,1.059313 -0.919252,1.894404 -1.975875,2.10973 -0.258705,0.05272 -0.365671,0.05325 -9.990902,0.04929 -5.3511688,-0.0022 -9.7654479,-0.009 -9.8095094,-0.01515 z M 21.845277,22.329249 c 0.176203,-0.08143 0.34628,-0.247945 0.437738,-0.428562 l 0.0783,-0.154628 0.0069,-8.284903 0.0069,-8.2849021 H 12.000388 1.6256905 v 8.2333231 c 0,9.089921 -0.013731,8.383669 0.1675844,8.619866 0.1215681,0.158367 0.2612861,0.263589 0.4253759,0.320355 0.1361815,0.04711 0.4985435,0.0487 9.8215832,0.04304 l 9.680184,-0.0059 z M 17.550401,3.6534063 c 0.206576,-0.07729 0.396705,-0.2563022 0.504083,-0.4746087 0.08049,-0.1636474 0.08758,-0.1987327 0.08731,-0.4321987 -3.03e-4,-0.2272589 -0.0085,-0.2703861 -0.07813,-0.4083764 -0.09614,-0.1905597 -0.288429,-0.3742121 -0.489888,-0.4678728 -0.127778,-0.059406 -0.189734,-0.070951 -0.379678,-0.07075 -0.295035,3.104e-4 -0.496987,0.086212 -0.695058,0.2956428 -0.205357,0.2171339 -0.252933,0.3420892 -0.252933,0.6643036 0,0.2403103 0.0075,0.2817407 0.07524,0.4139113 0.239322,0.4671842 0.740299,0.6628168 1.229057,0.4799492 z M 7.2654726,3.6224617 C 7.6876675,3.4257225 7.9114293,2.937379 7.7825376,2.4940064 7.7258509,2.299012 7.6483291,2.1761381 7.4901514,2.0305671 7.294049,1.8500942 7.1590106,1.8005576 6.8596659,1.7992833 6.6396047,1.7983461 6.5865103,1.8074963 6.4591066,1.8683117 6.2517752,1.9672798 6.109382,2.1011515 6.0032657,2.2968728 c -0.087777,0.1618959 -0.09159,0.1806039 -0.09159,0.449321 0,0.2370227 0.00931,0.2992902 0.060211,0.4025774 C 6.0919695,3.3924539 6.295827,3.5731371 6.5617613,3.671589 6.7255356,3.73222 7.083574,3.707225 7.2654726,3.6224617 Z"
         style="fill:#000000;stroke-width:0.026704" />
      <text
         id="text2088"
         y="18.62849"
         x="1.5855078"
         style="font-style:normal;font-variant:normal;font-weight:normal;font-stretch:normal;font-size:13.8051px;line-height:1.25;font-family:'Arial Rounded MT Bold';-inkscape-font-specification:'Arial Rounded MT Bold, ';fill:#000000;fill-opacity:1;stroke:none;stroke-width:0.345128"
         xml:space="preserve"><tspan
           style="font-style:normal;font-variant:normal;font-weight:normal;font-stretch:normal;font-family:'Arial Rounded MT Bold';-inkscape-font-specification:'Arial Rounded MT Bold, ';stroke-width:0.345128"
           y="18.62849"
           x="1.5855078"
           id="tspan2086"
           sodipodi:role="line">MY</tspan></text>
    </g>
  </g>
</svg>
