<?xml version="1.0" encoding="UTF-8" standalone="no"?>
<svg
   xmlns:dc="http://purl.org/dc/elements/1.1/"
   xmlns:cc="http://creativecommons.org/ns#"
   xmlns:rdf="http://www.w3.org/1999/02/22-rdf-syntax-ns#"
   xmlns:svg="http://www.w3.org/2000/svg"
   xmlns="http://www.w3.org/2000/svg"
   xmlns:sodipodi="http://sodipodi.sourceforge.net/DTD/sodipodi-0.dtd"
   xmlns:inkscape="http://www.inkscape.org/namespaces/inkscape"
   sodipodi:docname="tool-sitemap-item.svg"
   inkscape:version="1.0 (4035a4fb49, 2020-05-01)"
   id="svg8"
   version="1.1"
   viewBox="0 0 3.9687499 3.9687501"
   height="15"
   width="15">
  <defs
     id="defs2" />
  <sodipodi:namedview
     inkscape:window-maximized="0"
     inkscape:window-y="128"
     inkscape:window-x="128"
     inkscape:window-height="1208"
     inkscape:window-width="1895"
     units="px"
     showgrid="false"
     inkscape:document-rotation="0"
     inkscape:current-layer="layer1"
     inkscape:document-units="mm"
     inkscape:cy="20.777618"
     inkscape:cx="-8.0951733"
     inkscape:zoom="15.839192"
     inkscape:pageshadow="2"
     inkscape:pageopacity="0.0"
     borderopacity="1.0"
     bordercolor="#666666"
     pagecolor="#ffffff"
     id="base" />
  <metadata
     id="metadata5">
    <rdf:RDF>
      <cc:Work
         rdf:about="">
        <dc:format>image/svg+xml</dc:format>
        <dc:type
           rdf:resource="http://purl.org/dc/dcmitype/StillImage" />
        <dc:title></dc:title>
      </cc:Work>
    </rdf:RDF>
  </metadata>
  <g
     id="layer1"
     inkscape:groupmode="layer"
     inkscape:label="Слой 1">
    <path
       id="path847"
       d="m 1.9322991,2.7764244 c -0.2536278,-0.01703 -0.4826886,-0.15335 -0.6202113,-0.369111 -0.021148,-0.03318 -0.058468,-0.108152 -0.071313,-0.143262 -0.035289,-0.09646 -0.05015,-0.179469 -0.05015,-0.280137 0,-0.07809 0.00924,-0.147249 0.028783,-0.215347 0.06293,-0.21932 0.2108089,-0.396604 0.4140678,-0.496403 0.115063,-0.0565 0.2227266,-0.08154 0.3505584,-0.08154 0.1292264,0 0.2394657,0.02592 0.3545421,0.08337 0.1581289,0.07894 0.2793231,0.200852 0.3572916,0.359413 0.049721,0.101115 0.073994,0.19338 0.080869,0.3074 0.014152,0.234698 -0.080465,0.46642 -0.2567914,0.628901 -0.156822,0.144508 -0.3743657,0.221032 -0.5876462,0.206713 z"
       style="fill:#000000;stroke-width:0.00265553" />
  </g>
</svg>
