<svg width="649" height="234" viewBox="0 0 649 234" fill="none" xmlns="http://www.w3.org/2000/svg">
<path d="M475.202 36.3311L512.865 19.6223L484.761 45.2586L483.506 46.4038L485.117 46.9453L520.43 58.8147L481.378 63.3066L480.358 63.424L480.502 64.441L483.94 88.5907L467.182 68.0903L466.546 67.313L465.771 67.9515L452.002 79.2996V64.3001V63.4329L451.144 63.3102L420.827 58.9757L451.273 50.406L452.679 50.0102L451.801 48.8425L436.548 28.5534L456.655 38.8134L457.655 39.3233L458.047 38.2721L466.409 15.8571L473.86 35.7675L474.232 36.7615L475.202 36.3311Z" stroke="black" stroke-width="2"/>
<path d="M93.7981 202.669L56.135 219.378L84.2385 193.741L85.494 192.596L83.8832 192.055L48.5697 180.185L87.6219 175.693L88.6424 175.576L88.4977 174.559L85.06 150.409L101.818 170.91L102.454 171.687L103.229 171.048L116.998 159.7L116.998 174.7L116.998 175.567L117.856 175.69L148.173 180.024L117.727 188.594L116.321 188.99L117.199 190.157L132.452 210.447L112.345 200.187L111.345 199.677L110.953 200.728L102.591 223.143L95.1402 203.233L94.7683 202.239L93.7981 202.669Z" stroke="black" stroke-width="2"/>
<path fill-rule="evenodd" clip-rule="evenodd" d="M7.64463 0.736572L20.1884 4.72098L32.4818 8.41988L32.215 9.36578C32.1109 9.73463 31.9532 10.3047 31.755 11.054C31.3581 12.5542 30.8011 14.7645 30.1881 17.511C28.9564 23.0294 27.5275 30.5857 26.6966 38.8223C25.8598 47.1173 25.6711 55.7126 26.721 63.4334C27.7854 71.2599 29.9868 77.1847 33.0936 81.1173C34.9251 83.4355 36.7961 84.8876 38.9171 85.7318C41.0496 86.5806 43.5172 86.848 46.5949 86.6613C48.0771 86.5713 50.521 86.0886 53.4185 85.3863C56.2932 84.6896 59.5443 83.7945 62.6065 82.909C65.6673 82.0239 68.532 81.1504 70.632 80.4981C71.6817 80.172 72.5399 79.9013 73.1354 79.7122C73.2987 79.6603 73.4423 79.6146 73.5646 79.5756C73.6652 79.5435 73.7515 79.5159 73.8226 79.4931L74.0472 79.421L74.05 79.4201L74.0585 79.4173L74.0613 79.4164L74.8112 79.1634C95.6482 72.1356 125.995 61.9003 153.596 82.2045L155.528 83.6258L143.821 85.4644L147.421 93.826L137.675 93.6938L140.416 104.786L138.19 103.148C122.628 91.7005 105.382 96.2952 82.3559 104.058C81.7587 104.259 81.1554 104.463 80.5462 104.669L80.4786 104.692C70.5401 108.054 59.0033 111.956 48.1697 112.614C35.4442 113.386 22.6016 109.778 12.6923 97.2352C5.62469 88.2893 2.364 77.2748 0.958165 66.9369C-0.462064 56.4931 -0.128985 45.6982 0.82787 36.2127C1.79061 26.6689 3.42705 18.0545 4.81241 11.8474C5.50793 8.73117 6.1473 6.18999 6.6197 4.40436C6.85608 3.51083 7.05122 2.8044 7.19137 2.30751C7.26147 2.059 7.31787 1.86271 7.35886 1.72142L7.64463 0.736572ZM74.3695 80.3677C74.5693 80.9863 74.6391 81.2028 74.6635 81.2786C74.6766 81.3194 74.6766 81.3194 74.6765 81.3194L74.6142 81.3395L74.4329 81.3977C74.2739 81.4486 74.0402 81.5233 73.7407 81.6184C73.1418 81.8086 72.2795 82.0806 71.2253 82.4081C69.1171 83.063 66.2392 83.9405 63.1621 84.8303C60.0864 85.7197 56.8043 86.6236 53.8896 87.33C50.9978 88.0309 48.3963 88.5556 46.7161 88.6576C43.469 88.8546 40.6791 88.5858 38.1774 87.59C35.6642 86.5896 33.5243 84.8887 31.5243 82.3572C28.1129 78.0391 25.8299 71.7229 24.7393 63.7029C23.6608 55.7726 23.8607 47.008 24.7067 38.6215C25.5477 30.2844 26.9926 22.6467 28.2361 17.0753C28.8554 14.3004 29.4188 12.0647 29.8215 10.5425C29.8963 10.2599 29.9654 10.0021 30.0283 9.77024L19.5975 6.63175L9.00009 3.26559C8.87766 3.70637 8.72682 4.25954 8.55318 4.91588C8.08659 6.67954 7.45355 9.19528 6.76438 12.2831C5.39085 18.4372 3.77037 26.9702 2.81777 36.4135C1.87016 45.8073 1.54817 56.433 2.93992 66.6674C4.31952 76.8123 7.49879 87.4352 14.2616 95.9953C23.6827 107.92 35.8313 111.359 48.0486 110.617C58.5907 109.977 69.8932 106.161 79.9054 102.775C80.5144 102.569 81.1186 102.364 81.717 102.163C103.562 94.7982 121.238 89.8397 137.18 100.03L135.111 91.6589L144.365 91.7844L140.965 83.8884L150.414 82.4044C124.245 64.6551 95.7915 74.1981 75.3319 81.0985L74.6765 81.3194L74.3695 80.3677Z" fill="black"/>
<path d="M410.61 199.845V200.845H411.61H446.001H447.001V199.845V182.845H457H458V181.845V153.999V152.999H457H447.001V92.1526V91.1526H446.001H411.765H411.244L410.945 91.5803L364.781 157.734L364.601 157.992V158.306V181.845V182.845H365.601H410.61V199.845ZM410.61 130.123V152.999H394.774L410.61 130.123Z" fill="black" stroke="black" stroke-width="2"/>
<path d="M279.335 190.376L279.343 190.385L279.351 190.393C283.687 194.804 288.669 198.018 294.291 200.019C299.879 202.009 305.829 203 312.132 203C318.435 203 324.384 202.009 329.972 200.019C335.596 198.017 340.53 194.801 344.766 190.384L344.766 190.384L344.774 190.376C349.024 185.838 352.341 179.908 354.751 172.628C357.275 165.314 358.521 156.429 358.521 146V142.923C358.521 133.106 357.274 124.777 354.744 117.968C352.331 111.095 349.009 105.523 344.753 101.295C340.517 96.9843 335.585 93.8752 329.964 91.9782C324.379 89.9905 318.432 89 312.132 89C305.831 89 299.885 89.9905 294.299 91.9782C288.679 93.8751 283.697 96.9833 279.36 101.29C275.1 105.521 271.775 111.097 269.361 117.977L269.361 117.977L269.358 117.985C267.04 124.787 265.897 133.109 265.897 142.923V146C265.897 156.426 267.04 165.303 269.352 172.609L269.352 172.609L269.356 172.622C271.765 179.905 275.083 185.837 279.335 190.376ZM318.976 168.337L318.971 168.347L318.967 168.356C318.086 170.301 317.06 171.544 315.948 172.224C314.76 172.95 313.494 173.308 312.132 173.308C310.77 173.308 309.504 172.95 308.316 172.224C307.194 171.538 306.119 170.288 305.138 168.346C304.258 166.298 303.505 163.526 302.896 159.999C302.389 156.373 302.133 151.711 302.133 146V142.923C302.133 136.399 302.596 131.37 303.494 127.795C304.508 124.174 305.731 121.836 307.068 120.59C308.538 119.318 310.212 118.692 312.132 118.692C314.056 118.692 315.67 119.32 317.029 120.58L317.041 120.59L317.053 120.601C318.474 121.836 319.699 124.159 320.612 127.783C321.512 131.358 321.976 136.391 321.976 142.923V146C321.976 151.718 321.718 156.385 321.211 160.013C320.702 163.548 319.948 166.309 318.976 168.337Z" fill="black" stroke="black" stroke-width="2"/>
<path d="M210.009 199.845V200.845H211.009H245.4H246.4V199.845V182.845H256.399H257.399V181.845V153.999V152.999H256.399H246.4V92.1526V91.1526H245.4H211.164H210.643L210.344 91.5803L164.18 157.734L164 157.992V158.306V181.845V182.845H165H210.009V199.845ZM210.009 130.123V152.999H194.173L210.009 130.123Z" fill="black" stroke="black" stroke-width="2"/>
<path d="M398.61 184.826V185.826H399.61H434.001H435.001V184.826V167.665H445H446V166.665V138.57V137.57H445H435.001V76.1719V75.1719H434.001H399.765H399.241L398.943 75.603L352.779 142.348L352.601 142.604V142.916V166.665V167.665H353.601H398.61V184.826ZM398.61 114.476V137.57H382.765L398.61 114.476Z" fill="#F6F6F6" stroke="black" stroke-width="2"/>
<path d="M267.332 175.263L267.34 175.272L267.348 175.28C271.684 179.73 276.666 182.972 282.288 184.992C287.877 186.999 293.828 188 300.132 188C306.436 188 312.386 186.999 317.975 184.992C323.6 182.971 328.534 179.727 332.769 175.271L332.769 175.271L332.777 175.263C337.026 170.685 340.343 164.704 342.752 157.361C345.275 149.984 346.521 141.022 346.521 130.5V127.396C346.521 117.492 345.274 109.091 342.745 102.223C340.333 95.2907 337.012 89.6707 332.756 85.4051C328.521 81.0567 323.588 77.9195 317.967 76.0052C312.38 73.9995 306.433 73 300.132 73C293.83 73 287.883 73.9995 282.296 76.0052C276.675 77.9194 271.693 81.0556 267.357 85.4007C263.097 89.6686 259.774 95.293 257.361 102.232L257.36 102.232L257.358 102.24C255.04 109.101 253.897 117.495 253.897 127.396V130.5C253.897 141.018 255.039 149.973 257.351 157.342L257.351 157.342L257.355 157.354C259.764 164.701 263.081 170.684 267.332 175.263ZM306.974 153.043L306.97 153.053L306.965 153.063C306.083 155.026 305.057 156.281 303.944 156.967C302.757 157.7 301.492 158.06 300.132 158.06C298.771 158.06 297.507 157.7 296.319 156.967C295.198 156.276 294.122 155.013 293.139 153.052C292.259 150.985 291.505 148.186 290.896 144.627C290.39 140.967 290.133 136.262 290.133 130.5V127.396C290.133 120.812 290.596 115.737 291.494 112.128C292.509 108.473 293.733 106.112 295.071 104.854C296.541 103.57 298.214 102.94 300.132 102.94C302.053 102.94 303.666 103.572 305.026 104.843L305.037 104.854L305.049 104.865C306.472 106.111 307.698 108.458 308.611 112.116C309.512 115.725 309.976 120.805 309.976 127.396V130.5C309.976 136.269 309.718 140.978 309.211 144.64C308.702 148.208 307.947 150.996 306.974 153.043Z" fill="#F6F6F6" stroke="black" stroke-width="2"/>
<path d="M198.009 184.826V185.826H199.009H233.4H234.4V184.826V167.665H244.399H245.399V166.665V138.57V137.57H244.399H234.4V76.1719V75.1719H233.4H199.164H198.64L198.342 75.603L152.178 142.348L152 142.604V142.916V166.665V167.665H153H198.009V184.826ZM198.009 114.476V137.57H182.164L198.009 114.476Z" fill="#F6F6F6" stroke="black" stroke-width="2"/>
<path fill-rule="evenodd" clip-rule="evenodd" d="M643.801 172.906L632.515 166.134L621.609 159.362L621.076 160.188C620.868 160.51 620.545 161.005 620.114 161.649C619.252 162.939 617.963 164.819 616.308 167.096C612.984 171.67 608.263 177.74 602.635 183.811C596.968 189.926 590.647 195.753 584.162 200.073C577.588 204.452 571.689 206.72 566.684 206.992C563.735 207.151 561.408 206.709 559.372 205.677C557.325 204.639 555.492 202.965 553.596 200.533C552.683 199.362 551.428 197.21 550.038 194.573C548.659 191.956 547.18 188.926 545.818 186.043C544.457 183.162 543.218 180.436 542.318 178.43C541.868 177.427 541.503 176.604 541.251 176.033C541.182 175.876 541.121 175.738 541.07 175.62C541.027 175.524 540.991 175.441 540.961 175.372L540.866 175.156L540.865 175.153L540.862 175.145L540.86 175.142L540.554 174.413C532.041 154.137 519.643 124.608 486.158 117.339L483.814 116.83L490.179 126.827L481.527 129.658L488.073 136.88L477.941 142.161L480.643 142.747C499.521 146.845 507.484 162.819 516.894 185.222C517.138 185.803 517.384 186.39 517.632 186.984L517.66 187.049C521.713 196.727 526.418 207.96 533.091 216.52C540.93 226.574 552.131 233.819 568.092 232.953C579.476 232.336 589.894 227.496 598.576 221.711C607.348 215.868 615.224 208.478 621.704 201.485C628.225 194.45 633.603 187.525 637.341 182.38C639.218 179.797 640.701 177.636 641.728 176.101C642.242 175.333 642.642 174.719 642.922 174.285C643.062 174.068 643.172 173.896 643.251 173.772L643.801 172.906ZM539.943 175.541C539.347 175.8 539.138 175.891 539.065 175.923C539.026 175.94 539.026 175.94 539.026 175.94L539.052 176L539.129 176.174C539.196 176.327 539.294 176.552 539.421 176.84C539.675 177.415 540.041 178.241 540.493 179.248C541.396 181.263 542.642 184.001 544.01 186.898C545.377 189.793 546.871 192.852 548.269 195.505C549.656 198.137 550.984 200.436 552.019 201.763C554.019 204.329 556.066 206.243 558.467 207.461C560.88 208.684 563.571 209.163 566.793 208.989C572.288 208.691 578.535 206.225 585.271 201.737C591.932 197.3 598.372 191.353 604.102 185.171C609.798 179.025 614.571 172.889 617.926 168.271C619.598 165.971 620.902 164.07 621.777 162.761C621.939 162.518 622.087 162.295 622.219 162.095L631.473 167.842L641.007 173.562C640.758 173.946 640.443 174.425 640.065 174.989C639.051 176.506 637.583 178.645 635.724 181.204C632.017 186.305 626.689 193.165 620.238 200.126C613.819 207.05 606.064 214.321 597.468 220.047C588.947 225.723 578.877 230.366 567.984 230.956C552.809 231.779 542.194 224.943 534.668 215.29C528.175 206.961 523.56 195.96 519.477 186.211C519.229 185.618 518.982 185.03 518.738 184.447C509.811 163.193 501.837 146.657 483.649 141.442L491.295 137.456L485.08 130.6L493.251 127.926L488.113 119.858C518.734 127.742 530.4 155.394 538.758 175.302L539.026 175.94L539.943 175.541Z" fill="black"/>
</svg>
