<?xml version="1.0" encoding="UTF-8" standalone="no"?>
<svg
   xmlns:dc="http://purl.org/dc/elements/1.1/"
   xmlns:cc="http://creativecommons.org/ns#"
   xmlns:rdf="http://www.w3.org/1999/02/22-rdf-syntax-ns#"
   xmlns:svg="http://www.w3.org/2000/svg"
   xmlns="http://www.w3.org/2000/svg"
   xmlns:sodipodi="http://sodipodi.sourceforge.net/DTD/sodipodi-0.dtd"
   xmlns:inkscape="http://www.inkscape.org/namespaces/inkscape"
   inkscape:version="1.0 (4035a4fb49, 2020-05-01)"
   sodipodi:docname="billet-achievement-leader.svg"
   id="svg6"
   version="1.1"
   fill="none"
   viewBox="0 0 18 18"
   height="18"
   width="18">
  <metadata
     id="metadata12">
    <rdf:RDF>
      <cc:Work
         rdf:about="">
        <dc:format>image/svg+xml</dc:format>
        <dc:type
           rdf:resource="http://purl.org/dc/dcmitype/StillImage" />
        <dc:title></dc:title>
      </cc:Work>
    </rdf:RDF>
  </metadata>
  <defs
     id="defs10" />
  <sodipodi:namedview
     inkscape:current-layer="svg6"
     inkscape:window-maximized="1"
     inkscape:window-y="-9"
     inkscape:window-x="-9"
     inkscape:cy="7.0172375"
     inkscape:cx="4.737889"
     inkscape:zoom="41.921331"
     showgrid="false"
     id="namedview8"
     inkscape:window-height="1001"
     inkscape:window-width="1920"
     inkscape:pageshadow="2"
     inkscape:pageopacity="0"
     guidetolerance="10"
     gridtolerance="10"
     objecttolerance="10"
     borderopacity="1"
     bordercolor="#666666"
     pagecolor="#ffffff" />
  <g
     transform="matrix(1.0182781,0,0,1.0182781,2.3811923,1.9999999)"
     id="g839">
    <path
       d="M 13,7.24865 C 13,6.46024 12.8597,5.70432 12.6024,5.005 12.4265,7.0655 11.328,8.12385 10.1801,7.631 9.10497,7.16912 9.82953,5.36862 9.88306,4.50947 9.97329,3.05309 9.87847,1.38603 7.23297,0 8.33224,2.10294 7.36029,3.40944 6.34094,3.48897 5.20994,3.57729 4.17415,2.51703 4.5565,0.796441 3.31844,1.70874 3.2825,3.24426 3.66447,4.23762 4.06288,5.27303 3.64841,6.13332 2.67685,6.22891 1.59097,6.33597 0.987618,5.06618 1.54394,3.04276 0.581177,4.17644 0,5.64468 0,7.24865 c 0,3.58995 2.91009,6.49995 6.5,6.49995 3.5899,0 6.5,-2.91 6.5,-6.49995 z"
       fill="#f4900c"
       id="path2" />
    <path
       d="M 10.4745,9.16005 C 10.5311,10.3392 9.49531,10.8015 8.93784,10.5782 8.13261,10.2559 8.34864,9.70222 8.1414,8.55517 7.93417,7.40811 7.13773,6.61167 5.95893,6.26105 6.81923,8.68249 5.48214,9.5749 4.78129,9.73434 4.06552,9.89722 3.34632,9.73396 3.26411,8.20225 c -0.83506,0.83124 -1.352,1.98135 -1.352,3.25225 0,0.1408 0.00879,0.2792 0.02103,0.4168 1.17382,1.1601 2.7862,1.8774 4.5672,1.8774 1.781,0 3.39339,-0.7173 4.56716,-1.8774 0.0123,-0.1376 0.0211,-0.276 0.0211,-0.4168 0,-0.8362 -0.2233,-1.6196 -0.6141,-2.29445 z"
       fill="#ffcc4d"
       id="path4" />
  </g>
</svg>
