<?xml version="1.0" encoding="UTF-8" standalone="no"?>
<svg
   xmlns:dc="http://purl.org/dc/elements/1.1/"
   xmlns:cc="http://creativecommons.org/ns#"
   xmlns:rdf="http://www.w3.org/1999/02/22-rdf-syntax-ns#"
   xmlns:svg="http://www.w3.org/2000/svg"
   xmlns="http://www.w3.org/2000/svg"
   xmlns:sodipodi="http://sodipodi.sourceforge.net/DTD/sodipodi-0.dtd"
   xmlns:inkscape="http://www.inkscape.org/namespaces/inkscape"
   inkscape:version="1.0 (4035a4fb49, 2020-05-01)"
   height="18"
   width="18"
   sodipodi:docname="billet-achievement-top3.svg"
   id="svg10"
   version="1.1"
   viewBox="0 0 18 18">
  <metadata
     id="metadata16">
    <rdf:RDF>
      <cc:Work
         rdf:about="">
        <dc:format>image/svg+xml</dc:format>
        <dc:type
           rdf:resource="http://purl.org/dc/dcmitype/StillImage" />
        <dc:title></dc:title>
      </cc:Work>
    </rdf:RDF>
  </metadata>
  <defs
     id="defs14" />
  <sodipodi:namedview
     inkscape:current-layer="svg10"
     inkscape:window-maximized="1"
     inkscape:window-y="-9"
     inkscape:window-x="-9"
     inkscape:cy="18"
     inkscape:cx="18"
     inkscape:zoom="23.055556"
     showgrid="false"
     id="namedview12"
     inkscape:window-height="1001"
     inkscape:window-width="1920"
     inkscape:pageshadow="2"
     inkscape:pageopacity="0"
     guidetolerance="10"
     gridtolerance="10"
     objecttolerance="10"
     borderopacity="1"
     bordercolor="#666666"
     pagecolor="#ffffff" />
  <g
     transform="matrix(0.38888889,0,0,0.38888889,2,2)"
     id="g845">
    <path
       fill="#55acee"
       d="M 18,8 11,0 H 0 l 14,17 11.521,-4.75 z"
       id="path2" />
    <path
       fill="#3b88c3"
       d="m 25,0 -7,8 5.39,7.312 1.227,-1.489 L 36,0 Z"
       id="path4" />
    <path
       fill="#ff8a3b"
       d="m 23.205,16.026 c 0.08,-0.217 0.131,-0.448 0.131,-0.693 0,-1.104 -0.896,-2 -2,-2 h -6.667 c -1.105,0 -2,0.896 -2,2 0,0.245 0.05,0.476 0.131,0.693 C 9.542,17.852 7.336,21.333 7.336,25.333 7.335,31.224 12.111,36 18.002,36 c 5.891,0 10.667,-4.776 10.667,-10.667 0,-4 -2.206,-7.481 -5.464,-9.307 z"
       id="path6" />
    <path
       fill="#7c4119"
       d="m 14.121,29.35 1.178,-1.178 c 0.13,-0.132 0.318,-0.15 0.467,-0.038 0,0 1.159,0.861 2.056,0.861 0.805,0 1.628,-0.673 1.628,-1.496 0,-0.823 -0.842,-1.514 -2.225,-1.514 h -0.639 c -0.186,0 -0.354,-0.168 -0.354,-0.355 v -1.552 c 0,-0.206 0.168,-0.355 0.354,-0.355 h 0.639 c 1.309,0 2,-0.635 2,-1.439 0,-0.805 -0.691,-1.402 -1.496,-1.402 -0.823,0 -1.346,0.43 -1.626,0.747 -0.132,0.15 -0.355,0.15 -0.504,0.02 l -1.141,-1.122 c -0.151,-0.132 -0.132,-0.355 0,-0.486 0,0 1.533,-1.646 3.57,-1.646 2.169,0 4.039,1.328 4.039,3.422 0,1.439 -1.085,2.505 -1.926,2.897 v 0.057 c 0.879,0.374 2.262,1.533 2.262,3.141 0,2.038 -1.776,3.572 -4.357,3.572 -2.354,0 -3.552,-1.16 -3.944,-1.664 -0.113,-0.134 -0.093,-0.34 0.019,-0.47 z"
       id="path8" />
  </g>
</svg>
