<?xml version="1.0" encoding="UTF-8" standalone="no"?>
<svg
   xmlns:dc="http://purl.org/dc/elements/1.1/"
   xmlns:cc="http://creativecommons.org/ns#"
   xmlns:rdf="http://www.w3.org/1999/02/22-rdf-syntax-ns#"
   xmlns:svg="http://www.w3.org/2000/svg"
   xmlns="http://www.w3.org/2000/svg"
   xmlns:sodipodi="http://sodipodi.sourceforge.net/DTD/sodipodi-0.dtd"
   xmlns:inkscape="http://www.inkscape.org/namespaces/inkscape"
   inkscape:version="1.0 (4035a4fb49, 2020-05-01)"
   height="18"
   width="18"
   sodipodi:docname="billet-achievement-top1.svg"
   id="svg10"
   version="1.1"
   viewBox="0 0 18 18">
  <metadata
     id="metadata16">
    <rdf:RDF>
      <cc:Work
         rdf:about="">
        <dc:format>image/svg+xml</dc:format>
        <dc:type
           rdf:resource="http://purl.org/dc/dcmitype/StillImage" />
        <dc:title></dc:title>
      </cc:Work>
    </rdf:RDF>
  </metadata>
  <defs
     id="defs14" />
  <sodipodi:namedview
     inkscape:current-layer="svg10"
     inkscape:window-maximized="1"
     inkscape:window-y="-9"
     inkscape:window-x="-9"
     inkscape:cy="18"
     inkscape:cx="18"
     inkscape:zoom="23.055556"
     showgrid="false"
     id="namedview12"
     inkscape:window-height="1001"
     inkscape:window-width="1920"
     inkscape:pageshadow="2"
     inkscape:pageopacity="0"
     guidetolerance="10"
     gridtolerance="10"
     objecttolerance="10"
     borderopacity="1"
     bordercolor="#666666"
     pagecolor="#ffffff" />
  <g
     transform="matrix(0.38888889,0,0,0.38888889,2,2)"
     id="g845">
    <path
       fill="#55acee"
       d="M 18,8 11,0 H 0 l 14,17 11.521,-4.75 z"
       id="path2" />
    <path
       fill="#3b88c3"
       d="m 25,0 -7,8 5.39,7.312 1.227,-1.489 L 36,0 Z"
       id="path4" />
    <path
       fill="#ffac33"
       d="m 23.205,16.026 c 0.08,-0.217 0.131,-0.448 0.131,-0.693 0,-1.104 -0.896,-2 -2,-2 h -6.667 c -1.105,0 -2,0.896 -2,2 0,0.245 0.05,0.476 0.131,0.693 C 9.542,17.852 7.336,21.333 7.336,25.333 7.335,31.224 12.111,36 18.002,36 c 5.891,0 10.667,-4.776 10.667,-10.667 0,-4 -2.206,-7.481 -5.464,-9.307 z"
       id="path6" />
    <path
       fill="#9e5200"
       d="m 19.404,18.6 h -1.721 l -2.73,2.132 c -0.056,0.056 -0.112,0.206 -0.112,0.28 v 1.178 c 0,0.186 0.15,0.354 0.337,0.354 h 1.795 v 8.414 c 0,0.188 0.15,0.355 0.355,0.355 h 2.076 c 0.186,0 0.336,-0.168 0.336,-0.355 V 18.954 c 0,-0.186 -0.149,-0.354 -0.336,-0.354 z"
       id="path8" />
  </g>
</svg>
