<?xml version="1.0" encoding="UTF-8" standalone="no"?>
<svg
   xmlns:dc="http://purl.org/dc/elements/1.1/"
   xmlns:cc="http://creativecommons.org/ns#"
   xmlns:rdf="http://www.w3.org/1999/02/22-rdf-syntax-ns#"
   xmlns:svg="http://www.w3.org/2000/svg"
   xmlns="http://www.w3.org/2000/svg"
   xmlns:sodipodi="http://sodipodi.sourceforge.net/DTD/sodipodi-0.dtd"
   xmlns:inkscape="http://www.inkscape.org/namespaces/inkscape"
   inkscape:version="1.0 (4035a4fb49, 2020-05-01)"
   height="15"
   width="15"
   sodipodi:docname="bonus-get.svg"
   id="svg4"
   version="1.1"
   viewBox="0 32 15 15">
  <metadata
     id="metadata10">
    <rdf:RDF>
      <cc:Work
         rdf:about="">
        <dc:format>image/svg+xml</dc:format>
        <dc:type
           rdf:resource="http://purl.org/dc/dcmitype/StillImage" />
        <dc:title></dc:title>
      </cc:Work>
    </rdf:RDF>
  </metadata>
  <defs
     id="defs8" />
  <sodipodi:namedview
     inkscape:current-layer="svg4"
     inkscape:window-maximized="1"
     inkscape:window-y="-9"
     inkscape:window-x="-9"
     inkscape:cy="29.333881"
     inkscape:cx="37.697253"
     inkscape:zoom="18.321429"
     showgrid="false"
     id="namedview6"
     inkscape:window-height="1361"
     inkscape:window-width="3440"
     inkscape:pageshadow="2"
     inkscape:pageopacity="0"
     guidetolerance="10"
     gridtolerance="10"
     objecttolerance="10"
     borderopacity="1"
     bordercolor="#666666"
     pagecolor="#ffffff" />
  <path
     style="stroke-width:0.0292969;fill:#ffffff;fill-opacity:1"
     id="path2"
     fill="#5997e3ff"
     d="m 0.9375,45.125 c 0,0.518555 0.4189453,0.9375 0.9375,0.9375 H 6.5625 V 41.375 h -5.625 z m 7.5,0.9375 h 4.6875 c 0.518555,0 0.9375,-0.418945 0.9375,-0.9375 v -3.75 h -5.625 z m 5.625,-9.375 h -1.233398 c 0.18164,-0.354492 0.295898,-0.74707 0.295898,-1.171875 0,-1.420898 -1.157227,-2.578125 -2.578125,-2.578125 -1.21875,0 -2.0068359,0.624023 -3.0175781,2.000977 C 6.5185547,33.561523 5.7304687,32.9375 4.5117187,32.9375 c -1.4208984,0 -2.578125,1.157227 -2.578125,2.578125 0,0.424805 0.1113282,0.817383 0.2958985,1.171875 H 0.9375 C 0.41894531,36.6875 0,37.106445 0,37.625 v 2.34375 c 0,0.257812 0.2109375,0.46875 0.46875,0.46875 h 14.0625 C 14.789063,40.4375 15,40.226562 15,39.96875 V 37.625 c 0,-0.518555 -0.418945,-0.9375 -0.9375,-0.9375 z m -9.5537109,0 c -0.647461,0 -1.171875,-0.524414 -1.171875,-1.171875 0,-0.647461 0.524414,-1.171875 1.171875,-1.171875 0.5830078,0 1.0136718,0.09668 2.5224609,2.34375 z m 6.0380859,0 H 8.0244141 c 1.5058593,-2.241211 1.9248046,-2.34375 2.5224609,-2.34375 0.647461,0 1.171875,0.524414 1.171875,1.171875 0,0.647461 -0.524414,1.171875 -1.171875,1.171875 z" />
</svg>
