<?xml version="1.0" encoding="UTF-8" standalone="no"?>
<svg
   xmlns:dc="http://purl.org/dc/elements/1.1/"
   xmlns:cc="http://creativecommons.org/ns#"
   xmlns:rdf="http://www.w3.org/1999/02/22-rdf-syntax-ns#"
   xmlns:svg="http://www.w3.org/2000/svg"
   xmlns="http://www.w3.org/2000/svg"
   xmlns:sodipodi="http://sodipodi.sourceforge.net/DTD/sodipodi-0.dtd"
   xmlns:inkscape="http://www.inkscape.org/namespaces/inkscape"
   sodipodi:docname="mini-bonus.svg"
   inkscape:version="1.0 (4035a4fb49, 2020-05-01)"
   id="svg850"
   version="1.1"
   viewBox="0 0 6.0854165 6.0854168"
   height="23"
   width="23">
  <defs
     id="defs844" />
  <sodipodi:namedview
     inkscape:window-maximized="0"
     inkscape:window-y="135"
     inkscape:window-x="224"
     inkscape:window-height="1208"
     inkscape:window-width="1895"
     units="px"
     showgrid="false"
     inkscape:document-rotation="0"
     inkscape:current-layer="layer1"
     inkscape:document-units="mm"
     inkscape:cy="2.3908303"
     inkscape:cx="-13.857169"
     inkscape:zoom="11.2"
     inkscape:pageshadow="2"
     inkscape:pageopacity="0.0"
     borderopacity="1.0"
     bordercolor="#666666"
     pagecolor="#ffffff"
     id="base" />
  <metadata
     id="metadata847">
    <rdf:RDF>
      <cc:Work
         rdf:about="">
        <dc:format>image/svg+xml</dc:format>
        <dc:type
           rdf:resource="http://purl.org/dc/dcmitype/StillImage" />
        <dc:title></dc:title>
      </cc:Work>
    </rdf:RDF>
  </metadata>
  <g
     id="layer1"
     inkscape:groupmode="layer"
     inkscape:label="Слой 1">
    <path
       style="stroke-width:0.276612;fill:#5997e3;fill-opacity:1"
       fill="#5997e3ff"
       d="m 5.8088033,3.0427083 v 2.2129 a 0.55322478,0.55322478 0 0 1 -0.55322,0.55322 H 0.82978333 a 0.55322478,0.55322478 0 0 1 -0.55323,-0.55322 v -2.2129 A 0.27661238,0.27661238 0 0 1 -4.6666667e-5,2.7660983 v -0.82984 A 0.55322478,0.55322478 0 0 1 0.55317333,1.3830283 H 1.4300333 c -0.0304,-0.0858 -0.047,-0.1798 -0.047,-0.27661 a 0.82983714,0.82983714 0 0 1 0.82984,-0.82982997 c 0.2766,0 0.52002,0.1383 0.67216,0.343 v -0.003 l 0.15766,0.213 0.15767,-0.213 v 0.003 c 0.15214,-0.2047 0.39557,-0.343 0.67217,-0.343 a 0.82983714,0.82983714 0 0 1 0.82984,0.82982997 c 0,0.0968 -0.0166,0.19086 -0.047,0.27661 h 0.87686 a 0.55322478,0.55322478 0 0 1 0.55323,0.55323 v 0.82984 a 0.27661238,0.27661238 0 0 1 -0.27662,0.27661 m -4.97901997,2.2129 H 2.7661133 v -2.2129 H 0.82982333 v 2.2129 m 4.42579997,0 v -2.2129 h -1.93629 v 2.2129 h 1.93629 m -3.04273,-4.42579997 a 0.27661238,0.27661238 0 0 0 -0.27662,0.27660997 0.27661238,0.27661238 0 0 0 0.27662,0.27661 0.27661238,0.27661238 0 0 0 0.2766,-0.27661 0.27661238,0.27661238 0 0 0 -0.2766,-0.27660997 m 1.65967,0 a 0.27661238,0.27661238 0 0 0 -0.27661,0.27660997 0.27661238,0.27661238 0 0 0 0.27661,0.27661 0.27661238,0.27661238 0 0 0 0.27661,-0.27661 0.27661238,0.27661238 0 0 0 -0.27661,-0.27660997 M 0.55321333,1.9362583 v 0.55322 H 2.7661133 v -0.55322 H 0.55321333 m 2.76611997,0 v 0.55322 h 2.2129 v -0.55322 z"
       id="path2" />
  </g>
</svg>
