<?xml version="1.0" encoding="UTF-8" standalone="no"?>
<svg xmlns:dc="http://purl.org/dc/elements/1.1/" xmlns:cc="http://creativecommons.org/ns#" xmlns:rdf="http://www.w3.org/1999/02/22-rdf-syntax-ns#" xmlns:svg="http://www.w3.org/2000/svg" xmlns="http://www.w3.org/2000/svg" xmlns:sodipodi="http://sodipodi.sourceforge.net/DTD/sodipodi-0.dtd" xmlns:inkscape="http://www.inkscape.org/namespaces/inkscape" inkscape:version="1.0 (4035a4fb49, 2020-05-01)" height="20" width="20" sodipodi:docname="mini-profit.svg" id="svg4" version="1.1" viewBox="3.5 3.5 23 23">
  <metadata id="metadata10"></metadata>
  <defs id="defs8"></defs>
  <path style="stroke-width:1.35294;fill:#5997e3;fill-opacity:1" id="path2" fill="#5997e3ff" d="M 23.794118,3.5 26.5,6.2058824 6.2058824,26.5 3.5,23.794118 23.794118,3.5 M 8.2352941,4.1764706 c 2.2458819,0 4.0588239,1.8129412 4.0588239,4.0588235 0,2.2458819 -1.812942,4.0588239 -4.0588239,4.0588239 -2.2458823,0 -4.0588235,-1.812942 -4.0588235,-4.0588239 0,-2.2458823 1.8129412,-4.0588235 4.0588235,-4.0588235 M 21.764706,17.705882 c 2.245882,0 4.058823,1.812942 4.058823,4.058824 0,2.245882 -1.812941,4.058823 -4.058823,4.058823 -2.245882,0 -4.058824,-1.812941 -4.058824,-4.058823 0,-2.245882 1.812942,-4.058824 4.058824,-4.058824 M 8.2352941,6.8823529 c -0.7441176,0 -1.3529412,0.6088236 -1.3529412,1.3529412 0,0.7441177 0.6088236,1.3529412 1.3529412,1.3529412 0.7441177,0 1.3529412,-0.6088235 1.3529412,-1.3529412 0,-0.7441176 -0.6088235,-1.3529412 -1.3529412,-1.3529412 M 21.764706,20.411765 c -0.744118,0 -1.352941,0.608823 -1.352941,1.352941 0,0.744118 0.608823,1.352941 1.352941,1.352941 0.744118,0 1.352941,-0.608823 1.352941,-1.352941 0,-0.744118 -0.608823,-1.352941 -1.352941,-1.352941 z"></path>
</svg>
