<svg width="25" height="24" viewBox="0 0 25 24" fill="none" xmlns="http://www.w3.org/2000/svg">
<path d="M13.8014 12L16.7468 9.05451C16.9172 8.88416 16.9172 8.60771 16.7468 8.43709L16.0624 7.75267C15.8921 7.58232 15.6156 7.58232 15.445 7.75267L12.4998 10.6984L9.55433 7.75295C9.38397 7.58259 9.10753 7.58259 8.9369 7.75295L8.25276 8.43709C8.08241 8.60744 8.08241 8.88388 8.25276 9.05451L11.1982 12L8.25276 14.9454C8.08241 15.1158 8.08241 15.3922 8.25276 15.5629L8.93718 16.2473C9.10753 16.4176 9.38397 16.4176 9.5546 16.2473L12.4998 13.3015L15.4453 16.247C15.6156 16.4174 15.8921 16.4174 16.0627 16.247L16.7471 15.5626C16.9174 15.3922 16.9174 15.1158 16.7471 14.9452L13.8014 12Z" fill="#E83E8C"/>
</svg>
