<svg width="24" height="24" viewBox="0 0 24 24" fill="none" xmlns="http://www.w3.org/2000/svg">
<path d="M12.8333 11.1667L12.8333 7.39528C12.8333 7.17716 12.6563 7.00018 12.438 7L11.5617 7C11.3435 7 11.1665 7.17698 11.1664 7.39528L11.1667 11.1667L7.39528 11.1667C7.17716 11.1667 7.00018 11.3437 7 11.562L7 12.438C7 12.6561 7.17698 12.8331 7.39528 12.8333L11.1667 12.8333V16.6047C11.1667 16.8228 11.3437 16.9998 11.562 17H12.4383C12.6565 17 12.8335 16.823 12.8336 16.6047L12.8333 12.8333H16.6047C16.8228 12.8333 16.9998 12.6563 17 12.438V11.5617C17 11.3435 16.823 11.1666 16.6047 11.1664L12.8333 11.1667Z" fill="#007BFF"/>
</svg>
