<svg width="25" height="24" viewBox="0 0 25 24" fill="none" xmlns="http://www.w3.org/2000/svg">
<path d="M14.3333 11.1667C14.1953 11.1667 14.1566 11.1669 13.9383 11.1667L13.062 11.1667C12.8439 11.1667 12.8125 11.1667 12.6664 11.1667L8.89528 11.1667C8.67716 11.1667 8.50018 11.3437 8.5 11.562L8.5 12.438C8.5 12.6561 8.67698 12.8331 8.89528 12.8333L12.6667 12.8333C12.8516 12.8333 12.8437 12.8331 13.062 12.8333H13.9383C14.1565 12.8333 14.1016 12.8333 14.3336 12.8333L16.1047 12.8333C16.3228 12.8333 16.4998 12.6563 16.5 12.438V11.5617C16.5 11.3435 16.323 11.1665 16.1047 11.1664L14.3333 11.1667Z" fill="#E83E8C"/>
</svg>
