<?xml version="1.0" encoding="UTF-8" standalone="no"?>
<svg
   xmlns:dc="http://purl.org/dc/elements/1.1/"
   xmlns:cc="http://creativecommons.org/ns#"
   xmlns:rdf="http://www.w3.org/1999/02/22-rdf-syntax-ns#"
   xmlns:svg="http://www.w3.org/2000/svg"
   xmlns="http://www.w3.org/2000/svg"
   xmlns:sodipodi="http://sodipodi.sourceforge.net/DTD/sodipodi-0.dtd"
   xmlns:inkscape="http://www.inkscape.org/namespaces/inkscape"
   sodipodi:docname="billet-list-check-round.svg"
   inkscape:version="1.0 (4035a4fb49, 2020-05-01)"
   id="svg870"
   version="1.1"
   viewBox="0 0 6.3499999 6.3500002"
   height="24"
   width="24">
  <defs
     id="defs864" />
  <sodipodi:namedview
     inkscape:window-maximized="0"
     inkscape:window-y="0"
     inkscape:window-x="7"
     inkscape:window-height="1030"
     inkscape:window-width="1895"
     units="px"
     showgrid="false"
     inkscape:document-rotation="0"
     inkscape:current-layer="layer1"
     inkscape:document-units="mm"
     inkscape:cy="18.59835"
     inkscape:cx="6.2520818"
     inkscape:zoom="15.839192"
     inkscape:pageshadow="2"
     inkscape:pageopacity="0.0"
     borderopacity="1.0"
     bordercolor="#666666"
     pagecolor="#ffffff"
     id="base" />
  <metadata
     id="metadata867">
    <rdf:RDF>
      <cc:Work
         rdf:about="">
        <dc:format>image/svg+xml</dc:format>
        <dc:type
           rdf:resource="http://purl.org/dc/dcmitype/StillImage" />
        <dc:title></dc:title>
      </cc:Work>
    </rdf:RDF>
  </metadata>
  <g
     id="layer1"
     inkscape:groupmode="layer"
     inkscape:label="Слой 1">
    <path
       style="fill:#0ab059;fill-rule:nonzero;stroke:none;stroke-width:0.231509;stroke-linecap:butt;stroke-linejoin:miter;stroke-miterlimit:4;stroke-dasharray:none;stroke-dashoffset:0;fill-opacity:1"
       vector-effect="non-scaling-stroke"
       d="m 3.1749999,0.85989633 c -1.2779371,0 -2.31510354,1.03716647 -2.31510354,2.31510367 0,1.2779372 1.03716644,2.3151037 2.31510354,2.3151037 1.2779372,0 2.3151037,-1.0371665 2.3151037,-2.3151037 0,-1.2779372 -1.0371665,-2.31510367 -2.3151037,-2.31510367 z m 0,4.16718657 c -1.0209606,0 -1.8520828,-0.8311222 -1.8520828,-1.8520829 0,-1.0209607 0.8311222,-1.8520829 1.8520828,-1.8520829 1.0209607,0 1.8520829,0.8311222 1.8520829,1.8520829 0,1.0209607 -0.8311222,1.8520829 -1.8520829,1.8520829 z M 4.2376326,2.1517242 2.7119793,3.6773775 2.1123674,3.0800808 1.7859378,3.4065104 2.7119793,4.3325518 4.5640621,2.4804689 Z"
       stroke-linecap="round"
       id="path18" />
    <path
       style="opacity:0.3;fill:#0ab059;fill-rule:nonzero;stroke:none;stroke-width:0.231509;stroke-linecap:butt;stroke-linejoin:miter;stroke-miterlimit:4;stroke-dasharray:none;stroke-dashoffset:0;fill-opacity:1"
       vector-effect="non-scaling-stroke"
       d="m 3.1749999,1.3229171 c -1.0209606,0 -1.8520828,0.8311222 -1.8520828,1.8520829 0,1.0209607 0.8311222,1.8520829 1.8520828,1.8520829 1.0209607,0 1.8520829,-0.8311222 1.8520829,-1.8520829 0,-1.0209607 -0.8311222,-1.8520829 -1.8520829,-1.8520829 z M 2.7119793,4.3325518 1.7859378,3.4065104 2.1123674,3.0800806 2.7119793,3.6773775 4.2376326,2.1517242 4.5640621,2.4804689 Z"
       stroke-linecap="round"
       id="path14" />
  </g>
</svg>
