<?xml version="1.0" encoding="UTF-8" standalone="no"?>
<svg
   xmlns:dc="http://purl.org/dc/elements/1.1/"
   xmlns:cc="http://creativecommons.org/ns#"
   xmlns:rdf="http://www.w3.org/1999/02/22-rdf-syntax-ns#"
   xmlns:svg="http://www.w3.org/2000/svg"
   xmlns="http://www.w3.org/2000/svg"
   xmlns:sodipodi="http://sodipodi.sourceforge.net/DTD/sodipodi-0.dtd"
   xmlns:inkscape="http://www.inkscape.org/namespaces/inkscape"
   sodipodi:docname="billet-profit-red.svg"
   inkscape:version="1.0 (4035a4fb49, 2020-05-01)"
   id="svg884"
   version="1.1"
   viewBox="0 0 4.7624999 4.7625001"
   height="18"
   width="18">
  <defs
     id="defs878" />
  <sodipodi:namedview
     units="px"
     inkscape:window-maximized="0"
     inkscape:window-y="0"
     inkscape:window-x="7"
     inkscape:window-height="1030"
     inkscape:window-width="1895"
     showgrid="false"
     inkscape:document-rotation="0"
     inkscape:current-layer="layer1"
     inkscape:document-units="mm"
     inkscape:cy="31.191339"
     inkscape:cx="-2.8128769"
     inkscape:zoom="7.9195959"
     inkscape:pageshadow="2"
     inkscape:pageopacity="0.0"
     borderopacity="1.0"
     bordercolor="#666666"
     pagecolor="#ffffff"
     id="base" />
  <metadata
     id="metadata881">
    <rdf:RDF>
      <cc:Work
         rdf:about="">
        <dc:format>image/svg+xml</dc:format>
        <dc:type
           rdf:resource="http://purl.org/dc/dcmitype/StillImage" />
        <dc:title></dc:title>
      </cc:Work>
    </rdf:RDF>
  </metadata>
  <g
     id="layer1"
     inkscape:groupmode="layer"
     inkscape:label="Слой 1">
    <path
       style="opacity:1;fill:#f94949;fill-rule:nonzero;stroke:none;stroke-width:0.275807;stroke-linecap:butt;stroke-linejoin:miter;stroke-miterlimit:4;stroke-dasharray:none;stroke-dashoffset:0;fill-opacity:1"
       d="m 4.6566668,0.1058335 v 1.379041 L 4.2429548,1.0711615 0.65744935,4.6566665 0.10583315,4.1050505 3.6913378,0.5195455 3.2776258,0.1058335 h 1.379041 m -0.827425,4.41293 c -0.456973,0 -0.827424,-0.370451 -0.827424,-0.827425 v -0.551616 c 0,-0.456974 0.370451,-0.827424 0.827424,-0.827424 0.456974,0 0.827425,0.37045 0.827425,0.827424 v 0.551616 c 0,0.456974 -0.370451,0.827425 -0.827425,0.827425 m 0,-1.654849 c -0.152324,0 -0.275808,0.123483 -0.275808,0.275808 v 0.551616 c 0,0.152325 0.123484,0.275808 0.275808,0.275808 0.152325,0 0.275808,-0.123483 0.275808,-0.275808 v -0.551616 c 0,-0.152325 -0.123483,-0.275808 -0.275808,-0.275808 M 1.0711614,2.3122985 c -0.45697375,0 -0.82742425,-0.370451 -0.82742425,-0.827424 v -0.551617 c 0,-0.456974 0.3704505,-0.827424 0.82742425,-0.827424 0.4569738,0 0.8274243,0.37045 0.8274243,0.827424 v 0.551617 c 0,0.456973 -0.3704505,0.827424 -0.8274243,0.827424 m 0,-1.654849 c -0.15232455,0 -0.27580805,0.123484 -0.27580805,0.275808 v 0.551617 c 0,0.152324 0.1234835,0.275808 0.27580805,0.275808 0.1523246,0 0.2758081,-0.123484 0.2758081,-0.275808 v -0.551617 c 0,-0.152324 -0.1234835,-0.275808 -0.2758081,-0.275808 z"
       stroke-linecap="round"
       id="path859" />
  </g>
</svg>
