<?xml version="1.0" encoding="UTF-8" standalone="no"?>
<svg
   xmlns:dc="http://purl.org/dc/elements/1.1/"
   xmlns:cc="http://creativecommons.org/ns#"
   xmlns:rdf="http://www.w3.org/1999/02/22-rdf-syntax-ns#"
   xmlns:svg="http://www.w3.org/2000/svg"
   xmlns="http://www.w3.org/2000/svg"
   xmlns:sodipodi="http://sodipodi.sourceforge.net/DTD/sodipodi-0.dtd"
   xmlns:inkscape="http://www.inkscape.org/namespaces/inkscape"
   inkscape:version="1.0 (4035a4fb49, 2020-05-01)"
   sodipodi:docname="all.svg"
   id="svg4"
   version="1.1"
   viewBox="0 8 20 20">
  <metadata
     id="metadata10">
    <rdf:RDF>
      <cc:Work
         rdf:about="">
        <dc:format>image/svg+xml</dc:format>
        <dc:type
           rdf:resource="http://purl.org/dc/dcmitype/StillImage" />
        <dc:title></dc:title>
      </cc:Work>
    </rdf:RDF>
  </metadata>
  <defs
     id="defs8" />
  <sodipodi:namedview
     inkscape:current-layer="svg4"
     inkscape:window-maximized="1"
     inkscape:window-y="-9"
     inkscape:window-x="-9"
     inkscape:cy="7.120138"
     inkscape:cx="7.4712731"
     inkscape:zoom="29.344931"
     showgrid="false"
     id="namedview6"
     inkscape:window-height="1001"
     inkscape:window-width="1920"
     inkscape:pageshadow="2"
     inkscape:pageopacity="0"
     guidetolerance="10"
     gridtolerance="10"
     objecttolerance="10"
     borderopacity="1"
     bordercolor="#666666"
     pagecolor="#ffffff" />
  <path
     style="stroke-width:0.0403226;fill:#ffffff;fill-opacity:1"
     id="path2"
     fill="#ffffff"
     d="M 10,8 C 4.4770161,8 0,12.477016 0,18 0,23.522984 4.4770161,28 10,28 15.522984,28 20,23.522984 20,18 20,12.477016 15.522984,8 10,8 Z m 3.318145,14.419355 c -0.157258,0.156451 -0.322177,0.320564 -0.456048,0.454839 -0.120565,0.120967 -0.205645,0.270161 -0.248791,0.431854 -0.06089,0.228226 -0.11008,0.458871 -0.192338,0.680242 l -0.70121,1.889113 C 11.164919,25.996371 10.590726,26.064516 10,26.064516 V 24.960484 C 10.068145,24.451613 9.6919355,23.498387 9.0875,22.893952 8.8455645,22.652016 8.7096774,22.32379 8.7096774,21.981452 v -1.290726 c 0,-0.469355 -0.2528226,-0.900807 -0.6637097,-1.127823 C 7.4665323,19.242339 6.6423387,18.794355 6.0778226,18.510081 5.6149194,18.277016 5.1866935,17.980242 4.8016129,17.633065 l -0.032258,-0.02903 A 4.6287097,4.6287097 0 0 1 4.041129,16.767742 C 3.6629032,16.2125 3.0467742,15.299194 2.646371,14.705645 3.4717742,12.870968 4.9592742,11.397581 6.8076613,10.597177 l 0.9681452,0.484275 c 0.4290322,0.214516 0.9338709,-0.09718 0.9338709,-0.577017 V 10.04879 c 0.3221774,-0.052016 0.65,-0.08508 0.9834678,-0.09758 l 1.1411288,1.141129 c 0.252016,0.252016 0.252016,0.660484 0,0.9125 l -0.189113,0.188709 -0.416935,0.416936 c -0.125807,0.125806 -0.125807,0.330242 0,0.456048 l 0.189113,0.189113 c 0.125806,0.125807 0.125806,0.330242 0,0.456049 l -0.322581,0.32258 a 0.32290323,0.32290323 0 0 1 -0.2282257,0.09436 h -0.3625 c -0.083871,0 -0.1645162,0.03266 -0.225,0.09153 l -0.4,0.389113 a 0.32290323,0.32290323 0 0 0 -0.06371,0.375403 l 0.628629,1.257662 c 0.1072581,0.214516 -0.04879,0.466935 -0.2883064,0.466935 H 8.9282258 c -0.077823,0 -0.1528226,-0.02823 -0.2112903,-0.07903 l -0.3741936,-0.325 a 0.64584677,0.64584677 0 0 0 -0.6270161,-0.125 L 6.458871,16.599194 a 0.48185484,0.48185484 0 0 0 -0.3294355,0.457258 c 0,0.182661 0.1032258,0.349193 0.2665322,0.431048 l 0.4467742,0.223387 c 0.3794355,0.189919 0.7979839,0.28871 1.2221775,0.28871 0.4241935,0 0.9108871,1.100403 1.2903225,1.290322 h 2.6915321 c 0.342339,0 0.670161,0.135887 0.9125,0.377823 l 0.552016,0.552016 a 1.2299597,1.2299597 0 0 1 0.360081,0.869758 1.8764516,1.8764516 0 0 1 -0.553226,1.329839 z m 3.496371,-3.683468 c -0.233468,-0.05847 -0.437097,-0.201613 -0.570564,-0.402016 l -0.725,-1.0875 a 0.96653226,0.96653226 0 0 1 0,-1.073387 l 0.789919,-1.184678 c 0.09355,-0.139919 0.221774,-0.253629 0.372581,-0.328629 l 0.523387,-0.261693 C 17.75,15.483468 18.064516,16.704435 18.064516,18 c 0,0.349597 -0.02984,0.691935 -0.07339,1.029839 z" />
</svg>
