<?xml version="1.0" encoding="UTF-8" standalone="no"?>
<svg
   xmlns:dc="http://purl.org/dc/elements/1.1/"
   xmlns:cc="http://creativecommons.org/ns#"
   xmlns:rdf="http://www.w3.org/1999/02/22-rdf-syntax-ns#"
   xmlns:svg="http://www.w3.org/2000/svg"
   xmlns="http://www.w3.org/2000/svg"
   xmlns:sodipodi="http://sodipodi.sourceforge.net/DTD/sodipodi-0.dtd"
   xmlns:inkscape="http://www.inkscape.org/namespaces/inkscape"
   inkscape:version="1.0 (4035a4fb49, 2020-05-01)"
   sodipodi:docname="ar.svg"
   id="svg1240"
   version="1.1"
   viewBox="0 0 20 20"
   height="20"
   width="20">
  <metadata
     id="metadata1246">
    <rdf:RDF>
      <cc:Work
         rdf:about="">
        <dc:format>image/svg+xml</dc:format>
        <dc:type
           rdf:resource="http://purl.org/dc/dcmitype/StillImage" />
        <dc:title></dc:title>
      </cc:Work>
    </rdf:RDF>
  </metadata>
  <defs
     id="defs1244" />
  <sodipodi:namedview
     inkscape:current-layer="svg1240"
     inkscape:window-maximized="1"
     inkscape:window-y="-9"
     inkscape:window-x="-9"
     inkscape:cy="35.110215"
     inkscape:cx="38.772663"
     inkscape:zoom="9.1702911"
     showgrid="false"
     id="namedview1242"
     inkscape:window-height="1001"
     inkscape:window-width="1920"
     inkscape:pageshadow="2"
     inkscape:pageopacity="0"
     guidetolerance="10"
     gridtolerance="10"
     objecttolerance="10"
     borderopacity="1"
     bordercolor="#666666"
     pagecolor="#ffffff" />
  <mask
     id="a">
    <circle
       id="circle1229"
       fill="#ffffff"
       r="256"
       cy="256"
       cx="256" />
  </mask>
  <g
     transform="scale(0.0390625)"
     id="g1238"
     mask="url(#a)">
    <path
       id="path1232"
       d="M 0,0 H 512 V 144.7 L 488,256 512,367.3 V 512 H 0 V 367.3 L 26,256 0,144.7 Z"
       fill="#338af3" />
    <path
       id="path1234"
       d="M 0,144.7 H 512 V 367.3 H 0 Z"
       fill="#eeeeee" />
    <path
       id="path1236"
       d="m 332.4,256 -31.2,14.7 16.7,30.3 -34,-6.5 -4.2,34.3 -23.7,-25.2 -23.6,25.2 -4.3,-34.3 -34,6.5 16.6,-30.3 L 179.5,256 210.8,241.3 194,211 l 34,6.5 4.3,-34.3 23.6,25.2 23.6,-25.2 4.4,34.3 34,-6.5 -16.7,30.3 z"
       fill="#ffda44" />
  </g>
</svg>
