<?xml version="1.0" encoding="UTF-8" standalone="no"?>
<svg
   xmlns:dc="http://purl.org/dc/elements/1.1/"
   xmlns:cc="http://creativecommons.org/ns#"
   xmlns:rdf="http://www.w3.org/1999/02/22-rdf-syntax-ns#"
   xmlns:svg="http://www.w3.org/2000/svg"
   xmlns="http://www.w3.org/2000/svg"
   xmlns:sodipodi="http://sodipodi.sourceforge.net/DTD/sodipodi-0.dtd"
   xmlns:inkscape="http://www.inkscape.org/namespaces/inkscape"
   inkscape:version="1.0 (4035a4fb49, 2020-05-01)"
   sodipodi:docname="au.svg"
   id="svg933"
   version="1.1"
   viewBox="0 0 20 20"
   height="20"
   width="20">
  <metadata
     id="metadata939">
    <rdf:RDF>
      <cc:Work
         rdf:about="">
        <dc:format>image/svg+xml</dc:format>
        <dc:type
           rdf:resource="http://purl.org/dc/dcmitype/StillImage" />
        <dc:title></dc:title>
      </cc:Work>
    </rdf:RDF>
  </metadata>
  <defs
     id="defs937" />
  <sodipodi:namedview
     inkscape:current-layer="svg933"
     inkscape:window-maximized="1"
     inkscape:window-y="-9"
     inkscape:window-x="-9"
     inkscape:cy="256"
     inkscape:cx="256"
     inkscape:zoom="1.6210938"
     showgrid="false"
     id="namedview935"
     inkscape:window-height="1001"
     inkscape:window-width="1920"
     inkscape:pageshadow="2"
     inkscape:pageopacity="0"
     guidetolerance="10"
     gridtolerance="10"
     objecttolerance="10"
     borderopacity="1"
     bordercolor="#666666"
     pagecolor="#ffffff" />
  <mask
     id="a">
    <circle
       id="circle922"
       fill="#ffffff"
       r="256"
       cy="256"
       cx="256" />
  </mask>
  <g
     transform="scale(0.0390625)"
     id="g931"
     mask="url(#a)">
    <path
       id="path925"
       d="M 0,0 H 512 V 512 H 0 Z"
       fill="#0052b4" />
    <path
       id="path927"
       d="m 154,300 14,30 32,-8 -14,30 25,20 -32,7 1,33 -26,-21 -26,21 1,-33 -33,-7 26,-20 -14,-30 32,8 z m 222,-27 h 47 l -38,27 15,-44 14,44 z m 7,-162 7,15 16,-4 -7,15 12,10 -15,3 v 17 l -13,-11 -13,11 v -17 l -15,-3 12,-10 -7,-15 16,4 z m 57,67 7,15 16,-4 -7,15 12,10 -15,3 v 16 l -13,-10 -13,11 v -17 l -15,-3 12,-10 -7,-15 16,4 z m -122,22 7,15 16,-4 -7,15 12,10 -15,3 v 16 l -13,-10 -13,11 v -17 l -15,-3 12,-10 -7,-15 16,4 z m 65,156 7,15 16,-4 -7,15 12,10 -15,3 v 17 l -13,-11 -13,11 v -17 l -15,-3 12,-10 -7,-15 16,4 z M 0,0 V 32 L 32,64 0,96 v 160 h 32 l 32,-32 32,32 h 32 v -83 l 83,83 h 45 l -8,-16 8,-15 v -14 l -83,-83 h 83 V 96 L 224,64 256,32 V 0 H 96 L 64,32 32,0 Z"
       fill="#eeeeee" />
    <path
       id="path929"
       d="M 32,0 V 32 H 0 V 96 H 32 V 256 H 96 V 96 H 256 V 32 H 96 V 0 Z m 96,128 128,128 v -31 l -97,-97 z"
       fill="#d80027" />
  </g>
</svg>
