<?xml version="1.0" encoding="UTF-8" standalone="no"?>
<svg
   xmlns:dc="http://purl.org/dc/elements/1.1/"
   xmlns:cc="http://creativecommons.org/ns#"
   xmlns:rdf="http://www.w3.org/1999/02/22-rdf-syntax-ns#"
   xmlns:svg="http://www.w3.org/2000/svg"
   xmlns="http://www.w3.org/2000/svg"
   xmlns:sodipodi="http://sodipodi.sourceforge.net/DTD/sodipodi-0.dtd"
   xmlns:inkscape="http://www.inkscape.org/namespaces/inkscape"
   height="20"
   width="20"
   viewBox="2 2 20 20"
   version="1.1"
   id="svg4"
   sodipodi:docname="bonus.svg"
   inkscape:version="1.0 (4035a4fb49, 2020-05-01)">
  <metadata
     id="metadata10">
    <rdf:RDF>
      <cc:Work
         rdf:about="">
        <dc:format>image/svg+xml</dc:format>
        <dc:type
           rdf:resource="http://purl.org/dc/dcmitype/StillImage" />
        <dc:title></dc:title>
      </cc:Work>
    </rdf:RDF>
  </metadata>
  <defs
     id="defs8" />
  <sodipodi:namedview
     inkscape:document-rotation="0"
     pagecolor="#ffffff"
     bordercolor="#666666"
     borderopacity="1"
     objecttolerance="10"
     gridtolerance="10"
     guidetolerance="10"
     inkscape:pageopacity="0"
     inkscape:pageshadow="2"
     inkscape:window-width="1920"
     inkscape:window-height="1001"
     id="namedview6"
     showgrid="false"
     inkscape:zoom="21.842106"
     inkscape:cx="5.0215115"
     inkscape:cy="11.339215"
     inkscape:window-x="-9"
     inkscape:window-y="-9"
     inkscape:window-maximized="1"
     inkscape:current-layer="svg4" />
  <path
     d="M 20,14.5 H 4 v -6 H 9.08 L 7,11.33 8.62,12.5 11,9.26 12,7.9 13,9.26 15.38,12.5 17,11.33 14.92,8.5 H 20 m 0,11 H 4 v -2 H 20 M 9,4.5 a 1,1 0 0 1 1,1 1,1 0 0 1 -1,1 1,1 0 0 1 -1,-1 1,1 0 0 1 1,-1 m 6,0 a 1,1 0 0 1 1,1 1,1 0 0 1 -1,1 1,1 0 0 1 -1,-1 1,1 0 0 1 1,-1 m 5,2 H 17.82 C 17.93,6.19 18,5.85 18,5.5 a 3,3 0 0 0 -3,-3 c -1.05,0 -1.96,0.54 -2.5,1.35 L 12,4.5 11.5,3.84 C 10.96,3.04 10.05,2.5 9,2.5 a 3,3 0 0 0 -3,3 c 0,0.35 0.07,0.69 0.18,1 H 4 c -1.11,0 -2,0.89 -2,2 v 11 c 0,1.11 0.89,2 2,2 h 16 c 1.11,0 2,-0.89 2,-2 v -11 c 0,-1.11 -0.89,-2 -2,-2 z"
     fill="#000000"
     id="path2"
     style="fill:#ffffff;fill-opacity:1" />
</svg>
