<?xml version="1.0" encoding="UTF-8" standalone="no"?>
<svg
   xmlns:dc="http://purl.org/dc/elements/1.1/"
   xmlns:cc="http://creativecommons.org/ns#"
   xmlns:rdf="http://www.w3.org/1999/02/22-rdf-syntax-ns#"
   xmlns:svg="http://www.w3.org/2000/svg"
   xmlns="http://www.w3.org/2000/svg"
   xmlns:sodipodi="http://sodipodi.sourceforge.net/DTD/sodipodi-0.dtd"
   xmlns:inkscape="http://www.inkscape.org/namespaces/inkscape"
   inkscape:version="1.0 (4035a4fb49, 2020-05-01)"
   height="20"
   width="20"
   sodipodi:docname="bonus-b.svg"
   id="svg4"
   version="1.1"
   viewBox="1 2 20 20">
  <metadata
     id="metadata10">
    <rdf:RDF>
      <cc:Work
         rdf:about="">
        <dc:format>image/svg+xml</dc:format>
        <dc:type
           rdf:resource="http://purl.org/dc/dcmitype/StillImage" />
        <dc:title></dc:title>
      </cc:Work>
    </rdf:RDF>
  </metadata>
  <defs
     id="defs8" />
  <sodipodi:namedview
     inkscape:current-layer="svg4"
     inkscape:window-maximized="1"
     inkscape:window-y="-9"
     inkscape:window-x="-9"
     inkscape:cy="10.069511"
     inkscape:cx="10.633759"
     inkscape:zoom="20.75"
     showgrid="false"
     id="namedview6"
     inkscape:window-height="1001"
     inkscape:window-width="1920"
     inkscape:pageshadow="2"
     inkscape:pageopacity="0"
     guidetolerance="10"
     gridtolerance="10"
     objecttolerance="10"
     borderopacity="1"
     bordercolor="#666666"
     pagecolor="#ffffff" />
  <path
     style="stroke-width:0.909091;fill:#ffffff;fill-opacity:1"
     id="path2"
     fill="#000000"
     d="m 20.090909,12 v 7.272727 a 1.8181818,1.8181818 0 0 1 -1.818182,1.818182 H 3.7272727 A 1.8181818,1.8181818 0 0 1 1.9090909,19.272727 V 12 A 0.90909091,0.90909091 0 0 1 1,11.090909 V 8.3636365 A 1.8181818,1.8181818 0 0 1 2.8181818,6.5454546 H 5.7 C 5.6,6.2636365 5.5454545,5.9545455 5.5454545,5.6363637 A 2.7272727,2.7272727 0 0 1 8.2727273,2.909091 c 0.9090909,0 1.7090909,0.4545455 2.2090907,1.1272727 v -0.00909 l 0.518182,0.7 0.518182,-0.7 v 0.00909 c 0.5,-0.6727272 1.3,-1.1272727 2.209091,-1.1272727 a 2.7272727,2.7272727 0 0 1 2.727272,2.7272727 C 16.454545,5.9545455 16.4,6.2636365 16.3,6.5454546 h 2.881818 A 1.8181818,1.8181818 0 0 1 21,8.3636365 V 11.090909 A 0.90909091,0.90909091 0 0 1 20.090909,12 M 3.7272727,19.272727 H 10.090909 V 12 H 3.7272727 v 7.272727 m 14.5454543,0 V 12 h -6.363636 v 7.272727 h 6.363636 M 8.2727273,4.7272728 A 0.90909091,0.90909091 0 0 0 7.3636364,5.6363637 0.90909091,0.90909091 0 0 0 8.2727273,6.5454546 0.90909091,0.90909091 0 0 0 9.1818182,5.6363637 0.90909091,0.90909091 0 0 0 8.2727273,4.7272728 m 5.4545457,0 A 0.90909091,0.90909091 0 0 0 12.818182,5.6363637 0.90909091,0.90909091 0 0 0 13.727273,6.5454546 0.90909091,0.90909091 0 0 0 14.636364,5.6363637 0.90909091,0.90909091 0 0 0 13.727273,4.7272728 M 2.8181818,8.3636365 V 10.181818 H 10.090909 V 8.3636365 H 2.8181818 m 9.0909092,0 v 1.8181815 h 7.272727 V 8.3636365 Z" />
</svg>
