<?xml version="1.0" encoding="UTF-8" standalone="no"?>
<svg
   xmlns:dc="http://purl.org/dc/elements/1.1/"
   xmlns:cc="http://creativecommons.org/ns#"
   xmlns:rdf="http://www.w3.org/1999/02/22-rdf-syntax-ns#"
   xmlns:svg="http://www.w3.org/2000/svg"
   xmlns="http://www.w3.org/2000/svg"
   xmlns:sodipodi="http://sodipodi.sourceforge.net/DTD/sodipodi-0.dtd"
   xmlns:inkscape="http://www.inkscape.org/namespaces/inkscape"
   inkscape:version="1.0 (4035a4fb49, 2020-05-01)"
   sodipodi:docname="br.svg"
   id="svg1578"
   version="1.1"
   viewBox="0 0 20 20"
   height="20"
   width="20">
  <metadata
     id="metadata1584">
    <rdf:RDF>
      <cc:Work
         rdf:about="">
        <dc:format>image/svg+xml</dc:format>
        <dc:type
           rdf:resource="http://purl.org/dc/dcmitype/StillImage" />
        <dc:title></dc:title>
      </cc:Work>
    </rdf:RDF>
  </metadata>
  <defs
     id="defs1582" />
  <sodipodi:namedview
     inkscape:current-layer="svg1578"
     inkscape:window-maximized="1"
     inkscape:window-y="-9"
     inkscape:window-x="-9"
     inkscape:cy="256"
     inkscape:cx="256"
     inkscape:zoom="1.6210938"
     showgrid="false"
     id="namedview1580"
     inkscape:window-height="1001"
     inkscape:window-width="1920"
     inkscape:pageshadow="2"
     inkscape:pageopacity="0"
     guidetolerance="10"
     gridtolerance="10"
     objecttolerance="10"
     borderopacity="1"
     bordercolor="#666666"
     pagecolor="#ffffff" />
  <mask
     id="a">
    <circle
       id="circle1565"
       fill="#ffffff"
       r="256"
       cy="256"
       cx="256" />
  </mask>
  <g
     transform="scale(0.0390625)"
     id="g1576"
     mask="url(#a)">
    <path
       id="path1568"
       d="M 0,0 H 512 V 512 H 0 Z"
       fill="#6da544" />
    <path
       id="path1570"
       d="M 256,100.2 467.5,256 256,411.8 44.5,256 Z"
       fill="#ffda44" />
    <path
       id="path1572"
       d="m 174.2,221 a 87,87 0 0 0 -7.2,36.3 l 162,49.8 a 88.5,88.5 0 0 0 14.4,-34 c -40.6,-65.3 -119.7,-80.3 -169.1,-52 z"
       fill="#eeeeee" />
    <path
       id="path1574"
       d="m 255.7,167 a 89,89 0 0 0 -41.9,10.6 89,89 0 0 0 -39.6,43.4 181.7,181.7 0 0 1 169.1,52.2 89,89 0 0 0 -9,-59.4 A 89,89 0 0 0 255.7,167 Z M 212,250.5 a 149,149 0 0 0 -45,6.8 89,89 0 0 0 10.5,40.9 89,89 0 0 0 120.6,36.2 89,89 0 0 0 30.7,-27.3 A 151,151 0 0 0 212,250.5 Z"
       fill="#0052b4" />
  </g>
</svg>
