<?xml version="1.0" encoding="UTF-8"?>
<svg xmlns="http://www.w3.org/2000/svg" xmlns:xlink="http://www.w3.org/1999/xlink" width="20px" height="20px" viewBox="0 0 20 20" version="1.1">
<defs>
<filter id="alpha" filterUnits="objectBoundingBox" x="0%" y="0%" width="100%" height="100%">
  <feColorMatrix type="matrix" in="SourceGraphic" values="0 0 0 0 1 0 0 0 0 1 0 0 0 0 1 0 0 0 1 0"/>
</filter>
<mask id="mask0">
  <g filter="url(#alpha)">
<rect x="0" y="0" width="20" height="20" style="fill:rgb(0%,0%,0%);fill-opacity:0.94902;stroke:none;"/>
  </g>
</mask>
<clipPath id="clip1">
  <rect x="0" y="0" width="20" height="20"/>
</clipPath>
<g id="surface5" clip-path="url(#clip1)">
<path style=" stroke:none;fill-rule:evenodd;fill:rgb(2.352941%,21.176471%,59.607843%);fill-opacity:1;" d="M 8.601562 -0.0390625 C 8.679688 -0.0390625 8.761719 -0.0390625 8.839844 -0.0390625 C 8.839844 0.386719 8.839844 0.8125 8.839844 1.238281 C 7.457031 1.40625 6.203125 1.886719 5.078125 2.679688 C 4.8125 2.8125 4.574219 2.988281 4.359375 3.199219 C 4.285156 3.238281 4.203125 3.253906 4.121094 3.238281 C 4.066406 2.984375 3.972656 2.742188 3.839844 2.519531 C 3.640625 3.074219 3.46875 3.632812 3.320312 4.199219 C 2.785156 4.199219 2.253906 4.199219 1.71875 4.199219 C 3.433594 1.851562 5.726562 0.4375 8.601562 -0.0390625 Z M 8.601562 -0.0390625 "/>
</g>
<mask id="mask1">
  <g filter="url(#alpha)">
<rect x="0" y="0" width="20" height="20" style="fill:rgb(0%,0%,0%);fill-opacity:0.960784;stroke:none;"/>
  </g>
</mask>
<clipPath id="clip2">
  <rect x="0" y="0" width="20" height="20"/>
</clipPath>
<g id="surface8" clip-path="url(#clip2)">
<path style=" stroke:none;fill-rule:evenodd;fill:rgb(90.588235%,90.196078%,90.588235%);fill-opacity:1;" d="M 8.839844 -0.0390625 C 9.667969 -0.0390625 10.492188 -0.0390625 11.320312 -0.0390625 C 15.144531 0.648438 17.824219 2.78125 19.359375 6.359375 C 19.613281 7.101562 19.8125 7.851562 19.960938 8.601562 C 19.960938 9.054688 19.960938 9.507812 19.960938 9.960938 C 19.558594 9.960938 19.160156 9.960938 18.761719 9.960938 C 18.386719 5.039062 15.773438 2.121094 10.921875 1.199219 C 10.253906 1.164062 9.585938 1.175781 8.921875 1.238281 C 8.921875 4.148438 8.921875 7.054688 8.921875 9.960938 C 8.894531 9.960938 8.867188 9.960938 8.839844 9.960938 C 8.839844 8.28125 8.839844 6.601562 8.839844 4.921875 C 8.839844 3.691406 8.839844 2.464844 8.839844 1.238281 C 8.839844 0.8125 8.839844 0.386719 8.839844 -0.0390625 Z M 8.839844 -0.0390625 "/>
</g>
<mask id="mask2">
  <g filter="url(#alpha)">
<rect x="0" y="0" width="20" height="20" style="fill:rgb(0%,0%,0%);fill-opacity:0.960784;stroke:none;"/>
  </g>
</mask>
<clipPath id="clip3">
  <rect x="0" y="0" width="20" height="20"/>
</clipPath>
<g id="surface11" clip-path="url(#clip3)">
<path style=" stroke:none;fill-rule:evenodd;fill:rgb(1.568627%,21.176471%,59.215686%);fill-opacity:1;" d="M 1.640625 4.359375 C 1.980469 4.539062 2.300781 4.753906 2.601562 5 C 1.984375 6.070312 1.542969 7.21875 1.28125 8.441406 C 1.199219 8.945312 1.160156 9.449219 1.160156 9.960938 C 0.761719 9.960938 0.359375 9.960938 -0.0390625 9.960938 C -0.0390625 9.507812 -0.0390625 9.054688 -0.0390625 8.601562 C 0.191406 7.054688 0.75 5.640625 1.640625 4.359375 Z M 1.640625 4.359375 "/>
</g>
<mask id="mask3">
  <g filter="url(#alpha)">
<rect x="0" y="0" width="20" height="20" style="fill:rgb(0%,0%,0%);fill-opacity:0.960784;stroke:none;"/>
  </g>
</mask>
<clipPath id="clip4">
  <rect x="0" y="0" width="20" height="20"/>
</clipPath>
<g id="surface14" clip-path="url(#clip4)">
<path style=" stroke:none;fill-rule:evenodd;fill:rgb(76.470588%,16.470588%,11.764706%);fill-opacity:1;" d="M 18.761719 9.960938 C 19.160156 9.960938 19.558594 9.960938 19.960938 9.960938 C 19.960938 10.414062 19.960938 10.867188 19.960938 11.320312 C 19.269531 15.144531 17.136719 17.824219 13.558594 19.359375 C 12.816406 19.613281 12.070312 19.8125 11.320312 19.960938 C 10.414062 19.960938 9.507812 19.960938 8.601562 19.960938 C 4.777344 19.269531 2.097656 17.136719 0.558594 13.558594 C 0.308594 12.816406 0.109375 12.070312 -0.0390625 11.320312 C -0.0390625 10.894531 -0.0390625 10.464844 -0.0390625 10.039062 C 0.359375 10.039062 0.761719 10.039062 1.160156 10.039062 C 1.359375 13.710938 3.09375 16.363281 6.359375 18 C 9.199219 19.164062 11.945312 18.976562 14.601562 17.441406 C 14.929688 17.25 15.222656 17.023438 15.480469 16.761719 C 16.234375 16.21875 16.847656 15.554688 17.320312 14.761719 C 17.894531 13.878906 18.292969 12.917969 18.519531 11.878906 C 18.640625 11.246094 18.71875 10.605469 18.761719 9.960938 Z M 18.761719 9.960938 "/>
</g>
</defs>
<g id="surface1">
<use xlink:href="#surface5" mask="url(#mask0)"/>
<use xlink:href="#surface8" mask="url(#mask1)"/>
<path style=" stroke:none;fill-rule:evenodd;fill:rgb(99.607843%,99.607843%,99.607843%);fill-opacity:1;" d="M 18.761719 9.960938 C 15.480469 9.960938 12.199219 9.960938 8.921875 9.960938 C 8.921875 7.054688 8.921875 4.148438 8.921875 1.238281 C 9.585938 1.175781 10.253906 1.164062 10.921875 1.199219 C 15.773438 2.121094 18.386719 5.039062 18.761719 9.960938 Z M 18.761719 9.960938 "/>
<path style=" stroke:none;fill-rule:evenodd;fill:rgb(16.078431%,34.901961%,70.588235%);fill-opacity:1;" d="M 8.839844 1.238281 C 8.839844 2.464844 8.839844 3.691406 8.839844 4.921875 C 8.761719 5.25 8.734375 5.597656 8.761719 5.960938 C 7.605469 4.925781 6.488281 3.847656 5.398438 2.71875 C 5.269531 2.714844 5.164062 2.703125 5.078125 2.679688 C 6.203125 1.886719 7.457031 1.40625 8.839844 1.238281 Z M 8.839844 1.238281 "/>
<path style=" stroke:none;fill-rule:evenodd;fill:rgb(13.72549%,32.54902%,69.803922%);fill-opacity:1;" d="M 5.078125 2.679688 C 5.164062 2.703125 5.269531 2.714844 5.398438 2.71875 C 6.488281 3.847656 7.605469 4.925781 8.761719 5.960938 C 8.785156 6.976562 8.761719 7.988281 8.679688 9 C 7.398438 7.746094 6.117188 6.492188 4.839844 5.238281 C 5.257812 4.871094 5.710938 4.535156 6.199219 4.238281 C 5.613281 4.226562 5.023438 4.1875 4.441406 4.121094 C 4.332031 3.824219 4.226562 3.53125 4.121094 3.238281 C 4.203125 3.253906 4.285156 3.238281 4.359375 3.199219 C 4.574219 2.988281 4.8125 2.8125 5.078125 2.679688 Z M 5.078125 2.679688 "/>
<path style=" stroke:none;fill-rule:evenodd;fill:rgb(96.078431%,96.470588%,97.647059%);fill-opacity:1;" d="M 4.121094 3.238281 C 4.226562 3.53125 4.332031 3.824219 4.441406 4.121094 C 5.023438 4.1875 5.613281 4.226562 6.199219 4.238281 C 5.710938 4.535156 5.257812 4.871094 4.839844 5.238281 C 4.949219 5.785156 5.109375 6.320312 5.320312 6.839844 C 5.292969 6.867188 5.265625 6.894531 5.238281 6.921875 C 4.785156 6.582031 4.316406 6.261719 3.839844 5.960938 C 3.394531 6.269531 2.953125 6.589844 2.519531 6.921875 C 2.492188 6.878906 2.464844 6.839844 2.441406 6.800781 C 2.609375 6.308594 2.769531 5.816406 2.921875 5.320312 C 2.839844 5.183594 2.730469 5.078125 2.601562 5 C 2.300781 4.753906 1.980469 4.539062 1.640625 4.359375 C 1.667969 4.308594 1.691406 4.253906 1.71875 4.199219 C 2.253906 4.199219 2.785156 4.199219 3.320312 4.199219 C 3.46875 3.632812 3.640625 3.074219 3.839844 2.519531 C 3.972656 2.742188 4.066406 2.984375 4.121094 3.238281 Z M 4.121094 3.238281 "/>
<use xlink:href="#surface11" mask="url(#mask2)"/>
<path style=" stroke:none;fill-rule:evenodd;fill:rgb(10.980392%,30.588235%,68.627451%);fill-opacity:1;" d="M 8.839844 4.921875 C 8.839844 6.601562 8.839844 8.28125 8.839844 9.960938 C 6.28125 9.960938 3.71875 9.960938 1.160156 9.960938 C 1.160156 9.449219 1.199219 8.945312 1.28125 8.441406 C 1.542969 7.21875 1.984375 6.070312 2.601562 5 C 2.730469 5.078125 2.839844 5.183594 2.921875 5.320312 C 2.769531 5.816406 2.609375 6.308594 2.441406 6.800781 C 2.464844 6.839844 2.492188 6.878906 2.519531 6.921875 C 2.953125 6.589844 3.394531 6.269531 3.839844 5.960938 C 4.316406 6.261719 4.785156 6.582031 5.238281 6.921875 C 5.265625 6.894531 5.292969 6.867188 5.320312 6.839844 C 5.109375 6.320312 4.949219 5.785156 4.839844 5.238281 C 6.117188 6.492188 7.398438 7.746094 8.679688 9 C 8.761719 7.988281 8.785156 6.976562 8.761719 5.960938 C 8.734375 5.597656 8.761719 5.25 8.839844 4.921875 Z M 8.839844 4.921875 "/>
<use xlink:href="#surface14" mask="url(#mask3)"/>
<path style=" stroke:none;fill-rule:evenodd;fill:rgb(85.098039%,25.490196%,20.784314%);fill-opacity:1;" d="M 1.160156 10.039062 C 4.574219 10.039062 7.988281 10.039062 11.398438 10.039062 C 10.667969 10.105469 9.921875 10.144531 9.160156 10.160156 C 11.292969 12.292969 13.425781 14.425781 15.558594 16.558594 C 15.441406 16.628906 15.414062 16.695312 15.480469 16.761719 C 15.222656 17.023438 14.929688 17.25 14.601562 17.441406 C 11.945312 18.976562 9.199219 19.164062 6.359375 18 C 3.09375 16.363281 1.359375 13.710938 1.160156 10.039062 Z M 1.160156 10.039062 "/>
<path style=" stroke:none;fill-rule:evenodd;fill:rgb(85.882353%,30.196078%,25.882353%);fill-opacity:1;" d="M 14.28125 10.039062 C 15.375 10.027344 16.46875 10.039062 17.558594 10.078125 C 17.320312 10.105469 17.078125 10.132812 16.839844 10.160156 C 17.417969 10.726562 17.976562 11.296875 18.519531 11.878906 C 18.292969 12.917969 17.894531 13.878906 17.320312 14.761719 C 15.875 13.195312 14.382812 11.664062 12.839844 10.160156 C 13.335938 10.144531 13.816406 10.105469 14.28125 10.039062 Z M 14.28125 10.039062 "/>
<path style=" stroke:none;fill-rule:evenodd;fill:rgb(85.490196%,27.45098%,22.745098%);fill-opacity:1;" d="M 11.398438 10.039062 C 12.359375 10.039062 13.320312 10.039062 14.28125 10.039062 C 13.816406 10.105469 13.335938 10.144531 12.839844 10.160156 C 14.382812 11.664062 15.875 13.195312 17.320312 14.761719 C 16.847656 15.554688 16.234375 16.21875 15.480469 16.761719 C 15.414062 16.695312 15.441406 16.628906 15.558594 16.558594 C 13.425781 14.425781 11.292969 12.292969 9.160156 10.160156 C 9.921875 10.144531 10.667969 10.105469 11.398438 10.039062 Z M 11.398438 10.039062 "/>
<path style=" stroke:none;fill-rule:evenodd;fill:rgb(85.882353%,33.333333%,29.803922%);fill-opacity:1;" d="M -0.0390625 10.039062 C -0.0390625 10.011719 -0.0390625 9.988281 -0.0390625 9.960938 C 0.359375 9.960938 0.761719 9.960938 1.160156 9.960938 C 3.71875 9.960938 6.28125 9.960938 8.839844 9.960938 C 8.867188 9.960938 8.894531 9.960938 8.921875 9.960938 C 12.199219 9.960938 15.480469 9.960938 18.761719 9.960938 C 18.71875 10.605469 18.640625 11.246094 18.519531 11.878906 C 17.976562 11.296875 17.417969 10.726562 16.839844 10.160156 C 17.078125 10.132812 17.320312 10.105469 17.558594 10.078125 C 16.46875 10.039062 15.375 10.027344 14.28125 10.039062 C 13.320312 10.039062 12.359375 10.039062 11.398438 10.039062 C 7.988281 10.039062 4.574219 10.039062 1.160156 10.039062 C 0.761719 10.039062 0.359375 10.039062 -0.0390625 10.039062 Z M -0.0390625 10.039062 "/>
</g>
</svg>
