<?xml version="1.0" encoding="UTF-8" standalone="no"?>
<svg
   xmlns:dc="http://purl.org/dc/elements/1.1/"
   xmlns:cc="http://creativecommons.org/ns#"
   xmlns:rdf="http://www.w3.org/1999/02/22-rdf-syntax-ns#"
   xmlns:svg="http://www.w3.org/2000/svg"
   xmlns="http://www.w3.org/2000/svg"
   xmlns:sodipodi="http://sodipodi.sourceforge.net/DTD/sodipodi-0.dtd"
   xmlns:inkscape="http://www.inkscape.org/namespaces/inkscape"
   inkscape:version="1.0 (4035a4fb49, 2020-05-01)"
   sodipodi:docname="hr.svg"
   id="svg6946"
   version="1.1"
   viewBox="0 0 20 20"
   height="20"
   width="20">
  <metadata
     id="metadata6952">
    <rdf:RDF>
      <cc:Work
         rdf:about="">
        <dc:format>image/svg+xml</dc:format>
        <dc:type
           rdf:resource="http://purl.org/dc/dcmitype/StillImage" />
        <dc:title></dc:title>
      </cc:Work>
    </rdf:RDF>
  </metadata>
  <defs
     id="defs6950" />
  <sodipodi:namedview
     inkscape:current-layer="svg6946"
     inkscape:window-maximized="1"
     inkscape:window-y="-9"
     inkscape:window-x="-9"
     inkscape:cy="256"
     inkscape:cx="256"
     inkscape:zoom="1.6210938"
     showgrid="false"
     id="namedview6948"
     inkscape:window-height="1001"
     inkscape:window-width="1920"
     inkscape:pageshadow="2"
     inkscape:pageopacity="0"
     guidetolerance="10"
     gridtolerance="10"
     objecttolerance="10"
     borderopacity="1"
     bordercolor="#666666"
     pagecolor="#ffffff" />
  <mask
     id="a">
    <circle
       id="circle6927"
       fill="#ffffff"
       r="256"
       cy="256"
       cx="256" />
  </mask>
  <g
     transform="scale(0.0390625)"
     id="g6944"
     mask="url(#a)">
    <path
       id="path6930"
       d="M 0,167 253.8,147.7 512,167 V 345 L 257.1,377.3 0,345 Z"
       fill="#eeeeee" />
    <path
       id="path6932"
       d="M 0,0 H 512 V 167 H 0 Z"
       fill="#d80027" />
    <path
       id="path6934"
       d="M 0,345 H 512 V 512 H 0 Z"
       fill="#0052b4" />
    <path
       id="path6936"
       d="m 322.8,178 h -44.5 l 7.4,-55.7 29.7,-22.2 29.6,22.2 V 167 Z m -133.6,0 h 44.5 L 226.3,122.3 196.6,100.1 167,122.3 V 167 Z"
       fill="#338af3" />
    <path
       id="path6938"
       d="m 285.7,178 h -59.4 v -55.7 l 29.7,-22.2 29.7,22.2 z"
       fill="#0052b4" />
    <path
       id="path6940"
       d="m 167,167 v 122.3 a 89,89 0 0 0 35.8,71.3 l 15.5,-3.9 19.7,19.8 a 89.1,89.1 0 0 0 18,1.8 89,89 0 0 0 17.9,-1.8 l 22.4,-18.7 13,2.8 A 89,89 0 0 0 345,289.3 V 167 Z"
       fill="#eeeeee" />
    <path
       id="path6942"
       d="m 167,167 h 35.6 v 35.5 H 167 Z m 71.2,0 h 35.6 v 35.5 h -35.6 z m 71.2,0 H 345 v 35.5 h -35.6 z m -106.8,35.5 h 35.6 v 35.6 h -35.6 z m 71.2,0 h 35.6 v 35.6 H 273.8 Z M 167,238.1 h 35.6 v 35.6 H 167 Z m 35.6,35.6 h 35.6 v 35.6 h -35.6 z m 35.6,-35.6 h 35.6 v 35.6 h -35.6 z m 71.2,0 H 345 v 35.6 h -35.6 z m -35.6,35.6 h 35.6 v 35.6 h -35.6 z m -35.6,35.6 h 35.6 V 345 h -35.6 z m -35.6,0 h -33.3 c 3,13.3 9,25.4 17.3,35.6 h 16 z M 309.4,345 h 16 a 88.8,88.8 0 0 0 17.3,-35.6 h -33.3 z m -106.8,0 v 15.6 a 88.7,88.7 0 0 0 35.6,16 V 345 Z m 71.2,0 v 31.6 a 88.7,88.7 0 0 0 35.6,-16 V 345 Z"
       fill="#d80027" />
  </g>
</svg>
