<?xml version="1.0" encoding="UTF-8" standalone="no"?>
<svg
   xmlns:dc="http://purl.org/dc/elements/1.1/"
   xmlns:cc="http://creativecommons.org/ns#"
   xmlns:rdf="http://www.w3.org/1999/02/22-rdf-syntax-ns#"
   xmlns:svg="http://www.w3.org/2000/svg"
   xmlns="http://www.w3.org/2000/svg"
   xmlns:sodipodi="http://sodipodi.sourceforge.net/DTD/sodipodi-0.dtd"
   xmlns:inkscape="http://www.inkscape.org/namespaces/inkscape"
   inkscape:version="1.0 (4035a4fb49, 2020-05-01)"
   sodipodi:docname="kz-b.svg"
   viewBox="0 0 20 20"
   height="20"
   width="20"
   xml:space="preserve"
   id="svg913"
   version="1.1"><metadata
     id="metadata919"><rdf:RDF><cc:Work
         rdf:about=""><dc:format>image/svg+xml</dc:format><dc:type
           rdf:resource="http://purl.org/dc/dcmitype/StillImage" /><dc:title></dc:title></cc:Work></rdf:RDF></metadata><defs
     id="defs917"><clipPath
       id="clipPath929"
       clipPathUnits="userSpaceOnUse"><path
         id="path927"
         d="M 150,300 C 67.157,300 0,232.843 0,150 v 0 C 0,67.157 67.157,0 150,0 v 0 c 82.843,0 150,67.157 150,150 v 0 c 0,82.843 -67.157,150 -150,150 z" /></clipPath></defs><sodipodi:namedview
     inkscape:current-layer="g921"
     inkscape:window-maximized="1"
     inkscape:window-y="-9"
     inkscape:window-x="-9"
     inkscape:cy="90.297397"
     inkscape:cx="94.50778"
     inkscape:zoom="4.15"
     showgrid="false"
     id="namedview915"
     inkscape:window-height="1001"
     inkscape:window-width="1920"
     inkscape:pageshadow="2"
     inkscape:pageopacity="0"
     guidetolerance="10"
     gridtolerance="10"
     objecttolerance="10"
     borderopacity="1"
     bordercolor="#666666"
     pagecolor="#ffffff" /><g
     transform="matrix(1.3333333,0,0,-1.3333333,0,400)"
     inkscape:label="kazakhstan-flag-round"
     inkscape:groupmode="layer"
     id="g921"><g
       transform="matrix(0.05,0,0,0.05,1.875e-7,285.00001)"
       id="g923"><g
         clip-path="url(#clipPath929)"
         id="g925"><path
           id="path931"
           style="fill:#00afca;fill-opacity:1;fill-rule:nonzero;stroke:none"
           d="M -100,300 H 500 V 0 h -600 z" /><g
           transform="translate(47.3936,212.3594)"
           id="g933"><path
             id="path935"
             style="fill:#fec50c;fill-opacity:1;fill-rule:nonzero;stroke:none"
             d="m 0,0 c 0,-6.081 5.459,-9.207 9.749,-9.207 5.779,0 8.857,3.456 8.857,7.98 0,2.564 -0.47,4.173 -1.652,6.627 0,0 -9.534,19.827 -13.246,27.496 -0.463,0.956 -0.612,2.045 -0.612,3.642 0,2.465 2.39,4.48 4.898,4.542 2.285,0.057 4.776,-2.131 4.776,-4.624 0,-3.028 -1.572,-4.378 -3.184,-4.378 -1.986,0 -2.777,0.816 -2.777,2.21 0,0.97 0.47,1.391 1.144,1.391 1.702,0 1.225,-2.292 1.225,-2.292 0.844,0.185 1.54,1.049 1.142,2.128 0.618,0.138 1.199,0.462 1.654,0.982 -0.457,0.442 -0.981,0.784 -1.654,0.9 0.399,1.316 -0.133,1.959 -1.286,2.23 0.233,-0.506 0.241,-0.972 0.164,-1.412 -1.813,0.516 -4.593,-0.304 -4.593,-3.437 0,-3.109 2.159,-5.728 6.206,-5.073 -0.963,-0.46 -1.453,-1.402 -1.551,-2.455 0.734,0.286 1.551,0.327 1.551,0.327 -0.474,-0.834 -1.131,-1.553 -1.103,-3.191 0.75,0.341 1.447,0.972 2.408,0.572 -1.509,-2.968 0.345,-7.053 5.062,-8.019 -1.727,2.023 -2.572,4.208 -2.572,6.383 0,7.049 1.959,8.234 1.959,13.134 0,2.051 -1.053,4.265 -3.142,5.77 v -0.083 c 1.381,0.37 2.265,1.05 2.773,1.974 -3.154,0.894 -7.74,0.878 -10.202,-0.091 -2.83,-0.327 -4.806,-2.499 -5.388,-3.601 -0.582,-1.101 -1.712,-5.086 0,-8.674 C 2.48,27.825 11.319,9.084 14.075,3.192 c 0.585,-1.25 0.94,-2.575 0.94,-4.01 0,-3.609 -3.307,-4.869 -5.185,-4.869 -2.244,0 -4.53,1.71 -4.53,3.846 0,1.354 0.734,2.169 1.796,2.169 2.538,0 2.383,-2.159 1.878,-3.519 1.579,0.71 2.497,1.978 2.245,3.315 0.893,0.122 1.745,0.546 2.53,1.431 -0.618,0.78 -1.372,1.37 -2.53,1.392 C 11.725,5.02 10.336,5.897 8.974,6.383 9.404,4.862 9.688,3.11 7.096,3.11 5.206,3.11 3.719,2.783 2.85,1.555 2.8,3.192 2.646,9.657 2.646,9.657 c -0.108,2.429 3.252,2.36 5.388,1.636 -0.805,2.799 -2.459,4.312 -6.285,3.928 0.929,0.389 1.918,1.263 1.918,2.946 0,2.278 -1.849,4.802 -3.062,5.548 L -0.001,-0.001 Z" /></g><g
           transform="translate(233.0859,218.9673)"
           id="g937"><path
             id="path939"
             style="fill:#fec50c;fill-opacity:1;fill-rule:nonzero;stroke:none"
             d="m 0,0 c 2.358,-0.438 3.533,0.856 3.884,2.621 0.468,2.353 -0.538,14.201 -0.538,14.201 0,0 -5.464,-10.561 -5.932,-12.914 C -2.938,2.144 -2.354,0.468 0,0" /></g><g
           transform="translate(241.6865,216.3579)"
           id="g941"><path
             id="path943"
             style="fill:#fec50c;fill-opacity:1;fill-rule:nonzero;stroke:none"
             d="m 0,0 c 2.228,-0.89 3.633,0.151 4.321,1.813 0.918,2.216 2.243,14.034 2.243,14.034 0,0 -7.419,-9.293 -8.337,-11.51 C -2.462,2.675 -2.217,0.918 0,0" /></g><g
           transform="translate(249.6133,212.1216)"
           id="g945"><path
             id="path947"
             style="fill:#fec50c;fill-opacity:1;fill-rule:nonzero;stroke:none"
             d="m 0,0 c 2.011,-1.308 3.592,-0.561 4.592,0.935 1.332,1.994 4.936,13.326 4.936,13.326 0,0 -9.09,-7.667 -10.422,-9.661 C -1.894,3.104 -1.995,1.333 0,0" /></g><g
           transform="translate(256.5605,206.4194)"
           id="g949"><path
             id="path951"
             style="fill:#fec50c;fill-opacity:1;fill-rule:nonzero;stroke:none"
             d="m 0,0 c 1.718,-1.675 3.414,-1.251 4.686,0.021 1.696,1.697 7.442,12.107 7.442,12.107 0,0 -10.41,-5.746 -12.106,-7.442 C -1.251,3.414 -1.696,1.696 0,0" /></g><g
           transform="translate(262.2627,199.4717)"
           id="g953"><path
             id="path955"
             style="fill:#fec50c;fill-opacity:1;fill-rule:nonzero;stroke:none"
             d="m 0,0 c 1.357,-1.978 3.103,-1.893 4.6,-0.893 1.994,1.332 9.661,10.422 9.661,10.422 0,0 -11.332,-3.604 -13.326,-4.937 C -0.561,3.592 -1.333,1.995 0,0" /></g><g
           transform="translate(266.499,191.5454)"
           id="g957"><path
             id="path959"
             style="fill:#fec50c;fill-opacity:1;fill-rule:nonzero;stroke:none"
             d="m 0,0 c 0.946,-2.205 2.675,-2.462 4.338,-1.773 2.216,0.918 11.509,8.336 11.509,8.336 0,0 -11.818,-1.324 -14.035,-2.242 C 0.15,3.632 -0.918,2.216 0,0" /></g><g
           transform="translate(269.1084,182.9443)"
           id="g961"><path
             id="path963"
             style="fill:#fec50c;fill-opacity:1;fill-rule:nonzero;stroke:none"
             d="m 0,0 c 0.497,-2.347 2.144,-2.937 3.908,-2.585 2.353,0.467 12.914,5.931 12.914,5.931 0,0 -11.848,1.007 -14.201,0.539 C 0.856,3.534 -0.468,2.353 0,0" /></g><g
           transform="translate(269.9893,174)"
           id="g965"><path
             id="path967"
             style="fill:#fec50c;fill-opacity:1;fill-rule:nonzero;stroke:none"
             d="M 0,0 C 0.03,-2.399 1.529,-3.298 3.328,-3.298 5.728,-3.298 17.151,0 17.151,0 17.151,0 5.728,3.298 3.328,3.298 1.529,3.298 0,2.399 0,0" /></g><g
           transform="translate(269.1084,165.0557)"
           id="g969"><path
             id="path971"
             style="fill:#fec50c;fill-opacity:1;fill-rule:nonzero;stroke:none"
             d="m 0,0 c -0.439,-2.359 0.856,-3.534 2.621,-3.885 2.353,-0.468 14.201,0.539 14.201,0.539 0,0 -10.561,5.464 -12.914,5.931 C 2.144,2.936 0.468,2.352 0,0" /></g><g
           transform="translate(266.499,156.4546)"
           id="g973"><path
             id="path975"
             style="fill:#fec50c;fill-opacity:1;fill-rule:nonzero;stroke:none"
             d="m 0,0 c -0.89,-2.227 0.15,-3.632 1.812,-4.321 2.217,-0.918 14.035,-2.243 14.035,-2.243 0,0 -9.293,7.419 -11.509,8.337 C 2.675,2.462 0.918,2.216 0,0" /></g><g
           transform="translate(262.2627,148.5283)"
           id="g977"><path
             id="path979"
             style="fill:#fec50c;fill-opacity:1;fill-rule:nonzero;stroke:none"
             d="m 0,0 c -1.309,-2.011 -0.561,-3.593 0.935,-4.592 1.994,-1.333 13.326,-4.937 13.326,-4.937 0,0 -7.667,9.09 -9.661,10.423 C 3.103,1.893 1.332,1.995 0,0" /></g><g
           transform="translate(256.5605,141.5801)"
           id="g981"><path
             id="path983"
             style="fill:#fec50c;fill-opacity:1;fill-rule:nonzero;stroke:none"
             d="m 0,0 c -1.675,-1.717 -1.251,-3.414 0.022,-4.686 1.696,-1.696 12.106,-7.442 12.106,-7.442 0,0 -5.746,10.411 -7.442,12.107 C 3.414,1.252 1.696,1.697 0,0" /></g><g
           transform="translate(249.6133,135.8789)"
           id="g985"><path
             id="path987"
             style="fill:#fec50c;fill-opacity:1;fill-rule:nonzero;stroke:none"
             d="m 0,0 c -1.979,-1.357 -1.894,-3.105 -0.894,-4.6 1.332,-1.995 10.422,-9.662 10.422,-9.662 0,0 -3.604,11.332 -4.936,13.326 C 3.592,0.561 1.994,1.332 0,0" /></g><g
           transform="translate(241.6865,131.6426)"
           id="g989"><path
             id="path991"
             style="fill:#fec50c;fill-opacity:1;fill-rule:nonzero;stroke:none"
             d="m 0,0 c -2.205,-0.946 -2.462,-2.676 -1.773,-4.338 0.918,-2.217 8.337,-11.51 8.337,-11.51 0,0 -1.325,11.819 -2.243,14.034 C 3.633,-0.151 2.216,0.918 0,0" /></g><g
           transform="translate(198.6689,135.8789)"
           id="g993"><path
             id="path995"
             style="fill:#fec50c;fill-opacity:1;fill-rule:nonzero;stroke:none"
             d="m 0,0 c -2.011,1.308 -3.592,0.561 -4.592,-0.936 -1.332,-1.994 -4.936,-13.326 -4.936,-13.326 0,0 9.089,7.667 10.422,9.662 1,1.495 1.101,3.267 -0.894,4.6" /></g><g
           transform="translate(191.7217,141.5801)"
           id="g997"><path
             id="path999"
             style="fill:#fec50c;fill-opacity:1;fill-rule:nonzero;stroke:none"
             d="m 0,0 c -1.718,1.676 -3.414,1.252 -4.686,-0.021 -1.696,-1.696 -7.442,-12.107 -7.442,-12.107 0,0 10.41,5.746 12.107,7.442 C 1.251,-3.414 1.696,-1.695 0,0" /></g><g
           transform="translate(186.0195,148.5283)"
           id="g1001"><path
             id="path1003"
             style="fill:#fec50c;fill-opacity:1;fill-rule:nonzero;stroke:none"
             d="m 0,0 c -1.357,1.978 -3.103,1.893 -4.6,0.894 -1.994,-1.333 -9.661,-10.423 -9.661,-10.423 0,0 11.331,3.604 13.327,4.937 C 0.562,-3.593 1.333,-1.995 0,0" /></g><g
           transform="translate(181.7832,156.4546)"
           id="g1005"><path
             id="path1007"
             style="fill:#fec50c;fill-opacity:1;fill-rule:nonzero;stroke:none"
             d="m 0,0 c -0.946,2.205 -2.675,2.462 -4.338,1.773 -2.216,-0.918 -11.509,-8.337 -11.509,-8.337 0,0 11.818,1.325 14.035,2.243 C -0.15,-3.632 0.918,-2.216 0,0" /></g><g
           transform="translate(179.1738,165.0557)"
           id="g1009"><path
             id="path1011"
             style="fill:#fec50c;fill-opacity:1;fill-rule:nonzero;stroke:none"
             d="m 0,0 c -0.497,2.347 -2.144,2.936 -3.908,2.585 -2.353,-0.467 -12.914,-5.931 -12.914,-5.931 0,0 11.848,-1.007 14.201,-0.539 C -0.856,-3.534 0.468,-2.353 0,0" /></g><g
           transform="translate(178.293,174)"
           id="g1013"><path
             id="path1015"
             style="fill:#fec50c;fill-opacity:1;fill-rule:nonzero;stroke:none"
             d="M 0,0 C -0.03,2.399 -1.529,3.298 -3.328,3.298 -5.728,3.298 -17.151,0 -17.151,0 c 0,0 11.423,-3.298 13.823,-3.298 C -1.529,-3.298 0,-2.399 0,0" /></g><g
           transform="translate(179.1738,182.9443)"
           id="g1017"><path
             id="path1019"
             style="fill:#fec50c;fill-opacity:1;fill-rule:nonzero;stroke:none"
             d="m 0,0 c 0.438,2.359 -0.856,3.534 -2.621,3.885 -2.353,0.468 -14.201,-0.539 -14.201,-0.539 0,0 10.561,-5.464 12.914,-5.931 C -2.144,-2.937 -0.468,-2.353 0,0" /></g><g
           transform="translate(181.7832,191.5454)"
           id="g1021"><path
             id="path1023"
             style="fill:#fec50c;fill-opacity:1;fill-rule:nonzero;stroke:none"
             d="m 0,0 c 0.89,2.227 -0.15,3.632 -1.812,4.321 -2.217,0.918 -14.035,2.242 -14.035,2.242 0,0 9.293,-7.418 11.509,-8.336 C -2.675,-2.462 -0.918,-2.216 0,0" /></g><g
           transform="translate(186.0195,199.4717)"
           id="g1025"><path
             id="path1027"
             style="fill:#fec50c;fill-opacity:1;fill-rule:nonzero;stroke:none"
             d="m 0,0 c 1.309,2.011 0.562,3.592 -0.934,4.592 -1.996,1.333 -13.327,4.937 -13.327,4.937 0,0 7.667,-9.09 9.661,-10.422 1.497,-1 3.268,-1.102 4.6,0.893" /></g><g
           transform="translate(191.7217,206.4194)"
           id="g1029"><path
             id="path1031"
             style="fill:#fec50c;fill-opacity:1;fill-rule:nonzero;stroke:none"
             d="m 0,0 c 1.675,1.718 1.251,3.414 -0.021,4.686 -1.697,1.696 -12.107,7.442 -12.107,7.442 0,0 5.746,-10.41 7.442,-12.107 C -3.414,-1.251 -1.696,-1.696 0,0" /></g><g
           transform="translate(224.0898,214.3135)"
           id="g1033"><path
             id="path1035"
             style="fill:#fec50c;fill-opacity:1;fill-rule:nonzero;stroke:none"
             d="m 0,0 c 22.293,0 40.365,-18.072 40.365,-40.365 0,-22.293 -18.072,-40.364 -40.365,-40.364 -22.293,0 -40.365,18.071 -40.365,40.364 C -40.365,-18.072 -22.293,0 0,0" /></g><g
           transform="translate(224.1406,219.8481)"
           id="g1037"><path
             id="path1039"
             style="fill:#fec50c;fill-opacity:1;fill-rule:nonzero;stroke:none"
             d="M 0,0 C 2.399,0.03 3.299,1.529 3.299,3.329 3.299,5.728 0,17.152 0,17.152 0,17.152 -3.298,5.728 -3.298,3.329 -3.298,1.529 -2.398,0 0,0" /></g><g
           transform="translate(233.0859,129.0332)"
           id="g1041"><path
             id="path1043"
             style="fill:#fec50c;fill-opacity:1;fill-rule:nonzero;stroke:none"
             d="m 0,0 c -2.348,-0.498 -2.938,-2.145 -2.586,-3.908 0.468,-2.354 5.932,-12.914 5.932,-12.914 0,0 1.006,11.847 0.538,14.201 C 3.533,-0.857 2.353,0.468 0,0" /></g><g
           transform="translate(224.1406,128.1523)"
           id="g1045"><path
             id="path1047"
             style="fill:#fec50c;fill-opacity:1;fill-rule:nonzero;stroke:none"
             d="m 0,0 c -2.398,-0.031 -3.298,-1.529 -3.298,-3.329 0,-2.4 3.298,-13.823 3.298,-13.823 0,0 3.299,11.423 3.299,13.823 C 3.299,-1.529 2.399,0 0,0" /></g><g
           transform="translate(215.1963,129.0332)"
           id="g1049"><path
             id="path1051"
             style="fill:#fec50c;fill-opacity:1;fill-rule:nonzero;stroke:none"
             d="m 0,0 c -2.358,0.437 -3.533,-0.857 -3.884,-2.621 -0.468,-2.354 0.538,-14.201 0.538,-14.201 0,0 5.464,10.56 5.932,12.914 C 2.937,-2.145 2.353,-0.469 0,0" /></g><g
           transform="translate(206.5957,131.6426)"
           id="g1053"><path
             id="path1055"
             style="fill:#fec50c;fill-opacity:1;fill-rule:nonzero;stroke:none"
             d="m 0,0 c -2.227,0.89 -3.633,-0.151 -4.321,-1.814 -0.918,-2.215 -2.242,-14.034 -2.242,-14.034 0,0 7.418,9.293 8.336,11.51 C 2.462,-2.676 2.216,-0.919 0,0" /></g><g
           transform="translate(198.6689,212.1216)"
           id="g1057"><path
             id="path1059"
             style="fill:#fec50c;fill-opacity:1;fill-rule:nonzero;stroke:none"
             d="m 0,0 c 1.979,1.357 1.894,3.104 0.894,4.6 -1.333,1.994 -10.422,9.661 -10.422,9.661 0,0 3.604,-11.332 4.936,-13.326 C -3.592,-0.561 -1.994,-1.333 0,0" /></g><g
           transform="translate(206.5957,216.3579)"
           id="g1061"><path
             id="path1063"
             style="fill:#fec50c;fill-opacity:1;fill-rule:nonzero;stroke:none"
             d="m 0,0 c 2.205,0.946 2.462,2.675 1.773,4.337 -0.918,2.217 -8.336,11.51 -8.336,11.51 0,0 1.324,-11.818 2.242,-14.034 C -3.633,0.151 -2.217,-0.918 0,0" /></g><g
           transform="translate(215.1963,218.9673)"
           id="g1065"><path
             id="path1067"
             style="fill:#fec50c;fill-opacity:1;fill-rule:nonzero;stroke:none"
             d="m 0,0 c 2.347,0.497 2.937,2.144 2.586,3.908 -0.468,2.353 -5.932,12.914 -5.932,12.914 0,0 -1.006,-11.848 -0.538,-14.201 C -3.533,0.856 -2.352,-0.468 0,0" /></g><g
           transform="translate(222.7393,103.5156)"
           id="g1069"><path
             id="path1071"
             style="fill:#fec50c;fill-opacity:1;fill-rule:nonzero;stroke:none"
             d="m 0,0 -0.696,-1.393 -0.774,-1.781 -0.465,-0.851 -0.386,-0.774 -0.31,-0.619 -0.387,-0.387 -0.928,0.774 -1.006,0.697 -1.084,0.541 -1.16,0.465 -1.239,0.31 -1.238,0.309 -1.238,0.232 -1.316,0.155 -2.709,0.232 -2.708,0.077 -2.631,0.156 -2.477,0.308 -1.393,0.233 -1.315,0.309 -0.696,0.233 -0.697,0.231 -0.619,0.311 -0.542,0.308 -0.851,0.543 -0.851,0.619 -0.929,0.696 -0.851,0.774 -1.78,1.702 -1.78,1.703 -1.78,1.625 -1.625,1.471 -0.774,0.541 -0.774,0.542 -0.696,0.31 -0.696,0.232 -1.317,0.309 -1.16,0.386 -1.161,0.388 -1.161,0.542 -1.006,0.464 -1.006,0.619 -0.929,0.619 -0.851,0.619 -0.928,0.697 -0.774,0.697 -0.774,0.773 -0.774,0.774 -1.47,1.625 -1.393,1.703 -2.787,3.637 -2.94,3.714 -1.702,1.781 -1.78,1.78 -1.006,0.928 -1.006,0.851 -1.084,0.774 -1.16,0.851 -0.233,-0.077 -0.232,-0.231 -0.233,-0.311 -0.154,-0.387 -0.232,-0.696 -0.077,-0.309 -0.542,0.232 -0.464,0.232 -0.542,0.232 -0.464,0.155 h -1.007 l -0.541,-0.155 -0.542,-0.232 0.542,-0.697 0.696,-0.929 0.697,-1.083 0.619,-1.161 0.619,-1.238 0.464,-1.161 0.155,-0.619 0.154,-0.464 0.078,-0.542 V 25.46 h -0.851 -3.327 l 0.619,-0.929 0.696,-0.928 0.774,-0.929 0.851,-0.852 0.852,-0.851 0.85,-0.851 0.852,-0.696 0.773,-0.542 -0.85,-0.077 -1.161,-0.078 -1.162,-0.155 -0.85,-0.077 0.696,-0.619 0.852,-0.619 0.927,-0.696 1.007,-0.698 1.006,-0.619 1.006,-0.541 0.929,-0.309 0.851,-0.233 0.387,-0.077 0.31,-0.078 0.232,-0.076 0.154,-0.156 0.077,-0.077 v -0.31 l -0.077,-0.155 -0.154,-0.464 -0.078,-0.463 -0.077,-0.311 v -0.232 l 0.077,-0.387 0.078,-0.309 0.154,-0.155 0.233,-0.155 0.309,-0.154 0.387,-0.079 0.387,-0.154 0.386,-0.154 0.388,-0.155 0.31,-0.232 0.077,-0.078 V 9.596 l -0.077,-0.078 -0.31,-0.233 -0.309,-0.231 -0.31,-0.31 -0.31,-0.387 V 8.048 l -0.077,-0.31 0.077,-0.386 0.078,-0.465 1.315,-0.465 1.394,-0.463 0.619,-0.156 0.618,-0.232 0.465,-0.231 0.386,-0.233 -2.553,-2.012 0.696,-0.619 0.852,-0.464 1.083,-0.542 1.084,-0.388 1.238,-0.387 1.16,-0.231 1.007,-0.232 h 0.929 l -0.852,-0.62 -1.084,-0.696 -1.16,-0.619 -0.852,-0.619 0.775,-0.541 1.083,-0.543 1.238,-0.619 1.471,-0.696 3.404,-1.47 3.715,-1.471 3.869,-1.393 3.792,-1.238 1.703,-0.542 1.548,-0.387 1.392,-0.387 1.239,-0.232 -2.477,0.232 -2.321,0.31 -2.322,0.387 -2.166,0.465 -2.167,0.619 -2.09,0.619 -2.012,0.695 -1.935,0.775 -3.791,1.548 -3.561,1.546 -1.702,0.698 -1.702,0.696 -1.626,0.619 -1.625,0.619 0.387,0.232 0.464,0.156 0.619,0.232 0.697,0.155 1.47,0.464 1.316,0.463 -2.321,0.387 -3.173,0.619 -1.548,0.465 -1.316,0.387 -0.542,0.232 -0.464,0.233 -0.387,0.232 -0.233,0.233 v 0.076 l 0.079,0.078 0.231,0.077 0.232,0.155 0.62,0.232 0.851,0.232 1.858,0.542 1.547,0.541 -3.792,0.697 -2.941,0.464 -1.083,0.232 -0.852,0.31 -0.309,0.155 -0.31,0.232 -0.231,0.154 -0.155,0.233 0.232,0.154 0.696,0.155 1.006,0.156 1.161,0.232 1.239,0.154 1.083,0.31 0.542,0.155 0.463,0.154 0.31,0.233 0.31,0.232 -0.62,0.232 -0.619,0.231 -0.773,0.156 -0.775,0.155 -1.779,0.232 -1.78,0.232 -0.929,0.232 -0.85,0.155 -0.852,0.309 -0.852,0.31 -0.773,0.387 -0.696,0.541 -0.619,0.542 -0.465,0.696 0.155,0.079 0.31,0.076 h 0.386 l 0.619,-0.076 1.393,-0.079 1.548,-0.077 1.702,-0.155 h 2.167 l 0.619,0.078 0.465,0.154 0.31,0.155 -1.858,0.774 -2.476,1.083 -1.393,0.697 -1.471,0.697 -1.47,0.774 -1.47,0.774 -1.394,0.851 -1.315,0.928 -1.238,0.93 -1.083,0.927 -0.465,0.542 -0.464,0.464 -0.31,0.465 -0.309,0.541 -0.31,0.465 -0.155,0.542 -0.077,0.464 -0.077,0.542 h 0.542 l 0.619,-0.077 0.619,-0.233 0.619,-0.232 1.238,-0.774 1.393,-0.773 0.619,-0.387 0.696,-0.388 0.697,-0.309 0.619,-0.233 0.696,-0.154 0.619,-0.078 h 0.697 l 0.62,0.232 -1.858,1.393 -2.09,1.781 -2.398,2.089 -2.4,2.321 -2.399,2.477 -2.244,2.477 -1.006,1.315 -1.006,1.238 -0.851,1.238 -0.774,1.162 -0.155,0.308 v 0.543 l 0.078,0.232 0.077,0.231 0.233,0.156 0.231,0.232 0.232,0.155 0.31,0.076 0.31,0.078 h 0.619 l 0.386,-0.078 0.31,-0.076 0.31,-0.232 0.232,-0.233 1.393,-1.392 1.625,-1.625 1.703,-1.781 1.857,-1.78 1.857,-1.625 1.857,-1.547 0.929,-0.619 0.851,-0.543 0.929,-0.464 0.852,-0.309 -0.62,0.386 -0.697,0.698 -0.929,0.927 -1.005,1.161 -2.245,2.709 -2.476,3.173 -1.238,1.702 -1.161,1.703 -1.084,1.703 -1.083,1.625 -0.928,1.548 -0.774,1.393 -0.542,1.315 -0.465,1.084 -0.077,0.386 v 0.619 l 0.077,0.232 0.156,0.233 0.154,0.232 0.155,0.155 0.233,0.155 0.541,0.154 0.465,0.155 h 1.083 l 0.309,-0.077 0.233,-0.078 0.309,-0.154 0.233,-0.233 0.619,-0.541 0.619,-0.774 1.392,-1.78 1.471,-2.244 1.702,-2.399 1.781,-2.477 0.928,-1.16 0.928,-1.161 1.007,-1.007 1.083,-0.928 -1.316,2.554 -1.47,2.94 -0.774,1.625 -0.696,1.626 -0.697,1.702 -0.619,1.703 -0.541,1.78 -0.542,1.702 -0.387,1.703 -0.31,1.702 -0.155,1.625 -0.077,1.548 0.077,0.774 0.078,0.696 0.077,0.697 0.155,0.696 0.155,0.233 0.077,0.232 0.232,0.232 0.155,0.155 0.542,0.232 0.542,0.155 h 0.541 l 0.465,-0.078 0.232,-0.077 0.154,-0.077 0.077,-0.155 0.079,-0.232 0.773,-2.477 0.696,-2.631 0.697,-2.708 0.697,-2.632 0.696,-2.631 0.929,-2.476 0.464,-1.161 0.542,-1.16 0.619,-1.084 0.696,-1.084 -0.464,2.244 -0.309,2.012 -0.31,1.858 -0.155,1.703 -0.154,1.47 -0.079,1.315 0.079,1.084 0.077,0.928 0.154,0.774 0.232,0.619 0.156,0.232 0.154,0.233 0.155,0.155 0.232,0.154 0.232,0.078 h 0.696 l 0.62,-0.232 0.619,-0.31 0.542,-2.477 0.542,-2.398 0.619,-2.245 0.696,-2.167 0.774,-2.166 0.851,-2.167 0.929,-2.244 1.083,-2.244 0.774,-1.471 0.774,-1.471 0.851,-1.47 0.852,-1.47 0.929,-1.394 0.927,-1.392 1.007,-1.393 1.006,-1.392 1.857,-2.323 1.935,-2.166 2.012,-2.168 2.089,-2.011 2.168,-2.012 2.244,-1.858 2.321,-1.779 2.399,-1.703 1.625,-1.084 1.702,-1.006 1.781,-1.006 1.702,-0.927 2.709,-1.317 2.631,-1.238 2.786,-1.084 2.785,-1.006 2.632,-0.85 2.708,-0.697 2.786,-0.619 2.709,-0.542 L -8.512,0.696 -5.726,0.387 -2.862,0.154 0.001,0" /></g><g
           transform="translate(229.7891,79.9883)"
           id="g1073"><path
             id="path1075"
             style="fill:#fec50c;fill-opacity:1;fill-rule:nonzero;stroke:none"
             d="M 0,0 1.316,-0.154 1.936,-0.387 2.09,-0.463 V -0.541 H 1.936 L 1.78,-0.618 0.542,-0.851 h -1.006 l -3.25,0.233 -3.947,0.077 -4.256,0.078 -4.411,-0.078 -2.09,-0.077 -2.09,-0.155 -1.856,-0.155 -1.781,-0.154 -1.47,-0.232 -1.316,-0.311 -0.464,-0.154 -0.464,-0.155 -0.387,-0.155 -0.31,-0.231 0.156,0.773 0.308,0.774 -0.541,-0.155 -0.542,-0.154 -0.464,-0.232 -0.465,-0.233 -0.386,-0.232 -0.31,-0.31 -0.232,-0.387 -0.077,-0.387 -0.233,0.543 -0.154,0.463 -0.078,0.543 -0.077,0.463 0.077,0.388 0.078,0.463 0.077,0.388 0.232,0.387 0.155,0.309 0.309,0.387 0.31,0.31 0.309,0.309 0.852,0.542 0.929,0.542 c 0.501,-0.305 1.065,-0.526 1.625,-0.697 0.485,-0.065 1.063,0.015 1.625,0.155 0.944,-0.831 2.207,-0.73 3.017,0.155 0.149,0.161 0.327,0.408 0.388,0.619 0.128,0.446 0.104,1.031 0,1.547 l 0.929,0.078 1.083,0.155 1.161,0.309 1.238,0.31 1.238,0.232 1.161,0.31 1.083,0.155 0.929,0.076 -0.387,-0.308 -0.929,-0.698 -1.083,-0.851 -0.774,-0.541 1.006,-0.233 0.851,-0.154 -0.619,-0.697 -0.619,-0.696 -0.619,-0.697 -0.464,-0.619 0.619,-0.232 0.619,-0.155 0.696,-0.154 h 1.394 l 0.696,0.154 0.696,0.155 0.542,0.31 0.619,-0.31 0.62,-0.233 L -9.363,0.465 -8.744,0.311 -7.352,0.156 -5.881,0 H 0" /></g><g
           transform="translate(206.0293,84.3984)"
           id="g1077"><path
             id="path1079"
             style="fill:#fec50c;fill-opacity:1;fill-rule:nonzero;stroke:none"
             d="M 0,0 0.232,-0.076 0.465,-0.154 0.542,-0.387 0.619,-0.619 0.542,-0.85 0.465,-1.083 0.232,-1.238 H -0.31 l -0.154,0.155 -0.155,0.233 -0.077,0.231 0.077,0.232 0.155,0.233 0.154,0.078 z" /></g><g
           transform="translate(205.9395,84.0898)"
           id="g1081"><path
             id="path1083"
             style="fill:#fec50c;fill-opacity:1;fill-rule:nonzero;stroke:none"
             d="M 0,0 0.155,-0.077 0.232,-0.232 0.155,-0.387 0,-0.465 l -0.154,0.078 -0.078,0.155 0.078,0.155 z" /></g><g
           transform="translate(206,83.0254)"
           id="g1085"><path
             id="path1087"
             style="fill:#fec50c;fill-opacity:1;fill-rule:nonzero;stroke:none"
             d="m 0,0 c -0.393,0 -0.71,0.316 -0.71,0.709 0,0.393 0.317,0.709 0.71,0.709 0.392,0 0.709,-0.316 0.709,-0.709 C 0.709,0.316 0.392,0 0,0" /></g><g
           transform="translate(201.4395,83.4717)"
           id="g1089"><path
             id="path1091"
             style="fill:#fec50c;fill-opacity:1;fill-rule:nonzero;stroke:none"
             d="m 0,0 1.779,-0.774 0.465,0.386 0.619,0.465 0.696,0.387 0.62,0.387 2.321,0.929 2.013,0.928 1.005,0.387 0.851,0.465 0.852,0.464 0.696,0.464 1.78,1.161 1.781,1.161 1.702,1.083 1.548,1.084 1.161,0.928 0.927,0.852 1.007,0.928 1.083,1.006 0.387,0.387 0.465,0.31 0.541,0.309 0.619,0.31 1.316,0.619 1.316,0.465 1.779,0.464 1.935,0.463 2.012,0.387 2.245,0.388 2.708,0.309 2.709,0.387 2.786,0.31 2.708,0.464 0.928,0.155 0.852,0.231 0.929,0.233 0.928,0.232 0.929,1.161 1.471,1.625 1.006,1.006 1.16,0.929 1.316,1.006 1.547,1.006 2.322,1.393 2.477,1.237 2.554,1.317 2.475,1.16 2.322,1.162 2.167,1.082 1.78,0.93 1.393,0.928 0.387,1.162 0.542,1.16 0.696,1.16 0.852,1.162 0.928,1.239 1.161,1.237 1.238,1.393 1.548,1.47 1.392,1.238 1.471,1.239 0.773,0.542 0.775,0.541 0.851,0.464 0.851,0.465 0.852,0.387 0.851,0.309 0.929,0.232 0.851,0.232 0.928,0.079 0.852,0.076 0.929,-0.076 0.851,-0.157 -0.078,-0.927 -0.231,-0.929 -0.31,-0.929 -0.388,-1.006 -0.541,-1.006 -0.697,-1.005 -0.851,-1.084 -1.005,-1.084 0.773,0.078 0.696,0.154 0.542,0.155 0.542,0.232 0.464,0.155 0.542,0.155 0.696,0.076 0.774,0.079 0.078,-0.541 V 42.64 l -0.078,-0.541 -0.154,-0.465 -0.233,-0.464 -0.31,-0.464 -0.309,-0.388 -0.387,-0.386 -1.625,-1.548 -1.625,-1.471 0.929,-0.077 1.006,-0.31 1.006,-0.308 0.774,-0.157 -0.929,-0.695 -1.084,-0.697 -1.083,-0.696 -1.238,-0.697 -1.238,-0.696 -1.238,-0.774 -1.239,-0.852 -1.161,-0.928 0.542,-0.078 0.696,-0.308 0.31,-0.079 0.31,-0.154 0.232,-0.078 0.232,0.078 -1.547,-0.851 -1.935,-0.929 -0.929,-0.464 -0.774,-0.465 -0.387,-0.232 -0.232,-0.233 -0.155,-0.231 -0.155,-0.232 0.078,-0.31 0.154,-0.233 0.31,-0.231 0.233,-0.232 -0.078,-0.31 -0.155,-0.232 -0.31,-0.233 -0.309,-0.231 -0.696,-0.388 -0.929,-0.387 -0.929,-0.308 -0.851,-0.311 -0.619,-0.308 -0.464,-0.233 1.547,-1.548 -0.542,-0.542 -0.541,-0.386 -0.464,-0.233 -0.542,-0.232 -1.083,-0.155 h -1.471 l 0.155,-0.696 0.232,-0.696 0.155,-0.774 0.154,-0.775 L 74.214,14.78 72.589,13.62 70.808,12.46 68.797,11.298 67.636,10.679 66.475,10.138 65.237,9.673 63.922,9.209 62.528,8.745 61.058,8.435 59.511,8.126 57.886,7.893 60.749,7.815 h 2.476 l 2.322,0.233 2.089,0.232 1.934,0.387 1.703,0.465 1.702,0.619 1.626,0.619 2.167,1.006 2.089,1.16 2.012,1.238 2.09,1.239 -1.238,0.619 -1.239,0.386 -0.619,0.233 -0.619,0.31 -0.696,0.309 -0.697,0.387 0.62,0.465 0.696,0.309 0.851,0.31 0.928,0.232 1.858,0.387 1.934,0.232 1.703,0.233 1.548,0.154 0.619,0.154 0.541,0.155 0.31,0.156 0.232,0.231 -0.077,0.077 -0.155,0.155 -0.232,0.078 -0.309,0.154 -0.852,0.156 -1.084,0.155 -1.083,0.076 -1.083,0.155 -0.928,0.233 -0.619,0.231 2.088,0.465 2.09,0.465 1.858,0.386 1.547,0.387 1.316,0.387 1.161,0.465 0.541,0.232 0.387,0.232 0.388,0.232 0.309,0.31 -0.078,0.077 -0.154,0.155 -0.31,0.077 -0.387,0.077 -1.005,0.078 h -1.162 l -1.238,0.077 -1.161,0.078 -1.006,0.154 -0.619,0.155 0.542,0.232 0.542,0.232 1.856,0.542 1.626,0.464 1.47,0.387 1.394,0.465 1.469,0.464 1.471,0.62 0.696,0.386 0.62,0.387 0.232,0.232 0.232,0.309 0.232,0.232 0.078,0.233 -0.078,0.232 -0.232,0.155 -0.232,0.078 h -2.167 l -1.006,-0.078 h -1.393 l -0.387,0.078 -0.31,0.154 -0.309,0.154 3.095,2.013 2.864,1.858 2.553,1.625 2.245,1.547 0.928,0.774 0.852,0.774 0.696,0.775 0.619,0.773 0.464,0.852 0.388,0.85 0.231,0.929 v 1.006 h -0.541 l -0.542,-0.077 -0.619,-0.232 -0.619,-0.232 -1.238,-0.775 -1.316,-0.774 -0.696,-0.387 -0.619,-0.387 -0.696,-0.309 -0.698,-0.231 -0.618,-0.156 -0.619,-0.077 h -0.697 l -0.62,0.233 1.858,1.392 2.09,1.779 2.398,2.09 2.4,2.322 2.399,2.477 2.244,2.476 1.006,1.315 1.006,1.238 0.851,1.239 0.774,1.16 0.155,0.31 0.077,0.233 -0.077,0.308 -0.078,0.233 -0.077,0.232 -0.233,0.154 -0.231,0.233 -0.232,0.078 -0.31,0.154 -0.31,0.077 h -0.619 l -0.309,-0.077 -0.387,-0.078 -0.232,-0.231 -0.31,-0.233 -1.393,-1.393 -1.624,-1.625 -1.704,-1.78 -1.857,-1.779 -1.857,-1.626 -1.857,-1.548 -0.929,-0.619 -0.851,-0.541 -0.929,-0.465 -0.773,-0.386 0.541,0.464 0.696,0.696 0.929,0.929 1.007,1.161 2.244,2.709 2.475,3.171 1.239,1.704 1.161,1.703 1.161,1.625 1.006,1.702 0.928,1.548 0.774,1.393 0.619,1.315 0.387,1.084 0.078,0.386 v 0.62 l -0.078,0.232 -0.155,0.232 -0.155,0.232 -0.154,0.155 -0.233,0.077 -0.463,0.232 -0.543,0.155 h -1.083 l -0.309,-0.077 -0.233,-0.078 -0.309,-0.154 -0.232,-0.233 -0.62,-0.541 -0.619,-0.774 -1.392,-1.78 -1.471,-2.244 -1.625,-2.399 -1.78,-2.476 -1.006,-1.162 -0.929,-1.16 -1.006,-1.006 -1.083,-0.929 1.393,2.554 1.392,2.94 0.775,1.626 0.696,1.625 0.696,1.703 0.62,1.702 0.542,1.78 0.542,1.703 0.386,1.702 0.31,1.702 0.154,1.625 0.078,1.548 -0.078,0.774 -0.077,0.696 -0.077,0.697 -0.155,0.696 -0.078,0.233 -0.154,0.232 -0.232,0.232 -0.156,0.155 -0.541,0.232 -0.542,0.155 h -0.542 l -0.464,-0.078 -0.155,-0.077 -0.231,-0.077 -0.078,-0.155 -0.077,-0.232 -0.774,-2.554 -0.697,-2.554 -0.697,-2.708 -0.696,-2.632 -0.696,-2.631 -0.929,-2.476 -0.465,-1.238 -0.541,-1.084 -0.619,-1.16 -0.696,-1.006 0.464,2.244 0.309,2.012 0.31,1.857 0.154,1.703 0.155,1.47 0.078,1.316 -0.078,1.083 -0.077,0.928 -0.155,0.774 -0.232,0.62 -0.155,0.231 -0.154,0.233 -0.155,0.155 -0.233,0.077 -0.231,0.077 -0.233,0.078 h -0.232 l -0.232,-0.078 -0.619,-0.154 -0.62,-0.31 -0.541,-2.476 -0.542,-2.399 -0.619,-2.245 -0.696,-2.167 -0.775,-2.166 -0.85,-2.167 -0.929,-2.244 -1.084,-2.244 -0.773,-1.471 -0.775,-1.47 -0.85,-1.47 L 84.738,54.171 83.809,52.778 82.881,51.386 81.875,49.992 80.869,48.599 79.012,46.278 77.077,44.11 75.064,41.944 72.975,39.933 70.808,37.92 68.564,36.063 66.243,34.282 63.844,32.58 62.219,31.497 60.516,30.413 58.813,29.407 57.111,28.401 54.402,27.163 51.694,25.925 48.908,24.919 46.122,23.913 43.801,23.216 41.479,22.52 39.08,21.977 36.681,21.436 34.282,21.05 31.806,20.739 29.406,20.431 26.93,20.276 26.698,20.198 26.466,20.121 26.001,19.889 25.46,19.502 24.685,18.806 23.68,17.876 22.441,16.638 20.971,15.013 19.578,13.388 17.953,11.608 17.102,10.757 16.251,9.905 15.244,9.132 14.238,8.358 13.465,7.816 12.69,7.352 11.84,6.965 10.988,6.578 9.131,5.804 7.273,5.108 5.416,4.411 3.791,3.792 3.095,3.482 2.398,3.096 1.779,2.786 1.314,2.477 0.85,2.013 0.464,1.626 0.231,1.238 0.076,0.852 -0.001,0.31 V 0 m 62.221,-7.274 -0.541,-0.233 -0.542,-0.078 -0.465,-0.076 -0.387,0.076 -0.387,0.078 -0.386,0.154 -0.31,0.156 -0.387,0.231 -0.619,0.465 -0.619,0.465 -0.309,0.232 -0.388,0.155 -0.31,0.077 h -0.387 l -0.696,-1.47 -0.928,-1.857 -0.31,-0.465 -0.31,-0.387 -0.309,-0.232 -0.31,-0.233 -0.387,-0.154 h -0.386 l -0.387,0.154 -0.465,0.233 -0.154,0.232 -0.155,0.232 -0.155,0.309 -0.155,0.388 -0.154,0.696 -0.078,0.465 -0.464,-0.387 -0.465,-0.543 -0.387,-0.619 -0.464,-0.695 -0.542,-0.698 -0.542,-0.541 -0.309,-0.31 -0.387,-0.232 -0.387,-0.155 -0.464,-0.154 h -0.232 l -0.388,-0.078 -0.386,0.078 -0.31,0.154 -0.929,1.084 -1.005,1.083 -0.697,-1.083 -0.774,-0.929 -0.387,-0.387 -0.387,-0.387 -0.386,-0.309 -0.387,-0.232 -0.31,-0.155 -0.387,-0.077 h -0.387 l -0.31,0.077 -0.309,0.155 -0.233,0.232 -0.309,0.387 -0.154,0.464 -0.156,0.464 -0.309,0.774 -0.077,0.387 -0.155,0.31 -0.155,0.154 H 36.76 l -2.09,-3.404 -0.31,-0.31 -0.542,-0.231 -0.619,-0.157 -0.618,-0.154 h -0.697 l -0.541,0.154 -0.156,0.078 -0.232,0.233 -0.077,0.154 v 0.31 l 0.309,3.405 -0.232,-0.078 -0.31,-0.154 -0.309,-0.155 -0.31,-0.31 -0.619,-0.696 -0.696,-0.774 -0.696,-0.851 -0.852,-0.697 -0.387,-0.308 -0.386,-0.311 -0.465,-0.232 -0.387,-0.077 -0.542,-0.078 -0.387,0.078 -0.154,0.077 -0.155,0.155 -0.077,0.231 v 0.233 l 0.077,1.006 0.155,1.006 0.077,0.542 -0.077,0.464 -0.077,0.464 -0.31,0.542 -0.464,-0.696 -0.774,-1.006 -0.929,-1.006 -1.006,-1.006 -0.541,-0.386 -0.543,-0.388 -0.463,-0.155 -0.388,-0.155 -0.154,0.078 h -0.233 l -0.154,0.155 -0.078,0.077 -0.154,0.231 -0.078,0.233 v 0.31 l -0.078,0.387 0.078,2.94 -1.934,-1.315 -2.322,-1.471 -0.542,-0.232 -0.619,-0.309 -0.542,-0.155 -0.619,-0.155 -0.542,-0.155 h -0.541 l -0.542,0.078 -0.465,0.155 0.233,0.619 0.232,0.541 0.233,0.542 0.309,0.464 0.31,0.465 0.309,0.465 0.387,0.386 0.387,0.387 0.851,0.619 1.006,0.619 1.006,0.465 1.161,0.387 1.16,0.308 1.317,0.233 1.315,0.232 1.316,0.155 2.863,0.155 2.94,0.077 h 5.882 l 1.471,0.078 1.392,0.076 1.393,0.078 1.315,0.155 1.317,0.232 1.16,0.233 1.161,0.309 1.083,0.464 1.007,0.465 0.851,0.619 0.851,0.619 0.696,0.852 -0.773,1.547 0.619,0.078 0.619,0.154 0.619,0.31 0.541,0.387 0.233,0.155 0.232,0.232 0.155,0.309 0.155,0.232 0.077,0.31 v 0.542 l -0.154,0.309 1.315,0.232 1.393,0.155 1.47,0.077 h 1.548 l 3.173,-0.154 3.25,-0.233 3.327,-0.386 3.25,-0.31 3.173,-0.31 2.942,-0.154 V 0.077 l -0.079,-0.465 -0.154,-0.464 -0.155,-0.463 -0.155,-0.387 -0.232,-0.311 -0.31,-0.386 -0.54,-0.541 -0.698,-0.465 -0.696,-0.31 -0.774,-0.155 -0.851,-0.154 -0.852,0.078 -0.773,0.076 -0.852,0.232 -0.773,0.387 -0.774,0.387 -0.62,0.543 -0.619,0.619 V -3.019 L 63.381,-4.721 63.225,-5.572 62.993,-6.347 62.839,-6.655 62.606,-6.888 62.452,-7.12 Z" /></g><g
           transform="translate(205.9395,83.5586)"
           id="g1093"><path
             id="path1095"
             style="fill:#fec50c;fill-opacity:1;fill-rule:nonzero;stroke:none"
             d="m 0,0 c -0.16,0 -0.289,0.13 -0.289,0.289 0,0.16 0.129,0.29 0.289,0.29 0.16,0 0.29,-0.13 0.29,-0.29 C 0.29,0.13 0.16,0 0,0" /></g><g
           transform="translate(205.9395,83.5586)"
           id="g1097"><path
             id="path1099"
             style="fill:none;stroke:#00afca;stroke-width:0.381;stroke-linecap:butt;stroke-linejoin:miter;stroke-miterlimit:4;stroke-dasharray:none;stroke-opacity:1"
             d="m 0,0 c -0.16,0 -0.289,0.13 -0.289,0.289 0,0.16 0.129,0.29 0.289,0.29 0.16,0 0.29,-0.13 0.29,-0.29 C 0.29,0.13 0.16,0 0,0 Z" /></g><g
           transform="translate(48,21.877)"
           id="g1101"><path
             id="path1103"
             style="fill:#fec50c;fill-opacity:1;fill-rule:nonzero;stroke:none"
             d="m 0,0 c 0,0 -2.884,-2.424 -3.862,-1.208 -1.575,1.954 4.842,11.69 4.842,15.119 0,5.628 -3.755,7.158 -8.392,7.962 -3.111,0.539 -8.178,-0.227 -8.178,-0.227 0.954,-1.281 1.574,-1.658 3.182,-1.761 -1.79,-0.929 -3.612,-2.946 -3.612,-6.084 0,-4.842 1.993,-6.838 1.993,-12.295 0,-3.029 -2.483,-6.883 -2.483,-6.883 4.389,0.44 6.564,4.502 5.326,7.75 0.699,0.101 1.333,-0.057 1.877,-0.572 0.322,0.899 -0.185,1.944 -0.864,2.844 0.547,0.292 0.948,0.117 1.819,-0.063 -0.083,0.928 -0.638,1.913 -1.998,2.84 3.946,-1.024 6.373,1.726 6.373,4.605 0,2.174 -1.523,3.733 -3.012,3.733 -0.482,0 -1.189,-0.199 -1.588,-0.496 -0.281,0.597 -0.136,1.398 0.153,1.998 -1.091,-0.289 -1.784,-0.938 -1.291,-2.287 -0.838,-0.077 -1.505,-0.36 -1.959,-0.901 0.46,-0.588 1.157,-0.928 1.959,-0.899 -0.61,-1.26 0.07,-1.966 1.062,-2.537 0,0 -0.631,2.537 0.979,2.537 0.724,0 1.384,-0.236 1.384,-1.303 0,-0.929 -0.812,-2.216 -2.689,-2.134 -1.878,0.081 -3.401,1.294 -3.401,4.291 0,2.766 2.231,4.141 5.169,4.229 2.65,0.082 4.65,-1.354 4.65,-4.088 0,-3.638 -5.252,-11.932 -5.252,-15.174 0,-2.432 2.187,-3.791 4.328,-3.791 2.775,0 5.117,2.749 5.117,2.749 l -1.63,2.044 z" /></g><g
           transform="translate(47.3936,87.6406)"
           id="g1105"><path
             id="path1107"
             style="fill:#fec50c;fill-opacity:1;fill-rule:nonzero;stroke:none"
             d="m 0,0 c 0,6.081 5.459,9.207 9.749,9.207 5.779,0 8.857,-3.456 8.857,-7.98 0,-2.564 -0.47,-4.173 -1.652,-6.627 0,0 -9.534,-19.827 -13.246,-27.496 -0.463,-0.956 -0.612,-2.045 -0.612,-3.641 0,-2.466 2.39,-4.481 4.898,-4.543 2.285,-0.057 4.776,2.131 4.776,4.624 0,3.028 -1.572,4.378 -3.184,4.378 -1.986,0 -2.777,-0.817 -2.777,-2.209 0,-0.971 0.47,-1.392 1.144,-1.392 1.702,0 1.225,2.292 1.225,2.292 0.844,-0.185 1.54,-1.049 1.142,-2.129 0.618,-0.136 1.199,-0.461 1.654,-0.981 -0.457,-0.442 -0.981,-0.784 -1.654,-0.899 0.399,-1.317 -0.133,-1.96 -1.286,-2.231 0.233,0.506 0.241,0.973 0.164,1.412 -1.813,-0.515 -4.593,0.305 -4.593,3.437 0,3.109 2.159,5.727 6.206,5.073 -0.963,0.461 -1.453,1.402 -1.551,2.455 0.734,-0.286 1.551,-0.327 1.551,-0.327 -0.474,0.834 -1.131,1.554 -1.103,3.191 0.75,-0.341 1.447,-0.972 2.408,-0.573 -1.509,2.969 0.345,7.054 5.062,8.02 -1.727,-2.024 -2.572,-4.207 -2.572,-6.383 0,-7.049 1.959,-8.234 1.959,-13.135 0,-2.05 -1.053,-4.264 -3.142,-5.769 v 0.083 c 1.381,-0.371 2.265,-1.05 2.773,-1.974 -3.154,-0.895 -7.74,-0.878 -10.202,0.091 -2.83,0.327 -4.806,2.499 -5.388,3.6 -0.582,1.102 -1.712,5.086 0,8.674 1.874,3.927 10.713,22.668 13.469,28.561 0.585,1.249 0.94,2.574 0.94,4.009 0,3.609 -3.307,4.869 -5.185,4.869 -2.244,0 -4.53,-1.71 -4.53,-3.846 0,-1.354 0.734,-2.169 1.796,-2.169 2.538,0 2.383,2.158 1.878,3.519 1.579,-0.711 2.497,-1.978 2.245,-3.314 0.893,-0.123 1.745,-0.547 2.53,-1.432 -0.618,-0.781 -1.372,-1.371 -2.53,-1.392 0.506,-2.073 -0.883,-2.949 -2.245,-3.436 0.43,1.522 0.714,3.273 -1.878,3.273 -1.89,0 -3.377,0.327 -4.246,1.555 -0.05,-1.636 -0.204,-8.101 -0.204,-8.101 -0.108,-2.43 3.252,-2.361 5.388,-1.637 -0.805,-2.799 -2.459,-4.312 -6.285,-3.928 0.929,-0.388 1.918,-1.263 1.918,-2.947 0,-2.277 -1.849,-4.801 -3.062,-5.547 L -0.001,0 Z" /></g><g
           transform="translate(48.6064,87.6406)"
           id="g1109"><path
             id="path1111"
             style="fill:#fec50c;fill-opacity:1;fill-rule:nonzero;stroke:none"
             d="m 0,0 c 0,6.081 -5.46,9.207 -9.749,9.207 -5.78,0 -8.857,-3.456 -8.857,-7.98 0,-2.564 0.469,-4.173 1.652,-6.627 0,0 9.534,-19.827 13.246,-27.496 0.463,-0.956 0.611,-2.045 0.611,-3.641 0,-2.466 -2.39,-4.481 -4.897,-4.543 -2.285,-0.057 -4.776,2.131 -4.776,4.624 0,3.028 1.571,4.378 3.184,4.378 1.984,0 2.775,-0.817 2.775,-2.209 0,-0.971 -0.468,-1.392 -1.142,-1.392 -1.702,0 -1.225,2.292 -1.225,2.292 -0.845,-0.185 -1.54,-1.049 -1.142,-2.129 -0.619,-0.136 -1.198,-0.461 -1.654,-0.981 0.456,-0.442 0.98,-0.784 1.654,-0.899 -0.4,-1.317 0.134,-1.96 1.285,-2.231 -0.233,0.506 -0.24,0.973 -0.163,1.412 1.813,-0.515 4.592,0.305 4.592,3.437 0,3.109 -2.159,5.727 -6.205,5.073 0.962,0.461 1.453,1.402 1.551,2.455 -0.734,-0.286 -1.551,-0.327 -1.551,-0.327 0.473,0.834 1.13,1.554 1.102,3.191 -0.75,-0.341 -1.446,-0.972 -2.408,-0.573 1.509,2.969 -0.345,7.054 -5.061,8.02 1.726,-2.024 2.572,-4.207 2.572,-6.383 0,-7.049 -1.96,-8.234 -1.96,-13.135 0,-2.05 1.054,-4.264 3.143,-5.769 v 0.083 c -1.381,-0.371 -2.265,-1.05 -2.773,-1.974 3.154,-0.895 7.739,-0.878 10.202,0.091 2.83,0.327 4.805,2.499 5.388,3.6 0.582,1.102 1.713,5.086 0,8.674 -1.875,3.927 -10.714,22.668 -13.47,28.561 -0.584,1.249 -0.939,2.574 -0.939,4.009 0,3.609 3.306,4.869 5.184,4.869 2.245,0 4.53,-1.71 4.53,-3.846 0,-1.354 -0.734,-2.169 -1.796,-2.169 -2.537,0 -2.382,2.158 -1.877,3.519 -1.579,-0.711 -2.497,-1.978 -2.245,-3.314 -0.894,-0.123 -1.745,-0.547 -2.53,-1.432 0.617,-0.781 1.371,-1.371 2.53,-1.392 -0.506,-2.073 0.882,-2.949 2.245,-3.436 -0.431,1.522 -0.714,3.273 1.877,3.273 1.89,0 3.378,0.327 4.245,1.555 0.051,-1.636 0.205,-8.101 0.205,-8.101 0.109,-2.43 -3.252,-2.361 -5.388,-1.637 0.806,-2.799 2.459,-4.312 6.286,-3.928 -0.929,-0.388 -1.919,-1.263 -1.919,-2.947 0.001,-2.277 1.849,-4.801 3.062,-5.547 L 0.001,0 Z" /></g><g
           transform="translate(48,21.877)"
           id="g1113"><path
             id="path1115"
             style="fill:#fec50c;fill-opacity:1;fill-rule:nonzero;stroke:none"
             d="m 0,0 c 0,0 2.883,-2.424 3.862,-1.208 1.575,1.954 -4.841,11.69 -4.841,15.119 0,5.628 3.754,7.158 8.391,7.962 3.111,0.539 8.178,-0.227 8.178,-0.227 -0.954,-1.281 -1.574,-1.658 -3.182,-1.761 1.789,-0.929 3.612,-2.946 3.612,-6.084 0,-4.842 -1.994,-6.838 -1.994,-12.295 0,-3.029 2.484,-6.883 2.484,-6.883 -4.389,0.44 -6.564,4.502 -5.326,7.75 C 10.484,2.474 9.851,2.316 9.306,1.801 8.984,2.7 9.491,3.745 10.171,4.645 9.624,4.937 9.222,4.762 8.351,4.582 8.434,5.51 8.989,6.495 10.349,7.422 6.403,6.398 3.976,9.148 3.976,12.027 c 0,2.174 1.524,3.733 3.013,3.733 0.482,0 1.189,-0.199 1.587,-0.496 0.281,0.597 0.137,1.398 -0.153,1.998 1.092,-0.289 1.784,-0.938 1.291,-2.287 0.839,-0.077 1.506,-0.36 1.96,-0.901 -0.46,-0.588 -1.157,-0.928 -1.96,-0.899 0.61,-1.26 -0.069,-1.966 -1.061,-2.537 0,0 0.63,2.537 -0.979,2.537 -0.725,0 -1.384,-0.236 -1.384,-1.303 0,-0.929 0.812,-2.216 2.69,-2.134 1.877,0.081 3.399,1.294 3.399,4.291 0,2.766 -2.23,4.141 -5.168,4.229 -2.65,0.082 -4.65,-1.354 -4.65,-4.088 0,-3.638 5.251,-11.932 5.251,-15.174 0,-2.432 -2.187,-3.791 -4.328,-3.791 -2.775,0 -5.117,2.749 -5.117,2.749 l 1.631,2.044 z" /></g><g
           transform="translate(47.3936,194.1167)"
           id="g1117"><path
             id="path1119"
             style="fill:#fec50c;fill-opacity:1;fill-rule:nonzero;stroke:none"
             d="m 0,0 c 0,6.081 5.459,9.206 9.749,9.206 5.779,0 8.857,-3.455 8.857,-7.979 0,-2.564 -0.47,-4.173 -1.652,-6.627 0,0 -9.534,-19.827 -13.246,-27.496 -0.463,-0.956 -0.612,-2.045 -0.612,-3.642 0,-2.465 2.39,-4.48 4.898,-4.542 2.285,-0.057 4.776,2.131 4.776,4.624 0,3.028 -1.572,4.378 -3.184,4.378 -1.986,0 -2.777,-0.816 -2.777,-2.21 0,-0.97 0.47,-1.391 1.144,-1.391 1.702,0 1.225,2.292 1.225,2.292 0.844,-0.185 1.54,-1.049 1.142,-2.128 0.618,-0.138 1.199,-0.462 1.654,-0.982 -0.457,-0.442 -0.981,-0.784 -1.654,-0.9 0.399,-1.316 -0.133,-1.959 -1.286,-2.23 0.233,0.506 0.241,0.972 0.164,1.412 -1.813,-0.516 -4.593,0.304 -4.593,3.437 0,3.109 2.159,5.727 6.206,5.073 -0.963,0.46 -1.453,1.402 -1.551,2.455 0.734,-0.286 1.551,-0.327 1.551,-0.327 -0.474,0.834 -1.131,1.553 -1.103,3.191 0.75,-0.341 1.447,-0.972 2.408,-0.572 -1.509,2.968 0.345,7.053 5.062,8.019 -1.727,-2.023 -2.572,-4.208 -2.572,-6.383 0,-7.049 1.959,-8.234 1.959,-13.134 0,-2.051 -1.053,-4.265 -3.142,-5.77 v 0.082 c 1.381,-0.37 2.265,-1.049 2.773,-1.973 -3.154,-0.894 -7.74,-0.879 -10.202,0.091 -2.83,0.327 -4.806,2.499 -5.388,3.601 -0.582,1.101 -1.712,5.086 0,8.674 1.874,3.926 10.713,22.667 13.469,28.559 0.585,1.25 0.94,2.575 0.94,4.009 0,3.61 -3.307,4.87 -5.185,4.87 -2.244,0 -4.53,-1.71 -4.53,-3.846 0,-1.354 0.734,-2.169 1.796,-2.169 2.538,0 2.383,2.159 1.878,3.519 1.579,-0.71 2.497,-1.978 2.245,-3.314 0.893,-0.123 1.745,-0.547 2.53,-1.433 -0.618,-0.78 -1.372,-1.37 -2.53,-1.391 0.506,-2.073 -0.883,-2.95 -2.245,-3.436 0.43,1.521 0.714,3.273 -1.878,3.273 -1.89,0 -3.377,0.327 -4.246,1.554 -0.05,-1.636 -0.204,-8.101 -0.204,-8.101 -0.108,-2.429 3.252,-2.36 5.388,-1.636 -0.805,-2.799 -2.459,-4.312 -6.285,-3.929 0.929,-0.388 1.918,-1.262 1.918,-2.945 0,-2.278 -1.849,-4.802 -3.062,-5.548 L -0.001,0.001 Z" /></g><g
           transform="translate(48.6064,194.1167)"
           id="g1121"><path
             id="path1123"
             style="fill:#fec50c;fill-opacity:1;fill-rule:nonzero;stroke:none"
             d="m 0,0 c 0,6.081 -5.46,9.206 -9.749,9.206 -5.78,0 -8.857,-3.455 -8.857,-7.979 0,-2.564 0.469,-4.173 1.652,-6.627 0,0 9.534,-19.827 13.246,-27.496 0.463,-0.956 0.611,-2.045 0.611,-3.642 0,-2.465 -2.39,-4.48 -4.897,-4.542 -2.285,-0.057 -4.776,2.131 -4.776,4.624 0,3.028 1.571,4.378 3.184,4.378 1.984,0 2.775,-0.816 2.775,-2.21 0,-0.97 -0.468,-1.391 -1.142,-1.391 -1.702,0 -1.225,2.292 -1.225,2.292 -0.845,-0.185 -1.54,-1.049 -1.142,-2.128 -0.619,-0.138 -1.198,-0.462 -1.654,-0.982 0.456,-0.442 0.98,-0.784 1.654,-0.9 -0.4,-1.316 0.134,-1.959 1.285,-2.23 -0.233,0.506 -0.24,0.972 -0.163,1.412 1.813,-0.516 4.592,0.304 4.592,3.437 0,3.109 -2.159,5.727 -6.205,5.073 0.962,0.46 1.453,1.402 1.551,2.455 -0.734,-0.286 -1.551,-0.327 -1.551,-0.327 0.473,0.834 1.13,1.553 1.102,3.191 -0.75,-0.341 -1.446,-0.972 -2.408,-0.572 1.509,2.968 -0.345,7.053 -5.061,8.019 1.726,-2.023 2.572,-4.208 2.572,-6.383 0,-7.049 -1.96,-8.234 -1.96,-13.134 0,-2.051 1.054,-4.265 3.143,-5.77 v 0.082 c -1.381,-0.37 -2.265,-1.049 -2.773,-1.973 3.154,-0.894 7.739,-0.879 10.202,0.091 2.83,0.327 4.805,2.499 5.388,3.601 0.582,1.101 1.713,5.086 0,8.674 -1.875,3.926 -10.714,22.667 -13.47,28.559 -0.584,1.25 -0.939,2.575 -0.939,4.009 0,3.61 3.306,4.87 5.184,4.87 2.245,0 4.53,-1.71 4.53,-3.846 0,-1.354 -0.734,-2.169 -1.796,-2.169 -2.537,0 -2.382,2.159 -1.877,3.519 -1.579,-0.71 -2.497,-1.978 -2.245,-3.314 -0.894,-0.123 -1.745,-0.547 -2.53,-1.433 0.617,-0.78 1.371,-1.37 2.53,-1.391 -0.506,-2.073 0.882,-2.95 2.245,-3.436 -0.431,1.521 -0.714,3.273 1.877,3.273 1.89,0 3.378,0.327 4.245,1.554 0.051,-1.636 0.205,-8.101 0.205,-8.101 0.109,-2.429 -3.252,-2.36 -5.388,-1.636 0.806,-2.799 2.459,-4.312 6.286,-3.929 -0.929,-0.388 -1.919,-1.262 -1.919,-2.945 0.001,-2.278 1.849,-4.802 3.062,-5.548 L 0.001,0.001 Z" /></g><g
           transform="translate(48.6064,212.3594)"
           id="g1125"><path
             id="path1127"
             style="fill:#fec50c;fill-opacity:1;fill-rule:nonzero;stroke:none"
             d="m 0,0 c 0,-6.081 -5.46,-9.207 -9.749,-9.207 -5.78,0 -8.857,3.456 -8.857,7.98 0,2.564 0.469,4.173 1.652,6.627 0,0 9.534,19.827 13.246,27.496 0.463,0.956 0.611,2.045 0.611,3.642 0,2.465 -2.39,4.48 -4.897,4.542 -2.285,0.057 -4.776,-2.131 -4.776,-4.624 0,-3.028 1.571,-4.378 3.184,-4.378 1.984,0 2.775,0.816 2.775,2.21 0,0.97 -0.468,1.391 -1.142,1.391 -1.702,0 -1.225,-2.292 -1.225,-2.292 -0.845,0.185 -1.54,1.049 -1.142,2.128 -0.619,0.138 -1.198,0.462 -1.654,0.982 0.456,0.442 0.98,0.784 1.654,0.9 -0.4,1.316 0.134,1.959 1.285,2.23 -0.233,-0.506 -0.24,-0.972 -0.163,-1.412 1.813,0.516 4.592,-0.304 4.592,-3.437 0,-3.109 -2.159,-5.728 -6.205,-5.073 0.962,-0.46 1.453,-1.402 1.551,-2.455 -0.734,0.286 -1.551,0.327 -1.551,0.327 0.473,-0.834 1.13,-1.553 1.102,-3.191 -0.75,0.341 -1.446,0.972 -2.408,0.572 1.509,-2.968 -0.345,-7.053 -5.061,-8.019 1.726,2.023 2.572,4.208 2.572,6.383 0,7.049 -1.96,8.234 -1.96,13.134 0,2.051 1.054,4.265 3.143,5.77 v -0.083 c -1.381,0.37 -2.265,1.05 -2.773,1.974 3.154,0.894 7.739,0.878 10.202,-0.091 2.83,-0.327 4.805,-2.499 5.388,-3.601 0.582,-1.101 1.713,-5.086 0,-8.674 -1.875,-3.926 -10.714,-22.667 -13.47,-28.559 -0.584,-1.25 -0.939,-2.575 -0.939,-4.01 0,-3.609 3.306,-4.869 5.184,-4.869 2.245,0 4.53,1.71 4.53,3.846 0,1.354 -0.734,2.169 -1.796,2.169 -2.537,0 -2.382,-2.159 -1.877,-3.519 -1.579,0.71 -2.497,1.978 -2.245,3.315 -0.894,0.122 -1.745,0.546 -2.53,1.431 0.617,0.78 1.371,1.37 2.53,1.392 -0.506,2.073 0.882,2.95 2.245,3.436 -0.431,-1.521 -0.714,-3.273 1.877,-3.273 1.89,0 3.378,-0.327 4.245,-1.555 0.051,1.637 0.205,8.102 0.205,8.102 0.109,2.429 -3.252,2.36 -5.388,1.636 0.806,2.799 2.459,4.312 6.286,3.928 -0.929,0.389 -1.919,1.263 -1.919,2.946 0.001,2.278 1.849,4.802 3.062,5.548 L 0.001,-0.001 Z" /></g><g
           transform="translate(48.6064,105.8828)"
           id="g1129"><path
             id="path1131"
             style="fill:#fec50c;fill-opacity:1;fill-rule:nonzero;stroke:none"
             d="m 0,0 c 0,-6.08 -5.46,-9.206 -9.749,-9.206 -5.78,0 -8.857,3.456 -8.857,7.979 0,2.565 0.469,4.174 1.652,6.627 0,0 9.534,19.829 13.246,27.496 0.463,0.958 0.611,2.045 0.611,3.642 0,2.466 -2.39,4.48 -4.897,4.542 -2.285,0.057 -4.776,-2.131 -4.776,-4.623 0,-3.029 1.571,-4.379 3.184,-4.379 1.984,0 2.775,0.816 2.775,2.21 0,0.971 -0.468,1.392 -1.142,1.392 -1.702,0 -1.225,-2.292 -1.225,-2.292 -0.845,0.184 -1.54,1.05 -1.142,2.128 -0.619,0.137 -1.198,0.463 -1.654,0.982 0.456,0.441 0.98,0.783 1.654,0.899 -0.4,1.317 0.134,1.96 1.285,2.23 -0.233,-0.506 -0.24,-0.971 -0.163,-1.411 1.813,0.515 4.592,-0.305 4.592,-3.437 0,-3.109 -2.159,-5.728 -6.205,-5.074 0.962,-0.46 1.453,-1.402 1.551,-2.455 -0.734,0.287 -1.551,0.328 -1.551,0.328 0.473,-0.834 1.13,-1.554 1.102,-3.191 -0.75,0.341 -1.446,0.972 -2.408,0.572 1.509,-2.969 -0.345,-7.053 -5.061,-8.02 1.726,2.024 2.572,4.209 2.572,6.383 0,7.049 -1.96,8.235 -1.96,13.135 0,2.051 1.054,4.264 3.143,5.77 v -0.083 c -1.381,0.37 -2.265,1.049 -2.773,1.974 3.154,0.894 7.739,0.878 10.202,-0.091 2.83,-0.328 4.805,-2.5 5.388,-3.601 0.582,-1.102 1.713,-5.086 0,-8.674 -1.875,-3.926 -10.714,-22.668 -13.47,-28.559 -0.584,-1.25 -0.939,-2.576 -0.939,-4.009 0,-3.61 3.306,-4.87 5.184,-4.87 2.245,0 4.53,1.709 4.53,3.846 0,1.354 -0.734,2.168 -1.796,2.168 -2.537,0 -2.382,-2.158 -1.877,-3.518 -1.579,0.71 -2.497,1.977 -2.245,3.314 -0.894,0.122 -1.745,0.546 -2.53,1.433 0.617,0.779 1.371,1.369 2.53,1.39 -0.506,2.073 0.882,2.95 2.245,3.437 -0.431,-1.522 -0.714,-3.273 1.877,-3.273 1.89,0 3.378,-0.328 4.245,-1.554 0.051,1.635 0.205,8.1 0.205,8.1 0.109,2.43 -3.252,2.361 -5.388,1.637 0.806,2.798 2.459,4.311 6.286,3.929 -0.929,0.388 -1.919,1.261 -1.919,2.945 0.001,2.277 1.849,4.801 3.062,5.547 L 0.001,0 Z" /></g><g
           transform="translate(47.3936,105.8828)"
           id="g1133"><path
             id="path1135"
             style="fill:#fec50c;fill-opacity:1;fill-rule:nonzero;stroke:none"
             d="m 0,0 c 0,-6.08 5.459,-9.206 9.749,-9.206 5.779,0 8.857,3.456 8.857,7.979 0,2.565 -0.47,4.174 -1.652,6.627 0,0 -9.534,19.829 -13.246,27.496 -0.463,0.958 -0.612,2.045 -0.612,3.642 0,2.466 2.39,4.48 4.898,4.542 2.285,0.057 4.776,-2.131 4.776,-4.623 0,-3.029 -1.572,-4.379 -3.184,-4.379 -1.986,0 -2.777,0.816 -2.777,2.21 0,0.971 0.47,1.392 1.144,1.392 1.702,0 1.225,-2.292 1.225,-2.292 0.844,0.184 1.54,1.05 1.142,2.128 0.618,0.137 1.199,0.463 1.654,0.982 -0.457,0.441 -0.981,0.783 -1.654,0.899 0.399,1.317 -0.133,1.96 -1.286,2.23 0.233,-0.506 0.241,-0.971 0.164,-1.411 -1.813,0.515 -4.593,-0.305 -4.593,-3.437 0,-3.109 2.159,-5.728 6.206,-5.074 -0.963,-0.46 -1.453,-1.402 -1.551,-2.455 0.734,0.287 1.551,0.328 1.551,0.328 -0.474,-0.834 -1.131,-1.554 -1.103,-3.191 0.75,0.341 1.447,0.972 2.408,0.572 -1.509,-2.969 0.345,-7.053 5.062,-8.02 -1.727,2.024 -2.572,4.209 -2.572,6.383 0,7.049 1.959,8.235 1.959,13.135 0,2.051 -1.053,4.264 -3.142,5.77 v -0.083 c 1.381,0.37 2.265,1.049 2.773,1.974 -3.154,0.894 -7.74,0.878 -10.202,-0.091 -2.83,-0.328 -4.806,-2.5 -5.388,-3.601 -0.582,-1.102 -1.712,-5.086 0,-8.674 C 2.48,27.826 11.319,9.084 14.075,3.193 c 0.585,-1.25 0.94,-2.576 0.94,-4.009 0,-3.61 -3.307,-4.87 -5.185,-4.87 -2.244,0 -4.53,1.709 -4.53,3.846 0,1.354 0.734,2.168 1.796,2.168 2.538,0 2.383,-2.158 1.878,-3.518 1.579,0.71 2.497,1.977 2.245,3.314 0.893,0.122 1.745,0.546 2.53,1.433 -0.618,0.779 -1.372,1.369 -2.53,1.39 0.506,2.073 -0.883,2.95 -2.245,3.437 0.43,-1.522 0.714,-3.273 -1.878,-3.273 -1.89,0 -3.377,-0.328 -4.246,-1.554 -0.05,1.635 -0.204,8.1 -0.204,8.1 -0.108,2.43 3.252,2.361 5.388,1.637 -0.805,2.798 -2.459,4.311 -6.285,3.929 0.929,0.388 1.918,1.261 1.918,2.945 0,2.277 -1.849,4.801 -3.062,5.547 L -0.001,0 Z" /></g><g
           transform="translate(48,278.1235)"
           id="g1137"><path
             id="path1139"
             style="fill:#fec50c;fill-opacity:1;fill-rule:nonzero;stroke:none"
             d="m 0,0 c 0,0 2.883,2.423 3.862,1.208 1.575,-1.955 -4.841,-11.691 -4.841,-15.12 0,-5.627 3.754,-7.158 8.391,-7.961 3.111,-0.54 8.178,0.226 8.178,0.226 -0.954,1.281 -1.574,1.659 -3.182,1.761 1.789,0.93 3.612,2.946 3.612,6.085 0,4.842 -1.994,6.837 -1.994,12.295 0,3.028 2.484,6.883 2.484,6.883 -4.389,-0.439 -6.564,-4.503 -5.326,-7.75 -0.7,-0.101 -1.333,0.056 -1.878,0.572 -0.322,-0.9 0.185,-1.945 0.865,-2.844 -0.547,-0.293 -0.949,-0.118 -1.82,0.062 0.083,-0.927 0.638,-1.913 1.998,-2.84 -3.946,1.025 -6.373,-1.725 -6.373,-4.604 0,-2.175 1.524,-3.733 3.013,-3.733 0.482,0 1.189,0.199 1.587,0.496 0.281,-0.598 0.137,-1.399 -0.153,-1.998 1.092,0.289 1.784,0.937 1.291,2.286 0.839,0.078 1.506,0.361 1.96,0.901 -0.46,0.589 -1.157,0.928 -1.96,0.9 0.61,1.26 -0.069,1.965 -1.061,2.537 0,0 0.63,-2.537 -0.979,-2.537 -0.725,0 -1.384,0.236 -1.384,1.303 0,0.929 0.812,2.216 2.69,2.134 1.877,-0.082 3.399,-1.295 3.399,-4.292 0,-2.765 -2.23,-4.14 -5.168,-4.229 -2.65,-0.081 -4.65,1.354 -4.65,4.088 0,3.638 5.251,11.932 5.251,15.174 0,2.433 -2.187,3.791 -4.328,3.791 -2.775,0 -5.117,-2.749 -5.117,-2.749 l 1.631,-2.044 z" /></g><g
           transform="translate(48,278.1235)"
           id="g1141"><path
             id="path1143"
             style="fill:#fec50c;fill-opacity:1;fill-rule:nonzero;stroke:none"
             d="m 0,0 c 0,0 -2.884,2.423 -3.862,1.208 -1.575,-1.955 4.842,-11.691 4.842,-15.12 0,-5.627 -3.755,-7.158 -8.392,-7.961 -3.111,-0.54 -8.178,0.226 -8.178,0.226 0.954,1.281 1.574,1.659 3.182,1.761 -1.79,0.93 -3.612,2.946 -3.612,6.085 0,4.842 1.993,6.837 1.993,12.295 0,3.028 -2.483,6.883 -2.483,6.883 4.389,-0.439 6.564,-4.503 5.326,-7.75 0.699,-0.101 1.333,0.056 1.877,0.572 0.322,-0.9 -0.185,-1.945 -0.864,-2.844 0.547,-0.293 0.948,-0.118 1.819,0.062 -0.083,-0.927 -0.638,-1.913 -1.998,-2.84 3.946,1.025 6.373,-1.725 6.373,-4.604 0,-2.175 -1.523,-3.733 -3.012,-3.733 -0.482,0 -1.189,0.199 -1.588,0.496 -0.281,-0.598 -0.136,-1.399 0.153,-1.998 -1.091,0.289 -1.784,0.937 -1.291,2.286 -0.838,0.078 -1.505,0.361 -1.959,0.901 0.46,0.589 1.157,0.928 1.959,0.9 -0.61,1.26 0.07,1.965 1.062,2.537 0,0 -0.631,-2.537 0.979,-2.537 0.724,0 1.384,0.236 1.384,1.303 0,0.929 -0.812,2.216 -2.689,2.134 -1.878,-0.082 -3.401,-1.295 -3.401,-4.292 0,-2.765 2.231,-4.14 5.169,-4.229 2.65,-0.081 4.65,1.354 4.65,4.088 0,3.638 -5.252,11.932 -5.252,15.174 0,2.433 2.187,3.791 4.328,3.791 2.775,0 5.117,-2.749 5.117,-2.749 L 0.002,0.001 Z" /></g></g></g></g></svg>
