<?xml version="1.0" encoding="UTF-8" standalone="no"?>
<svg
   xmlns:dc="http://purl.org/dc/elements/1.1/"
   xmlns:cc="http://creativecommons.org/ns#"
   xmlns:rdf="http://www.w3.org/1999/02/22-rdf-syntax-ns#"
   xmlns:svg="http://www.w3.org/2000/svg"
   xmlns="http://www.w3.org/2000/svg"
   xmlns:sodipodi="http://sodipodi.sourceforge.net/DTD/sodipodi-0.dtd"
   xmlns:inkscape="http://www.inkscape.org/namespaces/inkscape"
   inkscape:version="1.0 (4035a4fb49, 2020-05-01)"
   sodipodi:docname="mx.svg"
   id="svg8945"
   version="1.1"
   viewBox="0 0 20 20"
   height="20"
   width="20">
  <metadata
     id="metadata8951">
    <rdf:RDF>
      <cc:Work
         rdf:about="">
        <dc:format>image/svg+xml</dc:format>
        <dc:type
           rdf:resource="http://purl.org/dc/dcmitype/StillImage" />
        <dc:title></dc:title>
      </cc:Work>
    </rdf:RDF>
  </metadata>
  <defs
     id="defs8949" />
  <sodipodi:namedview
     inkscape:current-layer="svg8945"
     inkscape:window-maximized="1"
     inkscape:window-y="-9"
     inkscape:window-x="-9"
     inkscape:cy="256"
     inkscape:cx="256"
     inkscape:zoom="1.6210938"
     showgrid="false"
     id="namedview8947"
     inkscape:window-height="1001"
     inkscape:window-width="1920"
     inkscape:pageshadow="2"
     inkscape:pageopacity="0"
     guidetolerance="10"
     gridtolerance="10"
     objecttolerance="10"
     borderopacity="1"
     bordercolor="#666666"
     pagecolor="#ffffff" />
  <mask
     id="a">
    <circle
       id="circle8908"
       fill="#ffffff"
       r="256"
       cy="256"
       cx="256" />
  </mask>
  <g
     transform="scale(0.0390625)"
     id="g8943"
     mask="url(#a)">
    <path
       id="path8911"
       d="m 144,0 h 223 l 33,256 -33,256 H 144 L 112,256 Z"
       fill="#eeeeee" />
    <path
       id="path8913"
       d="M 0,0 H 144 V 512 H 0 Z"
       fill="#496e2d" />
    <path
       id="path8915"
       d="M 368,0 H 512 V 512 H 368 Z"
       fill="#d80027" />
    <path
       id="path8917"
       d="m 256,277 v 10 h 12 l 10,-22 z"
       fill="#ffda44" />
    <path
       id="path8919"
       d="m 160,242 a 96,96 0 0 0 192,0 h -11 a 85,85 0 0 1 -170,0 z m 39,17 -4,2 c -2,2 -2,6 1,8 15,14 34,22 54,24 v 17 h 12 v -17 c 20,-2 39,-10 54,-24 3,-2 3,-6 1,-8 -2,-2 -6,-2 -8,0 a 78,78 0 0 1 -53,21 c -19,0 -38,-8 -53,-21 z"
       fill="#496e2d" />
    <path
       id="path8921"
       d="m 256,316 c -14,0 -28,-5 -40,-13 l 6,-9 c 20,13 48,13 68,0 l 7,9 c -12,8 -26,13 -41,13 z"
       fill="#338af3" />
    <path
       id="path8923"
       d="m 256,174 c 22,11 12,33 11,34 l -2,-4 c -5,-11 -18,-18 -31,-18 v 11 c 6,0 11,5 11,11 -7,7 -9,17 -4,26 l 4,8 -13,23 29,-7 18,18 v -11 l 11,11 23,-11 -35,-21 -5,-21 28,16 c 4,11 12,21 23,26 9,-83 -42,-91 -61,-91 z"
       fill="#751a46" />
    <path
       id="path8925"
       d="m 222,271 c -15,0 -33,-12 -38,-40 l 11,-2 c 4,23 18,31 27,31 3,0 5,-1 6,-3 0,-2 0,-3 -6,-5 -3,-1 -7,-2 -10,-5 -10,-12 4,-24 11,-30 1,-1 2,-2 1,-3 0,0 -2,-2 -5,-2 -7,0 -12,-4 -14,-11 -2,-6 2,-13 8,-17 l 5,11 c -2,0 -2,2 -2,4 0,0 1,2 3,2 7,0 14,4 16,9 1,3 2,9 -5,15 -7,7 -11,12 -9,15 l 5,1 c 5,2 14,5 13,17 -1,8 -8,13 -17,13 h -1 z"
       fill="#6da544" />
    <path
       id="path8927"
       d="m 234,186 -12,11 v 11 l 18,-9 c 3,-1 3,-5 1,-7 z"
       fill="#ffda44" />
    <circle
       id="circle8929"
       fill="#ffda44"
       r="8"
       cy="275"
       cx="172" />
    <circle
       id="circle8931"
       fill="#ffda44"
       r="8"
       cy="302"
       cx="189" />
    <circle
       id="circle8933"
       fill="#ffda44"
       r="8"
       cy="323"
       cx="216" />
    <circle
       id="circle8935"
       fill="#ffda44"
       r="8"
       cy="323"
       cx="297" />
    <circle
       id="circle8937"
       fill="#ffda44"
       r="8"
       cy="302"
       cx="324" />
    <circle
       id="circle8939"
       fill="#ffda44"
       r="8"
       cy="275"
       cx="341" />
    <rect
       id="rect8941"
       ry="11"
       rx="11"
       fill="#ff9811"
       y="299"
       x="239"
       height="22"
       width="34" />
  </g>
</svg>
