<?xml version="1.0" encoding="UTF-8" standalone="no"?>
<svg
   xmlns:dc="http://purl.org/dc/elements/1.1/"
   xmlns:cc="http://creativecommons.org/ns#"
   xmlns:rdf="http://www.w3.org/1999/02/22-rdf-syntax-ns#"
   xmlns:svg="http://www.w3.org/2000/svg"
   xmlns="http://www.w3.org/2000/svg"
   xmlns:sodipodi="http://sodipodi.sourceforge.net/DTD/sodipodi-0.dtd"
   xmlns:inkscape="http://www.inkscape.org/namespaces/inkscape"
   inkscape:version="1.0 (4035a4fb49, 2020-05-01)"
   sodipodi:docname="nz.svg"
   id="svg911"
   version="1.1"
   viewBox="0 0 20 20"
   height="20"
   width="20">
  <metadata
     id="metadata917">
    <rdf:RDF>
      <cc:Work
         rdf:about="">
        <dc:format>image/svg+xml</dc:format>
        <dc:type
           rdf:resource="http://purl.org/dc/dcmitype/StillImage" />
        <dc:title></dc:title>
      </cc:Work>
    </rdf:RDF>
  </metadata>
  <defs
     id="defs915" />
  <sodipodi:namedview
     inkscape:current-layer="svg911"
     inkscape:window-maximized="1"
     inkscape:window-y="-9"
     inkscape:window-x="-9"
     inkscape:cy="256"
     inkscape:cx="256"
     inkscape:zoom="1.6210938"
     showgrid="false"
     id="namedview913"
     inkscape:window-height="1001"
     inkscape:window-width="1920"
     inkscape:pageshadow="2"
     inkscape:pageopacity="0"
     guidetolerance="10"
     gridtolerance="10"
     objecttolerance="10"
     borderopacity="1"
     bordercolor="#666666"
     pagecolor="#ffffff" />
  <mask
     id="a">
    <circle
       id="circle900"
       fill="#ffffff"
       r="256"
       cy="256"
       cx="256" />
  </mask>
  <g
     transform="scale(0.0390625)"
     id="g909"
     mask="url(#a)">
    <path
       id="path903"
       d="M 256,0 H 512 V 512 H 0 V 256 Z"
       fill="#0052b4" />
    <path
       id="path905"
       d="M 0,0 V 32 L 32,64 0,96 v 160 h 32 l 32,-32 32,32 h 32 v -83 l 83,83 h 45 l -8,-16 8,-15 v -14 l -83,-83 h 83 V 96 L 224,64 256,32 V 0 H 96 L 64,32 32,0 Z m 382,92 -11,35 h -37 l 30,21 -12,35 30,-22 30,22 -12,-35 30,-21 h -37 z m 61,72 -11,35 h -37 l 30,21 -11,35 29,-21 30,21 -12,-35 30,-21 h -37 z m -123,10 -11,35 h -37 l 30,22 -11,35 29,-22 30,22 -11,-35 29,-22 h -36 z m 59,130 -11,35 h -37 l 30,21 -11,35 29,-21 30,21 -11,-35 29,-21 h -36 z"
       fill="#eeeeee" />
    <path
       id="path907"
       d="M 32,0 V 32 H 0 V 96 H 32 V 256 H 96 V 96 H 256 V 32 H 96 V 0 Z m 96,128 128,128 v -31 l -97,-97 z m 251,201 -5,18 h -19 l 15,10 -6,18 15,-11 15,11 -5,-18 14,-10 h -18 z m -59,-129 -5,17 h -19 l 15,11 -6,17 15,-11 15,11 -6,-17 15,-11 h -18 z m 123,-11 -6,18 h -18 l 15,11 -6,17 15,-11 15,11 -6,-17 15,-11 h -18 z m -61,-72 -6,17 h -18 l 15,11 -6,17 15,-10 15,10 -6,-17 15,-11 h -18 z"
       fill="#d80027" />
  </g>
</svg>
