<?xml version="1.0" encoding="UTF-8" standalone="no"?>
<svg
   xmlns:dc="http://purl.org/dc/elements/1.1/"
   xmlns:cc="http://creativecommons.org/ns#"
   xmlns:rdf="http://www.w3.org/1999/02/22-rdf-syntax-ns#"
   xmlns:svg="http://www.w3.org/2000/svg"
   xmlns="http://www.w3.org/2000/svg"
   xmlns:sodipodi="http://sodipodi.sourceforge.net/DTD/sodipodi-0.dtd"
   xmlns:inkscape="http://www.inkscape.org/namespaces/inkscape"
   inkscape:version="1.0 (4035a4fb49, 2020-05-01)"
   height="20"
   width="20"
   sodipodi:docname="payment.svg"
   id="svg4"
   version="1.1"
   viewBox="0 32 20 20">
  <metadata
     id="metadata10">
    <rdf:RDF>
      <cc:Work
         rdf:about="">
        <dc:format>image/svg+xml</dc:format>
        <dc:type
           rdf:resource="http://purl.org/dc/dcmitype/StillImage" />
        <dc:title></dc:title>
      </cc:Work>
    </rdf:RDF>
  </metadata>
  <defs
     id="defs8" />
  <sodipodi:namedview
     inkscape:current-layer="svg4"
     inkscape:window-maximized="1"
     inkscape:window-y="-9"
     inkscape:window-x="-9"
     inkscape:cy="10.912952"
     inkscape:cx="24.648849"
     inkscape:zoom="36.642857"
     showgrid="false"
     id="namedview6"
     inkscape:window-height="1361"
     inkscape:window-width="3440"
     inkscape:pageshadow="2"
     inkscape:pageopacity="0"
     guidetolerance="10"
     gridtolerance="10"
     objecttolerance="10"
     borderopacity="1"
     bordercolor="#666666"
     pagecolor="#ffffff" />
  <path
     style="stroke-width:0.0347222;fill:#ffffff;fill-opacity:1"
     id="path2"
     fill="#5997e3ff"
     d="m 0,48.111111 c 0,0.920139 0.74652778,1.666667 1.6666667,1.666667 H 18.333333 C 19.253472,49.777778 20,49.03125 20,48.111111 V 42 H 0 Z M 6.6666667,45.75 c 0,-0.229167 0.1875,-0.416667 0.4166666,-0.416667 h 4.7222227 c 0.229166,0 0.416666,0.1875 0.416666,0.416667 v 1.388889 c 0,0.229166 -0.1875,0.416666 -0.416666,0.416666 H 7.0833333 c -0.2291666,0 -0.4166666,-0.1875 -0.4166666,-0.416666 z m -4.4444445,0 c 0,-0.229167 0.1875,-0.416667 0.4166667,-0.416667 h 2.5 c 0.2291667,0 0.4166667,0.1875 0.4166667,0.416667 v 1.388889 c 0,0.229166 -0.1875,0.416666 -0.4166667,0.416666 h -2.5 c -0.2291667,0 -0.4166667,-0.1875 -0.4166667,-0.416666 z M 20,35.888889 v 1.666666 H 0 V 35.888889 C 0,34.96875 0.74652778,34.222222 1.6666667,34.222222 H 18.333333 C 19.253472,34.222222 20,34.96875 20,35.888889 Z" />
</svg>
