<?xml version="1.0" encoding="UTF-8" standalone="no"?>
<svg
   xmlns:dc="http://purl.org/dc/elements/1.1/"
   xmlns:cc="http://creativecommons.org/ns#"
   xmlns:rdf="http://www.w3.org/1999/02/22-rdf-syntax-ns#"
   xmlns:svg="http://www.w3.org/2000/svg"
   xmlns="http://www.w3.org/2000/svg"
   xmlns:sodipodi="http://sodipodi.sourceforge.net/DTD/sodipodi-0.dtd"
   xmlns:inkscape="http://www.inkscape.org/namespaces/inkscape"
   inkscape:version="1.0 (4035a4fb49, 2020-05-01)"
   sodipodi:docname="ph.svg"
   id="svg1644"
   version="1.1"
   viewBox="0 0 20 20"
   height="20"
   width="20">
  <metadata
     id="metadata1650">
    <rdf:RDF>
      <cc:Work
         rdf:about="">
        <dc:format>image/svg+xml</dc:format>
        <dc:type
           rdf:resource="http://purl.org/dc/dcmitype/StillImage" />
        <dc:title></dc:title>
      </cc:Work>
    </rdf:RDF>
  </metadata>
  <defs
     id="defs1648" />
  <sodipodi:namedview
     inkscape:current-layer="svg1644"
     inkscape:window-maximized="1"
     inkscape:window-y="-9"
     inkscape:window-x="-9"
     inkscape:cy="256"
     inkscape:cx="256"
     inkscape:zoom="1.6210938"
     showgrid="false"
     id="namedview1646"
     inkscape:window-height="1001"
     inkscape:window-width="1920"
     inkscape:pageshadow="2"
     inkscape:pageopacity="0"
     guidetolerance="10"
     gridtolerance="10"
     objecttolerance="10"
     borderopacity="1"
     bordercolor="#666666"
     pagecolor="#ffffff" />
  <mask
     id="a">
    <circle
       id="circle1631"
       fill="#ffffff"
       r="256"
       cy="256"
       cx="256" />
  </mask>
  <g
     transform="scale(0.0390625)"
     id="g1642"
     mask="url(#a)">
    <path
       id="path1634"
       d="M 0,0 H 512 V 256 L 247,301.2 Z"
       fill="#0052b4" />
    <path
       id="path1636"
       d="M 210,256 H 512 V 512 H 0 Z"
       fill="#d80027" />
    <path
       id="path1638"
       d="M 0,0 V 512 L 256,256 Z"
       fill="#eeeeee" />
    <path
       id="path1640"
       d="M 175.3,256 144,241.3 160.7,211 l -34,6.5 -4.3,-34.3 L 98.8,208.4 75,183.2 70.7,217.5 36.7,211 53.4,241.3 22.3,256 53.5,270.7 37,301 l 34,-6.5 4.2,34.3 23.7,-25.2 23.6,25.2 4.3,-34.3 34,6.5 -16.7,-30.3 z m -107,-155.8 10.4,14.5 17,-5.4 -10.6,14.4 10.4,14.5 -17,-5.6 -10.5,14.4 0.2,-17.9 -17,-5.6 17,-5.4 z m 0,264.8 10.4,14.6 17,-5.4 -10.6,14.3 10.4,14.6 -17,-5.7 -10.5,14.4 0.2,-17.9 -17,-5.6 17,-5.4 z m 148.4,-132.4 -10.4,14.4 -17,-5.4 10.5,14.4 -10.4,14.6 17,-5.7 10.6,14.4 -0.1,-17.9 17,-5.6 -17.1,-5.4 z"
       fill="#ffda44" />
  </g>
</svg>
