<?xml version="1.0" encoding="UTF-8" standalone="no"?>
<svg
   xmlns:dc="http://purl.org/dc/elements/1.1/"
   xmlns:cc="http://creativecommons.org/ns#"
   xmlns:rdf="http://www.w3.org/1999/02/22-rdf-syntax-ns#"
   xmlns:svg="http://www.w3.org/2000/svg"
   xmlns="http://www.w3.org/2000/svg"
   xmlns:sodipodi="http://sodipodi.sourceforge.net/DTD/sodipodi-0.dtd"
   xmlns:inkscape="http://www.inkscape.org/namespaces/inkscape"
   inkscape:version="1.0 (4035a4fb49, 2020-05-01)"
   sodipodi:docname="py.svg"
   id="svg3592"
   version="1.1"
   viewBox="0 0 20 20"
   height="20"
   width="20">
  <metadata
     id="metadata3598">
    <rdf:RDF>
      <cc:Work
         rdf:about="">
        <dc:format>image/svg+xml</dc:format>
        <dc:type
           rdf:resource="http://purl.org/dc/dcmitype/StillImage" />
        <dc:title></dc:title>
      </cc:Work>
    </rdf:RDF>
  </metadata>
  <defs
     id="defs3596" />
  <sodipodi:namedview
     inkscape:current-layer="svg3592"
     inkscape:window-maximized="1"
     inkscape:window-y="-9"
     inkscape:window-x="-9"
     inkscape:cy="256"
     inkscape:cx="256"
     inkscape:zoom="1.6210938"
     showgrid="false"
     id="namedview3594"
     inkscape:window-height="1001"
     inkscape:window-width="1920"
     inkscape:pageshadow="2"
     inkscape:pageopacity="0"
     guidetolerance="10"
     gridtolerance="10"
     objecttolerance="10"
     borderopacity="1"
     bordercolor="#666666"
     pagecolor="#ffffff" />
  <mask
     id="a">
    <circle
       id="circle3577"
       fill="#ffffff"
       r="256"
       cy="256"
       cx="256" />
  </mask>
  <g
     transform="scale(0.0390625)"
     id="g3590"
     mask="url(#a)">
    <path
       id="path3580"
       d="M 0,144.7 255.3,108.2 512,144.7 V 367.3 L 250.5,407 0,367.3 Z"
       fill="#eeeeee" />
    <path
       id="path3582"
       d="M 0,0 H 512 V 144.7 H 0 Z"
       fill="#d80027" />
    <path
       id="path3584"
       d="M 0,367.3 H 512 V 512 H 0 Z"
       fill="#0052b4" />
    <path
       id="path3586"
       d="m 319,182 -23.6,23.5 a 55.5,55.5 0 0 1 -39.4,95 55.7,55.7 0 0 1 -39.3,-95 L 193,182 a 89,89 0 1 0 126,0 z"
       fill="#6da544" />
    <path
       id="path3588"
       d="m 256,211.5 8.3,25.5 H 291 l -21.7,15.8 8.3,25.5 -21.7,-15.8 -21.7,15.8 8.3,-25.5 -21.7,-15.8 h 26.8 z"
       fill="#ffda44" />
  </g>
</svg>
