<?xml version="1.0" encoding="UTF-8" standalone="no"?>
<svg
   xmlns:dc="http://purl.org/dc/elements/1.1/"
   xmlns:cc="http://creativecommons.org/ns#"
   xmlns:rdf="http://www.w3.org/1999/02/22-rdf-syntax-ns#"
   xmlns:svg="http://www.w3.org/2000/svg"
   xmlns="http://www.w3.org/2000/svg"
   xmlns:sodipodi="http://sodipodi.sourceforge.net/DTD/sodipodi-0.dtd"
   xmlns:inkscape="http://www.inkscape.org/namespaces/inkscape"
   inkscape:version="1.0 (4035a4fb49, 2020-05-01)"
   sodipodi:docname="rs.svg"
   id="svg4886"
   version="1.1"
   viewBox="0 0 20 20"
   height="20"
   width="20">
  <metadata
     id="metadata4892">
    <rdf:RDF>
      <cc:Work
         rdf:about="">
        <dc:format>image/svg+xml</dc:format>
        <dc:type
           rdf:resource="http://purl.org/dc/dcmitype/StillImage" />
        <dc:title></dc:title>
      </cc:Work>
    </rdf:RDF>
  </metadata>
  <defs
     id="defs4890" />
  <sodipodi:namedview
     inkscape:current-layer="svg4886"
     inkscape:window-maximized="1"
     inkscape:window-y="-9"
     inkscape:window-x="-9"
     inkscape:cy="256"
     inkscape:cx="256"
     inkscape:zoom="1.6210938"
     showgrid="false"
     id="namedview4888"
     inkscape:window-height="1001"
     inkscape:window-width="1920"
     inkscape:pageshadow="2"
     inkscape:pageopacity="0"
     guidetolerance="10"
     gridtolerance="10"
     objecttolerance="10"
     borderopacity="1"
     bordercolor="#666666"
     pagecolor="#ffffff" />
  <mask
     id="a">
    <circle
       id="circle4869"
       fill="#ffffff"
       r="256"
       cy="256"
       cx="256" />
  </mask>
  <g
     transform="scale(0.0390625)"
     id="g4884"
     mask="url(#a)">
    <path
       id="path4872"
       d="M 0,167 253.8,147.7 512,167 V 345 L 257.1,377.3 0,345 Z"
       fill="#0052b4" />
    <path
       id="path4874"
       d="M 0,0 H 512 V 167 H 0 Z"
       fill="#d80027" />
    <path
       id="path4876"
       d="M 0,345 H 512 V 512 H 0 Z"
       fill="#eeeeee" />
    <path
       id="path4878"
       d="m 66.2,144.7 v 127.7 c 0,72.6 94.9,95 94.9,95 0,0 94.9,-22.4 94.9,-95 V 144.7 Z"
       fill="#d80027" />
    <path
       id="path4880"
       d="m 105.4,167 h 111.4 v -44.6 l -22.3,11.2 -33.4,-33.4 -33.4,33.4 -22.3,-11.2 z m 128.3,123.2 -72.3,-72.4 -72.4,72.4 23.7,23.6 48.7,-48.7 48.7,48.7 z"
       fill="#ffda44" />
    <path
       id="path4882"
       d="M 233.7,222.6 H 200 a 22.1,22.1 0 0 0 3,-11.1 22.3,22.3 0 0 0 -42,-10.5 22.3,22.3 0 0 0 -41.9,10.5 22.1,22.1 0 0 0 3,11.1 H 89 a 23,23 0 0 0 23,22.3 h -0.7 c 0,12.3 10,22.2 22.3,22.2 0,11 7.8,20 18.1,21.9 l -17.5,39.6 a 72.1,72.1 0 0 0 27.2,5.3 72.1,72.1 0 0 0 27.2,-5.3 L 171.1,289 c 10.3,-2 18.1,-11 18.1,-21.9 12.3,0 22.3,-10 22.3,-22.2 h -0.8 a 23,23 0 0 0 23,-22.3 z"
       fill="#eeeeee" />
  </g>
</svg>
