<?xml version="1.0" encoding="UTF-8" standalone="no"?>
<svg
   xmlns:dc="http://purl.org/dc/elements/1.1/"
   xmlns:cc="http://creativecommons.org/ns#"
   xmlns:rdf="http://www.w3.org/1999/02/22-rdf-syntax-ns#"
   xmlns:svg="http://www.w3.org/2000/svg"
   xmlns="http://www.w3.org/2000/svg"
   xmlns:sodipodi="http://sodipodi.sourceforge.net/DTD/sodipodi-0.dtd"
   xmlns:inkscape="http://www.inkscape.org/namespaces/inkscape"
   inkscape:version="1.0 (4035a4fb49, 2020-05-01)"
   sodipodi:docname="ru.svg"
   id="svg5629"
   version="1.1"
   fill="#ffffff"
   viewBox="-25200 -12600 840 840"
   height="20"
   width="20">
  <metadata
     id="metadata5635">
    <rdf:RDF>
      <cc:Work
         rdf:about="">
        <dc:format>image/svg+xml</dc:format>
        <dc:type
           rdf:resource="http://purl.org/dc/dcmitype/StillImage" />
        <dc:title>Flag of the CIS</dc:title>
      </cc:Work>
    </rdf:RDF>
  </metadata>
  <defs
     id="defs5633" />
  <sodipodi:namedview
     inkscape:current-layer="svg5629"
     inkscape:window-maximized="1"
     inkscape:window-y="-9"
     inkscape:window-x="-9"
     inkscape:cy="17.223522"
     inkscape:cx="41.291451"
     inkscape:zoom="15.914617"
     showgrid="false"
     id="namedview5631"
     inkscape:window-height="1361"
     inkscape:window-width="3440"
     inkscape:pageshadow="2"
     inkscape:pageopacity="0"
     guidetolerance="10"
     gridtolerance="10"
     objecttolerance="10"
     borderopacity="1"
     bordercolor="#666666"
     pagecolor="#ffffff" />
  <title
     id="title5618">Flag of the CIS</title>
  <g
     transform="matrix(0.04444444,0,0,0.04444444,-24780,-12180)"
     id="g6227">
    <circle
       style="opacity:0.997742;fill:#0073cf;fill-opacity:1;stroke-width:2.62237;stroke-opacity:0.121569"
       id="path6219"
       cx="0"
       cy="0"
       r="9450" />
    <g
       id="g6217">
      <path
         style="display:inline"
         d="M -3920,7807 V 984 a 13440,13440 0 0 1 -4257,-2190 560,560 0 1 1 762,-813 9856,9856 0 0 0 4167,2812 v 7014 z m 896,0 V 633 a 9632,9632 0 0 1 -4726,-3426 672,672 0 1 1 1158,-663 7168,7168 0 0 0 4240,3955 v 7308 z m 896,0 V 338 a 6944,6944 0 0 1 -4676,-5225 963,963 0 1 1 1902,-94 4928,4928 0 0 0 3446,5209 v 7579 z m 896,0 V 60 a 4704,4704 0 0 1 -1912,-8039 1120,1120 0 1 1 1347,1780 3360,3360 0 0 0 1237,6152 v 7854 z"
         id="l" />
      <path
         id="path5625"
         d="m -336,-17 a 3360,3360 0 0 0 672,0 v 7824 h -672 z" />
      <circle
         id="circle5627"
         cy="-3360"
         r="1344"
         fill="#fecb00"
         cx="0" />
      <path
         id="l-4"
         d="M 3920,7806.9986 V 983.9995 A 13439.998,13439.998 0 0 0 8176.999,-1205.9998 559.9999,559.9999 0 1 0 7415,-2018.9997 9855.9985,9855.9985 0 0 1 3248,792.9999 v 7013.9987 z m -896,0 V 632.9996 A 9631.9986,9631.9986 0 0 0 7749.999,-2792.9996 671.99987,671.99987 0 1 0 6592,-3455.9994 7167.9989,7167.9989 0 0 1 2352,498.9999 v 7307.9987 z m -896,0 V 338 A 6943.999,6943.999 0 0 0 6804,-4886.9994 962.99986,962.99986 0 1 0 4902,-4980.9993 4927.999,4927.999 0 0 1 1456.001,227.9999 v 7578.9987 z m -896,0 V 59.9999 A 4703.9992,4703.9992 0 0 0 3144,-7978.9989 1119.9998,1119.9998 0 1 0 1797,-6198.9992 3359.9995,3359.9995 0 0 1 560.001,-47.0001 v 7853.9987 z"
         style="display:inline;stroke-width:0.999999" />
    </g>
  </g>
</svg>
