<?xml version="1.0" encoding="UTF-8"?>
<svg xmlns="http://www.w3.org/2000/svg" xmlns:xlink="http://www.w3.org/1999/xlink" width="20px" height="20px" viewBox="0 0 20 20" version="1.1">
<defs>
<filter id="alpha" filterUnits="objectBoundingBox" x="0%" y="0%" width="100%" height="100%">
  <feColorMatrix type="matrix" in="SourceGraphic" values="0 0 0 0 1 0 0 0 0 1 0 0 0 0 1 0 0 0 1 0"/>
</filter>
<mask id="mask0">
  <g filter="url(#alpha)">
<rect x="0" y="0" width="20" height="20" style="fill:rgb(0%,0%,0%);fill-opacity:0.988235;stroke:none;"/>
  </g>
</mask>
<clipPath id="clip1">
  <rect x="0" y="0" width="20" height="20"/>
</clipPath>
<g id="surface5" clip-path="url(#clip1)">
<path style=" stroke:none;fill-rule:evenodd;fill:rgb(100%,0%,0%);fill-opacity:1;" d="M 8.601562 -0.0390625 C 9.507812 -0.0390625 10.414062 -0.0390625 11.320312 -0.0390625 C 15.144531 0.648438 17.824219 2.78125 19.359375 6.359375 C 19.613281 7.101562 19.8125 7.851562 19.960938 8.601562 C 19.960938 9.507812 19.960938 10.414062 19.960938 11.320312 C 19.269531 15.144531 17.136719 17.824219 13.558594 19.359375 C 12.816406 19.613281 12.070312 19.8125 11.320312 19.960938 C 10.414062 19.960938 9.507812 19.960938 8.601562 19.960938 C 4.777344 19.269531 2.097656 17.136719 0.558594 13.558594 C 0.308594 12.816406 0.109375 12.070312 -0.0390625 11.320312 C -0.0390625 10.414062 -0.0390625 9.507812 -0.0390625 8.601562 C 0.648438 4.777344 2.78125 2.097656 6.359375 0.558594 C 7.101562 0.308594 7.851562 0.109375 8.601562 -0.0390625 Z M 8.601562 -0.0390625 "/>
</g>
</defs>
<g id="surface1">
<use xlink:href="#surface5" mask="url(#mask0)"/>
<path style=" stroke:none;fill-rule:evenodd;fill:rgb(100%,99.607843%,99.607843%);fill-opacity:1;" d="M 8.121094 3.71875 C 9.347656 3.71875 10.574219 3.71875 11.800781 3.71875 C 11.800781 5.1875 11.800781 6.652344 11.800781 8.121094 C 13.265625 8.121094 14.734375 8.121094 16.199219 8.121094 C 16.199219 9.347656 16.199219 10.574219 16.199219 11.800781 C 14.734375 11.800781 13.265625 11.800781 11.800781 11.800781 C 11.800781 13.265625 11.800781 14.734375 11.800781 16.199219 C 10.574219 16.199219 9.347656 16.199219 8.121094 16.199219 C 8.121094 14.734375 8.121094 13.265625 8.121094 11.800781 C 6.652344 11.800781 5.1875 11.800781 3.71875 11.800781 C 3.71875 10.574219 3.71875 9.347656 3.71875 8.121094 C 5.1875 8.121094 6.652344 8.121094 8.121094 8.121094 C 8.121094 6.652344 8.121094 5.1875 8.121094 3.71875 Z M 8.121094 3.71875 "/>
<path style=" stroke:none;fill-rule:evenodd;fill:rgb(100%,43.921569%,43.921569%);fill-opacity:1;" d="M 8.121094 3.71875 C 8.121094 5.1875 8.121094 6.652344 8.121094 8.121094 C 6.652344 8.121094 5.1875 8.121094 3.71875 8.121094 C 5.144531 8.039062 6.585938 8.011719 8.039062 8.039062 C 8.011719 6.585938 8.039062 5.144531 8.121094 3.71875 Z M 8.121094 3.71875 "/>
<path style=" stroke:none;fill-rule:evenodd;fill:rgb(100%,43.921569%,43.921569%);fill-opacity:1;" d="M 11.800781 3.71875 C 11.878906 5.144531 11.90625 6.585938 11.878906 8.039062 C 13.332031 8.011719 14.773438 8.039062 16.199219 8.121094 C 14.734375 8.121094 13.265625 8.121094 11.800781 8.121094 C 11.800781 6.652344 11.800781 5.1875 11.800781 3.71875 Z M 11.800781 3.71875 "/>
<path style=" stroke:none;fill-rule:evenodd;fill:rgb(100%,43.921569%,43.921569%);fill-opacity:1;" d="M 3.71875 11.800781 C 5.1875 11.800781 6.652344 11.800781 8.121094 11.800781 C 8.121094 13.265625 8.121094 14.734375 8.121094 16.199219 C 8.039062 14.773438 8.011719 13.332031 8.039062 11.878906 C 6.585938 11.90625 5.144531 11.878906 3.71875 11.800781 Z M 3.71875 11.800781 "/>
<path style=" stroke:none;fill-rule:evenodd;fill:rgb(100%,43.921569%,43.921569%);fill-opacity:1;" d="M 16.199219 11.800781 C 14.773438 11.878906 13.332031 11.90625 11.878906 11.878906 C 11.90625 13.332031 11.878906 14.773438 11.800781 16.199219 C 11.800781 14.734375 11.800781 13.265625 11.800781 11.800781 C 13.265625 11.800781 14.734375 11.800781 16.199219 11.800781 Z M 16.199219 11.800781 "/>
</g>
</svg>
