<?xml version="1.0" encoding="UTF-8" standalone="no"?>
<svg
   xmlns:dc="http://purl.org/dc/elements/1.1/"
   xmlns:cc="http://creativecommons.org/ns#"
   xmlns:rdf="http://www.w3.org/1999/02/22-rdf-syntax-ns#"
   xmlns:svg="http://www.w3.org/2000/svg"
   xmlns="http://www.w3.org/2000/svg"
   xmlns:sodipodi="http://sodipodi.sourceforge.net/DTD/sodipodi-0.dtd"
   xmlns:inkscape="http://www.inkscape.org/namespaces/inkscape"
   inkscape:version="1.0 (4035a4fb49, 2020-05-01)"
   sodipodi:docname="default.svg"
   id="svg6709"
   version="1.1"
   viewBox="0 0 19.999999 20"
   height="20"
   width="20">
  <metadata
     id="metadata6715">
    <rdf:RDF>
      <cc:Work
         rdf:about="">
        <dc:format>image/svg+xml</dc:format>
        <dc:type
           rdf:resource="http://purl.org/dc/dcmitype/StillImage" />
        <dc:title></dc:title>
      </cc:Work>
    </rdf:RDF>
  </metadata>
  <defs
     id="defs6713" />
  <sodipodi:namedview
     inkscape:current-layer="svg6709"
     inkscape:window-maximized="1"
     inkscape:window-y="-9"
     inkscape:window-x="-9"
     inkscape:cy="256"
     inkscape:cx="256"
     inkscape:zoom="1.6210938"
     width="20mm"
     units="px"
     showgrid="false"
     id="namedview6711"
     inkscape:window-height="1001"
     inkscape:window-width="1920"
     inkscape:pageshadow="2"
     inkscape:pageopacity="0"
     guidetolerance="10"
     gridtolerance="10"
     objecttolerance="10"
     borderopacity="1"
     bordercolor="#666666"
     pagecolor="#ffffff" />
  <mask
     id="a">
    <circle
       id="circle6698"
       fill="#ffffff"
       r="256"
       cy="256"
       cx="256" />
  </mask>
  <g
     transform="scale(0.0390625)"
     id="g6707"
     mask="url(#a)">
    <path
       id="path6701"
       d="M 0,0 8,22 0,45 v 23 l 32,54 -32,54 v 32 l 32,48 -32,48 v 32 l 32,54 -32,54 v 68 l 22,-8 23,8 h 23 l 54,-32 54,32 h 32 l 48,-32 48,32 h 32 l 54,-32 54,32 h 68 l -8,-22 8,-23 v -23 l -32,-54 32,-54 v -32 l -32,-48 32,-48 V 176 L 480,122 512,68 V 0 L 490,8 467,0 H 444 L 390,32 336,0 H 304 L 256,32 208,0 H 176 L 122,32 68,0 Z"
       fill="#eeeeee" />
    <path
       id="path6703"
       d="M 336,0 V 108 L 444,0 Z M 512,68 404,176 H 512 Z M 0,176 H 108 L 0,68 Z M 68,0 176,108 V 0 Z M 176,512 V 404 L 68,512 Z M 0,444 108,336 H 0 Z M 512,336 H 404 L 512,444 Z M 444,512 336,404 v 108 z"
       fill="#0052b4" />
    <path
       id="path6705"
       d="m 0,0 v 45 l 131,131 h 45 z M 208,0 V 208 H 0 v 96 h 208 v 208 h 96 V 304 H 512 V 208 H 304 V 0 Z M 467,0 336,131 v 45 L 512,0 Z M 176,336 0,512 H 45 L 176,381 Z m 160,0 176,176 V 467 L 381,336 Z"
       fill="#d80027" />
  </g>
</svg>
