<?xml version="1.0" encoding="UTF-8" standalone="no"?>
<svg
   xmlns:dc="http://purl.org/dc/elements/1.1/"
   xmlns:cc="http://creativecommons.org/ns#"
   xmlns:rdf="http://www.w3.org/1999/02/22-rdf-syntax-ns#"
   xmlns:svg="http://www.w3.org/2000/svg"
   xmlns="http://www.w3.org/2000/svg"
   xmlns:sodipodi="http://sodipodi.sourceforge.net/DTD/sodipodi-0.dtd"
   xmlns:inkscape="http://www.inkscape.org/namespaces/inkscape"
   inkscape:version="1.0 (4035a4fb49, 2020-05-01)"
   sodipodi:docname="za.svg"
   id="svg6773"
   version="1.1"
   viewBox="0 0 20 20"
   height="20"
   width="20">
  <metadata
     id="metadata6779">
    <rdf:RDF>
      <cc:Work
         rdf:about="">
        <dc:format>image/svg+xml</dc:format>
        <dc:type
           rdf:resource="http://purl.org/dc/dcmitype/StillImage" />
        <dc:title></dc:title>
      </cc:Work>
    </rdf:RDF>
  </metadata>
  <defs
     id="defs6777" />
  <sodipodi:namedview
     inkscape:current-layer="svg6773"
     inkscape:window-maximized="1"
     inkscape:window-y="-9"
     inkscape:window-x="-9"
     inkscape:cy="256"
     inkscape:cx="256"
     inkscape:zoom="1.6210938"
     showgrid="false"
     id="namedview6775"
     inkscape:window-height="1001"
     inkscape:window-width="1920"
     inkscape:pageshadow="2"
     inkscape:pageopacity="0"
     guidetolerance="10"
     gridtolerance="10"
     objecttolerance="10"
     borderopacity="1"
     bordercolor="#666666"
     pagecolor="#ffffff" />
  <mask
     id="a">
    <circle
       id="circle6756"
       fill="#ffffff"
       r="256"
       cy="256"
       cx="256" />
  </mask>
  <g
     transform="scale(0.0390625)"
     id="g6771"
     mask="url(#a)">
    <path
       id="path6759"
       d="M 0,0 192,256 0,512 H 47 L 512,323 v -34 l -32,-33 32,-33 V 189 L 47,0 Z"
       fill="#eeeeee" />
    <path
       id="path6761"
       d="M 0,142 V 370 L 140,256 Z"
       fill="#333333" />
    <path
       id="path6763"
       d="M 192,256 0,95 v 47 L 114,256 0,370 v 47 z"
       fill="#ffda44" />
    <path
       id="path6765"
       d="M 512,223 H 223 L 0,0 V 94 L 161,256 0,418 v 94 L 223,289 h 289 z"
       fill="#6da544" />
    <path
       id="path6767"
       d="M 512,0 H 47 l 189,189 h 276 z"
       fill="#d80027" />
    <path
       id="path6769"
       d="M 512,512 H 47 L 236,323 h 276 z"
       fill="#0052b4" />
  </g>
</svg>
