<?xml version="1.0" encoding="UTF-8" standalone="no"?>
<svg
   xmlns:dc="http://purl.org/dc/elements/1.1/"
   xmlns:cc="http://creativecommons.org/ns#"
   xmlns:rdf="http://www.w3.org/1999/02/22-rdf-syntax-ns#"
   xmlns:svg="http://www.w3.org/2000/svg"
   xmlns="http://www.w3.org/2000/svg"
   xmlns:sodipodi="http://sodipodi.sourceforge.net/DTD/sodipodi-0.dtd"
   xmlns:inkscape="http://www.inkscape.org/namespaces/inkscape"
   width="19"
   height="19"
   viewBox="0 0 5.0270832 5.0270835"
   version="1.1"
   id="svg866"
   inkscape:version="1.0 (4035a4fb49, 2020-05-01)"
   sodipodi:docname="billet-mobile-hover-android.svg">
  <defs
     id="defs860" />
  <sodipodi:namedview
     id="base"
     pagecolor="#ffffff"
     bordercolor="#666666"
     borderopacity="1.0"
     inkscape:pageopacity="0.0"
     inkscape:pageshadow="2"
     inkscape:zoom="15.839192"
     inkscape:cx="18.607115"
     inkscape:cy="7.6008336"
     inkscape:document-units="mm"
     inkscape:current-layer="layer1"
     inkscape:document-rotation="0"
     showgrid="false"
     units="px"
     inkscape:window-width="1895"
     inkscape:window-height="1030"
     inkscape:window-x="7"
     inkscape:window-y="0"
     inkscape:window-maximized="0" />
  <metadata
     id="metadata863">
    <rdf:RDF>
      <cc:Work
         rdf:about="">
        <dc:format>image/svg+xml</dc:format>
        <dc:type
           rdf:resource="http://purl.org/dc/dcmitype/StillImage" />
        <dc:title></dc:title>
      </cc:Work>
    </rdf:RDF>
  </metadata>
  <g
     inkscape:label="Слой 1"
     inkscape:groupmode="layer"
     id="layer1">
    <path
       id="path14"
       stroke-linecap="round"
       d="m 1.2567717,3.7703092 c 0,0.11521 0.0942,0.20947 0.20946,0.20947 h 0.20946 v 0.73311 c 0,0.17386 0.14034,0.3142 0.31419,0.3142 0.17386,0 0.3142,-0.14034 0.3142,-0.3142 v -0.73311 h 0.41892 v 0.73311 c 0,0.17386 0.14034,0.3142 0.31419,0.3142 0.17386,0 0.3142,-0.14034 0.3142,-0.3142 v -0.73311 h 0.20946 c 0.1152,0 0.20946,-0.0943 0.20946,-0.20947 v -2.09461 h -2.51354 z m -0.52366003,-2.09461 c -0.17385,0 -0.31419,0.14034 -0.31419,0.31419 v 1.46623 c 0,0.17386 0.14034,0.31419 0.31419,0.31419 0.17386,0 0.31420003,-0.14033 0.31420003,-0.31419 v -1.46623 c 0,-0.17385 -0.14034003,-0.31419 -0.31420003,-0.31419 z m 3.56085003,0 c -0.17385,0 -0.31419,0.14034 -0.31419,0.31419 v 1.46623 c 0,0.17386 0.14034,0.31419 0.31419,0.31419 0.17386,0 0.3142,-0.14033 0.3142,-0.31419 v -1.46623 c 0,-0.17385 -0.14034,-0.31419 -0.3142,-0.31419 z m -1.04102,-1.22326003 0.2723,-0.2723 c 0.0419,-0.0419 0.0419,-0.10683 0,-0.14872 -0.0419,-0.0419 -0.10683,-0.0419 -0.14872,0 l -0.31,0.31001 c -0.16548,-0.0838 -0.35399,-0.13197 -0.55298,-0.13197 -0.20109,0 -0.3896,0.0482 -0.55717,0.13197 l -0.3121,-0.31001 c -0.0419,-0.0419 -0.10682,-0.0419 -0.14872,0 -0.0419,0.0419 -0.0419,0.10683 0,0.14872 l 0.2744,0.27439 c -0.31,0.22832 -0.51318,0.59488003 -0.51318,1.01171003 h 2.51354 c 0,-0.41683 -0.20318,-0.78549003 -0.51737,-1.01380003 z m -1.15833,0.59487003 h -0.20946 V 0.83784917 h 0.20946 z m 1.04731,0 h -0.20946 V 0.83784917 h 0.20946 z"
       vector-effect="non-scaling-stroke"
       style="opacity:1;fill:#5997e3;fill-rule:nonzero;stroke:none;stroke-width:0.209461;stroke-linecap:butt;stroke-linejoin:miter;stroke-miterlimit:4;stroke-dasharray:none;stroke-dashoffset:0;fill-opacity:1" />
  </g>
</svg>
