<?xml version="1.0" encoding="UTF-8" standalone="no"?>
<svg
   xmlns:dc="http://purl.org/dc/elements/1.1/"
   xmlns:cc="http://creativecommons.org/ns#"
   xmlns:rdf="http://www.w3.org/1999/02/22-rdf-syntax-ns#"
   xmlns:svg="http://www.w3.org/2000/svg"
   xmlns="http://www.w3.org/2000/svg"
   xmlns:sodipodi="http://sodipodi.sourceforge.net/DTD/sodipodi-0.dtd"
   xmlns:inkscape="http://www.inkscape.org/namespaces/inkscape"
   sodipodi:docname="billet-mobile-iphone.svg"
   inkscape:version="1.0 (4035a4fb49, 2020-05-01)"
   id="svg858"
   version="1.1"
   viewBox="0 0 5.0270836 5.0270836"
   height="19"
   width="19">
  <defs
     id="defs852" />
  <sodipodi:namedview
     units="px"
     inkscape:window-maximized="0"
     inkscape:window-y="0"
     inkscape:window-x="7"
     inkscape:window-height="1030"
     inkscape:window-width="1895"
     showgrid="false"
     inkscape:document-rotation="0"
     inkscape:current-layer="layer1"
     inkscape:document-units="mm"
     inkscape:cy="21.174784"
     inkscape:cx="60.344645"
     inkscape:zoom="5.6"
     inkscape:pageshadow="2"
     inkscape:pageopacity="0.0"
     borderopacity="1.0"
     bordercolor="#666666"
     pagecolor="#ffffff"
     id="base" />
  <metadata
     id="metadata855">
    <rdf:RDF>
      <cc:Work
         rdf:about="">
        <dc:format>image/svg+xml</dc:format>
        <dc:type
           rdf:resource="http://purl.org/dc/dcmitype/StillImage" />
        <dc:title></dc:title>
      </cc:Work>
    </rdf:RDF>
  </metadata>
  <g
     id="layer1"
     inkscape:groupmode="layer"
     inkscape:label="Слой 1">
    <path
       style="opacity:1;fill:#000000;fill-rule:nonzero;stroke:none;stroke-width:0.0112232;stroke-linecap:butt;stroke-linejoin:miter;stroke-miterlimit:4;stroke-dasharray:none;stroke-dashoffset:0"
       d="M 3.9332776,2.6565337 C 3.9310286,2.244642 4.1173382,1.933759 4.4944382,1.7048057 4.2834417,1.4029013 3.9647027,1.2367978 3.5438323,1.2042503 3.1454085,1.1728255 2.7099477,1.4365709 2.5505783,1.4365709 2.38223,1.4365709 1.9961518,1.2154737 1.6931251,1.2154737 1.0668701,1.2255755 0.40133372,1.7149065 0.40133372,2.7104052 q 0,0.4410721 0.1616141,0.9113245 C 0.70660492,4.0336214 1.2251174,5.0437104 1.766076,5.0268755 2.0489008,5.0201455 2.2486739,4.82598 2.6167953,4.82598 c 0.3568978,0 0.542081,0.2008955 0.8574532,0.2008955 C 4.0196963,5.01902 4.4888264,4.1009608 4.6257496,3.6879465 3.8939965,3.3433941 3.9332776,2.6778578 3.9332776,2.6565337 Z M 3.298044,0.81368264 C 3.6044375,0.45005068 3.5763795,0.11896591 3.5674009,-1.1887699e-8 3.2969216,0.01571359 2.9837941,0.18406056 2.8053451,0.39168994 2.608939,0.61390952 2.4933399,0.88887829 2.5180308,1.1986388 2.8109569,1.221086 3.0780691,1.0706942 3.298044,0.81368264 Z"
       stroke-linecap="round"
       id="path10" />
  </g>
</svg>
