<svg width="98" height="56" viewBox="0 0 98 56" fill="none" xmlns="http://www.w3.org/2000/svg">
<path d="M46.2979 46.5324L46.3002 46.5333C48.5075 47.3569 51.0133 47.7634 53.8098 47.7634C56.6684 47.7634 59.1917 47.3574 61.3697 46.5324C63.5479 45.7073 65.2882 44.5094 66.5672 42.9275L66.5703 42.9235C67.8636 41.2899 68.5 39.307 68.5 37.0042C68.5 35.0161 67.9248 33.2753 66.7639 31.8062C65.8351 30.6052 64.559 29.7019 62.9602 29.0824C64.1299 28.4963 65.1122 27.7099 65.8986 26.7205L65.8986 26.7206L65.9024 26.7157C66.9671 25.3419 67.4933 23.7136 67.4933 21.8551C67.4933 19.8121 66.9392 18.0276 65.8151 16.5265C64.7253 14.9964 63.1378 13.842 61.0869 13.0478C59.0636 12.252 56.6331 11.863 53.8098 11.863C51.0479 11.863 48.6348 12.2527 46.5821 13.0473C44.5288 13.8421 42.9262 14.9969 41.8051 16.5257L41.8039 16.5273C40.7116 18.0293 40.1742 19.8133 40.1742 21.8551C40.1742 23.7433 40.6992 25.3882 41.7652 26.7636L41.7651 26.7637L41.769 26.7685C42.5453 27.7452 43.5046 28.5163 44.6396 29.0833C43.0716 29.6958 41.816 30.6194 40.8954 31.865L40.8942 31.8665C39.7764 33.3908 39.2154 35.1085 39.2154 37.0042C39.2154 39.3038 39.8341 41.285 41.0932 42.9184L41.0931 42.9185L41.1004 42.9275C42.3793 44.5094 44.1196 45.7073 46.2979 46.5324ZM12.863 46.5922V47.0922H13.363H36.3743H36.8743V46.5922V37.963V37.463H36.3743H31.4091V13.0342V12.5342H30.9091H20.8417H20.682L20.5518 12.6268L13.0732 17.9481L12.863 18.0976V18.3555V28.375V29.3419L13.652 28.783L19.7664 24.452V37.463H13.363H12.863V37.963V46.5922Z" fill="black" stroke="black"/>
<path d="M42.9348 43.1695L42.9371 43.1703C45.1444 43.9939 47.6503 44.4004 50.4468 44.4004C53.3054 44.4004 55.8286 43.9944 58.0066 43.1694C60.1849 42.3444 61.9251 41.1464 63.2041 39.5646L63.2073 39.5605C64.5006 37.927 65.137 35.944 65.137 33.6412C65.137 31.6531 64.5617 29.9123 63.4009 28.4433C62.4721 27.2422 61.196 26.3389 59.5971 25.7194C60.7669 25.1333 61.7491 24.3469 62.5355 23.3576L62.5356 23.3576L62.5393 23.3527C63.604 21.9789 64.1303 20.3506 64.1303 18.4921C64.1303 16.4491 63.5762 14.6647 62.452 13.1635C61.3622 11.6334 59.7748 10.479 57.7239 9.68484C55.7006 8.889 53.2701 8.5 50.4468 8.5C47.6849 8.5 45.2717 8.8897 43.2191 9.68428C41.1658 10.4791 39.5632 11.6339 38.4421 13.1627L38.4409 13.1643C37.3486 14.6663 36.8112 16.4503 36.8112 18.4921C36.8112 20.3803 37.3361 22.0252 38.4021 23.4007L38.4021 23.4007L38.4059 23.4055C39.1823 24.3822 40.1416 25.1534 41.2766 25.7203C39.7085 26.3328 38.453 27.2564 37.5323 28.502L37.5312 28.5036C36.4134 30.0279 35.8524 31.7455 35.8524 33.6412C35.8524 35.9408 36.471 37.922 37.7302 39.5554L37.7301 39.5555L37.7374 39.5645C39.0163 41.1464 40.7566 42.3444 42.9348 43.1695ZM52.5819 18.0696L52.5884 18.0747L52.5951 18.0797C53.0449 18.4111 53.3026 18.9299 53.3026 19.7386C53.3026 20.5331 53.0374 21.0978 52.5374 21.5006C51.9985 21.9028 51.3127 22.1609 50.4575 22.2549C49.662 22.133 48.9774 21.8606 48.3932 21.4445C47.904 21.0756 47.6389 20.5342 47.6389 19.7386C47.6389 18.9299 47.8966 18.4111 48.3464 18.0797L48.3531 18.0747L48.3596 18.0696C48.8564 17.6774 49.5365 17.4581 50.4468 17.4581C51.3933 17.4581 52.0877 17.6794 52.5819 18.0696ZM9.5 43.2292V43.7292H10H33.0112H33.5112V43.2292V34.6V34.1H33.0112H28.0461V9.67119V9.17119H27.5461H17.4786H17.3189L17.1888 9.2638L9.71012 14.5851L9.5 14.7347V14.9925V25.012V25.9789L10.289 25.42L16.4034 21.089V34.1H10H9.5V34.6V43.2292ZM52.5686 35.1399C52.0358 35.335 51.3344 35.4423 50.4468 35.4423C49.6645 35.4423 48.9904 35.3375 48.4171 35.1384C47.857 34.9127 47.4252 34.5978 47.1046 34.2001C46.8306 33.8226 46.6801 33.3426 46.6801 32.7303C46.6801 31.7948 47.0255 31.1247 47.7077 30.6509C48.4828 30.1351 49.3925 29.8105 50.4483 29.6859C51.5722 29.8113 52.4931 30.1381 53.2303 30.6485C53.9148 31.1224 54.2614 31.7932 54.2614 32.7303C54.2614 33.3471 54.1086 33.8296 53.8308 34.2084C53.5439 34.5996 53.1316 34.9136 52.5686 35.1399Z" fill="#FFD9D9" stroke="black"/>
<path d="M78.9842 38V38.5H79.4842H86.1408H86.6408V38V32.4328H92H92.5V31.9328V25.6922V25.1922H92H86.6408V19.625V19.125H86.1408H79.4842H78.9842V19.625V25.1922H73.625H73.125V25.6922V31.9328V32.4328H73.625H78.9842V38Z" fill="black" stroke="black"/>
<path d="M76.3592 35.375V35.875H76.8592H83.5158H84.0158V35.375V29.8078H89.375H89.875V29.3078V23.0672V22.5672H89.375H84.0158V17V16.5H83.5158H76.8592H76.3592V17V22.5672H71H70.5V23.0672V29.3078V29.8078H71H76.3592V35.375Z" fill="#FFD9D9" stroke="black"/>
</svg>
