<svg width="54" height="54" viewBox="0 0 54 54" fill="none" xmlns="http://www.w3.org/2000/svg">
<path d="M49.9985 28.2476C49.8659 39.1792 40.963 48 30 48C18.9543 48 10 39.0457 10 28C10 16.9543 18.9543 8 30 8C30.0355 8 30.0709 8.00009 30.1063 8.00027C30.0363 8.49008 30 8.99081 30 9.5C30 15.299 34.701 20 40.5 20C41.6059 20 42.6718 19.829 43.6728 19.5121C44.2969 19.3145 45 19.8453 45 20.5C45 23.9461 47.0508 26.9133 49.9985 28.2476Z" fill="#0A0A0A"/>
<path d="M24 25C24 27.2091 22.2091 29 20 29C17.7909 29 16 27.2091 16 25C16 22.7909 17.7909 21 20 21C22.2091 21 24 22.7909 24 25Z" fill="#0A0A0A"/>
<path d="M42 33C42 34.6569 40.6569 36 39 36C37.3431 36 36 34.6569 36 33C36 31.3431 37.3431 30 39 30C40.6569 30 42 31.3431 42 33Z" fill="#0A0A0A"/>
<path d="M30 38.5C30 39.8807 28.8807 41 27.5 41C26.1193 41 25 39.8807 25 38.5C25 37.1193 26.1193 36 27.5 36C28.8807 36 30 37.1193 30 38.5Z" fill="#0A0A0A"/>
<path d="M49.9985 28.2476C49.8659 39.1792 40.963 48 30 48C18.9543 48 10 39.0457 10 28C10 16.9543 18.9543 8 30 8C30.0355 8 30.0709 8.00009 30.1063 8.00027C30.0363 8.49008 30 8.99081 30 9.5C30 15.299 34.701 20 40.5 20C41.6059 20 42.6718 19.829 43.6728 19.5121C44.2969 19.3145 45 19.8453 45 20.5C45 23.9461 47.0508 26.9133 49.9985 28.2476Z" stroke="#0A0A0A" stroke-width="2"/>
<path d="M24 25C24 27.2091 22.2091 29 20 29C17.7909 29 16 27.2091 16 25C16 22.7909 17.7909 21 20 21C22.2091 21 24 22.7909 24 25Z" stroke="#0A0A0A" stroke-width="2"/>
<path d="M42 33C42 34.6569 40.6569 36 39 36C37.3431 36 36 34.6569 36 33C36 31.3431 37.3431 30 39 30C40.6569 30 42 31.3431 42 33Z" stroke="#0A0A0A" stroke-width="2"/>
<path d="M30 38.5C30 39.8807 28.8807 41 27.5 41C26.1193 41 25 39.8807 25 38.5C25 37.1193 26.1193 36 27.5 36C28.8807 36 30 37.1193 30 38.5Z" stroke="#0A0A0A" stroke-width="2"/>
<path d="M43.9985 26.2476C43.8659 37.1792 34.963 46 24 46C12.9543 46 4 37.0457 4 26C4 14.9543 12.9543 6 24 6C24.0355 6 24.0709 6.00009 24.1063 6.00027C24.0363 6.49008 24 6.99081 24 7.5C24 13.299 28.701 18 34.5 18C35.6059 18 36.6718 17.829 37.6728 17.5121C38.2969 17.3145 39 17.8453 39 18.5C39 21.9461 41.0508 24.9133 43.9985 26.2476Z" fill="#FFDFAF"/>
<path d="M18 23C18 25.2091 16.2091 27 14 27C11.7909 27 10 25.2091 10 23C10 20.7909 11.7909 19 14 19C16.2091 19 18 20.7909 18 23Z" fill="#0A0A0A"/>
<path d="M36 31C36 32.6569 34.6569 34 33 34C31.3431 34 30 32.6569 30 31C30 29.3431 31.3431 28 33 28C34.6569 28 36 29.3431 36 31Z" fill="#0A0A0A"/>
<path d="M24 36.5C24 37.8807 22.8807 39 21.5 39C20.1193 39 19 37.8807 19 36.5C19 35.1193 20.1193 34 21.5 34C22.8807 34 24 35.1193 24 36.5Z" fill="#0A0A0A"/>
<path d="M43.9985 26.2476C43.8659 37.1792 34.963 46 24 46C12.9543 46 4 37.0457 4 26C4 14.9543 12.9543 6 24 6C24.0355 6 24.0709 6.00009 24.1063 6.00027C24.0363 6.49008 24 6.99081 24 7.5C24 13.299 28.701 18 34.5 18C35.6059 18 36.6718 17.829 37.6728 17.5121C38.2969 17.3145 39 17.8453 39 18.5C39 21.9461 41.0508 24.9133 43.9985 26.2476Z" stroke="#0A0A0A" stroke-width="2"/>
<path d="M18 23C18 25.2091 16.2091 27 14 27C11.7909 27 10 25.2091 10 23C10 20.7909 11.7909 19 14 19C16.2091 19 18 20.7909 18 23Z" stroke="#0A0A0A" stroke-width="2"/>
<path d="M36 31C36 32.6569 34.6569 34 33 34C31.3431 34 30 32.6569 30 31C30 29.3431 31.3431 28 33 28C34.6569 28 36 29.3431 36 31Z" stroke="#0A0A0A" stroke-width="2"/>
<path d="M24 36.5C24 37.8807 22.8807 39 21.5 39C20.1193 39 19 37.8807 19 36.5C19 35.1193 20.1193 34 21.5 34C22.8807 34 24 35.1193 24 36.5Z" stroke="#0A0A0A" stroke-width="2"/>
</svg>
