<?xml version="1.0" encoding="UTF-8" standalone="no"?>
<svg
   xmlns:dc="http://purl.org/dc/elements/1.1/"
   xmlns:cc="http://creativecommons.org/ns#"
   xmlns:rdf="http://www.w3.org/1999/02/22-rdf-syntax-ns#"
   xmlns:svg="http://www.w3.org/2000/svg"
   xmlns="http://www.w3.org/2000/svg"
   xmlns:sodipodi="http://sodipodi.sourceforge.net/DTD/sodipodi-0.dtd"
   xmlns:inkscape="http://www.inkscape.org/namespaces/inkscape"
   inkscape:version="1.0 (4035a4fb49, 2020-05-01)"
   height="20"
   width="20"
   sodipodi:docname="oops-bonus.svg"
   id="svg4"
   version="1.1"
   viewBox="0 32 20 20">
  <metadata
     id="metadata10">
    <rdf:RDF>
      <cc:Work
         rdf:about="">
        <dc:format>image/svg+xml</dc:format>
        <dc:type
           rdf:resource="http://purl.org/dc/dcmitype/StillImage" />
        <dc:title></dc:title>
      </cc:Work>
    </rdf:RDF>
  </metadata>
  <defs
     id="defs8" />
  <sodipodi:namedview
     inkscape:current-layer="svg4"
     inkscape:window-maximized="1"
     inkscape:window-y="-9"
     inkscape:window-x="-9"
     inkscape:cy="14"
     inkscape:cx="18.034733"
     inkscape:zoom="36.642857"
     showgrid="false"
     id="namedview6"
     inkscape:window-height="1361"
     inkscape:window-width="3440"
     inkscape:pageshadow="2"
     inkscape:pageopacity="0"
     guidetolerance="10"
     gridtolerance="10"
     objecttolerance="10"
     borderopacity="1"
     bordercolor="#666666"
     pagecolor="#ffffff" />
  <path
     style="stroke-width:0.0390625;fill:#cc1212;fill-opacity:1"
     id="path2"
     fill="#5997e3ff"
     d="m 1.25,49.5 c 0,0.691406 0.5585937,1.25 1.25,1.25 H 8.75 V 44.5 h -7.5 z m 10,1.25 h 6.25 c 0.691406,0 1.25,-0.558594 1.25,-1.25 v -5 h -7.5 z m 7.5,-12.5 H 17.105469 C 17.347656,37.777344 17.5,37.253906 17.5,36.6875 17.5,34.792969 15.957031,33.25 14.0625,33.25 c -1.625,0 -2.675781,0.832031 -4.023437,2.667969 C 8.6914063,34.082031 7.640625,33.25 6.015625,33.25 c -1.8945313,0 -3.4375,1.542969 -3.4375,3.4375 0,0.566406 0.1484375,1.089844 0.3945313,1.5625 H 1.25 C 0.55859375,38.25 0,38.808594 0,39.5 v 3.125 c 0,0.34375 0.28125,0.625 0.625,0.625 h 18.75 C 19.71875,43.25 20,42.96875 20,42.625 V 39.5 c 0,-0.691406 -0.558594,-1.25 -1.25,-1.25 z m -12.7382813,0 c -0.8632812,0 -1.5625,-0.699219 -1.5625,-1.5625 0,-0.863281 0.6992188,-1.5625 1.5625,-1.5625 0.7773438,0 1.3515625,0.128906 3.3632813,3.125 z m 8.0507813,0 h -3.363281 c 2.007812,-2.988281 2.566406,-3.125 3.363281,-3.125 0.863281,0 1.5625,0.699219 1.5625,1.5625 0,0.863281 -0.699219,1.5625 -1.5625,1.5625 z" />
</svg>
