<svg width="34" height="24" viewBox="0 0 34 24" fill="none" xmlns="http://www.w3.org/2000/svg">
<rect x="0.5" y="0.5" width="33" height="23" rx="3.5" fill="white"/>
<rect x="0.5" y="0.5" width="33" height="23" rx="3.5" stroke="#F2F4F7"/>
<path d="M15.8553 7.51184L12.0205 18.9999H14.2805L15.3595 15.6517H18.4652L19.5734 18.9999H21.8771L18.0424 7.51184H15.8553ZM17.9257 13.747H15.9136L16.7593 11.2172C16.8176 11.0386 16.8759 10.8749 16.9197 10.6964C16.978 10.8749 17.0217 11.0535 17.08 11.2321L17.9257 13.747Z" fill="#181818"/>
<path d="M12.0061 7.55655C13.4058 6.09822 15.7825 5.22024 18.3633 5.22024C19.3694 5.22024 20.3463 5.35417 21.2795 5.60714L21.3524 5.62202L23 5.11607L22.2564 4.83333C20.842 4.28274 19.2236 4 17.5468 4C15.1264 4 12.8518 4.59524 11.175 5.68155L11 5.8006L11.6999 7.88393L12.0061 7.55655Z" fill="#21E7A6"/>
</svg>
