<svg width="34" height="24" viewBox="0 0 34 24" fill="none" xmlns="http://www.w3.org/2000/svg">
<rect x="0.5" y="0.5" width="33" height="23" rx="3.5" fill="white"/>
<rect x="0.5" y="0.5" width="33" height="23" rx="3.5" stroke="#F2F4F7"/>
<path d="M19.2698 6.31055C19.4607 5.80175 19.6835 5.29295 19.779 5.20044C19.8586 5.09251 20.0655 5 20.2087 5C20.3519 5 20.6543 5.18502 20.8771 5.41629C21.1158 5.66299 22.1343 7.12772 23.1528 8.70039C24.1713 10.2731 24.9988 11.6915 24.9988 11.8611C25.0147 12.0307 24.8715 12.3391 24.7123 12.555C24.5373 12.7708 22.4685 14.3126 20.0814 15.9932C17.0737 18.1055 15.6573 19.0152 15.4186 18.9998C15.1322 18.969 15.0367 18.8456 15.0048 18.4139C14.973 18.0901 15.1003 17.6122 15.3231 17.1805C15.6255 16.61 16.1188 16.1783 18.1558 14.7598C19.5085 13.8038 20.7816 12.8479 20.9885 12.6321C21.1794 12.4162 21.3386 12.0924 21.3386 11.9074C21.3386 11.707 20.7975 10.7202 20.145 9.70258C19.4767 8.68497 18.9515 7.71362 18.9515 7.54402C18.9515 7.37442 19.0947 6.81936 19.2698 6.31055Z" fill="#C7DBDF"/>
<path d="M12.2141 11.8609C13.456 8.46899 14.5705 5.53962 14.682 5.35461C14.8094 5.15418 15.0323 5 15.1915 5C15.3348 5 15.6214 5.15418 15.8125 5.33919C16.0035 5.53962 17.0226 7.0043 18.0734 8.62316C19.1402 10.242 20 11.7067 20 11.9071C20 12.0921 19.8089 12.4468 19.5542 12.7089C19.3153 12.9555 17.2295 14.4819 14.9049 16.1008C12.1185 18.0588 10.5741 19.0301 10.3671 18.9993C10.1442 18.9685 10.0327 18.8143 10.0009 18.4905C9.96904 18.1976 10.797 15.7461 12.2141 11.8609Z" fill="#90B7C0"/>
</svg>
