<svg width="34" height="24" viewBox="0 0 34 24" fill="none" xmlns="http://www.w3.org/2000/svg">
<rect x="0.5" y="0.5" width="33" height="23" rx="3.5" fill="white"/>
<rect x="0.5" y="0.5" width="33" height="23" rx="3.5" stroke="#F2F4F7"/>
<g clip-path="url(#clip0_6505_81364)">
<path d="M14.7322 12.3046L15.3587 8.40631H14.6894C14.3762 8.40631 13.9727 8.23295 13.854 7.91434C13.816 7.80658 13.7259 7.43643 14.2432 7.07566C14.4284 6.94915 14.547 6.80859 14.5708 6.70082C14.5945 6.58837 14.566 6.48998 14.4853 6.41501C14.3714 6.30725 14.1483 6.24634 13.8635 6.24634C13.3841 6.24634 13.0471 6.51809 13.0139 6.71488C12.9901 6.86013 13.104 6.97726 13.2037 7.05223C13.5028 7.27244 13.574 7.59105 13.3888 7.89092C13.199 8.20015 12.786 8.40163 12.3446 8.40631H11.661C11.6041 8.78583 10.6737 14.6051 10.6025 15.0643H14.2955C14.3287 14.8628 14.4996 13.7617 14.7322 12.3046Z" fill="#193E4F"/>
<path d="M10.4035 16.4137H11.9177C12.5632 16.4137 12.7199 16.737 12.6724 17.0322C12.6344 17.2711 12.4683 17.4492 12.1835 17.5663C12.5442 17.7022 12.6866 17.913 12.6344 18.2457C12.568 18.6627 12.2025 18.9719 11.723 18.9719H10L10.4035 16.4137ZM11.405 17.4726C11.6993 17.4726 11.837 17.318 11.8654 17.1352C11.8939 16.9385 11.8037 16.8026 11.5094 16.8026H11.2484L11.144 17.4726H11.405ZM11.2436 18.5737C11.5474 18.5737 11.723 18.4518 11.7658 18.2035C11.799 17.988 11.6756 17.8615 11.3813 17.8615H11.087L10.9731 18.5784H11.2436V18.5737Z" fill="#193E4F"/>
<path d="M14.7562 18.9906C14.3622 19.0187 14.1723 18.9766 14.0774 18.8079C13.8685 18.9344 13.636 19 13.3891 19C12.9429 19 12.7863 18.7704 12.829 18.5174C12.848 18.3956 12.9192 18.2784 13.0331 18.18C13.28 17.9692 13.8875 17.9411 14.1249 17.7818C14.1439 17.6037 14.0727 17.5381 13.8496 17.5381C13.5885 17.5381 13.3701 17.6225 12.9952 17.8755L13.0853 17.2945C13.4081 17.0649 13.7214 16.9572 14.0821 16.9572C14.5426 16.9572 14.9508 17.1446 14.8748 17.6412L14.7847 18.2035C14.7514 18.4003 14.7609 18.4612 14.984 18.4659L14.7562 18.9906ZM14.0727 18.1051C13.8638 18.2363 13.4746 18.2128 13.4319 18.4846C13.4129 18.6111 13.4936 18.7048 13.6217 18.7048C13.7499 18.7048 13.897 18.6533 14.0204 18.5689C14.0109 18.5221 14.0157 18.4752 14.0299 18.3862L14.0727 18.1051Z" fill="#193E4F"/>
<path d="M15.4921 16.99H16.2801L16.2374 17.2476C16.4889 17.0368 16.6788 16.9572 16.9256 16.9572C17.3671 16.9572 17.5712 17.2242 17.5 17.66L17.2959 18.9672H16.5079L16.6788 17.8849C16.712 17.6881 16.6503 17.5944 16.4984 17.5944C16.375 17.5944 16.2611 17.66 16.1519 17.8052L15.9715 18.9625H15.1836L15.4921 16.99Z" fill="#193E4F"/>
<path d="M18.1164 16.4137H18.9043L18.7049 17.6694L19.4597 16.99H20.4327L19.4644 17.8334L20.2429 18.9672H19.2508L18.6527 18.0489H18.6432L18.5008 18.9626H17.7129L18.1164 16.4137Z" fill="#193E4F"/>
<path d="M20.9036 16.4137H21.8102L21.4115 18.9672H20.5049L20.9036 16.4137Z" fill="#193E4F"/>
<path d="M22.2511 16.4137H23.547C24.5485 16.4137 24.8381 17.1306 24.7431 17.7256C24.6529 18.3066 24.1878 18.9672 23.3096 18.9672H21.8477L22.2511 16.4137ZM23.0913 18.3581C23.5327 18.3581 23.7748 18.1426 23.846 17.6881C23.8982 17.3508 23.7938 17.0181 23.3049 17.0181H23.0628L22.854 18.3581H23.0913Z" fill="#193E4F"/>
<path d="M19.6977 5H15.924L15.4209 8.15328H16.0617C16.413 8.15328 16.7452 7.99398 16.8876 7.76439C16.9351 7.68942 16.9541 7.62383 16.9541 7.56292C16.9541 7.43173 16.8639 7.33333 16.7737 7.26774C16.5269 7.08501 16.4747 6.89291 16.4747 6.75703C16.4747 6.72892 16.4747 6.70549 16.4794 6.68206C16.5316 6.3494 16.9873 5.98862 17.5901 5.98862C17.9509 5.98862 18.2262 6.07296 18.3923 6.22758C18.5395 6.36345 18.5964 6.55556 18.5537 6.75703C18.5015 6.99598 18.2594 7.19277 18.1218 7.29116C17.7563 7.54418 17.8037 7.76439 17.8275 7.82999C17.9034 8.02677 18.193 8.15328 18.4161 8.15328H19.3939V8.15797C20.7229 8.16734 21.4349 8.77175 21.2119 10.1774C21.003 11.4846 19.9872 12.0469 18.7768 12.0562L18.2974 15.0736H19.0046C21.9903 15.0736 24.4301 13.1807 24.9095 10.1914C25.5029 6.48059 23.1153 5 19.6977 5Z" fill="#193E4F"/>
</g>
<defs>
<clipPath id="clip0_6505_81364">
<rect width="15" height="14" fill="white" transform="translate(10 5)"/>
</clipPath>
</defs>
</svg>
