<svg width="34" height="24" viewBox="0 0 34 24" fill="none" xmlns="http://www.w3.org/2000/svg">
<rect x="0.5" y="0.5" width="33" height="23" rx="3.5" fill="white"/>
<rect x="0.5" y="0.5" width="33" height="23" rx="3.5" stroke="#F2F4F7"/>
<g clip-path="url(#clip0_6501_5585)">
<path fill-rule="evenodd" clip-rule="evenodd" d="M14.3627 10.0032C14.8318 10.3748 15.4855 10.2664 15.8266 9.75561L17.049 7.91366C17.3901 7.40287 17.2906 6.69086 16.8216 6.31938C16.3525 5.94789 15.6987 6.05624 15.3576 6.56703L14.1211 8.40897C13.7942 8.91977 13.8937 9.63178 14.3627 10.0032ZM19.9626 7.40287C19.4935 7.03139 18.8397 7.13974 18.4986 7.65053L13.581 15.0183C13.2399 15.5291 13.3394 16.2411 13.8084 16.6126C14.2774 16.9841 14.9312 16.8757 15.2723 16.3649L20.19 8.99716C20.5453 8.48637 20.4316 7.77436 19.9626 7.40287ZM13.8937 6.8147C14.2348 6.30391 14.1353 5.5919 13.6663 5.22041C13.1973 4.84893 12.5435 4.95728 12.2024 5.46807C11.8613 5.97886 11.9608 6.69087 12.4298 7.06236C12.8988 7.43384 13.5526 7.32549 13.8937 6.8147ZM21.3554 16.9376C20.8864 16.5661 20.2326 16.6745 19.8915 17.1853C19.5504 17.6961 19.6499 18.4081 20.1189 18.7796C20.588 19.1511 21.2418 19.0427 21.5829 18.5319C21.924 18.0211 21.8245 17.3091 21.3554 16.9376ZM19.4367 14.0122C18.9677 13.6407 18.3139 13.7491 17.9728 14.2599L16.7363 16.1018C16.3952 16.6126 16.4947 17.3246 16.9637 17.6961C17.4327 18.0676 18.0865 17.9592 18.4276 17.4484L19.6641 15.6065C20.0053 15.0957 19.9058 14.3837 19.4367 14.0122Z" fill="#05C0C7"/>
</g>
<defs>
<clipPath id="clip0_6501_5585">
<rect width="10" height="14" fill="white" transform="translate(12 5)"/>
</clipPath>
</defs>
</svg>
