<svg width="34" height="24" viewBox="0 0 34 24" fill="none" xmlns="http://www.w3.org/2000/svg">
<rect x="0.5" y="0.5" width="33" height="23" rx="3.5" fill="white"/>
<rect x="0.5" y="0.5" width="33" height="23" rx="3.5" stroke="#F2F4F7"/>
<path d="M5.60814 11.3283C5.33041 11.3335 5.09006 11.4372 4.89779 11.6393C4.70017 11.8415 4.60938 12.0852 4.60938 12.3651C4.61472 12.6502 4.71619 12.8887 4.91915 13.0857C5.12211 13.2826 5.35711 13.3811 5.64019 13.376C5.92326 13.3708 6.16359 13.2723 6.35588 13.0701C6.54816 12.8679 6.64429 12.6243 6.63894 12.3392C6.63361 12.0541 6.53213 11.8156 6.33452 11.6186C6.13155 11.4216 5.89122 11.3231 5.60814 11.3283Z" fill="#FF7C44"/>
<path d="M15.9798 10.0117C15.2909 10.0117 14.714 10.2398 14.2387 10.6908C13.7633 11.1418 13.5283 11.6965 13.5283 12.3496C13.5283 12.9976 13.7633 13.5471 14.2333 14.0033C14.7033 14.4595 15.2748 14.6876 15.9371 14.6876C16.6101 14.6876 17.1762 14.4595 17.6462 14.0033C18.1162 13.5471 18.3512 12.9976 18.3512 12.3445C18.3512 11.7069 18.1162 11.1574 17.6516 10.696C17.1869 10.245 16.6314 10.0117 15.9798 10.0117ZM16.6688 13.0702C16.4765 13.2724 16.2362 13.3761 15.9531 13.3761C15.6754 13.3812 15.435 13.2827 15.2321 13.0858C15.0291 12.8888 14.9277 12.6451 14.9223 12.3652C14.917 12.0801 15.0131 11.8416 15.2107 11.6395C15.403 11.4373 15.6434 11.3336 15.9211 11.3284C16.2042 11.3232 16.4445 11.4217 16.6421 11.6187C16.8397 11.8157 16.9412 12.0542 16.9465 12.3393C16.9572 12.6244 16.8611 12.868 16.6688 13.0702Z" fill="black"/>
<path d="M10.7826 10.0118C10.3873 10.0118 10.0241 10.0896 9.69834 10.2399V8.86096H8.33105C8.33105 8.86096 8.33105 12.3238 8.33105 12.3549C8.33105 13.0029 8.56605 13.5524 9.03607 14.0086C9.50607 14.4647 10.0776 14.6928 10.7398 14.6928C11.4128 14.6928 11.9789 14.4647 12.4489 14.0086C12.9189 13.5524 13.154 13.0029 13.154 12.3497C13.154 11.7121 12.9189 11.1626 12.4543 10.7012C11.9896 10.2451 11.4342 10.0118 10.7826 10.0118ZM11.4609 13.0807C11.2633 13.2776 11.0229 13.3813 10.7398 13.3813C10.4621 13.3813 10.2218 13.2828 10.0241 13.0807C9.82652 12.8785 9.72505 12.64 9.72505 12.3549C9.72505 12.0698 9.82652 11.8313 10.0188 11.6292C10.2164 11.427 10.4568 11.3285 10.7345 11.3285C11.0176 11.3285 11.2579 11.427 11.4555 11.6292C11.6531 11.8262 11.7493 12.0698 11.7493 12.3549C11.7546 12.6348 11.6585 12.8785 11.4609 13.0807Z" fill="black"/>
<path d="M23.3344 10.1258H21.8123L20.194 12.2927V8.86096H18.8213V14.5943H19.8894L21.0752 13.0495L22.2288 14.5892H23.7991L21.8496 12.0491L23.3344 10.1258Z" fill="black"/>
<path d="M27.1152 10.1205C27.1152 10.1205 27.1152 12.0645 27.1152 12.3496C27.1152 12.6347 26.9817 12.8784 26.7894 13.0754C26.5917 13.2723 26.3514 13.376 26.0684 13.376C25.7907 13.376 25.5504 13.2775 25.3526 13.0754C25.1551 12.8732 25.0269 12.6347 25.0269 12.3496C25.0269 12.0645 25.0269 10.1257 25.0269 10.1257H23.6543C23.6543 10.1257 23.6543 11.6964 23.6543 12.3496C23.6543 12.9976 23.8893 13.5471 24.3593 14.0033C24.8293 14.4595 25.4008 14.6875 26.0631 14.6875C26.736 14.6875 27.3022 14.4595 27.7722 14.0033C28.2422 13.5471 28.4772 12.9976 28.4772 12.3444C28.4772 11.7068 28.4772 10.1154 28.4772 10.1154H27.1152V10.1205Z" fill="black"/>
</svg>
