<svg width="34" height="24" viewBox="0 0 34 24" fill="none" xmlns="http://www.w3.org/2000/svg">
<rect x="0.5" y="0.5" width="33" height="23" rx="3.5" fill="white"/>
<rect x="0.5" y="0.5" width="33" height="23" rx="3.5" stroke="#F2F4F7"/>
<path d="M16.9913 4.01243C19.104 4.01243 21.2229 4.02485 23.3355 4.00621C24.4043 3.99379 25.4047 4.67108 25.7962 5.73364C25.908 6.03811 25.964 6.36123 25.964 6.68434C25.964 9.91549 25.964 13.1466 25.964 16.384C25.964 17.6454 25.0319 18.7577 23.7891 18.9689C23.6524 18.9938 23.5033 19 23.3604 19C19.1102 19 14.86 19 10.6098 19C9.2179 19 8.16156 17.9188 8.01864 16.6263C8.00621 16.5021 8 16.3716 8 16.2473C8 13.0783 8 9.90928 8 6.74026C8 5.82684 8.34797 5.07498 9.06877 4.50953C9.50994 4.16777 10.0133 4 10.5725 4C12.7162 4.01243 14.8538 4.01243 16.9913 4.01243ZM16.9851 18.739C19.1102 18.739 21.2415 18.739 23.3666 18.739C23.7146 18.739 24.0501 18.6769 24.3546 18.5215C25.2432 18.0555 25.6968 17.3036 25.703 16.3094C25.7154 13.1094 25.7092 9.90928 25.703 6.7092C25.703 6.54764 25.6843 6.38608 25.6595 6.22452C25.4606 5.11226 24.4975 4.2734 23.4039 4.2734C19.1226 4.2734 14.8476 4.2734 10.5663 4.2734C10.3985 4.2734 10.2307 4.29205 10.0754 4.32933C9.02527 4.57788 8.2734 5.54722 8.2734 6.67813C8.26719 9.89685 8.26719 13.1094 8.2734 16.3281C8.2734 17.6516 9.32974 18.7577 10.6968 18.739C12.7908 18.7142 14.8911 18.739 16.9851 18.739Z" fill="black"/>
<path d="M16.9849 18.7391C14.8909 18.7391 12.7906 18.7204 10.6966 18.7453C9.32955 18.7639 8.27322 17.6579 8.27322 16.3344C8.267 13.1156 8.267 9.90313 8.27322 6.68441C8.27322 5.54729 9.02508 4.57794 10.0752 4.33561C10.2368 4.29833 10.4045 4.27968 10.5661 4.27968C14.8474 4.27347 19.1224 4.27347 23.4037 4.27968C24.4973 4.27968 25.4605 5.11233 25.6593 6.2308C25.6904 6.39236 25.7028 6.55392 25.7028 6.71548C25.7028 9.91556 25.7152 13.1156 25.7028 16.3157C25.6966 17.3099 25.243 18.0618 24.3544 18.5278C24.0499 18.6894 23.7144 18.7453 23.3664 18.7453C21.2413 18.7391 19.11 18.7391 16.9849 18.7391ZM10.3797 5.25524C10.3797 8.33727 10.3797 11.4069 10.3797 14.4765C10.6717 14.4765 10.9513 14.4765 11.2372 14.4765C11.2372 11.4006 11.2372 8.32484 11.2372 5.25524C10.9513 5.25524 10.6717 5.25524 10.3797 5.25524ZM20.7504 5.25524C20.7504 7.39899 20.7504 9.5303 20.7504 11.6678C21.0425 11.6678 21.3283 11.6678 21.6079 11.6678C21.6079 9.52409 21.6079 7.39277 21.6079 5.25524C21.3159 5.25524 21.0363 5.25524 20.7504 5.25524ZM15.7421 5.25524C15.7421 7.39899 15.7421 9.5303 15.7421 11.6678C16.0342 11.6678 16.32 11.6678 16.5996 11.6678C16.5996 9.52409 16.5996 7.39277 16.5996 5.25524C16.3138 5.25524 16.028 5.25524 15.7421 5.25524ZM12.7782 11.674C12.7782 9.53031 12.7782 7.39277 12.7782 5.25524C12.5731 5.25524 12.3805 5.25524 12.1755 5.25524C12.1755 7.39899 12.1755 9.53031 12.1755 11.674C12.3805 11.674 12.5731 11.674 12.7782 11.674ZM14.2508 5.26146C14.0396 5.26146 13.8407 5.26146 13.6481 5.26146C13.6481 7.4052 13.6481 9.53652 13.6481 11.6678C13.8532 11.6678 14.052 11.6678 14.2508 11.6678C14.2508 9.5303 14.2508 7.39899 14.2508 5.26146ZM18.0537 11.674C18.0537 9.53031 18.0537 7.39277 18.0537 5.24903C17.8797 5.24903 17.7119 5.24903 17.5503 5.24903C17.5193 5.24903 17.4882 5.25524 17.4571 5.25524C17.4571 7.39899 17.4571 9.53652 17.4571 11.674C17.656 11.674 17.8486 11.674 18.0537 11.674ZM22.9563 11.6803C22.9563 9.5303 22.9563 7.39899 22.9563 5.26146C22.7513 5.26146 22.5586 5.26146 22.3536 5.26146C22.3536 7.39899 22.3536 9.53652 22.3536 11.674C22.3784 11.6803 22.4033 11.6865 22.4281 11.6865C22.6021 11.6803 22.7761 11.6803 22.9563 11.6803ZM23.3354 5.25524C23.3354 8.33727 23.3354 11.4069 23.3354 14.4827C23.4286 14.4827 23.5093 14.4827 23.5963 14.4827C23.5963 11.4069 23.5963 8.33727 23.5963 5.25524C23.5031 5.25524 23.4223 5.25524 23.3354 5.25524ZM10.1933 15.5266C10.1933 16.2474 10.1933 16.9433 10.1933 17.6641C10.6779 17.6455 11.1502 17.633 11.6224 17.6144C11.7156 17.6082 11.8151 17.5709 11.902 17.5274C12.1071 17.4218 12.2189 17.254 12.2127 17.0179C12.2065 16.7942 12.0636 16.6575 11.871 16.5767C11.8275 16.5581 11.784 16.5456 11.7343 16.5208C11.7902 16.4897 11.8337 16.4649 11.8772 16.4338C12.1382 16.2536 12.1692 15.9429 11.9269 15.7378C11.8213 15.6509 11.6721 15.5701 11.5354 15.5639C11.0943 15.539 10.6469 15.539 10.1933 15.5266ZM13.8159 13.7992C13.8532 13.7805 13.8656 13.7743 13.878 13.7681C14.052 13.6749 14.1825 13.5444 14.1701 13.3331C14.1576 13.1219 14.0272 12.9789 13.8407 12.9106C13.704 12.8609 13.5549 12.8298 13.412 12.8236C13.0578 12.8112 12.7098 12.8174 12.3557 12.8174C12.3308 12.8174 12.3059 12.8236 12.2811 12.8298C12.2811 13.532 12.2811 14.2217 12.2811 14.9114C12.2997 14.9176 12.3059 14.9238 12.3184 14.9238C12.7409 14.9238 13.1572 14.9301 13.5735 14.9114C13.7165 14.9052 13.8656 14.8617 13.9961 14.7996C14.1949 14.7064 14.3068 14.5324 14.3006 14.3025C14.2943 14.0788 14.1576 13.9421 13.965 13.8551C13.9277 13.8364 13.8842 13.824 13.8159 13.7992ZM14.7417 5.25524C14.7417 7.39277 14.7417 9.5303 14.7417 11.6803C14.7914 11.6803 14.8349 11.6803 14.8784 11.6803C14.9219 11.6803 14.9654 11.6803 15.0027 11.6803C15.0027 9.5303 15.0027 7.39277 15.0027 5.25524C14.9157 5.25524 14.8349 5.25524 14.7417 5.25524ZM20.0483 11.674C20.0483 9.53031 20.0483 7.39899 20.0483 5.24903C19.9986 5.24903 19.9551 5.24903 19.9116 5.24903C19.8681 5.24903 19.8246 5.24903 19.7811 5.24903C19.7811 7.39899 19.7811 9.53652 19.7811 11.674C19.8743 11.674 19.9551 11.674 20.0483 11.674ZM18.6937 5.25524C18.6937 7.39899 18.6937 9.53652 18.6937 11.674C18.7869 11.674 18.8739 11.674 18.9547 11.674C18.9547 9.53031 18.9547 7.39899 18.9547 5.25524C18.8614 5.25524 18.7869 5.25524 18.6937 5.25524ZM18.6937 16.5518C18.762 16.5581 18.818 16.5643 18.8739 16.5767C18.9609 16.5953 19.0106 16.5767 19.0603 16.4897C19.1784 16.266 19.7749 16.2287 19.9364 16.4276C19.9489 16.44 19.9613 16.4586 19.9675 16.4773C20.0296 16.6202 19.9986 16.6885 19.8494 16.7134C19.6195 16.7445 19.3896 16.7631 19.1659 16.8066C19.0354 16.8315 18.9049 16.875 18.7931 16.9495C18.5632 17.1111 18.5756 17.4156 18.8117 17.5647C18.9174 17.6268 19.0541 17.6641 19.1784 17.6765C19.4766 17.7138 19.75 17.6393 19.9986 17.4715C20.0918 17.6703 20.1291 17.689 20.3714 17.6455C20.3528 17.4901 20.3279 17.3348 20.3155 17.1794C20.303 16.9682 20.3093 16.7507 20.3093 16.5394C20.3093 16.3592 20.2223 16.2287 20.0483 16.1666C19.6879 16.0485 19.3337 16.0547 18.9795 16.1977C18.8242 16.2474 18.731 16.3716 18.6937 16.5518ZM12.6228 16.5456C12.6974 16.5581 12.7595 16.5581 12.8217 16.5705C12.8962 16.5829 12.9397 16.5705 12.977 16.4959C13.0081 16.4338 13.0764 16.3654 13.1448 16.3406C13.3499 16.266 13.5549 16.2722 13.76 16.3468C13.8532 16.3841 13.9029 16.4586 13.9153 16.5518C13.9277 16.6388 13.9029 16.6885 13.8097 16.6948C13.617 16.7134 13.4244 16.732 13.2318 16.7693C13.064 16.8004 12.89 16.8315 12.7471 16.9122C12.4737 17.0676 12.4861 17.4156 12.7595 17.5647C12.859 17.6206 12.9832 17.6455 13.0951 17.6641C13.3933 17.6952 13.6668 17.6268 13.9153 17.4591C14.0085 17.6579 14.0458 17.6765 14.2881 17.633C14.2695 17.4777 14.2446 17.3224 14.2384 17.167C14.226 16.9557 14.2384 16.7383 14.2322 16.527C14.226 16.3592 14.1576 16.2225 13.9899 16.1666C13.617 16.0361 13.2442 16.0423 12.8776 16.1977C12.7471 16.266 12.6601 16.3841 12.6228 16.5456ZM19.3648 14.2279C19.402 13.8924 19.2591 13.6065 18.9671 13.4698C18.6378 13.3145 18.3022 13.3207 17.9791 13.4823C17.6622 13.6376 17.5566 13.9172 17.5814 14.2528C17.6063 14.5759 17.7803 14.7871 18.0785 14.8928C18.3581 14.9922 18.644 14.9922 18.9298 14.8928C19.1349 14.8244 19.2778 14.6877 19.3586 14.4702C19.2591 14.4578 19.1721 14.4454 19.0914 14.4454C19.0603 14.4454 19.0168 14.464 18.9982 14.4951C18.8055 14.7623 18.4638 14.8369 18.1779 14.6691C18.0102 14.5697 17.9294 14.4267 17.9232 14.2279C18.4141 14.2279 18.8863 14.2279 19.3648 14.2279ZM15.5371 13.3393C15.3755 13.3828 15.2078 13.4077 15.0524 13.476C14.7604 13.6003 14.6423 13.8426 14.6361 14.1471C14.6299 14.4578 14.7479 14.7126 15.04 14.8555C15.388 15.017 15.7421 15.0108 16.0839 14.8369C16.5499 14.6007 16.6059 13.8799 16.1895 13.563C16.0031 13.4139 15.7794 13.3642 15.5371 13.3393ZM23.702 17.6827C23.702 17.689 23.7082 17.6952 23.7082 17.7014C23.8635 17.6641 24.0251 17.6393 24.1742 17.5833C24.4663 17.4715 24.603 17.2416 24.6154 16.9309C24.6278 16.6078 24.5284 16.3468 24.2301 16.2039C23.8635 16.0237 23.4907 16.0361 23.1303 16.2349C22.9687 16.3219 22.8693 16.4649 22.8258 16.6388C22.7015 17.2105 22.975 17.5709 23.4658 17.6579C23.5466 17.6703 23.6274 17.6765 23.702 17.6827ZM22.5276 14.1471C22.54 13.8426 22.4033 13.6003 22.0988 13.4636C21.7695 13.3145 21.4277 13.3207 21.0984 13.476C20.8188 13.6065 20.7007 13.8489 20.7007 14.1471C20.7007 14.4578 20.8126 14.7064 21.0984 14.8431C21.3718 14.9798 21.6639 14.986 21.9559 14.9052C22.3412 14.8058 22.5213 14.5634 22.5276 14.1471ZM16.3449 17.6393C16.3449 17.2975 16.3449 16.962 16.3449 16.6264C16.3449 16.3219 16.2144 16.1666 15.9161 16.1045C15.6054 16.0423 15.3196 16.0796 15.0648 16.3157C15.0586 16.2412 15.0586 16.1852 15.0524 16.1231C14.9592 16.1231 14.866 16.1231 14.7728 16.1231C14.7728 16.6326 14.7728 17.1359 14.7728 17.6393C14.8784 17.6393 14.9779 17.6393 15.0897 17.6393C15.0897 17.5895 15.0897 17.546 15.0897 17.5088C15.0897 17.2726 15.0835 17.0365 15.0897 16.7942C15.1021 16.4524 15.301 16.2784 15.6427 16.3033C15.8975 16.3219 16.0093 16.4338 16.0093 16.6885C16.0156 16.9682 16.0093 17.2416 16.0093 17.5212C16.0093 17.5647 16.0156 17.602 16.0156 17.6455C16.1398 17.6393 16.233 17.6393 16.3449 17.6393ZM18.4203 16.5643C18.3581 16.3344 18.209 16.2039 18.004 16.1355C17.7368 16.0547 17.4634 16.0672 17.2024 16.1666C16.6494 16.3779 16.668 17.1856 16.9849 17.4591C17.2956 17.7325 17.8983 17.7573 18.2276 17.5026C18.3457 17.4093 18.4265 17.2851 18.4576 17.1235C18.3457 17.1111 18.2463 17.1049 18.1469 17.0924C18.1407 17.1111 18.1344 17.1235 18.1282 17.1422C18.035 17.5585 17.4136 17.5523 17.2272 17.2975C17.0595 17.0738 17.0657 16.819 17.1651 16.5767C17.2583 16.353 17.4634 16.2971 17.6871 16.2971C17.8983 16.2971 18.0474 16.4027 18.122 16.6016C18.2152 16.5891 18.3084 16.5767 18.4203 16.5643ZM20.4957 13.3953C20.3838 13.3953 20.2782 13.3953 20.1663 13.3953C20.1663 13.2151 20.1663 13.0535 20.1663 12.8671C20.0731 12.9106 19.9986 12.9479 19.9178 12.9789C19.8556 13.0038 19.837 13.0411 19.837 13.1032C19.8432 13.1964 19.837 13.2896 19.837 13.3953C19.75 13.3953 19.6755 13.3953 19.6009 13.3953C19.6009 13.4636 19.6009 13.5257 19.6009 13.5817C19.6817 13.5879 19.7562 13.5879 19.837 13.5941C19.837 13.6997 19.837 13.7867 19.837 13.8799C19.8432 14.1409 19.8432 14.4019 19.8494 14.6629C19.8494 14.7747 19.9116 14.8493 20.011 14.8928C20.185 14.9611 20.359 14.9487 20.5392 14.9114C20.5205 14.8306 20.5081 14.7685 20.4895 14.7001C20.4522 14.7001 20.4273 14.7001 20.3962 14.7001C20.1912 14.7064 20.1601 14.6691 20.1601 14.4702C20.1601 14.259 20.1601 14.0477 20.1601 13.8426C20.1601 13.7619 20.1601 13.6811 20.1601 13.5879C20.2782 13.5879 20.3838 13.5879 20.4895 13.5879C20.4957 13.5257 20.4957 13.4698 20.4957 13.3953ZM17.1713 14.9176C17.1713 14.2093 17.1713 13.5195 17.1713 12.8236C17.0595 12.8236 16.96 12.8236 16.8544 12.8236C16.8544 13.5257 16.8544 14.2217 16.8544 14.9176C16.9663 14.9176 17.0595 14.9176 17.1713 14.9176ZM21.1543 17.6393C21.1543 17.4093 21.1481 17.1794 21.1543 16.9557C21.1543 16.8439 21.1605 16.7258 21.1854 16.614C21.2289 16.4151 21.3904 16.3157 21.5955 16.3468C21.6514 16.353 21.7073 16.3716 21.7695 16.3903C21.8068 16.3157 21.8378 16.2412 21.8751 16.1604C21.5769 16.0299 21.3283 16.0361 21.117 16.3406C21.1108 16.2474 21.1108 16.1852 21.1046 16.1231C21.0052 16.1231 20.9182 16.1231 20.825 16.1231C20.825 16.6326 20.825 17.1297 20.825 17.6393C20.9368 17.6393 21.0363 17.6393 21.1543 17.6393ZM22.4095 17.6393C22.4095 17.1297 22.4095 16.6326 22.4095 16.1231C22.3039 16.1231 22.2044 16.1231 22.0988 16.1231C22.0988 16.6326 22.0988 17.1359 22.0988 17.6393C22.2044 17.6393 22.3039 17.6393 22.4095 17.6393ZM19.3399 15.9243C19.4518 15.918 19.5574 15.9429 19.6133 15.9056C19.75 15.8 19.8681 15.6695 20.011 15.5204C19.8619 15.5204 19.75 15.5204 19.6382 15.5204C19.6133 15.5204 19.576 15.539 19.5574 15.5576C19.4953 15.6695 19.4269 15.7876 19.3399 15.9243ZM22.0926 15.8186C22.1982 15.8186 22.2977 15.8186 22.4033 15.8186C22.4033 15.7254 22.4033 15.6322 22.4033 15.539C22.2977 15.539 22.1982 15.539 22.0926 15.539C22.0926 15.6384 22.0926 15.7254 22.0926 15.8186Z" fill="white"/>
<path d="M10.3799 5.25525C10.6657 5.25525 10.9453 5.25525 11.2374 5.25525C11.2374 8.32484 11.2374 11.4007 11.2374 14.4765C10.9515 14.4765 10.6719 14.4765 10.3799 14.4765C10.3799 11.4069 10.3799 8.33727 10.3799 5.25525Z" fill="black"/>
<path d="M20.751 5.25525C21.0368 5.25525 21.3226 5.25525 21.6085 5.25525C21.6085 7.39278 21.6085 9.5241 21.6085 11.6678C21.3226 11.6678 21.043 11.6678 20.751 11.6678C20.751 9.53652 20.751 7.39899 20.751 5.25525Z" fill="black"/>
<path d="M15.7422 5.25525C16.028 5.25525 16.3139 5.25525 16.5997 5.25525C16.5997 7.39278 16.5997 9.5241 16.5997 11.6678C16.3139 11.6678 16.0342 11.6678 15.7422 11.6678C15.7422 9.53031 15.7422 7.39899 15.7422 5.25525Z" fill="black"/>
<path d="M12.7785 11.6741C12.5735 11.6741 12.3808 11.6741 12.1758 11.6741C12.1758 9.53653 12.1758 7.39899 12.1758 5.25525C12.3746 5.25525 12.5735 5.25525 12.7785 5.25525C12.7785 7.39278 12.7785 9.53031 12.7785 11.6741Z" fill="black"/>
<path d="M14.2512 5.26135C14.2512 7.4051 14.2512 9.5302 14.2512 11.6677C14.0523 11.6677 13.8535 11.6677 13.6484 11.6677C13.6484 9.53641 13.6484 7.39888 13.6484 5.26135C13.8473 5.26135 14.0461 5.26135 14.2512 5.26135Z" fill="black"/>
<path d="M18.0539 11.6739C17.8489 11.6739 17.6562 11.6739 17.4512 11.6739C17.4512 9.53639 17.4512 7.39886 17.4512 5.25512C17.4822 5.25512 17.5133 5.2489 17.5444 5.2489C17.7121 5.2489 17.8737 5.2489 18.0477 5.2489C18.0539 7.39265 18.0539 9.53018 18.0539 11.6739Z" fill="black"/>
<path d="M22.9566 11.6803C22.7702 11.6803 22.5962 11.6803 22.4222 11.6803C22.3974 11.6803 22.3787 11.6741 22.3477 11.6678C22.3477 9.53031 22.3477 7.39899 22.3477 5.25525C22.5527 5.25525 22.7453 5.25525 22.9504 5.25525C22.9566 7.39278 22.9566 9.53031 22.9566 11.6803Z" fill="black"/>
<path d="M23.335 5.25525C23.4282 5.25525 23.5089 5.25525 23.5959 5.25525C23.5959 8.33106 23.5959 11.4007 23.5959 14.4827C23.5089 14.4827 23.4282 14.4827 23.335 14.4827C23.335 11.4069 23.335 8.33727 23.335 5.25525Z" fill="black"/>
<path d="M10.1937 15.5265C10.6473 15.5389 11.0885 15.5389 11.5297 15.57C11.6664 15.5824 11.8155 15.657 11.9211 15.744C12.1635 15.9428 12.1324 16.2597 11.8714 16.4399C11.8279 16.471 11.7844 16.4896 11.7285 16.5269C11.7844 16.5455 11.8279 16.5642 11.8652 16.5828C12.0578 16.6636 12.2008 16.8003 12.207 17.024C12.2132 17.2539 12.0951 17.4279 11.8963 17.5335C11.8093 17.577 11.7099 17.6143 11.6167 17.6205C11.1444 17.6454 10.6722 17.6578 10.1875 17.6702C10.1937 16.9432 10.1937 16.2473 10.1937 15.5265ZM10.5479 16.6822C10.5479 16.9184 10.5479 17.1545 10.5479 17.3906C10.8524 17.3906 11.1506 17.3968 11.4427 17.3906C11.5172 17.3906 11.598 17.3595 11.6664 17.3223C11.7844 17.2663 11.8466 17.1669 11.8466 17.0364C11.8466 16.9059 11.7844 16.8065 11.6664 16.7506C11.5918 16.7133 11.4986 16.6822 11.4178 16.6822C11.1382 16.676 10.8462 16.6822 10.5479 16.6822ZM10.5479 16.4213C10.7654 16.4213 10.9642 16.4275 11.1693 16.4213C11.2811 16.4213 11.393 16.4151 11.4986 16.3902C11.6664 16.3529 11.7472 16.2473 11.7409 16.0982C11.7347 15.9552 11.6477 15.831 11.4862 15.8123C11.1755 15.7813 10.8648 15.7813 10.5479 15.7626C10.5479 15.9987 10.5479 16.2038 10.5479 16.4213Z" fill="black"/>
<path d="M13.8157 13.7991C13.884 13.824 13.9275 13.8364 13.971 13.855C14.1637 13.942 14.3066 14.0725 14.3066 14.3024C14.3128 14.5323 14.2009 14.7063 14.0021 14.7995C13.8716 14.8617 13.7225 14.9052 13.5796 14.9114C13.1632 14.93 12.7407 14.9238 12.3244 14.9238C12.312 14.9238 12.3058 14.9176 12.2871 14.9114C12.2871 14.2217 12.2871 13.5257 12.2871 12.8298C12.312 12.8236 12.3368 12.8173 12.3617 12.8173C12.7159 12.8173 13.0638 12.8111 13.418 12.8236C13.5609 12.8298 13.7101 12.8546 13.8468 12.9106C14.0332 12.9789 14.1637 13.1218 14.1761 13.3331C14.1885 13.5444 14.058 13.6748 13.884 13.7681C13.8654 13.7743 13.853 13.7805 13.8157 13.7991ZM12.6351 14.6815C12.9147 14.6815 13.1819 14.6815 13.4491 14.6815C13.5174 14.6815 13.592 14.669 13.6603 14.6504C13.8405 14.6007 13.9462 14.4764 13.94 14.3149C13.94 14.1595 13.8343 14.0166 13.6541 13.998C13.3186 13.9607 12.9768 13.9545 12.6351 13.9358C12.6351 14.1968 12.6351 14.4267 12.6351 14.6815ZM12.6413 13.0845C12.6413 13.2834 12.6413 13.4946 12.6413 13.6873C12.9396 13.6873 13.2254 13.6873 13.5174 13.6873C13.5734 13.6873 13.6231 13.6624 13.6728 13.6376C13.853 13.5444 13.8903 13.302 13.7349 13.1715C13.679 13.128 13.6044 13.0908 13.5299 13.0845C13.2378 13.0783 12.9458 13.0845 12.6413 13.0845Z" fill="black"/>
<path d="M14.7422 5.25525C14.8292 5.25525 14.9162 5.25525 15.0032 5.25525C15.0032 7.39278 15.0032 9.53031 15.0032 11.6803C14.9597 11.6803 14.9162 11.6803 14.8789 11.6803C14.8354 11.6803 14.7919 11.6803 14.7422 11.6803C14.7422 9.53031 14.7422 7.39899 14.7422 5.25525Z" fill="black"/>
<path d="M20.0484 11.6739C19.9552 11.6739 19.8745 11.6739 19.7812 11.6739C19.7812 9.53639 19.7812 7.39886 19.7812 5.2489C19.8247 5.2489 19.8682 5.2489 19.9117 5.2489C19.9552 5.2489 19.9987 5.2489 20.0484 5.2489C20.0484 7.39265 20.0484 9.52396 20.0484 11.6739Z" fill="black"/>
<path d="M18.6943 5.25525C18.7875 5.25525 18.8683 5.25525 18.9553 5.25525C18.9553 7.39278 18.9553 9.53031 18.9553 11.6741C18.8745 11.6741 18.7875 11.6741 18.6943 11.6741C18.6943 9.53031 18.6943 7.39899 18.6943 5.25525Z" fill="black"/>
<path d="M18.6941 16.5518C18.7314 16.3716 18.8308 16.2535 18.9861 16.1914C19.3341 16.0547 19.6945 16.0422 20.0549 16.1603C20.2289 16.2162 20.3159 16.3467 20.3159 16.5331C20.3159 16.7444 20.3097 16.9619 20.3221 17.1731C20.3283 17.3285 20.3594 17.4838 20.378 17.6392C20.1357 17.6827 20.0922 17.6702 20.0052 17.4652C19.7566 17.6329 19.4832 17.7075 19.185 17.6702C19.0607 17.6578 18.924 17.6205 18.8184 17.5584C18.576 17.4155 18.5698 17.1048 18.7997 16.9432C18.9054 16.8687 19.0421 16.8252 19.1726 16.8003C19.3962 16.7568 19.6262 16.7382 19.8561 16.7071C20.0052 16.6822 20.0425 16.6139 19.9741 16.471C19.9679 16.4523 19.9555 16.4337 19.9431 16.4213C19.7815 16.2224 19.1912 16.2597 19.0669 16.4834C19.0172 16.5704 18.9737 16.5953 18.8805 16.5704C18.8184 16.558 18.7624 16.558 18.6941 16.5518ZM19.9741 16.8935C19.7132 16.937 19.446 16.9743 19.185 17.024C19.0731 17.0426 18.9861 17.111 18.9799 17.2415C18.9737 17.3409 19.0607 17.4465 19.1912 17.459C19.3403 17.4714 19.5019 17.4776 19.6448 17.4403C19.912 17.3658 20.0176 17.1793 19.9741 16.8935Z" fill="black"/>
<path d="M12.6228 16.5456C12.6601 16.3841 12.7471 16.2598 12.89 16.1976C13.2566 16.0423 13.6294 16.0361 14.0022 16.1666C14.1638 16.2225 14.2384 16.3592 14.2446 16.527C14.2508 16.7382 14.2446 16.9557 14.2508 17.167C14.257 17.3223 14.2881 17.4777 14.3005 17.633C14.0582 17.6765 14.0147 17.6641 13.9277 17.459C13.6791 17.6268 13.3995 17.7014 13.1075 17.6641C12.9894 17.6517 12.8713 17.6206 12.7719 17.5647C12.4985 17.4155 12.4861 17.0676 12.7595 16.9122C12.9024 16.8314 13.0764 16.8004 13.2442 16.7693C13.4368 16.732 13.6294 16.7134 13.822 16.6947C13.9153 16.6823 13.9401 16.6326 13.9277 16.5518C13.9153 16.4524 13.8655 16.3778 13.7723 16.3468C13.5673 16.2722 13.356 16.266 13.1572 16.3406C13.0888 16.3654 13.0205 16.4338 12.9894 16.4959C12.9521 16.5705 12.9024 16.5829 12.8341 16.5705C12.7595 16.5643 12.6974 16.558 12.6228 16.5456ZM13.9028 16.8936C13.6481 16.9309 13.3871 16.9681 13.1323 17.0179C12.9894 17.0427 12.9086 17.1297 12.9086 17.2416C12.9086 17.3534 12.9956 17.4528 13.1447 17.4652C13.2939 17.4777 13.4554 17.4715 13.5984 17.4342C13.8531 17.3534 13.9525 17.167 13.9028 16.8936Z" fill="black"/>
<path d="M19.3648 14.2279C18.8864 14.2279 18.4141 14.2279 17.9232 14.2279C17.9294 14.4268 18.0102 14.5759 18.178 14.6691C18.4638 14.8369 18.8056 14.7561 18.9982 14.4951C19.0168 14.4703 19.0603 14.4454 19.0914 14.4454C19.1784 14.4454 19.2654 14.4578 19.3586 14.4703C19.2778 14.6877 19.1349 14.8182 18.9299 14.8928C18.6502 14.9922 18.3582 14.9922 18.0786 14.8928C17.7741 14.7872 17.6001 14.5759 17.5815 14.2528C17.5566 13.9172 17.6685 13.6376 17.9791 13.4823C18.3023 13.3207 18.6378 13.3207 18.9671 13.4698C19.2592 13.6065 19.4021 13.8862 19.3648 14.2279ZM17.9419 14.0104C18.3085 14.0104 18.6627 14.0104 19.0168 14.0104C18.992 13.7432 18.7994 13.5817 18.5011 13.5755C18.2028 13.563 17.9791 13.7308 17.9419 14.0104Z" fill="black"/>
<path d="M15.537 13.3392C15.7793 13.3641 15.9968 13.4138 16.1894 13.5567C16.6057 13.8736 16.5436 14.6006 16.0838 14.8305C15.742 15.0045 15.3879 15.0107 15.0399 14.8492C14.7416 14.7125 14.6298 14.4577 14.636 14.1408C14.6422 13.8363 14.7603 13.5878 15.0523 13.4697C15.2077 13.4076 15.3754 13.3827 15.537 13.3392ZM14.9777 14.147C14.9715 14.5198 15.189 14.7435 15.5432 14.7498C15.8974 14.756 16.1211 14.5323 16.1273 14.1719C16.1335 13.8053 15.916 13.5754 15.5556 13.5691C15.2014 13.5754 14.984 13.7866 14.9777 14.147Z" fill="black"/>
<path d="M23.7019 17.6827C23.6211 17.6765 23.5465 17.6703 23.4658 17.6579C22.9749 17.5709 22.7015 17.2105 22.8258 16.6388C22.863 16.4586 22.9687 16.3219 23.1302 16.2349C23.4906 16.0361 23.8634 16.0237 24.2301 16.2039C24.5283 16.3468 24.6277 16.6077 24.6153 16.9309C24.6029 17.2416 24.4662 17.4715 24.1741 17.5833C24.025 17.6392 23.8634 17.6641 23.7081 17.7014C23.7081 17.6952 23.7081 17.6889 23.7019 17.6827ZM23.1364 16.8749C23.1364 17.2478 23.3477 17.4715 23.7081 17.4715C24.0685 17.4715 24.286 17.254 24.286 16.8812C24.286 16.5208 24.0685 16.2971 23.7143 16.2971C23.3539 16.2971 23.1364 16.5083 23.1364 16.8749Z" fill="black"/>
<path d="M22.5279 14.1471C22.5217 14.5634 22.3415 14.8057 21.9624 14.9114C21.6704 14.9921 21.3846 14.9859 21.1049 14.8492C20.8191 14.7063 20.701 14.464 20.7073 14.1533C20.7073 13.8488 20.8253 13.6127 21.1049 13.4822C21.4343 13.3268 21.7698 13.3206 22.1054 13.4698C22.4036 13.6003 22.5403 13.8426 22.5279 14.1471ZM22.1924 14.1533C22.1924 13.7991 21.9687 13.5754 21.6145 13.5754C21.2603 13.5816 21.0428 13.7991 21.049 14.1657C21.049 14.5323 21.2665 14.756 21.6269 14.756C21.9811 14.7498 22.1986 14.5199 22.1924 14.1533Z" fill="black"/>
<path d="M16.3448 17.6391C16.233 17.6391 16.1398 17.6391 16.0279 17.6391C16.0279 17.6018 16.0217 17.5584 16.0217 17.5149C16.0217 17.2352 16.0217 16.9618 16.0217 16.6822C16.0155 16.4274 15.9098 16.3156 15.6551 16.297C15.3133 16.2721 15.1083 16.4461 15.1021 16.7878C15.0958 17.024 15.1021 17.2601 15.1021 17.5024C15.1021 17.5459 15.1021 17.5894 15.1021 17.6329C14.9902 17.6329 14.8908 17.6329 14.7852 17.6329C14.7852 17.1296 14.7852 16.6263 14.7852 16.1168C14.8784 16.1168 14.9654 16.1168 15.0648 16.1168C15.071 16.1789 15.071 16.2348 15.0772 16.3094C15.332 16.0671 15.6178 16.036 15.9285 16.0981C16.2267 16.1603 16.3572 16.3156 16.3572 16.6201C16.3448 16.9618 16.3448 17.2974 16.3448 17.6391Z" fill="black"/>
<path d="M18.4206 16.5642C18.3149 16.5766 18.2155 16.589 18.1099 16.6015C18.0353 16.4026 17.8862 16.297 17.6749 16.297C17.4512 16.297 17.2462 16.3529 17.153 16.5766C17.0535 16.819 17.0473 17.0737 17.2151 17.2974C17.4077 17.5522 18.0229 17.5522 18.1161 17.1421C18.1223 17.1296 18.1285 17.111 18.1347 17.0924C18.2342 17.1048 18.3336 17.111 18.4454 17.1234C18.4144 17.285 18.3398 17.4093 18.2155 17.5025C17.8924 17.7572 17.2897 17.7324 16.9728 17.459C16.6559 17.1856 16.6372 16.3778 17.1903 16.1665C17.4574 16.0671 17.7246 16.0484 17.9918 16.1354C18.2093 16.1976 18.3584 16.3343 18.4206 16.5642Z" fill="black"/>
<path d="M20.496 13.3952C20.496 13.476 20.496 13.5257 20.496 13.5941C20.3904 13.5941 20.2909 13.5941 20.1667 13.5941C20.1667 13.6873 20.1667 13.7681 20.1667 13.8489C20.1667 14.0601 20.1667 14.2714 20.1667 14.4764C20.1667 14.6753 20.2039 14.7126 20.4028 14.7063C20.4276 14.7063 20.4587 14.7063 20.496 14.7063C20.5146 14.7747 20.5271 14.8431 20.5457 14.9176C20.3593 14.9549 20.1853 14.9673 20.0175 14.899C19.9181 14.8555 19.856 14.7809 19.856 14.6691C19.8498 14.4081 19.8435 14.1471 19.8435 13.8861C19.8435 13.7929 19.8435 13.7059 19.8435 13.6003C19.7628 13.5941 19.6882 13.5941 19.6074 13.5879C19.6074 13.5257 19.6074 13.4698 19.6074 13.4015C19.682 13.4015 19.7503 13.4015 19.8435 13.4015C19.8435 13.2958 19.8498 13.2026 19.8435 13.1094C19.8373 13.0473 19.8622 13.01 19.9243 12.9851C20.0051 12.9541 20.0797 12.9168 20.1729 12.8733C20.1729 13.0535 20.1729 13.2213 20.1729 13.4015C20.2785 13.3952 20.3841 13.3952 20.496 13.3952Z" fill="black"/>
<path d="M17.1714 14.9175C17.0658 14.9175 16.9663 14.9175 16.8545 14.9175C16.8545 14.2216 16.8545 13.5256 16.8545 12.8235C16.9539 12.8235 17.0595 12.8235 17.1714 12.8235C17.1714 13.5194 17.1714 14.2154 17.1714 14.9175Z" fill="black"/>
<path d="M21.1548 17.6392C21.0367 17.6392 20.9373 17.6392 20.8379 17.6392C20.8379 17.1296 20.8379 16.6325 20.8379 16.123C20.9311 16.123 21.0181 16.123 21.1175 16.123C21.1237 16.1852 21.1237 16.2473 21.1299 16.3405C21.335 16.036 21.5898 16.0298 21.888 16.1603C21.8507 16.2411 21.8197 16.3094 21.7824 16.3902C21.7202 16.3778 21.6643 16.3591 21.6084 16.3467C21.4033 16.3156 21.2418 16.4151 21.1983 16.6139C21.1734 16.7258 21.1672 16.8438 21.1672 16.9557C21.1548 17.1856 21.1548 17.4093 21.1548 17.6392Z" fill="black"/>
<path d="M22.4093 17.6392C22.3037 17.6392 22.2105 17.6392 22.0986 17.6392C22.0986 17.1359 22.0986 16.6326 22.0986 16.123C22.1981 16.123 22.3037 16.123 22.4093 16.123C22.4093 16.6326 22.4093 17.1359 22.4093 17.6392Z" fill="black"/>
<path d="M19.3398 15.9242C19.4206 15.7875 19.489 15.6695 19.5635 15.5576C19.576 15.539 19.6132 15.5203 19.6443 15.5203C19.7562 15.5141 19.868 15.5203 20.0171 15.5203C19.868 15.6633 19.7562 15.8 19.6195 15.9056C19.5573 15.9491 19.4517 15.918 19.3398 15.9242Z" fill="black"/>
<path d="M22.0928 15.8186C22.0928 15.7254 22.0928 15.6384 22.0928 15.5389C22.1984 15.5389 22.2978 15.5389 22.4035 15.5389C22.4035 15.6321 22.4035 15.7191 22.4035 15.8186C22.304 15.8186 22.1984 15.8186 22.0928 15.8186Z" fill="black"/>
<path d="M10.5479 16.6822C10.8461 16.6822 11.1319 16.676 11.424 16.6884C11.511 16.6884 11.598 16.7195 11.6725 16.7568C11.7906 16.8127 11.8527 16.9121 11.8527 17.0426C11.8527 17.1731 11.7906 17.2725 11.6725 17.3284C11.6042 17.3595 11.5234 17.3906 11.4488 17.3968C11.1506 17.403 10.8585 17.3968 10.5541 17.3968C10.5479 17.1545 10.5479 16.9183 10.5479 16.6822Z" fill="white"/>
<path d="M10.5479 16.4212C10.5479 16.2038 10.5479 15.9987 10.5479 15.7688C10.8648 15.7812 11.1754 15.7874 11.4861 15.8185C11.6477 15.8309 11.7347 15.9552 11.7409 16.1043C11.7471 16.2535 11.6663 16.3591 11.4986 16.3964C11.3929 16.4212 11.2811 16.4275 11.1692 16.4275C10.9642 16.4275 10.7591 16.4212 10.5479 16.4212Z" fill="white"/>
<path d="M12.6357 14.6814C12.6357 14.4329 12.6357 14.1968 12.6357 13.9358C12.9775 13.9544 13.3193 13.9606 13.6548 13.9979C13.835 14.0166 13.9406 14.1595 13.9406 14.3148C13.9406 14.4764 13.8412 14.6007 13.661 14.6504C13.5927 14.669 13.5181 14.6814 13.4497 14.6814C13.1826 14.6814 12.9154 14.6814 12.6357 14.6814Z" fill="white"/>
<path d="M12.6416 13.0844C12.9461 13.0844 13.2381 13.0782 13.5302 13.0907C13.5985 13.0907 13.6793 13.1279 13.7352 13.1776C13.8906 13.3081 13.8595 13.5505 13.6731 13.6437C13.6234 13.6685 13.5675 13.6934 13.5177 13.6934C13.2319 13.6996 12.9399 13.6934 12.6416 13.6934C12.6416 13.4883 12.6416 13.2833 12.6416 13.0844Z" fill="white"/>
<path d="M19.9737 16.8936C20.0172 17.1794 19.9178 17.3658 19.6444 17.4342C19.5014 17.4714 19.3399 17.4652 19.1908 17.4528C19.0603 17.4404 18.9795 17.3347 18.9795 17.2353C18.9857 17.1048 19.0727 17.0427 19.1845 17.0178C19.4455 16.9743 19.7065 16.9371 19.9737 16.8936Z" fill="white"/>
<path d="M13.9034 16.8936C13.9469 17.167 13.8537 17.3534 13.5989 17.4279C13.456 17.4714 13.2944 17.4714 13.1453 17.459C12.9962 17.4466 12.9092 17.3472 12.9092 17.2353C12.9092 17.1297 12.99 17.0365 13.1329 17.0116C13.3939 16.9681 13.6486 16.9308 13.9034 16.8936Z" fill="white"/>
<path d="M17.9414 14.0103C17.9787 13.7307 18.2024 13.5692 18.5069 13.5754C18.8051 13.5816 18.9977 13.7431 19.0226 14.0103C18.6622 14.0103 18.308 14.0103 17.9414 14.0103Z" fill="white"/>
<path d="M14.9777 14.1471C14.9839 13.7867 15.2014 13.5692 15.5618 13.5754C15.9222 13.5754 16.1396 13.8054 16.1334 14.1782C16.1272 14.5386 15.9035 14.7561 15.5493 14.7561C15.1827 14.7498 14.9715 14.5199 14.9777 14.1471Z" fill="white"/>
<path d="M23.1367 16.8749C23.1367 16.5145 23.3542 16.297 23.7146 16.297C24.0688 16.297 24.2863 16.5207 24.2863 16.8811C24.2863 17.2539 24.0688 17.4714 23.7084 17.4714C23.348 17.4652 23.1367 17.2477 23.1367 16.8749Z" fill="white"/>
<path d="M22.1925 14.1533C22.1925 14.5261 21.9812 14.7498 21.6208 14.7561C21.2605 14.7561 21.043 14.5324 21.043 14.1658C21.043 13.7991 21.2542 13.5817 21.6084 13.5754C21.9688 13.5692 22.1925 13.7929 22.1925 14.1533Z" fill="white"/>
</svg>
