<svg width="34" height="24" viewBox="0 0 34 24" fill="none" xmlns="http://www.w3.org/2000/svg">
<rect x="0.5" y="0.5" width="33" height="23" rx="3.5" fill="white"/>
<rect x="0.5" y="0.5" width="33" height="23" rx="3.5" stroke="#F2F4F7"/>
<path d="M8.30548 9C5.93126 9 4 10.1471 4 11.5631C4 12.1546 4.35436 12.7102 4.93905 13.1583C4.65557 12.7998 4.47839 12.3876 4.47839 11.9574C4.47839 10.4877 6.3565 9.3047 8.69527 9.3047C10.2013 9.3047 11.5124 9.78864 12.2566 10.5414C11.5833 9.62733 10.0596 9 8.30548 9Z" fill="#77BE43"/>
<path d="M7.93365 12.2801C8.11083 12.2801 8.25258 12.2442 8.35889 12.1725C8.48291 12.0829 8.53607 11.9754 8.53607 11.8141C8.53607 11.5273 8.44748 11.2584 8.25258 11.0075C8.05768 10.7566 7.82735 10.5773 7.52614 10.4519C7.31352 10.3623 7.10091 10.3264 6.83514 10.3264C6.32132 10.3264 5.9138 10.4877 5.57716 10.8283C5.25823 11.1688 5.08105 11.5631 5.08105 12.0292C5.08105 12.4952 5.25823 12.9074 5.59488 13.23C5.93152 13.5527 6.35675 13.714 6.87057 13.714C7.13634 13.714 7.40211 13.6781 7.65017 13.5885C7.95137 13.4989 8.16399 13.3734 8.30573 13.1942C8.3766 13.1046 8.42976 12.997 8.42976 12.9074C8.42976 12.6565 8.28801 12.531 8.02224 12.531C7.96909 12.531 7.80963 12.5848 7.56158 12.6923C7.31352 12.7999 7.10091 12.8536 6.92373 12.8536C6.71111 12.8536 6.53393 12.7999 6.39219 12.7103C6.25044 12.6206 6.16185 12.4772 6.14414 12.2801H7.93365ZM6.39219 11.2405C6.51621 11.133 6.67568 11.0792 6.85286 11.0792C7.03004 11.0792 7.1895 11.133 7.31352 11.2405C7.43755 11.3481 7.50842 11.4735 7.52614 11.6528H6.16185C6.17957 11.4915 6.26816 11.3481 6.39219 11.2405Z" fill="#033564"/>
<path d="M9.12066 13.2121C9.43958 13.5347 9.8471 13.696 10.3786 13.696C10.6976 13.696 10.9456 13.6422 11.1582 13.5526C11.4417 13.4272 11.6012 13.2479 11.6012 13.0687C11.6012 12.9611 11.5657 12.8536 11.4949 12.7819C11.424 12.7102 11.3177 12.6564 11.2114 12.6564C11.1228 12.6564 11.0342 12.6744 10.9102 12.7281C10.7862 12.7819 10.6444 12.7998 10.5027 12.7998C10.2546 12.7998 10.0597 12.7281 9.91797 12.5668C9.79395 12.4234 9.74079 12.2442 9.74079 11.9933C9.74079 11.7782 9.79395 11.581 9.91797 11.4376C10.042 11.2763 10.2192 11.1867 10.4672 11.1867C10.609 11.1867 10.7507 11.2046 10.8747 11.2584C10.9988 11.3122 11.1051 11.3301 11.1937 11.3301C11.3177 11.3301 11.424 11.2942 11.4949 11.2046C11.5835 11.1329 11.6189 11.0254 11.6189 10.9179C11.6189 10.7028 11.4772 10.5415 11.1937 10.416C10.9811 10.3443 10.733 10.2905 10.4495 10.2905C9.91797 10.2905 9.47502 10.4518 9.1561 10.7565C8.83717 11.0792 8.67771 11.4735 8.67771 11.9753C8.64227 12.4951 8.80174 12.8895 9.12066 13.2121Z" fill="#033564"/>
<path d="M12.0975 13.2121C12.4342 13.5526 12.8594 13.714 13.3732 13.714C13.887 13.714 14.3123 13.5526 14.6489 13.2121C14.9678 12.8895 15.1273 12.4952 15.1273 12.0112C15.1273 11.5273 14.9678 11.115 14.6489 10.7924C14.33 10.4698 13.9048 10.3085 13.3732 10.3085C12.8594 10.3085 12.4342 10.4698 12.1152 10.7924C11.7963 11.115 11.6191 11.5273 11.6191 12.0112C11.6191 12.4952 11.7786 12.8895 12.0975 13.2121ZM12.8417 11.4556C12.9657 11.2943 13.1429 11.2047 13.3732 11.2047C13.6036 11.2047 13.763 11.2943 13.887 11.4556C13.9934 11.599 14.0465 11.7782 14.0465 11.9933C14.0465 12.2084 13.9934 12.3876 13.887 12.5489C13.763 12.7282 13.5858 12.7999 13.3555 12.7999C13.1252 12.7999 12.9657 12.7102 12.8417 12.5489C12.7354 12.4055 12.6822 12.2263 12.6822 12.0112C12.6822 11.7961 12.7354 11.6169 12.8417 11.4556Z" fill="#033564"/>
<path d="M16.5797 10.2188H17.0403C17.5187 10.2188 17.7668 10.398 17.7668 10.7744C17.7668 11.1508 17.5187 11.348 17.0403 11.348H16.5797V10.2188ZM16.5797 12.979V12.2442H17.2884C17.7845 12.2442 18.192 12.1187 18.4755 11.8678C18.759 11.6169 18.9185 11.2584 18.9185 10.7924C18.9185 10.3264 18.759 9.96788 18.4401 9.69903C18.1389 9.4481 17.7314 9.32263 17.2175 9.32263H16.2608C15.9773 9.32263 15.8001 9.3764 15.6761 9.48394C15.5698 9.59149 15.5166 9.77072 15.5166 10.0217V12.979C15.5166 13.4451 15.6938 13.6781 16.0481 13.6781C16.4025 13.6781 16.5797 13.4451 16.5797 12.979Z" fill="#77BE43"/>
<path d="M20.211 11.4735C20.335 11.3122 20.4945 11.2405 20.7071 11.2405C20.9197 11.2405 21.0969 11.3122 21.2032 11.4735C21.3095 11.6169 21.3626 11.7962 21.3626 11.9933C21.3626 12.2084 21.3095 12.3697 21.2032 12.531C21.0791 12.6923 20.9197 12.782 20.7071 12.782C20.4945 12.782 20.3173 12.6923 20.1932 12.531C20.0869 12.3876 20.0338 12.2084 20.0338 11.9933C20.0515 11.7962 20.1047 11.6169 20.211 11.4735ZM21.9119 13.6781C22.2485 13.6781 22.4257 13.4451 22.4257 12.9791V11.0613C22.4257 10.5953 22.2485 10.3623 21.9119 10.3623C21.6993 10.3623 21.5398 10.4698 21.4158 10.667C21.2032 10.434 20.9374 10.3264 20.583 10.3264C20.1047 10.3264 19.7149 10.5057 19.4137 10.8641C19.1302 11.1867 18.9707 11.5811 18.9707 12.0292C18.9707 12.4772 19.1124 12.8536 19.3782 13.1763C19.6794 13.5347 20.0692 13.714 20.5299 13.714C20.902 13.714 21.1855 13.5885 21.3981 13.3555C21.5221 13.5527 21.6816 13.6781 21.9119 13.6781Z" fill="#77BE43"/>
<path d="M24.8195 10.7387L24.1817 12.2622L23.597 10.8283C23.5261 10.667 23.473 10.5595 23.4198 10.5057C23.3312 10.4161 23.2249 10.3623 23.0654 10.3623C22.9237 10.3623 22.7997 10.4161 22.7111 10.5057C22.6225 10.5953 22.5693 10.7029 22.5693 10.8462C22.5693 10.9359 22.5871 11.0255 22.6225 11.1151L23.6679 13.3555L23.2426 14.2159C23.1895 14.3413 23.154 14.4489 23.154 14.5385C23.154 14.6819 23.2072 14.7894 23.2958 14.8791C23.3844 14.9687 23.5084 15.0045 23.6679 15.0045C23.845 15.0045 24.0045 14.8791 24.1285 14.6281L25.7054 11.1868C25.7586 11.0613 25.794 10.9538 25.794 10.8642C25.794 10.5595 25.6168 10.4161 25.2802 10.4161C25.0853 10.3623 24.9258 10.4878 24.8195 10.7387Z" fill="#77BE43"/>
<path d="M28.3445 12.7461H27.3169L28.6989 11.115C28.8406 10.9537 28.9115 10.8103 28.9115 10.7028C28.9115 10.5773 28.8583 10.5056 28.752 10.4698C28.6457 10.4339 28.4862 10.416 28.2559 10.416H26.5904C26.1475 10.416 25.9349 10.5594 25.9349 10.8462C25.9349 11.133 26.1475 11.2763 26.5904 11.2763H27.4763L26.0589 12.9612C25.9526 13.0866 25.8994 13.2121 25.8994 13.3196C25.8994 13.5168 26.0766 13.6064 26.4487 13.6064H28.3445C28.7875 13.6064 29.0001 13.463 29.0001 13.1763C28.9824 12.8895 28.7697 12.7461 28.3445 12.7461Z" fill="#77BE43"/>
</svg>
