<svg width="34" height="24" viewBox="0 0 34 24" fill="none" xmlns="http://www.w3.org/2000/svg">
<rect x="0.5" y="0.5" width="33" height="23" rx="3.5" fill="white"/>
<rect x="0.5" y="0.5" width="33" height="23" rx="3.5" stroke="#F2F4F7"/>
<g clip-path="url(#clip0_6505_81057)">
<path d="M26.6997 13.8976C26.1436 13.8976 25.71 13.4264 25.71 12.8541C25.71 12.2819 26.1436 11.8106 26.6997 11.8106C27.2559 11.8106 27.6894 12.2819 27.6894 12.8541C27.6894 13.4264 27.2559 13.8976 26.6997 13.8976ZM26.4217 15C26.896 15 27.5013 14.8149 27.8367 14.0912L27.8694 14.108C27.7222 14.5035 27.7222 14.7391 27.7222 14.798V14.8906H28.9163V10.8177H27.7222V10.9102C27.7222 10.9691 27.7222 11.2048 27.8694 11.6003L27.8367 11.6171C27.5013 10.8934 26.896 10.7083 26.4217 10.7083C25.2847 10.7083 24.4831 11.6339 24.4831 12.8541C24.4831 14.0743 25.2847 15 26.4217 15ZM22.4056 10.7083C21.8658 10.7083 21.4404 10.9018 21.0969 11.6171L21.0642 11.6003C21.2114 11.2048 21.2114 10.9691 21.2114 10.9102V10.8177H20.0172V14.8906H21.2442V12.7447C21.2442 12.1809 21.5631 11.8275 22.0784 11.8275C22.5937 11.8275 22.8473 12.1304 22.8473 12.7363V14.8906H24.0742V12.2987C24.0742 11.3731 23.3708 10.7083 22.4056 10.7083ZM18.2423 11.6171L18.2096 11.6003C18.3568 11.2048 18.3568 10.9691 18.3568 10.9102V10.8177H17.1627V14.8906H18.3895L18.3978 12.9299C18.3978 12.3577 18.6922 12.0126 19.1748 12.0126C19.3056 12.0126 19.412 12.0295 19.5347 12.0631V10.8177C18.9948 10.6999 18.5122 10.9102 18.2423 11.6171ZM14.3408 13.8976C13.7846 13.8976 13.3511 13.4264 13.3511 12.8541C13.3511 12.2819 13.7846 11.8106 14.3408 11.8106C14.897 11.8106 15.3305 12.2819 15.3305 12.8541C15.3305 13.4264 14.897 13.8976 14.3408 13.8976ZM14.0627 15C14.5371 15 15.1424 14.8149 15.4777 14.0912L15.5104 14.108C15.3632 14.5035 15.3632 14.7391 15.3632 14.798V14.8906H16.5574V10.8177H15.3632V10.9102C15.3632 10.9691 15.3632 11.2048 15.5104 11.6003L15.4777 11.6171C15.1424 10.8934 14.5371 10.7083 14.0627 10.7083C12.9258 10.7083 12.1242 11.6339 12.1242 12.8541C12.1242 14.0743 12.9258 15 14.0627 15ZM10.4147 14.8906H11.6416V9H10.4147V14.8906ZM9.51498 9H8.26355C8.26355 10.0519 7.63374 10.9944 6.67676 11.6676L6.30051 11.9369V9H5V14.8906H6.30051V11.9705L8.45167 14.8906H10.0385L7.96909 12.0968C8.90971 11.3983 9.52316 10.3128 9.51498 9Z" fill="#FFA8CD"/>
</g>
<defs>
<clipPath id="clip0_6505_81057">
<rect width="24" height="6" fill="white" transform="translate(5 9)"/>
</clipPath>
</defs>
</svg>
