<svg width="34" height="24" viewBox="0 0 34 24" fill="none" xmlns="http://www.w3.org/2000/svg">
<rect x="0.5" y="0.5" width="33" height="23" rx="3.5" fill="white"/>
<rect x="0.5" y="0.5" width="33" height="23" rx="3.5" stroke="#F2F4F7"/>
<g clip-path="url(#clip0_6505_81062)">
<path d="M25.8293 14.0065V13.7905H25.7753L25.7123 13.9345L25.6493 13.7905H25.5953V14.0065H25.6313V13.8445L25.6943 13.9885H25.7393L25.8023 13.8445V14.0065H25.8293ZM25.4693 14.0065V13.8265H25.5413V13.7905H25.3613V13.8265H25.4333V14.0065H25.4693Z" fill="#00A2E5"/>
<path d="M19.4295 14.9331H14.5605V6.18762H19.4295V14.9331Z" fill="#7375CF"/>
<path d="M14.876 10.5604C14.876 8.78792 15.704 7.20437 17 6.18766C16.055 5.44087 14.858 5 13.562 5C10.493 5 8 7.49229 8 10.5604C8 13.6285 10.493 16.1208 13.562 16.1208C14.858 16.1208 16.055 15.6799 17 14.9332C15.704 13.9165 14.876 12.3329 14.876 10.5604Z" fill="#EB001B"/>
<path d="M26 10.5604C26 13.6285 23.507 16.1208 20.438 16.1208C19.142 16.1208 17.945 15.6799 17 14.9332C18.296 13.9165 19.124 12.3329 19.124 10.5604C19.124 8.78792 18.296 7.20437 17 6.18766C17.945 5.44087 19.142 5 20.438 5C23.507 5 26 7.49229 26 10.5604Z" fill="#00A2E5"/>
<path d="M21.0676 17.4075C21.1306 17.4075 21.2296 17.4165 21.2926 17.4435L21.1936 17.7494C21.1216 17.7224 21.0586 17.7134 20.9956 17.7134C20.7886 17.7134 20.6806 17.8484 20.6806 18.0913V18.9191H20.3566V17.4435H20.6716V17.6234C20.7616 17.4885 20.8876 17.4075 21.0676 17.4075ZM19.8796 17.7314H19.3576V18.3972C19.3576 18.5412 19.4116 18.6401 19.5736 18.6401C19.6546 18.6401 19.7626 18.6132 19.8616 18.5592L19.9516 18.8381C19.8526 18.9101 19.6906 18.9551 19.5466 18.9551C19.1686 18.9551 19.0336 18.7481 19.0336 18.4062V17.7314H18.7366V17.4345H19.0336V16.9846H19.3576V17.4345H19.8796V17.7314ZM15.7666 18.0463C15.8026 17.8304 15.9286 17.6864 16.1626 17.6864C16.3696 17.6864 16.5046 17.8124 16.5406 18.0463H15.7666ZM16.8736 18.1813C16.8736 17.7224 16.5856 17.4075 16.1716 17.4075C15.7396 17.4075 15.4336 17.7224 15.4336 18.1813C15.4336 18.6491 15.7486 18.9551 16.1896 18.9551C16.4146 18.9551 16.6126 18.9011 16.7926 18.7481L16.6306 18.5142C16.5046 18.6132 16.3516 18.6671 16.1986 18.6671C15.9916 18.6671 15.8026 18.5682 15.7576 18.3072H16.8556C16.8646 18.2623 16.8736 18.2263 16.8736 18.1813ZM18.2866 17.8214C18.1966 17.7674 18.0166 17.6954 17.8276 17.6954C17.6476 17.6954 17.5486 17.7584 17.5486 17.8664C17.5486 17.9653 17.6566 17.9923 17.8006 18.0103L17.9536 18.0283C18.2776 18.0733 18.4666 18.2083 18.4666 18.4692C18.4666 18.7481 18.2236 18.9551 17.7916 18.9551C17.5486 18.9551 17.3236 18.8921 17.1526 18.7661L17.3056 18.5142C17.4136 18.5952 17.5756 18.6671 17.8006 18.6671C18.0166 18.6671 18.1336 18.6042 18.1336 18.4872C18.1336 18.4062 18.0526 18.3612 17.8726 18.3342L17.7196 18.3162C17.3866 18.2713 17.2066 18.1183 17.2066 17.8844C17.2066 17.5874 17.4496 17.4075 17.8186 17.4075C18.0526 17.4075 18.2686 17.4615 18.4216 17.5605L18.2866 17.8214ZM22.2466 17.7044C22.1836 17.7044 22.1206 17.7134 22.0666 17.7404C22.0126 17.7674 21.9586 17.7944 21.9226 17.8394C21.8866 17.8844 21.8506 17.9293 21.8236 17.9923C21.7966 18.0463 21.7876 18.1183 21.7876 18.1813C21.7876 18.2533 21.7966 18.3162 21.8236 18.3702C21.8506 18.4242 21.8776 18.4782 21.9226 18.5232C21.9676 18.5682 22.0126 18.5952 22.0666 18.6222C22.1206 18.6491 22.1836 18.6581 22.2466 18.6581C22.3096 18.6581 22.3726 18.6491 22.4266 18.6222C22.4806 18.5952 22.5346 18.5682 22.5706 18.5232C22.6156 18.4782 22.6426 18.4332 22.6696 18.3702C22.6966 18.3162 22.7056 18.2443 22.7056 18.1813C22.7056 18.1093 22.6966 18.0463 22.6696 17.9923C22.6426 17.9383 22.6156 17.8844 22.5706 17.8394C22.5256 17.7944 22.4806 17.7674 22.4266 17.7404C22.3726 17.7224 22.3096 17.7044 22.2466 17.7044ZM22.2466 17.4075C22.3636 17.4075 22.4716 17.4255 22.5616 17.4705C22.6606 17.5065 22.7416 17.5605 22.8136 17.6324C22.8856 17.7044 22.9396 17.7854 22.9846 17.8754C23.0206 17.9743 23.0476 18.0733 23.0476 18.1813C23.0476 18.2892 23.0296 18.3972 22.9846 18.4872C22.9486 18.5862 22.8856 18.6671 22.8136 18.7301C22.7416 18.8021 22.6606 18.8561 22.5616 18.8921C22.4626 18.9281 22.3546 18.9551 22.2466 18.9551C22.1296 18.9551 22.0216 18.9371 21.9316 18.8921C21.8326 18.8561 21.7516 18.8021 21.6796 18.7301C21.6076 18.6581 21.5536 18.5772 21.5086 18.4872C21.4726 18.3882 21.4456 18.2892 21.4456 18.1813C21.4456 18.0733 21.4636 17.9653 21.5086 17.8754C21.5446 17.7764 21.6076 17.6954 21.6796 17.6324C21.7516 17.5605 21.8326 17.5065 21.9316 17.4705C22.0216 17.4255 22.1296 17.4075 22.2466 17.4075ZM13.8946 18.1813C13.8946 17.9204 14.0656 17.7044 14.3446 17.7044C14.6146 17.7044 14.7856 17.9114 14.7856 18.1813C14.7856 18.4512 14.6056 18.6491 14.3446 18.6491C14.0656 18.6491 13.8946 18.4422 13.8946 18.1813ZM15.0916 18.1813V17.4435H14.7676V17.6234C14.6686 17.4885 14.5156 17.4075 14.2996 17.4075C13.8856 17.4075 13.5616 17.7314 13.5616 18.1813C13.5616 18.6311 13.8856 18.9551 14.2996 18.9551C14.5066 18.9551 14.6596 18.8741 14.7676 18.7391V18.9191H15.0916V18.1813ZM13.2826 18.9191V17.9923C13.2826 17.6414 13.0576 17.4075 12.6976 17.4075C12.5086 17.4075 12.3106 17.4615 12.1756 17.6684C12.0766 17.5065 11.9146 17.4075 11.6896 17.4075C11.5366 17.4075 11.3746 17.4525 11.2576 17.6234V17.4435H10.9336V18.9191H11.2576V18.1003C11.2576 17.8484 11.4016 17.7044 11.6176 17.7044C11.8336 17.7044 11.9416 17.8394 11.9416 18.0913V18.9101H12.2656V18.0913C12.2656 17.8394 12.4186 17.6954 12.6256 17.6954C12.8416 17.6954 12.9496 17.8304 12.9496 18.0823V18.9011H13.2826V18.9191Z" fill="black"/>
<path d="M23.3897 18.8021V18.8381H23.4257C23.4347 18.8381 23.4437 18.8381 23.4437 18.8291C23.4527 18.8291 23.4527 18.8201 23.4527 18.8111C23.4527 18.8021 23.4527 18.8021 23.4437 18.8021C23.4437 18.8021 23.4347 18.7931 23.4257 18.7931H23.3897V18.8021ZM23.4257 18.7841C23.4437 18.7841 23.4527 18.7841 23.4617 18.7931C23.4707 18.8021 23.4797 18.8111 23.4797 18.8291C23.4797 18.8381 23.4797 18.8471 23.4707 18.8561C23.4617 18.8651 23.4527 18.8651 23.4347 18.8651L23.4797 18.9191H23.4437L23.3987 18.8651H23.3897V18.9191H23.3627V18.7841H23.4257ZM23.4167 18.964C23.4347 18.964 23.4437 18.9641 23.4617 18.9551C23.4797 18.9461 23.4887 18.9371 23.4977 18.9281C23.5067 18.9191 23.5157 18.9101 23.5247 18.8921C23.5337 18.8741 23.5337 18.8651 23.5337 18.8471C23.5337 18.8291 23.5337 18.8201 23.5247 18.8021C23.5157 18.7841 23.5067 18.7751 23.4977 18.7661C23.4887 18.7571 23.4797 18.7481 23.4617 18.7391C23.4527 18.7301 23.4347 18.7301 23.4167 18.7301C23.3987 18.7301 23.3897 18.7301 23.3717 18.7391C23.3537 18.7481 23.3447 18.7571 23.3357 18.7661C23.3267 18.7751 23.3177 18.7931 23.3087 18.8021C23.2997 18.8201 23.2997 18.8291 23.2997 18.8471C23.2997 18.8651 23.2997 18.8741 23.3087 18.8921C23.3177 18.9101 23.3267 18.9191 23.3357 18.9281C23.3447 18.9371 23.3627 18.9461 23.3717 18.9551C23.3897 18.9641 23.3987 18.964 23.4167 18.964ZM23.4167 18.7031C23.4347 18.7031 23.4527 18.7031 23.4707 18.7121C23.4887 18.7211 23.5067 18.7301 23.5157 18.7391C23.5247 18.7481 23.5427 18.7661 23.5517 18.7841C23.5607 18.8021 23.5607 18.8201 23.5607 18.8381C23.5607 18.8561 23.5607 18.8741 23.5517 18.8921C23.5427 18.9101 23.5337 18.9281 23.5157 18.9371C23.4977 18.9461 23.4887 18.9641 23.4707 18.973C23.4527 18.982 23.4347 18.982 23.4167 18.982C23.3987 18.982 23.3717 18.982 23.3537 18.973C23.3357 18.9641 23.3177 18.9551 23.3087 18.9371C23.2997 18.9281 23.2817 18.9101 23.2727 18.8921C23.2637 18.8741 23.2637 18.8561 23.2637 18.8381C23.2637 18.8201 23.2637 18.8021 23.2727 18.7841C23.2817 18.7661 23.2907 18.7481 23.3087 18.7391C23.3177 18.7301 23.3357 18.7121 23.3537 18.7121C23.3717 18.7031 23.3987 18.7031 23.4167 18.7031Z" fill="black"/>
</g>
<defs>
<clipPath id="clip0_6505_81062">
<rect width="18" height="14" fill="white" transform="translate(8 5)"/>
</clipPath>
</defs>
</svg>
