<svg width="34" height="24" viewBox="0 0 34 24" fill="none" xmlns="http://www.w3.org/2000/svg">
<rect x="0.5" y="0.5" width="33" height="23" rx="3.5" fill="white"/>
<rect x="0.5" y="0.5" width="33" height="23" rx="3.5" stroke="#F2F4F7"/>
<path fill-rule="evenodd" clip-rule="evenodd" d="M17.1791 16.8293C15.9951 17.8274 14.4591 18.43 12.7807 18.43C9.03582 18.43 6 15.4303 6 11.73C6 8.02966 9.03582 5.02997 12.7807 5.02997C14.4591 5.02997 15.9951 5.63252 17.1791 6.63064C18.3632 5.63252 19.8992 5.02997 21.5776 5.02997C25.3224 5.02997 28.3583 8.02966 28.3583 11.73C28.3583 15.4303 25.3224 18.43 21.5776 18.43C19.8992 18.43 18.3632 17.8274 17.1791 16.8293Z" fill="#ED0006"/>
<path fill-rule="evenodd" clip-rule="evenodd" d="M17.1787 16.8297C18.6368 15.6008 19.5615 13.7721 19.5615 11.73C19.5615 9.68786 18.6368 7.85913 17.1787 6.63023C18.3627 5.63235 19.8985 5.02997 21.5767 5.02997C25.3215 5.02997 28.3574 8.02966 28.3574 11.73C28.3574 15.4303 25.3215 18.43 21.5767 18.43C19.8985 18.43 18.3627 17.8276 17.1787 16.8297Z" fill="#F9A000"/>
<path fill-rule="evenodd" clip-rule="evenodd" d="M17.1791 16.8292C18.637 15.6003 19.5614 13.7718 19.5614 11.7299C19.5614 9.688 18.637 7.85946 17.1791 6.63055C15.7213 7.85946 14.7969 9.688 14.7969 11.7299C14.7969 13.7718 15.7213 15.6003 17.1791 16.8292Z" fill="#FF5E00"/>
</svg>
