<svg width="34" height="24" viewBox="0 0 34 24" fill="none" xmlns="http://www.w3.org/2000/svg">
<rect x="0.5" y="0.5" width="33" height="23" rx="3.5" fill="white"/>
<rect x="0.5" y="0.5" width="33" height="23" rx="3.5" stroke="#F2F4F7"/>
<g clip-path="url(#clip0_6508_81494)">
<path d="M24.3313 14.9644C22.3286 14.9644 20.6992 13.4103 20.6992 11.4999C20.6992 9.58951 22.3284 8.03564 24.3313 8.03564C26.3342 8.03564 27.9626 9.58975 27.9626 11.5001C27.9626 13.4105 26.3337 14.9644 24.3313 14.9644ZM24.3313 9.28596C23.0513 9.28596 22.0089 10.2793 22.0089 11.5001C22.0089 12.721 23.0501 13.7138 24.3303 13.7138C25.6104 13.7138 26.6514 12.7212 26.6514 11.5001C26.6514 10.279 25.609 9.2862 24.3303 9.2862" fill="#0A99AB"/>
<path d="M14.6779 10.8881H19.4759C19.8269 10.8881 19.8269 12.0994 19.4759 12.0994H14.6779C14.3274 12.0994 14.3274 10.8881 14.6779 10.8881Z" fill="#0A99AB"/>
<path d="M14.5119 8.78712L19.2662 8.17479C19.6137 8.13037 19.784 9.33128 19.4363 9.37617L14.6821 9.98779C14.3347 10.0327 14.1642 8.83153 14.5121 8.78664" fill="#0A99AB"/>
<path d="M14.5119 14.2129L19.2662 14.8252C19.6137 14.8698 19.784 13.6692 19.4363 13.6238L14.6821 13.0117C14.3347 12.9671 14.1642 14.1684 14.5121 14.2131" fill="#0A99AB"/>
<path d="M10.257 8.52497V14.5545C10.257 14.8901 8.99121 14.8901 8.99121 14.5545V8.52497C8.99121 8.18959 10.257 8.18959 10.257 8.52497Z" fill="#0A99AB"/>
<path d="M12.3562 8.35628L13.2093 14.3373C13.2559 14.6698 12.0008 14.833 11.9539 14.5L11.1009 8.51922C11.054 8.18669 12.3093 8.02351 12.3562 8.35628Z" fill="#0A99AB"/>
<path d="M6.89141 8.3563L6.03838 14.3373C5.99172 14.6701 7.24658 14.8333 7.29348 14.5007L8.14652 8.51995C8.19318 8.18742 6.93807 8.02424 6.89116 8.35701" fill="#0A99AB"/>
</g>
<defs>
<clipPath id="clip0_6508_81494">
<rect width="22" height="7" fill="white" transform="translate(6 8)"/>
</clipPath>
</defs>
</svg>
