<svg width="34" height="24" viewBox="0 0 34 24" fill="none" xmlns="http://www.w3.org/2000/svg">
<rect x="0.5" y="0.5" width="33" height="23" rx="3.5" fill="white"/>
<rect x="0.5" y="0.5" width="33" height="23" rx="3.5" stroke="#F2F4F7"/>
<g clip-path="url(#clip0_6505_81099)">
<path d="M15.3177 15.0156L11.639 8.7237C11.3941 8.30474 10.8556 8.16339 10.4367 8.40778C10.0168 8.65217 9.87516 9.18948 10.1201 9.60758L13.7988 15.8995C13.9626 16.1788 14.257 16.3347 14.5591 16.3347C14.7093 16.3347 14.8621 16.2964 15.0012 16.2146C15.421 15.9702 15.5626 15.4329 15.3177 15.0148V15.0156Z" fill="#F69220"/>
<path d="M23.8151 12.914C23.8006 12.4678 23.6632 12.0174 23.4038 11.5635C22.9993 10.8584 22.5428 10.3765 21.9249 10.0853C21.3993 9.83746 20.8113 9.69866 20.2055 9.76252C20.418 9.35123 20.528 8.89992 20.5707 8.44265C20.6321 7.77335 20.4103 7.18494 20.0024 6.48158C19.7404 6.02942 19.4187 5.68455 19.039 5.44782C18.6601 5.2111 18.2445 5.06804 17.7931 5.02035C17.3417 4.97267 16.8723 5.00928 16.3842 5.1302C16.2281 5.16852 16.0617 5.21706 15.8936 5.27241C15.8304 5.29284 15.7664 5.31583 15.6939 5.34138C15.4012 5.44782 14.6315 5.87444 14.3695 6.02601L13.1236 6.80346L13.0955 6.81963C12.6253 7.08787 12.4623 7.68479 12.7311 8.15398C12.912 8.4699 13.2422 8.64617 13.5827 8.64617C13.7474 8.64617 13.9147 8.60444 14.0683 8.51673L14.0896 8.50396L16.1504 7.3297C16.3416 7.219 16.5412 7.15088 16.7478 7.12533C16.9551 7.09894 17.1548 7.11426 17.3485 7.17046C17.5422 7.22581 17.724 7.31948 17.8938 7.44892C18.0627 7.5792 18.2035 7.73929 18.3145 7.93003C18.4254 8.12077 18.4988 8.32344 18.5355 8.53717C18.5713 8.7509 18.5722 8.95527 18.5372 9.15027C18.5022 9.34527 18.4314 9.52409 18.3239 9.68674C18.2163 9.84853 18.0721 9.98222 17.8912 10.0878L16.6488 10.8278L16.1197 11.1335L15.7775 11.3302C15.3329 11.5865 15.1802 12.1536 15.437 12.5973C15.6094 12.8953 15.9217 13.0613 16.2434 13.0613C16.4013 13.0613 16.5609 13.0213 16.7076 12.937L17.3963 12.5402L19.1593 11.5788C19.3419 11.4749 19.5305 11.4179 19.7242 11.4068C19.9196 11.3958 20.1099 11.4247 20.2959 11.492C20.482 11.5592 20.6586 11.6631 20.8258 11.8019C20.9922 11.9407 21.1305 12.1059 21.2406 12.2975C21.3506 12.4891 21.4189 12.6909 21.4462 12.9021C21.4735 13.1133 21.4633 13.3177 21.4138 13.5127C21.3652 13.7085 21.2773 13.8882 21.151 14.0542C21.0247 14.2203 20.866 14.3574 20.674 14.4672L17.6173 16.2043L17.4671 16.2903L16.9159 16.6097L15.8466 17.1845C15.3764 17.4374 15.2007 18.0224 15.4541 18.4924C15.629 18.816 15.9618 18.9999 16.3066 18.9999C16.461 18.9999 16.6189 18.9624 16.7648 18.8841L19.4042 17.4655L21.5196 16.3099C21.9949 16.0391 22.4071 15.7232 22.7569 15.363C23.1068 15.0028 23.3748 14.6162 23.5599 14.2024C23.7451 13.7894 23.8304 13.3594 23.8159 12.9123L23.8151 12.914Z" fill="#606060"/>
</g>
<defs>
<clipPath id="clip0_6505_81099">
<rect width="14" height="14" fill="white" transform="translate(10 5)"/>
</clipPath>
</defs>
</svg>
