<svg width="34" height="24" viewBox="0 0 34 24" fill="none" xmlns="http://www.w3.org/2000/svg">
<rect x="0.5" y="0.5" width="33" height="23" rx="3.5" fill="white"/>
<rect x="0.5" y="0.5" width="33" height="23" rx="3.5" stroke="#F2F4F7"/>
<path d="M9.75351 9.08246C9.3975 9.08444 9.04168 9.08504 8.68567 9.08207C8.62762 9.08167 8.60999 9.09237 8.61018 9.15497C8.61276 9.95219 8.61177 10.7494 8.61177 11.5466C8.61177 11.5682 8.61177 11.59 8.61177 11.6126C8.58383 11.6098 8.58383 11.5884 8.5775 11.5758C8.42197 11.2685 8.2718 10.9588 8.11212 10.6537C7.90033 10.2494 7.71054 9.83372 7.49261 9.43253C7.40643 9.27384 7.28637 9.14348 7.11757 9.07573C6.96423 9.01431 6.80257 8.98618 6.63318 9.00658C6.48558 9.02441 6.35502 9.06741 6.23734 9.1629C6.08777 9.28434 6.00376 9.43947 6.00317 9.62609C5.99941 11.029 6.00139 12.4318 6 13.8347C6 13.8806 6.0103 13.8935 6.05765 13.8933C6.41565 13.8911 6.77384 13.8906 7.13184 13.8937C7.19108 13.8943 7.20158 13.8761 7.20138 13.8216C7.19979 12.9329 7.20019 12.0441 7.20019 11.1554C7.20019 11.1334 7.20019 11.1116 7.20019 11.0783C7.21445 11.0916 7.21842 11.0937 7.2202 11.0973C7.37612 11.3971 7.53184 11.697 7.68775 11.9968C7.79771 12.2081 7.90826 12.4189 8.01782 12.6305C8.14144 12.8691 8.25912 13.111 8.38909 13.3461C8.48755 13.524 8.59176 13.7 8.75521 13.8313C8.89844 13.9464 9.06209 14.0013 9.24059 13.9771C9.57422 13.9324 9.8074 13.6427 9.80859 13.3239C9.81354 11.9294 9.81057 10.5349 9.81196 9.14031C9.81216 9.09257 9.79948 9.08226 9.75351 9.08246Z" fill="#FB0083"/>
<path d="M15.9995 10.4714C14.9847 10.4391 14.2566 11.2783 14.2077 12.1021C14.1784 12.5981 14.3278 13.0346 14.662 13.4013C14.9774 13.747 15.3689 13.9531 15.8412 13.9784C16.8526 14.0331 17.6702 13.159 17.6551 12.2259C17.6613 11.2656 16.8652 10.4989 15.9995 10.4714ZM16.3858 12.743C16.1578 12.9712 15.775 13.0009 15.5254 12.7812C15.3185 12.5991 15.2399 12.3745 15.2803 12.1023C15.3152 11.8691 15.4366 11.6965 15.6391 11.5858C15.759 11.5204 15.8915 11.5065 16.031 11.5283C16.1708 11.5501 16.2879 11.6101 16.3842 11.706C16.5259 11.8473 16.5986 12.0212 16.594 12.2197C16.5988 12.4268 16.5273 12.6013 16.3858 12.743Z" fill="#FB0083"/>
<path d="M13.9001 12.6437C13.6653 12.5256 13.4305 12.4075 13.1973 12.2865C13.1577 12.2658 13.1413 12.2732 13.1242 12.3108C13.039 12.499 12.9126 12.655 12.751 12.7835C12.5568 12.9381 12.3458 13.033 12.0887 13.0074C11.9219 12.991 11.7842 12.9173 11.678 12.8002C11.5031 12.607 11.4145 12.377 11.4333 12.1087C11.445 11.9425 11.4858 11.789 11.5722 11.6471C11.6493 11.5203 11.7509 11.4221 11.8884 11.3597C11.9928 11.3123 12.101 11.3187 12.2093 11.3202C12.3173 11.322 12.416 11.3599 12.5111 11.4076C12.5414 11.4229 12.5382 11.4346 12.5093 11.4522C12.4435 11.4926 12.3805 11.5376 12.3157 11.58C12.1016 11.72 11.887 11.8597 11.6732 12.0004C11.6609 12.0085 11.6449 12.016 11.6621 12.0426C11.7937 12.2452 11.9225 12.4497 12.0506 12.6546C12.0667 12.6803 12.073 12.6805 12.099 12.6625C12.4029 12.4513 12.7082 12.2425 13.0133 12.0331C13.238 11.8789 13.4626 11.725 13.6877 11.5715C13.7188 11.5503 13.7356 11.5312 13.7043 11.4944C13.6809 11.4668 13.6665 11.432 13.6477 11.4007C13.5199 11.1883 13.3653 10.9973 13.1724 10.8414C12.894 10.6163 12.5713 10.4973 12.2157 10.4713C12.0574 10.4598 11.8989 10.4723 11.7434 10.5076C11.4603 10.572 11.2059 10.697 10.9887 10.8878C10.7839 11.0676 10.6185 11.279 10.5083 11.5332C10.4245 11.7266 10.3795 11.9269 10.3619 12.1343C10.3486 12.2888 10.3659 12.4438 10.4005 12.5939C10.4992 13.0211 10.7235 13.3723 11.0741 13.6352C11.3755 13.8611 11.7162 13.9841 12.0847 13.9805C12.1612 13.9776 12.2248 13.9754 12.2886 13.9697C12.5022 13.9502 12.704 13.8896 12.895 13.7979C13.1423 13.6792 13.3566 13.5158 13.5399 13.3083C13.6982 13.129 13.8238 12.9321 13.9224 12.7154C13.9393 12.6789 13.9349 12.6611 13.9001 12.6437Z" fill="#FB0083"/>
<path d="M23.6235 10.5562C23.3093 10.5581 22.9949 10.5589 22.6805 10.5556C22.6232 10.555 22.6137 10.5718 22.6139 10.6245C22.6159 11.2343 22.6165 11.8443 22.6139 12.4541C22.6135 12.5615 22.5955 12.6669 22.538 12.764C22.4243 12.9557 22.1471 12.9817 21.9952 12.8418C21.8777 12.7335 21.8553 12.5902 21.8545 12.4446C21.8514 11.8348 21.8525 11.2248 21.8541 10.615C21.8543 10.5696 21.845 10.5556 21.7969 10.556C21.4827 10.5583 21.1682 10.5585 20.8538 10.5558C20.8007 10.5554 20.7898 10.5702 20.79 10.6211C20.792 11.2123 20.7914 11.8033 20.7912 12.3945C20.7912 12.5591 20.8053 12.7218 20.84 12.8832C20.9042 13.1818 21.0298 13.4437 21.2643 13.6478C21.3985 13.7644 21.547 13.8528 21.717 13.9053C21.9538 13.9786 22.1943 13.9951 22.4404 13.9683C22.6478 13.9457 22.8423 13.8899 23.021 13.7813C23.2713 13.6291 23.4448 13.4132 23.5528 13.1424C23.6491 12.9009 23.6768 12.6483 23.677 12.3911C23.6772 12.1163 23.677 11.8415 23.677 11.5669C23.677 11.2486 23.6762 10.93 23.678 10.6116C23.6782 10.5684 23.6681 10.556 23.6235 10.5562Z" fill="#FB0083"/>
<path d="M28.4859 10.5836C28.4863 10.5349 28.4728 10.5183 28.4225 10.5189C28.1976 10.5212 27.9727 10.5199 27.7481 10.5199C27.6306 10.5199 27.6116 10.4973 27.6377 10.3812C27.6417 10.3633 27.6445 10.3451 27.6492 10.3279C27.6861 10.1953 27.7501 10.0955 27.9272 10.0953C28.0833 10.0951 28.2394 10.0953 28.3955 10.0953C28.4851 10.0953 28.4851 10.0953 28.4851 10.0087C28.4851 9.74641 28.4851 9.4841 28.4851 9.222C28.4851 9.08371 28.4851 9.08054 28.347 9.0843C28.0845 9.09164 27.821 9.06251 27.5591 9.10808C27.2443 9.16276 26.9776 9.29748 26.7737 9.55047C26.6095 9.75433 26.5287 9.98851 26.5259 10.2447C26.5196 10.8378 26.5239 11.4312 26.5239 12.0244C26.5239 12.628 26.5245 13.2317 26.5227 13.8353C26.5225 13.8819 26.5338 13.894 26.5808 13.8936C26.9097 13.8914 27.2385 13.8906 27.5674 13.894C27.6272 13.8946 27.6367 13.8754 27.6367 13.8215C27.6352 13.0783 27.6361 12.3352 27.6346 11.5923C27.6344 11.5441 27.6455 11.5299 27.6954 11.5304C27.9389 11.5332 28.1826 11.5306 28.426 11.5326C28.4692 11.533 28.4869 11.5273 28.4865 11.4768C28.4835 11.179 28.4841 10.8814 28.4859 10.5836Z" fill="#FB0083"/>
<path d="M20.0389 12.1867C19.8329 12.0233 19.5878 11.9304 19.3537 11.8176C19.2677 11.7762 19.1755 11.7433 19.1096 11.6687C19.0834 11.6391 19.0717 11.6104 19.0898 11.5688C19.1167 11.507 19.1902 11.4567 19.2702 11.4567C19.547 11.4565 19.8238 11.4547 20.1006 11.4583C20.1582 11.4591 20.1675 11.4414 20.1669 11.3891C20.1641 11.1332 20.1641 10.8772 20.1669 10.6214C20.1675 10.5705 20.1564 10.5556 20.1031 10.556C19.7493 10.5586 19.3957 10.5584 19.0418 10.5568C18.9301 10.5562 18.8217 10.5762 18.7167 10.6091C18.4962 10.6781 18.3019 10.7908 18.1673 10.9848C18.0124 11.2084 17.993 11.461 18.0314 11.7206C18.0734 12.0053 18.2359 12.2149 18.4732 12.3639C18.6608 12.4817 18.8732 12.5515 19.0737 12.6442C19.1385 12.6741 19.215 12.7006 19.2275 12.7843C19.2435 12.892 19.1801 12.9552 19.0644 12.9552C18.7252 12.9556 18.3861 12.9562 18.0469 12.9544C17.9962 12.9542 17.9781 12.9671 17.9785 13.0208C17.9811 13.2934 17.9807 13.566 17.9785 13.8386C17.9781 13.8828 17.99 13.8939 18.0336 13.8933C18.2563 13.8909 18.479 13.8923 18.7017 13.8923C18.8764 13.8923 19.0513 13.8888 19.2261 13.8933C19.4254 13.8983 19.6173 13.868 19.801 13.7917C20.0177 13.7015 20.179 13.5484 20.2743 13.3348C20.344 13.1789 20.3654 13.0113 20.3672 12.8391C20.3706 12.562 20.2481 12.3528 20.0389 12.1867Z" fill="#FB0083"/>
<path d="M26.0958 10.5566C25.9698 10.554 25.8463 10.5685 25.7231 10.5942C25.5262 10.6352 25.3681 10.7275 25.2667 10.9084C25.2316 10.971 25.2072 11.0386 25.1632 11.0992C25.1632 10.9383 25.1609 10.7773 25.1646 10.6164C25.1658 10.5651 25.1488 10.556 25.102 10.5564C24.8211 10.5584 24.5402 10.5584 24.2592 10.5564C24.2141 10.556 24.2002 10.5655 24.2002 10.6136C24.2018 11.6874 24.2018 12.761 24.2004 13.8348C24.2004 13.8804 24.2099 13.894 24.2578 13.8936C24.5826 13.8913 24.9071 13.8909 25.2318 13.8938C25.2896 13.8944 25.3015 13.878 25.3021 13.8223C25.3095 13.2101 25.2772 12.5976 25.3261 11.9862C25.3388 11.8287 25.4313 11.6991 25.5823 11.6442C25.7459 11.5846 25.9163 11.568 26.089 11.5695C26.1188 11.5697 26.1388 11.5703 26.1386 11.5287C26.1368 11.2187 26.1372 10.9086 26.1384 10.5986C26.1382 10.5653 26.1281 10.5572 26.0958 10.5566Z" fill="#FB0083"/>
</svg>
