<svg width="34" height="24" viewBox="0 0 34 24" fill="none" xmlns="http://www.w3.org/2000/svg">
<rect x="0.5" y="0.5" width="33" height="23" rx="3.5" fill="white"/>
<rect x="0.5" y="0.5" width="33" height="23" rx="3.5" stroke="#F2F4F7"/>
<g clip-path="url(#clip0_6505_81131)">
<path d="M30.5055 10.3039C30.1615 10.1018 29.6407 9.99993 28.9582 9.99993H27.1706L26.506 13.0929H24.1642L24.3147 12.3912H25.7254L25.8926 11.603L24.4827 11.6048L24.6336 10.9062H26.0867L26.28 10.0001H23.3292L22.6983 12.934H21.6154L22.2506 9.99995H20.7081L20.0772 12.9339H19.0223L19.658 9.99995H18.1163L17.451 13.093H15.0923L15.2414 12.3912H16.6578L16.8251 11.6075L15.4101 11.6063L15.5603 10.9063H17.0296L17.2217 9.99988H8.02642L7.50304 12.4509L6.46075 9.99988H4.86037L3.99902 13.9999H5.5274L6.04876 11.4813L7.06018 13.9999H12.5378L13.2037 10.9059H14.0604L13.3944 13.9999H27.807L28.2249 12.0469L28.9009 13.9999H30.43L29.7296 12.404L29.8898 12.3745C30.2428 12.3096 30.5181 12.1703 30.7098 11.9614C30.9013 11.7506 30.9989 11.48 30.9989 11.155C30.9989 10.7765 30.8374 10.4981 30.5051 10.3037L30.5055 10.3039ZM11.2077 13.0929H8.86819L9.01932 12.3912H10.4868L10.6531 11.6008H9.1998L9.33978 10.9064H11.6759L11.2073 13.0929L11.2077 13.0929ZM29.2455 11.7456C29.0918 11.8378 28.8688 11.8827 28.5639 11.8827H28.2617L28.4935 10.8092H28.7159C28.969 10.8092 29.1536 10.844 29.281 10.915C29.3804 10.9706 29.4987 11.0807 29.4987 11.2889C29.4983 11.5407 29.3608 11.676 29.2451 11.7456L29.2455 11.7456Z" fill="#83BA3B"/>
</g>
<defs>
<clipPath id="clip0_6505_81131">
<rect width="27" height="4" fill="white" transform="translate(4 10)"/>
</clipPath>
</defs>
</svg>
