<svg width="34" height="24" viewBox="0 0 34 24" fill="none" xmlns="http://www.w3.org/2000/svg">
<rect x="0.5" y="0.5" width="33" height="23" rx="3.5" fill="white"/>
<rect x="0.5" y="0.5" width="33" height="23" rx="3.5" stroke="#F2F4F7"/>
<path d="M23.449 10.2735L22.6325 10.7325C22.202 10.4097 21.7612 10.2581 21.1815 10.2581C20.8136 10.2579 20.4505 10.3401 20.1202 10.4981C19.79 10.6561 19.5014 10.8859 19.2767 11.1696C19.052 11.4533 18.8972 11.7835 18.8242 12.1347C18.7512 12.4859 18.7619 12.8487 18.8556 13.1952C18.9492 13.5417 19.1233 13.8626 19.3644 14.1333C19.6055 14.404 19.9072 14.6171 20.2463 14.7564C20.5853 14.8957 20.9526 14.9573 21.32 14.9365C21.6874 14.9158 22.0449 14.8132 22.3651 14.6367V14.8795C22.3653 14.8957 22.3721 14.9112 22.384 14.9225C22.3958 14.9339 22.4118 14.9402 22.4285 14.9401H23.4843C23.5009 14.9401 23.5168 14.9337 23.5286 14.9224C23.5404 14.9111 23.5471 14.8956 23.5473 14.8795V10.3255C23.5472 10.3144 23.544 10.3035 23.5381 10.294C23.5321 10.2846 23.5236 10.2768 23.5136 10.2717C23.5035 10.2666 23.4921 10.2642 23.4807 10.2648C23.4694 10.2654 23.4584 10.269 23.449 10.2752V10.2735ZM21.1815 13.8357C20.9303 13.8357 20.6847 13.7633 20.4758 13.6274C20.2668 13.4915 20.104 13.2984 20.0078 13.0724C19.9116 12.8464 19.8864 12.5978 19.9354 12.3578C19.9843 12.1179 20.1053 11.8975 20.2829 11.7245C20.4605 11.5515 20.6868 11.4337 20.9332 11.3859C21.1796 11.3382 21.435 11.3626 21.6671 11.4562C21.8993 11.5498 22.0976 11.7084 22.2372 11.9117C22.3768 12.1151 22.4513 12.3543 22.4513 12.5989C22.4513 12.9268 22.3175 13.2414 22.0794 13.4733C21.8413 13.7052 21.5183 13.8356 21.1815 13.8357Z" fill="#210F60"/>
<path d="M8.99113 8.65004C8.30058 8.64777 7.62747 8.86008 7.07062 9.2558C6.51376 9.65152 6.10248 10.2098 5.89717 10.8487C5.89442 10.8574 5.89381 10.8667 5.89539 10.8757C5.89697 10.8846 5.9007 10.8931 5.90627 10.9005C5.91185 10.9078 5.91912 10.9138 5.92751 10.9179C5.9359 10.9221 5.94517 10.9243 5.95458 10.9243H7.1965C7.20757 10.9244 7.21845 10.9215 7.22793 10.916C7.23742 10.9104 7.24513 10.9025 7.25023 10.8929C7.42144 10.581 7.67877 10.3214 7.99346 10.143C8.30818 9.96458 8.66786 9.87449 9.03235 9.88274C10.0829 9.90127 10.8961 10.7385 10.9341 11.7034C10.9508 12.1325 10.8167 12.5544 10.5537 12.9001C10.2907 13.2457 9.91437 13.4945 9.48638 13.6058C9.05839 13.7171 8.60405 13.6843 8.19783 13.5128C7.79158 13.3412 7.45748 13.0411 7.25023 12.6616C7.24519 12.6522 7.23759 12.6443 7.22825 12.6387C7.21891 12.6332 7.20818 12.6302 7.19724 12.6302H5.95458C5.94517 12.6302 5.9359 12.6324 5.92751 12.6366C5.91912 12.6407 5.91185 12.6467 5.90627 12.654C5.9007 12.6614 5.89697 12.6699 5.89539 12.6789C5.89381 12.6878 5.89442 12.6971 5.89717 12.7058C6.0742 13.2578 6.40561 13.7514 6.85462 14.1319C7.30363 14.5124 7.85268 14.7649 8.4408 14.8613C9.02894 14.9578 9.63312 14.8944 10.1863 14.6782C10.7395 14.462 11.2201 14.1015 11.5747 13.6368C11.9292 13.172 12.144 12.621 12.195 12.0451C12.246 11.4692 12.1313 10.8909 11.8637 10.3743C11.5961 9.85777 11.186 9.42318 10.6789 9.1188C10.1718 8.81442 9.5876 8.65216 8.99113 8.65004Z" fill="#1DCF9F"/>
<path fill-rule="evenodd" clip-rule="evenodd" d="M7.15148 12.3671H5.6289C5.62041 12.3671 5.612 12.3654 5.60416 12.3622C5.59631 12.3589 5.58919 12.3542 5.5832 12.3482C5.57721 12.3423 5.57247 12.3352 5.56925 12.3274C5.56604 12.3196 5.56441 12.3113 5.56445 12.3029V11.2875C5.56441 11.279 5.56604 11.2707 5.56925 11.2629C5.57247 11.2551 5.57721 11.2481 5.5832 11.2421C5.58919 11.2361 5.59631 11.2314 5.60416 11.2282C5.612 11.2249 5.62041 11.2233 5.6289 11.2233H7.15148C7.15997 11.2233 7.16838 11.2249 7.17622 11.2282C7.18407 11.2314 7.19119 11.2361 7.19718 11.2421C7.20317 11.2481 7.20791 11.2551 7.21113 11.2629C7.21434 11.2707 7.21597 11.279 7.21593 11.2875V12.3029C7.21597 12.3113 7.21434 12.3196 7.21113 12.3274C7.20791 12.3352 7.20317 12.3423 7.19718 12.3482C7.19119 12.3542 7.18407 12.3589 7.17622 12.3622C7.16838 12.3654 7.15997 12.3671 7.15148 12.3671Z" fill="#210F60"/>
<path d="M18.2262 11.2877C18.2262 10.0666 17.22 9.02979 15.9704 9.00769H13.6244C13.6088 9.00769 13.5938 9.01374 13.5827 9.0245C13.5716 9.03527 13.5654 9.04987 13.5654 9.06509V14.848C13.5654 14.8632 13.5716 14.8778 13.5827 14.8886C13.5938 14.8994 13.6088 14.9054 13.6244 14.9054H14.6827C14.6983 14.9054 14.7134 14.8994 14.7244 14.8886C14.7355 14.8778 14.7417 14.8632 14.7417 14.848V13.6137H15.9536C17.2112 13.6005 18.2262 12.6803 18.2262 11.2891V11.2877ZM15.9275 12.4699H14.7413V10.1525H15.9275C16.5474 10.1525 17.0496 10.6873 17.0496 11.2888C17.0496 12.0375 16.5474 12.4696 15.9275 12.4696" fill="#210F60"/>
<path d="M28.8475 10.2582H27.768C27.7384 10.2582 27.7095 10.2667 27.6848 10.2826C27.6602 10.2985 27.6408 10.3212 27.6292 10.3477L26.4804 12.9376L25.348 10.3477C25.3363 10.3212 25.3169 10.2985 25.2922 10.2826C25.2675 10.2667 25.2385 10.2582 25.2089 10.2582L24.1188 10.2639C24.1092 10.2641 24.0998 10.2665 24.0915 10.2711C24.0831 10.2756 24.076 10.2821 24.0708 10.29C24.0656 10.2979 24.0625 10.3069 24.0617 10.3161C24.0609 10.3255 24.0625 10.3348 24.0663 10.3434L25.8457 14.4131L25.108 16.0764C25.1041 16.085 25.1026 16.0945 25.1034 16.104C25.1043 16.1134 25.1076 16.1225 25.1129 16.1304C25.1183 16.1383 25.1255 16.1447 25.1341 16.1492C25.1427 16.1536 25.1523 16.1559 25.1619 16.1559H26.2411C26.2707 16.1559 26.2997 16.1474 26.3244 16.1315C26.3491 16.1156 26.3685 16.0929 26.3802 16.0663L28.9011 10.3377C28.9049 10.329 28.9065 10.3196 28.9056 10.3102C28.9048 10.3008 28.9016 10.2917 28.8963 10.2838C28.8909 10.2759 28.8837 10.2695 28.8752 10.265C28.8667 10.2605 28.8571 10.2582 28.8475 10.2582Z" fill="#210F60"/>
</svg>
