<svg width="34" height="24" viewBox="0 0 34 24" fill="none" xmlns="http://www.w3.org/2000/svg">
<rect x="0.5" y="0.5" width="33" height="23" rx="3.5" fill="white"/>
<rect x="0.5" y="0.5" width="33" height="23" rx="3.5" stroke="#F2F4F7"/>
<g clip-path="url(#clip0_6505_81153)">
<path fill-rule="evenodd" clip-rule="evenodd" d="M13.4038 9.62103C13.4038 10.1106 12.9599 10.5146 12.4176 10.5146C11.8802 10.5146 11.4365 10.1106 11.4365 9.62103C11.4365 9.12702 11.8802 8.71841 12.4176 8.71841C12.9599 8.71841 13.4038 9.12702 13.4038 9.62103ZM14.1926 9.62103C14.1926 8.72289 13.4038 8 12.4176 8C11.4314 8 10.6475 8.72289 10.6475 9.62103C10.6475 10.519 11.4314 11.233 12.4176 11.233C13.4038 11.233 14.1926 10.519 14.1926 9.62103ZM20.6787 8.00004C20.6294 8.00004 20.585 8.03601 20.585 8.08095L20.5899 11.1028C20.5899 11.1479 20.6343 11.1882 20.6836 11.1882H21.2704C21.3246 11.1882 21.364 11.1479 21.364 11.1028V9.42803H21.369L23.3165 11.2106C23.3264 11.2196 23.3659 11.2331 23.3806 11.2331H23.4595C23.5088 11.2331 23.5532 11.1972 23.5532 11.1522V8.13036C23.5532 8.08543 23.5088 8.04497 23.4595 8.04497H22.8679C22.8136 8.04497 22.7741 8.08543 22.7741 8.13036V9.72438H22.7692L20.802 8.00004H20.6787ZM16.0125 9.39205C16.2245 9.39205 16.402 9.23932 16.402 9.03732C16.402 8.84876 16.2245 8.705 16.0125 8.705H15.5442V9.39205H16.0125ZM14.775 8.13036C14.775 8.08542 14.8145 8.04497 14.8686 8.04497H16.057C16.6633 8.04497 17.1614 8.49404 17.1614 9.03732C17.1614 9.59419 16.6633 10.0476 16.0619 10.0476H15.5442V11.1028C15.5442 11.1477 15.4998 11.1882 15.4504 11.1882H14.8686C14.8145 11.1882 14.775 11.1477 14.775 11.1028V8.13036ZM17.7947 8.04495C17.7406 8.04495 17.7011 8.08541 17.7011 8.13034V11.1028C17.7011 11.1479 17.7406 11.1882 17.7947 11.1882H19.836C19.8902 11.1882 19.9297 11.1479 19.9297 11.1028V10.6134C19.9297 10.5685 19.8902 10.528 19.836 10.528H18.4703V9.92188H19.5943C19.6437 9.92188 19.6881 9.88604 19.6881 9.83663V9.3471C19.6881 9.3023 19.6437 9.26185 19.5943 9.26185H18.4703V8.70498H19.836C19.8902 8.70498 19.9297 8.66467 19.9297 8.61973V8.13034C19.9297 8.08541 19.8902 8.04495 19.836 8.04495H17.7947Z" fill="#101289"/>
<path fill-rule="evenodd" clip-rule="evenodd" d="M11.1231 14.6106L10.7484 13.8696H10.7433L10.3736 14.6106H11.1231ZM9.0966 15.5714L10.6398 12.5494C10.6546 12.5224 10.6892 12.5 10.7236 12.5H10.773C10.8075 12.5 10.842 12.5224 10.8569 12.5494L12.4001 15.5714C12.4296 15.6298 12.3901 15.6882 12.3162 15.6882H11.769C11.6803 15.6882 11.6408 15.6613 11.5964 15.5759L11.4188 15.2212H10.0777L9.90019 15.5804C9.8756 15.6343 9.82134 15.6882 9.72281 15.6882H9.18037C9.10643 15.6882 9.06708 15.6298 9.0966 15.5714ZM7.62995 15.046C7.82224 15.046 7.98502 14.9024 7.98502 14.7183C7.98502 14.5385 7.7729 14.4039 7.58061 14.4039H7.18127V15.046H7.62995ZM7.56585 13.8201C7.75323 13.8201 7.91093 13.6765 7.91093 13.4969C7.91093 13.3172 7.75323 13.1915 7.56585 13.1915H7.18127V13.8201H7.56585ZM6.41211 12.6303C6.41211 12.5853 6.45161 12.5449 6.50572 12.5449H7.6547C8.23649 12.5449 8.71468 12.9085 8.71468 13.3802C8.71468 13.7259 8.37452 13.9773 8.14273 14.0895C8.40403 14.1884 8.80337 14.4083 8.80337 14.8214C8.80337 15.3244 8.31519 15.6881 7.72863 15.6881H6.50572C6.45161 15.6881 6.41211 15.6478 6.41211 15.6028V12.6303ZM12.9664 12.5C12.917 12.5 12.8726 12.536 12.8726 12.5809L12.8775 15.6028C12.8775 15.6479 12.9219 15.6882 12.9713 15.6882H13.558C13.6122 15.6882 13.6516 15.6479 13.6516 15.6028V13.928H13.6565L15.6042 15.7106C15.614 15.7195 15.6533 15.7331 15.6683 15.7331H15.7471C15.7965 15.7331 15.8409 15.6971 15.8409 15.6522V12.6303C15.8409 12.5854 15.7965 12.5449 15.7471 12.5449H15.1555C15.1012 12.5449 15.0617 12.5854 15.0617 12.6303V14.2243H15.0568L13.0896 12.5H12.9664ZM16.6019 12.6528C16.6019 12.5945 16.6512 12.545 16.7203 12.545H17.2971C17.3612 12.545 17.4153 12.5945 17.4153 12.6528V13.8338L18.5101 12.59C18.5297 12.5674 18.5742 12.545 18.6037 12.545H19.225C19.3187 12.545 19.3679 12.6439 19.3138 12.7112L18.1601 14.0268L19.4173 15.5176C19.4715 15.585 19.4173 15.6838 19.3236 15.6838H18.6432C18.6086 15.6838 18.5643 15.6657 18.5545 15.6523L17.4153 14.2424V15.5805C17.4153 15.6389 17.3612 15.6883 17.2971 15.6883H16.7203C16.6512 15.6883 16.6019 15.6389 16.6019 15.5805V12.6528ZM20.0788 12.545C20.0296 12.545 19.9852 12.5855 19.9852 12.6304V15.6029C19.9852 15.648 20.0296 15.6883 20.0788 15.6883H20.6706C20.7199 15.6883 20.7642 15.648 20.7642 15.6029V12.6304C20.7642 12.5855 20.7199 12.545 20.6706 12.545H20.0788ZM21.5348 12.5809C21.5348 12.536 21.5792 12.5 21.6284 12.5H21.7519L23.719 14.2243H23.7239V12.6303C23.7239 12.5854 23.7635 12.5449 23.8177 12.5449H24.4093C24.4587 12.5449 24.5029 12.5854 24.5029 12.6303V15.6522C24.5029 15.6971 24.4587 15.7331 24.4093 15.7331H24.3303C24.3157 15.7331 24.2762 15.7195 24.2664 15.7106L22.3187 13.928H22.3138V15.6028C22.3138 15.6479 22.2745 15.6882 22.22 15.6882H21.6333C21.584 15.6882 21.5397 15.6479 21.5397 15.6028L21.5348 12.5809ZM28.0414 12.9266C27.7062 12.6616 27.2526 12.5044 26.8383 12.5044C25.8572 12.5044 25.0684 13.2228 25.0684 14.1209C25.0684 15.019 25.8572 15.7284 26.8383 15.7284C27.5534 15.7284 28.0612 15.4367 28.0612 15.4367C28.0809 15.4232 28.1006 15.3873 28.1006 15.3649L28.0958 14.1569C28.0958 14.112 28.0563 14.0715 28.007 14.0715H27.0159C26.9618 14.0715 26.9223 14.1075 26.9223 14.1569V14.6014C26.9223 14.6463 26.9618 14.6823 27.0159 14.6823H27.3267V14.9427C27.1786 14.9966 27.0306 15.0145 26.8877 15.0145C26.3503 15.0145 25.9115 14.6105 25.9115 14.1209C25.9115 13.6271 26.3454 13.2138 26.8827 13.2138C27.1244 13.2138 27.3413 13.2722 27.5288 13.4294C27.5681 13.4564 27.6224 13.4564 27.6618 13.4249L28.0514 13.0477C28.0908 13.0118 28.0858 12.9579 28.0414 12.9266Z" fill="#101289"/>
</g>
<defs>
<clipPath id="clip0_6505_81153">
<rect width="24" height="9" fill="white" transform="translate(5 8)"/>
</clipPath>
</defs>
</svg>
