<svg width="34" height="24" viewBox="0 0 34 24" fill="none" xmlns="http://www.w3.org/2000/svg">
<rect x="0.5" y="0.5" width="33" height="23" rx="3.5" fill="white"/>
<rect x="0.5" y="0.5" width="33" height="23" rx="3.5" stroke="#F2F4F7"/>
<g clip-path="url(#clip0_6505_81179)">
<path d="M12.4674 8.87568C12.1691 8.70082 11.8377 8.6571 11.4515 8.6571C10.8463 8.6571 10.2759 8.86303 9.76143 9.36172L9.83958 8.8774C9.8584 8.76179 9.76999 8.6571 9.65363 8.6571H8.40387C8.31261 8.6571 8.23446 8.72325 8.21849 8.81413L7.00296 15.7637C6.98242 15.8799 7.07141 15.9863 7.18834 15.9863H8.43638C8.52765 15.9863 8.60579 15.9201 8.62177 15.8298L9.03816 13.4583C9.16878 13.6188 9.38326 13.747 9.60628 13.8471C9.82931 13.9472 10.0672 13.9972 10.3199 13.9972C10.8366 13.9972 11.3044 13.8851 11.7219 13.6602C12.1394 13.4353 12.4863 13.1258 12.7618 12.7318C13.0373 12.3378 13.2289 11.8903 13.3367 11.3893C13.3881 11.1489 13.4132 10.9194 13.4132 10.7019C13.4132 10.2895 13.3299 9.92541 13.1639 9.61078C12.9985 9.29557 12.7658 9.05054 12.4674 8.87568ZM11.8885 11.3122C11.8343 11.5555 11.735 11.7747 11.5901 11.9697C11.4453 12.1647 11.2656 12.3182 11.0511 12.4315C10.8366 12.5449 10.6045 12.6012 10.3547 12.6012C10.1442 12.6012 9.96621 12.5569 9.81961 12.4678C9.67302 12.3792 9.5635 12.2596 9.48935 12.1089C9.4152 11.9587 9.37869 11.7914 9.37869 11.6084C9.37869 11.5026 9.38839 11.4037 9.40835 11.3122C9.45399 11.0948 9.55095 10.8848 9.7004 10.6829C9.84928 10.4811 10.0312 10.3171 10.2457 10.1912C10.4602 10.0652 10.6826 10.0019 10.9125 10.0019C11.2451 10.0019 11.4972 10.0905 11.6689 10.2682C11.8406 10.446 11.9267 10.6806 11.9267 10.9728C11.9267 11.0816 11.9136 11.1949 11.8885 11.3122Z" fill="#F7931A"/>
<path d="M27.702 8.65649H26.8264C25.8368 8.65649 24.9897 9.37319 24.8181 10.3562L24.7017 11.0217H23.821C23.7297 11.0217 23.6516 11.0879 23.6356 11.1787L23.4502 12.2406C23.4297 12.3567 23.5187 12.4632 23.6356 12.4632H24.4501L24.1444 14.1726C24.1045 14.3993 23.9094 14.5649 23.6807 14.5649H23.1947C23.1034 14.5649 23.0253 14.6311 23.0093 14.722L22.8262 15.7648C22.8057 15.881 22.8946 15.9874 23.0116 15.9874L23.7309 15.988C24.7319 15.9885 25.5892 15.2644 25.7632 14.2698L26.0786 12.4649L27.1031 12.4632C27.1944 12.4632 27.2725 12.397 27.2879 12.3061L27.4733 11.2443C27.4938 11.1281 27.4048 11.0211 27.2873 11.0217L26.3302 11.0234L26.4072 10.5851C26.4517 10.3309 26.6707 10.1451 26.9268 10.144L27.5069 10.1428C27.5982 10.1428 27.6763 10.0767 27.6917 9.98635L27.8863 8.87967C27.9079 8.76291 27.8189 8.65649 27.702 8.65649Z" fill="#F7931A"/>
<path d="M21.6259 13.0706H16.4746V14.5339H18.7716C18.8783 14.5339 18.965 14.6213 18.965 14.7289V15.7999C18.965 15.9074 19.0517 15.9949 19.1584 15.9949H20.5131C20.6197 15.9949 20.7064 15.9074 20.7064 15.7999V14.7277C20.7064 14.6201 20.7931 14.5327 20.8998 14.5327H21.6265C21.7332 14.5327 21.8199 14.4453 21.8199 14.3377V13.2655C21.8193 13.1574 21.7326 13.0706 21.6259 13.0706Z" fill="#F7931A"/>
<path d="M21.3042 7.89033L20.0778 7.17651C19.893 7.06895 19.6563 7.1328 19.5496 7.31916L17.0934 11.609C16.9446 11.869 17.1305 12.194 17.4283 12.194H19.8074C19.9455 12.194 20.0732 12.1198 20.1422 11.999L21.6812 9.31107C21.9664 8.81352 21.797 8.17736 21.3042 7.89033ZM20.3265 8.53168L20.5815 8.68008L20.1474 9.43819L19.8924 9.28979L20.3265 8.53168ZM19.727 8.40801C19.7806 8.31483 19.8987 8.28262 19.9911 8.33669L20.0749 8.38558L19.6409 9.14369L19.3899 8.99759L19.727 8.40801ZM20.4514 10.0692C20.3978 10.1624 20.2797 10.1946 20.1873 10.1405L19.2655 9.60385C19.1731 9.54978 19.1412 9.43071 19.1948 9.33753L19.2444 9.25067L20.5016 9.98233L20.4514 10.0692ZM20.9842 9.13966L20.6465 9.72924L20.3989 9.58486L20.833 8.82675L20.9134 8.87334C21.0058 8.92684 21.0372 9.04648 20.9842 9.13966Z" fill="#F7931A"/>
<path d="M14.5773 11.8379L17.5679 6.61453C17.7812 6.24123 18.2546 6.11354 18.6243 6.32924L18.7954 6.42874C18.8878 6.48281 18.9197 6.60188 18.8661 6.69506L15.2954 12.9314C15.2418 13.0245 15.1237 13.0567 15.0313 13.0027L14.8602 12.9032C14.4905 12.688 14.3639 12.2112 14.5773 11.8379Z" fill="#F7931A"/>
</g>
<defs>
<clipPath id="clip0_6505_81179">
<rect width="21" height="10" fill="white" transform="translate(7 6)"/>
</clipPath>
</defs>
</svg>
