<svg width="34" height="24" viewBox="0 0 34 24" fill="none" xmlns="http://www.w3.org/2000/svg">
<g id="Paysafecart">
<rect x="0.5" y="0.5" width="33" height="23" rx="3.5" fill="white"/>
<rect x="0.5" y="0.5" width="33" height="23" rx="3.5" stroke="#F2F4F7"/>
<path id="Union" fill-rule="evenodd" clip-rule="evenodd" d="M13.5927 9.08726C13.4043 9.12242 13.2159 9.17847 13.0275 9.25032C12.7314 9.36141 12.4795 9.50612 12.2587 9.66715C12.2505 9.45517 12.2552 9.25236 12.2705 9.0577C12.3817 6.80337 14.5216 5 17.1502 5C19.7033 5 21.7973 6.69636 22.0192 8.85795C22.0569 9.10713 22.0699 9.3716 22.0557 9.64626C21.7084 9.36548 21.2628 9.17694 20.7241 9.08828C20.3785 7.65792 18.9139 6.58323 17.1578 6.58323C15.4029 6.58323 13.9388 7.65639 13.5927 9.08726ZM14.1558 9.57067H20.0133C21.5262 9.58188 22.2956 10.2978 22.3198 11.72V15.8496C22.2956 17.2698 21.5262 17.9883 20.0133 18H14.1558C13.8738 18 13.5818 17.9424 13.281 17.8282C12.9908 17.7177 12.7529 17.5852 12.5622 17.4242C12.199 17.0481 12.013 16.4957 12 15.7665V11.8031C12.013 11.0754 12.199 10.5225 12.5622 10.1444C12.7529 9.98597 12.9908 9.85348 13.281 9.74393C13.5818 9.62723 13.8738 9.57067 14.1558 9.57067Z" fill="#E3001B"/>
</g>
</svg>
