<svg width="34" height="24" viewBox="0 0 34 24" fill="none" xmlns="http://www.w3.org/2000/svg">
<rect x="0.5" y="0.5" width="33" height="23" rx="3.5" fill="white"/>
<rect x="0.5" y="0.5" width="33" height="23" rx="3.5" stroke="#F2F4F7"/>
<g clip-path="url(#clip0_6501_5607)">
<path d="M8.77049 11.7986C8.76761 11.7214 8.72553 11.6815 8.64385 11.6789H8.20756C8.10429 11.6844 8.05094 11.7334 8.04847 11.8256V12.5049C8.05094 12.6001 8.10993 12.6487 8.22461 12.6514H8.62447C8.66599 12.6514 8.7005 12.6381 8.72801 12.6108C8.75674 12.5904 8.77049 12.5641 8.77049 12.5314V11.7986ZM7.48828 11.7022C7.49117 11.5323 7.53489 11.4031 7.61973 11.3148C7.66415 11.2778 7.7197 11.2468 7.78735 11.2213C7.85761 11.194 7.92568 11.1808 7.99168 11.1808H8.79249C9.14574 11.1834 9.32532 11.3506 9.33095 11.6828V12.7052C9.32834 12.8232 9.27499 12.9255 9.17186 13.0111C9.0697 13.1011 8.94773 13.1469 8.80569 13.1496H8.04847V13.8867H7.48828V11.7022Z" fill="#008AC9"/>
<path d="M10.3425 12.5527C10.3425 12.5812 10.3577 12.6037 10.3872 12.6206C10.4136 12.6408 10.4469 12.6514 10.489 12.6514H10.9192C11.0165 12.6514 11.0669 12.6188 11.0698 12.5527V12.4137C11.0698 12.3378 11.0185 12.2995 10.9151 12.2995H10.489C10.4329 12.2995 10.3941 12.3076 10.3725 12.3228C10.3526 12.3408 10.3425 12.3764 10.3425 12.4291V12.5527ZM11.0698 11.7866C11.0727 11.7121 11.0225 11.6765 10.9191 11.6789H9.79089V11.1808H11.0611C11.4312 11.186 11.619 11.3408 11.6253 11.6463V12.6883C11.6221 12.8201 11.5755 12.9287 11.4851 13.0151C11.3905 13.1047 11.2685 13.1496 11.119 13.1496H10.3512C9.97748 13.1469 9.788 12.9992 9.78223 12.7056V12.3035C9.78511 11.9967 9.96621 11.8408 10.3247 11.8354H11.0698V11.7866Z" fill="#008AC9"/>
<path d="M13.1981 13.3885C13.2425 13.3861 13.281 13.3723 13.3122 13.3476C13.3422 13.3245 13.3573 13.2979 13.3573 13.2678V13.1496H12.6401C12.5466 13.1496 12.4718 13.1393 12.416 13.1187C12.357 13.1 12.2983 13.0651 12.2392 13.0156C12.1832 12.9631 12.1429 12.9083 12.1184 12.8509C12.093 12.7984 12.0801 12.7316 12.0801 12.6514V11.1808H12.6401V12.4936C12.6401 12.5988 12.6898 12.6514 12.7903 12.6514H13.1857C13.2328 12.6514 13.2736 12.6381 13.3078 12.6108C13.3408 12.5877 13.3573 12.5604 13.3573 12.5282V11.1808H13.9129V13.3503C13.9097 13.5109 13.8621 13.6394 13.7704 13.7369C13.6773 13.8344 13.55 13.8842 13.3876 13.8867H12.0801V13.3885H13.1981Z" fill="#008AC9"/>
<path d="M14.3535 12.6514H15.3516C15.4429 12.6487 15.4904 12.617 15.4933 12.5563V12.5116C15.4933 12.4986 15.4887 12.4842 15.4799 12.4687C15.4577 12.4311 15.4303 12.4124 15.3977 12.4124H14.9028C14.756 12.4099 14.6307 12.3661 14.5254 12.2816C14.4188 12.2035 14.3642 12.1075 14.3611 11.9948V11.6233C14.3669 11.3335 14.5488 11.186 14.9071 11.1808H16.0647V11.6789H15.0839C14.9688 11.6789 14.9108 11.7095 14.9108 11.7704V11.8186C14.9108 11.8818 14.9701 11.9135 15.0882 11.9135H15.5816C15.713 11.9161 15.8251 11.9597 15.9184 12.0446C16.0128 12.1302 16.0617 12.232 16.0647 12.3502V12.7135C16.0617 12.8157 16.0071 12.9176 15.9022 13.0192C15.8511 13.0691 15.7987 13.1033 15.7463 13.1227C15.6921 13.1406 15.6185 13.1496 15.5246 13.1496H14.3535V12.6514Z" fill="#008AC9"/>
<path d="M17.0227 12.5527C17.0227 12.5812 17.0378 12.6037 17.068 12.6206C17.0942 12.6408 17.1276 12.6514 17.1691 12.6514H17.6002C17.6974 12.6514 17.7476 12.6188 17.7505 12.5527V12.4137C17.7505 12.3378 17.6985 12.2995 17.5955 12.2995H17.1691C17.1131 12.2995 17.0745 12.3076 17.0531 12.3228C17.0331 12.3408 17.0227 12.3764 17.0227 12.4291V12.5527ZM17.7505 11.7866C17.7529 11.7121 17.7028 11.6765 17.5992 11.6789H16.4713V11.1808H17.7419C18.1115 11.186 18.2995 11.3408 18.3053 11.6463V12.6883C18.3023 12.8201 18.2552 12.9287 18.1653 13.0151C18.0714 13.1047 17.9493 13.1496 17.7997 13.1496H17.0312C16.6577 13.1469 16.4681 12.9992 16.4629 12.7056V12.3035C16.4654 11.9967 16.6463 11.8408 17.0051 11.8354H17.7505V11.7866Z" fill="#008AC9"/>
<path d="M18.7607 10.8984C18.7642 10.7639 18.8214 10.6559 18.9336 10.575C19.0425 10.4928 19.1855 10.4505 19.3623 10.4481H19.718V10.9293H19.5026C19.3842 10.9317 19.3238 10.9807 19.3212 11.0755V11.1809H19.718V11.6795H19.3212V13.1499H18.7607V10.8984Z" fill="#008AC9"/>
<path d="M21.3113 11.7773V11.7658C21.3113 11.7402 21.2993 11.7184 21.2752 11.7022C21.2491 11.6865 21.2172 11.6789 21.1788 11.6789H20.7889C20.7388 11.6789 20.6985 11.691 20.6673 11.7159C20.6286 11.7389 20.6089 11.7691 20.6089 11.8064V12.0063L21.3113 11.7773ZM20.6178 12.4815V12.5125C20.6178 12.5524 20.6298 12.5841 20.6541 12.607C20.6717 12.6364 20.6954 12.6514 20.7269 12.6514H21.8776V13.1496H20.6541C20.5425 13.1496 20.4554 13.1406 20.394 13.1225C20.3267 13.1033 20.2664 13.072 20.2137 13.0285C20.1521 12.9758 20.1102 12.9221 20.0891 12.8668C20.066 12.8092 20.0546 12.7328 20.0546 12.6376L20.0498 11.6406C20.056 11.3393 20.2378 11.186 20.595 11.1808H21.3502C21.699 11.186 21.8757 11.3447 21.8813 11.6576V12.0514L20.6178 12.4815Z" fill="#008AC9"/>
<path d="M23.067 13.1497C22.9822 13.1497 22.9048 13.1429 22.8345 13.1305C22.761 13.1202 22.6877 13.0906 22.6127 13.0408C22.5359 12.9828 22.4827 12.9178 22.4535 12.8461C22.4227 12.7755 22.4079 12.6955 22.4079 12.6055V11.6758C22.4047 11.6 22.4135 11.5335 22.434 11.4758C22.4528 11.4182 22.4924 11.3617 22.5522 11.3065C22.6204 11.2485 22.69 11.21 22.7634 11.1911C22.8341 11.1757 22.9137 11.168 23.003 11.168H23.8615V11.2845H23.0229C22.8748 11.2845 22.7585 11.3108 22.6734 11.3635C22.5863 11.421 22.5419 11.5202 22.5419 11.6599V12.5902C22.5419 12.6556 22.5535 12.7193 22.5764 12.7807C22.5999 12.8411 22.6391 12.894 22.6954 12.9403C22.7564 12.9804 22.8172 13.0054 22.8765 13.0157C22.9382 13.0274 23.0045 13.033 23.0747 13.033H23.875V13.1497H23.067Z" fill="#008AC9"/>
<path d="M26.0694 11.9435H24.9438C24.8091 11.9461 24.7035 11.9822 24.6275 12.0517C24.5488 12.1223 24.5099 12.219 24.5099 12.342V12.6387C24.5099 12.6962 24.5168 12.7488 24.5311 12.7962C24.5452 12.8461 24.5806 12.8906 24.6364 12.9288C24.7336 12.9985 24.8413 13.033 24.959 13.033H25.641C25.926 13.0304 26.0694 12.9004 26.0694 12.6424V11.9435ZM26.2032 12.6134C26.2032 12.6882 26.1966 12.7539 26.1855 12.8118C26.1673 12.8746 26.1301 12.9352 26.0736 12.9928C25.956 13.1 25.8103 13.1523 25.6363 13.1497H24.9671C24.7931 13.1497 24.6522 13.1047 24.543 13.0152C24.4315 12.9268 24.375 12.8038 24.375 12.6461V12.3464C24.3806 12.0083 24.5752 11.8351 24.9586 11.8272H26.0736V11.6961C26.0736 11.588 26.0374 11.4934 25.9655 11.412C25.9198 11.3591 25.8658 11.3238 25.8045 11.3056C25.7425 11.2915 25.6729 11.2845 25.5953 11.2845H24.379V11.168H25.5321C25.6375 11.168 25.7328 11.1744 25.8192 11.187C25.8636 11.1946 25.9039 11.2096 25.9412 11.2313C25.9806 11.2519 26.0175 11.282 26.0516 11.3215C26.155 11.437 26.2054 11.5701 26.2032 11.7201V12.6134Z" fill="#008AC9"/>
<path d="M27.4626 11.2845C27.1505 11.2895 26.9966 11.437 27.0024 11.7271V13.1497H26.8683V11.7276C26.862 11.3544 27.0673 11.168 27.4842 11.168H27.6332V11.2845H27.4626Z" fill="#008AC9"/>
<path d="M29.7301 11.2851H28.6692C28.5927 11.2851 28.5242 11.2925 28.4625 11.3065C28.3979 11.3192 28.3355 11.3531 28.277 11.4083C28.2211 11.4587 28.1859 11.5085 28.1711 11.5584C28.1515 11.6087 28.1425 11.6691 28.1457 11.7394V12.6464C28.1457 12.7972 28.1962 12.8998 28.2985 12.9549C28.3489 12.9805 28.4043 12.9996 28.4665 13.0125C28.5284 13.0268 28.5974 13.0338 28.6734 13.0338H29.1374C29.3106 13.0338 29.4524 12.9993 29.5613 12.9296C29.6707 12.8643 29.7264 12.7516 29.7301 12.5909V11.2851ZM29.8641 12.5989C29.8522 12.9743 29.6228 13.1583 29.1757 13.1505H28.6784C28.5733 13.1505 28.4794 13.1426 28.3964 13.1275C28.3108 13.1083 28.229 13.0632 28.1502 12.9928C28.091 12.9296 28.0529 12.8657 28.0376 12.8003C28.0171 12.7349 28.0082 12.6622 28.0114 12.5828V11.7365C28.0171 11.3552 28.2389 11.1657 28.6773 11.1686H29.7301V10.526H29.8641V12.5989Z" fill="#008AC9"/>
<path d="M4.3768 11.1059C4.42081 11.0891 4.46481 11.076 4.50881 11.0678C4.58966 10.7336 4.93163 10.483 5.34152 10.483C5.75169 10.483 6.0938 10.734 6.17451 11.0681C6.30033 11.0888 6.40442 11.1328 6.48555 11.1984C6.48885 11.1342 6.48582 11.0725 6.47702 11.0143C6.42518 10.5094 5.93608 10.1132 5.33974 10.1132C4.72579 10.1132 4.22596 10.5344 4.19998 11.0609C4.1964 11.1064 4.1953 11.1538 4.19723 11.2033C4.24879 11.1657 4.30764 11.1319 4.3768 11.1059Z" fill="#E3001B"/>
<path d="M6.0084 11.1808H4.64025C4.57439 11.1808 4.50619 11.194 4.43592 11.2213C4.36814 11.2468 4.31258 11.2778 4.26803 11.3148C4.18319 11.4031 4.13974 11.5323 4.13672 11.7022V12.628C4.13974 12.7983 4.18319 12.9273 4.26803 13.0151C4.31258 13.0528 4.36814 13.0837 4.43592 13.1095C4.50619 13.1362 4.57439 13.1496 4.64025 13.1496H6.0084C6.36179 13.1469 6.5415 12.9791 6.54714 12.6474V11.6828C6.5415 11.3506 6.36179 11.1834 6.0084 11.1808Z" fill="#E3001B"/>
</g>
<defs>
<clipPath id="clip0_6501_5607">
<rect width="26" height="4" fill="white" transform="translate(4 10)"/>
</clipPath>
</defs>
</svg>
