<svg width="34" height="24" viewBox="0 0 34 24" fill="none" xmlns="http://www.w3.org/2000/svg">
<rect x="0.5" y="0.5" width="33" height="23" rx="3.5" fill="white"/>
<rect x="0.5" y="0.5" width="33" height="23" rx="3.5" stroke="#F2F4F7"/>
<g clip-path="url(#clip0_6505_81209)">
<path d="M9.69843 12.3658V12.2987C9.69843 11.5265 9.31015 11.1572 8.69865 11.1572C8.06767 11.1572 7.68921 11.5517 7.68921 12.2904V12.3575C7.68921 13.1045 8.06767 13.4823 8.69865 13.4823C9.34896 13.4823 9.69843 13.0876 9.69843 12.3658ZM9.31982 10.0238C10.504 10.0238 11.4644 10.796 11.4644 12.2985V12.3658C11.4644 13.8766 10.5034 14.6321 9.30939 14.6321C8.54264 14.6321 7.98929 14.3216 7.73693 13.8851V16.0007H6V10.1414H7.73678V10.796C7.89702 10.5569 8.1283 10.3592 8.40665 10.2234C8.685 10.0877 9.00028 10.0187 9.31982 10.0238Z" fill="black"/>
<path d="M15.6116 12.3334V12.2663C15.6116 11.5024 15.2427 11.1331 14.6602 11.1331C14.0487 11.1331 13.6895 11.5108 13.6895 12.2746V12.3418C13.6895 13.0804 14.0583 13.458 14.631 13.458C15.2134 13.458 15.6115 13.0804 15.6115 12.3333M11.9229 12.3585V12.2913C11.923 10.7974 12.9131 10 14.0488 10C14.8156 10 15.2721 10.2855 15.563 10.7303V10.1175H17.3005V14.5073H15.563V13.8022C15.422 14.0466 15.2043 14.2517 14.9348 14.3942C14.6653 14.5367 14.3549 14.6108 14.039 14.6079C12.913 14.6079 11.9229 13.8776 11.9229 12.3585Z" fill="black"/>
<path d="M20.7761 12.4831L21.7467 10.1414H23.4065L20.6881 16.0001H19.0289L19.8734 14.0862L17.8447 10.1414H19.7278L20.7761 12.4831Z" fill="black"/>
<path d="M23.4961 14.5311V13.4898L25.8068 11.2739H23.7776L23.7679 10.1407H27.8352V11.2487L25.6219 13.3896H28.0001V14.5311H23.4961Z" fill="black"/>
</g>
<defs>
<clipPath id="clip0_6505_81209">
<rect width="22" height="6" fill="white" transform="translate(6 10)"/>
</clipPath>
</defs>
</svg>
