<svg width="34" height="24" viewBox="0 0 34 24" fill="none" xmlns="http://www.w3.org/2000/svg">
<rect x="0.5" y="0.5" width="33" height="23" rx="3.5" fill="white"/>
<rect x="0.5" y="0.5" width="33" height="23" rx="3.5" stroke="#F2F4F7"/>
<path fill-rule="evenodd" clip-rule="evenodd" d="M10.1435 8H12.5052V10.3443H10.1435V8ZM10.5458 8.40238H12.1029V9.94192H10.5458V8.40238ZM10.9307 8.76977H11.7355V9.57453H10.9307V8.76977ZM6.24213 9.25962H7.51924C8.56893 9.25962 9.42617 10.1169 9.42617 11.1665C9.42617 12.2162 8.56893 13.056 7.51924 13.056H6.24213V14.508H5V13.056V10.1868H6.24213V9.25962ZM6.24213 10.2043V12.1288H7.29181C7.83415 12.1288 8.27152 11.6914 8.27152 11.1665C8.27152 10.6242 7.83415 10.2043 7.29181 10.2043H6.24213ZM10.1435 11.1491H11.3856V14.508H10.1435V11.1491ZM17.9811 9.25962H19.2582C20.3079 9.25962 21.1651 10.1169 21.1651 11.1665C21.1651 12.2162 20.3079 13.056 19.2582 13.056H17.9811V14.508H16.739V13.056V10.1868H17.9811V9.25962ZM17.9811 10.2043V12.1288H19.0308C19.5731 12.1288 20.0105 11.6914 20.0105 11.1665C20.0105 10.6242 19.5731 10.2043 19.0308 10.2043H17.9811ZM14.2722 10.4318C14.972 10.4318 15.6018 10.7642 15.9867 11.2715L15.3219 11.9363C15.1295 11.5864 14.7796 11.359 14.3772 11.359C13.7824 11.359 13.2925 11.8663 13.2925 12.5136C13.2925 13.1435 13.7824 13.6683 14.3772 13.6683C14.7796 13.6683 15.1295 13.4234 15.3219 13.091L15.9867 13.7558C15.6018 14.2631 14.972 14.5955 14.2722 14.5955C13.1001 14.5955 12.1379 13.6683 12.1379 12.5311C12.1204 11.359 13.0826 10.4318 14.2722 10.4318ZM26.571 16.0826H27.7782L30 10.5017H28.7929L27.7782 13.0735L26.7635 10.5017H25.5563L27.1833 14.5955L26.571 16.0826ZM25.2414 14.4381H24.1218V14.1232C22.7922 14.9979 21.6725 14.4206 21.5325 13.5633C21.3751 12.6186 21.9699 11.9188 24.2267 12.1113C24.2267 11.254 22.9496 11.1491 22.0749 11.7439L21.6725 10.9391C23.2645 10.0994 25.2414 10.3618 25.2414 11.7614V14.4381ZM24.2617 12.7586H23.2995C22.3373 12.7586 22.5472 14.0007 23.4745 13.8083C23.9468 13.7033 24.2442 13.3884 24.2617 12.7586Z" fill="#3FAD57"/>
</svg>
