<svg width="34" height="24" viewBox="0 0 34 24" fill="none" xmlns="http://www.w3.org/2000/svg">
<rect x="0.5" y="0.5" width="33" height="23" rx="3.5" fill="white"/>
<rect x="0.5" y="0.5" width="33" height="23" rx="3.5" stroke="#F2F4F7"/>
<path fill-rule="evenodd" clip-rule="evenodd" d="M13.2502 8.28297C13.7995 8.28297 14.3161 8.49688 14.7045 8.88518L16.812 10.9935C16.9638 11.1453 17.2116 11.1459 17.3638 10.9933L19.4637 8.89286C19.8521 8.50456 20.3687 8.29066 20.918 8.29066H21.1709L18.5038 5.62308C17.6732 4.79231 16.3265 4.79231 15.4959 5.62308L12.8365 8.28298L13.2502 8.28297ZM20.9181 15.7119C20.3688 15.7119 19.8522 15.498 19.4638 15.1097L17.3639 13.0094C17.2165 12.8616 16.9595 12.862 16.8122 13.0094L14.7046 15.1174C14.3162 15.5057 13.7996 15.7196 13.2503 15.7196H12.8365L15.4961 18.3795C16.3266 19.2103 17.6733 19.2103 18.5039 18.3795L21.171 15.7119H20.9181ZM21.7655 8.88506L23.3773 10.4971C24.2078 11.3279 24.2078 12.6747 23.3773 13.5055L21.7655 15.1175C21.73 15.1033 21.6916 15.0944 21.651 15.0944H20.9182C20.5394 15.0944 20.1685 14.9407 19.9008 14.6728L17.801 12.5727C17.4204 12.1917 16.7564 12.1918 16.3754 12.5725L14.2679 14.6804C14.0002 14.9484 13.6293 15.102 13.2504 15.102H12.3494C12.3109 15.102 12.275 15.1111 12.2411 15.1238L10.623 13.5055C9.79234 12.6747 9.79234 11.3279 10.623 10.4971L12.2411 8.87864C12.275 8.89142 12.3109 8.90048 12.3494 8.90048H13.2504C13.6293 8.90048 14.0002 9.05411 14.2679 9.32212L16.3756 11.4302C16.5721 11.6266 16.8301 11.7249 17.0883 11.7249C17.3463 11.7249 17.6045 11.6266 17.801 11.43L19.9008 9.3298C20.1685 9.06185 20.5394 8.90815 20.9182 8.90815H21.651C21.6916 8.90815 21.73 8.89928 21.7655 8.88506Z" fill="#32BCAD"/>
</svg>
