<svg width="34" height="24" viewBox="0 0 34 24" fill="none" xmlns="http://www.w3.org/2000/svg">
<rect x="0.5" y="0.5" width="33" height="23" rx="3.5" fill="white"/>
<rect x="0.5" y="0.5" width="33" height="23" rx="3.5" stroke="#F2F4F7"/>
<g clip-path="url(#clip0_6505_81245)">
<path d="M12.2617 14.9917C11.9295 14.9917 11.5987 14.9917 11.2666 14.9917C11.2666 14.9519 11.2806 14.9161 11.296 14.8789C11.3633 14.707 11.432 14.5336 11.4964 14.3603C11.5805 14.1401 11.6604 13.9186 11.7445 13.6971C11.8272 13.4811 11.9141 13.2665 11.9954 13.0505C12.0851 12.8098 12.172 12.569 12.2701 12.3324C12.2981 12.2649 12.2841 12.2457 12.2098 12.2471C11.9645 12.2526 11.7193 12.2539 11.4754 12.2457C11.4011 12.2429 11.3703 12.2636 11.3465 12.3337C11.3212 12.408 11.296 12.4809 11.268 12.5539C11.1839 12.7712 11.097 12.9886 11.0143 13.206C10.912 13.4729 10.8153 13.7425 10.7144 14.0094C10.6121 14.2763 10.5041 14.5419 10.4046 14.8101C10.3822 14.8693 10.3458 14.9257 10.3444 14.9904C10.0178 14.9904 9.68984 14.9904 9.36328 14.9904C9.39131 14.8432 9.46279 14.7111 9.51325 14.5708C9.57351 14.4029 9.64219 14.2378 9.70666 14.07C9.77253 13.8966 9.8384 13.7233 9.90428 13.5499C9.96875 13.3807 10.0346 13.2129 10.0991 13.0436C10.1636 12.8744 10.2266 12.7052 10.2925 12.536C10.3752 12.32 10.4607 12.1054 10.5434 11.8894C10.6275 11.6692 10.7088 11.4477 10.7929 11.2262C10.8952 10.9593 11.0017 10.6924 11.104 10.4255C11.2063 10.1586 11.3044 9.88896 11.4081 9.62206C11.5104 9.35515 11.6156 9.08825 11.7193 8.82135C11.872 8.42925 12.1594 8.17748 12.5616 8.04678C12.5868 8.03853 12.6653 8.00138 12.7844 8.00138C13.3212 8.00138 13.3969 8.00138 13.9337 8.00138C14.0865 8 14.2547 8.03715 14.2771 8.04541C14.5097 8.13346 14.6219 8.32194 14.6345 8.54894C14.6415 8.68239 14.5966 8.80484 14.5476 8.92728C14.4817 9.09788 14.42 9.27123 14.3556 9.4432C14.2869 9.62756 14.2154 9.81054 14.1453 9.99489C14.0823 10.1614 14.0192 10.3292 13.9561 10.4971C13.8903 10.6732 13.823 10.8479 13.7557 11.024C13.6884 11.2015 13.6198 11.3789 13.5525 11.5564C13.5076 11.6761 13.4628 11.7972 13.4165 11.9169C13.3535 12.0861 13.2904 12.2553 13.2259 12.4245C13.1601 12.5979 13.0928 12.7712 13.0269 12.9446C12.9624 13.1166 12.8994 13.2885 12.8349 13.4591C12.7508 13.6792 12.6667 13.8994 12.5826 14.1195C12.5139 14.3011 12.4425 14.4827 12.3766 14.6657C12.3345 14.7758 12.2813 14.8776 12.2617 14.9917ZM11.7081 11.4408C11.7235 11.4463 11.7333 11.4532 11.7445 11.4532C12.0108 11.4546 12.2771 11.4546 12.5434 11.4546C12.5798 11.4546 12.605 11.4367 12.6177 11.4023C12.6933 11.2015 12.7704 10.9992 12.8475 10.7984C12.912 10.6291 12.9765 10.4599 13.0409 10.2907C13.1082 10.1132 13.1755 9.93574 13.2427 9.75688C13.2876 9.63719 13.3338 9.51612 13.3801 9.39643C13.4446 9.22721 13.5118 9.05936 13.5749 8.89014C13.6043 8.81172 13.5847 8.78971 13.5006 8.78971C13.2652 8.78971 13.0283 8.79108 12.7929 8.78833C12.7298 8.78695 12.6947 8.81034 12.6723 8.86813C12.5644 9.15842 12.4537 9.44733 12.343 9.73625C12.2392 10.0059 12.1341 10.2742 12.0304 10.5438C11.9337 10.7942 11.8384 11.0446 11.7445 11.2964C11.7263 11.3404 11.7025 11.3844 11.7081 11.4408Z" fill="black"/>
<path d="M7.70638 8.00281C8.41696 8.00281 8.93973 8.00281 9.65031 8.00281C9.74562 8.00281 9.86615 8.0372 9.88998 8.04546C10.1563 8.13763 10.2768 8.40179 10.2348 8.65768C10.1913 8.92321 10.061 9.15847 9.97407 9.40886C9.89839 9.62761 9.80589 9.83948 9.7232 10.0555C9.6391 10.2756 9.55781 10.4971 9.47372 10.7172C9.38542 10.9484 9.29572 11.1795 9.20462 11.4079C9.15277 11.5358 9.0897 11.6569 8.9972 11.7642C8.87106 11.9128 8.71689 12.0256 8.5487 12.1219C8.51507 12.1412 8.49404 12.1659 8.48844 12.2072C8.46601 12.364 8.43938 12.5195 8.41275 12.675C8.34688 13.0423 8.27961 13.4096 8.21373 13.777C8.15487 14.1085 8.09741 14.4401 8.04135 14.7717C8.02873 14.8432 8.02313 14.9175 8.01472 14.9891C7.67835 14.9891 7.34198 14.9891 7.00561 14.9891C7.00841 14.9615 7.00841 14.934 7.01261 14.9065C7.04625 14.729 7.08269 14.5515 7.11493 14.3741C7.1794 14.0274 7.23826 13.6793 7.30834 13.334C7.33357 13.2088 7.35459 13.0822 7.38122 12.9556C7.42607 12.741 7.46671 12.525 7.50876 12.309C7.51717 12.265 7.49895 12.243 7.4527 12.243C7.33076 12.2444 7.21023 12.2471 7.0883 12.2485C7.04905 12.2485 7.03083 12.2677 7.01822 12.3035C6.99439 12.3723 6.96356 12.4397 6.93693 12.5085C6.86966 12.6819 6.80378 12.8552 6.73651 13.0286C6.67204 13.195 6.60757 13.3615 6.5431 13.528C6.47863 13.6931 6.41416 13.8568 6.35109 14.0205C6.28802 14.1856 6.22915 14.3521 6.16328 14.5158C6.10021 14.6726 6.03434 14.8295 5.98108 14.9904C5.65452 14.9904 5.32656 14.9904 5 14.9904C5 14.9629 5 14.9354 5 14.9079C5.01962 14.9038 5.03504 14.8941 5.04064 14.8735C5.07288 14.7607 5.12474 14.6561 5.16538 14.546C5.20743 14.4319 5.25088 14.319 5.29573 14.2062C5.363 14.0356 5.43167 13.8664 5.49755 13.6958C5.56342 13.528 5.62789 13.3587 5.69236 13.1895C5.77645 12.9735 5.86195 12.7589 5.94464 12.5429C6.00911 12.3764 6.07218 12.2086 6.13665 12.0421C6.22355 11.8206 6.31044 11.5991 6.39734 11.3762C6.46041 11.2139 6.52207 11.0516 6.58514 10.8892C6.67344 10.6636 6.76174 10.4366 6.85003 10.2109C6.93132 10.0018 7.01121 9.79133 7.0925 9.58221C7.1794 9.36071 7.26629 9.13921 7.35319 8.91771C7.42046 8.74711 7.49054 8.57789 7.55361 8.40591C7.60547 8.27384 7.66854 8.14314 7.70638 8.00281ZM7.77645 11.4822C7.88577 11.4822 7.9965 11.4794 8.10582 11.4835C8.16889 11.4849 8.20953 11.4602 8.23055 11.4051C8.29502 11.2387 8.35809 11.0708 8.42116 10.9043C8.48423 10.7392 8.5473 10.5755 8.61037 10.4104C8.67624 10.2412 8.74212 10.0734 8.80659 9.90414C8.87106 9.73492 8.93553 9.5657 9.0014 9.39648C9.06587 9.23276 9.13174 9.06904 9.19481 8.90395C9.22144 8.83653 9.19762 8.81039 9.12614 8.81039C8.89909 8.81177 8.67344 8.81177 8.44639 8.80902C8.40154 8.80902 8.37772 8.82415 8.35669 8.85992C8.32586 8.91495 8.31044 8.97549 8.28802 9.0319C8.22214 9.19837 8.15627 9.36346 8.0918 9.52993C8.02593 9.69915 7.96426 9.86837 7.89839 10.0376C7.8157 10.2508 7.7274 10.4627 7.64611 10.6773C7.55641 10.9126 7.46952 11.1492 7.37141 11.3817C7.34198 11.4519 7.35879 11.4808 7.43728 11.4808C7.55221 11.4822 7.66433 11.4822 7.77645 11.4822Z" fill="black"/>
<path d="M25.2191 8.00281C25.4041 8.00281 25.4798 8.0372 25.5037 8.04546C25.7517 8.13488 25.8835 8.36877 25.8681 8.62054C25.861 8.74023 25.819 8.84892 25.7798 8.9576C25.7181 9.13508 25.6508 9.31118 25.5863 9.48728C25.5163 9.67852 25.4462 9.86975 25.3761 10.0624C25.3116 10.2412 25.25 10.4201 25.1841 10.5989C25.1 10.8287 25.0145 11.0584 24.9304 11.2882C24.8674 11.4629 24.8057 11.6376 24.7426 11.8124C24.695 11.9458 24.6445 12.0793 24.5969 12.2127C24.552 12.3379 24.5072 12.4631 24.4609 12.5869C24.395 12.7685 24.3306 12.9488 24.2647 13.1304C24.2198 13.2556 24.1736 13.3794 24.1273 13.5046C24.0573 13.6958 23.9858 13.887 23.9185 14.0797C23.8835 14.1773 23.8512 14.2736 23.7966 14.3631C23.62 14.652 23.3733 14.8528 23.0425 14.9492C23.0173 14.956 22.8856 14.9918 22.6445 14.9918C21.8975 14.9918 21.4882 14.9918 20.7412 14.9918C20.7468 14.9436 20.765 14.8996 20.7819 14.8542C20.8463 14.6878 20.908 14.5199 20.9697 14.3521C21.0341 14.1732 21.0972 13.9944 21.1617 13.8155C21.2472 13.5816 21.3355 13.3477 21.4224 13.1139C21.4868 12.9378 21.5513 12.7617 21.6158 12.5842C21.6816 12.4053 21.7489 12.2278 21.8148 12.049C21.8807 11.8701 21.9437 11.6913 22.0096 11.5124C22.0923 11.2882 22.1764 11.0667 22.2591 10.8424C22.325 10.6636 22.3866 10.4847 22.4525 10.3059C22.5212 10.116 22.5926 9.92753 22.6627 9.73905C22.7244 9.5712 22.7847 9.40336 22.8477 9.23551C22.9164 9.04841 22.9865 8.8613 23.0552 8.67557C23.1028 8.54624 23.1561 8.41967 23.1981 8.28897C23.2289 8.19267 23.2794 8.10324 23.2934 8.00281C24.0124 8.00281 24.5001 8.00281 25.2191 8.00281ZM22.4623 14.2049C22.5744 14.2049 22.6866 14.2021 22.7987 14.2062C22.8659 14.2076 22.9052 14.1787 22.9262 14.1209C22.9697 13.9999 23.0117 13.8788 23.0552 13.7577C23.121 13.5789 23.1869 13.4014 23.2528 13.2225C23.3158 13.0506 23.3775 12.8786 23.4406 12.7052C23.5051 12.5264 23.5681 12.3475 23.634 12.1687C23.6985 11.9926 23.7657 11.8165 23.8288 11.6404C23.8947 11.4602 23.9578 11.2772 24.0236 11.097C24.1077 10.8672 24.1946 10.6374 24.2787 10.4077C24.3628 10.1752 24.4455 9.94129 24.5296 9.70878C24.6305 9.43363 24.7342 9.15984 24.8365 8.88469C24.8603 8.8214 24.8393 8.78976 24.7734 8.78976C24.5394 8.78838 24.3067 8.78976 24.0727 8.78976C24.011 8.78976 23.9746 8.81727 23.9563 8.87643C23.9171 8.99888 23.8723 9.11857 23.8274 9.23964C23.7433 9.46802 23.6564 9.69365 23.5737 9.92203C23.5065 10.105 23.4434 10.2894 23.3775 10.4723C23.2892 10.7131 23.1995 10.9539 23.1112 11.1946C23.0481 11.3639 22.9865 11.5345 22.9248 11.705C22.8575 11.888 22.7903 12.0696 22.723 12.2526C22.6767 12.3778 22.6333 12.503 22.587 12.6268C22.5198 12.8098 22.4525 12.9928 22.3852 13.1744C22.339 13.301 22.2927 13.4275 22.2465 13.5555C22.1792 13.7412 22.1091 13.9256 22.046 14.1113C22.0208 14.1842 22.0376 14.2035 22.1161 14.2049C22.2282 14.2062 22.3446 14.2049 22.4623 14.2049Z" fill="black"/>
<path d="M18.3317 8.00275C18.4649 8.00413 18.5504 8.0399 18.5742 8.04815C18.7676 8.11006 18.926 8.32469 18.9246 8.54619C18.9246 8.69752 18.8826 8.8351 18.8321 8.97268C18.7634 9.15704 18.6947 9.34139 18.6261 9.52575C18.5602 9.70185 18.4943 9.87795 18.4285 10.054C18.3654 10.2219 18.3037 10.3884 18.2406 10.5562C18.1538 10.7873 18.0669 11.0199 17.9814 11.251C17.9155 11.4271 17.851 11.6032 17.7865 11.7793C17.7067 11.9994 17.6296 12.2195 17.46 12.3943C17.31 12.5497 17.1362 12.668 16.933 12.7465C16.7844 12.8042 16.6303 12.8166 16.4733 12.8166C16.2168 12.8166 15.9589 12.818 15.7025 12.8153C15.6422 12.8153 15.6058 12.8359 15.5861 12.8895C15.5161 13.078 15.4446 13.2665 15.3731 13.455C15.2918 13.671 15.2105 13.8884 15.1278 14.1044C15.062 14.2805 14.9961 14.4566 14.9288 14.6313C14.898 14.7097 14.8671 14.7881 14.8377 14.8693C14.8195 14.9064 14.8097 14.9367 14.7872 14.989C14.4551 14.989 14.1495 14.989 13.8174 14.989C13.8384 14.9257 13.858 14.8624 13.8819 14.8005C13.9477 14.6244 14.015 14.4497 14.0809 14.2736C14.1453 14.1016 14.2084 13.9296 14.2729 13.759C14.3388 13.5857 14.406 13.4123 14.4705 13.239C14.535 13.067 14.598 12.895 14.6625 12.7244C14.7298 12.5442 14.7985 12.3654 14.8657 12.1851C14.9288 12.0159 14.9919 11.8467 15.0563 11.6775C15.1432 11.4477 15.2301 11.2193 15.3156 10.9896C15.3787 10.8231 15.4418 10.6553 15.5048 10.4888C15.5707 10.3127 15.6366 10.138 15.7025 9.96187C15.7669 9.7899 15.8314 9.6193 15.8959 9.44733C15.9617 9.27123 16.029 9.0965 16.0949 8.9204C16.1622 8.74292 16.2294 8.56545 16.2967 8.3866C16.3444 8.25865 16.3906 8.12932 16.4369 8C17.1348 8.00275 17.6366 8.00275 18.3317 8.00275ZM17.5076 8.80896C17.5076 8.81034 17.5076 8.81034 17.5076 8.81171C17.4123 8.81171 17.3156 8.81997 17.2203 8.80896C17.1432 8.80071 17.1054 8.82822 17.0816 8.89151C17.0367 9.00983 16.9933 9.12677 16.9498 9.24509C16.8826 9.42531 16.8167 9.60554 16.7494 9.78577C16.6863 9.95224 16.6219 10.1201 16.5588 10.2866C16.4901 10.4709 16.4214 10.6553 16.3528 10.8396C16.2687 11.0653 16.186 11.2909 16.1005 11.5151C16.0542 11.639 16.0066 11.7642 15.9561 11.8866C15.9253 11.9623 15.9421 11.9912 16.029 11.9912C16.228 11.9912 16.4257 11.9912 16.6247 11.9912C16.7158 11.9912 16.7396 11.9705 16.7704 11.8838C16.8335 11.7064 16.8994 11.5316 16.9638 11.3555C17.0283 11.1822 17.0956 11.0088 17.1615 10.8355C17.2301 10.6539 17.2974 10.4709 17.3647 10.2879C17.4292 10.1146 17.4936 9.93986 17.5581 9.76651C17.6254 9.58903 17.6926 9.41156 17.7599 9.2327C17.8034 9.11989 17.8482 9.0057 17.8889 8.89151C17.9099 8.83235 17.8847 8.80483 17.823 8.80621C17.7165 8.80896 17.6114 8.80896 17.5076 8.80896Z" fill="black"/>
<path d="M21.6523 8.00272C21.6089 8.12516 21.5654 8.24898 21.5206 8.37143C21.4533 8.55578 21.3847 8.74152 21.316 8.92587C21.2501 9.10472 21.1828 9.2822 21.117 9.45968C21.0553 9.62752 20.9936 9.79537 20.932 9.96184C20.8633 10.1489 20.7932 10.3347 20.7231 10.5218C20.6601 10.691 20.5998 10.8616 20.5367 11.0322C20.4498 11.2688 20.3601 11.5041 20.2718 11.7394C20.2088 11.9086 20.1499 12.0805 20.0882 12.2498C20.0252 12.4245 19.9607 12.5978 19.8948 12.7712C19.8289 12.9473 19.7645 13.1234 19.6986 13.2995C19.6285 13.488 19.5584 13.6778 19.4884 13.8663C19.4071 14.0851 19.3272 14.3052 19.2473 14.5239C19.1982 14.6574 19.1478 14.7895 19.0973 14.9229C19.0889 14.9449 19.0847 14.9669 19.0875 14.9903C18.761 14.9903 18.433 14.9903 18.1064 14.9903C18.1106 14.8872 18.1667 14.7991 18.1989 14.7042C18.2802 14.4662 18.3713 14.2309 18.4582 13.9943C18.5395 13.7755 18.6222 13.5568 18.7035 13.338C18.7904 13.1041 18.8759 12.8689 18.9628 12.635C19.0259 12.463 19.0917 12.2924 19.1562 12.1204C19.2221 11.9443 19.2865 11.7682 19.3524 11.5921C19.4379 11.3624 19.5248 11.1326 19.6103 10.9043C19.672 10.7392 19.7322 10.5741 19.7939 10.4076C19.864 10.2191 19.9355 10.0306 20.0041 9.84077C20.0672 9.6688 20.1289 9.49682 20.1933 9.32485C20.2606 9.14462 20.3293 8.96439 20.3966 8.78417C20.4596 8.61219 20.5227 8.44022 20.5844 8.26825C20.6152 8.18019 20.6601 8.09627 20.6727 8.00134C20.9992 8.00272 21.3258 8.00272 21.6523 8.00272Z" fill="black"/>
<path d="M24.5244 14.9917C24.5258 14.9298 24.5567 14.8775 24.5763 14.8225C24.6842 14.5322 24.7963 14.2447 24.907 13.9558C25.0192 13.6627 25.1313 13.3697 25.2434 13.0766C25.3569 12.7822 25.4691 12.4864 25.584 12.192C25.7059 11.8756 25.8307 11.5605 25.9512 11.2441C26.0157 11.0776 26.0745 10.9098 26.1362 10.7419C26.1404 10.7282 26.146 10.7158 26.1628 10.7117C26.2007 10.7241 26.1922 10.7584 26.1922 10.786C26.1937 10.8644 26.1908 10.9414 26.1908 11.0198C26.1908 12.3447 26.1908 13.6682 26.1908 14.9931C25.6372 14.9917 25.0808 14.9917 24.5244 14.9917Z" fill="#65C18E"/>
<path d="M28.9957 11.5384C28.941 11.5494 28.8849 11.5522 28.8289 11.5522C28.2823 11.5522 27.7371 11.5522 27.1905 11.5508C27.1414 11.5508 27.0783 11.5646 27.0643 11.4958C27.0503 11.4215 27.1148 11.416 27.1652 11.3995C27.5366 11.2812 27.9095 11.1601 28.2809 11.0418C28.3622 11.0156 28.4462 10.995 28.5289 10.973C28.5458 10.9689 28.5668 10.9702 28.5752 10.9427C28.5444 10.9124 28.5037 10.9207 28.4659 10.9221C28.0412 10.9303 27.6165 10.9345 27.1919 10.9317C27.1638 10.9317 27.1358 10.9317 27.1078 10.9262C27.0811 10.9207 27.0615 10.9042 27.0615 10.8739C27.0615 10.845 27.0783 10.8258 27.105 10.8189C27.1274 10.8134 27.1512 10.812 27.1736 10.812C27.7315 10.812 28.2893 10.812 28.8471 10.812C28.8961 10.812 28.9452 10.8189 28.9928 10.823C28.9928 10.8602 28.9928 10.8959 28.9928 10.9331C28.7854 11.0005 28.578 11.0707 28.3706 11.1353C28.1113 11.2165 27.8506 11.2935 27.5913 11.3733C27.5535 11.3857 27.5184 11.405 27.4778 11.4421C27.5535 11.4421 27.6137 11.4407 27.674 11.4421C28.1141 11.449 28.5542 11.4091 28.9942 11.4421C28.9957 11.4751 28.9957 11.5068 28.9957 11.5384Z" fill="black"/>
<path d="M28.9958 9.2822C28.993 9.35512 28.9622 9.40327 28.9552 9.42116C28.9075 9.53948 28.8024 9.57112 28.6903 9.57662C28.5529 9.5835 28.4156 9.58213 28.2768 9.57662C28.1703 9.57387 28.0764 9.53535 28.0189 9.4473C27.9839 9.44317 27.9657 9.45968 27.9517 9.47757C27.89 9.55599 27.8031 9.57662 27.7092 9.578C27.527 9.58075 27.3448 9.57937 27.1626 9.57937C27.1177 9.57937 27.0645 9.57937 27.0645 9.51884C27.0631 9.4528 27.1205 9.45555 27.1668 9.45555C27.3378 9.45418 27.5074 9.45555 27.6784 9.45555C27.8592 9.45555 27.9292 9.38676 27.9306 9.21204C27.9306 9.16801 27.932 9.12536 27.9292 9.08134C27.9264 9.03869 27.904 9.01943 27.8549 9.0208C27.6237 9.02493 27.3924 9.02493 27.1626 9.02493C27.1149 9.02493 27.0673 9.0153 27.0673 8.95752C27.0673 8.90111 27.1149 8.89148 27.164 8.89148C27.733 8.89148 28.302 8.89148 28.8725 8.89148C28.9145 8.89148 28.9566 8.8901 28.9972 8.89148C28.9958 9.05795 28.9958 9.12261 28.9958 9.2822ZM28.4464 9.4583C28.5403 9.4583 28.6062 9.4583 28.6706 9.4583C28.6777 9.4583 28.6847 9.4583 28.6917 9.45693C28.808 9.44455 28.8669 9.38264 28.8725 9.26845C28.8739 9.21617 28.8753 9.16251 28.8767 9.11023C28.8781 9.04007 28.8627 9.02631 28.7926 9.02631C28.5683 9.02631 28.3441 9.02768 28.1198 9.02356C28.0708 9.02218 28.0484 9.04144 28.047 9.08409C28.0442 9.15563 28.0385 9.22717 28.0554 9.29596C28.0736 9.36888 28.1156 9.42253 28.1955 9.44317C28.2894 9.46931 28.3819 9.45418 28.4464 9.4583Z" fill="black"/>
<path d="M28.9958 14.7015C28.993 14.7744 28.9622 14.8226 28.9552 14.8405C28.9075 14.9588 28.8024 14.9904 28.6903 14.9959C28.5529 15.0028 28.4156 15.0014 28.2768 14.9959C28.1703 14.9932 28.0764 14.9547 28.0189 14.8666C27.9839 14.8625 27.9657 14.879 27.9517 14.8969C27.89 14.9753 27.8031 14.9959 27.7092 14.9973C27.527 15.0001 27.3448 14.9987 27.1626 14.9987C27.1177 14.9987 27.0645 14.9987 27.0645 14.9382C27.0631 14.8721 27.1205 14.8749 27.1668 14.8749C27.3378 14.8735 27.5074 14.8749 27.6784 14.8749C27.8592 14.8749 27.9292 14.8061 27.9306 14.6314C27.9306 14.5873 27.932 14.5447 27.9292 14.5007C27.9264 14.458 27.904 14.4387 27.8549 14.4401C27.6237 14.4442 27.3924 14.4442 27.1626 14.4442C27.1149 14.4442 27.0673 14.4346 27.0673 14.3768C27.0673 14.3204 27.1149 14.3108 27.164 14.3108C27.733 14.3108 28.302 14.3108 28.8725 14.3108C28.9145 14.3108 28.9566 14.3094 28.9972 14.3108C28.9958 14.4759 28.9958 14.5419 28.9958 14.7015ZM28.4464 14.8762C28.5403 14.8762 28.6062 14.8762 28.6706 14.8762C28.6777 14.8762 28.6847 14.8762 28.6917 14.8749C28.808 14.8625 28.8669 14.8006 28.8725 14.6864C28.8739 14.6341 28.8753 14.5804 28.8767 14.5282C28.8781 14.458 28.8627 14.4442 28.7926 14.4442C28.5683 14.4442 28.3441 14.4456 28.1198 14.4415C28.0708 14.4401 28.0484 14.4594 28.047 14.502C28.0442 14.5736 28.0385 14.6451 28.0554 14.7139C28.0736 14.7868 28.1156 14.8405 28.1955 14.8611C28.2894 14.8872 28.3819 14.8721 28.4464 14.8762Z" fill="black"/>
<path d="M28.996 12.254C28.9946 12.3008 28.9624 12.3517 28.9526 12.3682C28.8979 12.4672 28.7998 12.4906 28.6975 12.4989C28.6134 12.5058 28.5293 12.5003 28.4452 12.5016C28.4004 12.5016 28.3653 12.4865 28.3653 12.4356C28.3653 12.3861 28.4032 12.3778 28.4438 12.3764C28.5181 12.3751 28.5938 12.3778 28.6681 12.3764C28.8236 12.3737 28.8839 12.3132 28.8853 12.1632C28.8867 11.9816 28.8292 11.9252 28.6442 11.9238C28.3107 11.9224 28.3079 11.9238 28.1116 12.1866C28.0598 12.2567 28.0051 12.3255 27.9449 12.3902C27.8706 12.4672 27.7795 12.5003 27.6758 12.5016C27.5664 12.5044 27.4557 12.5044 27.3464 12.5016C27.1684 12.4989 27.0591 12.3943 27.0493 12.2196C27.0451 12.1439 27.0437 12.0696 27.0689 11.9953C27.1095 11.8715 27.2006 11.8137 27.324 11.8041C27.4403 11.7959 27.558 11.8014 27.6744 11.8014C27.7164 11.8014 27.7584 11.811 27.757 11.8633C27.7556 11.9155 27.7122 11.9224 27.6716 11.9224C27.5692 11.9238 27.4655 11.9224 27.3632 11.9224C27.2455 11.9238 27.1712 11.9926 27.1642 12.1082C27.1614 12.1426 27.1614 12.1769 27.1656 12.2113C27.1754 12.3063 27.2301 12.3627 27.3254 12.3764C27.4501 12.3943 27.5763 12.3929 27.7024 12.3751C27.7795 12.3641 27.8355 12.3255 27.8818 12.2664C27.9603 12.1659 28.0402 12.0683 28.1172 11.9678C28.2041 11.8536 28.3205 11.8027 28.462 11.8014C28.5419 11.8 28.6204 11.7986 28.7003 11.8027C28.804 11.8082 28.8993 11.8344 28.9568 11.9307C28.9666 11.9472 28.9946 11.983 29.0002 12.0366C29.0002 12.1563 29.0002 12.1068 28.996 12.254Z" fill="black"/>
<path d="M28.9954 10.259C28.7207 10.3099 28.446 10.3609 28.1713 10.4104C28.0311 10.4351 27.891 10.4585 27.7508 10.4833C27.584 10.5136 27.4172 10.5452 27.2491 10.5755C27.214 10.5824 27.1804 10.5879 27.1453 10.5906C27.1103 10.5934 27.0697 10.5947 27.064 10.548C27.0584 10.4998 27.0949 10.486 27.1341 10.4792C27.2126 10.464 27.2897 10.4517 27.3682 10.4365C27.4705 10.4173 27.4705 10.4173 27.4705 10.3182C27.4705 10.2315 27.4691 10.1435 27.4719 10.0568C27.4733 10.0031 27.4495 9.97838 27.3962 9.97013C27.3107 9.95912 27.2266 9.94261 27.1411 9.92886C27.0977 9.92198 27.0598 9.90409 27.0669 9.85594C27.0739 9.80228 27.1187 9.80504 27.1594 9.81329C27.4649 9.86695 27.769 9.92198 28.0746 9.97701C28.3591 10.0279 28.645 10.0719 28.9267 10.1325C28.9491 10.1366 28.9729 10.1352 28.9968 10.1366C28.9954 10.1765 28.9954 10.2178 28.9954 10.259ZM28.6184 10.1999C28.6043 10.1682 28.5777 10.1682 28.5525 10.1641C28.2568 10.116 27.9596 10.0678 27.6639 10.0183C27.6149 10.01 27.5882 10.0279 27.5868 10.0719C27.5826 10.1614 27.5826 10.2508 27.5868 10.3402C27.5882 10.3801 27.6149 10.398 27.6597 10.3897C27.94 10.3416 28.2203 10.2948 28.4992 10.2467C28.5413 10.237 28.5875 10.237 28.6184 10.1999Z" fill="black"/>
<path d="M28.9957 14.0699C28.8752 14.0644 28.8724 14.0631 28.8724 13.942C28.8724 13.8636 28.871 13.7865 28.8724 13.7081C28.8738 13.6476 28.8458 13.6283 28.7869 13.6297C28.5837 13.6311 28.3804 13.6324 28.1786 13.6297C28.1198 13.6297 28.1001 13.6558 28.1001 13.7081C28.1001 13.7975 28.1001 13.887 28.1001 13.9764C28.1001 14.0177 28.0959 14.0575 28.0399 14.0562C27.988 14.0548 27.9852 14.0163 27.9852 13.9778C27.9852 13.8883 27.9852 13.7989 27.9852 13.7095C27.9852 13.6531 27.9628 13.6283 27.9011 13.6283C27.6937 13.6311 27.4863 13.6283 27.2788 13.6297C27.1919 13.6297 27.1765 13.6462 27.1751 13.7301C27.1751 13.8127 27.1751 13.8952 27.1751 13.9778C27.1751 14.019 27.1765 14.0686 27.1163 14.0672C27.0616 14.0658 27.0616 14.0204 27.0602 13.9805C27.0602 13.8539 27.0588 13.7287 27.0602 13.6022C27.0616 13.5237 27.0798 13.5059 27.1611 13.5059C27.7301 13.5059 28.2992 13.5059 28.8696 13.5059C28.9116 13.5059 28.9537 13.5127 28.9943 13.5169C28.9957 13.704 28.9957 13.887 28.9957 14.0699Z" fill="black"/>
<path d="M28.9958 13.2995C28.8753 13.294 28.8725 13.2926 28.8725 13.1715C28.8725 13.1 28.8711 13.0298 28.8739 12.9583C28.8767 12.8978 28.8556 12.8702 28.7898 12.8702C28.5865 12.873 28.3833 12.873 28.1801 12.8702C28.1198 12.8689 28.1002 12.8978 28.1002 12.9487C28.0988 13.034 28.1002 13.1179 28.1002 13.2032C28.1002 13.2445 28.0988 13.2857 28.0413 13.2857C27.9839 13.2857 27.9839 13.2431 27.9839 13.2018C27.9839 13.1193 27.9839 13.0367 27.9839 12.9542C27.9839 12.895 27.9587 12.8689 27.8942 12.8702C27.6559 12.873 27.4177 12.8716 27.1794 12.8716C27.1317 12.8716 27.0673 12.8812 27.0645 12.8138C27.0631 12.7409 27.1303 12.7505 27.1794 12.7505C27.7372 12.7505 28.2964 12.7505 28.8542 12.7505C28.9019 12.7505 28.9467 12.756 28.993 12.7643C28.9958 12.9418 28.9958 13.1206 28.9958 13.2995Z" fill="black"/>
<path d="M28.9962 8.73197C28.8771 8.7306 28.8715 8.72647 28.8743 8.6054C28.8771 8.41279 28.9051 8.4293 28.6907 8.4293C28.1903 8.4293 27.6914 8.4293 27.191 8.4293C27.163 8.4293 27.135 8.42793 27.1083 8.42242C27.0817 8.41692 27.0635 8.39628 27.0635 8.36739C27.0635 8.33575 27.0817 8.31511 27.1125 8.30961C27.135 8.30548 27.1588 8.30548 27.1826 8.30548C27.711 8.30548 28.238 8.30548 28.7663 8.30548C28.8701 8.30548 28.8785 8.29723 28.8757 8.19542C28.8729 8.13076 28.8729 8.06747 28.8715 8.00281C28.9135 8.00281 28.9556 8.00281 28.9976 8.00281C28.9962 8.24632 28.9962 8.48984 28.9962 8.73197Z" fill="black"/>
</g>
<defs>
<clipPath id="clip0_6505_81245">
<rect width="24" height="7" fill="white" transform="translate(5 8)"/>
</clipPath>
</defs>
</svg>
