<svg width="34" height="24" viewBox="0 0 34 24" fill="none" xmlns="http://www.w3.org/2000/svg">
<rect x="0.5" y="0.5" width="33" height="23" rx="3.5" fill="white"/>
<rect x="0.5" y="0.5" width="33" height="23" rx="3.5" stroke="#F2F4F7"/>
<g clip-path="url(#clip0_6501_5574)">
<path fill-rule="evenodd" clip-rule="evenodd" d="M15.046 8.93692H13V17.8996H15.046V8.93692ZM21.462 9.44943C21.462 7.54763 20.0325 6.00037 18.2752 6.00037H13V7.9144H18.0244C18.8196 7.9144 19.4784 8.59122 19.4929 9.42308C19.5002 9.8396 19.3559 10.2327 19.0866 10.53C18.8173 10.8273 18.4573 10.9912 18.0732 10.9912H16.1159C16.0464 10.9912 15.9898 11.0524 15.9898 11.1277V12.8288C15.9898 12.8577 15.9981 12.8853 16.0136 12.9086L19.3344 17.8996H21.7653L18.4368 12.895C20.113 12.8038 21.462 11.2781 21.462 9.44943Z" fill="#222222"/>
</g>
<defs>
<clipPath id="clip0_6501_5574">
<rect width="9" height="12" fill="white" transform="translate(13 6)"/>
</clipPath>
</defs>
</svg>
