<svg width="34" height="24" viewBox="0 0 34 24" fill="none" xmlns="http://www.w3.org/2000/svg">
<rect x="0.5" y="0.5" width="33" height="23" rx="3.5" fill="white"/>
<rect x="0.5" y="0.5" width="33" height="23" rx="3.5" stroke="#F2F4F7"/>
<path fill-rule="evenodd" clip-rule="evenodd" d="M20.5459 8.8407C20.5459 8.37653 20.9136 8 21.3663 8C21.8198 8 22.1872 8.37653 22.1872 8.8407C22.1872 9.30515 21.8198 9.68085 21.3663 9.68085C20.9136 9.68085 20.5459 9.30515 20.5459 8.8407ZM22.9054 8.6875L24.5694 8.38251V14.9254H22.9054V8.6875ZM25.3349 8.6875V14.9254H27V8.38251L25.3349 8.6875ZM20.5344 10.1399V14.9255H22.1992V10.1399H20.5344ZM17.2757 12.2333C17.2757 10.8276 18.0571 10.1205 19.5953 10.0697C19.5953 10.0697 19.8731 10.0588 20.0371 10.0945V11.4933C19.0621 11.5277 18.9543 11.8884 18.9543 12.7297V14.9255H17.2757V12.2333ZM15.0786 10.1344L15.0701 10.1569C15.0105 10.3171 14.7393 11.0464 14.1305 11.8005V8.38251L12.4123 8.73064V14.9254H14.1305V13.0103C14.628 13.7748 14.8738 14.9254 14.8738 14.9254H16.9314C16.7279 14.0588 15.8377 12.4612 15.8377 12.4612C16.637 11.4231 16.9876 10.3176 17.0436 10.1344H15.0786ZM8.83359 10.3211C8.83359 10.7703 9.32098 10.8028 9.53135 10.8167C11.0743 10.9226 11.9939 11.6962 11.9939 12.8864C11.9939 13.9365 11.1716 14.9956 9.33725 14.9956C8.48671 14.9956 7.76095 14.9099 7.11732 14.7365V13.208C7.54712 13.389 8.25528 13.5791 8.98477 13.5791C9.65053 13.5791 10.0465 13.3535 10.0465 12.9702C10.0465 12.5077 9.5663 12.4776 9.38217 12.466L9.38017 12.4659C7.23143 12.316 7 11.0141 7 10.4615C7 9.50171 7.66497 8.38251 9.54175 8.38251C10.6304 8.38251 11.2172 8.55644 11.7228 8.73746L11.7481 8.74538V10.2299L11.7292 10.2245C11.5263 10.1365 11.2879 10.0503 11.2879 10.0503C10.8597 9.91892 10.2608 9.77912 9.79798 9.77912C9.53482 9.77912 8.83359 9.77912 8.83359 10.3211Z" fill="#862165"/>
</svg>
