<svg width="34" height="24" viewBox="0 0 34 24" fill="none" xmlns="http://www.w3.org/2000/svg">
<rect x="0.5" y="0.5" width="33" height="23" rx="3.5" fill="white"/>
<rect x="0.5" y="0.5" width="33" height="23" rx="3.5" stroke="#F2F4F7"/>
<g clip-path="url(#clip0_6505_81334)">
<path d="M6.70646 15.8501V13.3063H6.01172V12.5188H8.24067V13.3063H7.54593V15.8501H6.70646ZM8.65172 15.8501V12.5126H9.53172C9.87909 12.5126 10.1165 12.5313 10.2554 12.5626C10.3886 12.5938 10.5101 12.6563 10.6086 12.7376C10.7186 12.8313 10.8054 12.9438 10.8633 13.0876C10.9212 13.2313 10.9501 13.3876 10.9501 13.5563C10.9501 13.8126 10.8922 14.0251 10.7765 14.1876C10.6607 14.3501 10.487 14.4563 10.2612 14.5126L11.1007 15.8563H10.1512L9.44488 14.5501V15.8563L8.65172 15.8501ZM9.43909 14.0938H9.5954C9.77488 14.0938 9.90803 14.0626 9.99488 13.9938C10.0759 13.9251 10.1222 13.8251 10.1222 13.6813C10.1222 13.5126 10.0817 13.3938 10.0065 13.3251C9.93119 13.2563 9.79803 13.2188 9.61277 13.2188H9.44488L9.43909 14.0938Z" fill="black"/>
<path d="M11.0597 15.85L12.1249 12.5125H13.1786L14.2439 15.85H13.4102L13.2539 15.25H12.0554L11.8933 15.85H11.0597ZM12.2349 14.6063H13.0744L12.7618 13.5063C12.7444 13.45 12.7328 13.4 12.7212 13.3438L12.6575 13.0563C12.6402 13.1375 12.6228 13.2188 12.6054 13.2938C12.5881 13.3688 12.5707 13.4375 12.5533 13.5063L12.2349 14.6063ZM14.5391 15.85V12.5125H15.3497L16.5191 14.225C16.5423 14.2625 16.577 14.3313 16.6291 14.4375C16.6812 14.5438 16.7391 14.6688 16.797 14.8125C16.7797 14.6875 16.7681 14.5688 16.7623 14.4438C16.7565 14.3375 16.7507 14.2375 16.7507 14.1563V12.5063H17.5612V15.8438H16.7507L15.5812 14.1188C15.5581 14.0813 15.5175 14.0125 15.4654 13.9063C15.4133 13.8 15.3554 13.675 15.2975 13.5313C15.3149 13.6688 15.3265 13.7938 15.3323 13.9C15.3381 14.0063 15.3439 14.1063 15.3439 14.1875V15.8375H14.5391V15.85ZM18.3602 14.775C18.4875 14.9313 18.6091 15.0438 18.7307 15.1188C18.8523 15.1938 18.9739 15.2313 19.0954 15.2313C19.2054 15.2313 19.2981 15.2 19.3733 15.1313C19.4486 15.0688 19.4833 14.9813 19.4833 14.8813C19.4833 14.7688 19.4544 14.6875 19.3907 14.625C19.327 14.5625 19.1881 14.5 18.9623 14.4375C18.6612 14.35 18.447 14.2375 18.3197 14.0938C18.1923 13.95 18.1344 13.7563 18.1344 13.5125C18.1344 13.1938 18.2328 12.9313 18.4297 12.7313C18.6265 12.5313 18.8812 12.4313 19.1997 12.4313C19.3675 12.4313 19.5297 12.4563 19.686 12.5063C19.8365 12.5563 19.9812 12.6313 20.1202 12.7313L19.8539 13.3875C19.767 13.3063 19.6686 13.2375 19.5586 13.1875C19.466 13.1438 19.3618 13.1188 19.2575 13.1188C19.1591 13.1188 19.0723 13.1438 19.0086 13.2C18.9507 13.2438 18.9102 13.3188 18.916 13.4C18.916 13.4813 18.9449 13.55 18.997 13.6C19.0549 13.65 19.1591 13.7 19.3212 13.7438L19.3618 13.7563C19.7033 13.8563 19.9291 13.9688 20.0391 14.0875C20.1144 14.1688 20.1665 14.2688 20.207 14.3813C20.2475 14.4938 20.2649 14.625 20.2649 14.7625C20.2649 15.1188 20.1549 15.4 19.9407 15.6188C19.7265 15.8313 19.437 15.9438 19.0781 15.9438C18.8639 15.9438 18.667 15.9063 18.4875 15.825C18.3139 15.7438 18.1402 15.625 17.9781 15.4563C17.9839 15.45 18.3602 14.775 18.3602 14.775ZM20.7339 15.85V12.5125H22.627V13.25H21.556V13.8313H22.5691V14.5438H21.556V15.8563L20.7339 15.85ZM23.0844 15.85V12.5125H24.9775V13.25H23.9065V13.8313H24.9197V14.5438H23.9065V15.1063H24.9775V15.8563L23.0844 15.85ZM25.5391 15.85V12.5125H26.4191C26.7665 12.5125 27.0039 12.5313 27.1428 12.5625C27.276 12.5938 27.3975 12.6563 27.496 12.7375C27.606 12.8313 27.6928 12.9438 27.7507 13.0875C27.8086 13.2313 27.8433 13.3875 27.8433 13.5563C27.8433 13.8125 27.7854 14.025 27.6697 14.1875C27.5539 14.35 27.3802 14.4563 27.1544 14.5125L27.9939 15.8563H27.0444L26.3381 14.55V15.8563L25.5391 15.85ZM26.3265 14.0938H26.4828C26.6623 14.0938 26.7954 14.0625 26.8823 13.9938C26.9633 13.925 27.0097 13.825 27.0097 13.6813C27.0097 13.5125 26.9691 13.3938 26.8939 13.325C26.8186 13.2563 26.6854 13.2188 26.5002 13.2188H26.3323V14.0938H26.3265ZM15.6681 7.09377L16.2297 9.38128C16.2586 9.48753 16.2818 9.59378 16.3049 9.70627C16.3281 9.81877 16.3512 9.94377 16.3744 10.0938C16.4033 9.92502 16.4323 9.78127 16.4497 9.66877C16.4728 9.55627 16.4902 9.46253 16.5133 9.38128L17.0402 7.09377H18.2675L17.0054 11.9125H15.8765L15.3265 9.85627C15.3033 9.78127 15.2744 9.64377 15.2281 9.43127C15.2049 9.33752 15.1933 9.26252 15.1818 9.21252L15.1412 9.40627C15.1065 9.55627 15.0718 9.70627 15.037 9.85627L14.4928 11.9125H13.3523L12.096 7.09377H13.3233L13.8328 9.40002C13.856 9.51877 13.8791 9.63753 13.9023 9.75628C13.9254 9.87503 13.9486 9.99377 13.966 10.1188C14.0123 9.87502 14.0644 9.63752 14.1223 9.40002L14.6839 7.09377C14.6897 7.09377 15.6681 7.09377 15.6681 7.09377ZM18.7191 11.9125V7.09377H19.9465V11.9125H18.7191ZM20.9249 11.9125V7.09377H22.1986C22.6965 7.09377 23.0439 7.11877 23.2407 7.16877C23.4375 7.21877 23.6054 7.30002 23.7502 7.41877C23.9123 7.55002 24.0397 7.72502 24.1207 7.92502C24.2075 8.13127 24.2481 8.35628 24.2481 8.60003C24.2481 8.97503 24.1612 9.27502 23.9933 9.51252C23.8254 9.74377 23.5765 9.90003 23.2523 9.97503L24.4681 11.9188H23.096L22.0712 10.0313V11.9188H20.9249V11.9125ZM22.0654 9.36877H22.2912C22.5518 9.36877 22.7428 9.31878 22.8644 9.22503C22.986 9.13128 23.0439 8.97502 23.0439 8.76877C23.0439 8.52503 22.986 8.35628 22.876 8.25628C22.7602 8.15628 22.5749 8.10627 22.3086 8.10627H22.0654V9.36877ZM24.9312 11.9125V7.09377H27.6639V8.15002H26.1181V8.98752H27.577V10.0188H26.1181V10.8313H27.6639V11.9125H24.9312ZM11.6154 7.05627H6.05176V8.01252H11.6154V7.05627ZM11.6154 8.91253H6.05176V9.86877H11.6154V8.91253ZM11.6154 10.9313H6.05176V11.8875H11.6154V10.9313Z" fill="black"/>
</g>
<defs>
<clipPath id="clip0_6505_81334">
<rect width="22" height="9" fill="white" transform="translate(6 7)"/>
</clipPath>
</defs>
</svg>
