<svg width="16" height="16" viewBox="0 0 16 16" fill="none" xmlns="http://www.w3.org/2000/svg">
  <path d="M12.3835 12.3835L12.4798 12.4104L12.4797 12.4106C12.4798 12.4105 12.4798 12.4105 12.4798 12.4104L12.3835 12.3835ZM12.3835 12.3835L12.4104 12.4798C12.4105 12.4798 12.4105 12.4798 12.4106 12.4797L12.4104 12.4798L12.3835 12.3835ZM12.4647 12.4647L13.819 12.0869C14.2909 11.9553 14.5708 11.4704 14.4489 10.996L14.0989 9.63418L15.0829 8.62986C15.4257 8.27994 15.4257 7.72006 15.0829 7.37014L14.0989 6.36582L14.4489 5.00405C14.5708 4.52958 14.2909 4.04471 13.819 3.91309L12.4647 3.53533L12.0869 2.18099C11.9553 1.70911 11.4704 1.42917 10.996 1.55113L9.63418 1.90115L8.62986 0.917135C8.27994 0.574283 7.72006 0.574283 7.37014 0.917135L6.36582 1.90115L5.00405 1.55113C4.52958 1.42917 4.04471 1.70911 3.91309 2.18099L3.53533 3.53533L2.18099 3.91309C1.70911 4.04471 1.42917 4.52957 1.55113 5.00405L1.90115 6.36582L0.917135 7.37014C0.574283 7.72006 0.574283 8.27994 0.917135 8.62986L1.90115 9.63418L1.55113 10.996C1.42917 11.4704 1.70911 11.9553 2.18099 12.0869L3.53533 12.4647L3.91309 13.819C4.04471 14.2909 4.52958 14.5708 5.00405 14.4489L6.36582 14.0989L7.37014 15.0829C7.72006 15.4257 8.27994 15.4257 8.62986 15.0829L9.63418 14.0989L10.996 14.4489C11.4704 14.5708 11.9553 14.2909 12.0869 13.819L12.4647 12.4647ZM3.58964 12.4798C3.58953 12.4798 3.58943 12.4798 3.58932 12.4797L3.58964 12.4798L3.61651 12.3835L3.58964 12.4798ZM12.4798 3.58964L12.4797 3.58931C12.4798 3.58942 12.4798 3.58953 12.4798 3.58964L12.3835 3.61651L12.4798 3.58964Z" fill="#0066FF" stroke="#0A0A0A"/>
  <path fill-rule="evenodd" clip-rule="evenodd" d="M10.9076 5.93173C11.0308 6.06337 11.0308 6.27678 10.9076 6.40841L7.32809 10.2343C7.20494 10.3659 7.00529 10.3659 6.88214 10.2343L5.09237 8.32144C4.96922 8.18982 4.96921 7.9764 5.09235 7.84477C5.21549 7.71313 5.41516 7.71312 5.53831 7.84475L7.10511 9.5193L10.4617 5.93172C10.5848 5.8001 10.7845 5.8001 10.9076 5.93173Z" fill="white"/>
  <path d="M10.9076 6.40841L10.5425 6.0668L10.5425 6.0668L10.9076 6.40841ZM7.32809 10.2343L7.6932 10.5759L7.32809 10.2343ZM6.88214 10.2343L6.51704 10.5759H6.51704L6.88214 10.2343ZM5.09237 8.32144L5.45748 7.97983L5.45748 7.97983L5.09237 8.32144ZM5.09235 7.84477L4.72722 7.50319L4.72722 7.50319L5.09235 7.84477ZM5.53831 7.84475L5.17321 8.18636H5.17321L5.53831 7.84475ZM7.10511 9.5193L6.74 9.86091C6.83455 9.96195 6.96674 10.0193 7.10511 10.0193C7.24349 10.0193 7.37568 9.96195 7.47022 9.8609L7.10511 9.5193ZM10.4617 5.93172L10.0966 5.59012L10.0966 5.59012L10.4617 5.93172ZM11.2727 6.75001C11.5757 6.42616 11.5758 5.91401 11.2728 5.59015L10.5425 6.27332C10.511 6.23959 10.5 6.20085 10.5 6.17006C10.5 6.13927 10.511 6.10054 10.5425 6.0668L11.2727 6.75001ZM7.6932 10.5759L11.2727 6.75001L10.5425 6.0668L6.96298 9.89269L7.6932 10.5759ZM6.51704 10.5759C6.83779 10.9187 7.37246 10.9187 7.6932 10.5759L6.96298 9.89269C6.99611 9.85727 7.04768 9.83301 7.10511 9.83301C7.16254 9.83301 7.21411 9.85727 7.24725 9.89269L6.51704 10.5759ZM4.72727 8.66305L6.51704 10.5759L7.24725 9.89269L5.45748 7.97983L4.72727 8.66305ZM4.72722 7.50319C4.42424 7.82706 4.42426 8.33921 4.72727 8.66305L5.45748 7.97983C5.48904 8.01356 5.5 8.0523 5.5 8.08309C5.5 8.11388 5.48905 8.15261 5.45749 8.18635L4.72722 7.50319ZM5.90342 7.50314C5.58265 7.16031 5.04795 7.16034 4.72722 7.50319L5.45749 8.18635C5.42435 8.22177 5.37279 8.24603 5.31535 8.24604C5.25791 8.24604 5.20634 8.22178 5.17321 8.18636L5.90342 7.50314ZM7.47021 9.17768L5.90342 7.50314L5.17321 8.18636L6.74 9.86091L7.47021 9.17768ZM10.0966 5.59012L6.74 9.17769L7.47022 9.8609L10.8268 6.27333L10.0966 5.59012ZM11.2728 5.59015C10.952 5.24731 10.4173 5.24729 10.0966 5.59012L10.8268 6.27333C10.7937 6.30874 10.7421 6.33301 10.6847 6.33301C10.6272 6.33301 10.5757 6.30874 10.5425 6.27332L11.2728 5.59015Z" fill="white"/>
</svg>