<?xml version="1.0" encoding="UTF-8" standalone="no"?>
<svg
   xmlns:dc="http://purl.org/dc/elements/1.1/"
   xmlns:cc="http://creativecommons.org/ns#"
   xmlns:rdf="http://www.w3.org/1999/02/22-rdf-syntax-ns#"
   xmlns:svg="http://www.w3.org/2000/svg"
   xmlns="http://www.w3.org/2000/svg"
   xmlns:sodipodi="http://sodipodi.sourceforge.net/DTD/sodipodi-0.dtd"
   xmlns:inkscape="http://www.inkscape.org/namespaces/inkscape"
   sodipodi:docname="review-anchors-close.svg"
   inkscape:version="1.0 (4035a4fb49, 2020-05-01)"
   id="svg1523"
   version="1.1"
   viewBox="0 0 5.2916665 5.2916668"
   height="20"
   width="20">
  <defs
     id="defs1517" />
  <sodipodi:namedview
     inkscape:window-maximized="0"
     inkscape:window-y="0"
     inkscape:window-x="7"
     inkscape:window-height="1030"
     inkscape:window-width="1895"
     units="px"
     showgrid="false"
     inkscape:document-rotation="0"
     inkscape:current-layer="layer1"
     inkscape:document-units="mm"
     inkscape:cy="12.223052"
     inkscape:cx="11.29685"
     inkscape:zoom="31.678384"
     inkscape:pageshadow="2"
     inkscape:pageopacity="0.0"
     borderopacity="1.0"
     bordercolor="#666666"
     pagecolor="#ffffff"
     id="base" />
  <metadata
     id="metadata1520">
    <rdf:RDF>
      <cc:Work
         rdf:about="">
        <dc:format>image/svg+xml</dc:format>
        <dc:type
           rdf:resource="http://purl.org/dc/dcmitype/StillImage" />
        <dc:title></dc:title>
      </cc:Work>
    </rdf:RDF>
  </metadata>
  <g
     id="layer1"
     inkscape:groupmode="layer"
     inkscape:label="Слой 1">
    <path
       id="path32"
       stroke-linecap="round"
       d="M 2.6458283,-1.6666666e-6 C 1.1906183,-1.6666666e-6 -1.6666667e-6,1.1906283 -1.6666667e-6,2.6458383 v 0 c 0,1.45521 1.1906199666667,2.64583 2.6458299666667,2.64583 1.45521,0 2.64584,-1.19062 2.64584,-2.64583 v 0 c 0,-1.45521 -1.19063,-2.6458399666666 -2.64584,-2.6458399666666 z m 0,5.0436199666666 c -1.32291,0 -2.39777997,-1.07487 -2.39777997,-2.39778 0,-1.32292 1.07486997,-2.39778997 2.39777997,-2.39778997 1.32292,0 2.39779,1.07486997 2.39779,2.39778997 0,1.32291 -1.07487,2.39778 -2.39779,2.39778 z"
       vector-effect="non-scaling-stroke"
       style="opacity:1;fill:#000000;fill-rule:nonzero;stroke:none;stroke-width:0.165365;stroke-linecap:butt;stroke-linejoin:miter;stroke-miterlimit:4;stroke-dasharray:none;stroke-dashoffset:0" />
    <path
       inkscape:label="path36"
       id="path36"
       stroke-linecap="round"
       d="m 3.9166577,1.3932358 c -0.0653,-0.0649 -0.174,-0.0649 -0.23926,0 l -1.02228,1.01721 -1.04403,-1.03885 c -0.0652,-0.0649 -0.174,-0.0649 -0.23925,0 -0.0652,0.0649 -0.0652,0.17314 0,0.23807 l 1.04403,1.03885 -1.04403,1.03886 c -0.0652,0.0649 -0.0652,0.17314 0,0.23807 0.0217,0.0216 0.0653,0.0433 0.10875,0.0433 0.0435,0 0.087,-0.0216 0.10875,-0.0433 l 1.04403,-1.03886 1.04403,1.03886 c 0.0218,0.0216 0.0653,0.0433 0.10876,0.0433 0.0435,0 0.087,-0.0216 0.10875,-0.0433 0.0652,-0.0649 0.0652,-0.17314 0,-0.23807 l -1.00053,-1.03886 1.04403,-1.03885 c 0.0435,-0.0649 0.0435,-0.1515 -0.0217,-0.21643 z"
       vector-effect="non-scaling-stroke"
       style="display:inline;opacity:1;fill:#000000;fill-rule:nonzero;stroke:none;stroke-width:0.216967;stroke-linecap:butt;stroke-linejoin:miter;stroke-miterlimit:4;stroke-dasharray:none;stroke-dashoffset:0" />
  </g>
</svg>
