<?xml version="1.0" encoding="UTF-8" standalone="no"?>
<svg
   xmlns:dc="http://purl.org/dc/elements/1.1/"
   xmlns:cc="http://creativecommons.org/ns#"
   xmlns:rdf="http://www.w3.org/1999/02/22-rdf-syntax-ns#"
   xmlns:svg="http://www.w3.org/2000/svg"
   xmlns="http://www.w3.org/2000/svg"
   xmlns:sodipodi="http://sodipodi.sourceforge.net/DTD/sodipodi-0.dtd"
   xmlns:inkscape="http://www.inkscape.org/namespaces/inkscape"
   sodipodi:docname="review-table-cross.svg"
   inkscape:version="1.0 (4035a4fb49, 2020-05-01)"
   id="svg858"
   version="1.1"
   viewBox="0 0 5.2916665 5.2916668"
   height="20"
   width="20">
  <defs
     id="defs852" />
  <sodipodi:namedview
     inkscape:window-maximized="0"
     inkscape:window-y="0"
     inkscape:window-x="7"
     inkscape:window-height="1030"
     inkscape:window-width="1895"
     units="px"
     showgrid="false"
     inkscape:document-rotation="0"
     inkscape:current-layer="layer1"
     inkscape:document-units="mm"
     inkscape:cy="560"
     inkscape:cx="400"
     inkscape:zoom="0.35"
     inkscape:pageshadow="2"
     inkscape:pageopacity="0.0"
     borderopacity="1.0"
     bordercolor="#666666"
     pagecolor="#ffffff"
     id="base" />
  <metadata
     id="metadata855">
    <rdf:RDF>
      <cc:Work
         rdf:about="">
        <dc:format>image/svg+xml</dc:format>
        <dc:type
           rdf:resource="http://purl.org/dc/dcmitype/StillImage" />
        <dc:title></dc:title>
      </cc:Work>
    </rdf:RDF>
  </metadata>
  <g
     id="layer1"
     inkscape:groupmode="layer"
     inkscape:label="Слой 1">
    <path
       style="opacity:1;fill:#f90000;fill-rule:nonzero;stroke:none;stroke-width:0.0103486;stroke-linecap:butt;stroke-linejoin:miter;stroke-miterlimit:4;stroke-dasharray:none;stroke-dashoffset:0;fill-opacity:1"
       d="m 2.6458328,0.07937518 c -1.417761,0 -2.56645797,1.14869732 -2.56645797,2.56645832 0,1.417761 1.14869697,2.566458 2.56645797,2.566458 1.417762,0 2.566459,-1.148697 2.566459,-2.566458 0,-1.417761 -1.148697,-2.56645832 -2.566459,-2.56645832 z m 1.258393,3.24015332 c 0.04864,0.04864 0.04864,0.127288 0,0.175927 l -0.409806,0.40877 c -0.04864,0.04864 -0.127288,0.04864 -0.175926,0 l -0.672661,-0.678869 -0.673695,0.678869 c -0.04864,0.04864 -0.127288,0.04864 -0.175927,0 l -0.40877,-0.409805 c -0.04864,-0.04864 -0.04864,-0.127288 0,-0.175927 l 0.678869,-0.67266 -0.678869,-0.673695 c -0.04864,-0.04864 -0.04864,-0.127288 0,-0.175927 l 0.409805,-0.409805 c 0.04864,-0.04864 0.127288,-0.04864 0.175927,0 l 0.67266,0.679904 0.673696,-0.678869 c 0.04864,-0.04864 0.127288,-0.04864 0.175926,0 l 0.409806,0.409805 c 0.04864,0.04864 0.04864,0.127288 0,0.175927 l -0.679905,0.67266 z"
       stroke-linecap="round"
       id="path10" />
  </g>
</svg>
