<?xml version="1.0" encoding="UTF-8" standalone="no"?>
<svg
   xmlns:dc="http://purl.org/dc/elements/1.1/"
   xmlns:cc="http://creativecommons.org/ns#"
   xmlns:rdf="http://www.w3.org/1999/02/22-rdf-syntax-ns#"
   xmlns:svg="http://www.w3.org/2000/svg"
   xmlns="http://www.w3.org/2000/svg"
   xmlns:sodipodi="http://sodipodi.sourceforge.net/DTD/sodipodi-0.dtd"
   xmlns:inkscape="http://www.inkscape.org/namespaces/inkscape"
   sodipodi:docname="review-gallery-close.svg"
   inkscape:version="1.0 (4035a4fb49, 2020-05-01)"
   id="svg858"
   version="1.1"
   viewBox="0 0 4.2333332 4.2333335"
   height="16"
   width="16">
  <defs
     id="defs852" />
  <sodipodi:namedview
     inkscape:window-maximized="0"
     inkscape:window-y="0"
     inkscape:window-x="7"
     inkscape:window-height="1030"
     inkscape:window-width="1895"
     units="px"
     showgrid="false"
     inkscape:document-rotation="0"
     inkscape:current-layer="layer1"
     inkscape:document-units="mm"
     inkscape:cy="17.130167"
     inkscape:cx="14.312184"
     inkscape:zoom="11.2"
     inkscape:pageshadow="2"
     inkscape:pageopacity="0.0"
     borderopacity="1.0"
     bordercolor="#666666"
     pagecolor="#ffffff"
     id="base" />
  <metadata
     id="metadata855">
    <rdf:RDF>
      <cc:Work
         rdf:about="">
        <dc:format>image/svg+xml</dc:format>
        <dc:type
           rdf:resource="http://purl.org/dc/dcmitype/StillImage" />
        <dc:title></dc:title>
      </cc:Work>
    </rdf:RDF>
  </metadata>
  <g
     id="layer1"
     inkscape:groupmode="layer"
     inkscape:label="Слой 1">
    <path
       style="opacity:1;fill:#ffffff;fill-rule:nonzero;stroke:none;stroke-width:0.132288;stroke-linecap:butt;stroke-linejoin:miter;stroke-miterlimit:4;stroke-dasharray:none;stroke-dashoffset:0;fill-opacity:1"
       d="m 4.1946433,3.4009185 c 0,0 0,0 0,0 L 2.9103913,2.1166667 4.1946433,0.83241497 c 0,0 0,0 0,0 0.01389,-0.01389 0.02381,-0.030029 0.03029,-0.047227 0.01759,-0.047095 0.0075,-0.101994 -0.03029,-0.1398284 l -0.606673,-0.6066727 c -0.03783,-0.0378340033 -0.09287,-0.047756 -0.139828,-0.030294 -0.0172,0.00635 -0.03334,0.016404 -0.04723,0.030162 0,0 0,0 0,0 L 2.1166603,1.3228067 0.83240831,0.03855487 c 0,0 0,0 0,0 -0.01389,-0.013758 -0.03003,-0.023812 -0.04723,-0.030162 -0.04709,-0.017594 -0.101994,-0.007540003 -0.139828,0.030294 l -0.606673,0.6066727 c -0.0378299964,0.037834 -0.04776,0.092866 -0.03029,0.1398284 0.0065,0.017197 0.0164,0.033337 0.03029,0.047227 0,0 0,0 0,0 L 1.3229293,2.1166667 0.03867731,3.4009185 c 0,0 0,0 0,0 -0.01376,0.01389 -0.02381,0.030029 -0.03029,0.047227 -0.01759,0.046962 -0.007499996,0.101994 0.03029,0.1398284 l 0.606673,0.6066726 c 0.03783,0.037834 0.09287,0.047756 0.139828,0.030294 0.0172,-0.00648 0.03334,-0.016404 0.04723,-0.030294 0,0 0,0 0,0 L 2.1166603,2.9103948 3.4009123,4.1946465 c 0,0 0,0 0,0 0.01389,0.01389 0.03003,0.023812 0.04723,0.030294 0.04709,0.017594 0.101994,0.00754 0.139828,-0.030294 l 0.606673,-0.6066726 c 0.03783,-0.037834 0.04789,-0.092866 0.03029,-0.1398284 -0.0065,-0.017197 -0.0164,-0.033337 -0.03029,-0.047227 z"
       stroke-linecap="round"
       id="path10" />
  </g>
</svg>
