<?xml version="1.0" encoding="UTF-8" standalone="no"?>
<svg
   xmlns:dc="http://purl.org/dc/elements/1.1/"
   xmlns:cc="http://creativecommons.org/ns#"
   xmlns:rdf="http://www.w3.org/1999/02/22-rdf-syntax-ns#"
   xmlns:svg="http://www.w3.org/2000/svg"
   xmlns="http://www.w3.org/2000/svg"
   xmlns:sodipodi="http://sodipodi.sourceforge.net/DTD/sodipodi-0.dtd"
   xmlns:inkscape="http://www.inkscape.org/namespaces/inkscape"
   width="15"
   height="15"
   viewBox="0 0 3.9687501 3.96875"
   version="1.1"
   id="svg858"
   inkscape:version="1.0 (4035a4fb49, 2020-05-01)"
   sodipodi:docname="review-get-b.svg">
  <defs
     id="defs852" />
  <sodipodi:namedview
     id="base"
     pagecolor="#ffffff"
     bordercolor="#666666"
     borderopacity="1.0"
     inkscape:pageopacity="0.0"
     inkscape:pageshadow="2"
     inkscape:zoom="22.4"
     inkscape:cx="10.651019"
     inkscape:cy="11.337521"
     inkscape:document-units="mm"
     inkscape:current-layer="layer1"
     inkscape:document-rotation="0"
     showgrid="false"
     units="px"
     inkscape:window-width="1895"
     inkscape:window-height="1030"
     inkscape:window-x="7"
     inkscape:window-y="0"
     inkscape:window-maximized="0" />
  <metadata
     id="metadata855">
    <rdf:RDF>
      <cc:Work
         rdf:about="">
        <dc:format>image/svg+xml</dc:format>
        <dc:type
           rdf:resource="http://purl.org/dc/dcmitype/StillImage" />
        <dc:title></dc:title>
      </cc:Work>
    </rdf:RDF>
  </metadata>
  <g
     inkscape:label="Слой 1"
     inkscape:groupmode="layer"
     id="layer1">
    <path
       id="path10"
       stroke-linecap="round"
       d="m 0.24804601,3.472656 c 0,0.137201 0.11084597,0.248047 0.24804697,0.248047 H 1.736327 V 2.480469 H 0.24804601 Z M 2.232421,3.720703 h 1.240234 c 0.137201,0 0.248047,-0.110846 0.248047,-0.248047 V 2.480469 H 2.232421 Z M 3.720702,1.240234 H 3.394365 c 0.04806,-0.09379 0.07829,-0.197662 0.07829,-0.31005802 0,-0.375946 -0.306183,-0.68212897 -0.682129,-0.68212897 -0.322461,0 -0.530975,0.16510597 -0.798401,0.52942497 -0.267425,-0.364319 -0.47594,-0.52942497 -0.7984,-0.52942497 -0.37594602,0 -0.68212902,0.30618297 -0.68212902,0.68212897 0,0.11239602 0.02946,0.21626602 0.07829,0.31005802 H 0.24804701 C 0.11084601,1.240234 1.4999999e-8,1.35108 1.4999999e-8,1.488281 v 0.620118 c 0,0.06821 0.055809995,0.124023 0.124022995000001,0.124023 H 3.844726 c 0.06821,0 0.124024,-0.05581 0.124024,-0.124023 V 1.488281 c 0,-0.137201 -0.110846,-0.248047 -0.248048,-0.248047 z m -2.527753,0 c -0.171307,0 -0.31005802,-0.138751 -0.31005802,-0.31005802 0,-0.171307 0.13875102,-0.310059 0.31005802,-0.310059 0.154255,0 0.268201,0.02558 0.667402,0.62011702 z m 1.597577,0 H 2.123125 C 2.52155,0.64724698 2.632396,0.62011698 2.790526,0.62011698 c 0.171308,0 0.310059,0.138752 0.310059,0.310059 0,0.17130702 -0.138751,0.31005802 -0.310059,0.31005802 z"
       style="opacity:1;fill:#5997e3;fill-opacity:1;fill-rule:nonzero;stroke:none;stroke-width:0.00775147;stroke-linecap:butt;stroke-linejoin:miter;stroke-miterlimit:4;stroke-dasharray:none;stroke-dashoffset:0" />
  </g>
</svg>
