<?xml version="1.0" encoding="UTF-8" standalone="no"?>
<svg
   xmlns:dc="http://purl.org/dc/elements/1.1/"
   xmlns:cc="http://creativecommons.org/ns#"
   xmlns:rdf="http://www.w3.org/1999/02/22-rdf-syntax-ns#"
   xmlns:svg="http://www.w3.org/2000/svg"
   xmlns="http://www.w3.org/2000/svg"
   xmlns:sodipodi="http://sodipodi.sourceforge.net/DTD/sodipodi-0.dtd"
   xmlns:inkscape="http://www.inkscape.org/namespaces/inkscape"
   inkscape:version="1.0 (4035a4fb49, 2020-05-01)"
   sodipodi:docname="review-cons-cross.svg"
   id="svg4"
   version="1.1"
   fill="none"
   viewBox="0 0 14 14"
   height="14"
   width="14">
  <metadata
     id="metadata10">
    <rdf:RDF>
      <cc:Work
         rdf:about="">
        <dc:format>image/svg+xml</dc:format>
        <dc:type
           rdf:resource="http://purl.org/dc/dcmitype/StillImage" />
        <dc:title></dc:title>
      </cc:Work>
    </rdf:RDF>
  </metadata>
  <defs
     id="defs8" />
  <sodipodi:namedview
     inkscape:current-layer="svg4"
     inkscape:window-maximized="1"
     inkscape:window-y="-9"
     inkscape:window-x="-9"
     inkscape:cy="15.592815"
     inkscape:cx="8.5154063"
     inkscape:zoom="24.45411"
     showgrid="false"
     id="namedview6"
     inkscape:window-height="1001"
     inkscape:window-width="1920"
     inkscape:pageshadow="2"
     inkscape:pageopacity="0"
     guidetolerance="10"
     gridtolerance="10"
     objecttolerance="10"
     borderopacity="1"
     bordercolor="#666666"
     pagecolor="#ffffff" />
  <path
     style="fill:#f15e64;fill-opacity:1"
     id="path2"
     fill="#E83E8C"
     d="M 8.3014887,7.0000337 11.246889,4.0545438 c 0.1704,-0.17035 0.1704,-0.4468 0,-0.61742 l -0.6844,-0.68442 c -0.1703,-0.17035 -0.4468,-0.17035 -0.6174002,0 L 6.9998887,5.6984337 4.0544187,2.7529838 c -0.17036,-0.17036 -0.4467999,-0.17036 -0.61743,0 L 2.7528488,3.4371237 c -0.1703501,0.1703501 -0.1703501,0.44679 0,0.61742 l 2.9454399,2.94549 -2.9454399,2.9454 c -0.1703501,0.1704003 -0.1703501,0.4468003 0,0.6175003 l 0.6844199,0.6844 c 0.1703501,0.1703 0.44679,0.1703 0.61742,0 l 2.9452,-2.9458003 2.9455,2.9455003 c 0.1703003,0.1704 0.4468003,0.1704 0.6174003,0 l 0.6844,-0.6844 c 0.1703,-0.1704 0.1703,-0.4468 0,-0.6174002 z" />
</svg>
