<?xml version="1.0" encoding="UTF-8" standalone="no"?>
<svg
   xmlns:dc="http://purl.org/dc/elements/1.1/"
   xmlns:cc="http://creativecommons.org/ns#"
   xmlns:rdf="http://www.w3.org/1999/02/22-rdf-syntax-ns#"
   xmlns:svg="http://www.w3.org/2000/svg"
   xmlns="http://www.w3.org/2000/svg"
   xmlns:sodipodi="http://sodipodi.sourceforge.net/DTD/sodipodi-0.dtd"
   xmlns:inkscape="http://www.inkscape.org/namespaces/inkscape"
   sodipodi:docname="review-cons.svg"
   inkscape:version="1.0 (4035a4fb49, 2020-05-01)"
   id="svg858"
   version="1.1"
   viewBox="0 0 10.583333 10.583334"
   height="40"
   width="40">
  <sodipodi:namedview
     inkscape:current-layer="layer1"
     inkscape:window-maximized="1"
     inkscape:window-y="-9"
     inkscape:window-x="-9"
     inkscape:cy="20"
     inkscape:cx="20"
     inkscape:zoom="20.75"
     showgrid="false"
     id="namedview847"
     inkscape:window-height="1001"
     inkscape:window-width="1920"
     inkscape:pageshadow="2"
     inkscape:pageopacity="0"
     guidetolerance="10"
     gridtolerance="10"
     objecttolerance="10"
     borderopacity="1"
     bordercolor="#666666"
     pagecolor="#ffffff" />
  <defs
     id="defs852" />
  <metadata
     id="metadata855">
    <rdf:RDF>
      <cc:Work
         rdf:about="">
        <dc:format>image/svg+xml</dc:format>
        <dc:type
           rdf:resource="http://purl.org/dc/dcmitype/StillImage" />
        <dc:title></dc:title>
      </cc:Work>
    </rdf:RDF>
  </metadata>
  <g
     id="layer1"
     inkscape:groupmode="layer"
     inkscape:label="Слой 1">
    <circle
       style="opacity:0.997742;fill:#f94949;fill-opacity:1;stroke:#66bb6a;stroke-width:0.014664;stroke-opacity:0.121569"
       id="path831"
       cx="5.2916665"
       cy="5.2916665"
       r="5.2843347" />
    <path
       style="opacity:1;fill:#ffffff;fill-opacity:1;fill-rule:nonzero;stroke:none;stroke-width:0.0103353;stroke-linecap:butt;stroke-linejoin:miter;stroke-miterlimit:4;stroke-dasharray:none;stroke-dashoffset:0"
       d="m 7.7789067,4.9849062 c 0.1026,0.13306 0.15859,0.30679 0.15859,0.51899 -10e-6,0.38937 -0.33149,0.75004 -0.75166,0.75004 h -0.72502 c 0.0901,0.1795 0.21389,0.40216 0.21389,0.72158 1e-5,0.60366 -0.24081,0.96201 -0.85688,0.96201 -0.31,0 -0.42505,-0.39189 -0.48399,-0.69482 -0.0352,-0.18098 -0.0685,-0.35194 -0.17079,-0.45425 -0.2436,-0.24361 -0.61553,-0.83531 -0.83896,-0.95545 -0.0226,-0.01 -0.0515,-0.017 -0.083,-0.023 -0.0597,0.0864 -0.15936,0.14312 -0.27233,0.14312 h -0.99219 c -0.18266,0 -0.33073,-0.14807 -0.33073,-0.33073 v -2.64583 c 0,-0.18265 0.14807,-0.33073 0.33073,-0.33073 h 0.99219 c 0.18265,0 0.33073,0.14808 0.33073,0.33073 v 0.0903 c 0.33584,0 1.04062,-0.42113 1.83404,-0.42091 0.0569,-3e-5 0.38913,-3.2e-4 0.42389,0 0.61269,-1.5e-4 0.95348,0.3709 0.93363,0.92803 0.15635,0.18322 0.23295,0.4479 0.18836,0.69355 0.12874,0.20181 0.15634,0.48648 0.0995,0.71732 z m -4.80235,-2.00832 v 2.64583 h 0.99219 v -2.64583 z m 4.38234,2.10476 c 0.16519,-0.12038 0.16519,-0.61648 -0.058,-0.73034 0.13975,-0.23523 0.014,-0.55 -0.15519,-0.64075 0.0857,-0.54301 -0.19597,-0.72973 -0.5913,-0.73353 -0.0342,-3.2e-4 -0.38496,0 -0.42093,0 -0.75374,0 -1.39259,0.42092 -1.83404,0.42092 v 2.10463 c 0.38972,0 0.74729,0.70217 1.09743,1.05231 0.31569,0.3157 0.21046,0.84186 0.42092,1.05231 0.52616,0 0.52616,-0.36708 0.52616,-0.63139 0,-0.43604 -0.31569,-0.63138 -0.31569,-1.05231 h 1.15754 c 0.23492,0 0.41989,-0.21047 0.42093,-0.42092 10e-4,-0.21046 -0.0827,-0.37595 -0.24788,-0.42093 z m -3.6382,-1.60867 c 0,-0.13699 -0.11105,-0.24804 -0.24805,-0.24804 -0.13699,0 -0.24804,0.11105 -0.24804,0.24804 0,0.137 0.11105,0.24805 0.24804,0.24805 0.137,0 0.24805,-0.11105 0.24805,-0.24805 z"
       stroke-linecap="round"
       id="path10" />
  </g>
</svg>
