<?xml version="1.0" encoding="UTF-8" standalone="no"?>
<svg
   xmlns:dc="http://purl.org/dc/elements/1.1/"
   xmlns:cc="http://creativecommons.org/ns#"
   xmlns:rdf="http://www.w3.org/1999/02/22-rdf-syntax-ns#"
   xmlns:svg="http://www.w3.org/2000/svg"
   xmlns="http://www.w3.org/2000/svg"
   xmlns:sodipodi="http://sodipodi.sourceforge.net/DTD/sodipodi-0.dtd"
   xmlns:inkscape="http://www.inkscape.org/namespaces/inkscape"
   sodipodi:docname="review-anchors-open.svg"
   inkscape:version="1.0 (4035a4fb49, 2020-05-01)"
   id="svg897"
   version="1.1"
   viewBox="0 0 5.2916665 5.2916665"
   height="20"
   width="20">
  <defs
     id="defs891" />
  <sodipodi:namedview
     inkscape:window-maximized="0"
     inkscape:window-y="0"
     inkscape:window-x="7"
     inkscape:window-height="1030"
     inkscape:window-width="1895"
     units="px"
     showgrid="false"
     inkscape:document-rotation="0"
     inkscape:current-layer="layer1"
     inkscape:document-units="mm"
     inkscape:cy="9.8203352"
     inkscape:cx="10.69959"
     inkscape:zoom="31.678384"
     inkscape:pageshadow="2"
     inkscape:pageopacity="0.0"
     borderopacity="1.0"
     bordercolor="#666666"
     pagecolor="#ffffff"
     id="base" />
  <metadata
     id="metadata894">
    <rdf:RDF>
      <cc:Work
         rdf:about="">
        <dc:format>image/svg+xml</dc:format>
        <dc:type
           rdf:resource="http://purl.org/dc/dcmitype/StillImage" />
        <dc:title></dc:title>
      </cc:Work>
    </rdf:RDF>
  </metadata>
  <g
     id="layer1"
     inkscape:groupmode="layer"
     inkscape:label="Слой 1">
    <path
       style="opacity:1;fill:#000000;fill-rule:nonzero;stroke:none;stroke-width:0.165365;stroke-linecap:butt;stroke-linejoin:miter;stroke-miterlimit:4;stroke-dasharray:none;stroke-dashoffset:0"
       vector-effect="non-scaling-stroke"
       d="M 2.6458328,1.8333333e-7 C 1.1906248,1.8333333e-7 -1.5e-7,1.1906252 -1.5e-7,2.6458336 v 0 c 0,1.4552084 1.19062495,2.6458329 2.64583295,2.6458329 1.455209,0 2.645834,-1.1906245 2.645834,-2.6458329 v 0 C 5.2916668,1.1906252 4.1010418,1.8333333e-7 2.6458328,1.8333333e-7 Z m 0,5.04362031666667 c -1.322916,0 -2.39778595,-1.0748702 -2.39778595,-2.3977869 0,-1.3229167 1.07486995,-2.39778652 2.39778595,-2.39778652 1.322917,0 2.397787,1.07486982 2.397787,2.39778652 0,1.3229167 -1.07487,2.3977869 -2.397787,2.3977869 z"
       stroke-linecap="round"
       id="path32" />
    <g
       transform="translate(0,0.05561943)"
       id="g2100">
      <path
         id="path20"
         stroke-linecap="round"
         d="M 3.8412397,3.513553 H 1.450427 c -0.063755,0 -0.12751,0.064492 -0.12751,0.1719791 0,0.107487 0.047816,0.1719792 0.12751,0.1719792 h 2.3908127 c 0.063755,0 0.12751,-0.064492 0.12751,-0.1719792 0,-0.107487 -0.063755,-0.1719791 -0.12751,-0.1719791 z"
         vector-effect="non-scaling-stroke"
         style="fill:#000000;fill-rule:nonzero;stroke:none;stroke-width:0.185106;stroke-linecap:butt;stroke-linejoin:miter;stroke-miterlimit:4;stroke-dasharray:none;stroke-dashoffset:0" />
      <path
         id="path12"
         stroke-linecap="round"
         d="M 3.8412397,1.3229165 H 1.450427 c -0.063755,0 -0.12751,0.064492 -0.12751,0.1719792 0,0.1074869 0.047816,0.1719791 0.12751,0.1719791 h 2.3908127 c 0.063755,0 0.12751,-0.064492 0.12751,-0.1719791 0,-0.107487 -0.063755,-0.1719792 -0.12751,-0.1719792 z"
         vector-effect="non-scaling-stroke"
         style="fill:#000000;fill-rule:nonzero;stroke:none;stroke-width:0.185106;stroke-linecap:butt;stroke-linejoin:miter;stroke-miterlimit:4;stroke-dasharray:none;stroke-dashoffset:0" />
      <path
         id="path16"
         stroke-linecap="round"
         d="M 3.8412397,2.4324596 H 1.450427 c -0.063755,0 -0.12751,0.064492 -0.12751,0.1719792 0,0.1074869 0.047816,0.1719791 0.12751,0.1719791 h 2.3908127 c 0.063755,0 0.12751,-0.064492 0.12751,-0.1719791 0,-0.107487 -0.063755,-0.1719792 -0.12751,-0.1719792 z"
         vector-effect="non-scaling-stroke"
         style="fill:#000000;fill-rule:nonzero;stroke:none;stroke-width:0.185106;stroke-linecap:butt;stroke-linejoin:miter;stroke-miterlimit:4;stroke-dasharray:none;stroke-dashoffset:0" />
    </g>
  </g>
</svg>
